<?xml version="1.0" encoding="utf-8"?>
<!-- Generator: Adobe Illustrator 19.2.1, SVG Export Plug-In . SVG Version: 6.00 Build 0)  -->
<svg version="1.1" id="Layer_1" xmlns="http://www.w3.org/2000/svg" xmlns:xlink="http://www.w3.org/1999/xlink" x="0px" y="0px"
	 viewBox="0 0 2560 1600" style="enable-background:new 0 0 2560 1600;" xml:space="preserve">
<g>
	<path d="M1140.3,636.8c1.1,0,2.1-0.5,2.4-1c0.3-0.3,0.4-0.5,0.7-0.3l0.7,0.5c0.2,0.2,0.3,0.5-0.1,1.2c-0.5,1-1.9,3.4-5.4,3.4
		c-2.5,0-4.3-1.8-4.9-4.6h-0.1c-1.4,1.7-3.7,3.2-6.8,4.2c-1.3,0.4-2.5,0.4-4.1,0.4c-1.6,0-4.1-1.4-4.1-5.7c0-3.2,1.4-5.9,6.9-8.3
		c3.1-1.4,6.7-3,7.8-4v-4.4c-0.1-1.2-0.2-3-1-3.8c-0.8-0.9-2.1-1.5-4.1-1.5c-1.4,0-3.5,0.5-4.5,1.4s-0.3,1.9-0.3,3.2
		c0,2.4-0.8,3.9-3.6,3.9c-1.1,0-1.6-0.6-1.6-2.2c0-2.2,1.9-4.8,4.7-6.5c2.9-1.7,5.3-2.4,8.4-2.4c3.2,0,4.5,1,5.5,1.9
		c1.4,1.4,1.5,3,1.5,4.9v14.6C1138.3,635.6,1139.1,636.8,1140.3,636.8z M1133.3,624.7c-2.5,1.9-9.2,3.2-9.2,8.9
		c0,2.5,1.5,3.8,3.6,3.8c2,0,5.6-2.4,5.6-4.3V624.7z"/>
	<path d="M1168.4,636.1c0,1.1,0.6,1.4,1.5,1.4h2.2c0.6,0,0.8,0.2,0.8,0.6v1.1c0,0.5-0.1,0.8-0.5,0.8c-0.5,0-2.6-0.2-6.5-0.2
		c-3.5,0-5.7,0.2-6.2,0.2c-0.4,0-0.5-0.2-0.5-0.8v-1.1c0-0.5,0.2-0.6,0.9-0.6h2c0.8,0,1.3-0.3,1.4-1.6c0.1-1.8,0.1-4,0.1-5.8v-9.1
		c0-2.7,0-4.7-2-6.2c-1.6-1.2-3.3-1.2-5-1.2c-1.1,0-3.5,0.5-5.6,2.7c-1.4,1.5-1.6,3.4-1.6,4.7v14.2c0,1.9,0.2,2.3,1.6,2.3h1.7
		c0.5,0,0.7,0.2,0.7,0.7v1.2c0,0.4-0.1,0.6-0.5,0.6c-0.5,0-2.3-0.2-6-0.2c-3.5,0-5.7,0.2-6.1,0.2c-0.3,0-0.5-0.2-0.5-0.6v-1.2
		c0-0.4,0.1-0.6,0.7-0.6h2c0.9,0,1.4-0.2,1.4-1.4v-16.1c0-2.1-1.1-3.2-2.8-4.1l-0.5-0.3c-0.5-0.2-0.5-0.4-0.5-0.6v-0.3
		c0-0.3,0.3-0.5,0.6-0.7l5.9-3.3c0.5-0.3,1-0.5,1.2-0.5c0.3,0,0.5,0.3,0.5,0.8l0.5,4.2h0.1c2-2.5,6-5,9.4-5c2.1,0,4.2,0.4,5.8,1.5
		c2.1,1.4,3.8,4.8,3.8,6.5V636.1z"/>
	<path d="M1192.3,598c0-2.6-0.5-3.4-4.3-4.1c-0.4-0.1-0.5-0.2-0.5-0.5v-1.2c0-0.3,0.1-0.4,0.5-0.5c2.7-0.5,6.2-1.2,7.6-1.4
		c0.6-0.1,1.1-0.2,1.6-0.2c0.3,0,0.4,0.5,0.3,1.2c-0.2,3.4-0.3,13.4-0.3,22.1v15.2c0,2.5,0.1,5.6,0.7,6.2c0.6,0.7,2.1,1.1,3,1.2
		s1.2,0.1,1.4,0.5l0.1,0.5c0.1,0.4-0.1,0.6-0.5,0.8l-7.8,2.6c-0.4,0.1-0.8-0.1-0.9-0.5l-0.9-3c-2.2,2.2-6.6,3.7-10.1,3.7
		c-2.3,0-4.9,0.1-8.1-3.2c-3.5-3.4-4.3-6.5-4.3-11.1c0-4.3,1.6-8.4,4.8-11.7c2.7-2.9,6.4-4.3,10.2-4.3c2.8,0,5.3,0.4,7.3,1V598z
		 M1192.3,619.8c0-1,0-2.3-0.6-3.4c-1-1.9-3.2-3.7-7.2-3.7c-2.1,0-4.5,0.6-6.2,2.5c-2.7,2.9-3.2,6.5-3.2,9.1
		c0,7.8,5.4,13.4,9.3,13.4c3.8,0,6.8-2,7.5-3.8c0.3-1,0.4-1.6,0.4-2.3V619.8z"/>
	<path d="M1218.4,631.3c0,5.1,2.3,6,3.6,6c1.6,0,3.6-0.3,4.5-0.9c0.3-0.2,0.6-0.1,0.8,0.1l0.3,0.6c0.2,0.3,0.1,0.5-0.1,0.8
		c-0.7,0.7-3.5,2.7-7.6,2.7c-3.4,0-6.7-3.2-6.7-5.8c0-2.8,0.2-8.9,0.2-9.8v-1.5c0-1.2,0.1-5.9,0.1-8.8h-4.2c-0.6,0-1-0.3-1-0.8
		c0-0.5,0.4-0.8,1.2-1.2c1.6-1,6.9-6.2,7.8-8.6c0.2-0.5,0.5-0.7,1-0.7c0.5,0,0.7,0.5,0.7,1l-0.3,6.7h9.5c0.4,0,0.6,0.3,0.5,0.6
		l-0.7,2.4c-0.1,0.3-0.2,0.5-0.6,0.5h-8.9c-0.1,3.2-0.2,6.5-0.2,9.7V631.3z"/>
	<path d="M1228.6,602.4c0-4.2-0.8-4.9-3.3-5.8l-1.2-0.4c-0.4-0.1-0.5-0.2-0.5-0.4v-0.6c0-0.3,0.2-0.3,0.8-0.7l7.1-3.8
		c0.5-0.3,1-0.5,1.6-0.5c0.4,0,0.7,0.5,0.5,1.7s-0.2,15.1-0.2,18.5v4.4h0.3c2.4-2.9,6.4-4.5,9.4-4.5c2.9,0,4.9,0.9,6.8,2.7
		c3.1,2.9,3,6.4,3,10.1v3.9c0,3.8,0.1,8.1,0.1,9.4c0,0.8,1.1,1,2.5,1h1.2c0.5,0,0.8,0.1,0.8,0.6v1c0,0.5-0.1,0.8-0.5,0.8
		c-0.5,0-2.7-0.2-6.6-0.2c-3.4,0-5.8,0.2-6.5,0.2c-0.5,0-0.6-0.2-0.6-0.8v-1.2c0-0.3,0.1-0.5,0.5-0.5h1.6c1.2,0,2.5-0.1,2.6-1.3
		c0.1-1,0-4.6,0-6.8v-5.6c0-3.8-0.3-6.6-2.3-8.4c-1.4-1.3-2.8-1.9-4.5-1.9c-2,0-4.5,0.7-6.4,2.9c-0.6,0.8-1.4,2.1-1.4,3.4v15
		c0,2.2,0.2,2.8,1.5,2.8h2.1c0.5,0,0.8,0.1,0.8,0.5v1.2c0,0.5-0.1,0.8-0.5,0.8c-0.5,0-3.4-0.2-6.5-0.2c-3.4,0-6,0.2-6.7,0.2
		c-0.3,0-0.5-0.2-0.5-0.7v-1.2c0-0.5,0.3-0.5,1-0.5h1.4c1.1,0,2.1-0.3,2.3-1.1c0.2-1.3,0.2-8.9,0.2-13.3V602.4z"/>
	<path d="M1259.9,621.6c-0.1,0.6-0.2,1.7-0.2,3.3c0,6.7,4.3,11.8,9.8,11.8c4.2,0,7.1-2.4,8.3-4.7c0.1-0.3,0.4-0.4,0.6-0.3l0.9,0.5
		c0.2,0.1,0.3,0.3,0,1c-1.2,2.7-4.8,7.5-10.9,7.5c-3.9,0-8.2-1.2-10.8-4.9c-2.4-3.5-3-6-3-10.8c0-2.7,0.7-7.3,4.3-10.9
		c3-3,6.4-3.6,9.8-3.6c7.9,0,10.1,7.4,10.1,10.1c0,1-0.8,1.1-1.9,1.1H1259.9z M1270.8,619.5c1.3,0,1.9-0.3,1.9-1
		c0-1.6-0.8-6.1-5.3-6.1c-3,0-5.9,2-7.2,7.1H1270.8z"/>
	<path d="M1305.1,636.1c0,1.1,0.6,1.4,1.5,1.4h2.2c0.6,0,0.8,0.2,0.8,0.6v1.1c0,0.5-0.1,0.8-0.5,0.8c-0.5,0-2.6-0.2-6.5-0.2
		c-3.5,0-5.7,0.2-6.2,0.2c-0.4,0-0.5-0.2-0.5-0.8v-1.1c0-0.5,0.2-0.6,0.9-0.6h2c0.8,0,1.3-0.3,1.4-1.6c0.1-1.8,0.1-4,0.1-5.8v-9.1
		c0-2.7,0-4.7-2-6.2c-1.6-1.2-3.3-1.2-5-1.2c-1.1,0-3.5,0.5-5.6,2.7c-1.4,1.5-1.6,3.4-1.6,4.7v14.2c0,1.9,0.2,2.3,1.6,2.3h1.7
		c0.5,0,0.7,0.2,0.7,0.7v1.2c0,0.4-0.1,0.6-0.5,0.6c-0.5,0-2.3-0.2-6-0.2c-3.5,0-5.7,0.2-6.1,0.2c-0.3,0-0.5-0.2-0.5-0.6v-1.2
		c0-0.4,0.1-0.6,0.7-0.6h2c0.9,0,1.4-0.2,1.4-1.4v-16.1c0-2.1-1.1-3.2-2.8-4.1l-0.5-0.3c-0.5-0.2-0.5-0.4-0.5-0.6v-0.3
		c0-0.3,0.3-0.5,0.6-0.7l5.9-3.3c0.5-0.3,1-0.5,1.2-0.5c0.3,0,0.5,0.3,0.5,0.8l0.5,4.2h0.1c2-2.5,6-5,9.4-5c2.1,0,4.2,0.4,5.8,1.5
		c2.1,1.4,3.8,4.8,3.8,6.5V636.1z"/>
</g>
<g>
	<path d="M1122.2,687.9c0-2.3-0.4-3.6-3.8-4.1c-0.5-0.1-0.6-0.2-0.6-0.5v-0.6c0-0.2,0.1-0.3,0.5-0.5c2.2-0.8,4.8-1.9,7.4-3.4
		c0.5-0.3,0.9-0.4,1.3-0.4c0.3,0,0.4,0.3,0.3,0.8c-0.1,1.2-0.1,5.5-0.1,11.2v7.5c0,2.7,0,5.1,0.1,5.9c0.1,1.3,0.3,1.8,1.1,1.8h3.2
		c0.5,0,0.7,0.2,0.7,0.6v1.2c0,0.5-0.1,0.7-0.6,0.7c-0.5,0-3.7-0.2-6.6-0.2c-4,0-6.7,0.2-7.4,0.2c-0.3,0-0.5-0.1-0.5-0.5v-1.4
		c0-0.4,0.2-0.5,0.7-0.5h3.4c0.8,0,1-0.3,1.1-1.4c0.1-2.1,0.1-4.2,0.1-6.2V687.9z M1119,666.8c0-1.8,1.5-3.8,4.3-3.8
		c2.5,0,3.7,2.1,3.7,3.6c0,1.9-1.2,4.1-4.1,4.1C1121.3,670.6,1119,669.1,1119,666.8z"/>
	<path d="M1162.4,704.8c1.1,0,2.1-0.5,2.4-1c0.3-0.3,0.4-0.5,0.7-0.3l0.7,0.5c0.2,0.2,0.3,0.5-0.1,1.2c-0.5,1-1.9,3.4-5.4,3.4
		c-2.5,0-4.3-1.8-4.9-4.6h-0.1c-1.4,1.7-3.7,3.2-6.8,4.2c-1.3,0.4-2.5,0.4-4.1,0.4c-1.6,0-4.1-1.4-4.1-5.7c0-3.2,1.4-5.9,6.9-8.3
		c3.1-1.4,6.7-3,7.8-4v-4.4c-0.1-1.2-0.2-3-1-3.8c-0.8-0.9-2.1-1.5-4.1-1.5c-1.4,0-3.5,0.5-4.5,1.4c-1,0.9-0.3,1.9-0.3,3.2
		c0,2.4-0.8,3.9-3.6,3.9c-1.1,0-1.6-0.6-1.6-2.2c0-2.2,1.9-4.8,4.7-6.5c2.9-1.7,5.3-2.4,8.4-2.4c3.2,0,4.5,1,5.5,1.9
		c1.4,1.4,1.5,3,1.5,4.9v14.6C1160.3,703.6,1161.1,704.8,1162.4,704.8z M1155.3,692.7c-2.5,1.9-9.2,3.2-9.2,8.9
		c0,2.5,1.5,3.8,3.6,3.8c2,0,5.6-2.4,5.6-4.3V692.7z"/>
	<path d="M1171.2,687.4c0,3.6,0,13.9,0.1,16.1c0.1,1.2,0.3,2.1,1.8,2.1h3.1c0.6,0,0.8,0.2,0.8,0.6v1.2c0,0.4-0.1,0.7-0.4,0.7
		c-0.5,0-3.5-0.2-7.8-0.2c-4.4,0-7.1,0.2-7.8,0.2c-0.3,0-0.5-0.3-0.5-0.7v-1.2c0-0.5,0.1-0.6,0.9-0.6h3.3c0.8,0,1.4-0.5,1.5-1.7
		c0.1-2.1,0.1-13.9,0.1-17.9v-4.3c0-4.9-0.1-11.1-0.2-12.9c-0.1-2.3-1.2-3.4-3.4-4.1l-1.4-0.5c-0.3-0.1-0.4-0.2-0.4-0.3v-0.5
		c0-0.2,0.2-0.3,0.6-0.5c2.4-1.1,5.5-2.3,8-4c0.6-0.4,1-0.5,1.4-0.5c0.5,0,0.6,0.3,0.5,1.2c-0.1,3.8-0.3,18.1-0.3,21.8V687.4z"/>
	<path d="M1174.9,706.7c-0.3-0.2-0.3-0.6-0.4-1l-1.2-6.5c-0.1-0.3,0.1-0.5,0.4-0.5l0.9-0.2c0.3-0.1,0.5,0.1,0.6,0.4l1.7,3.4
		c1.4,2.5,2.3,4.3,6,4.3c2.4,0,5.4-1.4,5.4-4.7c0-3.1-1.5-4.9-6.7-6.3c-4.1-1.2-8.1-3.3-8.1-8.7c0-4.7,4.5-8.4,9.6-8.4
		c3.3,0,5.1,0.8,6.3,1.4c1,0.5,1.2,0.8,1.2,1.2l1,4.8c0,0.3-0.1,0.5-0.5,0.6l-0.8,0.3c-0.3,0.1-0.4,0-0.6-0.3l-2.3-3.2
		c-0.8-1.3-2.1-2.7-4.8-2.7c-2.6,0-5.3,1.6-5.3,4.5c0,4,3.2,4.7,6.6,5.7c5,1.4,8.2,3.5,8.2,8.8c-0.1,5.6-4.6,9.1-10.4,9.1
		C1178.5,708.7,1175.7,707.3,1174.9,706.7z"/>
	<path d="M1194.2,703.9c-3.2-3.8-3.8-6.3-3.8-11.2c0-3.5,1.9-7.9,5.9-11.1c3.6-2.7,6.9-3.3,9.2-3.3c3.8,0,7.6,1.9,9.6,4
		c3.1,3.2,4.7,6.7,4.7,11.2c0,7.5-6.7,15.1-15.2,15.1C1201.3,708.7,1197.1,707.4,1194.2,703.9z M1214,692.9c0-7.6-5.6-12.4-9.1-12.4
		c-1.9,0-3.6,0.4-5.3,2.2c-2.7,2.7-3.6,5.6-3.6,10.8c0,3.8,0.4,6.5,2.6,9.6c1.6,2.3,3.6,3.6,6.8,3.6
		C1210.7,706.6,1214,700.2,1214,692.9z"/>
</g>
</svg>
