<?xml version="1.0" encoding="utf-8"?>
<!-- Generator: Adobe Illustrator 19.2.1, SVG Export Plug-In . SVG Version: 6.00 Build 0)  -->
<svg version="1.1" id="Layer_1" xmlns="http://www.w3.org/2000/svg" xmlns:xlink="http://www.w3.org/1999/xlink" x="0px" y="0px"
	 viewBox="0 0 2560 1600" style="enable-background:new 0 0 2560 1600;" xml:space="preserve">
<g>
	<path d="M1122.2,619.9c0-2.3-0.4-3.6-3.8-4.1c-0.5-0.1-0.6-0.2-0.6-0.5v-0.6c0-0.2,0.1-0.3,0.5-0.5c2.2-0.8,4.8-1.9,7.4-3.4
		c0.5-0.3,0.9-0.4,1.3-0.4c0.3,0,0.4,0.3,0.3,0.8c-0.1,1.2-0.1,5.5-0.1,11.2v7.5c0,2.7,0,5.1,0.1,5.9c0.1,1.3,0.3,1.8,1.1,1.8h3.2
		c0.5,0,0.7,0.2,0.7,0.6v1.2c0,0.5-0.1,0.7-0.6,0.7c-0.5,0-3.7-0.2-6.6-0.2c-4,0-6.7,0.2-7.4,0.2c-0.3,0-0.5-0.1-0.5-0.5v-1.4
		c0-0.4,0.2-0.5,0.7-0.5h3.4c0.8,0,1-0.3,1.1-1.4c0.1-2.1,0.1-4.2,0.1-6.2V619.9z M1119,598.8c0-1.8,1.5-3.8,4.3-3.8
		c2.5,0,3.7,2.1,3.7,3.6c0,1.9-1.2,4.1-4.1,4.1C1121.3,602.6,1119,601.1,1119,598.8z"/>
	<path d="M1148.9,631.3c0,5.1,2.3,6,3.6,6c1.6,0,3.6-0.3,4.5-0.9c0.3-0.2,0.6-0.1,0.8,0.1l0.3,0.6c0.2,0.3,0.1,0.5-0.1,0.8
		c-0.7,0.7-3.5,2.7-7.6,2.7c-3.4,0-6.7-3.2-6.7-5.8c0-2.8,0.2-8.9,0.2-9.8v-1.5c0-1.2,0.1-5.9,0.1-8.8h-4.2c-0.6,0-1-0.3-1-0.8
		s0.4-0.8,1.2-1.2c1.6-1,6.9-6.2,7.8-8.6c0.2-0.5,0.5-0.7,1-0.7c0.5,0,0.7,0.5,0.7,1l-0.3,6.7h9.5c0.4,0,0.6,0.3,0.5,0.6l-0.7,2.4
		c-0.1,0.3-0.2,0.5-0.6,0.5h-8.9c-0.1,3.2-0.2,6.5-0.2,9.7V631.3z"/>
	<path d="M1159,602.4c0-4.2-0.8-4.9-3.3-5.8l-1.2-0.4c-0.4-0.1-0.5-0.2-0.5-0.4v-0.6c0-0.3,0.2-0.3,0.8-0.7l7.1-3.8
		c0.5-0.3,1-0.5,1.6-0.5c0.4,0,0.7,0.5,0.5,1.7c-0.1,1.2-0.2,15.1-0.2,18.5v4.4h0.3c2.4-2.9,6.4-4.5,9.4-4.5c2.9,0,4.9,0.9,6.8,2.7
		c3.1,2.9,3,6.4,3,10.1v3.9c0,3.8,0.1,8.1,0.1,9.4c0,0.8,1.1,1,2.5,1h1.2c0.5,0,0.8,0.1,0.8,0.6v1c0,0.5-0.1,0.8-0.5,0.8
		c-0.5,0-2.7-0.2-6.6-0.2c-3.4,0-5.8,0.2-6.5,0.2c-0.5,0-0.6-0.2-0.6-0.8v-1.2c0-0.3,0.1-0.5,0.5-0.5h1.6c1.2,0,2.5-0.1,2.6-1.3
		c0.1-1,0-4.6,0-6.8v-5.6c0-3.8-0.3-6.6-2.3-8.4c-1.4-1.3-2.8-1.9-4.5-1.9c-2,0-4.5,0.7-6.4,2.9c-0.6,0.8-1.4,2.1-1.4,3.4v15
		c0,2.2,0.2,2.8,1.5,2.8h2.1c0.5,0,0.8,0.1,0.8,0.5v1.2c0,0.5-0.1,0.8-0.5,0.8c-0.5,0-3.4-0.2-6.5-0.2c-3.4,0-6,0.2-6.7,0.2
		c-0.3,0-0.5-0.2-0.5-0.7v-1.2c0-0.5,0.3-0.5,1-0.5h1.4c1.1,0,2.1-0.3,2.3-1.1c0.2-1.3,0.2-8.9,0.2-13.3V602.4z"/>
	<path d="M1189.4,619.9c0-2.3-0.4-3.6-3.8-4.1c-0.5-0.1-0.6-0.2-0.6-0.5v-0.6c0-0.2,0.1-0.3,0.5-0.5c2.2-0.8,4.8-1.9,7.4-3.4
		c0.5-0.3,0.9-0.4,1.3-0.4c0.3,0,0.4,0.3,0.3,0.8c-0.1,1.2-0.1,5.5-0.1,11.2v7.5c0,2.7,0,5.1,0.1,5.9c0.1,1.3,0.3,1.8,1.1,1.8h3.2
		c0.5,0,0.7,0.2,0.7,0.6v1.2c0,0.5-0.1,0.7-0.6,0.7c-0.5,0-3.7-0.2-6.6-0.2c-4,0-6.7,0.2-7.4,0.2c-0.3,0-0.5-0.1-0.5-0.5v-1.4
		c0-0.4,0.2-0.5,0.7-0.5h3.4c0.8,0,1-0.3,1.1-1.4c0.1-2.1,0.1-4.2,0.1-6.2V619.9z M1186.2,598.8c0-1.8,1.5-3.8,4.3-3.8
		c2.5,0,3.7,2.1,3.7,3.6c0,1.9-1.2,4.1-4.1,4.1C1188.5,602.6,1186.2,601.1,1186.2,598.8z"/>
	<path d="M1224.7,636.1c0,1.1,0.6,1.4,1.5,1.4h2.2c0.6,0,0.8,0.2,0.8,0.6v1.1c0,0.5-0.1,0.8-0.5,0.8c-0.5,0-2.6-0.2-6.5-0.2
		c-3.5,0-5.7,0.2-6.2,0.2c-0.4,0-0.5-0.2-0.5-0.8v-1.1c0-0.5,0.2-0.6,0.9-0.6h2c0.8,0,1.3-0.3,1.4-1.6c0.1-1.8,0.1-4,0.1-5.8v-9.1
		c0-2.7,0-4.7-2-6.2c-1.6-1.2-3.3-1.2-5-1.2c-1.1,0-3.5,0.5-5.6,2.7c-1.4,1.5-1.6,3.4-1.6,4.7v14.2c0,1.9,0.2,2.3,1.6,2.3h1.7
		c0.5,0,0.7,0.2,0.7,0.7v1.2c0,0.4-0.1,0.6-0.5,0.6c-0.5,0-2.3-0.2-6-0.2c-3.5,0-5.7,0.2-6.1,0.2c-0.3,0-0.5-0.2-0.5-0.6v-1.2
		c0-0.4,0.1-0.6,0.7-0.6h2c0.9,0,1.4-0.2,1.4-1.4v-16.1c0-2.1-1.1-3.2-2.8-4.1l-0.5-0.3c-0.5-0.2-0.5-0.4-0.5-0.6v-0.3
		c0-0.3,0.3-0.5,0.6-0.7l5.9-3.3c0.5-0.3,1-0.5,1.2-0.5c0.3,0,0.5,0.3,0.5,0.8l0.5,4.2h0.1c2-2.5,6-5,9.4-5c2.1,0,4.2,0.4,5.8,1.5
		c2.1,1.4,3.8,4.8,3.8,6.5V636.1z"/>
	<path d="M1230.1,600.4c0-2.8-0.2-4-3.6-4.9c-0.8-0.2-1-0.3-1-0.5v-0.6c0-0.3,0.2-0.4,0.9-0.7l7-3c0.6-0.3,1.1-0.5,1.5-0.5
		c0.4,0,0.5,0.3,0.4,1.2c-0.3,3.3-0.3,13.4-0.3,21.6v10.8c0.9,0,2.6-0.2,3.3-0.8c1.3-0.9,6.7-6.9,7.3-7.7c0.4-0.8,0.4-1.3,0-1.6
		c-0.5-0.4-1.4-0.4-1.8-0.4c-0.5,0-0.5-0.2-0.5-0.6v-1.3c0-0.3,0.1-0.5,0.5-0.5c0.4,0,2.9,0.2,6.4,0.2c3.4,0,5.1-0.2,5.6-0.2
		c0.3,0,0.4,0.2,0.4,0.7v1.2c0,0.4-0.1,0.5-0.5,0.5h-0.5c-1.4,0-3.4,0.7-4.7,1.6c-1,0.5-6.7,5.9-9.1,8.2
		c1.4,1.4,12.9,12.9,14.1,13.5c1.2,0.6,2.8,1,3.6,1c0.4,0,0.5,0.1,0.5,0.6v1.2c0,0.4-0.1,0.6-0.6,0.6c-0.5,0-2.5-0.2-5.7-0.2
		c-4.1,0-6.9,0.2-7.5,0.2c-0.3,0-0.5-0.2-0.5-0.7v-1.1c0-0.3,0.1-0.5,0.7-0.5h0.5c0.5,0,1-0.5,0.8-1.1c-0.2-0.5-8-8.9-9.1-9.9
		c-0.8-0.6-2.1-0.8-3-0.8v3c0,2.4,0,4.7,0.1,7.1c0.1,1,0.4,1.4,1.4,1.4h2c0.5,0,0.6,0.1,0.6,0.5v1.2c0,0.5-0.1,0.8-0.5,0.8
		s-2.7-0.2-6.1-0.2c-3.7,0-6.1,0.2-6.6,0.2c-0.2,0-0.3-0.3-0.3-0.7v-1.2c0-0.5,0.2-0.6,0.7-0.6h2.5c0.9,0,1.2-0.8,1.2-1.6
		c0.1-3,0.1-6.7,0.1-12.8V600.4z"/>
	<path d="M1264.6,638.6c0,7.2-6.7,12.1-8,12.9c-0.4,0.2-0.9,0.6-1.4,0.6c-0.5,0-0.8-0.2-0.8-0.6c0-0.4,0.1-0.5,0.6-1
		c1.6-1.5,4.9-4.9,4.9-8.7c0-0.9-0.6-1.9-1.2-2.1c-0.7-0.3-3.9-1.1-3.9-4.5c0-1.7,1.4-3.2,3.8-3.2
		C1261.1,632,1264.6,634.2,1264.6,638.6z"/>
</g>
<g>
	<path d="M1194.4,701.9c0-2.3-0.4-3.6-3.8-4.1c-0.5-0.1-0.6-0.2-0.6-0.5v-0.6c0-0.2,0.1-0.3,0.5-0.5c2.2-0.8,4.8-1.9,7.4-3.4
		c0.5-0.3,0.9-0.4,1.3-0.4c0.3,0,0.4,0.3,0.3,0.8c-0.1,1.2-0.1,5.5-0.1,11.2v7.5c0,2.7,0,5.1,0.1,5.9c0.1,1.3,0.3,1.8,1.1,1.8h3.2
		c0.5,0,0.7,0.2,0.7,0.6v1.2c0,0.5-0.1,0.7-0.6,0.7c-0.5,0-3.7-0.2-6.6-0.2c-4,0-6.7,0.2-7.4,0.2c-0.3,0-0.5-0.1-0.5-0.5v-1.4
		c0-0.4,0.2-0.5,0.7-0.5h3.4c0.8,0,1-0.3,1.1-1.4c0.1-2.1,0.1-4.2,0.1-6.2V701.9z M1191.1,680.8c0-1.8,1.5-3.8,4.3-3.8
		c2.5,0,3.7,2.1,3.7,3.6c0,1.9-1.2,4.1-4.1,4.1C1193.5,684.6,1191.1,683,1191.1,680.8z"/>
	<path d="M1218.2,678.1c0,6.5-6,10.8-7.2,11.6c-0.3,0.2-0.7,0.5-1.2,0.5c-0.5,0-0.7-0.2-0.7-0.5c0-0.3,0-0.5,0.5-0.9
		c1.4-1.4,4.3-4.4,4.3-7.8c0-0.9-0.5-1.7-1-1.9c-0.6-0.3-3.5-1-3.5-4c0-1.6,1.2-3,3.4-3C1215,672.2,1218.2,674.3,1218.2,678.1z"/>
	<path d="M1243.1,704.3c0-5.1-1-6.4-2.1-7.4c-0.9-0.8-2.9-1.2-4.4-1.2c-1.8,0-4.7,0.9-6.6,4c-0.8,1.4-1,2.7-1,4.6v13.6
		c0,1.1,0.4,1.8,1.4,1.8h2.5c0.6,0,0.7,0.1,0.7,0.6v1.1c0,0.5-0.1,0.8-0.5,0.8c-0.6,0-2.5-0.2-6.2-0.2c-3.6,0-5.8,0.2-6.4,0.2
		c-0.4,0-0.5-0.1-0.5-0.6v-1.2c0-0.5,0.1-0.6,0.8-0.6h2.3c0.6,0,1-0.4,1-1.7c0.1-1.2,0.1-2.4,0.1-3.6v-12.2c0-1.4-0.3-2.6-1.9-3.5
		l-1.4-0.8c-0.3-0.2-0.5-0.3-0.5-0.5v-0.5c0-0.2,0.3-0.5,0.4-0.5l6-3.1c0.5-0.3,1-0.4,1.3-0.4c0.4,0,0.6,0.5,0.6,1l0.3,4h0.2
		c2.1-2.8,6.1-5.2,10.1-5.2c3.6,0,6.3,2.1,7.8,5.3h0.3c2.1-2.7,6-5.3,10.1-5.3c2.4,0,4.5,0.4,6.2,2.1c1.6,1.6,3.3,3.2,3.3,8.4v15.3
		c0,1,0.6,1.4,1.4,1.4h1.9c0.6,0,0.8,0.1,0.8,0.6v1.2c0,0.5-0.1,0.7-0.5,0.7c-0.5,0-2.4-0.2-5.7-0.2c-3.4,0-5.9,0.2-6.4,0.2
		c-0.4,0-0.5-0.2-0.5-0.7v-1.2c0-0.5,0.1-0.6,0.9-0.6h1.7c0.8,0,1.3-0.3,1.4-1.3c0.1-1.6,0.1-4.1,0.1-5.6v-10.2c0-2.3-0.4-4.3-2-5.5
		c-1.2-1-3-1.4-5.1-1.4c-2.1,0-4.9,1.6-6,3.6c-1,2-1,3.8-1,6.9V718c0,0.9,0.3,1.6,1.4,1.6h2.3c0.6,0,0.8,0.1,0.8,0.6v1.1
		c0,0.5-0.1,0.8-0.5,0.8c-0.5,0-2.3-0.2-6.1-0.2c-3.7,0-6,0.2-6.5,0.2c-0.3,0-0.5-0.2-0.5-0.7v-1.1c0-0.5,0.1-0.7,0.7-0.7h2
		c1.1,0,1.5-0.3,1.5-1.2V704.3z"/>
	<path d="M1315.3,718.8c1.1,0,2.1-0.5,2.4-1c0.3-0.3,0.4-0.5,0.7-0.3l0.7,0.5c0.2,0.2,0.3,0.5-0.1,1.2c-0.5,1-1.9,3.4-5.4,3.4
		c-2.5,0-4.3-1.8-4.9-4.6h-0.1c-1.4,1.7-3.7,3.2-6.8,4.2c-1.3,0.4-2.5,0.4-4.1,0.4c-1.6,0-4.1-1.4-4.1-5.7c0-3.2,1.4-5.9,6.9-8.3
		c3.1-1.4,6.7-3,7.8-4v-4.4c-0.1-1.2-0.2-3-1-3.8c-0.8-0.9-2.1-1.5-4.1-1.5c-1.4,0-3.5,0.5-4.5,1.4c-1,0.9-0.3,1.9-0.3,3.2
		c0,2.4-0.8,3.9-3.6,3.9c-1.1,0-1.6-0.6-1.6-2.2c0-2.2,1.9-4.8,4.7-6.5c2.9-1.7,5.3-2.4,8.4-2.4c3.2,0,4.5,1,5.5,1.9
		c1.4,1.4,1.5,3,1.5,4.9v14.6C1313.2,717.6,1314.1,718.8,1315.3,718.8z M1308.2,706.7c-2.5,1.9-9.2,3.2-9.2,8.9
		c0,2.5,1.5,3.8,3.6,3.8c2,0,5.6-2.4,5.6-4.3V706.7z"/>
	<path d="M1353.3,688.1c0.2-0.5,0.4-0.8,0.9-1l4.3-1.5c0.1-0.1,0.3-0.1,0.5-0.1s0.2,0.1,0.2,0.3s0,0.3-0.1,0.5l-3.2,7.1
		c0.4-0.1,0.9-0.1,1.4-0.1c0.5-0.1,1-0.1,1.4-0.1c6.5,0,9.5,4.7,9.5,9.1c0,4.8-2.1,9.8-8.2,14.3c-3,2.2-8.7,4.5-14.3,5.1l-4.9,13.6
		c-1.2,3.7-0.7,4.7,2.2,4.7h1.9c0.3,0,0.5,0.3,0.5,0.5l-0.5,1.4c-0.1,0.2-0.3,0.4-0.8,0.4c-0.8,0-2.8-0.2-7.2-0.2
		c-4.7,0-6.6,0.2-7.3,0.2c-0.4,0-0.5-0.1-0.5-0.4l0.4-1.4c0.1-0.3,0.1-0.5,0.5-0.5h1.6c2.7,0,3.8-1.6,5.2-5.6l13.5-37
		c-3.4,1-7.1,4.4-8.5,6.2c-0.2,0.3-0.5,0.2-0.6,0.1l-0.8-0.7c-0.2-0.2-0.3-0.4-0.1-0.6c2.4-2.9,5.6-6,10.9-8L1353.3,688.1z
		 M1346.5,719.8c8.2-1.3,16.8-7.3,16.8-15.8c0-5.3-3.2-7.9-6.2-7.9c-1,0-1.7,0.1-2.2,0.2L1346.5,719.8z"/>
	<path d="M1371.5,713.7c0-8.7,6.5-20.4,15.7-20.4c4.6,0,7.3,3.4,7.3,8c0,7.6-6,21.2-15.9,21.2
		C1374.8,722.5,1371.5,718.9,1371.5,713.7z M1391.7,700.3c0.1-2.1-1.2-3.8-3.4-3.8c-2.9,0-6.5,2.6-10,8.2c-2.3,3.7-4,7.9-4,11.1
		c0,2.2,1.5,3.5,3.2,3.5C1384.6,719.2,1391.7,704.8,1391.7,700.3z"/>
	<path d="M1397.5,715.8c0-5.8,3.8-13,8.8-17.9c2.2-2.2,5.9-4.6,9.2-4.6c2.7,0,3.9,2,3.9,3.6c0,3.4-2.5,6.9-6.4,8.9
		c-3.7,1.9-7.4,2.6-10,2.8c-0.3,0.8-0.9,3.1-0.9,6.3c0,3.1,2.3,4.3,3.6,4.3c3.4,0,6.4-2.5,7.8-4.9c0.1-0.2,0.3-0.3,0.6-0.1l0.8,0.6
		c0.3,0.2,0.3,0.4,0.1,0.6c-1.7,2.4-5.8,6.9-11.1,6.9C1399.4,722.5,1397.5,720.3,1397.5,715.8z M1403.6,706.7
		c2.4,0.2,11.4-2.7,11.4-7.8c0-1.4-0.7-2.6-2.2-2.6C1408.4,696.3,1404.1,704.2,1403.6,706.7z"/>
	<path d="M1430.7,697.7h-4.8c-0.4,0-0.5-0.1-0.4-0.5l0.5-1.5c0.1-0.3,0.3-0.5,0.8-0.5h4.9l3.6-8c0.3-0.7,0.5-0.8,1.1-1
		c0.8-0.2,2.5-0.9,3.1-1.2c0.4-0.2,0.8-0.4,1-0.4c0.4,0,0.5,0.4,0.1,1.4l-4.5,9.2h7c0.3,0,0.5,0.2,0.3,0.8l-0.6,1.4
		c-0.1,0.2-0.3,0.3-0.6,0.3h-7l-6.7,15.4c-0.8,1.9-1.6,3.6-1.6,4.4s0.3,1.2,0.9,1.2c2,0,6.5-3.9,6.9-4.4c0.2-0.3,0.4-0.2,0.6,0
		l0.8,0.8c0.2,0.2,0.2,0.3,0.1,0.6c-0.9,1.1-7.3,6.8-12.6,6.8c-1.7,0-2.2-0.7-2.2-1.6c0-1,0.3-2.2,0.8-3.2L1430.7,697.7z"/>
</g>
<g>
	<path d="M1190,774.6c-0.3,0-0.5-0.1-0.3-0.8l0.3-2.1c0.1-0.4,0.3-0.5,0.8-0.5h4v-1.2c0-6.8,1.9-11.3,4.6-14.3
		c3.6-4,7.4-5.4,11.3-5.4c3.2,0,6.2,1.2,6.2,3.8c0,1.6-1.8,3-2.9,3c-0.7,0-1.4-0.1-1.9-0.4c-0.6-0.3-1.4-1.2-1.6-1.6
		c-0.9-1.1-1.9-1.6-3.2-1.6c-1.8,0-3.6,0.5-5.1,2.4c-2.5,3.2-2.4,9.2-2.4,14v1.3h8.3c0.5,0,0.5,0.4,0.5,0.7l-0.3,2.3
		c-0.1,0.3-0.3,0.3-0.9,0.3h-7.6v6.2c0,8.1,0,14.4,0.1,15.2c0.1,1.2,0.3,1.8,1.8,1.8h3.9c0.6,0,0.8,0.1,0.8,0.5v1.1
		c0,0.5-0.1,0.8-0.5,0.8c-0.4,0-3-0.2-8.2-0.2c-3.8,0-7.3,0.2-7.8,0.2c-0.4,0-0.5-0.1-0.5-0.5v-1.5c0-0.3,0.1-0.5,0.7-0.5h3.3
		c1.3,0,1.6-0.8,1.6-2.4v-20.7H1190z"/>
	<path d="M1237.3,786.1c0,3.3,0,6.7,0.1,8.1c0.2,2.1,1,2.4,1.8,2.4c0.4,0,1.4,0,2.3-0.2c0.5-0.1,0.8,0,0.8,0.3l0.2,0.9
		c0.1,0.4-0.1,0.5-0.3,0.6l-7.2,2.4c-0.4,0.1-0.8,0.3-1.4,0.3c-0.3,0-0.5-0.1-0.6-0.8l-0.5-4h-0.1c-1.9,2.7-5.9,4.8-9.3,4.8
		c-1.9,0-4.2-0.2-6.5-3.2c-2.8-3.6-2.7-5.9-2.7-13.5v-8c-0.1-1.9-1-2.4-2.6-2.6c-1.2-0.1-1.5-0.1-1.5-0.5v-1.2
		c0-0.4,0.1-0.5,0.8-0.5h6.1c0.4,0,0.7-0.1,1-0.1c0.3,0,0.5-0.1,0.8-0.1c0.5,0,0.8,0.3,0.8,0.8c-0.1,0.6-0.3,3.8-0.3,7.9v4.9
		c0,2.7-0.7,7.1,1.5,10.3c1.7,2.5,3.6,2.6,5.5,2.6c1.9,0,4.6-1.8,5.9-3.4c0.3-0.3,0.7-1.2,0.7-1.9V776c-0.1-1.9-1.2-2.3-3-2.4
		c-1.2,0-1.5-0.1-1.5-0.5v-1.2c0-0.5,0.1-0.6,0.8-0.6h6.4c0.5,0,0.8-0.1,1.2-0.1c0.3,0,0.6-0.1,0.8-0.1c0.4,0,0.7,0.3,0.6,0.7
		c-0.1,0.6-0.4,2.4-0.4,9.1V786.1z"/>
	<path d="M1250.9,783.4c0,3.7,1.6,7.9,3.5,10.4c2.3,3,5.2,3.5,7.5,3.5c3.4,0,5.2-0.8,7.6-3c0.1-0.1,0.3-0.2,0.5,0l0.7,0.7
		c0.3,0.3,0.3,0.5,0,0.9c-2,2.3-6.4,4.9-11.1,4.9c-3.6,0-7.5-0.8-10.6-4.8c-2.5-3.4-3.1-6.2-3.1-9.3c0-8,5.6-16.1,14.7-16.1
		c7.1,0,9.3,4.1,9.3,5.6c-0.1,1.6-1.1,2.4-2.5,2.4c-1.6,0-2.7-0.9-3.8-2.7c-1.5-2.8-3-3-4.6-3
		C1255.1,772.7,1250.9,776.3,1250.9,783.4z"/>
	<path d="M1278.8,760.6c0-2.8-0.2-4-3.6-4.9c-0.8-0.2-1-0.3-1-0.5v-0.6c0-0.3,0.2-0.4,0.9-0.7l7-3c0.6-0.3,1.1-0.5,1.5-0.5
		s0.5,0.3,0.4,1.2c-0.3,3.3-0.3,13.4-0.3,21.6V784c0.9,0,2.6-0.2,3.3-0.8c1.3-0.9,6.7-6.9,7.3-7.7c0.4-0.8,0.4-1.3,0-1.6
		c-0.5-0.4-1.4-0.4-1.8-0.4c-0.5,0-0.5-0.2-0.5-0.6v-1.3c0-0.3,0.1-0.5,0.5-0.5c0.4,0,2.9,0.2,6.4,0.2c3.4,0,5.1-0.2,5.6-0.2
		c0.3,0,0.4,0.2,0.4,0.7v1.2c0,0.4-0.1,0.5-0.5,0.5h-0.5c-1.4,0-3.4,0.7-4.7,1.6c-1,0.5-6.7,5.9-9.1,8.2
		c1.4,1.4,12.9,12.9,14.1,13.5c1.2,0.6,2.8,1,3.6,1c0.4,0,0.5,0.1,0.5,0.6v1.2c0,0.4-0.1,0.6-0.6,0.6c-0.5,0-2.5-0.2-5.7-0.2
		c-4.1,0-6.9,0.2-7.5,0.2c-0.3,0-0.5-0.2-0.5-0.7v-1.1c0-0.3,0.1-0.5,0.7-0.5h0.5c0.5,0,1-0.5,0.8-1.1c-0.2-0.5-8-8.9-9.1-9.9
		c-0.8-0.6-2.1-0.8-3-0.8v3c0,2.4,0,4.7,0.1,7.1c0.1,1,0.4,1.4,1.4,1.4h2c0.5,0,0.6,0.1,0.6,0.5v1.2c0,0.5-0.1,0.8-0.5,0.8
		c-0.4,0-2.7-0.2-6.1-0.2c-3.7,0-6.1,0.2-6.6,0.2c-0.2,0-0.3-0.3-0.3-0.7v-1.2c0-0.5,0.2-0.6,0.7-0.6h2.5c0.9,0,1.2-0.8,1.2-1.6
		c0.1-3,0.1-6.7,0.1-12.8V760.6z"/>
	<path d="M1323.7,815.2c0-1.4,1.5-2.7,3.2-2.7c1.3,0,2.5,0.6,3.2,0.8c0.5,0.1,1,0,1.4-0.4c1-1.2,4.5-9.1,5.5-11.7
		c-0.3-1.7-7.6-23.2-8.2-24.7c-0.8-1.7-1.4-2.9-3.2-2.9h-1.8c-0.5,0-0.5-0.2-0.5-0.6v-1.4c0-0.3,0.1-0.5,0.5-0.5
		c0.6,0,2.3,0.2,6.3,0.2c3.5,0,5.6-0.2,6.4-0.2c0.5,0,0.6,0.2,0.6,0.5v1.4c0,0.3-0.1,0.5-0.4,0.5h-1.3c-0.8,0-1,0.5-0.9,1.5
		c0.2,1.5,4.9,16.7,5.6,18.2h0.3c0.7-1.1,6.7-15.4,7.1-17.1c0.4-1.7-0.1-2.6-1.2-2.6h-1.1c-0.4,0-0.5-0.2-0.5-0.5v-1.4
		c0-0.3,0.1-0.5,0.4-0.5c0.9,0,2.3,0.2,5.6,0.2c1.9,0,3.4-0.2,4.2-0.2c0.4,0,0.4,0.3,0.4,0.5v1.3c0,0.4,0,0.6-0.3,0.6h-1.1
		c-0.8,0-1.7,0.3-2.4,1.2c-1.5,1.9-6,12.4-10.8,23.1c-3.4,7.6-6,14-7.3,16.3c-1,1.8-2.2,4.5-5.8,4.5
		C1325,818.7,1323.7,817.2,1323.7,815.2z"/>
	<path d="M1359.1,796.1c-3.2-3.8-3.8-6.3-3.8-11.2c0-3.5,1.9-7.9,5.9-11.1c3.6-2.7,6.9-3.3,9.2-3.3c3.8,0,7.6,1.9,9.6,4
		c3.1,3.2,4.7,6.7,4.7,11.2c0,7.5-6.7,15.1-15.2,15.1C1366.2,800.8,1362,799.5,1359.1,796.1z M1378.9,785c0-7.6-5.6-12.4-9.1-12.4
		c-1.9,0-3.6,0.4-5.3,2.2c-2.7,2.7-3.6,5.6-3.6,10.8c0,3.8,0.4,6.5,2.6,9.6c1.6,2.3,3.6,3.6,6.8,3.6
		C1375.6,798.8,1378.9,792.4,1378.9,785z"/>
	<path d="M1415.7,786.1c0,3.3,0,6.7,0.1,8.1c0.2,2.1,1,2.4,1.8,2.4c0.4,0,1.4,0,2.3-0.2c0.5-0.1,0.8,0,0.8,0.3l0.2,0.9
		c0.1,0.4-0.1,0.5-0.3,0.6l-7.2,2.4c-0.4,0.1-0.8,0.3-1.4,0.3c-0.3,0-0.5-0.1-0.6-0.8l-0.5-4h-0.1c-1.9,2.7-5.9,4.8-9.3,4.8
		c-1.9,0-4.2-0.2-6.5-3.2c-2.8-3.6-2.7-5.9-2.7-13.5v-8c-0.1-1.9-1-2.4-2.6-2.6c-1.2-0.1-1.5-0.1-1.5-0.5v-1.2
		c0-0.4,0.1-0.5,0.8-0.5h6.1c0.4,0,0.7-0.1,1-0.1c0.3,0,0.5-0.1,0.8-0.1c0.5,0,0.8,0.3,0.8,0.8c-0.1,0.6-0.3,3.8-0.3,7.9v4.9
		c0,2.7-0.7,7.1,1.5,10.3c1.7,2.5,3.6,2.6,5.5,2.6s4.6-1.8,5.9-3.4c0.3-0.3,0.7-1.2,0.7-1.9V776c-0.1-1.9-1.2-2.3-3-2.4
		c-1.2,0-1.5-0.1-1.5-0.5v-1.2c0-0.5,0.1-0.6,0.8-0.6h6.4c0.5,0,0.8-0.1,1.2-0.1c0.3,0,0.6-0.1,0.8-0.1c0.4,0,0.7,0.3,0.6,0.7
		c-0.1,0.6-0.4,2.4-0.4,9.1V786.1z"/>
</g>
</svg>
