<?xml version="1.0" encoding="utf-8"?>
<!-- Generator: Adobe Illustrator 19.2.1, SVG Export Plug-In . SVG Version: 6.00 Build 0)  -->
<svg version="1.1" id="Layer_1" xmlns="http://www.w3.org/2000/svg" xmlns:xlink="http://www.w3.org/1999/xlink" x="0px" y="0px"
	 viewBox="0 0 2560 1600" style="enable-background:new 0 0 2560 1600;" xml:space="preserve">
<g>
	<path d="M1724.2,431.1c0-2.3-0.4-3.6-3.8-4.1c-0.5-0.1-0.6-0.2-0.6-0.5v-0.6c0-0.2,0.1-0.3,0.5-0.5c2.2-0.8,4.8-1.9,7.4-3.4
		c0.5-0.3,0.9-0.4,1.3-0.4c0.3,0,0.4,0.3,0.3,0.8c-0.1,1.2-0.1,5.5-0.1,11.2v7.5c0,2.7,0,5.1,0.1,5.9c0.1,1.3,0.3,1.8,1.1,1.8h3.2
		c0.5,0,0.7,0.2,0.7,0.6v1.2c0,0.5-0.1,0.7-0.6,0.7c-0.5,0-3.7-0.2-6.6-0.2c-4,0-6.7,0.2-7.4,0.2c-0.3,0-0.5-0.1-0.5-0.5v-1.4
		c0-0.4,0.2-0.5,0.7-0.5h3.4c0.8,0,1-0.3,1.1-1.4c0.1-2.1,0.1-4.2,0.1-6.2V431.1z M1721,410c0-1.8,1.5-3.8,4.3-3.8
		c2.5,0,3.7,2.1,3.7,3.6c0,1.9-1.2,4.1-4.1,4.1C1723.3,413.8,1721,412.3,1721,410z"/>
	<path d="M1764.4,448c1.1,0,2.1-0.5,2.4-1c0.3-0.3,0.4-0.5,0.7-0.3l0.7,0.5c0.2,0.2,0.3,0.5-0.1,1.2c-0.5,1-1.9,3.4-5.4,3.4
		c-2.5,0-4.3-1.8-4.9-4.6h-0.1c-1.4,1.7-3.7,3.2-6.8,4.2c-1.3,0.4-2.5,0.4-4.1,0.4c-1.6,0-4.1-1.4-4.1-5.7c0-3.2,1.4-5.9,6.9-8.3
		c3.1-1.4,6.7-3,7.8-4v-4.4c-0.1-1.2-0.2-3-1-3.8c-0.8-0.9-2.1-1.5-4.1-1.5c-1.4,0-3.5,0.5-4.5,1.4c-1,0.9-0.3,1.9-0.3,3.2
		c0,2.4-0.8,3.9-3.6,3.9c-1.1,0-1.6-0.6-1.6-2.2c0-2.2,1.9-4.8,4.7-6.5c2.9-1.7,5.3-2.4,8.4-2.4c3.2,0,4.5,1,5.5,1.9
		c1.4,1.4,1.5,3,1.5,4.9v14.6C1762.3,446.8,1763.1,448,1764.4,448z M1757.3,436c-2.5,1.9-9.2,3.2-9.2,8.9c0,2.5,1.5,3.8,3.6,3.8
		c2,0,5.6-2.4,5.6-4.3V436z"/>
	<path d="M1787.4,433.5c0-5.1-1-6.4-2.1-7.4c-0.9-0.8-2.9-1.2-4.4-1.2c-1.8,0-4.7,0.9-6.6,4c-0.8,1.4-1,2.7-1,4.6V447
		c0,1.1,0.4,1.8,1.4,1.8h2.5c0.6,0,0.7,0.1,0.7,0.6v1.1c0,0.5-0.1,0.8-0.5,0.8c-0.6,0-2.5-0.2-6.2-0.2c-3.6,0-5.8,0.2-6.4,0.2
		c-0.4,0-0.5-0.1-0.5-0.6v-1.2c0-0.5,0.1-0.6,0.8-0.6h2.3c0.6,0,1-0.4,1-1.7c0.1-1.2,0.1-2.4,0.1-3.6v-12.2c0-1.4-0.3-2.6-1.9-3.5
		l-1.4-0.8c-0.3-0.2-0.5-0.3-0.5-0.5v-0.5c0-0.2,0.3-0.5,0.4-0.5l6-3.1c0.5-0.3,1-0.4,1.3-0.4c0.4,0,0.6,0.5,0.6,1l0.3,4h0.2
		c2.1-2.8,6.1-5.2,10.1-5.2c3.6,0,6.3,2.1,7.8,5.3h0.3c2.1-2.7,6-5.3,10.1-5.3c2.4,0,4.5,0.4,6.2,2.1c1.6,1.6,3.3,3.2,3.3,8.4v15.3
		c0,1,0.6,1.4,1.4,1.4h1.9c0.6,0,0.8,0.1,0.8,0.6v1.2c0,0.5-0.1,0.7-0.5,0.7c-0.5,0-2.4-0.2-5.7-0.2c-3.4,0-5.9,0.2-6.4,0.2
		c-0.4,0-0.5-0.2-0.5-0.7v-1.2c0-0.5,0.1-0.6,0.9-0.6h1.7c0.8,0,1.3-0.3,1.4-1.3c0.1-1.6,0.1-4.1,0.1-5.6v-10.2c0-2.3-0.4-4.3-2-5.5
		c-1.2-1-3-1.4-5.1-1.4s-4.9,1.6-6,3.6c-1,2-1,3.8-1,6.9v11.9c0,0.9,0.3,1.6,1.4,1.6h2.3c0.6,0,0.8,0.1,0.8,0.6v1.1
		c0,0.5-0.1,0.8-0.5,0.8c-0.5,0-2.3-0.2-6.1-0.2c-3.7,0-6,0.2-6.5,0.2c-0.3,0-0.5-0.2-0.5-0.7v-1.1c0-0.5,0.1-0.7,0.7-0.7h2
		c1.1,0,1.5-0.3,1.5-1.2V433.5z"/>
</g>
</svg>
