<?xml version="1.0" encoding="utf-8"?>
<!-- Generator: Adobe Illustrator 19.2.1, SVG Export Plug-In . SVG Version: 6.00 Build 0)  -->
<svg version="1.1" id="Layer_1" xmlns="http://www.w3.org/2000/svg" xmlns:xlink="http://www.w3.org/1999/xlink" x="0px" y="0px"
	 viewBox="0 0 2560 1600" style="enable-background:new 0 0 2560 1600;" xml:space="preserve">
<g>
	<path d="M1724.2,431.1c0-2.3-0.4-3.6-3.8-4.1c-0.5-0.1-0.6-0.2-0.6-0.5v-0.6c0-0.2,0.1-0.3,0.5-0.5c2.2-0.8,4.8-1.9,7.4-3.4
		c0.5-0.3,0.9-0.4,1.3-0.4c0.3,0,0.4,0.3,0.3,0.8c-0.1,1.2-0.1,5.5-0.1,11.2v7.5c0,2.7,0,5.1,0.1,5.9c0.1,1.3,0.3,1.8,1.1,1.8h3.2
		c0.5,0,0.7,0.2,0.7,0.6v1.2c0,0.5-0.1,0.7-0.6,0.7c-0.5,0-3.7-0.2-6.6-0.2c-4,0-6.7,0.2-7.4,0.2c-0.3,0-0.5-0.1-0.5-0.5v-1.4
		c0-0.4,0.2-0.5,0.7-0.5h3.4c0.8,0,1-0.3,1.1-1.4c0.1-2.1,0.1-4.2,0.1-6.2V431.1z M1721,410c0-1.8,1.5-3.8,4.3-3.8
		c2.5,0,3.7,2.1,3.7,3.6c0,1.9-1.2,4.1-4.1,4.1C1723.3,413.8,1721,412.3,1721,410z"/>
	<path d="M1764.4,448c1.1,0,2.1-0.5,2.4-1c0.3-0.3,0.4-0.5,0.7-0.3l0.7,0.5c0.2,0.2,0.3,0.5-0.1,1.2c-0.5,1-1.9,3.4-5.4,3.4
		c-2.5,0-4.3-1.8-4.9-4.6h-0.1c-1.4,1.7-3.7,3.2-6.8,4.2c-1.3,0.4-2.5,0.4-4.1,0.4c-1.6,0-4.1-1.4-4.1-5.7c0-3.2,1.4-5.9,6.9-8.3
		c3.1-1.4,6.7-3,7.8-4v-4.4c-0.1-1.2-0.2-3-1-3.8c-0.8-0.9-2.1-1.5-4.1-1.5c-1.4,0-3.5,0.5-4.5,1.4c-1,0.9-0.3,1.9-0.3,3.2
		c0,2.4-0.8,3.9-3.6,3.9c-1.1,0-1.6-0.6-1.6-2.2c0-2.2,1.9-4.8,4.7-6.5c2.9-1.7,5.3-2.4,8.4-2.4c3.2,0,4.5,1,5.5,1.9
		c1.4,1.4,1.5,3,1.5,4.9v14.6C1762.3,446.8,1763.1,448,1764.4,448z M1757.3,436c-2.5,1.9-9.2,3.2-9.2,8.9c0,2.5,1.5,3.8,3.6,3.8
		c2,0,5.6-2.4,5.6-4.3V436z"/>
	<path d="M1787.4,433.5c0-5.1-1-6.4-2.1-7.4c-0.9-0.8-2.9-1.2-4.4-1.2c-1.8,0-4.7,0.9-6.6,4c-0.8,1.4-1,2.7-1,4.6V447
		c0,1.1,0.4,1.8,1.4,1.8h2.5c0.6,0,0.7,0.1,0.7,0.6v1.1c0,0.5-0.1,0.8-0.5,0.8c-0.6,0-2.5-0.2-6.2-0.2c-3.6,0-5.8,0.2-6.4,0.2
		c-0.4,0-0.5-0.1-0.5-0.6v-1.2c0-0.5,0.1-0.6,0.8-0.6h2.3c0.6,0,1-0.4,1-1.7c0.1-1.2,0.1-2.4,0.1-3.6v-12.2c0-1.4-0.3-2.6-1.9-3.5
		l-1.4-0.8c-0.3-0.2-0.5-0.3-0.5-0.5v-0.5c0-0.2,0.3-0.5,0.4-0.5l6-3.1c0.5-0.3,1-0.4,1.3-0.4c0.4,0,0.6,0.5,0.6,1l0.3,4h0.2
		c2.1-2.8,6.1-5.2,10.1-5.2c3.6,0,6.3,2.1,7.8,5.3h0.3c2.1-2.7,6-5.3,10.1-5.3c2.4,0,4.5,0.4,6.2,2.1c1.6,1.6,3.3,3.2,3.3,8.4v15.3
		c0,1,0.6,1.4,1.4,1.4h1.9c0.6,0,0.8,0.1,0.8,0.6v1.2c0,0.5-0.1,0.7-0.5,0.7c-0.5,0-2.4-0.2-5.7-0.2c-3.4,0-5.9,0.2-6.4,0.2
		c-0.4,0-0.5-0.2-0.5-0.7v-1.2c0-0.5,0.1-0.6,0.9-0.6h1.7c0.8,0,1.3-0.3,1.4-1.3c0.1-1.6,0.1-4.1,0.1-5.6v-10.2c0-2.3-0.4-4.3-2-5.5
		c-1.2-1-3-1.4-5.1-1.4s-4.9,1.6-6,3.6c-1,2-1,3.8-1,6.9v11.9c0,0.9,0.3,1.6,1.4,1.6h2.3c0.6,0,0.8,0.1,0.8,0.6v1.1
		c0,0.5-0.1,0.8-0.5,0.8c-0.5,0-2.3-0.2-6.1-0.2c-3.7,0-6,0.2-6.5,0.2c-0.3,0-0.5-0.2-0.5-0.7v-1.1c0-0.5,0.1-0.7,0.7-0.7h2
		c1.1,0,1.5-0.3,1.5-1.2V433.5z"/>
	<path d="M1832.3,442.5c0,5.1,2.3,6,3.6,6c1.6,0,3.6-0.3,4.5-0.9c0.3-0.2,0.6-0.1,0.8,0.1l0.3,0.6c0.2,0.3,0.1,0.5-0.1,0.8
		c-0.7,0.7-3.5,2.7-7.6,2.7c-3.4,0-6.7-3.2-6.7-5.8c0-2.8,0.2-8.9,0.2-9.8v-1.5c0-1.2,0.1-5.9,0.1-8.8h-4.2c-0.6,0-1-0.3-1-0.8
		s0.4-0.8,1.2-1.2c1.6-1,6.9-6.2,7.8-8.6c0.2-0.5,0.5-0.7,1-0.7c0.5,0,0.7,0.5,0.7,1l-0.3,6.7h9.5c0.4,0,0.6,0.3,0.5,0.6l-0.7,2.4
		c-0.1,0.3-0.2,0.5-0.6,0.5h-8.9c-0.1,3.2-0.2,6.5-0.2,9.7V442.5z"/>
	<path d="M1842.5,413.6c0-4.2-0.8-4.9-3.3-5.8l-1.2-0.4c-0.4-0.1-0.5-0.2-0.5-0.4v-0.6c0-0.3,0.2-0.3,0.8-0.7l7.1-3.8
		c0.5-0.3,1-0.5,1.6-0.5c0.4,0,0.7,0.5,0.5,1.7c-0.1,1.2-0.2,15.1-0.2,18.5v4.4h0.3c2.4-2.9,6.4-4.5,9.4-4.5c2.9,0,4.9,0.9,6.8,2.7
		c3.1,2.9,3,6.4,3,10.1v3.9c0,3.8,0.1,8.1,0.1,9.4c0,0.8,1.1,1,2.5,1h1.2c0.5,0,0.8,0.1,0.8,0.6v1c0,0.5-0.1,0.8-0.5,0.8
		c-0.5,0-2.7-0.2-6.6-0.2c-3.4,0-5.8,0.2-6.5,0.2c-0.5,0-0.6-0.2-0.6-0.8v-1.2c0-0.3,0.1-0.5,0.5-0.5h1.6c1.2,0,2.5-0.1,2.6-1.3
		c0.1-1,0-4.6,0-6.8v-5.6c0-3.8-0.3-6.6-2.3-8.4c-1.4-1.3-2.8-1.9-4.5-1.9c-2,0-4.5,0.7-6.4,2.9c-0.6,0.8-1.4,2.1-1.4,3.4v15
		c0,2.2,0.2,2.8,1.5,2.8h2.1c0.5,0,0.8,0.1,0.8,0.5v1.2c0,0.5-0.1,0.8-0.5,0.8c-0.5,0-3.4-0.2-6.5-0.2c-3.4,0-6,0.2-6.7,0.2
		c-0.3,0-0.5-0.2-0.5-0.7v-1.2c0-0.5,0.3-0.5,1-0.5h1.4c1.1,0,2.1-0.3,2.3-1.1c0.2-1.3,0.2-8.9,0.2-13.3V413.6z"/>
	<path d="M1873.8,432.8c-0.1,0.6-0.2,1.7-0.2,3.3c0,6.7,4.3,11.8,9.8,11.8c4.2,0,7.1-2.4,8.3-4.7c0.1-0.3,0.4-0.4,0.6-0.3l0.9,0.5
		c0.2,0.1,0.3,0.3,0,1c-1.2,2.7-4.8,7.5-10.9,7.5c-3.9,0-8.2-1.2-10.8-4.9c-2.4-3.5-3-6-3-10.8c0-2.7,0.7-7.3,4.3-10.9
		c3-3,6.4-3.6,9.8-3.6c7.9,0,10.1,7.4,10.1,10.1c0,1-0.8,1.1-1.9,1.1H1873.8z M1884.7,430.7c1.3,0,1.9-0.3,1.9-1
		c0-1.6-0.8-6.1-5.3-6.1c-3,0-5.9,2-7.2,7.1H1884.7z"/>
	<path d="M1905,431.6c0-1.6-0.5-2.6-2.5-3.7l-1.6-0.9c-0.5-0.2-0.5-0.4-0.5-0.6v-0.5c0-0.2,0.1-0.3,0.5-0.5l6.6-3.3
		c0.5-0.3,1.1-0.5,1.6-0.5c0.3,0,0.5,0.3,0.5,1.4l0.3,3.3h0.2c1.9-2.4,5.4-4.6,10-4.6c3.5,0,5.8,1.5,7.8,3.4
		c2.6,2.6,3.7,5.4,3.7,10.7c0,9-6.2,16.2-14.8,16.2c-1.9,0-4.7-0.3-6.9-1.2v14.5c0,1.9,0.5,2.3,1.5,2.3h3c0.5,0,0.6,0.3,0.6,0.7v1.2
		c0,0.4-0.1,0.6-0.6,0.6c-0.3,0-2.7-0.2-7.1-0.2c-4,0-6.4,0.2-6.9,0.2c-0.5,0-0.6-0.2-0.6-0.6v-1.2c0-0.3,0.1-0.6,0.8-0.6h2.7
		c1.2,0,1.3-0.7,1.4-1.7c0.2-1.5,0.2-5.2,0.2-11.9V431.6z M1909.9,444.2c0,1.5,0.1,2.7,1.4,3.6c1.9,1.4,4.1,1.9,6.9,1.9
		c3.9,0,8-3,8-11.5c0-9.6-4.3-13.5-8.9-13.5c-2.9,0-5.7,1.6-7.3,4.4V444.2z"/>
	<path d="M1935.2,432.8c-0.1,0.6-0.2,1.7-0.2,3.3c0,6.7,4.3,11.8,9.8,11.8c4.2,0,7.1-2.4,8.3-4.7c0.1-0.3,0.4-0.4,0.6-0.3l0.9,0.5
		c0.2,0.1,0.3,0.3,0,1c-1.2,2.7-4.8,7.5-10.9,7.5c-3.9,0-8.2-1.2-10.8-4.9c-2.4-3.5-3-6-3-10.8c0-2.7,0.7-7.3,4.3-10.9
		c3-3,6.4-3.6,9.8-3.6c7.9,0,10.1,7.4,10.1,10.1c0,1-0.8,1.1-1.9,1.1H1935.2z M1946.1,430.7c1.3,0,1.9-0.3,1.9-1
		c0-1.6-0.8-6.1-5.3-6.1c-3,0-5.9,2-7.2,7.1H1946.1z"/>
	<path d="M1956.4,432.8c0-3.5-0.5-4.2-2.5-5.2l-1.3-0.7c-0.4-0.1-0.5-0.2-0.5-0.5V426c0-0.3,0.1-0.4,0.5-0.6l6.8-3.5
		c0.4-0.2,0.7-0.3,1-0.3c0.4,0,0.5,0.4,0.5,0.8l0.3,4.9h0.3c2.1-3.2,5.3-6,8.2-6c2.3,0,3.5,1.4,3.5,3c0,2-1.6,3.4-2.9,3.4
		c-0.8,0-1.4-0.3-2-0.5c-0.5-0.3-1.4-0.5-2.3-0.5c-1.1,0-2.9,0.7-4.1,2.9c-0.4,0.8-0.7,2-0.7,2.2V446c0,2.1,0.5,2.8,1.9,2.8h3.2
		c0.4,0,0.5,0.2,0.5,0.6v1.2c0,0.4-0.1,0.6-0.3,0.6c-0.4,0-3.6-0.2-7.3-0.2c-4.3,0-7.1,0.2-7.6,0.2c-0.3,0-0.4-0.1-0.4-0.7v-1.2
		c0-0.5,0.1-0.6,0.8-0.6h2.7c1,0,1.5-0.4,1.5-1.3c0.1-2.3,0.1-4.7,0.1-8.2V432.8z"/>
	<path d="M1970.7,449.9c-0.3-0.2-0.3-0.6-0.4-1l-1.2-6.5c-0.1-0.3,0.1-0.5,0.4-0.5l0.9-0.2c0.3-0.1,0.5,0.1,0.6,0.4l1.7,3.4
		c1.4,2.5,2.3,4.3,6,4.3c2.4,0,5.4-1.4,5.4-4.7c0-3.1-1.5-4.9-6.7-6.3c-4.1-1.2-8.1-3.3-8.1-8.7c0-4.7,4.5-8.4,9.6-8.4
		c3.3,0,5.1,0.8,6.3,1.4c1,0.5,1.2,0.8,1.2,1.2l1,4.8c0,0.3-0.1,0.5-0.5,0.6l-0.8,0.3c-0.3,0.1-0.4,0-0.6-0.3l-2.3-3.2
		c-0.8-1.3-2.1-2.7-4.8-2.7c-2.6,0-5.3,1.6-5.3,4.5c0,4,3.2,4.7,6.6,5.7c5,1.4,8.2,3.5,8.2,8.8c-0.1,5.6-4.6,9.1-10.4,9.1
		C1974.3,451.9,1971.5,450.5,1970.7,449.9z"/>
	<path d="M1990,447.1c-3.2-3.8-3.8-6.3-3.8-11.2c0-3.5,1.9-7.9,5.9-11.1c3.6-2.7,6.9-3.3,9.2-3.3c3.8,0,7.6,1.9,9.6,4
		c3.1,3.2,4.7,6.7,4.7,11.2c0,7.5-6.7,15.1-15.2,15.1C1997.1,451.9,1992.9,450.6,1990,447.1z M2009.8,436.1c0-7.6-5.6-12.4-9.1-12.4
		c-1.9,0-3.6,0.4-5.3,2.2c-2.7,2.7-3.6,5.6-3.6,10.8c0,3.8,0.4,6.5,2.6,9.6c1.6,2.3,3.6,3.6,6.8,3.6
		C2006.5,449.8,2009.8,443.4,2009.8,436.1z"/>
	<path d="M2041.6,447.4c0,1.1,0.6,1.4,1.5,1.4h2.2c0.6,0,0.8,0.2,0.8,0.6v1.1c0,0.5-0.1,0.8-0.5,0.8c-0.5,0-2.6-0.2-6.5-0.2
		c-3.5,0-5.7,0.2-6.2,0.2c-0.4,0-0.5-0.2-0.5-0.8v-1.1c0-0.5,0.2-0.6,0.9-0.6h2c0.8,0,1.3-0.3,1.4-1.6c0.1-1.8,0.1-4,0.1-5.8v-9.1
		c0-2.7,0-4.7-2-6.2c-1.6-1.2-3.3-1.2-5-1.2c-1.1,0-3.5,0.5-5.6,2.7c-1.4,1.5-1.6,3.4-1.6,4.7v14.2c0,1.9,0.2,2.3,1.6,2.3h1.7
		c0.5,0,0.7,0.2,0.7,0.7v1.2c0,0.4-0.1,0.6-0.5,0.6c-0.5,0-2.3-0.2-6-0.2c-3.5,0-5.7,0.2-6.1,0.2c-0.3,0-0.5-0.2-0.5-0.6v-1.2
		c0-0.4,0.1-0.6,0.7-0.6h2c0.9,0,1.4-0.2,1.4-1.4v-16.1c0-2.1-1.1-3.2-2.8-4.1l-0.5-0.3c-0.5-0.2-0.5-0.4-0.5-0.6v-0.3
		c0-0.3,0.3-0.5,0.6-0.7l5.9-3.3c0.5-0.3,1-0.5,1.2-0.5c0.3,0,0.5,0.3,0.5,0.8l0.5,4.2h0.1c2-2.5,6-5,9.4-5c2.1,0,4.2,0.4,5.8,1.5
		c2.1,1.4,3.8,4.8,3.8,6.5V447.4z"/>
</g>
<g>
	<path d="M1816.7,502.9c-0.3-0.2-0.3-0.6-0.4-1l-1.2-6.5c-0.1-0.3,0.1-0.5,0.4-0.5l0.9-0.2c0.3-0.1,0.5,0.1,0.6,0.4l1.7,3.4
		c1.4,2.5,2.3,4.3,6,4.3c2.4,0,5.4-1.4,5.4-4.7c0-3.1-1.5-4.9-6.7-6.3c-4.1-1.2-8.1-3.3-8.1-8.7c0-4.7,4.5-8.4,9.6-8.4
		c3.3,0,5.1,0.8,6.3,1.4c1,0.5,1.2,0.8,1.2,1.2l1,4.8c0,0.3-0.1,0.5-0.5,0.6l-0.8,0.3c-0.3,0.1-0.4,0-0.6-0.3l-2.3-3.2
		c-0.8-1.3-2.1-2.7-4.8-2.7c-2.6,0-5.3,1.6-5.3,4.5c0,4,3.2,4.7,6.6,5.7c5,1.4,8.2,3.5,8.2,8.8c-0.1,5.6-4.6,9.1-10.4,9.1
		C1820.2,504.9,1817.5,503.5,1816.7,502.9z"/>
	<path d="M1841.3,483.6c0,3.6,0,13.9,0.1,16.1c0.1,1.2,0.3,2.1,1.8,2.1h3.1c0.6,0,0.8,0.2,0.8,0.6v1.2c0,0.4-0.1,0.7-0.4,0.7
		c-0.5,0-3.5-0.2-7.8-0.2c-4.4,0-7.1,0.2-7.8,0.2c-0.3,0-0.5-0.3-0.5-0.7v-1.2c0-0.5,0.1-0.6,0.9-0.6h3.3c0.8,0,1.4-0.5,1.5-1.7
		c0.1-2.1,0.1-13.9,0.1-17.9v-4.3c0-4.9-0.1-11.1-0.2-12.9c-0.1-2.3-1.2-3.4-3.4-4.1l-1.4-0.5c-0.3-0.1-0.4-0.2-0.4-0.3v-0.5
		c0-0.2,0.2-0.3,0.6-0.5c2.4-1.1,5.5-2.3,8-4c0.6-0.4,1-0.5,1.4-0.5c0.5,0,0.6,0.3,0.5,1.2c-0.1,3.8-0.3,18.1-0.3,21.8V483.6z"/>
	<path d="M1865.6,501c1.1,0,2.1-0.5,2.4-1c0.3-0.3,0.4-0.5,0.7-0.3l0.7,0.5c0.2,0.2,0.3,0.5-0.1,1.2c-0.5,1-1.9,3.4-5.4,3.4
		c-2.5,0-4.3-1.8-4.9-4.6h-0.1c-1.4,1.7-3.7,3.2-6.8,4.2c-1.3,0.4-2.5,0.4-4.1,0.4c-1.6,0-4.1-1.4-4.1-5.7c0-3.2,1.4-5.9,6.9-8.3
		c3.1-1.4,6.7-3,7.8-4v-4.4c-0.1-1.2-0.2-3-1-3.8c-0.8-0.9-2.1-1.5-4.1-1.5c-1.4,0-3.5,0.5-4.5,1.4c-1,0.9-0.3,1.9-0.3,3.2
		c0,2.4-0.8,3.9-3.6,3.9c-1.1,0-1.6-0.6-1.6-2.2c0-2.2,1.9-4.8,4.7-6.5c2.9-1.7,5.3-2.4,8.4-2.4c3.2,0,4.5,1,5.5,1.9
		c1.4,1.4,1.5,3,1.5,4.9v14.6C1863.6,499.8,1864.4,501,1865.6,501z M1858.5,489c-2.5,1.9-9.2,3.2-9.2,8.9c0,2.5,1.5,3.8,3.6,3.8
		c2,0,5.6-2.4,5.6-4.3V489z"/>
	<path d="M1869,484.6c0-1.6-0.5-2.6-2.5-3.7l-1.6-0.9c-0.5-0.2-0.5-0.4-0.5-0.6v-0.5c0-0.2,0.1-0.3,0.5-0.5l6.6-3.3
		c0.5-0.3,1.1-0.5,1.6-0.5c0.3,0,0.5,0.3,0.5,1.4l0.3,3.3h0.2c1.9-2.4,5.4-4.6,10-4.6c3.5,0,5.8,1.5,7.8,3.4
		c2.6,2.6,3.7,5.4,3.7,10.7c0,9-6.2,16.2-14.8,16.2c-1.9,0-4.7-0.3-6.9-1.2v14.5c0,1.9,0.5,2.3,1.5,2.3h3c0.5,0,0.6,0.3,0.6,0.7v1.2
		c0,0.4-0.1,0.6-0.6,0.6c-0.3,0-2.7-0.2-7.1-0.2c-4,0-6.4,0.2-6.9,0.2c-0.5,0-0.6-0.2-0.6-0.6v-1.2c0-0.3,0.1-0.6,0.8-0.6h2.7
		c1.2,0,1.3-0.7,1.4-1.7c0.2-1.5,0.2-5.2,0.2-11.9V484.6z M1874,497.2c0,1.5,0.1,2.7,1.4,3.6c1.9,1.4,4.1,1.9,6.9,1.9
		c3.9,0,8-3,8-11.5c0-9.6-4.3-13.5-8.9-13.5c-2.9,0-5.7,1.6-7.3,4.4V497.2z"/>
	<path d="M1897.5,484.6c0-1.6-0.5-2.6-2.5-3.7l-1.6-0.9c-0.5-0.2-0.5-0.4-0.5-0.6v-0.5c0-0.2,0.1-0.3,0.5-0.5l6.6-3.3
		c0.5-0.3,1.1-0.5,1.6-0.5c0.3,0,0.5,0.3,0.5,1.4l0.3,3.3h0.2c1.9-2.4,5.4-4.6,10-4.6c3.5,0,5.8,1.5,7.8,3.4
		c2.6,2.6,3.7,5.4,3.7,10.7c0,9-6.2,16.2-14.8,16.2c-1.9,0-4.7-0.3-6.9-1.2v14.5c0,1.9,0.5,2.3,1.5,2.3h3c0.5,0,0.6,0.3,0.6,0.7v1.2
		c0,0.4-0.1,0.6-0.6,0.6c-0.3,0-2.7-0.2-7.1-0.2c-4,0-6.4,0.2-6.9,0.2c-0.5,0-0.6-0.2-0.6-0.6v-1.2c0-0.3,0.1-0.6,0.8-0.6h2.7
		c1.2,0,1.3-0.7,1.4-1.7c0.2-1.5,0.2-5.2,0.2-11.9V484.6z M1902.4,497.2c0,1.5,0.1,2.7,1.4,3.6c1.9,1.4,4.1,1.9,6.9,1.9
		c3.9,0,8-3,8-11.5c0-9.6-4.3-13.5-8.9-13.5c-2.9,0-5.7,1.6-7.3,4.4V497.2z"/>
	<path d="M1926.8,484.1c0-2.3-0.4-3.6-3.8-4.1c-0.5-0.1-0.6-0.2-0.6-0.5v-0.6c0-0.2,0.1-0.3,0.5-0.5c2.2-0.8,4.8-1.9,7.4-3.4
		c0.5-0.3,0.9-0.4,1.3-0.4c0.3,0,0.4,0.3,0.3,0.8c-0.1,1.2-0.1,5.5-0.1,11.2v7.5c0,2.7,0,5.1,0.1,5.9c0.1,1.3,0.3,1.8,1.1,1.8h3.2
		c0.5,0,0.7,0.2,0.7,0.6v1.2c0,0.5-0.1,0.7-0.6,0.7c-0.5,0-3.7-0.2-6.6-0.2c-4,0-6.7,0.2-7.4,0.2c-0.3,0-0.5-0.1-0.5-0.5v-1.4
		c0-0.4,0.2-0.5,0.7-0.5h3.4c0.8,0,1-0.3,1.1-1.4c0.1-2.1,0.1-4.2,0.1-6.2V484.1z M1923.6,463c0-1.8,1.5-3.8,4.3-3.8
		c2.5,0,3.7,2.1,3.7,3.6c0,1.9-1.2,4.1-4.1,4.1C1925.9,466.8,1923.6,465.3,1923.6,463z"/>
	<path d="M1962,500.4c0,1.1,0.6,1.4,1.5,1.4h2.2c0.6,0,0.8,0.2,0.8,0.6v1.1c0,0.5-0.1,0.8-0.5,0.8c-0.5,0-2.6-0.2-6.5-0.2
		c-3.5,0-5.7,0.2-6.2,0.2c-0.4,0-0.5-0.2-0.5-0.8v-1.1c0-0.5,0.2-0.6,0.9-0.6h2c0.8,0,1.3-0.3,1.4-1.6c0.1-1.8,0.1-4,0.1-5.8v-9.1
		c0-2.7,0-4.7-2-6.2c-1.6-1.2-3.3-1.2-5-1.2c-1.1,0-3.5,0.5-5.6,2.7c-1.4,1.5-1.6,3.4-1.6,4.7v14.2c0,1.9,0.2,2.3,1.6,2.3h1.7
		c0.5,0,0.7,0.2,0.7,0.7v1.2c0,0.4-0.1,0.6-0.5,0.6c-0.5,0-2.3-0.2-6-0.2c-3.5,0-5.7,0.2-6.1,0.2c-0.3,0-0.5-0.2-0.5-0.6v-1.2
		c0-0.4,0.1-0.6,0.7-0.6h2c0.9,0,1.4-0.2,1.4-1.4v-16.1c0-2.1-1.1-3.2-2.8-4.1l-0.5-0.3c-0.5-0.2-0.5-0.4-0.5-0.6v-0.3
		c0-0.3,0.3-0.5,0.6-0.7l5.9-3.3c0.5-0.3,1-0.5,1.2-0.5c0.3,0,0.5,0.3,0.5,0.8l0.5,4.2h0.1c2-2.5,6-5,9.4-5c2.1,0,4.2,0.4,5.8,1.5
		c2.1,1.4,3.8,4.8,3.8,6.5V500.4z"/>
	<path d="M1965.4,520.5c-2.5-1.5-3.5-3.3-3.5-5.6c0-3.8,3.9-6.8,7.2-8.2v-0.3c-2.9-0.6-4.6-2.7-4.6-4.8c0-3.3,3.8-5.6,6.2-6.5V495
		c-2.7-1.2-6.4-4.3-6.4-10.4c0-4.5,4-10,11.7-10c5.2,0,8,3.2,8.7,4c1.9-1.3,4.2-2.7,6.5-2.7s3.4,1.5,3.2,2.9c0,1.3-1.1,2.5-2.7,2.5
		c-1.2,0-1.9-0.5-2.4-1c-0.4-0.3-0.9-0.6-1.4-0.6c-0.5,0-1.3,0-2.2,0.4c0.5,1.4,1,2.9,1,5.2c0,2.7-0.8,5.3-2.5,7.4
		c-1.8,2-5.7,3.4-8,3.4c-1.5,0-2.5-0.1-3.5-0.3c-1.4,0.5-3.6,1.9-3.6,3.8c0,2.8,3.4,2.6,8,2.3c5.6-0.3,9.1,0.3,11.8,2.5
		c3,2.2,3.3,4.9,3.4,6.6c0,3.2-1.2,5.9-4.6,8.4c-1.8,1.3-5.9,3.2-11.7,3.2C1972.6,522.7,1968.7,522.4,1965.4,520.5z M1988,513.5
		c0-4.1-3.1-7.1-10-6.7l-6.6,0.5c-2.1,0.5-5.5,2.9-5.5,6.6c0,1.7,1.3,3.8,2.7,4.7c2.3,1.6,4.7,1.9,9.6,1.9
		C1980.8,520.5,1988.4,518.8,1988,513.5z M1981.7,484.2c0-3-0.6-4.8-1.9-6.2c-0.9-0.9-2.3-1.5-3.3-1.5c-1.6,0-3.2,0.3-4.9,1.9
		c-2.2,2.3-2.5,5.5-2.5,8.1c0,2.3,0.8,4.5,2.2,6c1.2,1.2,2.5,1.7,4.1,1.7C1980.2,494.2,1981.7,488.5,1981.7,484.2z"/>
	<path d="M2002.4,502.9c-0.3-0.2-0.3-0.6-0.4-1l-1.2-6.5c-0.1-0.3,0.1-0.5,0.4-0.5l0.9-0.2c0.3-0.1,0.5,0.1,0.6,0.4l1.7,3.4
		c1.4,2.5,2.3,4.3,6,4.3c2.4,0,5.4-1.4,5.4-4.7c0-3.1-1.5-4.9-6.7-6.3c-4.1-1.2-8.1-3.3-8.1-8.7c0-4.7,4.5-8.4,9.6-8.4
		c3.3,0,5.1,0.8,6.3,1.4c1,0.5,1.2,0.8,1.2,1.2l1,4.8c0,0.3-0.1,0.5-0.5,0.6l-0.8,0.3c-0.3,0.1-0.4,0-0.6-0.3l-2.3-3.2
		c-0.8-1.3-2.1-2.7-4.8-2.7c-2.6,0-5.3,1.6-5.3,4.5c0,4,3.2,4.7,6.6,5.7c5,1.4,8.2,3.5,8.2,8.8c-0.1,5.6-4.6,9.1-10.4,9.1
		C2006,504.9,2003.2,503.5,2002.4,502.9z"/>
	<path d="M2021.6,484.6c0-1.6-0.5-2.6-2.5-3.7l-1.6-0.9c-0.5-0.2-0.5-0.4-0.5-0.6v-0.5c0-0.2,0.1-0.3,0.5-0.5l6.6-3.3
		c0.5-0.3,1.1-0.5,1.6-0.5c0.3,0,0.5,0.3,0.5,1.4l0.3,3.3h0.2c1.9-2.4,5.4-4.6,10-4.6c3.5,0,5.8,1.5,7.8,3.4
		c2.6,2.6,3.7,5.4,3.7,10.7c0,9-6.2,16.2-14.8,16.2c-1.9,0-4.7-0.3-6.9-1.2v14.5c0,1.9,0.5,2.3,1.5,2.3h3c0.5,0,0.6,0.3,0.6,0.7v1.2
		c0,0.4-0.1,0.6-0.6,0.6c-0.3,0-2.7-0.2-7.1-0.2c-4,0-6.4,0.2-6.9,0.2c-0.5,0-0.6-0.2-0.6-0.6v-1.2c0-0.3,0.1-0.6,0.8-0.6h2.7
		c1.2,0,1.3-0.7,1.4-1.7c0.2-1.5,0.2-5.2,0.2-11.9V484.6z M2026.6,497.2c0,1.5,0.1,2.7,1.4,3.6c1.9,1.4,4.1,1.9,6.9,1.9
		c3.9,0,8-3,8-11.5c0-9.6-4.3-13.5-8.9-13.5c-2.9,0-5.7,1.6-7.3,4.4V497.2z"/>
	<path d="M2069.1,501c1.1,0,2.1-0.5,2.4-1c0.3-0.3,0.4-0.5,0.7-0.3l0.7,0.5c0.2,0.2,0.3,0.5-0.1,1.2c-0.5,1-1.9,3.4-5.4,3.4
		c-2.5,0-4.3-1.8-4.9-4.6h-0.1c-1.4,1.7-3.7,3.2-6.8,4.2c-1.3,0.4-2.5,0.4-4.1,0.4c-1.6,0-4.1-1.4-4.1-5.7c0-3.2,1.4-5.9,6.9-8.3
		c3.1-1.4,6.7-3,7.8-4v-4.4c-0.1-1.2-0.2-3-1-3.8c-0.8-0.9-2.1-1.5-4.1-1.5c-1.4,0-3.5,0.5-4.5,1.4c-1,0.9-0.3,1.9-0.3,3.2
		c0,2.4-0.8,3.9-3.6,3.9c-1.1,0-1.6-0.6-1.6-2.2c0-2.2,1.9-4.8,4.7-6.5c2.9-1.7,5.3-2.4,8.4-2.4c3.2,0,4.5,1,5.5,1.9
		c1.4,1.4,1.5,3,1.5,4.9v14.6C2067,499.8,2067.8,501,2069.1,501z M2062,489c-2.5,1.9-9.2,3.2-9.2,8.9c0,2.5,1.5,3.8,3.6,3.8
		c2,0,5.6-2.4,5.6-4.3V489z"/>
	<path d="M2070.9,520.5c-2.5-1.5-3.5-3.3-3.5-5.6c0-3.8,3.9-6.8,7.2-8.2v-0.3c-2.9-0.6-4.6-2.7-4.6-4.8c0-3.3,3.8-5.6,6.2-6.5V495
		c-2.7-1.2-6.4-4.3-6.4-10.4c0-4.5,4-10,11.7-10c5.2,0,8,3.2,8.7,4c1.9-1.3,4.2-2.7,6.5-2.7c2.3,0,3.4,1.5,3.2,2.9
		c0,1.3-1.1,2.5-2.7,2.5c-1.2,0-1.9-0.5-2.4-1c-0.4-0.3-0.9-0.6-1.4-0.6c-0.5,0-1.3,0-2.2,0.4c0.5,1.4,1,2.9,1,5.2
		c0,2.7-0.8,5.3-2.5,7.4c-1.8,2-5.7,3.4-8,3.4c-1.5,0-2.5-0.1-3.5-0.3c-1.4,0.5-3.6,1.9-3.6,3.8c0,2.8,3.4,2.6,8,2.3
		c5.6-0.3,9.1,0.3,11.8,2.5c3,2.2,3.3,4.9,3.4,6.6c0,3.2-1.2,5.9-4.6,8.4c-1.8,1.3-5.9,3.2-11.7,3.2
		C2078.1,522.7,2074.2,522.4,2070.9,520.5z M2093.5,513.5c0-4.1-3.1-7.1-10-6.7l-6.6,0.5c-2.1,0.5-5.5,2.9-5.5,6.6
		c0,1.7,1.3,3.8,2.7,4.7c2.3,1.6,4.7,1.9,9.6,1.9C2086.3,520.5,2093.9,518.8,2093.5,513.5z M2087.1,484.2c0-3-0.6-4.8-1.9-6.2
		c-0.9-0.9-2.3-1.5-3.3-1.5c-1.6,0-3.2,0.3-4.9,1.9c-2.2,2.3-2.5,5.5-2.5,8.1c0,2.3,0.8,4.5,2.2,6c1.2,1.2,2.5,1.7,4.1,1.7
		C2085.6,494.2,2087.1,488.5,2087.1,484.2z"/>
	<path d="M2099.6,466.6c0-4.2-0.8-4.9-3.3-5.8l-1.2-0.4c-0.4-0.1-0.5-0.2-0.5-0.4v-0.6c0-0.3,0.2-0.3,0.8-0.7l7.1-3.8
		c0.5-0.3,1-0.5,1.6-0.5c0.4,0,0.7,0.5,0.5,1.7c-0.1,1.2-0.2,15.1-0.2,18.5v4.4h0.3c2.4-2.9,6.4-4.5,9.4-4.5c2.9,0,4.9,0.9,6.8,2.7
		c3.1,2.9,3,6.4,3,10.1v3.9c0,3.8,0.1,8.1,0.1,9.4c0,0.8,1.1,1,2.5,1h1.2c0.5,0,0.8,0.1,0.8,0.6v1c0,0.5-0.1,0.8-0.5,0.8
		c-0.5,0-2.7-0.2-6.6-0.2c-3.4,0-5.8,0.2-6.5,0.2c-0.5,0-0.6-0.2-0.6-0.8v-1.2c0-0.3,0.1-0.5,0.5-0.5h1.6c1.2,0,2.5-0.1,2.6-1.3
		c0.1-1,0-4.6,0-6.8v-5.6c0-3.8-0.3-6.6-2.3-8.4c-1.4-1.3-2.8-1.9-4.5-1.9c-2,0-4.5,0.7-6.4,2.9c-0.6,0.8-1.4,2.1-1.4,3.4v15
		c0,2.2,0.2,2.8,1.5,2.8h2.1c0.5,0,0.8,0.1,0.8,0.5v1.2c0,0.5-0.1,0.8-0.5,0.8c-0.5,0-3.4-0.2-6.5-0.2c-3.4,0-6,0.2-6.7,0.2
		c-0.3,0-0.5-0.2-0.5-0.7v-1.2c0-0.5,0.3-0.5,1-0.5h1.4c1.1,0,2.1-0.3,2.3-1.1c0.2-1.3,0.2-8.9,0.2-13.3V466.6z"/>
	<path d="M2130.9,485.8c-0.1,0.6-0.2,1.7-0.2,3.3c0,6.7,4.3,11.8,9.8,11.8c4.2,0,7.1-2.4,8.3-4.7c0.1-0.3,0.4-0.4,0.6-0.3l0.9,0.5
		c0.2,0.1,0.3,0.3,0,1c-1.2,2.7-4.8,7.5-10.9,7.5c-3.9,0-8.2-1.2-10.8-4.9c-2.4-3.5-3-6-3-10.8c0-2.7,0.7-7.3,4.3-10.9
		c3-3,6.4-3.6,9.8-3.6c7.9,0,10.1,7.4,10.1,10.1c0,1-0.8,1.1-1.9,1.1H2130.9z M2141.8,483.7c1.3,0,1.9-0.3,1.9-1
		c0-1.6-0.8-6.1-5.3-6.1c-3,0-5.9,2-7.2,7.1H2141.8z"/>
	<path d="M2157,495.5c0,5.1,2.3,6,3.6,6c1.6,0,3.6-0.3,4.5-0.9c0.3-0.2,0.6-0.1,0.8,0.1l0.3,0.6c0.2,0.3,0.1,0.5-0.1,0.8
		c-0.7,0.7-3.5,2.7-7.6,2.7c-3.4,0-6.7-3.2-6.7-5.8c0-2.8,0.2-8.9,0.2-9.8v-1.5c0-1.2,0.1-5.9,0.1-8.8h-4.2c-0.6,0-1-0.3-1-0.8
		s0.4-0.8,1.2-1.2c1.6-1,6.9-6.2,7.8-8.6c0.2-0.5,0.5-0.7,1-0.7c0.5,0,0.7,0.5,0.7,1l-0.3,6.7h9.5c0.4,0,0.6,0.3,0.5,0.6l-0.7,2.4
		c-0.1,0.3-0.2,0.5-0.6,0.5h-8.9c-0.1,3.2-0.2,6.5-0.2,9.7V495.5z"/>
	<path d="M2172,495.5c0,5.1,2.3,6,3.6,6c1.6,0,3.6-0.3,4.5-0.9c0.3-0.2,0.6-0.1,0.8,0.1l0.3,0.6c0.2,0.3,0.1,0.5-0.1,0.8
		c-0.7,0.7-3.5,2.7-7.6,2.7c-3.4,0-6.7-3.2-6.7-5.8c0-2.8,0.2-8.9,0.2-9.8v-1.5c0-1.2,0.1-5.9,0.1-8.8h-4.2c-0.6,0-1-0.3-1-0.8
		s0.4-0.8,1.2-1.2c1.6-1,6.9-6.2,7.8-8.6c0.2-0.5,0.5-0.7,1-0.7c0.5,0,0.7,0.5,0.7,1l-0.3,6.7h9.5c0.4,0,0.6,0.3,0.5,0.6l-0.7,2.4
		c-0.1,0.3-0.2,0.5-0.6,0.5h-8.9c-0.1,3.2-0.2,6.5-0.2,9.7V495.5z"/>
	<path d="M2182.4,484.1c0-2.3-0.4-3.6-3.8-4.1c-0.5-0.1-0.6-0.2-0.6-0.5v-0.6c0-0.2,0.1-0.3,0.5-0.5c2.2-0.8,4.8-1.9,7.4-3.4
		c0.5-0.3,0.9-0.4,1.3-0.4c0.3,0,0.4,0.3,0.3,0.8c-0.1,1.2-0.1,5.5-0.1,11.2v7.5c0,2.7,0,5.1,0.1,5.9c0.1,1.3,0.3,1.8,1.1,1.8h3.2
		c0.5,0,0.7,0.2,0.7,0.6v1.2c0,0.5-0.1,0.7-0.6,0.7c-0.5,0-3.7-0.2-6.6-0.2c-4,0-6.7,0.2-7.4,0.2c-0.3,0-0.5-0.1-0.5-0.5v-1.4
		c0-0.4,0.2-0.5,0.7-0.5h3.4c0.8,0,1-0.3,1.1-1.4c0.1-2.1,0.1-4.2,0.1-6.2V484.1z M2179.2,463c0-1.8,1.5-3.8,4.3-3.8
		c2.5,0,3.7,2.1,3.7,3.6c0,1.9-1.2,4.1-4.1,4.1C2181.5,466.8,2179.2,465.3,2179.2,463z"/>
</g>
<g>
	<path d="M1842.6,1054.8c0,6-3.2,9.6-6.8,9.6c-2.1,0-3.8-1-5.7-2.3l-2.7-1.9c-1.7-1.1-3-1.5-4.5-1.5c-1.2,0-3.2,1.4-3.2,5.5h-3.6
		c0-6,3.2-9.6,6.8-9.6c2,0,3.5,0.4,5.5,1.6l2.9,1.9c1.2,0.8,2.7,2.1,4.3,2.1c1.7,0,3.4-1.5,3.4-5.5H1842.6z"/>
	<path d="M1870.1,1054.8c0,6-3.2,9.6-6.8,9.6c-2.1,0-3.8-1-5.7-2.3l-2.7-1.9c-1.7-1.1-3-1.5-4.5-1.5c-1.2,0-3.2,1.4-3.2,5.5h-3.6
		c0-6,3.2-9.6,6.8-9.6c2,0,3.5,0.4,5.5,1.6l2.9,1.9c1.2,0.8,2.7,2.1,4.3,2.1c1.7,0,3.4-1.5,3.4-5.5H1870.1z"/>
</g>
<g>
	<path d="M1742.3,552c1.1,0,2.1-0.5,2.4-1c0.3-0.3,0.4-0.5,0.7-0.3l0.7,0.5c0.2,0.2,0.3,0.5-0.1,1.2c-0.5,1-1.9,3.4-5.4,3.4
		c-2.5,0-4.3-1.8-4.9-4.6h-0.1c-1.4,1.7-3.7,3.2-6.8,4.2c-1.3,0.4-2.5,0.4-4.1,0.4c-1.6,0-4.1-1.4-4.1-5.7c0-3.2,1.4-5.9,6.9-8.3
		c3.1-1.4,6.7-3,7.8-4v-4.4c-0.1-1.2-0.2-3-1-3.8c-0.8-0.9-2.1-1.5-4.1-1.5c-1.4,0-3.5,0.5-4.5,1.4c-1,0.9-0.3,1.9-0.3,3.2
		c0,2.4-0.8,3.9-3.6,3.9c-1.1,0-1.6-0.6-1.6-2.2c0-2.2,1.9-4.8,4.7-6.5c2.9-1.7,5.3-2.4,8.4-2.4c3.2,0,4.5,1,5.5,1.9
		c1.4,1.4,1.5,3,1.5,4.9v14.6C1740.3,550.8,1741.1,552,1742.3,552z M1735.3,540c-2.5,1.9-9.2,3.2-9.2,8.9c0,2.5,1.5,3.8,3.6,3.8
		c2,0,5.6-2.4,5.6-4.3V540z"/>
	<path d="M1744.1,571.5c-2.5-1.5-3.5-3.3-3.5-5.6c0-3.8,3.9-6.8,7.2-8.2v-0.3c-2.9-0.6-4.6-2.7-4.6-4.8c0-3.3,3.8-5.6,6.2-6.5V546
		c-2.7-1.2-6.4-4.3-6.4-10.4c0-4.5,4-10,11.7-10c5.2,0,8,3.2,8.7,4c1.9-1.3,4.2-2.7,6.5-2.7s3.4,1.5,3.2,2.9c0,1.3-1.1,2.5-2.7,2.5
		c-1.2,0-1.9-0.5-2.4-1c-0.4-0.3-0.9-0.6-1.4-0.6c-0.5,0-1.3,0-2.2,0.4c0.5,1.4,1,2.9,1,5.2c0,2.7-0.8,5.3-2.5,7.4
		c-1.8,2-5.7,3.4-8,3.4c-1.5,0-2.5-0.1-3.5-0.3c-1.4,0.5-3.6,1.9-3.6,3.8c0,2.8,3.4,2.6,8,2.3c5.6-0.3,9.1,0.3,11.8,2.5
		c3,2.2,3.3,4.9,3.4,6.6c0,3.2-1.2,5.9-4.6,8.4c-1.8,1.3-5.9,3.2-11.7,3.2C1751.3,573.7,1747.4,573.4,1744.1,571.5z M1766.8,564.5
		c0-4.1-3.1-7.1-10-6.7l-6.6,0.5c-2.1,0.5-5.5,2.9-5.5,6.6c0,1.7,1.3,3.8,2.7,4.7c2.3,1.6,4.7,1.9,9.6,1.9
		C1759.6,571.5,1767.1,569.8,1766.8,564.5z M1760.4,535.2c0-3-0.6-4.8-1.9-6.2c-0.9-0.9-2.3-1.5-3.3-1.5c-1.6,0-3.2,0.3-4.9,1.9
		c-2.2,2.3-2.5,5.5-2.5,8.1c0,2.3,0.8,4.5,2.2,6c1.2,1.2,2.5,1.7,4.1,1.7C1758.9,545.2,1760.4,539.5,1760.4,535.2z"/>
	<path d="M1791.2,552c1.1,0,2.1-0.5,2.4-1c0.3-0.3,0.4-0.5,0.7-0.3l0.7,0.5c0.2,0.2,0.3,0.5-0.1,1.2c-0.5,1-1.9,3.4-5.4,3.4
		c-2.5,0-4.3-1.8-4.9-4.6h-0.1c-1.4,1.7-3.7,3.2-6.8,4.2c-1.3,0.4-2.5,0.4-4.1,0.4c-1.6,0-4.1-1.4-4.1-5.7c0-3.2,1.4-5.9,6.9-8.3
		c3.1-1.4,6.7-3,7.8-4v-4.4c-0.1-1.2-0.2-3-1-3.8c-0.8-0.9-2.1-1.5-4.1-1.5c-1.4,0-3.5,0.5-4.5,1.4c-1,0.9-0.3,1.9-0.3,3.2
		c0,2.4-0.8,3.9-3.6,3.9c-1.1,0-1.6-0.6-1.6-2.2c0-2.2,1.9-4.8,4.7-6.5c2.9-1.7,5.3-2.4,8.4-2.4c3.2,0,4.5,1,5.5,1.9
		c1.4,1.4,1.5,3,1.5,4.9v14.6C1789.2,550.8,1790,552,1791.2,552z M1784.1,540c-2.5,1.9-9.2,3.2-9.2,8.9c0,2.5,1.5,3.8,3.6,3.8
		c2,0,5.6-2.4,5.6-4.3V540z"/>
	<path d="M1795.5,535.1c0-2.3-0.4-3.6-3.8-4.1c-0.5-0.1-0.6-0.2-0.6-0.5v-0.6c0-0.2,0.1-0.3,0.5-0.5c2.2-0.8,4.8-1.9,7.4-3.4
		c0.5-0.3,0.9-0.4,1.3-0.4c0.3,0,0.4,0.3,0.3,0.8c-0.1,1.2-0.1,5.5-0.1,11.2v7.5c0,2.7,0,5.1,0.1,5.9c0.1,1.3,0.3,1.8,1.1,1.8h3.2
		c0.5,0,0.7,0.2,0.7,0.6v1.2c0,0.5-0.1,0.7-0.6,0.7c-0.5,0-3.7-0.2-6.6-0.2c-4,0-6.7,0.2-7.4,0.2c-0.3,0-0.5-0.1-0.5-0.5v-1.4
		c0-0.4,0.2-0.5,0.7-0.5h3.4c0.8,0,1-0.3,1.1-1.4c0.1-2.1,0.1-4.2,0.1-6.2V535.1z M1792.3,514c0-1.8,1.5-3.8,4.3-3.8
		c2.5,0,3.7,2.1,3.7,3.6c0,1.9-1.2,4.1-4.1,4.1C1794.6,517.8,1792.3,516.3,1792.3,514z"/>
	<path d="M1830.8,551.4c0,1.1,0.6,1.4,1.5,1.4h2.2c0.6,0,0.8,0.2,0.8,0.6v1.1c0,0.5-0.1,0.8-0.5,0.8c-0.5,0-2.6-0.2-6.5-0.2
		c-3.5,0-5.7,0.2-6.2,0.2c-0.4,0-0.5-0.2-0.5-0.8v-1.1c0-0.5,0.2-0.6,0.9-0.6h2c0.8,0,1.3-0.3,1.4-1.6c0.1-1.8,0.1-4,0.1-5.8v-9.1
		c0-2.7,0-4.7-2-6.2c-1.6-1.2-3.3-1.2-5-1.2c-1.1,0-3.5,0.5-5.6,2.7c-1.4,1.5-1.6,3.4-1.6,4.7v14.2c0,1.9,0.2,2.3,1.6,2.3h1.7
		c0.5,0,0.7,0.2,0.7,0.7v1.2c0,0.4-0.1,0.6-0.5,0.6c-0.5,0-2.3-0.2-6-0.2c-3.5,0-5.7,0.2-6.1,0.2c-0.3,0-0.5-0.2-0.5-0.6v-1.2
		c0-0.4,0.1-0.6,0.7-0.6h2c0.9,0,1.4-0.2,1.4-1.4v-16.1c0-2.1-1.1-3.2-2.8-4.1l-0.5-0.3c-0.5-0.2-0.5-0.4-0.5-0.6v-0.3
		c0-0.3,0.3-0.5,0.6-0.7l5.9-3.3c0.5-0.3,1-0.5,1.2-0.5c0.3,0,0.5,0.3,0.5,0.8l0.5,4.2h0.1c2-2.5,6-5,9.4-5c2.1,0,4.2,0.4,5.8,1.5
		c2.1,1.4,3.8,4.8,3.8,6.5V551.4z"/>
	<path d="M1834.1,553.9c-0.3-0.2-0.3-0.6-0.4-1l-1.2-6.5c-0.1-0.3,0.1-0.5,0.4-0.5l0.9-0.2c0.3-0.1,0.5,0.1,0.6,0.4l1.7,3.4
		c1.4,2.5,2.3,4.3,6,4.3c2.4,0,5.4-1.4,5.4-4.7c0-3.1-1.5-4.9-6.7-6.3c-4.1-1.2-8.1-3.3-8.1-8.7c0-4.7,4.5-8.4,9.6-8.4
		c3.3,0,5.1,0.8,6.3,1.4c1,0.5,1.2,0.8,1.2,1.2l1,4.8c0,0.3-0.1,0.5-0.5,0.6l-0.8,0.3c-0.3,0.1-0.4,0-0.6-0.3l-2.3-3.2
		c-0.8-1.3-2.1-2.7-4.8-2.7c-2.6,0-5.3,1.6-5.3,4.5c0,4,3.2,4.7,6.6,5.7c5,1.4,8.2,3.5,8.2,8.8c-0.1,5.6-4.6,9.1-10.4,9.1
		C1837.7,555.9,1835,554.5,1834.1,553.9z"/>
	<path d="M1858.9,546.5c0,5.1,2.3,6,3.6,6c1.6,0,3.6-0.3,4.5-0.9c0.3-0.2,0.6-0.1,0.8,0.1l0.3,0.6c0.2,0.3,0.1,0.5-0.1,0.8
		c-0.7,0.7-3.5,2.7-7.6,2.7c-3.4,0-6.7-3.2-6.7-5.8c0-2.8,0.2-8.9,0.2-9.8v-1.5c0-1.2,0.1-5.9,0.1-8.8h-4.2c-0.6,0-1-0.3-1-0.8
		s0.4-0.8,1.2-1.2c1.6-1,6.9-6.2,7.8-8.6c0.2-0.5,0.5-0.7,1-0.7c0.5,0,0.7,0.5,0.7,1l-0.3,6.7h9.5c0.4,0,0.6,0.3,0.5,0.6l-0.7,2.4
		c-0.1,0.3-0.2,0.5-0.6,0.5h-8.9c-0.1,3.2-0.2,6.5-0.2,9.7V546.5z"/>
	<path d="M1890.2,517.6c0-4.2-0.8-4.9-3.3-5.8l-1.2-0.4c-0.4-0.1-0.5-0.2-0.5-0.4v-0.6c0-0.3,0.2-0.3,0.8-0.7l7.1-3.8
		c0.5-0.3,1-0.5,1.6-0.5c0.4,0,0.7,0.5,0.5,1.7c-0.1,1.2-0.2,15.1-0.2,18.5v4.4h0.3c2.4-2.9,6.4-4.5,9.4-4.5c2.9,0,4.9,0.9,6.8,2.7
		c3.1,2.9,3,6.4,3,10.1v3.9c0,3.8,0.1,8.1,0.1,9.4c0,0.8,1.1,1,2.5,1h1.2c0.5,0,0.8,0.1,0.8,0.6v1c0,0.5-0.1,0.8-0.5,0.8
		c-0.5,0-2.7-0.2-6.6-0.2c-3.4,0-5.8,0.2-6.5,0.2c-0.5,0-0.6-0.2-0.6-0.8v-1.2c0-0.3,0.1-0.5,0.5-0.5h1.6c1.2,0,2.5-0.1,2.6-1.3
		c0.1-1,0-4.6,0-6.8v-5.6c0-3.8-0.3-6.6-2.3-8.4c-1.4-1.3-2.8-1.9-4.5-1.9c-2,0-4.5,0.7-6.4,2.9c-0.6,0.8-1.4,2.1-1.4,3.4v15
		c0,2.2,0.2,2.8,1.5,2.8h2.1c0.5,0,0.8,0.1,0.8,0.5v1.2c0,0.5-0.1,0.8-0.5,0.8c-0.5,0-3.4-0.2-6.5-0.2c-3.4,0-6,0.2-6.7,0.2
		c-0.3,0-0.5-0.2-0.5-0.7v-1.2c0-0.5,0.3-0.5,1-0.5h1.4c1.1,0,2.1-0.3,2.3-1.1c0.2-1.3,0.2-8.9,0.2-13.3V517.6z"/>
	<path d="M1921.5,536.8c-0.1,0.6-0.2,1.7-0.2,3.3c0,6.7,4.3,11.8,9.8,11.8c4.2,0,7.1-2.4,8.3-4.7c0.1-0.3,0.4-0.4,0.6-0.3l0.9,0.5
		c0.2,0.1,0.3,0.3,0,1c-1.2,2.7-4.8,7.5-10.9,7.5c-3.9,0-8.2-1.2-10.8-4.9c-2.4-3.5-3-6-3-10.8c0-2.7,0.7-7.3,4.3-10.9
		c3-3,6.4-3.6,9.8-3.6c7.9,0,10.1,7.4,10.1,10.1c0,1-0.8,1.1-1.9,1.1H1921.5z M1932.4,534.7c1.3,0,1.9-0.3,1.9-1
		c0-1.6-0.8-6.1-5.3-6.1c-3,0-5.9,2-7.2,7.1H1932.4z"/>
	<path d="M1942.6,536.8c0-3.5-0.5-4.2-2.5-5.2l-1.3-0.7c-0.4-0.1-0.5-0.2-0.5-0.5V530c0-0.3,0.1-0.4,0.5-0.6l6.8-3.5
		c0.4-0.2,0.7-0.3,1-0.3c0.4,0,0.5,0.4,0.5,0.8l0.3,4.9h0.3c2.1-3.2,5.3-6,8.2-6c2.3,0,3.5,1.4,3.5,3c0,2-1.6,3.4-2.9,3.4
		c-0.8,0-1.4-0.3-2-0.5c-0.5-0.3-1.4-0.5-2.3-0.5c-1.1,0-2.9,0.7-4.1,2.9c-0.4,0.8-0.7,2-0.7,2.2V550c0,2.1,0.5,2.8,1.9,2.8h3.2
		c0.4,0,0.5,0.2,0.5,0.6v1.2c0,0.4-0.1,0.6-0.3,0.6c-0.4,0-3.6-0.2-7.3-0.2c-4.3,0-7.1,0.2-7.6,0.2c-0.3,0-0.4-0.1-0.4-0.7v-1.2
		c0-0.5,0.1-0.6,0.8-0.6h2.7c1,0,1.5-0.4,1.5-1.3c0.1-2.3,0.1-4.7,0.1-8.2V536.8z"/>
	<path d="M1970.6,538.4c0,3.7,1.6,7.9,3.5,10.4c2.3,3,5.1,3.5,7.5,3.5c3.4,0,5.2-0.8,7.6-3c0.1-0.1,0.3-0.2,0.5,0l0.7,0.7
		c0.3,0.3,0.3,0.5,0,0.9c-2,2.3-6.4,4.9-11.1,4.9c-3.6,0-7.5-0.8-10.6-4.8c-2.5-3.4-3.1-6.2-3.1-9.3c0-8,5.6-16.1,14.7-16.1
		c7.1,0,9.3,4.1,9.3,5.6c-0.1,1.6-1.1,2.4-2.5,2.4c-1.6,0-2.7-0.9-3.8-2.7c-1.5-2.8-3-3-4.6-3
		C1974.8,527.8,1970.6,531.4,1970.6,538.4z"/>
	<path d="M1991.5,517.6c0-4.2-0.8-4.9-3.3-5.8l-1.2-0.4c-0.4-0.1-0.5-0.2-0.5-0.4v-0.6c0-0.3,0.2-0.3,0.8-0.7l7.1-3.8
		c0.5-0.3,1-0.5,1.6-0.5c0.4,0,0.7,0.5,0.5,1.7c-0.1,1.2-0.2,15.1-0.2,18.5v4.4h0.3c2.4-2.9,6.4-4.5,9.4-4.5c2.9,0,4.9,0.9,6.8,2.7
		c3.1,2.9,3,6.4,3,10.1v3.9c0,3.8,0.1,8.1,0.1,9.4c0,0.8,1.1,1,2.5,1h1.2c0.5,0,0.8,0.1,0.8,0.6v1c0,0.5-0.1,0.8-0.5,0.8
		c-0.5,0-2.7-0.2-6.6-0.2c-3.4,0-5.8,0.2-6.5,0.2c-0.5,0-0.6-0.2-0.6-0.8v-1.2c0-0.3,0.1-0.5,0.5-0.5h1.6c1.2,0,2.5-0.1,2.6-1.3
		c0.1-1,0-4.6,0-6.8v-5.6c0-3.8-0.3-6.6-2.3-8.4c-1.4-1.3-2.8-1.9-4.5-1.9c-2,0-4.5,0.7-6.4,2.9c-0.6,0.8-1.4,2.1-1.4,3.4v15
		c0,2.2,0.2,2.8,1.5,2.8h2.1c0.5,0,0.8,0.1,0.8,0.5v1.2c0,0.5-0.1,0.8-0.5,0.8c-0.5,0-3.4-0.2-6.5-0.2c-3.4,0-6,0.2-6.7,0.2
		c-0.3,0-0.5-0.2-0.5-0.7v-1.2c0-0.5,0.3-0.5,1-0.5h1.4c1.1,0,2.1-0.3,2.3-1.1c0.2-1.3,0.2-8.9,0.2-13.3V517.6z"/>
	<path d="M2022.8,536.8c-0.1,0.6-0.2,1.7-0.2,3.3c0,6.7,4.3,11.8,9.8,11.8c4.2,0,7.1-2.4,8.3-4.7c0.1-0.3,0.4-0.4,0.6-0.3l0.9,0.5
		c0.2,0.1,0.3,0.3,0,1c-1.2,2.7-4.8,7.5-10.9,7.5c-3.9,0-8.2-1.2-10.8-4.9c-2.4-3.5-3-6-3-10.8c0-2.7,0.7-7.3,4.3-10.9
		c3-3,6.4-3.6,9.8-3.6c7.9,0,10.1,7.4,10.1,10.1c0,1-0.8,1.1-1.9,1.1H2022.8z M2033.7,534.7c1.3,0,1.9-0.3,1.9-1
		c0-1.6-0.8-6.1-5.3-6.1c-3,0-5.9,2-7.2,7.1H2033.7z"/>
	<path d="M2045.2,536.8c-0.1,0.6-0.2,1.7-0.2,3.3c0,6.7,4.3,11.8,9.8,11.8c4.2,0,7.1-2.4,8.3-4.7c0.1-0.3,0.4-0.4,0.6-0.3l0.9,0.5
		c0.2,0.1,0.3,0.3,0,1c-1.2,2.7-4.8,7.5-10.9,7.5c-3.9,0-8.2-1.2-10.8-4.9c-2.4-3.5-3-6-3-10.8c0-2.7,0.7-7.3,4.3-10.9
		c3-3,6.4-3.6,9.8-3.6c7.9,0,10.1,7.4,10.1,10.1c0,1-0.8,1.1-1.9,1.1H2045.2z M2056.1,534.7c1.3,0,1.9-0.3,1.9-1
		c0-1.6-0.8-6.1-5.3-6.1c-3,0-5.9,2-7.2,7.1H2056.1z"/>
	<path d="M2066.2,515.6c0-2.8-0.2-4-3.6-4.9c-0.8-0.2-1-0.3-1-0.5v-0.6c0-0.3,0.2-0.4,0.9-0.7l7-3c0.6-0.3,1.1-0.5,1.5-0.5
		s0.5,0.3,0.4,1.2c-0.3,3.3-0.3,13.4-0.3,21.6v10.8c0.9,0,2.6-0.2,3.3-0.8c1.3-0.9,6.7-6.9,7.3-7.7c0.4-0.8,0.4-1.3,0-1.6
		c-0.5-0.4-1.4-0.4-1.8-0.4c-0.5,0-0.5-0.2-0.5-0.6v-1.3c0-0.3,0.1-0.5,0.5-0.5c0.4,0,2.9,0.2,6.4,0.2c3.4,0,5.1-0.2,5.6-0.2
		c0.3,0,0.4,0.2,0.4,0.7v1.2c0,0.4-0.1,0.5-0.5,0.5h-0.5c-1.4,0-3.4,0.7-4.7,1.6c-1,0.5-6.7,5.9-9.1,8.2
		c1.4,1.4,12.9,12.9,14.1,13.5c1.2,0.6,2.8,1,3.6,1c0.4,0,0.5,0.1,0.5,0.6v1.2c0,0.4-0.1,0.6-0.6,0.6c-0.5,0-2.5-0.2-5.7-0.2
		c-4.1,0-6.9,0.2-7.5,0.2c-0.3,0-0.5-0.2-0.5-0.7v-1.1c0-0.3,0.1-0.5,0.7-0.5h0.5c0.5,0,1-0.5,0.8-1.1c-0.2-0.5-8-8.9-9.1-9.9
		c-0.8-0.6-2.1-0.8-3-0.8v3c0,2.4,0,4.7,0.1,7.1c0.1,1,0.4,1.4,1.4,1.4h2c0.5,0,0.6,0.1,0.6,0.5v1.2c0,0.5-0.1,0.8-0.5,0.8
		c-0.4,0-2.7-0.2-6.1-0.2c-3.7,0-6.1,0.2-6.6,0.2c-0.2,0-0.3-0.3-0.3-0.7v-1.2c0-0.5,0.2-0.6,0.7-0.6h2.5c0.9,0,1.2-0.8,1.2-1.6
		c0.1-3,0.1-6.7,0.1-12.8V515.6z"/>
	<path d="M2091.4,553.9c-0.3-0.2-0.3-0.6-0.4-1l-1.2-6.5c-0.1-0.3,0.1-0.5,0.4-0.5l0.9-0.2c0.3-0.1,0.5,0.1,0.6,0.4l1.7,3.4
		c1.4,2.5,2.3,4.3,6,4.3c2.4,0,5.4-1.4,5.4-4.7c0-3.1-1.5-4.9-6.7-6.3c-4.1-1.2-8.1-3.3-8.1-8.7c0-4.7,4.5-8.4,9.6-8.4
		c3.3,0,5.1,0.8,6.3,1.4c1,0.5,1.2,0.8,1.2,1.2l1,4.8c0,0.3-0.1,0.5-0.5,0.6l-0.8,0.3c-0.3,0.1-0.4,0-0.6-0.3l-2.3-3.2
		c-0.8-1.3-2.1-2.7-4.8-2.7c-2.6,0-5.3,1.6-5.3,4.5c0,4,3.2,4.7,6.6,5.7c5,1.4,8.2,3.5,8.2,8.8c-0.1,5.6-4.6,9.1-10.4,9.1
		C2094.9,555.9,2092.2,554.5,2091.4,553.9z"/>
</g>
<g>
	<path d="M1750.9,853.6h0.3l5.6-15.2c0.9-2.4,0.3-3.8-1-3.8h-1c-0.3,0-0.4-0.2-0.4-0.5v-1.4c0-0.3,0.2-0.5,0.5-0.5
		c0.4,0,2.5,0.2,5.3,0.2c3,0,4.2-0.2,5-0.2c0.3,0,0.5,0.2,0.5,0.5v1.4c0,0.3-0.1,0.5-0.5,0.5h-1.7c-0.8,0-1.8,0.5-2.2,1.2
		c-0.8,1.3-9.5,23.2-10.4,25.4c-0.3,0.8-0.8,0.9-1.3,0.9c-0.5,0-1-0.5-1.2-1.3l-6.7-19.6h-0.3l-8.4,19.8c-0.3,0.8-0.9,1.1-1.4,1.1
		s-0.9-0.5-1.2-1.4l-9-24.2c-0.5-1.3-1.2-1.9-2.9-1.9h-1.5c-0.4,0-0.5-0.2-0.5-0.6v-1.3c0-0.3,0.1-0.5,0.4-0.5c1,0,2.3,0.2,6.2,0.2
		c3.1,0,4.7-0.2,5.8-0.2c0.4,0,0.5,0.1,0.5,0.5v1.4c0,0.3-0.1,0.5-0.5,0.5h-0.6c-0.8,0-1.2,0.6-0.8,1.9l5.4,18.3h0.3l7-16.8
		c-0.1-1.1-0.2-1.6-0.6-2.2c-0.3-0.5-0.9-0.7-1.9-0.7h-1c-0.3,0-0.5-0.1-0.5-0.5v-1.4c0-0.4,0.2-0.5,0.6-0.5c0.5,0,2.7,0.2,6.2,0.2
		c3.2,0,4.7-0.2,5.2-0.2c0.5,0,0.6,0.1,0.6,0.5v1.4c0,0.3-0.1,0.5-0.5,0.5h-1.4c-0.7,0-1.2,0.8-1,1.8L1750.9,853.6z"/>
	<path d="M1764.2,823.7c0-4.2-0.8-4.9-3.3-5.8l-1.2-0.4c-0.4-0.1-0.5-0.2-0.5-0.4v-0.6c0-0.3,0.2-0.3,0.8-0.7l7.1-3.8
		c0.5-0.3,1-0.5,1.6-0.5c0.4,0,0.7,0.5,0.5,1.7c-0.1,1.2-0.2,15.1-0.2,18.5v4.4h0.3c2.4-2.9,6.4-4.5,9.4-4.5c2.9,0,4.9,0.9,6.8,2.7
		c3.1,2.9,3,6.4,3,10.1v3.9c0,3.8,0.1,8.1,0.1,9.4c0,0.8,1.1,1,2.5,1h1.2c0.5,0,0.8,0.1,0.8,0.6v1c0,0.5-0.1,0.8-0.5,0.8
		c-0.5,0-2.7-0.2-6.6-0.2c-3.4,0-5.8,0.2-6.5,0.2c-0.5,0-0.6-0.2-0.6-0.8v-1.2c0-0.3,0.1-0.5,0.5-0.5h1.6c1.2,0,2.5-0.1,2.6-1.3
		c0.1-1,0-4.6,0-6.8v-5.6c0-3.8-0.3-6.6-2.3-8.4c-1.4-1.3-2.8-1.9-4.5-1.9c-2,0-4.5,0.7-6.4,2.9c-0.6,0.8-1.4,2.1-1.4,3.4v15
		c0,2.2,0.2,2.8,1.5,2.8h2.1c0.5,0,0.8,0.1,0.8,0.5v1.2c0,0.5-0.1,0.8-0.5,0.8c-0.5,0-3.4-0.2-6.5-0.2c-3.4,0-6,0.2-6.7,0.2
		c-0.3,0-0.5-0.2-0.5-0.7v-1.2c0-0.5,0.3-0.5,1-0.5h1.4c1.1,0,2.1-0.3,2.3-1.1c0.2-1.3,0.2-8.9,0.2-13.3V823.7z"/>
	<path d="M1794.6,841.1c0-2.3-0.4-3.6-3.8-4.1c-0.5-0.1-0.6-0.2-0.6-0.5v-0.6c0-0.2,0.1-0.3,0.5-0.5c2.2-0.8,4.8-1.9,7.4-3.4
		c0.5-0.3,0.9-0.4,1.3-0.4c0.3,0,0.4,0.3,0.3,0.8c-0.1,1.2-0.1,5.5-0.1,11.2v7.5c0,2.7,0,5.1,0.1,5.9c0.1,1.3,0.3,1.8,1.1,1.8h3.2
		c0.5,0,0.7,0.2,0.7,0.6v1.2c0,0.5-0.1,0.7-0.6,0.7c-0.5,0-3.7-0.2-6.6-0.2c-4,0-6.7,0.2-7.4,0.2c-0.3,0-0.5-0.1-0.5-0.5v-1.4
		c0-0.4,0.2-0.5,0.7-0.5h3.4c0.8,0,1-0.3,1.1-1.4c0.1-2.1,0.1-4.2,0.1-6.2V841.1z M1791.4,820c0-1.8,1.5-3.8,4.3-3.8
		c2.5,0,3.7,2.1,3.7,3.6c0,1.9-1.2,4.1-4.1,4.1C1793.7,823.9,1791.4,822.3,1791.4,820z"/>
	<path d="M1810.6,840.6c0,3.6,0,13.9,0.1,16.1c0.1,1.2,0.3,2.1,1.8,2.1h3.1c0.6,0,0.8,0.2,0.8,0.6v1.2c0,0.4-0.1,0.7-0.4,0.7
		c-0.5,0-3.5-0.2-7.8-0.2c-4.4,0-7.1,0.2-7.8,0.2c-0.3,0-0.5-0.3-0.5-0.7v-1.2c0-0.5,0.1-0.6,0.9-0.6h3.3c0.8,0,1.4-0.5,1.5-1.7
		c0.1-2.1,0.1-13.9,0.1-17.9v-4.3c0-4.9-0.1-11.1-0.2-12.9c-0.1-2.3-1.2-3.4-3.4-4.1l-1.4-0.5c-0.3-0.1-0.4-0.2-0.4-0.3v-0.5
		c0-0.2,0.2-0.3,0.6-0.5c2.4-1.1,5.5-2.3,8-4c0.6-0.4,1-0.5,1.4-0.5c0.5,0,0.6,0.3,0.5,1.2c-0.1,3.8-0.3,18.1-0.3,21.8V840.6z"/>
	<path d="M1817.7,842.8c-0.1,0.6-0.2,1.7-0.2,3.3c0,6.7,4.3,11.8,9.8,11.8c4.2,0,7.1-2.4,8.3-4.7c0.1-0.3,0.4-0.4,0.6-0.3l0.9,0.5
		c0.2,0.1,0.3,0.3,0,1c-1.2,2.7-4.8,7.5-10.9,7.5c-3.9,0-8.2-1.2-10.8-4.9c-2.4-3.5-3-6-3-10.8c0-2.7,0.7-7.3,4.3-10.9
		c3-3,6.4-3.6,9.8-3.6c7.9,0,10.1,7.4,10.1,10.1c0,1-0.8,1.1-1.9,1.1H1817.7z M1828.6,840.8c1.3,0,1.9-0.3,1.9-1
		c0-1.6-0.8-6.1-5.3-6.1c-3,0-5.9,2-7.2,7.1H1828.6z"/>
	<path d="M1854.3,852.5c0,5.1,2.3,6,3.6,6c1.6,0,3.6-0.3,4.5-0.9c0.3-0.2,0.6-0.1,0.8,0.1l0.3,0.6c0.2,0.3,0.1,0.5-0.1,0.8
		c-0.7,0.7-3.5,2.7-7.6,2.7c-3.4,0-6.7-3.2-6.7-5.8c0-2.8,0.2-8.9,0.2-9.8v-1.5c0-1.2,0.1-5.9,0.1-8.8h-4.2c-0.6,0-1-0.3-1-0.8
		s0.4-0.8,1.2-1.2c1.6-1,6.9-6.2,7.8-8.6c0.2-0.5,0.5-0.7,1-0.7c0.5,0,0.7,0.5,0.7,1l-0.3,6.7h9.5c0.4,0,0.6,0.3,0.5,0.6l-0.7,2.4
		c-0.1,0.3-0.2,0.5-0.6,0.5h-8.9c-0.1,3.2-0.2,6.5-0.2,9.7V852.5z"/>
	<path d="M1864.5,823.7c0-4.2-0.8-4.9-3.3-5.8l-1.2-0.4c-0.4-0.1-0.5-0.2-0.5-0.4v-0.6c0-0.3,0.2-0.3,0.8-0.7l7.1-3.8
		c0.5-0.3,1-0.5,1.6-0.5c0.4,0,0.7,0.5,0.5,1.7c-0.1,1.2-0.2,15.1-0.2,18.5v4.4h0.3c2.4-2.9,6.4-4.5,9.4-4.5c2.9,0,4.9,0.9,6.8,2.7
		c3.1,2.9,3,6.4,3,10.1v3.9c0,3.8,0.1,8.1,0.1,9.4c0,0.8,1.1,1,2.5,1h1.2c0.5,0,0.8,0.1,0.8,0.6v1c0,0.5-0.1,0.8-0.5,0.8
		c-0.5,0-2.7-0.2-6.6-0.2c-3.4,0-5.8,0.2-6.5,0.2c-0.5,0-0.6-0.2-0.6-0.8v-1.2c0-0.3,0.1-0.5,0.5-0.5h1.6c1.2,0,2.5-0.1,2.6-1.3
		c0.1-1,0-4.6,0-6.8v-5.6c0-3.8-0.3-6.6-2.3-8.4c-1.4-1.3-2.8-1.9-4.5-1.9c-2,0-4.5,0.7-6.4,2.9c-0.6,0.8-1.4,2.1-1.4,3.4v15
		c0,2.2,0.2,2.8,1.5,2.8h2.1c0.5,0,0.8,0.1,0.8,0.5v1.2c0,0.5-0.1,0.8-0.5,0.8c-0.5,0-3.4-0.2-6.5-0.2c-3.4,0-6,0.2-6.7,0.2
		c-0.3,0-0.5-0.2-0.5-0.7v-1.2c0-0.5,0.3-0.5,1-0.5h1.4c1.1,0,2.1-0.3,2.3-1.1c0.2-1.3,0.2-8.9,0.2-13.3V823.7z"/>
	<path d="M1895.8,842.8c-0.1,0.6-0.2,1.7-0.2,3.3c0,6.7,4.3,11.8,9.8,11.8c4.2,0,7.1-2.4,8.3-4.7c0.1-0.3,0.4-0.4,0.6-0.3l0.9,0.5
		c0.2,0.1,0.3,0.3,0,1c-1.2,2.7-4.8,7.5-10.9,7.5c-3.9,0-8.2-1.2-10.8-4.9c-2.4-3.5-3-6-3-10.8c0-2.7,0.7-7.3,4.3-10.9
		c3-3,6.4-3.6,9.8-3.6c7.9,0,10.1,7.4,10.1,10.1c0,1-0.8,1.1-1.9,1.1H1895.8z M1906.7,840.8c1.3,0,1.9-0.3,1.9-1
		c0-1.6-0.8-6.1-5.3-6.1c-3,0-5.9,2-7.2,7.1H1906.7z"/>
	<path d="M1927.5,842.8c0-3.5-0.5-4.2-2.5-5.2l-1.3-0.7c-0.4-0.1-0.5-0.2-0.5-0.5V836c0-0.3,0.1-0.4,0.5-0.6l6.8-3.5
		c0.4-0.2,0.7-0.3,1-0.3c0.4,0,0.5,0.4,0.5,0.8l0.3,4.9h0.3c2.1-3.2,5.3-6,8.2-6c2.3,0,3.5,1.4,3.5,3c0,2-1.6,3.4-2.9,3.4
		c-0.8,0-1.4-0.3-2-0.5c-0.5-0.3-1.4-0.5-2.3-0.5c-1.1,0-2.9,0.7-4.1,2.9c-0.4,0.8-0.7,2-0.7,2.2V856c0,2.1,0.5,2.8,1.9,2.8h3.2
		c0.4,0,0.5,0.2,0.5,0.6v1.2c0,0.4-0.1,0.6-0.3,0.6c-0.4,0-3.6-0.2-7.3-0.2c-4.3,0-7.1,0.2-7.6,0.2c-0.3,0-0.4-0.1-0.4-0.7v-1.2
		c0-0.5,0.1-0.6,0.8-0.6h2.7c1,0,1.5-0.4,1.5-1.3c0.1-2.3,0.1-4.7,0.1-8.2V842.8z"/>
	<path d="M1944.6,842.8c-0.1,0.6-0.2,1.7-0.2,3.3c0,6.7,4.3,11.8,9.8,11.8c4.2,0,7.1-2.4,8.3-4.7c0.1-0.3,0.4-0.4,0.6-0.3l0.9,0.5
		c0.2,0.1,0.3,0.3,0,1c-1.2,2.7-4.8,7.5-10.9,7.5c-3.9,0-8.2-1.2-10.8-4.9c-2.4-3.5-3-6-3-10.8c0-2.7,0.7-7.3,4.3-10.9
		c3-3,6.4-3.6,9.8-3.6c7.9,0,10.1,7.4,10.1,10.1c0,1-0.8,1.1-1.9,1.1H1944.6z M1955.5,840.8c1.3,0,1.9-0.3,1.9-1
		c0-1.6-0.8-6.1-5.3-6.1c-3,0-5.9,2-7.2,7.1H1955.5z"/>
	<path d="M1963.6,859.9c-0.3-0.2-0.3-0.6-0.4-1l-1.2-6.5c-0.1-0.3,0.1-0.5,0.4-0.5l0.9-0.2c0.3-0.1,0.5,0.1,0.6,0.4l1.7,3.4
		c1.4,2.5,2.3,4.3,6,4.3c2.4,0,5.4-1.4,5.4-4.7c0-3.1-1.5-4.9-6.7-6.3c-4.1-1.2-8.1-3.3-8.1-8.7c0-4.7,4.5-8.4,9.6-8.4
		c3.3,0,5.1,0.8,6.3,1.4c1,0.5,1.2,0.8,1.2,1.2l1,4.8c0,0.3-0.1,0.5-0.5,0.6l-0.8,0.3c-0.3,0.1-0.4,0-0.6-0.3l-2.3-3.2
		c-0.8-1.3-2.1-2.7-4.8-2.7c-2.6,0-5.3,1.6-5.3,4.5c0,4,3.2,4.7,6.6,5.7c5,1.4,8.2,3.5,8.2,8.8c-0.1,5.6-4.6,9.1-10.4,9.1
		C1967.1,861.9,1964.4,860.5,1963.6,859.9z"/>
	<path d="M1988.3,852.5c0,5.1,2.3,6,3.6,6c1.6,0,3.6-0.3,4.5-0.9c0.3-0.2,0.6-0.1,0.8,0.1l0.3,0.6c0.2,0.3,0.1,0.5-0.1,0.8
		c-0.7,0.7-3.5,2.7-7.6,2.7c-3.4,0-6.7-3.2-6.7-5.8c0-2.8,0.2-8.9,0.2-9.8v-1.5c0-1.2,0.1-5.9,0.1-8.8h-4.2c-0.6,0-1-0.3-1-0.8
		s0.4-0.8,1.2-1.2c1.6-1,6.9-6.2,7.8-8.6c0.2-0.5,0.5-0.7,1-0.7c0.5,0,0.7,0.5,0.7,1l-0.3,6.7h9.5c0.4,0,0.6,0.3,0.5,0.6l-0.7,2.4
		c-0.1,0.3-0.2,0.5-0.6,0.5h-8.9c-0.1,3.2-0.2,6.5-0.2,9.7V852.5z"/>
	<path d="M2008.5,857.2c-3.2-3.8-3.8-6.3-3.8-11.2c0-3.5,1.9-7.9,5.9-11.1c3.6-2.7,6.9-3.3,9.2-3.3c3.8,0,7.6,1.9,9.6,4
		c3.1,3.2,4.7,6.7,4.7,11.2c0,7.5-6.7,15.1-15.2,15.1C2015.6,861.9,2011.4,860.6,2008.5,857.2z M2028.3,846.1
		c0-7.6-5.6-12.4-9.1-12.4c-1.9,0-3.6,0.4-5.3,2.2c-2.7,2.7-3.6,5.6-3.6,10.8c0,3.8,0.4,6.5,2.6,9.6c1.6,2.3,3.6,3.6,6.8,3.6
		C2025,859.9,2028.3,853.5,2028.3,846.1z"/>
	<path d="M2032.2,835.7c-0.3,0-0.5-0.1-0.3-0.8l0.3-2.1c0.1-0.4,0.3-0.5,0.8-0.5h4v-1.2c0-6.8,1.9-11.3,4.6-14.3
		c3.6-4,7.4-5.4,11.3-5.4c3.2,0,6.2,1.2,6.2,3.8c0,1.6-1.8,3-2.9,3c-0.7,0-1.4-0.1-1.9-0.4c-0.6-0.3-1.4-1.2-1.6-1.6
		c-0.9-1.1-1.9-1.6-3.2-1.6c-1.8,0-3.6,0.5-5.1,2.4c-2.5,3.2-2.4,9.2-2.4,14v1.3h8.3c0.5,0,0.5,0.4,0.5,0.7l-0.3,2.3
		c-0.1,0.3-0.3,0.3-0.9,0.3h-7.6v6.2c0,8.1,0,14.4,0.1,15.2c0.1,1.2,0.3,1.8,1.8,1.8h3.9c0.6,0,0.8,0.1,0.8,0.5v1.1
		c0,0.5-0.1,0.8-0.5,0.8c-0.4,0-3-0.2-8.2-0.2c-3.8,0-7.3,0.2-7.8,0.2c-0.4,0-0.5-0.1-0.5-0.5v-1.5c0-0.3,0.1-0.5,0.7-0.5h3.3
		c1.3,0,1.6-0.8,1.6-2.4v-20.7H2032.2z"/>
	<path d="M2054.6,876.3c0-1.4,1.5-2.7,3.2-2.7c1.3,0,2.5,0.6,3.2,0.8c0.5,0.1,1,0,1.4-0.4c1-1.2,4.5-9.1,5.5-11.7
		c-0.3-1.7-7.6-23.2-8.2-24.7c-0.8-1.7-1.4-2.9-3.2-2.9h-1.8c-0.5,0-0.5-0.2-0.5-0.6v-1.4c0-0.3,0.1-0.5,0.5-0.5
		c0.6,0,2.3,0.2,6.3,0.2c3.5,0,5.6-0.2,6.4-0.2c0.5,0,0.6,0.2,0.6,0.5v1.4c0,0.3-0.1,0.5-0.4,0.5h-1.3c-0.8,0-1,0.5-0.9,1.5
		c0.2,1.5,4.9,16.7,5.6,18.2h0.3c0.7-1.1,6.7-15.4,7.1-17.1c0.4-1.7-0.1-2.6-1.2-2.6h-1.1c-0.4,0-0.5-0.2-0.5-0.5v-1.4
		c0-0.3,0.1-0.5,0.4-0.5c0.9,0,2.3,0.2,5.6,0.2c1.9,0,3.4-0.2,4.2-0.2c0.4,0,0.4,0.3,0.4,0.5v1.3c0,0.4,0,0.6-0.3,0.6h-1.1
		c-0.8,0-1.7,0.3-2.4,1.2c-1.5,1.9-6,12.4-10.8,23.1c-3.4,7.6-6,14-7.3,16.3c-1,1.8-2.2,4.5-5.8,4.5
		C2055.9,879.8,2054.6,878.3,2054.6,876.3z"/>
	<path d="M2083,857.2c-3.2-3.8-3.8-6.3-3.8-11.2c0-3.5,1.9-7.9,5.9-11.1c3.6-2.7,6.9-3.3,9.2-3.3c3.8,0,7.6,1.9,9.6,4
		c3.1,3.2,4.7,6.7,4.7,11.2c0,7.5-6.7,15.1-15.2,15.1C2090.2,861.9,2085.9,860.6,2083,857.2z M2102.9,846.1c0-7.6-5.6-12.4-9.1-12.4
		c-1.9,0-3.6,0.4-5.3,2.2c-2.7,2.7-3.6,5.6-3.6,10.8c0,3.8,0.4,6.5,2.6,9.6c1.6,2.3,3.6,3.6,6.8,3.6
		C2099.5,859.9,2102.9,853.5,2102.9,846.1z"/>
	<path d="M2132.8,847.2c0,3.3,0,6.7,0.1,8.1c0.2,2.1,1,2.4,1.8,2.4c0.4,0,1.4,0,2.3-0.2c0.5-0.1,0.8,0,0.8,0.3l0.2,0.9
		c0.1,0.4-0.1,0.5-0.3,0.6l-7.2,2.4c-0.4,0.1-0.8,0.3-1.4,0.3c-0.3,0-0.5-0.1-0.6-0.8l-0.5-4h-0.1c-1.9,2.7-5.9,4.8-9.3,4.8
		c-1.9,0-4.2-0.2-6.5-3.2c-2.8-3.6-2.7-5.9-2.7-13.5v-8c-0.1-1.9-1-2.4-2.6-2.6c-1.2-0.1-1.5-0.1-1.5-0.5v-1.2
		c0-0.4,0.1-0.5,0.8-0.5h6.1c0.4,0,0.7-0.1,1-0.1c0.3,0,0.5-0.1,0.8-0.1c0.5,0,0.8,0.3,0.8,0.8c-0.1,0.6-0.3,3.8-0.3,7.9v4.9
		c0,2.7-0.7,7.1,1.5,10.3c1.7,2.5,3.6,2.6,5.5,2.6s4.6-1.8,5.9-3.4c0.3-0.3,0.7-1.2,0.7-1.9v-16.4c-0.1-1.9-1.2-2.3-3-2.4
		c-1.2,0-1.5-0.1-1.5-0.5V833c0-0.5,0.1-0.6,0.8-0.6h6.4c0.5,0,0.8-0.1,1.2-0.1c0.3,0,0.6-0.1,0.8-0.1c0.4,0,0.7,0.3,0.6,0.7
		c-0.1,0.6-0.4,2.4-0.4,9.1V847.2z"/>
</g>
<g>
	<path d="M1819.2,585.1c0-2.3-0.4-3.6-3.8-4.1c-0.5-0.1-0.6-0.2-0.6-0.5v-0.6c0-0.2,0.1-0.3,0.5-0.5c2.2-0.8,4.8-1.9,7.4-3.4
		c0.5-0.3,0.9-0.4,1.3-0.4c0.3,0,0.4,0.3,0.3,0.8c-0.1,1.2-0.1,5.5-0.1,11.2v7.5c0,2.7,0,5.1,0.1,5.9c0.1,1.3,0.3,1.8,1.1,1.8h3.2
		c0.5,0,0.7,0.2,0.7,0.6v1.2c0,0.5-0.1,0.7-0.6,0.7c-0.5,0-3.7-0.2-6.6-0.2c-4,0-6.7,0.2-7.4,0.2c-0.3,0-0.5-0.1-0.5-0.5v-1.4
		c0-0.4,0.2-0.5,0.7-0.5h3.4c0.8,0,1-0.3,1.1-1.4c0.1-2.1,0.1-4.2,0.1-6.2V585.1z M1816,564c0-1.8,1.5-3.8,4.3-3.8
		c2.5,0,3.7,2.1,3.7,3.6c0,1.9-1.2,4.1-4.1,4.1C1818.3,567.8,1816,566.3,1816,564z"/>
	<path d="M1854.4,601.4c0,1.1,0.6,1.4,1.5,1.4h2.2c0.6,0,0.8,0.2,0.8,0.6v1.1c0,0.5-0.1,0.8-0.5,0.8c-0.5,0-2.6-0.2-6.5-0.2
		c-3.5,0-5.7,0.2-6.2,0.2c-0.4,0-0.5-0.2-0.5-0.8v-1.1c0-0.5,0.2-0.6,0.9-0.6h2c0.8,0,1.3-0.3,1.4-1.6c0.1-1.8,0.1-4,0.1-5.8v-9.1
		c0-2.7,0-4.7-2-6.2c-1.6-1.2-3.3-1.2-5-1.2c-1.1,0-3.5,0.5-5.6,2.7c-1.4,1.5-1.6,3.4-1.6,4.7v14.2c0,1.9,0.2,2.3,1.6,2.3h1.7
		c0.5,0,0.7,0.2,0.7,0.7v1.2c0,0.4-0.1,0.6-0.5,0.6c-0.5,0-2.3-0.2-6-0.2c-3.5,0-5.7,0.2-6.1,0.2c-0.3,0-0.5-0.2-0.5-0.6v-1.2
		c0-0.4,0.1-0.6,0.7-0.6h2c0.9,0,1.4-0.2,1.4-1.4v-16.1c0-2.1-1.1-3.2-2.8-4.1l-0.5-0.3c-0.5-0.2-0.5-0.4-0.5-0.6v-0.3
		c0-0.3,0.3-0.5,0.6-0.7l5.9-3.3c0.5-0.3,1-0.5,1.2-0.5c0.3,0,0.5,0.3,0.5,0.8l0.5,4.2h0.1c2-2.5,6-5,9.4-5c2.1,0,4.2,0.4,5.8,1.5
		c2.1,1.4,3.8,4.8,3.8,6.5V601.4z"/>
	<path d="M1875.5,596.5c0,5.1,2.3,6,3.6,6c1.6,0,3.6-0.3,4.5-0.9c0.3-0.2,0.6-0.1,0.8,0.1l0.3,0.6c0.2,0.3,0.1,0.5-0.1,0.8
		c-0.7,0.7-3.5,2.7-7.6,2.7c-3.4,0-6.7-3.2-6.7-5.8c0-2.8,0.2-8.9,0.2-9.8v-1.5c0-1.2,0.1-5.9,0.1-8.8h-4.2c-0.6,0-1-0.3-1-0.8
		s0.4-0.8,1.2-1.2c1.6-1,6.9-6.2,7.8-8.6c0.2-0.5,0.5-0.7,1-0.7c0.5,0,0.7,0.5,0.7,1l-0.3,6.7h9.5c0.4,0,0.6,0.3,0.5,0.6l-0.7,2.4
		c-0.1,0.3-0.2,0.5-0.6,0.5h-8.9c-0.1,3.2-0.2,6.5-0.2,9.7V596.5z"/>
	<path d="M1885.7,567.6c0-4.2-0.8-4.9-3.3-5.8l-1.2-0.4c-0.4-0.1-0.5-0.2-0.5-0.4v-0.6c0-0.3,0.2-0.3,0.8-0.7l7.1-3.8
		c0.5-0.3,1-0.5,1.6-0.5c0.4,0,0.7,0.5,0.5,1.7c-0.1,1.2-0.2,15.1-0.2,18.5v4.4h0.3c2.4-2.9,6.4-4.5,9.4-4.5c2.9,0,4.9,0.9,6.8,2.7
		c3.1,2.9,3,6.4,3,10.1v3.9c0,3.8,0.1,8.1,0.1,9.4c0,0.8,1.1,1,2.5,1h1.2c0.5,0,0.8,0.1,0.8,0.6v1c0,0.5-0.1,0.8-0.5,0.8
		c-0.5,0-2.7-0.2-6.6-0.2c-3.4,0-5.8,0.2-6.5,0.2c-0.5,0-0.6-0.2-0.6-0.8v-1.2c0-0.3,0.1-0.5,0.5-0.5h1.6c1.2,0,2.5-0.1,2.6-1.3
		c0.1-1,0-4.6,0-6.8v-5.6c0-3.8-0.3-6.6-2.3-8.4c-1.4-1.3-2.8-1.9-4.5-1.9c-2,0-4.5,0.7-6.4,2.9c-0.6,0.8-1.4,2.1-1.4,3.4v15
		c0,2.2,0.2,2.8,1.5,2.8h2.1c0.5,0,0.8,0.1,0.8,0.5v1.2c0,0.5-0.1,0.8-0.5,0.8c-0.5,0-3.4-0.2-6.5-0.2c-3.4,0-6,0.2-6.7,0.2
		c-0.3,0-0.5-0.2-0.5-0.7v-1.2c0-0.5,0.3-0.5,1-0.5h1.4c1.1,0,2.1-0.3,2.3-1.1c0.2-1.3,0.2-8.9,0.2-13.3V567.6z"/>
	<path d="M1917,586.8c-0.1,0.6-0.2,1.7-0.2,3.3c0,6.7,4.3,11.8,9.8,11.8c4.2,0,7.1-2.4,8.3-4.7c0.1-0.3,0.4-0.4,0.6-0.3l0.9,0.5
		c0.2,0.1,0.3,0.3,0,1c-1.2,2.7-4.8,7.5-10.9,7.5c-3.9,0-8.2-1.2-10.8-4.9c-2.4-3.5-3-6-3-10.8c0-2.7,0.7-7.3,4.3-10.9
		c3-3,6.4-3.6,9.8-3.6c7.9,0,10.1,7.4,10.1,10.1c0,1-0.8,1.1-1.9,1.1H1917z M1927.9,584.7c1.3,0,1.9-0.3,1.9-1
		c0-1.6-0.8-6.1-5.3-6.1c-3,0-5.9,2-7.2,7.1H1927.9z"/>
	<path d="M1816.7,643.9c-0.3-0.2-0.3-0.6-0.4-1l-1.2-6.5c-0.1-0.3,0.1-0.5,0.4-0.5l0.9-0.2c0.3-0.1,0.5,0.1,0.6,0.4l1.7,3.4
		c1.4,2.5,2.3,4.3,6,4.3c2.4,0,5.4-1.4,5.4-4.7c0-3.1-1.5-4.9-6.7-6.3c-4.1-1.2-8.1-3.3-8.1-8.7c0-4.7,4.5-8.4,9.6-8.4
		c3.3,0,5.1,0.8,6.3,1.4c1,0.5,1.2,0.8,1.2,1.2l1,4.8c0,0.3-0.1,0.5-0.5,0.6l-0.8,0.3c-0.3,0.1-0.4,0-0.6-0.3l-2.3-3.2
		c-0.8-1.3-2.1-2.7-4.8-2.7c-2.6,0-5.3,1.6-5.3,4.5c0,4,3.2,4.7,6.6,5.7c5,1.4,8.2,3.5,8.2,8.8c-0.1,5.6-4.6,9.1-10.4,9.1
		C1820.2,645.9,1817.5,644.5,1816.7,643.9z"/>
	<path d="M1837.7,626.8c-0.1,0.6-0.2,1.7-0.2,3.3c0,6.7,4.3,11.8,9.8,11.8c4.2,0,7.1-2.4,8.3-4.7c0.1-0.3,0.4-0.4,0.6-0.3l0.9,0.5
		c0.2,0.1,0.3,0.3,0,1c-1.2,2.7-4.8,7.5-10.9,7.5c-3.9,0-8.2-1.2-10.8-4.9c-2.4-3.5-3-6-3-10.8c0-2.7,0.7-7.3,4.3-10.9
		c3-3,6.4-3.6,9.8-3.6c7.9,0,10.1,7.4,10.1,10.1c0,1-0.8,1.1-1.9,1.1H1837.7z M1848.6,624.7c1.3,0,1.9-0.3,1.9-1
		c0-1.6-0.8-6.1-5.3-6.1c-3,0-5.9,2-7.2,7.1H1848.6z"/>
	<path d="M1859.7,628.4c0,3.7,1.6,7.9,3.5,10.4c2.3,3,5.1,3.5,7.5,3.5c3.4,0,5.2-0.8,7.6-3c0.1-0.1,0.3-0.2,0.5,0l0.7,0.7
		c0.3,0.3,0.3,0.5,0,0.9c-2,2.3-6.4,4.9-11.1,4.9c-3.6,0-7.5-0.8-10.6-4.8c-2.5-3.4-3.1-6.2-3.1-9.3c0-8,5.6-16.1,14.7-16.1
		c7.1,0,9.3,4.1,9.3,5.6c-0.1,1.6-1.1,2.4-2.5,2.4c-1.6,0-2.7-0.9-3.8-2.7c-1.5-2.8-3-3-4.6-3
		C1863.9,617.8,1859.7,621.4,1859.7,628.4z"/>
	<path d="M1879.7,641.1c-3.2-3.8-3.8-6.3-3.8-11.2c0-3.5,1.9-7.9,5.9-11.1c3.6-2.7,6.9-3.3,9.2-3.3c3.8,0,7.6,1.9,9.6,4
		c3.1,3.2,4.7,6.7,4.7,11.2c0,7.5-6.7,15.1-15.2,15.1C1886.8,645.9,1882.6,644.6,1879.7,641.1z M1899.5,630.1
		c0-7.6-5.6-12.4-9.1-12.4c-1.9,0-3.6,0.4-5.3,2.2c-2.7,2.7-3.6,5.6-3.6,10.8c0,3.8,0.4,6.5,2.6,9.6c1.6,2.3,3.6,3.6,6.8,3.6
		C1896.2,643.8,1899.5,637.4,1899.5,630.1z"/>
	<path d="M1931.3,641.4c0,1.1,0.6,1.4,1.5,1.4h2.2c0.6,0,0.8,0.2,0.8,0.6v1.1c0,0.5-0.1,0.8-0.5,0.8c-0.5,0-2.6-0.2-6.5-0.2
		c-3.5,0-5.7,0.2-6.2,0.2c-0.4,0-0.5-0.2-0.5-0.8v-1.1c0-0.5,0.2-0.6,0.9-0.6h2c0.8,0,1.3-0.3,1.4-1.6c0.1-1.8,0.1-4,0.1-5.8v-9.1
		c0-2.7,0-4.7-2-6.2c-1.6-1.2-3.3-1.2-5-1.2c-1.1,0-3.5,0.5-5.6,2.7c-1.4,1.5-1.6,3.4-1.6,4.7v14.2c0,1.9,0.2,2.3,1.6,2.3h1.7
		c0.5,0,0.7,0.2,0.7,0.7v1.2c0,0.4-0.1,0.6-0.5,0.6c-0.5,0-2.3-0.2-6-0.2c-3.5,0-5.7,0.2-6.1,0.2c-0.3,0-0.5-0.2-0.5-0.6v-1.2
		c0-0.4,0.1-0.6,0.7-0.6h2c0.9,0,1.4-0.2,1.4-1.4v-16.1c0-2.1-1.1-3.2-2.8-4.1l-0.5-0.3c-0.5-0.2-0.5-0.4-0.5-0.6v-0.3
		c0-0.3,0.3-0.5,0.6-0.7l5.9-3.3c0.5-0.3,1-0.5,1.2-0.5c0.3,0,0.5,0.3,0.5,0.8l0.5,4.2h0.1c2-2.5,6-5,9.4-5c2.1,0,4.2,0.4,5.8,1.5
		c2.1,1.4,3.8,4.8,3.8,6.5V641.4z"/>
	<path d="M1955.1,603.2c0-2.6-0.5-3.4-4.3-4.1c-0.4-0.1-0.5-0.2-0.5-0.5v-1.2c0-0.3,0.1-0.4,0.5-0.5c2.7-0.5,6.2-1.2,7.6-1.4
		c0.6-0.1,1.1-0.2,1.6-0.2c0.3,0,0.4,0.5,0.3,1.2c-0.2,3.4-0.3,13.4-0.3,22.1v15.2c0,2.5,0.1,5.6,0.7,6.2c0.6,0.7,2.1,1.1,3,1.2
		c1,0.1,1.2,0.1,1.4,0.5l0.1,0.5c0.1,0.4-0.1,0.6-0.5,0.8l-7.8,2.6c-0.4,0.1-0.8-0.1-0.9-0.5l-0.9-3c-2.2,2.2-6.6,3.7-10.1,3.7
		c-2.3,0-4.9,0.1-8.1-3.2c-3.5-3.4-4.3-6.5-4.3-11.1c0-4.3,1.6-8.4,4.8-11.7c2.7-2.9,6.4-4.3,10.2-4.3c2.8,0,5.3,0.4,7.3,1V603.2z
		 M1955.1,625c0-1,0-2.3-0.6-3.4c-1-1.9-3.2-3.7-7.2-3.7c-2.1,0-4.5,0.6-6.2,2.5c-2.7,2.9-3.2,6.5-3.2,9.1c0,7.8,5.4,13.4,9.3,13.4
		c3.8,0,6.8-2,7.5-3.8c0.3-1,0.4-1.6,0.4-2.3V625z"/>
	<path d="M1818.9,666.8c0-3.5-0.5-4.2-2.5-5.2l-1.3-0.7c-0.4-0.1-0.5-0.2-0.5-0.5V660c0-0.3,0.1-0.4,0.5-0.6l6.8-3.5
		c0.4-0.2,0.7-0.3,1-0.3c0.4,0,0.5,0.4,0.5,0.8l0.3,4.9h0.3c2.1-3.2,5.3-6,8.2-6c2.3,0,3.5,1.4,3.5,3c0,2-1.6,3.4-2.9,3.4
		c-0.8,0-1.4-0.3-2-0.5c-0.5-0.3-1.4-0.5-2.3-0.5c-1.1,0-2.9,0.7-4.1,2.9c-0.4,0.8-0.7,2-0.7,2.2V680c0,2.1,0.5,2.8,1.9,2.8h3.2
		c0.4,0,0.5,0.2,0.5,0.6v1.2c0,0.4-0.1,0.6-0.3,0.6c-0.4,0-3.6-0.2-7.3-0.2c-4.3,0-7.1,0.2-7.6,0.2c-0.3,0-0.4-0.1-0.4-0.7v-1.2
		c0-0.5,0.1-0.6,0.8-0.6h2.7c1,0,1.5-0.4,1.5-1.3c0.1-2.3,0.1-4.7,0.1-8.2V666.8z"/>
	<path d="M1834.2,681.1c-3.2-3.8-3.8-6.3-3.8-11.2c0-3.5,1.9-7.9,5.9-11.1c3.6-2.7,6.9-3.3,9.2-3.3c3.8,0,7.6,1.9,9.6,4
		c3.1,3.2,4.7,6.7,4.7,11.2c0,7.5-6.7,15.1-15.2,15.1C1841.4,685.9,1837.1,684.6,1834.2,681.1z M1854.1,670.1
		c0-7.6-5.6-12.4-9.1-12.4c-1.9,0-3.6,0.4-5.3,2.2c-2.7,2.7-3.6,5.6-3.6,10.8c0,3.8,0.4,6.5,2.6,9.6c1.6,2.3,3.6,3.6,6.8,3.6
		C1850.7,683.8,1854.1,677.4,1854.1,670.1z"/>
	<path d="M1888.8,677.6h0.3l5.6-15.2c0.9-2.4,0.3-3.8-1-3.8h-1c-0.3,0-0.4-0.2-0.4-0.5v-1.4c0-0.3,0.2-0.5,0.5-0.5
		c0.4,0,2.5,0.2,5.3,0.2c3,0,4.2-0.2,5-0.2c0.3,0,0.5,0.2,0.5,0.5v1.4c0,0.3-0.1,0.5-0.5,0.5h-1.7c-0.8,0-1.8,0.5-2.2,1.2
		c-0.8,1.3-9.5,23.2-10.4,25.4c-0.3,0.8-0.8,0.9-1.3,0.9c-0.5,0-1-0.5-1.2-1.3l-6.7-19.6h-0.3l-8.4,19.8c-0.3,0.8-0.9,1.1-1.4,1.1
		s-0.9-0.5-1.2-1.4l-9-24.2c-0.5-1.3-1.2-1.9-2.9-1.9h-1.5c-0.4,0-0.5-0.2-0.5-0.6v-1.3c0-0.3,0.1-0.5,0.4-0.5c1,0,2.3,0.2,6.2,0.2
		c3.1,0,4.7-0.2,5.8-0.2c0.4,0,0.5,0.1,0.5,0.5v1.4c0,0.3-0.1,0.5-0.5,0.5h-0.6c-0.8,0-1.2,0.6-0.8,1.9l5.4,18.3h0.3l7-16.8
		c-0.1-1.1-0.2-1.6-0.6-2.2c-0.3-0.5-0.9-0.7-1.9-0.7h-1c-0.3,0-0.5-0.1-0.5-0.5v-1.4c0-0.4,0.2-0.5,0.6-0.5c0.5,0,2.7,0.2,6.2,0.2
		c3.2,0,4.7-0.2,5.2-0.2c0.5,0,0.6,0.1,0.6,0.5v1.4c0,0.3-0.1,0.5-0.5,0.5h-1.4c-0.7,0-1.2,0.8-1,1.8L1888.8,677.6z"/>
	<path d="M1814.8,699.7c-0.3,0-0.5-0.1-0.3-0.8l0.3-2.1c0.1-0.4,0.3-0.5,0.8-0.5h4v-1.2c0-6.8,1.9-11.3,4.6-14.3
		c3.6-4,7.4-5.4,11.3-5.4c3.2,0,6.2,1.2,6.2,3.8c0,1.6-1.8,3-2.9,3c-0.7,0-1.4-0.1-1.9-0.4c-0.6-0.3-1.4-1.2-1.6-1.6
		c-0.9-1.1-1.9-1.6-3.2-1.6c-1.8,0-3.6,0.5-5.1,2.4c-2.5,3.2-2.4,9.2-2.4,14v1.3h8.3c0.5,0,0.5,0.4,0.5,0.7l-0.3,2.3
		c-0.1,0.3-0.3,0.3-0.9,0.3h-7.6v6.2c0,8.1,0,14.4,0.1,15.2c0.1,1.2,0.3,1.8,1.8,1.8h3.9c0.6,0,0.8,0.1,0.8,0.5v1.1
		c0,0.5-0.1,0.8-0.5,0.8c-0.4,0-3-0.2-8.2-0.2c-3.8,0-7.3,0.2-7.8,0.2c-0.4,0-0.5-0.1-0.5-0.5v-1.5c0-0.3,0.1-0.5,0.7-0.5h3.3
		c1.3,0,1.6-0.8,1.6-2.4v-20.7H1814.8z"/>
	<path d="M1833.3,706.8c0-3.5-0.5-4.2-2.5-5.2l-1.3-0.7c-0.4-0.1-0.5-0.2-0.5-0.5V700c0-0.3,0.1-0.4,0.5-0.6l6.8-3.5
		c0.4-0.2,0.7-0.3,1-0.3c0.4,0,0.5,0.4,0.5,0.8l0.3,4.9h0.3c2.1-3.2,5.3-6,8.2-6c2.3,0,3.5,1.4,3.5,3c0,2-1.6,3.4-2.9,3.4
		c-0.8,0-1.4-0.3-2-0.5c-0.5-0.3-1.4-0.5-2.3-0.5c-1.1,0-2.9,0.7-4.1,2.9c-0.4,0.8-0.7,2-0.7,2.2V720c0,2.1,0.5,2.8,1.9,2.8h3.2
		c0.4,0,0.5,0.2,0.5,0.6v1.2c0,0.4-0.1,0.6-0.3,0.6c-0.4,0-3.6-0.2-7.3-0.2c-4.3,0-7.1,0.2-7.6,0.2c-0.3,0-0.4-0.1-0.4-0.7v-1.2
		c0-0.5,0.1-0.6,0.8-0.6h2.7c1,0,1.5-0.4,1.5-1.3c0.1-2.3,0.1-4.7,0.1-8.2V706.8z"/>
	<path d="M1848.7,721.1c-3.2-3.8-3.8-6.3-3.8-11.2c0-3.5,1.9-7.9,5.9-11.1c3.6-2.7,6.9-3.3,9.2-3.3c3.8,0,7.6,1.9,9.6,4
		c3.1,3.2,4.7,6.7,4.7,11.2c0,7.5-6.7,15.1-15.2,15.1C1855.8,725.9,1851.5,724.6,1848.7,721.1z M1868.5,710.1
		c0-7.6-5.6-12.4-9.1-12.4c-1.9,0-3.6,0.4-5.3,2.2c-2.7,2.7-3.6,5.6-3.6,10.8c0,3.8,0.4,6.5,2.6,9.6c1.6,2.3,3.6,3.6,6.8,3.6
		C1865.1,723.8,1868.5,717.4,1868.5,710.1z"/>
	<path d="M1895.1,707.5c0-5.1-1-6.4-2.1-7.4c-0.9-0.8-2.9-1.2-4.4-1.2c-1.8,0-4.7,0.9-6.6,4c-0.8,1.4-1,2.7-1,4.6V721
		c0,1.1,0.4,1.8,1.4,1.8h2.5c0.6,0,0.7,0.1,0.7,0.6v1.1c0,0.5-0.1,0.8-0.5,0.8c-0.6,0-2.5-0.2-6.2-0.2c-3.6,0-5.8,0.2-6.4,0.2
		c-0.4,0-0.5-0.1-0.5-0.6v-1.2c0-0.5,0.1-0.6,0.8-0.6h2.3c0.6,0,1-0.4,1-1.7c0.1-1.2,0.1-2.4,0.1-3.6v-12.2c0-1.4-0.3-2.6-1.9-3.5
		l-1.4-0.8c-0.3-0.2-0.5-0.3-0.5-0.5v-0.5c0-0.2,0.3-0.5,0.4-0.5l6-3.1c0.5-0.3,1-0.4,1.3-0.4c0.4,0,0.6,0.5,0.6,1l0.3,4h0.2
		c2.1-2.8,6.1-5.2,10.1-5.2c3.6,0,6.3,2.1,7.8,5.3h0.3c2.1-2.7,6-5.3,10.1-5.3c2.4,0,4.5,0.4,6.2,2.1c1.6,1.6,3.3,3.2,3.3,8.4v15.3
		c0,1,0.6,1.4,1.4,1.4h1.9c0.6,0,0.8,0.1,0.8,0.6v1.2c0,0.5-0.1,0.7-0.5,0.7c-0.5,0-2.4-0.2-5.7-0.2c-3.4,0-5.9,0.2-6.4,0.2
		c-0.4,0-0.5-0.2-0.5-0.7v-1.2c0-0.5,0.1-0.6,0.9-0.6h1.7c0.8,0,1.3-0.3,1.4-1.3c0.1-1.6,0.1-4.1,0.1-5.6v-10.2c0-2.3-0.4-4.3-2-5.5
		c-1.2-1-3-1.4-5.1-1.4c-2.1,0-4.9,1.6-6,3.6c-1,2-1,3.8-1,6.9v11.9c0,0.9,0.3,1.6,1.4,1.6h2.3c0.6,0,0.8,0.1,0.8,0.6v1.1
		c0,0.5-0.1,0.8-0.5,0.8c-0.5,0-2.3-0.2-6.1-0.2c-3.7,0-6,0.2-6.5,0.2c-0.3,0-0.5-0.2-0.5-0.7v-1.1c0-0.5,0.1-0.7,0.7-0.7h2
		c1.1,0,1.5-0.3,1.5-1.2V707.5z"/>
	<path d="M1823.8,756.5c0,5.1,2.3,6,3.6,6c1.6,0,3.6-0.3,4.5-0.9c0.3-0.2,0.6-0.1,0.8,0.1l0.3,0.6c0.2,0.3,0.1,0.5-0.1,0.8
		c-0.7,0.7-3.5,2.7-7.6,2.7c-3.4,0-6.7-3.2-6.7-5.8c0-2.8,0.2-8.9,0.2-9.8v-1.5c0-1.2,0.1-5.9,0.1-8.8h-4.2c-0.6,0-1-0.3-1-0.8
		s0.4-0.8,1.2-1.2c1.6-1,6.9-6.2,7.8-8.6c0.2-0.5,0.5-0.7,1-0.7c0.5,0,0.7,0.5,0.7,1l-0.3,6.7h9.5c0.4,0,0.6,0.3,0.5,0.6l-0.7,2.4
		c-0.1,0.3-0.2,0.5-0.6,0.5h-8.9c-0.1,3.2-0.2,6.5-0.2,9.7V756.5z"/>
	<path d="M1834,727.6c0-4.2-0.8-4.9-3.3-5.8l-1.2-0.4c-0.4-0.1-0.5-0.2-0.5-0.4v-0.6c0-0.3,0.2-0.3,0.8-0.7l7.1-3.8
		c0.5-0.3,1-0.5,1.6-0.5c0.4,0,0.7,0.5,0.5,1.7c-0.1,1.2-0.2,15.1-0.2,18.5v4.4h0.3c2.4-2.9,6.4-4.5,9.4-4.5c2.9,0,4.9,0.9,6.8,2.7
		c3.1,2.9,3,6.4,3,10.1v3.9c0,3.8,0.1,8.1,0.1,9.4c0,0.8,1.1,1,2.5,1h1.2c0.5,0,0.8,0.1,0.8,0.6v1c0,0.5-0.1,0.8-0.5,0.8
		c-0.5,0-2.7-0.2-6.6-0.2c-3.4,0-5.8,0.2-6.5,0.2c-0.5,0-0.6-0.2-0.6-0.8v-1.2c0-0.3,0.1-0.5,0.5-0.5h1.6c1.2,0,2.5-0.1,2.6-1.3
		c0.1-1,0-4.6,0-6.8v-5.6c0-3.8-0.3-6.6-2.3-8.4c-1.4-1.3-2.8-1.9-4.5-1.9c-2,0-4.5,0.7-6.4,2.9c-0.6,0.8-1.4,2.1-1.4,3.4v15
		c0,2.2,0.2,2.8,1.5,2.8h2.1c0.5,0,0.8,0.1,0.8,0.5v1.2c0,0.5-0.1,0.8-0.5,0.8c-0.5,0-3.4-0.2-6.5-0.2c-3.4,0-6,0.2-6.7,0.2
		c-0.3,0-0.5-0.2-0.5-0.7v-1.2c0-0.5,0.3-0.5,1-0.5h1.4c1.1,0,2.1-0.3,2.3-1.1c0.2-1.3,0.2-8.9,0.2-13.3V727.6z"/>
	<path d="M1865.3,746.8c-0.1,0.6-0.2,1.7-0.2,3.3c0,6.7,4.3,11.8,9.8,11.8c4.2,0,7.1-2.4,8.3-4.7c0.1-0.3,0.4-0.4,0.6-0.3l0.9,0.5
		c0.2,0.1,0.3,0.3,0,1c-1.2,2.7-4.8,7.5-10.9,7.5c-3.9,0-8.2-1.2-10.8-4.9c-2.4-3.5-3-6-3-10.8c0-2.7,0.7-7.3,4.3-10.9
		c3-3,6.4-3.6,9.8-3.6c7.9,0,10.1,7.4,10.1,10.1c0,1-0.8,1.1-1.9,1.1H1865.3z M1876.2,744.7c1.3,0,1.9-0.3,1.9-1
		c0-1.6-0.8-6.1-5.3-6.1c-3,0-5.9,2-7.2,7.1H1876.2z"/>
	<path d="M1817.1,768.1c0-4.6-0.8-5.6-3.2-6.4l-0.7-0.2c-0.8-0.2-0.9-0.3-0.9-0.5v-0.5c0-0.2,0.1-0.3,0.5-0.5c2-0.9,5.6-2.7,7.3-3.8
		c0.5-0.3,1-0.6,1.4-0.6c0.5,0,0.6,0.3,0.5,1.2c-0.1,0.5-0.1,8.4-0.1,14.5v8c2.2-2.1,6.1-3.4,9.5-3.4c6,0,12.6,4.9,12.6,14.7
		c0,8-6.5,15.6-14.3,15.6c-3.8,0-6.5-0.8-8.1-1.8l-2.7,1.5c-0.3,0.2-0.5,0.3-0.9,0.2l-0.8-0.2c-0.3-0.1-0.3-0.2-0.3-0.5
		c0.1-1,0.1-6.7,0.1-11.7V768.1z M1822.1,790.3c0,5.7,0.2,7.8,1,10c0.7,1.6,3.6,3.4,6.5,3.4c4.1,0,9.2-2.8,9.2-11.8
		c0-6.7-3.5-13-10.2-13c-2.5,0-5,0.9-6.5,2.5V790.3z"/>
	<path d="M1865.1,802c1.1,0,2.1-0.5,2.4-1c0.3-0.3,0.4-0.5,0.7-0.3l0.7,0.5c0.2,0.2,0.3,0.5-0.1,1.2c-0.5,1-1.9,3.4-5.4,3.4
		c-2.5,0-4.3-1.8-4.9-4.6h-0.1c-1.4,1.7-3.7,3.2-6.8,4.2c-1.3,0.4-2.5,0.4-4.1,0.4c-1.6,0-4.1-1.4-4.1-5.7c0-3.2,1.4-5.9,6.9-8.3
		c3.1-1.4,6.7-3,7.8-4v-4.4c-0.1-1.2-0.2-3-1-3.8c-0.8-0.9-2.1-1.5-4.1-1.5c-1.4,0-3.5,0.5-4.5,1.4c-1,0.9-0.3,1.9-0.3,3.2
		c0,2.4-0.8,3.9-3.6,3.9c-1.1,0-1.6-0.6-1.6-2.2c0-2.2,1.9-4.8,4.7-6.5c2.9-1.7,5.3-2.4,8.4-2.4c3.2,0,4.5,1,5.5,1.9
		c1.4,1.4,1.5,3,1.5,4.9v14.6C1863,800.8,1863.8,802,1865.1,802z M1858,790c-2.5,1.9-9.2,3.2-9.2,8.9c0,2.5,1.5,3.8,3.6,3.8
		c2,0,5.6-2.4,5.6-4.3V790z"/>
	<path d="M1869.6,788.4c0,3.7,1.6,7.9,3.5,10.4c2.3,3,5.1,3.5,7.5,3.5c3.4,0,5.2-0.8,7.6-3c0.1-0.1,0.3-0.2,0.5,0l0.7,0.7
		c0.3,0.3,0.3,0.5,0,0.9c-2,2.3-6.4,4.9-11.1,4.9c-3.6,0-7.5-0.8-10.6-4.8c-2.5-3.4-3.1-6.2-3.1-9.3c0-8,5.6-16.1,14.7-16.1
		c7.1,0,9.3,4.1,9.3,5.6c-0.1,1.6-1.1,2.4-2.5,2.4c-1.6,0-2.7-0.9-3.8-2.7c-1.5-2.8-3-3-4.6-3
		C1873.8,777.8,1869.6,781.4,1869.6,788.4z"/>
	<path d="M1890.6,765.6c0-2.8-0.2-4-3.6-4.9c-0.8-0.2-1-0.3-1-0.5v-0.6c0-0.3,0.2-0.4,0.9-0.7l7-3c0.6-0.3,1.1-0.5,1.5-0.5
		s0.5,0.3,0.4,1.2c-0.3,3.3-0.3,13.4-0.3,21.6v10.8c0.9,0,2.6-0.2,3.3-0.8c1.3-0.9,6.7-6.9,7.3-7.7c0.4-0.8,0.4-1.3,0-1.6
		c-0.5-0.4-1.4-0.4-1.8-0.4c-0.5,0-0.5-0.2-0.5-0.6v-1.3c0-0.3,0.1-0.5,0.5-0.5c0.4,0,2.9,0.2,6.4,0.2c3.4,0,5.1-0.2,5.6-0.2
		c0.3,0,0.4,0.2,0.4,0.7v1.2c0,0.4-0.1,0.5-0.5,0.5h-0.5c-1.4,0-3.4,0.7-4.7,1.6c-1,0.5-6.7,5.9-9.1,8.2
		c1.4,1.4,12.9,12.9,14.1,13.5c1.2,0.6,2.8,1,3.6,1c0.4,0,0.5,0.1,0.5,0.6v1.2c0,0.4-0.1,0.6-0.6,0.6c-0.5,0-2.5-0.2-5.7-0.2
		c-4.1,0-6.9,0.2-7.5,0.2c-0.3,0-0.5-0.2-0.5-0.7v-1.1c0-0.3,0.1-0.5,0.7-0.5h0.5c0.5,0,1-0.5,0.8-1.1c-0.2-0.5-8-8.9-9.1-9.9
		c-0.8-0.6-2.1-0.8-3-0.8v3c0,2.4,0,4.7,0.1,7.1c0.1,1,0.4,1.4,1.4,1.4h2c0.5,0,0.6,0.1,0.6,0.5v1.2c0,0.5-0.1,0.8-0.5,0.8
		c-0.4,0-2.7-0.2-6.1-0.2c-3.7,0-6.1,0.2-6.6,0.2c-0.2,0-0.3-0.3-0.3-0.7v-1.2c0-0.5,0.2-0.6,0.7-0.6h2.5c0.9,0,1.2-0.8,1.2-1.6
		c0.1-3,0.1-6.7,0.1-12.8V765.6z"/>
</g>
</svg>
