<?xml version="1.0" encoding="utf-8"?>
<!-- Generator: Adobe Illustrator 19.2.1, SVG Export Plug-In . SVG Version: 6.00 Build 0)  -->
<svg version="1.1" id="Layer_1" xmlns="http://www.w3.org/2000/svg" xmlns:xlink="http://www.w3.org/1999/xlink" x="0px" y="0px"
	 viewBox="0 0 2560 1600" style="enable-background:new 0 0 2560 1600;" xml:space="preserve">
<g>
	<path d="M962.8,655.3c0-1.4,1.5-2.7,3.2-2.7c1.3,0,2.5,0.6,3.2,0.8c0.5,0.1,1,0,1.4-0.4c1-1.2,4.5-9.1,5.5-11.7
		c-0.3-1.7-7.6-23.2-8.2-24.7c-0.8-1.7-1.4-2.9-3.2-2.9h-1.8c-0.5,0-0.5-0.2-0.5-0.6v-1.4c0-0.3,0.1-0.5,0.5-0.5
		c0.6,0,2.3,0.2,6.3,0.2c3.5,0,5.6-0.2,6.4-0.2c0.5,0,0.6,0.2,0.6,0.5v1.4c0,0.3-0.1,0.5-0.4,0.5h-1.3c-0.8,0-1,0.5-0.9,1.5
		c0.2,1.5,4.9,16.7,5.6,18.2h0.3c0.7-1.1,6.7-15.4,7.1-17.1c0.4-1.7-0.1-2.6-1.2-2.6h-1.1c-0.4,0-0.5-0.2-0.5-0.5v-1.4
		c0-0.3,0.1-0.5,0.4-0.5c0.9,0,2.3,0.2,5.6,0.2c1.9,0,3.4-0.2,4.2-0.2c0.4,0,0.4,0.3,0.4,0.5v1.3c0,0.4,0,0.6-0.3,0.6H993
		c-0.8,0-1.7,0.3-2.4,1.2c-1.5,1.9-6,12.4-10.8,23.1c-3.4,7.6-6,14-7.3,16.3c-1,1.8-2.2,4.5-5.8,4.5
		C964.1,658.8,962.8,657.4,962.8,655.3z"/>
	<path d="M998.2,636.2c-3.2-3.8-3.8-6.3-3.8-11.2c0-3.5,1.9-7.9,5.9-11.1c3.6-2.7,6.9-3.3,9.2-3.3c3.8,0,7.6,1.9,9.6,4
		c3.1,3.2,4.7,6.7,4.7,11.2c0,7.5-6.7,15.1-15.2,15.1C1005.3,641,1001,639.7,998.2,636.2z M1018,625.2c0-7.6-5.6-12.4-9.1-12.4
		c-1.9,0-3.6,0.4-5.3,2.2c-2.7,2.7-3.6,5.6-3.6,10.8c0,3.8,0.4,6.5,2.6,9.6c1.6,2.3,3.6,3.6,6.8,3.6
		C1014.6,638.9,1018,632.5,1018,625.2z"/>
	<path d="M1054.8,626.2c0,3.3,0,6.7,0.1,8.1c0.2,2.1,1,2.4,1.8,2.4c0.4,0,1.4,0,2.3-0.2c0.5-0.1,0.8,0,0.8,0.3l0.2,0.9
		c0.1,0.4-0.1,0.5-0.3,0.6l-7.2,2.4c-0.4,0.1-0.8,0.3-1.4,0.3c-0.3,0-0.5-0.1-0.6-0.8l-0.5-4h-0.1c-1.9,2.7-5.9,4.8-9.3,4.8
		c-1.9,0-4.2-0.2-6.5-3.2c-2.8-3.6-2.7-5.9-2.7-13.5v-8c-0.1-1.9-1-2.4-2.6-2.6c-1.2-0.1-1.5-0.1-1.5-0.5V612c0-0.4,0.1-0.5,0.8-0.5
		h6.1c0.4,0,0.7-0.1,1-0.1c0.3,0,0.5-0.1,0.8-0.1c0.5,0,0.8,0.3,0.8,0.8c-0.1,0.6-0.3,3.8-0.3,7.9v4.9c0,2.7-0.7,7.1,1.5,10.3
		c1.7,2.5,3.6,2.6,5.5,2.6c1.9,0,4.6-1.8,5.9-3.4c0.3-0.3,0.7-1.2,0.7-1.9v-16.4c-0.1-1.9-1.2-2.3-3-2.4c-1.2,0-1.5-0.1-1.5-0.5
		v-1.2c0-0.5,0.1-0.6,0.8-0.6h6.4c0.5,0,0.8-0.1,1.2-0.1c0.3,0,0.6-0.1,0.8-0.1c0.4,0,0.7,0.3,0.6,0.7c-0.1,0.6-0.4,2.4-0.4,9.1
		V626.2z"/>
	<path d="M952.8,702.1c0,3.6,0,13.9,0.1,16.1c0.1,1.2,0.3,2.1,1.8,2.1h3.1c0.6,0,0.8,0.2,0.8,0.6v1.2c0,0.4-0.1,0.7-0.4,0.7
		c-0.5,0-3.5-0.2-7.8-0.2c-4.4,0-7.1,0.2-7.8,0.2c-0.3,0-0.5-0.3-0.5-0.7v-1.2c0-0.5,0.1-0.6,0.9-0.6h3.3c0.8,0,1.4-0.5,1.5-1.7
		c0.1-2.1,0.1-13.9,0.1-17.9v-4.3c0-4.9-0.1-11.1-0.2-12.9c-0.1-2.3-1.2-3.4-3.4-4.1l-1.4-0.5c-0.3-0.1-0.4-0.2-0.4-0.3v-0.5
		c0-0.2,0.2-0.3,0.6-0.5c2.4-1.1,5.5-2.3,8-4c0.6-0.4,1-0.5,1.4-0.5c0.5,0,0.6,0.3,0.5,1.2c-0.1,3.8-0.3,18.1-0.3,21.8V702.1z"/>
	<path d="M965,718.6c-3.2-3.8-3.8-6.3-3.8-11.2c0-3.5,1.9-7.9,5.9-11.1c3.6-2.7,6.9-3.3,9.2-3.3c3.8,0,7.6,1.9,9.6,4
		c3.1,3.2,4.7,6.7,4.7,11.2c0,7.5-6.7,15.1-15.2,15.1C972.1,723.4,967.9,722.1,965,718.6z M984.8,707.6c0-7.6-5.6-12.4-9.1-12.4
		c-1.9,0-3.6,0.4-5.3,2.2c-2.7,2.7-3.6,5.6-3.6,10.8c0,3.8,0.4,6.5,2.6,9.6c1.6,2.3,3.6,3.6,6.8,3.6
		C981.5,721.3,984.8,714.9,984.8,707.6z"/>
	<path d="M999.2,718.6c-3.2-3.8-3.8-6.3-3.8-11.2c0-3.5,1.9-7.9,5.9-11.1c3.6-2.7,6.9-3.3,9.2-3.3c3.8,0,7.6,1.9,9.6,4
		c3.1,3.2,4.7,6.7,4.7,11.2c0,7.5-6.7,15.1-15.2,15.1C1006.3,723.4,1002.1,722.1,999.2,718.6z M1019,707.6c0-7.6-5.6-12.4-9.1-12.4
		c-1.9,0-3.6,0.4-5.3,2.2c-2.7,2.7-3.6,5.6-3.6,10.8c0,3.8,0.4,6.5,2.6,9.6c1.6,2.3,3.6,3.6,6.8,3.6
		C1015.7,721.3,1019,714.9,1019,707.6z"/>
	<path d="M1033.4,683.1c0-2.8-0.2-4-3.6-4.9c-0.8-0.2-1-0.3-1-0.5v-0.6c0-0.3,0.2-0.4,0.9-0.7l7-3c0.6-0.3,1.1-0.5,1.5-0.5
		s0.5,0.3,0.4,1.2c-0.3,3.3-0.3,13.4-0.3,21.6v10.8c0.9,0,2.6-0.2,3.3-0.8c1.3-0.9,6.7-6.9,7.3-7.7c0.4-0.8,0.4-1.3,0-1.6
		c-0.5-0.4-1.4-0.4-1.8-0.4c-0.5,0-0.5-0.2-0.5-0.6v-1.3c0-0.3,0.1-0.5,0.5-0.5c0.4,0,2.9,0.2,6.4,0.2c3.4,0,5.1-0.2,5.6-0.2
		c0.3,0,0.4,0.2,0.4,0.7v1.2c0,0.4-0.1,0.5-0.5,0.5h-0.5c-1.4,0-3.4,0.7-4.7,1.6c-1,0.5-6.7,5.9-9.1,8.2
		c1.4,1.4,12.9,12.9,14.1,13.5c1.2,0.6,2.8,1,3.6,1c0.4,0,0.5,0.1,0.5,0.6v1.2c0,0.4-0.1,0.6-0.6,0.6c-0.5,0-2.5-0.2-5.7-0.2
		c-4.1,0-6.9,0.2-7.5,0.2c-0.3,0-0.5-0.2-0.5-0.7V721c0-0.3,0.1-0.5,0.7-0.5h0.5c0.5,0,1-0.5,0.8-1.1c-0.2-0.5-8-8.9-9.1-9.9
		c-0.8-0.6-2.1-0.8-3-0.8v3c0,2.4,0,4.7,0.1,7.1c0.1,1,0.4,1.4,1.4,1.4h2c0.5,0,0.6,0.1,0.6,0.5v1.2c0,0.5-0.1,0.8-0.5,0.8
		s-2.7-0.2-6.1-0.2c-3.7,0-6.1,0.2-6.6,0.2c-0.2,0-0.3-0.3-0.3-0.7v-1.2c0-0.5,0.2-0.6,0.7-0.6h2.5c0.9,0,1.2-0.8,1.2-1.6
		c0.1-3,0.1-6.7,0.1-12.8V683.1z"/>
	<path d="M969.6,786.3c0-3-0.5-3.7-3.4-4.8l-0.7-0.3c-0.3-0.1-0.4-0.3-0.4-0.5v-0.6c0-0.2,0.2-0.3,0.5-0.5c2.2-0.7,5-2.1,7.4-3.6
		c0.5-0.4,0.9-0.5,1.3-0.5c0.3,0,0.5,0.5,0.4,1.2c-0.1,0.6-0.3,5.4-0.3,11.7v8.6c0,4.1-0.2,11.4-1,15.2c-1.5,7.8-6.5,11.5-11.7,11.5
		c-2.1,0-4-1.2-4-3.2c0-1.1,1-2.9,2.5-2.9c1.5,0,2.7,0.8,3.9,2.1c0.7,0.8,1.2,1,1.6,1c1.7,0,3.1-1.9,3.4-6c0.3-4,0.3-9.8,0.3-14.7
		V786.3z M966.7,763.9c0-1.8,1.5-3.8,4.3-3.8c2.5,0,3.7,2.1,3.7,3.6c0,1.9-1.2,4.1-4.1,4.1C969,767.7,966.7,766.2,966.7,763.9z"/>
	<path d="M1008.5,791c0,3.3,0,6.7,0.1,8.1c0.2,2.1,1,2.4,1.8,2.4c0.4,0,1.4,0,2.3-0.2c0.5-0.1,0.8,0,0.8,0.3l0.2,0.9
		c0.1,0.4-0.1,0.5-0.3,0.6l-7.2,2.4c-0.4,0.1-0.8,0.3-1.4,0.3c-0.3,0-0.5-0.1-0.6-0.8l-0.5-4h-0.1c-1.9,2.7-5.9,4.8-9.3,4.8
		c-1.9,0-4.2-0.2-6.5-3.2c-2.8-3.6-2.7-5.9-2.7-13.5v-8c-0.1-1.9-1-2.4-2.6-2.6c-1.2-0.1-1.5-0.1-1.5-0.5v-1.2
		c0-0.4,0.1-0.5,0.8-0.5h6.1c0.4,0,0.7-0.1,1-0.1c0.3,0,0.5-0.1,0.8-0.1c0.5,0,0.8,0.3,0.8,0.8c-0.1,0.6-0.3,3.8-0.3,7.9v4.9
		c0,2.7-0.7,7.1,1.5,10.3c1.7,2.5,3.6,2.6,5.5,2.6c1.9,0,4.6-1.8,5.9-3.4c0.3-0.3,0.7-1.2,0.7-1.9v-16.4c-0.1-1.9-1.2-2.3-3-2.4
		c-1.2,0-1.5-0.1-1.5-0.5v-1.2c0-0.5,0.1-0.6,0.8-0.6h6.4c0.5,0,0.8-0.1,1.2-0.1c0.3,0,0.6-0.1,0.8-0.1c0.4,0,0.7,0.3,0.6,0.7
		c-0.1,0.6-0.4,2.4-0.4,9.1V791z"/>
	<path d="M1019,803.8c-0.3-0.2-0.3-0.6-0.4-1l-1.2-6.5c-0.1-0.3,0.1-0.5,0.4-0.5l0.9-0.2c0.3-0.1,0.5,0.1,0.6,0.4l1.7,3.4
		c1.4,2.5,2.3,4.3,6,4.3c2.4,0,5.4-1.4,5.4-4.7c0-3.1-1.5-4.9-6.7-6.3c-4.1-1.2-8.1-3.3-8.1-8.7c0-4.7,4.5-8.4,9.6-8.4
		c3.3,0,5.1,0.8,6.3,1.4c1,0.5,1.2,0.8,1.2,1.2l1,4.8c0,0.3-0.1,0.5-0.5,0.6l-0.8,0.3c-0.3,0.1-0.4,0-0.6-0.3l-2.3-3.2
		c-0.8-1.3-2.1-2.7-4.8-2.7c-2.6,0-5.3,1.6-5.3,4.5c0,4,3.2,4.7,6.6,5.7c5,1.4,8.2,3.5,8.2,8.8c-0.1,5.6-4.6,9.1-10.4,9.1
		C1022.6,805.8,1019.9,804.4,1019,803.8z"/>
	<path d="M1050.6,796.4c0,5.1,2.3,6,3.6,6c1.6,0,3.6-0.3,4.5-0.9c0.3-0.2,0.6-0.1,0.8,0.1l0.3,0.6c0.2,0.3,0.1,0.5-0.1,0.8
		c-0.7,0.7-3.5,2.7-7.6,2.7c-3.4,0-6.7-3.2-6.7-5.8c0-2.8,0.2-8.9,0.2-9.8v-1.5c0-1.2,0.1-5.9,0.1-8.8h-4.2c-0.6,0-1-0.3-1-0.8
		s0.4-0.8,1.2-1.2c1.6-1,6.9-6.2,7.8-8.6c0.2-0.5,0.5-0.7,1-0.7c0.5,0,0.7,0.5,0.7,1l-0.3,6.7h9.5c0.4,0,0.6,0.3,0.5,0.6l-0.7,2.4
		c-0.1,0.3-0.2,0.5-0.6,0.5h-8.9c-0.1,3.2-0.2,6.5-0.2,9.7V796.4z"/>
	<path d="M973.2,866.9c0,3.6,0,13.9,0.1,16.1c0.1,1.2,0.3,2.1,1.8,2.1h3.1c0.6,0,0.8,0.2,0.8,0.6v1.2c0,0.4-0.1,0.7-0.4,0.7
		c-0.5,0-3.5-0.2-7.8-0.2c-4.4,0-7.1,0.2-7.8,0.2c-0.3,0-0.5-0.3-0.5-0.7v-1.2c0-0.5,0.1-0.6,0.9-0.6h3.3c0.8,0,1.4-0.5,1.5-1.7
		c0.1-2.1,0.1-13.9,0.1-17.9v-4.3c0-4.9-0.1-11.1-0.2-12.9c-0.1-2.3-1.2-3.4-3.4-4.1l-1.4-0.5c-0.3-0.1-0.4-0.2-0.4-0.3v-0.5
		c0-0.2,0.2-0.3,0.6-0.5c2.4-1.1,5.5-2.3,8-4c0.6-0.4,1-0.5,1.4-0.5c0.5,0,0.6,0.3,0.5,1.2c-0.1,3.8-0.3,18.1-0.3,21.8V866.9z"/>
	<path d="M986.3,867.4c0-2.3-0.4-3.6-3.8-4.1c-0.5-0.1-0.6-0.2-0.6-0.5v-0.6c0-0.2,0.1-0.3,0.5-0.5c2.2-0.8,4.8-1.9,7.4-3.4
		c0.5-0.3,0.9-0.4,1.3-0.4c0.3,0,0.4,0.3,0.3,0.8c-0.1,1.2-0.1,5.5-0.1,11.2v7.5c0,2.7,0,5.1,0.1,5.9c0.1,1.3,0.3,1.8,1.1,1.8h3.2
		c0.5,0,0.7,0.2,0.7,0.6v1.2c0,0.5-0.1,0.7-0.6,0.7c-0.5,0-3.7-0.2-6.6-0.2c-4,0-6.7,0.2-7.4,0.2c-0.3,0-0.5-0.1-0.5-0.5v-1.4
		c0-0.4,0.2-0.5,0.7-0.5h3.4c0.8,0,1-0.3,1.1-1.4c0.1-2.1,0.1-4.2,0.1-6.2V867.4z M983,846.3c0-1.8,1.5-3.8,4.3-3.8
		c2.5,0,3.7,2.1,3.7,3.6c0,1.9-1.2,4.1-4.1,4.1C985.4,850.1,983,848.6,983,846.3z"/>
	<path d="M1004.1,847.9c0-2.8-0.2-4-3.6-4.9c-0.8-0.2-1-0.3-1-0.5V842c0-0.3,0.2-0.4,0.9-0.7l7-3c0.6-0.3,1.1-0.5,1.5-0.5
		s0.5,0.3,0.4,1.2c-0.3,3.3-0.3,13.4-0.3,21.6v10.8c0.9,0,2.6-0.2,3.3-0.8c1.3-0.9,6.7-6.9,7.3-7.7c0.4-0.8,0.4-1.3,0-1.6
		c-0.5-0.4-1.4-0.4-1.8-0.4c-0.5,0-0.5-0.2-0.5-0.6V859c0-0.3,0.1-0.5,0.5-0.5c0.4,0,2.9,0.2,6.4,0.2c3.4,0,5.1-0.2,5.6-0.2
		c0.3,0,0.4,0.2,0.4,0.7v1.2c0,0.4-0.1,0.5-0.5,0.5h-0.5c-1.4,0-3.4,0.7-4.7,1.6c-1,0.5-6.7,5.9-9.1,8.2
		c1.4,1.4,12.9,12.9,14.1,13.5c1.2,0.6,2.8,1,3.6,1c0.4,0,0.5,0.1,0.5,0.6v1.2c0,0.4-0.1,0.6-0.6,0.6c-0.5,0-2.5-0.2-5.7-0.2
		c-4.1,0-6.9,0.2-7.5,0.2c-0.3,0-0.5-0.2-0.5-0.7v-1.1c0-0.3,0.1-0.5,0.7-0.5h0.5c0.5,0,1-0.5,0.8-1.1c-0.2-0.5-8-8.9-9.1-9.9
		c-0.8-0.6-2.1-0.8-3-0.8v3c0,2.4,0,4.7,0.1,7.1c0.1,1,0.4,1.4,1.4,1.4h2c0.5,0,0.6,0.1,0.6,0.5v1.2c0,0.5-0.1,0.8-0.5,0.8
		c-0.4,0-2.7-0.2-6.1-0.2c-3.7,0-6.1,0.2-6.6,0.2c-0.2,0-0.3-0.3-0.3-0.7v-1.2c0-0.5,0.2-0.6,0.7-0.6h2.5c0.9,0,1.2-0.8,1.2-1.6
		c0.1-3,0.1-6.7,0.1-12.8V847.9z"/>
	<path d="M1039.6,869.1c-0.1,0.6-0.2,1.7-0.2,3.3c0,6.7,4.3,11.8,9.8,11.8c4.2,0,7.1-2.4,8.3-4.7c0.1-0.3,0.4-0.4,0.6-0.3l0.9,0.5
		c0.2,0.1,0.3,0.3,0,1c-1.2,2.7-4.8,7.5-10.9,7.5c-3.9,0-8.2-1.2-10.8-4.9c-2.4-3.5-3-6-3-10.8c0-2.7,0.7-7.3,4.3-10.9
		c3-3,6.4-3.6,9.8-3.6c7.9,0,10.1,7.4,10.1,10.1c0,1-0.8,1.1-1.9,1.1H1039.6z M1050.5,867c1.3,0,1.9-0.3,1.9-1
		c0-1.6-0.8-6.1-5.3-6.1c-3,0-5.9,2-7.2,7.1H1050.5z"/>
	<path d="M1002,952.2c0-5.1-1-6.4-2.1-7.4c-0.9-0.8-2.9-1.2-4.4-1.2c-1.8,0-4.7,0.9-6.6,4c-0.8,1.4-1,2.7-1,4.6v13.6
		c0,1.1,0.4,1.8,1.4,1.8h2.5c0.6,0,0.7,0.1,0.7,0.6v1.1c0,0.5-0.1,0.8-0.5,0.8c-0.6,0-2.5-0.2-6.2-0.2c-3.6,0-5.8,0.2-6.4,0.2
		c-0.4,0-0.5-0.1-0.5-0.6v-1.2c0-0.5,0.1-0.6,0.8-0.6h2.3c0.6,0,1-0.4,1-1.7c0.1-1.2,0.1-2.4,0.1-3.6V950c0-1.4-0.3-2.6-1.9-3.5
		l-1.4-0.8c-0.3-0.2-0.5-0.3-0.5-0.5v-0.5c0-0.2,0.3-0.5,0.4-0.5l6-3.1c0.5-0.3,1-0.4,1.3-0.4c0.4,0,0.6,0.5,0.6,1l0.3,4h0.2
		c2.1-2.8,6.1-5.2,10.1-5.2c3.6,0,6.3,2.1,7.8,5.3h0.3c2.1-2.7,6-5.3,10.1-5.3c2.4,0,4.5,0.4,6.2,2.1c1.6,1.6,3.3,3.2,3.3,8.4v15.3
		c0,1,0.6,1.4,1.4,1.4h1.9c0.6,0,0.8,0.1,0.8,0.6v1.2c0,0.5-0.1,0.7-0.5,0.7c-0.5,0-2.4-0.2-5.7-0.2c-3.4,0-5.9,0.2-6.4,0.2
		c-0.4,0-0.5-0.2-0.5-0.7v-1.2c0-0.5,0.1-0.6,0.9-0.6h1.7c0.8,0,1.3-0.3,1.4-1.3c0.1-1.6,0.1-4.1,0.1-5.6v-10.2c0-2.3-0.4-4.3-2-5.5
		c-1.2-1-3-1.4-5.1-1.4c-2.1,0-4.9,1.6-6,3.6c-1,2-1,3.8-1,6.9v11.9c0,0.9,0.3,1.6,1.4,1.6h2.3c0.6,0,0.8,0.1,0.8,0.6v1.1
		c0,0.5-0.1,0.8-0.5,0.8c-0.5,0-2.3-0.2-6.1-0.2c-3.7,0-6,0.2-6.5,0.2c-0.3,0-0.5-0.2-0.5-0.7v-1.1c0-0.5,0.1-0.7,0.7-0.7h2
		c1.1,0,1.5-0.3,1.5-1.2V952.2z"/>
	<path d="M1039.6,951.5c-0.1,0.6-0.2,1.7-0.2,3.3c0,6.7,4.3,11.8,9.8,11.8c4.2,0,7.1-2.4,8.3-4.7c0.1-0.3,0.4-0.4,0.6-0.3l0.9,0.5
		c0.2,0.1,0.3,0.3,0,1c-1.2,2.7-4.8,7.5-10.9,7.5c-3.9,0-8.2-1.2-10.8-4.9c-2.4-3.5-3-6-3-10.8c0-2.7,0.7-7.3,4.3-10.9
		c3-3,6.4-3.6,9.8-3.6c7.9,0,10.1,7.4,10.1,10.1c0,1-0.8,1.1-1.9,1.1H1039.6z M1050.5,949.4c1.3,0,1.9-0.3,1.9-1
		c0-1.6-0.8-6.1-5.3-6.1c-3,0-5.9,2-7.2,7.1H1050.5z"/>
</g>
<g>
	<path d="M1387,299.4c0-2.3-0.4-3.6-3.8-4.1c-0.5-0.1-0.6-0.2-0.6-0.5v-0.6c0-0.2,0.1-0.3,0.5-0.5c2.2-0.8,4.8-1.9,7.4-3.4
		c0.5-0.3,0.9-0.4,1.3-0.4c0.3,0,0.4,0.3,0.3,0.8c-0.1,1.2-0.1,5.5-0.1,11.2v7.5c0,2.7,0,5.1,0.1,5.9c0.1,1.3,0.3,1.8,1.1,1.8h3.2
		c0.5,0,0.7,0.2,0.7,0.6v1.2c0,0.5-0.1,0.7-0.6,0.7c-0.5,0-3.7-0.2-6.6-0.2c-4,0-6.7,0.2-7.4,0.2c-0.3,0-0.5-0.1-0.5-0.5v-1.4
		c0-0.4,0.2-0.5,0.7-0.5h3.4c0.8,0,1-0.3,1.1-1.4c0.1-2.1,0.1-4.2,0.1-6.2V299.4z M1383.8,278.3c0-1.8,1.5-3.8,4.3-3.8
		c2.5,0,3.7,2.1,3.7,3.6c0,1.9-1.2,4.1-4.1,4.1C1386.1,282.2,1383.8,280.6,1383.8,278.3z"/>
</g>
<g>
	<path d="M759,823.4c0-2.3-0.4-3.6-3.8-4.1c-0.5-0.1-0.6-0.2-0.6-0.5v-0.6c0-0.2,0.1-0.3,0.5-0.5c2.2-0.8,4.8-1.9,7.4-3.4
		c0.5-0.3,0.9-0.4,1.3-0.4c0.3,0,0.4,0.3,0.3,0.8c-0.1,1.2-0.1,5.5-0.1,11.2v7.5c0,2.7,0,5.1,0.1,5.9c0.1,1.3,0.3,1.8,1.1,1.8h3.2
		c0.5,0,0.7,0.2,0.7,0.6v1.2c0,0.5-0.1,0.7-0.6,0.7c-0.5,0-3.7-0.2-6.6-0.2c-4,0-6.7,0.2-7.4,0.2c-0.3,0-0.5-0.1-0.5-0.5v-1.4
		c0-0.4,0.2-0.5,0.7-0.5h3.4c0.8,0,1-0.3,1.1-1.4c0.1-2.1,0.1-4.2,0.1-6.2V823.4z M755.8,802.3c0-1.8,1.5-3.8,4.3-3.8
		c2.5,0,3.7,2.1,3.7,3.6c0,1.9-1.2,4.1-4.1,4.1C758.1,806.2,755.8,804.6,755.8,802.3z"/>
</g>
<g>
	<path d="M1251,451.4c0-2.3-0.4-3.6-3.8-4.1c-0.5-0.1-0.6-0.2-0.6-0.5v-0.6c0-0.2,0.1-0.3,0.5-0.5c2.2-0.8,4.8-1.9,7.4-3.4
		c0.5-0.3,0.9-0.4,1.3-0.4c0.3,0,0.4,0.3,0.3,0.8c-0.1,1.2-0.1,5.5-0.1,11.2v7.5c0,2.7,0,5.1,0.1,5.9c0.1,1.3,0.3,1.8,1.1,1.8h3.2
		c0.5,0,0.7,0.2,0.7,0.6v1.2c0,0.5-0.1,0.7-0.6,0.7c-0.5,0-3.7-0.2-6.6-0.2c-4,0-6.7,0.2-7.4,0.2c-0.3,0-0.5-0.1-0.5-0.5v-1.4
		c0-0.4,0.2-0.5,0.7-0.5h3.4c0.8,0,1-0.3,1.1-1.4c0.1-2.1,0.1-4.2,0.1-6.2V451.4z M1247.8,430.3c0-1.8,1.5-3.8,4.3-3.8
		c2.5,0,3.7,2.1,3.7,3.6c0,1.9-1.2,4.1-4.1,4.1C1250.1,434.2,1247.8,432.6,1247.8,430.3z"/>
</g>
<g>
	<path d="M1143,1480.5c0-2.3-0.4-3.6-3.8-4.1c-0.5-0.1-0.6-0.2-0.6-0.5v-0.6c0-0.2,0.1-0.3,0.5-0.5c2.2-0.8,4.8-1.9,7.4-3.4
		c0.5-0.3,0.9-0.4,1.3-0.4c0.3,0,0.4,0.3,0.3,0.8c-0.1,1.2-0.1,5.5-0.1,11.2v7.5c0,2.7,0,5.1,0.1,5.9c0.1,1.3,0.3,1.8,1.1,1.8h3.2
		c0.5,0,0.7,0.2,0.7,0.6v1.2c0,0.5-0.1,0.7-0.6,0.7c-0.5,0-3.7-0.2-6.6-0.2c-4,0-6.7,0.2-7.4,0.2c-0.3,0-0.5-0.1-0.5-0.5v-1.4
		c0-0.4,0.2-0.5,0.7-0.5h3.4c0.8,0,1-0.3,1.1-1.4c0.1-2.1,0.1-4.2,0.1-6.2V1480.5z M1139.8,1459.4c0-1.8,1.5-3.8,4.3-3.8
		c2.5,0,3.7,2.1,3.7,3.6c0,1.9-1.2,4.1-4.1,4.1C1142.1,1463.3,1139.8,1461.7,1139.8,1459.4z"/>
</g>
<g>
	<path d="M695,780c0-2.3-0.4-3.6-3.8-4.1c-0.5-0.1-0.6-0.2-0.6-0.5v-0.6c0-0.2,0.1-0.3,0.5-0.5c2.2-0.8,4.8-1.9,7.4-3.4
		c0.5-0.3,0.9-0.4,1.3-0.4c0.3,0,0.4,0.3,0.3,0.8c-0.1,1.2-0.1,5.5-0.1,11.2v7.5c0,2.7,0,5.1,0.1,5.9c0.1,1.3,0.3,1.8,1.1,1.8h3.2
		c0.5,0,0.7,0.2,0.7,0.6v1.2c0,0.5-0.1,0.7-0.6,0.7c-0.5,0-3.7-0.2-6.6-0.2c-4,0-6.7,0.2-7.4,0.2c-0.3,0-0.5-0.1-0.5-0.5v-1.4
		c0-0.4,0.2-0.5,0.7-0.5h3.4c0.8,0,1-0.3,1.1-1.4c0.1-2.1,0.1-4.2,0.1-6.2V780z M691.8,758.9c0-1.8,1.5-3.8,4.3-3.8
		c2.5,0,3.7,2.1,3.7,3.6c0,1.9-1.2,4.1-4.1,4.1C694.1,762.8,691.8,761.2,691.8,758.9z"/>
</g>
<g>
	<path d="M2084.9,888c0-2.3-0.4-3.6-3.8-4.1c-0.5-0.1-0.6-0.2-0.6-0.5v-0.6c0-0.2,0.1-0.3,0.5-0.5c2.2-0.8,4.8-1.9,7.4-3.4
		c0.5-0.3,0.9-0.4,1.3-0.4c0.3,0,0.4,0.3,0.3,0.8c-0.1,1.2-0.1,5.5-0.1,11.2v7.5c0,2.7,0,5.1,0.1,5.9c0.1,1.3,0.3,1.8,1.1,1.8h3.2
		c0.5,0,0.7,0.2,0.7,0.6v1.2c0,0.5-0.1,0.7-0.6,0.7c-0.5,0-3.7-0.2-6.6-0.2c-4,0-6.7,0.2-7.4,0.2c-0.3,0-0.5-0.1-0.5-0.5v-1.4
		c0-0.4,0.2-0.5,0.7-0.5h3.4c0.8,0,1-0.3,1.1-1.4c0.1-2.1,0.1-4.2,0.1-6.2V888z M2081.7,866.9c0-1.8,1.5-3.8,4.3-3.8
		c2.5,0,3.7,2.1,3.7,3.6c0,1.9-1.2,4.1-4.1,4.1C2084,870.8,2081.7,869.2,2081.7,866.9z"/>
</g>
<g>
	<path d="M835,1144c0-2.3-0.4-3.6-3.8-4.1c-0.5-0.1-0.6-0.2-0.6-0.5v-0.6c0-0.2,0.1-0.3,0.5-0.5c2.2-0.8,4.8-1.9,7.4-3.4
		c0.5-0.3,0.9-0.4,1.3-0.4c0.3,0,0.4,0.3,0.3,0.8c-0.1,1.2-0.1,5.5-0.1,11.2v7.5c0,2.7,0,5.1,0.1,5.9c0.1,1.3,0.3,1.8,1.1,1.8h3.2
		c0.5,0,0.7,0.2,0.7,0.6v1.2c0,0.5-0.1,0.7-0.6,0.7c-0.5,0-3.7-0.2-6.6-0.2c-4,0-6.7,0.2-7.4,0.2c-0.3,0-0.5-0.1-0.5-0.5v-1.4
		c0-0.4,0.2-0.5,0.7-0.5h3.4c0.8,0,1-0.3,1.1-1.4c0.1-2.1,0.1-4.2,0.1-6.2V1144z M831.8,1122.9c0-1.8,1.5-3.8,4.3-3.8
		c2.5,0,3.7,2.1,3.7,3.6c0,1.9-1.2,4.1-4.1,4.1C834.1,1126.8,831.8,1125.2,831.8,1122.9z"/>
</g>
<g>
	<path d="M1847,1332c0-2.3-0.4-3.6-3.8-4.1c-0.5-0.1-0.6-0.2-0.6-0.5v-0.6c0-0.2,0.1-0.3,0.5-0.5c2.2-0.8,4.8-1.9,7.4-3.4
		c0.5-0.3,0.9-0.4,1.3-0.4c0.3,0,0.4,0.3,0.3,0.8c-0.1,1.2-0.1,5.5-0.1,11.2v7.5c0,2.7,0,5.1,0.1,5.9c0.1,1.3,0.3,1.8,1.1,1.8h3.2
		c0.5,0,0.7,0.2,0.7,0.6v1.2c0,0.5-0.1,0.7-0.6,0.7c-0.5,0-3.7-0.2-6.6-0.2c-4,0-6.7,0.2-7.4,0.2c-0.3,0-0.5-0.1-0.5-0.5v-1.4
		c0-0.4,0.2-0.5,0.7-0.5h3.4c0.8,0,1-0.3,1.1-1.4c0.1-2.1,0.1-4.2,0.1-6.2V1332z M1843.8,1310.9c0-1.8,1.5-3.8,4.3-3.8
		c2.5,0,3.7,2.1,3.7,3.6c0,1.9-1.2,4.1-4.1,4.1C1846.1,1314.8,1843.8,1313.2,1843.8,1310.9z"/>
</g>
<g>
	<path d="M1277.8,670.2c0-2.3-0.4-3.6-3.8-4.1c-0.5-0.1-0.6-0.2-0.6-0.5V665c0-0.2,0.1-0.3,0.5-0.5c2.2-0.8,4.8-1.9,7.4-3.4
		c0.5-0.3,0.9-0.4,1.3-0.4c0.3,0,0.4,0.3,0.3,0.8c-0.1,1.2-0.1,5.5-0.1,11.2v7.5c0,2.7,0,5.1,0.1,5.9c0.1,1.3,0.3,1.8,1.1,1.8h3.2
		c0.5,0,0.7,0.2,0.7,0.6v1.2c0,0.5-0.1,0.7-0.6,0.7c-0.5,0-3.7-0.2-6.6-0.2c-4,0-6.7,0.2-7.4,0.2c-0.3,0-0.5-0.1-0.5-0.5v-1.4
		c0-0.4,0.2-0.5,0.7-0.5h3.4c0.8,0,1-0.3,1.1-1.4c0.1-2.1,0.1-4.2,0.1-6.2V670.2z M1274.6,649.1c0-1.8,1.5-3.8,4.3-3.8
		c2.5,0,3.7,2.1,3.7,3.6c0,1.9-1.2,4.1-4.1,4.1C1276.9,653,1274.6,651.4,1274.6,649.1z"/>
	<path d="M1224.3,735.2c0-4.2-0.8-4.9-3.3-5.8l-1.2-0.4c-0.4-0.1-0.5-0.2-0.5-0.4v-0.6c0-0.3,0.2-0.3,0.8-0.7l7.1-3.8
		c0.5-0.3,1-0.5,1.6-0.5c0.4,0,0.7,0.5,0.5,1.7c-0.1,1.2-0.2,15.1-0.2,18.5v4.4h0.3c2.4-2.9,6.4-4.5,9.4-4.5c2.9,0,4.9,0.9,6.8,2.7
		c3.1,2.9,3,6.4,3,10.1v3.9c0,3.8,0.1,8.1,0.1,9.4c0,0.8,1.1,1,2.5,1h1.2c0.5,0,0.8,0.1,0.8,0.6v1c0,0.5-0.1,0.8-0.5,0.8
		c-0.5,0-2.7-0.2-6.6-0.2c-3.4,0-5.8,0.2-6.5,0.2c-0.5,0-0.6-0.2-0.6-0.8v-1.2c0-0.3,0.1-0.5,0.5-0.5h1.6c1.2,0,2.5-0.1,2.6-1.3
		c0.1-1,0-4.6,0-6.8v-5.6c0-3.8-0.3-6.6-2.3-8.4c-1.4-1.3-2.8-1.9-4.5-1.9c-2,0-4.5,0.7-6.4,2.9c-0.6,0.8-1.4,2.1-1.4,3.4v15
		c0,2.2,0.2,2.8,1.5,2.8h2.1c0.5,0,0.8,0.1,0.8,0.5v1.2c0,0.5-0.1,0.8-0.5,0.8c-0.5,0-3.4-0.2-6.5-0.2c-3.4,0-6,0.2-6.7,0.2
		c-0.3,0-0.5-0.2-0.5-0.7v-1.2c0-0.5,0.3-0.5,1-0.5h1.4c1.1,0,2.1-0.3,2.3-1.1c0.2-1.3,0.2-8.9,0.2-13.3V735.2z"/>
	<path d="M1279.7,769.6c1.1,0,2.1-0.5,2.4-1c0.3-0.3,0.4-0.5,0.7-0.3l0.7,0.5c0.2,0.2,0.3,0.5-0.1,1.2c-0.5,1-1.9,3.4-5.4,3.4
		c-2.5,0-4.3-1.8-4.9-4.6h-0.1c-1.4,1.7-3.7,3.2-6.8,4.2c-1.3,0.4-2.5,0.4-4.1,0.4c-1.6,0-4.1-1.4-4.1-5.7c0-3.2,1.4-5.9,6.9-8.3
		c3.1-1.4,6.7-3,7.8-4V751c-0.1-1.2-0.2-3-1-3.8c-0.8-0.9-2.1-1.5-4.1-1.5c-1.4,0-3.5,0.5-4.5,1.4s-0.3,1.9-0.3,3.2
		c0,2.4-0.8,3.9-3.6,3.9c-1.1,0-1.6-0.6-1.6-2.2c0-2.2,1.9-4.8,4.7-6.5c2.9-1.7,5.3-2.4,8.4-2.4c3.2,0,4.5,1,5.5,1.9
		c1.4,1.4,1.5,3,1.5,4.9v14.6C1277.6,768.3,1278.5,769.6,1279.7,769.6z M1272.6,757.5c-2.5,1.9-9.2,3.2-9.2,8.9
		c0,2.5,1.5,3.8,3.6,3.8c2,0,5.6-2.4,5.6-4.3V757.5z"/>
	<path d="M1299.7,766.3h0.2c1.1-2.7,5.9-14.5,6.6-17.2c0.5-1.9,0-3-1.2-3h-1.4c-0.2,0-0.3-0.3-0.3-0.7v-1.2c0-0.4,0.1-0.5,0.4-0.5
		c1,0,2.5,0.2,5.5,0.2c2.7,0,4.3-0.2,4.9-0.2c0.5,0,0.6,0.1,0.6,0.6v1.2c0,0.5,0,0.7-0.3,0.7h-1.3c-0.8,0-1.5,0.1-2.1,0.8
		c-1,1-4.5,8.5-5.5,11.1c-0.8,2.1-5.9,13.6-6.2,14.1c-0.5,1-0.9,1.6-1.6,1.6c-0.7,0-1.1-0.6-1.4-1.4l-5.4-13.9
		c-0.2-0.5-3-8.4-3.5-9.5c-0.9-2-1.6-2.5-2.8-2.5h-1.4c-0.3,0-0.4-0.3-0.4-0.7v-1.2c0-0.5,0.1-0.5,0.8-0.5c0.8,0,1.9,0.2,5.8,0.2
		c3.6,0,5.4-0.2,6.2-0.2c0.5,0,0.7,0.1,0.7,0.5v1.2c0,0.4-0.1,0.7-0.5,0.7h-1.4c-0.7,0-1.2,0.4-1.2,1.3c0,1.2,1.8,7,2.2,8.2
		C1296,756.9,1299,764.8,1299.7,766.3z"/>
	<path d="M1321.1,754.3c-0.1,0.6-0.2,1.7-0.2,3.3c0,6.7,4.3,11.8,9.8,11.8c4.2,0,7.1-2.4,8.3-4.7c0.1-0.3,0.4-0.4,0.6-0.3l0.9,0.5
		c0.2,0.1,0.3,0.3,0,1c-1.2,2.7-4.8,7.5-10.9,7.5c-3.9,0-8.2-1.2-10.8-4.9c-2.4-3.5-3-6-3-10.8c0-2.7,0.7-7.3,4.3-10.9
		c3-3,6.4-3.6,9.8-3.6c7.9,0,10.1,7.4,10.1,10.1c0,1-0.8,1.1-1.9,1.1H1321.1z M1332,752.3c1.3,0,1.9-0.3,1.9-1
		c0-1.6-0.8-6.1-5.3-6.1c-3,0-5.9,2-7.2,7.1H1332z"/>
	<path d="M1173.6,835c0-2.3-0.4-3.6-3.8-4.1c-0.5-0.1-0.6-0.2-0.6-0.5v-0.6c0-0.2,0.1-0.3,0.5-0.5c2.2-0.8,4.8-1.9,7.4-3.4
		c0.5-0.3,0.9-0.4,1.3-0.4c0.3,0,0.4,0.3,0.3,0.8c-0.1,1.2-0.1,5.5-0.1,11.2v7.5c0,2.7,0,5.1,0.1,5.9c0.1,1.3,0.3,1.8,1.1,1.8h3.2
		c0.5,0,0.7,0.2,0.7,0.6v1.2c0,0.5-0.1,0.7-0.6,0.7c-0.5,0-3.7-0.2-6.6-0.2c-4,0-6.7,0.2-7.4,0.2c-0.3,0-0.5-0.1-0.5-0.5v-1.4
		c0-0.4,0.2-0.5,0.7-0.5h3.4c0.8,0,1-0.3,1.1-1.4c0.1-2.1,0.1-4.2,0.1-6.2V835z M1170.4,813.9c0-1.8,1.5-3.8,4.3-3.8
		c2.5,0,3.7,2.1,3.7,3.6c0,1.9-1.2,4.1-4.1,4.1C1172.7,817.8,1170.4,816.2,1170.4,813.9z"/>
	<path d="M1215.7,851.3c0,1.1,0.6,1.4,1.5,1.4h2.2c0.6,0,0.8,0.2,0.8,0.6v1.1c0,0.5-0.1,0.8-0.5,0.8c-0.5,0-2.6-0.2-6.5-0.2
		c-3.5,0-5.7,0.2-6.2,0.2c-0.4,0-0.5-0.2-0.5-0.8v-1.1c0-0.5,0.2-0.6,0.9-0.6h2c0.8,0,1.3-0.3,1.4-1.6c0.1-1.8,0.1-4,0.1-5.8v-9.1
		c0-2.7,0-4.7-2-6.2c-1.6-1.2-3.3-1.2-5-1.2c-1.1,0-3.5,0.5-5.6,2.7c-1.4,1.5-1.6,3.4-1.6,4.7v14.2c0,1.9,0.2,2.3,1.6,2.3h1.7
		c0.5,0,0.7,0.2,0.7,0.7v1.2c0,0.4-0.1,0.6-0.5,0.6c-0.5,0-2.3-0.2-6-0.2c-3.5,0-5.7,0.2-6.1,0.2c-0.3,0-0.5-0.2-0.5-0.6v-1.2
		c0-0.4,0.1-0.6,0.7-0.6h2c0.9,0,1.4-0.2,1.4-1.4v-16.1c0-2.1-1.1-3.2-2.8-4.1l-0.5-0.3c-0.5-0.2-0.5-0.4-0.5-0.6V830
		c0-0.3,0.3-0.5,0.6-0.7l5.9-3.3c0.5-0.3,1-0.5,1.2-0.5c0.3,0,0.5,0.3,0.5,0.8l0.5,4.2h0.1c2-2.5,6-5,9.4-5c2.1,0,4.2,0.4,5.8,1.5
		c2.1,1.4,3.8,4.8,3.8,6.5V851.3z"/>
	<path d="M1237,848.7h0.2c1.1-2.7,5.9-14.5,6.6-17.2c0.5-1.9,0-3-1.2-3h-1.4c-0.2,0-0.3-0.3-0.3-0.7v-1.2c0-0.4,0.1-0.5,0.4-0.5
		c1,0,2.5,0.2,5.5,0.2c2.7,0,4.3-0.2,4.9-0.2c0.5,0,0.6,0.1,0.6,0.6v1.2c0,0.5,0,0.7-0.3,0.7h-1.3c-0.8,0-1.5,0.1-2.1,0.8
		c-1,1-4.5,8.5-5.5,11.1c-0.8,2.1-5.9,13.6-6.2,14.1c-0.5,1-0.9,1.6-1.6,1.6c-0.7,0-1.1-0.6-1.4-1.4l-5.4-13.9
		c-0.2-0.5-3-8.4-3.5-9.5c-0.9-2-1.6-2.5-2.8-2.5h-1.4c-0.3,0-0.4-0.3-0.4-0.7v-1.2c0-0.5,0.1-0.5,0.8-0.5c0.8,0,1.9,0.2,5.8,0.2
		c3.6,0,5.4-0.2,6.2-0.2c0.5,0,0.7,0.1,0.7,0.5v1.2c0,0.4-0.1,0.7-0.5,0.7h-1.4c-0.7,0-1.2,0.4-1.2,1.3c0,1.2,1.8,7,2.2,8.2
		C1233.3,839.3,1236.2,847.2,1237,848.7z"/>
	<path d="M1257.9,835c0-2.3-0.4-3.6-3.8-4.1c-0.5-0.1-0.6-0.2-0.6-0.5v-0.6c0-0.2,0.1-0.3,0.5-0.5c2.2-0.8,4.8-1.9,7.4-3.4
		c0.5-0.3,0.9-0.4,1.3-0.4c0.3,0,0.4,0.3,0.3,0.8c-0.1,1.2-0.1,5.5-0.1,11.2v7.5c0,2.7,0,5.1,0.1,5.9c0.1,1.3,0.3,1.8,1.1,1.8h3.2
		c0.5,0,0.7,0.2,0.7,0.6v1.2c0,0.5-0.1,0.7-0.6,0.7c-0.5,0-3.7-0.2-6.6-0.2c-4,0-6.7,0.2-7.4,0.2c-0.3,0-0.5-0.1-0.5-0.5v-1.4
		c0-0.4,0.2-0.5,0.7-0.5h3.4c0.8,0,1-0.3,1.1-1.4c0.1-2.1,0.1-4.2,0.1-6.2V835z M1254.6,813.9c0-1.8,1.5-3.8,4.3-3.8
		c2.5,0,3.7,2.1,3.7,3.6c0,1.9-1.2,4.1-4.1,4.1C1257,817.8,1254.6,816.2,1254.6,813.9z"/>
	<path d="M1273.6,853.8c-0.3-0.2-0.3-0.6-0.4-1l-1.2-6.5c-0.1-0.3,0.1-0.5,0.4-0.5l0.9-0.2c0.3-0.1,0.5,0.1,0.6,0.4l1.7,3.4
		c1.4,2.5,2.3,4.3,6,4.3c2.4,0,5.4-1.4,5.4-4.7c0-3.1-1.5-4.9-6.7-6.3c-4.1-1.2-8.1-3.3-8.1-8.7c0-4.7,4.5-8.4,9.6-8.4
		c3.3,0,5.1,0.8,6.3,1.4c1,0.5,1.2,0.8,1.2,1.2l1,4.8c0,0.3-0.1,0.5-0.5,0.6l-0.8,0.3c-0.3,0.1-0.4,0-0.6-0.3l-2.3-3.2
		c-0.8-1.3-2.1-2.7-4.8-2.7c-2.6,0-5.3,1.6-5.3,4.5c0,4,3.2,4.7,6.6,5.7c5,1.4,8.2,3.5,8.2,8.8c-0.1,5.6-4.6,9.1-10.4,9.1
		C1277.2,855.8,1274.5,854.4,1273.6,853.8z"/>
	<path d="M1300.6,835c0-2.3-0.4-3.6-3.8-4.1c-0.5-0.1-0.6-0.2-0.6-0.5v-0.6c0-0.2,0.1-0.3,0.5-0.5c2.2-0.8,4.8-1.9,7.4-3.4
		c0.5-0.3,0.9-0.4,1.3-0.4c0.3,0,0.4,0.3,0.3,0.8c-0.1,1.2-0.1,5.5-0.1,11.2v7.5c0,2.7,0,5.1,0.1,5.9c0.1,1.3,0.3,1.8,1.1,1.8h3.2
		c0.5,0,0.7,0.2,0.7,0.6v1.2c0,0.5-0.1,0.7-0.6,0.7c-0.5,0-3.7-0.2-6.6-0.2c-4,0-6.7,0.2-7.4,0.2c-0.3,0-0.5-0.1-0.5-0.5v-1.4
		c0-0.4,0.2-0.5,0.7-0.5h3.4c0.8,0,1-0.3,1.1-1.4c0.1-2.1,0.1-4.2,0.1-6.2V835z M1297.4,813.9c0-1.8,1.5-3.8,4.3-3.8
		c2.5,0,3.7,2.1,3.7,3.6c0,1.9-1.2,4.1-4.1,4.1C1299.7,817.8,1297.4,816.2,1297.4,813.9z"/>
	<path d="M1316.9,818c0-4.6-0.8-5.6-3.2-6.4l-0.7-0.2c-0.8-0.2-0.9-0.3-0.9-0.5v-0.5c0-0.2,0.1-0.3,0.5-0.5c2-0.9,5.6-2.7,7.3-3.8
		c0.5-0.3,1-0.6,1.4-0.6c0.5,0,0.6,0.3,0.5,1.2c-0.1,0.5-0.1,8.4-0.1,14.5v8c2.2-2.1,6.1-3.4,9.5-3.4c6,0,12.6,4.9,12.6,14.7
		c0,8-6.5,15.6-14.3,15.6c-3.8,0-6.5-0.8-8.1-1.8l-2.7,1.5c-0.3,0.2-0.5,0.3-0.9,0.2l-0.8-0.2c-0.3-0.1-0.3-0.2-0.3-0.5
		c0.1-1,0.1-6.7,0.1-11.7V818z M1321.9,840.2c0,5.7,0.2,7.8,1,10c0.7,1.6,3.6,3.4,6.5,3.4c4.1,0,9.2-2.8,9.2-11.8
		c0-6.7-3.5-13-10.2-13c-2.5,0-5,0.9-6.5,2.5V840.2z"/>
	<path d="M1358.1,834.5c0,3.6,0,13.9,0.1,16.1c0.1,1.2,0.3,2.1,1.8,2.1h3.1c0.6,0,0.8,0.2,0.8,0.6v1.2c0,0.4-0.1,0.7-0.4,0.7
		c-0.5,0-3.5-0.2-7.8-0.2c-4.4,0-7.1,0.2-7.8,0.2c-0.3,0-0.5-0.3-0.5-0.7v-1.2c0-0.5,0.1-0.6,0.9-0.6h3.3c0.8,0,1.4-0.5,1.5-1.7
		c0.1-2.1,0.1-13.9,0.1-17.9v-4.3c0-4.9-0.1-11.1-0.2-12.9c-0.1-2.3-1.2-3.4-3.4-4.1l-1.4-0.5c-0.3-0.1-0.4-0.2-0.4-0.3v-0.5
		c0-0.2,0.2-0.3,0.6-0.5c2.4-1.1,5.5-2.3,8-4c0.6-0.4,1-0.5,1.4-0.5c0.5,0,0.6,0.3,0.5,1.2c-0.1,3.8-0.3,18.1-0.3,21.8V834.5z"/>
	<path d="M1372,836.7c-0.1,0.6-0.2,1.7-0.2,3.3c0,6.7,4.3,11.8,9.8,11.8c4.2,0,7.1-2.4,8.3-4.7c0.1-0.3,0.4-0.4,0.6-0.3l0.9,0.5
		c0.2,0.1,0.3,0.3,0,1c-1.2,2.7-4.8,7.5-10.9,7.5c-3.9,0-8.2-1.2-10.8-4.9c-2.4-3.5-3-6-3-10.8c0-2.7,0.7-7.3,4.3-10.9
		c3-3,6.4-3.6,9.8-3.6c7.9,0,10.1,7.4,10.1,10.1c0,1-0.8,1.1-1.9,1.1H1372z M1383,834.7c1.3,0,1.9-0.3,1.9-1c0-1.6-0.8-6.1-5.3-6.1
		c-3,0-5.9,2-7.2,7.1H1383z"/>
	<path d="M1236.7,934.4c1.1,0,2.1-0.5,2.4-1c0.3-0.3,0.4-0.5,0.7-0.3l0.7,0.5c0.2,0.2,0.3,0.5-0.1,1.2c-0.5,1-1.9,3.4-5.4,3.4
		c-2.5,0-4.3-1.8-4.9-4.6h-0.1c-1.4,1.7-3.7,3.2-6.8,4.2c-1.3,0.4-2.5,0.4-4.1,0.4c-1.6,0-4.1-1.4-4.1-5.7c0-3.2,1.4-5.9,6.9-8.3
		c3.1-1.4,6.7-3,7.8-4v-4.4c-0.1-1.2-0.2-3-1-3.8c-0.8-0.9-2.1-1.5-4.1-1.5c-1.4,0-3.5,0.5-4.5,1.4c-1,0.9-0.3,1.9-0.3,3.2
		c0,2.4-0.8,3.9-3.6,3.9c-1.1,0-1.6-0.6-1.6-2.2c0-2.2,1.9-4.8,4.7-6.5c2.9-1.7,5.3-2.4,8.4-2.4c3.2,0,4.5,1,5.5,1.9
		c1.4,1.4,1.5,3,1.5,4.9v14.6C1234.6,933.1,1235.5,934.4,1236.7,934.4z M1229.6,922.3c-2.5,1.9-9.2,3.2-9.2,8.9
		c0,2.5,1.5,3.8,3.6,3.8c2,0,5.6-2.4,5.6-4.3V922.3z"/>
	<path d="M1252.4,916.9c0,3.6,0,13.9,0.1,16.1c0.1,1.2,0.3,2.1,1.8,2.1h3.1c0.6,0,0.8,0.2,0.8,0.6v1.2c0,0.4-0.1,0.7-0.4,0.7
		c-0.5,0-3.5-0.2-7.8-0.2c-4.4,0-7.1,0.2-7.8,0.2c-0.3,0-0.5-0.3-0.5-0.7v-1.2c0-0.5,0.1-0.6,0.9-0.6h3.3c0.8,0,1.4-0.5,1.5-1.7
		c0.1-2.1,0.1-13.9,0.1-17.9v-4.3c0-4.9-0.1-11.1-0.2-12.9c-0.1-2.3-1.2-3.4-3.4-4.1l-1.4-0.5c-0.3-0.1-0.4-0.2-0.4-0.3v-0.5
		c0-0.2,0.2-0.3,0.6-0.5c2.4-1.1,5.5-2.3,8-4c0.6-0.4,1-0.5,1.4-0.5c0.5,0,0.6,0.3,0.5,1.2c-0.1,3.8-0.3,18.1-0.3,21.8V916.9z"/>
	<path d="M1270.4,916.9c0,3.6,0,13.9,0.1,16.1c0.1,1.2,0.3,2.1,1.8,2.1h3.1c0.6,0,0.8,0.2,0.8,0.6v1.2c0,0.4-0.1,0.7-0.4,0.7
		c-0.5,0-3.5-0.2-7.8-0.2c-4.4,0-7.1,0.2-7.8,0.2c-0.3,0-0.5-0.3-0.5-0.7v-1.2c0-0.5,0.1-0.6,0.9-0.6h3.3c0.8,0,1.4-0.5,1.5-1.7
		c0.1-2.1,0.1-13.9,0.1-17.9v-4.3c0-4.9-0.1-11.1-0.2-12.9c-0.1-2.3-1.2-3.4-3.4-4.1l-1.4-0.5c-0.3-0.1-0.4-0.2-0.4-0.3v-0.5
		c0-0.2,0.2-0.3,0.6-0.5c2.4-1.1,5.5-2.3,8-4c0.6-0.4,1-0.5,1.4-0.5c0.5,0,0.6,0.3,0.5,1.2c-0.1,3.8-0.3,18.1-0.3,21.8V916.9z"/>
	<path d="M1283.4,917.4c0-2.3-0.4-3.6-3.8-4.1c-0.5-0.1-0.6-0.2-0.6-0.5v-0.6c0-0.2,0.1-0.3,0.5-0.5c2.2-0.8,4.8-1.9,7.4-3.4
		c0.5-0.3,0.9-0.4,1.3-0.4c0.3,0,0.4,0.3,0.3,0.8c-0.1,1.2-0.1,5.5-0.1,11.2v7.5c0,2.7,0,5.1,0.1,5.9c0.1,1.3,0.3,1.8,1.1,1.8h3.2
		c0.5,0,0.7,0.2,0.7,0.6v1.2c0,0.5-0.1,0.7-0.6,0.7c-0.5,0-3.7-0.2-6.6-0.2c-4,0-6.7,0.2-7.4,0.2c-0.3,0-0.5-0.1-0.5-0.5v-1.4
		c0-0.4,0.2-0.5,0.7-0.5h3.4c0.8,0,1-0.3,1.1-1.4c0.1-2.1,0.1-4.2,0.1-6.2V917.4z M1280.2,896.3c0-1.8,1.5-3.8,4.3-3.8
		c2.5,0,3.7,2.1,3.7,3.6c0,1.9-1.2,4.1-4.1,4.1C1282.5,900.2,1280.2,898.6,1280.2,896.3z"/>
	<path d="M1302.6,919.1c-0.1,0.6-0.2,1.7-0.2,3.3c0,6.7,4.3,11.8,9.8,11.8c4.2,0,7.1-2.4,8.3-4.7c0.1-0.3,0.4-0.4,0.6-0.3l0.9,0.5
		c0.2,0.1,0.3,0.3,0,1c-1.2,2.7-4.8,7.5-10.9,7.5c-3.9,0-8.2-1.2-10.8-4.9c-2.4-3.5-3-6-3-10.8c0-2.7,0.7-7.3,4.3-10.9
		c3-3,6.4-3.6,9.8-3.6c7.9,0,10.1,7.4,10.1,10.1c0,1-0.8,1.1-1.9,1.1H1302.6z M1313.5,917.1c1.3,0,1.9-0.3,1.9-1
		c0-1.6-0.8-6.1-5.3-6.1c-3,0-5.9,2-7.2,7.1H1313.5z"/>
	<path d="M1328.4,936.2c-0.3-0.2-0.3-0.6-0.4-1l-1.2-6.5c-0.1-0.3,0.1-0.5,0.4-0.5l0.9-0.2c0.3-0.1,0.5,0.1,0.6,0.4l1.7,3.4
		c1.4,2.5,2.3,4.3,6,4.3c2.4,0,5.4-1.4,5.4-4.7c0-3.1-1.5-4.9-6.7-6.3c-4.1-1.2-8.1-3.3-8.1-8.7c0-4.7,4.5-8.4,9.6-8.4
		c3.3,0,5.1,0.8,6.3,1.4c1,0.5,1.2,0.8,1.2,1.2l1,4.8c0,0.3-0.1,0.5-0.5,0.6l-0.8,0.3c-0.3,0.1-0.4,0-0.6-0.3l-2.3-3.2
		c-0.8-1.3-2.1-2.7-4.8-2.7c-2.6,0-5.3,1.6-5.3,4.5c0,4,3.2,4.7,6.6,5.7c5,1.4,8.2,3.5,8.2,8.8c-0.1,5.6-4.6,9.1-10.4,9.1
		C1332,938.2,1329.3,936.8,1328.4,936.2z"/>
</g>
<g>
	<path d="M1593.3,658.8c-3.6,0-4.9-2.7-5.8-4.5c-1.2-2.3-3.9-8.7-7.3-16.3c-4.7-10.8-9.3-21.3-10.8-23.1c-0.7-0.9-1.6-1.2-2.4-1.2
		h-1.1c-0.3,0-0.3-0.2-0.3-0.6v-1.3c0-0.3,0-0.5,0.4-0.5c0.8,0,2.3,0.2,4.2,0.2c3.3,0,4.7-0.2,5.6-0.2c0.3,0,0.4,0.2,0.4,0.5v1.4
		c0,0.3-0.1,0.5-0.5,0.5h-1.1c-1,0-1.6,0.9-1.2,2.6c0.4,1.7,6.4,16,7.1,17.1h0.3c0.8-1.5,5.4-16.7,5.6-18.2c0.1-1-0.1-1.5-0.9-1.5
		h-1.3c-0.3,0-0.4-0.2-0.4-0.5v-1.4c0-0.3,0.1-0.5,0.6-0.5c0.8,0,2.9,0.2,6.4,0.2c4.1,0,5.7-0.2,6.3-0.2c0.5,0,0.5,0.2,0.5,0.5v1.4
		c0,0.4-0.1,0.6-0.5,0.6h-1.8c-1.8,0-2.4,1.2-3.2,2.9c-0.5,1.4-7.8,22.9-8.2,24.7c1,2.7,4.5,10.5,5.5,11.7c0.4,0.4,1,0.5,1.4,0.4
		c0.6-0.1,1.9-0.8,3.2-0.8c1.6,0,3.2,1.2,3.2,2.7C1597.2,657.4,1595.9,658.8,1593.3,658.8z"/>
	<path d="M1551.4,641c-8.4,0-15.2-7.6-15.2-15.1c0-4.5,1.6-8,4.7-11.2c2.1-2.1,5.8-4,9.6-4c2.3,0,5.6,0.5,9.2,3.3
		c4.1,3.2,5.9,7.6,5.9,11.1c0,4.9-0.6,7.4-3.8,11.2C1559,639.7,1554.7,641,1551.4,641z M1550.6,638.9c3.2,0,5.2-1.3,6.8-3.6
		c2.2-3.2,2.6-5.8,2.6-9.6c0-5.2-1-8-3.6-10.8c-1.6-1.8-3.4-2.2-5.3-2.2c-3.5,0-9.1,4.8-9.1,12.4
		C1542,632.5,1545.4,638.9,1550.6,638.9z"/>
	<path d="M1505.2,621.1c0-6.7-0.3-8.5-0.4-9.1c-0.1-0.3,0.2-0.7,0.6-0.7c0.2,0,0.5,0.1,0.8,0.1c0.3,0.1,0.7,0.1,1.2,0.1h6.4
		c0.7,0,0.8,0.1,0.8,0.6v1.2c0,0.3-0.3,0.5-1.5,0.5c-1.7,0.1-2.8,0.5-3,2.4v16.4c0,0.6,0.4,1.5,0.7,1.9c1.3,1.6,4.1,3.4,5.9,3.4
		s3.8-0.1,5.5-2.6c2.2-3.2,1.5-7.6,1.5-10.3V620c0-4.1-0.2-7.3-0.3-7.9c-0.1-0.5,0.3-0.8,0.8-0.8c0.2,0,0.5,0.1,0.8,0.1
		c0.3,0.1,0.5,0.1,1,0.1h6.1c0.6,0,0.8,0.1,0.8,0.5v1.2c0,0.3-0.3,0.4-1.5,0.5c-1.6,0.2-2.5,0.7-2.6,2.6v8c0,7.6,0.1,9.8-2.7,13.5
		c-2.3,3-4.5,3.2-6.5,3.2c-3.4,0-7.4-2.1-9.3-4.8h-0.1l-0.5,4c-0.1,0.7-0.3,0.8-0.6,0.8c-0.5,0-1-0.1-1.4-0.3l-7.2-2.4
		c-0.3-0.1-0.4-0.2-0.3-0.6l0.2-0.9c0.1-0.3,0.3-0.4,0.8-0.3c0.8,0.2,1.9,0.2,2.3,0.2c0.8,0,1.6-0.3,1.8-2.4
		c0.1-1.4,0.1-4.8,0.1-8.1V621.1z"/>
	<path d="M1607.2,696c0-3.8-0.2-18.1-0.3-21.8c-0.1-0.9,0.1-1.2,0.5-1.2c0.4,0,0.8,0.1,1.4,0.5c2.5,1.6,5.6,2.9,8,4
		c0.4,0.1,0.6,0.3,0.6,0.5v0.5c0,0.1-0.1,0.2-0.4,0.3l-1.4,0.5c-2.2,0.7-3.3,1.8-3.4,4.1c-0.1,1.8-0.2,8-0.2,12.9v4.3
		c0,4,0,15.8,0.1,17.9c0.1,1.2,0.8,1.7,1.5,1.7h3.3c0.8,0,0.9,0.1,0.9,0.6v1.2c0,0.4-0.1,0.7-0.5,0.7c-0.6,0-3.4-0.2-7.8-0.2
		c-4.3,0-7.3,0.2-7.8,0.2c-0.3,0-0.4-0.3-0.4-0.7v-1.2c0-0.4,0.1-0.6,0.8-0.6h3.1c1.4,0,1.7-1,1.8-2.1c0.1-2.1,0.1-12.5,0.1-16.1
		V696z"/>
	<path d="M1584.6,723.4c-8.4,0-15.2-7.6-15.2-15.1c0-4.5,1.6-8,4.7-11.2c2.1-2.1,5.8-4,9.6-4c2.3,0,5.6,0.5,9.2,3.3
		c4.1,3.2,5.9,7.6,5.9,11.1c0,4.9-0.6,7.4-3.8,11.2C1592.1,722.1,1587.9,723.4,1584.6,723.4z M1583.8,721.3c3.2,0,5.2-1.3,6.8-3.6
		c2.2-3.2,2.6-5.8,2.6-9.6c0-5.2-1-8-3.6-10.8c-1.6-1.8-3.4-2.2-5.3-2.2c-3.5,0-9.1,4.8-9.1,12.4
		C1575.2,714.9,1578.5,721.3,1583.8,721.3z"/>
	<path d="M1550.4,723.4c-8.4,0-15.2-7.6-15.2-15.1c0-4.5,1.6-8,4.7-11.2c2.1-2.1,5.8-4,9.6-4c2.3,0,5.6,0.5,9.2,3.3
		c4.1,3.2,5.9,7.6,5.9,11.1c0,4.9-0.6,7.4-3.8,11.2C1557.9,722.1,1553.7,723.4,1550.4,723.4z M1549.6,721.3c3.2,0,5.2-1.3,6.8-3.6
		c2.2-3.2,2.6-5.8,2.6-9.6c0-5.2-1-8-3.6-10.8c-1.6-1.8-3.4-2.2-5.3-2.2c-3.5,0-9.1,4.8-9.1,12.4
		C1541,714.9,1544.3,721.3,1549.6,721.3z"/>
	<path d="M1526.6,705.9c0,6,0.1,9.8,0.1,12.8c0,0.9,0.3,1.6,1.2,1.6h2.5c0.5,0,0.7,0.1,0.7,0.6v1.2c0,0.4-0.1,0.7-0.3,0.7
		c-0.5,0-2.9-0.2-6.6-0.2c-3.4,0-5.7,0.2-6.1,0.2s-0.5-0.2-0.5-0.8v-1.2c0-0.4,0.1-0.5,0.6-0.5h2c1,0,1.3-0.5,1.4-1.4
		c0.1-2.4,0.1-4.7,0.1-7.1v-3c-0.9,0-2.2,0.1-3,0.8c-1.1,1-8.9,9.3-9.1,9.9c-0.2,0.6,0.2,1.1,0.8,1.1h0.5c0.5,0,0.7,0.2,0.7,0.5v1.1
		c0,0.5-0.1,0.7-0.5,0.7c-0.5,0-3.4-0.2-7.5-0.2c-3.2,0-5.1,0.2-5.7,0.2c-0.5,0-0.6-0.2-0.6-0.6v-1.2c0-0.5,0.1-0.6,0.5-0.6
		c0.8,0,2.3-0.3,3.6-1c1.2-0.5,12.7-12.1,14.1-13.5c-2.3-2.3-8.1-7.6-9.1-8.2c-1.4-0.9-3.4-1.6-4.7-1.6h-0.5c-0.5,0-0.5-0.1-0.5-0.5
		v-1.2c0-0.5,0.1-0.7,0.4-0.7c0.5,0,2.2,0.2,5.6,0.2c3.5,0,6-0.2,6.4-0.2c0.3,0,0.5,0.2,0.5,0.5v1.3c0,0.4-0.1,0.6-0.5,0.6
		c-0.4,0-1.2,0-1.8,0.4c-0.4,0.3-0.4,0.8,0,1.6c0.5,0.8,6,6.8,7.3,7.7c0.7,0.5,2.4,0.8,3.3,0.8v-10.8c0-8.2,0-18.3-0.3-21.6
		c-0.1-0.8,0-1.2,0.4-1.2s0.9,0.3,1.5,0.5l7,3c0.7,0.3,0.9,0.4,0.9,0.7v0.6c0,0.2-0.2,0.3-1,0.5c-3.4,0.9-3.6,2.1-3.6,4.9V705.9z"/>
	<path d="M1590.4,799.9c0,4.9,0.1,10.7,0.3,14.7c0.3,4.2,1.7,6,3.4,6c0.4,0,0.9-0.3,1.6-1c1.2-1.4,2.4-2.1,3.9-2.1
		c1.4,0,2.5,1.8,2.5,2.9c0,2-1.9,3.2-4,3.2c-5.3,0-10.2-3.7-11.7-11.5c-0.8-3.8-1-11.1-1-15.2v-8.6c0-6.2-0.1-11.1-0.3-11.7
		c-0.1-0.7,0.1-1.2,0.4-1.2c0.4,0,0.8,0.1,1.3,0.5c2.4,1.6,5.2,3,7.4,3.6c0.3,0.2,0.5,0.3,0.5,0.5v0.6c0,0.2-0.1,0.3-0.4,0.5
		l-0.7,0.3c-2.8,1.1-3.4,1.8-3.4,4.8V799.9z M1589.4,767.7c-2.9,0-4.1-2.2-4.1-4.1c0-1.6,1.2-3.6,3.7-3.6c2.8,0,4.3,2.1,4.3,3.8
		C1593.3,766.2,1591,767.7,1589.4,767.7z"/>
	<path d="M1551.5,785.9c0-6.7-0.3-8.5-0.4-9.1c-0.1-0.3,0.2-0.7,0.6-0.7c0.2,0,0.5,0.1,0.8,0.1c0.3,0.1,0.7,0.1,1.2,0.1h6.4
		c0.7,0,0.8,0.1,0.8,0.6v1.2c0,0.3-0.3,0.5-1.5,0.5c-1.7,0.1-2.8,0.5-3,2.4v16.4c0,0.6,0.4,1.5,0.7,1.9c1.3,1.6,4.1,3.4,5.9,3.4
		c1.9,0,3.8-0.1,5.5-2.6c2.2-3.2,1.5-7.6,1.5-10.3v-4.9c0-4.1-0.2-7.3-0.3-7.9c-0.1-0.5,0.3-0.8,0.8-0.8c0.2,0,0.5,0.1,0.8,0.1
		c0.3,0.1,0.5,0.1,1,0.1h6.1c0.6,0,0.8,0.1,0.8,0.5v1.2c0,0.3-0.3,0.4-1.5,0.5c-1.6,0.2-2.5,0.7-2.6,2.6v8c0,7.6,0.1,9.8-2.7,13.5
		c-2.3,3-4.5,3.2-6.5,3.2c-3.4,0-7.4-2.1-9.3-4.8h-0.1l-0.5,4c-0.1,0.7-0.3,0.8-0.6,0.8c-0.5,0-1-0.1-1.4-0.3l-7.2-2.4
		c-0.3-0.1-0.4-0.2-0.3-0.6l0.2-0.9c0.1-0.3,0.3-0.4,0.8-0.3c0.8,0.2,1.9,0.2,2.3,0.2c0.8,0,1.6-0.3,1.8-2.4
		c0.1-1.4,0.1-4.8,0.1-8.1V785.9z"/>
	<path d="M1534,805.8c-5.8,0-10.4-3.5-10.4-9.1c0.1-5.3,3.2-7.3,8.2-8.8c3.4-1,6.6-1.7,6.6-5.7c0-3-2.7-4.5-5.3-4.5
		c-2.7,0-4,1.4-4.8,2.7l-2.3,3.2c-0.2,0.3-0.3,0.4-0.6,0.3l-0.8-0.3c-0.3-0.1-0.5-0.3-0.5-0.6l1-4.8c0.1-0.4,0.2-0.8,1.2-1.2
		c1.2-0.6,3-1.4,6.3-1.4c5.1,0,9.6,3.6,9.6,8.4c0,5.4-4.1,7.6-8.1,8.7c-5.1,1.4-6.7,3.2-6.7,6.3c0,3.2,3,4.7,5.4,4.7
		c3.6,0,4.6-1.7,6-4.3l1.7-3.4c0.1-0.3,0.3-0.5,0.6-0.4l0.9,0.2c0.3,0.1,0.5,0.2,0.4,0.5l-1.2,6.5c-0.1,0.3-0.1,0.8-0.4,1
		C1540.1,804.4,1537.4,805.8,1534,805.8z"/>
	<path d="M1509.4,789.5c0-3.2-0.1-6.5-0.2-9.7h-8.9c-0.4,0-0.5-0.2-0.6-0.5l-0.7-2.4c-0.1-0.3,0.1-0.6,0.5-0.6h9.5l-0.3-6.7
		c0-0.5,0.1-1,0.7-1c0.4,0,0.8,0.1,1,0.7c0.9,2.3,6.2,7.6,7.8,8.6c0.8,0.5,1.2,0.7,1.2,1.2s-0.4,0.8-1,0.8h-4.2
		c0.1,2.9,0.1,7.6,0.1,8.8v1.5c0,1,0.2,7,0.2,9.8c0,2.6-3.3,5.8-6.7,5.8c-4.1,0-6.9-2.1-7.6-2.7c-0.2-0.2-0.3-0.5-0.1-0.8l0.3-0.6
		c0.2-0.3,0.5-0.3,0.8-0.1c1,0.6,3,0.9,4.5,0.9c1.2,0,3.6-0.9,3.6-6V789.5z"/>
	<path d="M1586.8,860.8c0-3.8-0.2-18.1-0.3-21.8c-0.1-0.9,0.1-1.2,0.5-1.2c0.4,0,0.8,0.1,1.4,0.5c2.5,1.6,5.6,2.9,8,4
		c0.4,0.1,0.6,0.3,0.6,0.5v0.5c0,0.1-0.1,0.2-0.4,0.3l-1.4,0.5c-2.2,0.7-3.3,1.8-3.4,4.1c-0.1,1.8-0.2,8-0.2,12.9v4.3
		c0,4,0,15.8,0.1,17.9c0.1,1.2,0.8,1.7,1.5,1.7h3.3c0.8,0,0.9,0.1,0.9,0.6v1.2c0,0.4-0.1,0.7-0.5,0.7c-0.6,0-3.4-0.2-7.8-0.2
		c-4.3,0-7.3,0.2-7.8,0.2c-0.3,0-0.4-0.3-0.4-0.7v-1.2c0-0.4,0.1-0.6,0.8-0.6h3.1c1.4,0,1.7-1,1.8-2.1c0.1-2.1,0.1-12.5,0.1-16.1
		V860.8z"/>
	<path d="M1573.7,877.5c0,2.1,0,4.2,0.1,6.2c0.1,1.1,0.3,1.4,1.1,1.4h3.4c0.5,0,0.7,0.1,0.7,0.5v1.4c0,0.4-0.2,0.5-0.5,0.5
		c-0.8,0-3.4-0.2-7.4-0.2c-2.9,0-6,0.2-6.6,0.2c-0.5,0-0.6-0.2-0.6-0.7v-1.2c0-0.4,0.1-0.6,0.7-0.6h3.2c0.8,0,1-0.5,1.1-1.8
		c0.1-0.8,0.1-3.2,0.1-5.9v-7.5c0-5.7,0-10-0.1-11.2c-0.1-0.5,0-0.8,0.3-0.8c0.4,0,0.8,0.1,1.3,0.4c2.6,1.4,5.2,2.5,7.4,3.4
		c0.3,0.1,0.5,0.3,0.5,0.5v0.6c0,0.3-0.1,0.4-0.6,0.5c-3.4,0.5-3.8,1.8-3.8,4.1V877.5z M1573,850.1c-2.9,0-4.1-2.2-4.1-4.1
		c0-1.6,1.2-3.6,3.7-3.6c2.8,0,4.3,2.1,4.3,3.8C1577,848.6,1574.6,850.1,1573,850.1z"/>
	<path d="M1555.9,870.7c0,6,0.1,9.8,0.1,12.8c0,0.9,0.3,1.6,1.2,1.6h2.5c0.5,0,0.7,0.1,0.7,0.6v1.2c0,0.4-0.1,0.7-0.3,0.7
		c-0.5,0-2.9-0.2-6.6-0.2c-3.4,0-5.7,0.2-6.1,0.2s-0.5-0.2-0.5-0.8v-1.2c0-0.4,0.1-0.5,0.6-0.5h2c1,0,1.3-0.5,1.4-1.4
		c0.1-2.4,0.1-4.7,0.1-7.1v-3c-0.9,0-2.2,0.1-3,0.8c-1.1,1-8.9,9.3-9.1,9.9c-0.2,0.6,0.2,1.1,0.8,1.1h0.5c0.5,0,0.7,0.2,0.7,0.5v1.1
		c0,0.5-0.1,0.7-0.5,0.7c-0.5,0-3.4-0.2-7.5-0.2c-3.2,0-5.2,0.2-5.7,0.2c-0.5,0-0.6-0.2-0.6-0.6v-1.2c0-0.5,0.1-0.6,0.5-0.6
		c0.8,0,2.3-0.3,3.6-1c1.2-0.5,12.7-12.1,14.1-13.5c-2.3-2.3-8.1-7.6-9.1-8.2c-1.4-0.9-3.4-1.6-4.7-1.6h-0.5c-0.5,0-0.5-0.1-0.5-0.5
		v-1.2c0-0.5,0.1-0.7,0.4-0.7c0.5,0,2.2,0.2,5.6,0.2c3.5,0,6-0.2,6.4-0.2c0.3,0,0.5,0.2,0.5,0.5v1.3c0,0.4-0.1,0.6-0.5,0.6
		c-0.4,0-1.2,0-1.8,0.4c-0.4,0.3-0.4,0.8,0,1.6c0.5,0.8,6,6.8,7.3,7.7c0.7,0.5,2.4,0.8,3.3,0.8v-10.8c0-8.2,0-18.3-0.3-21.6
		c-0.1-0.8,0-1.2,0.4-1.2c0.4,0,0.9,0.3,1.5,0.5l7,3c0.7,0.3,0.9,0.4,0.9,0.7v0.6c0,0.2-0.2,0.3-1,0.5c-3.4,0.9-3.6,2.1-3.6,4.9
		V870.7z"/>
	<path d="M1503.5,869.1c-1.1,0-1.9-0.1-1.9-1.1c0-2.7,2.2-10.1,10.1-10.1c3.4,0,6.9,0.6,9.8,3.6c3.6,3.6,4.3,8.2,4.3,10.9
		c0,4.8-0.6,7.3-3,10.8c-2.5,3.7-6.9,4.9-10.8,4.9c-6.1,0-9.7-4.7-10.9-7.5c-0.3-0.8-0.2-1,0-1l0.9-0.5c0.2-0.1,0.5,0.1,0.6,0.3
		c1.2,2.3,4.1,4.7,8.3,4.7c5.5,0,9.8-5.1,9.8-11.8c0-1.6-0.1-2.7-0.2-3.3H1503.5z M1520.2,867c-1.3-5.1-4.2-7.1-7.2-7.1
		c-4.5,0-5.3,4.5-5.3,6.1c0,0.6,0.5,1,1.9,1H1520.2z"/>
	<path d="M1558,966.3c0,0.9,0.4,1.2,1.5,1.2h2c0.6,0,0.7,0.1,0.7,0.7v1.1c0,0.5-0.1,0.7-0.5,0.7c-0.4,0-2.7-0.2-6.5-0.2
		c-3.8,0-5.6,0.2-6.1,0.2c-0.3,0-0.5-0.2-0.5-0.8v-1.1c0-0.5,0.1-0.6,0.8-0.6h2.3c1,0,1.4-0.7,1.4-1.6V954c0-3.1,0.1-4.9-1-6.9
		c-1.1-2-3.9-3.6-6-3.6s-3.8,0.5-5.1,1.4c-1.6,1.2-2,3.2-2,5.5v10.2c0,1.5,0,4,0.1,5.6c0.1,1,0.6,1.3,1.4,1.3h1.7
		c0.8,0,0.9,0.1,0.9,0.6v1.2c0,0.5-0.1,0.7-0.5,0.7c-0.5,0-3-0.2-6.4-0.2c-3.3,0-5.2,0.2-5.7,0.2c-0.3,0-0.5-0.2-0.5-0.7v-1.2
		c0-0.5,0.1-0.6,0.8-0.6h1.9c0.8,0,1.4-0.3,1.4-1.4v-15.3c0-5.3,1.7-6.8,3.3-8.4c1.6-1.6,3.8-2.1,6.2-2.1c4.1,0,8,2.6,10.1,5.3h0.3
		c1.4-3.2,4.2-5.3,7.8-5.3c4,0,8,2.4,10.1,5.2h0.2l0.3-4c0-0.5,0.2-1,0.6-1c0.3,0,0.8,0.1,1.3,0.4l6,3.1c0.1,0.1,0.4,0.3,0.4,0.5
		v0.5c0,0.2-0.1,0.3-0.5,0.5l-1.4,0.8c-1.6,0.9-1.9,2.1-1.9,3.5v12.2c0,1.2,0,2.4,0.1,3.6c0.1,1.3,0.4,1.7,1,1.7h2.3
		c0.7,0,0.8,0.1,0.8,0.6v1.2c0,0.5-0.1,0.6-0.5,0.6c-0.5,0-2.7-0.2-6.4-0.2c-3.8,0-5.6,0.2-6.2,0.2c-0.5,0-0.5-0.3-0.5-0.8v-1.1
		c0-0.5,0.1-0.6,0.7-0.6h2.5c1,0,1.4-0.7,1.4-1.8v-13.6c0-1.9-0.1-3.2-1-4.6c-1.9-3.1-4.8-4-6.6-4c-1.5,0-3.5,0.4-4.4,1.2
		c-1.1,1-2.1,2.3-2.1,7.4V966.3z"/>
	<path d="M1503.5,951.5c-1.1,0-1.9-0.1-1.9-1.1c0-2.7,2.2-10.1,10.1-10.1c3.4,0,6.9,0.6,9.8,3.6c3.6,3.6,4.3,8.2,4.3,10.9
		c0,4.8-0.6,7.3-3,10.8c-2.5,3.7-6.9,4.9-10.8,4.9c-6.1,0-9.7-4.7-10.9-7.5c-0.3-0.8-0.2-1,0-1l0.9-0.5c0.2-0.1,0.5,0.1,0.6,0.3
		c1.2,2.3,4.1,4.7,8.3,4.7c5.5,0,9.8-5.1,9.8-11.8c0-1.6-0.1-2.7-0.2-3.3H1503.5z M1520.2,949.4c-1.3-5.1-4.2-7.1-7.2-7.1
		c-4.5,0-5.3,4.5-5.3,6.1c0,0.6,0.5,1,1.9,1H1520.2z"/>
</g>
</svg>
