<?xml version="1.0" encoding="utf-8"?>
<!-- Generator: Adobe Illustrator 19.2.1, SVG Export Plug-In . SVG Version: 6.00 Build 0)  -->
<svg version="1.1" id="Layer_1" xmlns="http://www.w3.org/2000/svg" xmlns:xlink="http://www.w3.org/1999/xlink" x="0px" y="0px"
	 viewBox="0 0 2560 1600" style="enable-background:new 0 0 2560 1600;" xml:space="preserve">
<g>
	<path d="M1176.2,621.5c-0.1-0.1-0.2-0.3-0.1-0.6c0.4-0.8,4.1-9.3,8.2-9.3c2.1,0,2.9,1.7,3.4,7.8c0.7,7.8,1.2,15.9,1.3,20.3l0.3-0.1
		c1.9-3.1,6-11.3,7-14.6c0.3-1.2,1-3,1-6c0-0.8-0.1-2-0.3-2.5c-0.3-0.6-0.8-1.6-0.8-2.5c0-1.1,0.6-2.5,2.8-2.5
		c1.9,0,2.7,1.7,2.7,3.4c0,4.5-2.6,10.2-4.6,14.6c-3,6.6-10.2,18.9-16.2,24.7c-1.9,1.9-6.4,6.2-10.4,6.2c-2.7,0-3.8-1.6-3.8-3.2
		c0-1.7,1.5-2.7,2.7-2.8c1.2-0.1,1.8,0.5,2.5,1.1c0.5,0.4,1.2,0.8,1.7,0.8c0.7,0,1.9-0.4,3.2-1.4c3.8-2.8,6.5-6.8,7.6-9.3
		c0.5-1.3,0.6-2.8,0.5-3.8c-0.1-1.6-1.4-20.3-2.2-23.8c-0.3-1.3-0.6-1.9-1.2-1.9c-1.2,0-3.4,4.1-4,5.6c-0.1,0.3-0.4,0.3-0.6,0.2
		L1176.2,621.5z"/>
	<path d="M1204.1,632c0-8.7,6.5-20.4,15.7-20.4c4.6,0,7.3,3.4,7.3,8c0,7.6-6,21.2-15.9,21.2C1207.4,640.8,1204.1,637.2,1204.1,632z
		 M1224.4,618.6c0.1-2.1-1.2-3.8-3.4-3.8c-2.9,0-6.5,2.6-10,8.2c-2.3,3.7-4,7.9-4,11.1c0,2.2,1.5,3.5,3.2,3.5
		C1217.3,637.5,1224.4,623.1,1224.4,618.6z"/>
	<path d="M1260.4,612.3c0.6,0,0.8,0.2,0.6,0.6l-5.3,14.3c-2,5.4-2.9,8.5-2.9,8.9c0,0.6,0.1,0.6,0.5,0.8c1,0,4.8-3.4,5.4-4.3
		c0.1-0.2,0.4-0.3,0.6,0l0.7,0.7c0.2,0.2,0.2,0.3,0,0.6c-0.2,0.3-6.6,6.9-11.3,6.9c-1,0-1.3-0.8-1.3-1.6c0-0.8,3.5-9.4,4.4-11.7
		l-0.4-0.2c-2.9,4.2-10.2,13.5-17,13.5c-1.4,0-2.5-1.2-2.5-2.8c0.1-2.2,2.2-6.5,4.9-12.8c1.8-4.3,3.4-7.5,3.4-8.7c0-0.6-0.5-1-1.1-1
		c-1.2,0-4.7,3.1-5.4,3.9c-0.2,0.2-0.4,0.2-0.6,0l-0.6-0.6c-0.2-0.1-0.2-0.3,0.1-0.6c0.5-0.6,6.2-6.6,10.6-6.6c1.4,0,2,1.4,2,2.5
		c0,1.7-1.6,5.8-4.5,11.9c-1.9,4.1-3.6,8.4-3.6,10c0,0.8,0.5,1.2,1.2,1.2c3.6,0,10.9-9,12.9-11.9c1.3-1.9,2.4-3.8,3.2-5.8l2.4-6.6
		c0.1-0.4,0.5-0.5,1-0.5H1260.4z"/>
</g>
<g>
	<path d="M1382.8,621.9c-0.2,0.1-0.5,0.1-0.6-0.2c-0.5-1.5-2.7-5.6-4-5.6c-0.5,0-0.9,0.6-1.2,1.9c-0.8,3.6-2.1,22.2-2.2,23.8
		c-0.1,1,0,2.5,0.5,3.8c1.1,2.5,3.8,6.5,7.6,9.3c1.4,1,2.5,1.4,3.2,1.4c0.5,0,1.2-0.4,1.7-0.8c0.8-0.6,1.4-1.2,2.5-1.1
		c1.2,0.1,2.7,1.1,2.7,2.8c0,1.6-1.2,3.2-3.8,3.2c-4.1,0-8.6-4.3-10.4-6.2c-6-5.8-13.2-18.1-16.2-24.7c-2-4.3-4.6-10.1-4.6-14.6
		c0-1.7,0.9-3.4,2.7-3.4c2.2,0,2.8,1.4,2.8,2.5c0,0.9-0.5,1.9-0.8,2.5c-0.2,0.5-0.3,1.8-0.3,2.5c0,3,0.7,4.8,1,6
		c1,3.3,5.1,11.5,7,14.6l0.3,0.1c0.1-4.5,0.6-12.5,1.3-20.3c0.5-6,1.3-7.8,3.4-7.8c4.2,0,7.8,8.4,8.2,9.3c0.1,0.3,0.1,0.5-0.1,0.6
		L1382.8,621.9z"/>
	<path d="M1348.8,640.8c-10,0-15.9-13.7-15.9-21.2c0-4.7,2.7-8,7.3-8c9.1,0,15.7,11.7,15.7,20.4
		C1355.9,637.2,1352.6,640.8,1348.8,640.8z M1349.8,637.5c1.6,0,3.2-1.3,3.2-3.5c0-3.2-1.6-7.4-4-11.1c-3.4-5.6-7.1-8.2-10-8.2
		c-2.3,0-3.5,1.7-3.4,3.8C1335.6,623.1,1342.7,637.5,1349.8,637.5z"/>
	<path d="M1302.4,612.3c0.5,0,0.8,0.1,1,0.5l2.4,6.6c0.8,2.1,1.9,3.9,3.2,5.8c2,2.9,9.3,11.9,12.9,11.9c0.7,0,1.2-0.4,1.2-1.2
		c0-1.5-1.8-5.9-3.6-10c-2.8-6.1-4.5-10.2-4.5-11.9c0-1.1,0.6-2.5,2-2.5c4.4,0,10.1,6,10.6,6.6c0.3,0.3,0.3,0.5,0.1,0.6l-0.6,0.6
		c-0.2,0.2-0.4,0.2-0.6,0c-0.7-0.8-4.1-3.9-5.4-3.9c-0.6,0-1.1,0.3-1.1,1c0,1.2,1.6,4.5,3.4,8.7c2.7,6.4,4.8,10.6,4.9,12.8
		c-0.1,1.6-1.2,2.8-2.5,2.8c-6.8,0-14.1-9.3-17-13.5l-0.4,0.2c0.9,2.3,4.4,10.9,4.4,11.7c0,0.8-0.3,1.6-1.3,1.6
		c-4.7,0-11.1-6.6-11.3-6.9c-0.2-0.3-0.2-0.4,0-0.6l0.7-0.7c0.2-0.3,0.5-0.2,0.6,0c0.5,0.8,4.3,4.3,5.4,4.3c0.5-0.2,0.5-0.2,0.5-0.8
		c0-0.4-0.9-3.6-2.9-8.9l-5.3-14.3c-0.1-0.4,0-0.6,0.6-0.6H1302.4z"/>
</g>
</svg>
