<?xml version="1.0" encoding="utf-8"?>
<!-- Generator: Adobe Illustrator 19.2.1, SVG Export Plug-In . SVG Version: 6.00 Build 0)  -->
<svg version="1.1" id="Layer_1" xmlns="http://www.w3.org/2000/svg" xmlns:xlink="http://www.w3.org/1999/xlink" x="0px" y="0px"
	 viewBox="0 0 2560 1600" style="enable-background:new 0 0 2560 1600;" xml:space="preserve">
<g>
	<path d="M1142.5,621.5c-0.1-0.1-0.2-0.3-0.1-0.6c0.4-0.8,4.1-9.3,8.2-9.3c2.1,0,2.9,1.7,3.4,7.8c0.7,7.8,1.2,15.9,1.3,20.3l0.3-0.1
		c1.9-3.1,6-11.3,7-14.6c0.3-1.2,1-3,1-6c0-0.8-0.1-2-0.3-2.5c-0.3-0.6-0.8-1.6-0.8-2.5c0-1.1,0.6-2.5,2.8-2.5
		c1.9,0,2.7,1.7,2.7,3.4c0,4.5-2.6,10.2-4.6,14.6c-3,6.6-10.2,18.9-16.2,24.7c-1.9,1.9-6.4,6.2-10.4,6.2c-2.7,0-3.8-1.6-3.8-3.2
		c0-1.7,1.5-2.7,2.7-2.8c1.2-0.1,1.8,0.5,2.5,1.1c0.5,0.4,1.2,0.8,1.7,0.8c0.7,0,1.9-0.4,3.2-1.4c3.8-2.8,6.5-6.8,7.6-9.3
		c0.5-1.3,0.6-2.8,0.5-3.8c-0.1-1.6-1.4-20.3-2.2-23.8c-0.3-1.3-0.6-1.9-1.2-1.9c-1.2,0-3.4,4.1-4,5.6c-0.1,0.3-0.4,0.3-0.6,0.2
		L1142.5,621.5z"/>
	<path d="M1180.9,636.7c-4.9-3-10.1-10.4-10.1-20.4c0-4.2,1.1-10.7,6.4-17.1c6-7.3,12.8-8.7,18.6-8.7c4.3,0,10,0.9,15.4,5.4
		c5,4.3,9.4,11.1,9.4,20.5c0,5-1.6,10.2-5.1,15c-4.2,5.6-10.3,9.7-19.8,9.7C1192.3,641.2,1186.3,640.1,1180.9,636.7z M1213.9,617
		c0-15-10.7-23.9-18.3-23.9c-1,0-5.7-0.8-10.8,4.1c-4.6,4.4-6.9,11.3-6.9,17c0,18.1,12.6,24.4,18.4,24.4
		C1211.3,638.6,1213.9,623.1,1213.9,617z"/>
	<path d="M1254.9,626.2c0,3.3,0,6.7,0.1,8.1c0.2,2.1,1,2.4,1.8,2.4c0.4,0,1.4,0,2.3-0.2c0.5-0.1,0.8,0,0.8,0.3l0.2,0.9
		c0.1,0.4-0.1,0.5-0.3,0.6l-7.2,2.4c-0.4,0.1-0.8,0.3-1.4,0.3c-0.3,0-0.5-0.1-0.6-0.8l-0.5-4h-0.1c-1.9,2.7-5.9,4.8-9.3,4.8
		c-1.9,0-4.2-0.2-6.5-3.2c-2.8-3.6-2.7-5.9-2.7-13.5v-8c-0.1-1.9-1-2.4-2.6-2.6c-1.2-0.1-1.5-0.1-1.5-0.5V612c0-0.4,0.1-0.5,0.8-0.5
		h6.1c0.4,0,0.7-0.1,1-0.1c0.3,0,0.5-0.1,0.8-0.1c0.5,0,0.8,0.3,0.8,0.8c-0.1,0.6-0.3,3.8-0.3,7.9v4.9c0,2.7-0.7,7.1,1.5,10.3
		c1.7,2.5,3.6,2.6,5.5,2.6c1.9,0,4.6-1.8,5.9-3.4c0.3-0.3,0.7-1.2,0.7-1.9v-16.4c-0.1-1.9-1.2-2.3-3-2.4c-1.2,0-1.5-0.1-1.5-0.5
		v-1.2c0-0.5,0.1-0.6,0.8-0.6h6.4c0.5,0,0.8-0.1,1.2-0.1c0.3,0,0.6-0.1,0.8-0.1c0.4,0,0.7,0.3,0.6,0.7c-0.1,0.6-0.4,2.4-0.4,9.1
		V626.2z"/>
</g>
<g>
	<path d="M1416.5,621.9c-0.2,0.1-0.5,0.1-0.6-0.2c-0.5-1.5-2.7-5.6-4-5.6c-0.5,0-0.9,0.6-1.2,1.9c-0.8,3.6-2.1,22.2-2.2,23.8
		c-0.1,1,0,2.5,0.5,3.8c1.1,2.5,3.8,6.5,7.6,9.3c1.4,1,2.5,1.4,3.2,1.4c0.5,0,1.2-0.4,1.7-0.8c0.8-0.6,1.4-1.2,2.5-1.1
		c1.2,0.1,2.7,1.1,2.7,2.8c0,1.6-1.2,3.2-3.8,3.2c-4.1,0-8.6-4.3-10.4-6.2c-6-5.8-13.2-18.1-16.2-24.7c-2-4.3-4.6-10.1-4.6-14.6
		c0-1.7,0.9-3.4,2.7-3.4c2.2,0,2.8,1.4,2.8,2.5c0,0.9-0.5,1.9-0.8,2.5c-0.2,0.5-0.3,1.8-0.3,2.5c0,3,0.7,4.8,1,6
		c1,3.3,5.1,11.5,7,14.6l0.3,0.1c0.1-4.5,0.6-12.5,1.3-20.3c0.5-6,1.3-7.8,3.4-7.8c4.2,0,7.8,8.4,8.2,9.3c0.1,0.3,0.1,0.5-0.1,0.6
		L1416.5,621.9z"/>
	<path d="M1364.3,641.2c-9.5,0-15.6-4.1-19.8-9.7c-3.6-4.8-5.1-10-5.1-15c0-9.5,4.4-16.2,9.4-20.5c5.4-4.5,11.1-5.4,15.4-5.4
		c5.8,0,12.6,1.4,18.6,8.7c5.3,6.4,6.4,12.9,6.4,17.1c0,10-5.2,17.4-10.1,20.4C1373.7,640.1,1367.7,641.2,1364.3,641.2z
		 M1363.8,638.6c5.8,0,18.4-6.4,18.4-24.4c0-5.6-2.3-12.6-6.9-17c-5.1-4.9-9.8-4.1-10.8-4.1c-7.6,0-18.3,8.9-18.3,23.9
		C1346.1,623.1,1348.7,638.6,1363.8,638.6z"/>
	<path d="M1305.1,621.1c0-6.7-0.3-8.5-0.4-9.1c-0.1-0.3,0.2-0.7,0.6-0.7c0.2,0,0.5,0.1,0.8,0.1c0.3,0.1,0.7,0.1,1.2,0.1h6.4
		c0.7,0,0.8,0.1,0.8,0.6v1.2c0,0.3-0.3,0.5-1.5,0.5c-1.7,0.1-2.8,0.5-3,2.4v16.4c0,0.6,0.4,1.5,0.7,1.9c1.3,1.6,4.1,3.4,5.9,3.4
		c1.9,0,3.8-0.1,5.5-2.6c2.2-3.2,1.5-7.6,1.5-10.3V620c0-4.1-0.2-7.3-0.3-7.9c-0.1-0.5,0.3-0.8,0.8-0.8c0.2,0,0.5,0.1,0.8,0.1
		c0.3,0.1,0.5,0.1,1,0.1h6.1c0.6,0,0.8,0.1,0.8,0.5v1.2c0,0.3-0.3,0.4-1.5,0.5c-1.6,0.2-2.5,0.7-2.6,2.6v8c0,7.6,0.1,9.8-2.7,13.5
		c-2.3,3-4.5,3.2-6.5,3.2c-3.4,0-7.4-2.1-9.3-4.8h-0.1l-0.5,4c-0.1,0.7-0.3,0.8-0.6,0.8c-0.5,0-1-0.1-1.4-0.3l-7.2-2.4
		c-0.3-0.1-0.4-0.2-0.3-0.6l0.2-0.9c0.1-0.3,0.3-0.4,0.8-0.3c0.8,0.2,1.9,0.2,2.3,0.2c0.8,0,1.6-0.3,1.8-2.4
		c0.1-1.4,0.1-4.8,0.1-8.1V621.1z"/>
</g>
</svg>
