<?xml version="1.0" encoding="utf-8"?>
<!-- Generator: Adobe Illustrator 19.2.1, SVG Export Plug-In . SVG Version: 6.00 Build 0)  -->
<svg version="1.1" id="Layer_1" xmlns="http://www.w3.org/2000/svg" xmlns:xlink="http://www.w3.org/1999/xlink" x="0px" y="0px"
	 viewBox="0 0 2560 1600" style="enable-background:new 0 0 2560 1600;" xml:space="preserve">
<g>
	<path d="M1162.9,655.3c0-1.4,1.5-2.7,3.2-2.7c1.3,0,2.5,0.6,3.2,0.8c0.5,0.1,1,0,1.4-0.4c1-1.2,4.5-9.1,5.5-11.7
		c-0.3-1.7-7.6-23.2-8.2-24.7c-0.8-1.7-1.4-2.9-3.2-2.9h-1.8c-0.5,0-0.5-0.2-0.5-0.6v-1.4c0-0.3,0.1-0.5,0.5-0.5
		c0.6,0,2.3,0.2,6.3,0.2c3.5,0,5.6-0.2,6.4-0.2c0.5,0,0.6,0.2,0.6,0.5v1.4c0,0.3-0.1,0.5-0.4,0.5h-1.3c-0.8,0-1,0.5-0.9,1.5
		c0.2,1.5,4.9,16.7,5.6,18.2h0.3c0.7-1.1,6.7-15.4,7.1-17.1c0.4-1.7-0.1-2.6-1.2-2.6h-1.1c-0.4,0-0.5-0.2-0.5-0.5v-1.4
		c0-0.3,0.1-0.5,0.4-0.5c0.9,0,2.3,0.2,5.6,0.2c1.9,0,3.4-0.2,4.2-0.2c0.4,0,0.4,0.3,0.4,0.5v1.3c0,0.4,0,0.6-0.3,0.6h-1.1
		c-0.8,0-1.7,0.3-2.4,1.2c-1.5,1.9-6,12.4-10.8,23.1c-3.4,7.6-6,14-7.3,16.3c-1,1.8-2.2,4.5-5.8,4.5
		C1164.2,658.8,1162.9,657.4,1162.9,655.3z"/>
	<path d="M1198.3,636.2c-3.2-3.8-3.8-6.3-3.8-11.2c0-3.5,1.9-7.9,5.9-11.1c3.6-2.7,6.9-3.3,9.2-3.3c3.8,0,7.6,1.9,9.6,4
		c3.1,3.2,4.7,6.7,4.7,11.2c0,7.5-6.7,15.1-15.2,15.1C1205.4,641,1201.2,639.7,1198.3,636.2z M1218.1,625.2c0-7.6-5.6-12.4-9.1-12.4
		c-1.9,0-3.6,0.4-5.3,2.2c-2.7,2.7-3.6,5.6-3.6,10.8c0,3.8,0.4,6.5,2.6,9.6c1.6,2.3,3.6,3.6,6.8,3.6
		C1214.8,638.9,1218.1,632.5,1218.1,625.2z"/>
	<path d="M1254.9,626.2c0,3.3,0,6.7,0.1,8.1c0.2,2.1,1,2.4,1.8,2.4c0.4,0,1.4,0,2.3-0.2c0.5-0.1,0.8,0,0.8,0.3l0.2,0.9
		c0.1,0.4-0.1,0.5-0.3,0.6l-7.2,2.4c-0.4,0.1-0.8,0.3-1.4,0.3c-0.3,0-0.5-0.1-0.6-0.8l-0.5-4h-0.1c-1.9,2.7-5.9,4.8-9.3,4.8
		c-1.9,0-4.2-0.2-6.5-3.2c-2.8-3.6-2.7-5.9-2.7-13.5v-8c-0.1-1.9-1-2.4-2.6-2.6c-1.2-0.1-1.5-0.1-1.5-0.5V612c0-0.4,0.1-0.5,0.8-0.5
		h6.1c0.4,0,0.7-0.1,1-0.1c0.3,0,0.5-0.1,0.8-0.1c0.5,0,0.8,0.3,0.8,0.8c-0.1,0.6-0.3,3.8-0.3,7.9v4.9c0,2.7-0.7,7.1,1.5,10.3
		c1.7,2.5,3.6,2.6,5.5,2.6c1.9,0,4.6-1.8,5.9-3.4c0.3-0.3,0.7-1.2,0.7-1.9v-16.4c-0.1-1.9-1.2-2.3-3-2.4c-1.2,0-1.5-0.1-1.5-0.5
		v-1.2c0-0.5,0.1-0.6,0.8-0.6h6.4c0.5,0,0.8-0.1,1.2-0.1c0.3,0,0.6-0.1,0.8-0.1c0.4,0,0.7,0.3,0.6,0.7c-0.1,0.6-0.4,2.4-0.4,9.1
		V626.2z"/>
	<path d="M1063.7,691.8c0-4.4-0.1-11.7-0.2-12.9c-0.1-1.8-0.5-2.5-2.5-2.5h-3.2c-0.4,0-0.5-0.3-0.5-0.7v-1.5c0-0.3,0.1-0.5,0.5-0.5
		c0.8,0,3.2,0.2,8.9,0.2c6.7,0,9.5-0.2,10.2-0.2c0.5,0,0.6,0.2,0.6,0.5v1.6c0,0.3-0.1,0.5-0.7,0.5h-4.1c-2.1,0-2.4,0.7-2.4,2.7
		c0,0.9-0.2,11.3-0.2,16.1v5.9c0,1.2,0,16,0.2,18.8c1.5,0.1,15.1,0.3,17.2,0c4.1-0.6,8.2-8.9,9.1-11.5c0.1-0.3,0.3-0.4,0.5-0.3
		l1.1,0.4c0.2,0.1,0.2,0.2,0.1,0.6c-0.2,0.5-3,11.8-3.4,13.7c-0.9-0.1-6.2-0.1-12.4-0.1c-6.1-0.1-12.8-0.1-16.5-0.1
		c-2.7,0-4.7,0.1-6.1,0.1c-1.4,0.1-2.2,0.1-2.7,0.1s-0.5-0.1-0.5-0.5v-1.7c0-0.3,0.1-0.5,0.5-0.5h3.3c2.5,0,3-1,3-1.9
		c0-1.3,0.2-18.4,0.2-22.6V691.8z"/>
	<path d="M1112.1,719.1c-4.9-3-10.1-10.4-10.1-20.4c0-4.2,1.1-10.7,6.4-17.1c6-7.3,12.8-8.7,18.6-8.7c4.3,0,10,0.9,15.4,5.4
		c5,4.3,9.4,11.1,9.4,20.5c0,5-1.6,10.2-5.1,15c-4.2,5.6-10.3,9.7-19.8,9.7C1123.5,723.6,1117.5,722.5,1112.1,719.1z M1145.1,699.4
		c0-15-10.7-23.9-18.3-23.9c-1,0-5.7-0.8-10.8,4.1c-4.6,4.4-6.9,11.3-6.9,17c0,18.1,12.6,24.4,18.4,24.4
		C1142.5,721,1145.1,705.5,1145.1,699.4z"/>
	<path d="M1169.2,719.1c-4.9-3-10.1-10.4-10.1-20.4c0-4.2,1.1-10.7,6.4-17.1c6-7.3,12.8-8.7,18.6-8.7c4.3,0,10,0.9,15.4,5.4
		c5,4.3,9.4,11.1,9.4,20.5c0,5-1.6,10.2-5.1,15c-4.2,5.6-10.3,9.7-19.8,9.7C1180.6,723.6,1174.6,722.5,1169.2,719.1z M1202.1,699.4
		c0-15-10.7-23.9-18.3-23.9c-1,0-5.7-0.8-10.8,4.1c-4.6,4.4-6.9,11.3-6.9,17c0,18.1,12.6,24.4,18.4,24.4
		C1199.6,721,1202.1,705.5,1202.1,699.4z"/>
	<path d="M1221.4,693.2c0-1.2-0.2-14.6-0.2-15.2c0-0.8-0.3-1.6-2.1-1.6h-2.4c-0.4,0-0.5-0.1-0.5-0.5v-1.8c0-0.3,0.1-0.4,0.5-0.4
		c0.8,0,2.9,0.2,8,0.2c4.6,0,6.9-0.2,7.8-0.2c0.4,0,0.5,0.1,0.5,0.4v1.8c0,0.3-0.1,0.5-0.5,0.5h-2.9c-1.4,0-1.9,0.5-1.9,2.1
		c0,1-0.2,11.7-0.2,15.1v3.4h1.2c1.1,0,1.9-0.3,2.8-1c1.5-1.1,14.2-17.3,14.8-18.2c0.6-1,0.3-1.6-0.6-1.6h-1c-0.3,0-0.3-0.1-0.3-0.5
		v-1.6c0-0.3,0.1-0.5,0.4-0.5c0.8,0,3.6,0.2,6.8,0.2c2,0,4.4-0.2,5.2-0.2c0.3,0,0.5,0.1,0.5,0.3v1.9c0,0.3-0.2,0.5-0.5,0.5h-1.4
		c-1,0-2.5,0.4-3.8,1.3c-2.5,1.9-13,14-16,17.9l18.4,22.8c1.2,1.4,3.2,1.7,4.8,1.7h2.4c0.3,0,0.5,0.2,0.5,0.5v1.7
		c0,0.3-0.1,0.5-0.5,0.5c-0.7,0-3.3-0.2-8.4-0.2c-5.7,0-8.4,0.2-9.3,0.2c-0.3,0-0.4-0.1-0.4-0.4v-1.8c0-0.3,0.1-0.4,0.4-0.4h1
		c1.3,0,1.4-1.2,1.1-1.9c-0.6-1.4-12.8-17.4-13.7-18.1c-1.1-0.9-2-1-3-1h-1.3v4.9c0,3.4,0.1,13.5,0.2,14.5c0.1,0.9,0.7,1.5,1.6,1.5
		h3c0.3,0,0.5,0.1,0.5,0.4v1.8c0,0.3-0.1,0.5-0.4,0.5c-0.8,0-2.9-0.2-7.8-0.2c-5.4,0-7.6,0.2-8.2,0.2c-0.3,0-0.5-0.1-0.5-0.5v-1.8
		c0-0.3,0.2-0.4,0.5-0.4h2.8c1.2,0,1.7-0.5,1.9-1.2c0.1-0.6,0.2-13,0.2-21.6V693.2z"/>
</g>
<g>
	<path d="M1393.2,658.8c-3.6,0-4.9-2.7-5.8-4.5c-1.2-2.3-3.9-8.7-7.3-16.3c-4.7-10.8-9.3-21.3-10.8-23.1c-0.7-0.9-1.6-1.2-2.4-1.2
		h-1.1c-0.3,0-0.3-0.2-0.3-0.6v-1.3c0-0.3,0-0.5,0.4-0.5c0.8,0,2.3,0.2,4.2,0.2c3.3,0,4.7-0.2,5.6-0.2c0.3,0,0.4,0.2,0.4,0.5v1.4
		c0,0.3-0.1,0.5-0.5,0.5h-1.1c-1,0-1.6,0.9-1.2,2.6c0.4,1.7,6.4,16,7.1,17.1h0.3c0.8-1.5,5.4-16.7,5.6-18.2c0.1-1-0.1-1.5-0.9-1.5
		h-1.3c-0.3,0-0.4-0.2-0.4-0.5v-1.4c0-0.3,0.1-0.5,0.6-0.5c0.8,0,2.9,0.2,6.4,0.2c4.1,0,5.7-0.2,6.3-0.2c0.5,0,0.5,0.2,0.5,0.5v1.4
		c0,0.4-0.1,0.6-0.5,0.6h-1.8c-1.8,0-2.4,1.2-3.2,2.9c-0.5,1.4-7.8,22.9-8.2,24.7c1,2.7,4.5,10.5,5.5,11.7c0.4,0.4,1,0.5,1.4,0.4
		c0.6-0.1,1.9-0.8,3.2-0.8c1.6,0,3.2,1.2,3.2,2.7C1397.1,657.4,1395.8,658.8,1393.2,658.8z"/>
	<path d="M1351.3,641c-8.4,0-15.2-7.6-15.2-15.1c0-4.5,1.6-8,4.7-11.2c2.1-2.1,5.8-4,9.6-4c2.3,0,5.6,0.5,9.2,3.3
		c4.1,3.2,5.9,7.6,5.9,11.1c0,4.9-0.6,7.4-3.8,11.2C1358.8,639.7,1354.6,641,1351.3,641z M1350.5,638.9c3.2,0,5.2-1.3,6.8-3.6
		c2.2-3.2,2.6-5.8,2.6-9.6c0-5.2-1-8-3.6-10.8c-1.6-1.8-3.4-2.2-5.3-2.2c-3.5,0-9.1,4.8-9.1,12.4
		C1341.9,632.5,1345.2,638.9,1350.5,638.9z"/>
	<path d="M1305.1,621.1c0-6.7-0.3-8.5-0.4-9.1c-0.1-0.3,0.2-0.7,0.6-0.7c0.2,0,0.5,0.1,0.8,0.1c0.3,0.1,0.7,0.1,1.2,0.1h6.4
		c0.7,0,0.8,0.1,0.8,0.6v1.2c0,0.3-0.3,0.5-1.5,0.5c-1.7,0.1-2.8,0.5-3,2.4v16.4c0,0.6,0.4,1.5,0.7,1.9c1.3,1.6,4.1,3.4,5.9,3.4
		c1.9,0,3.8-0.1,5.5-2.6c2.2-3.2,1.5-7.6,1.5-10.3V620c0-4.1-0.2-7.3-0.3-7.9c-0.1-0.5,0.3-0.8,0.8-0.8c0.2,0,0.5,0.1,0.8,0.1
		c0.3,0.1,0.5,0.1,1,0.1h6.1c0.6,0,0.8,0.1,0.8,0.5v1.2c0,0.3-0.3,0.4-1.5,0.5c-1.6,0.2-2.5,0.7-2.6,2.6v8c0,7.6,0.1,9.8-2.7,13.5
		c-2.3,3-4.5,3.2-6.5,3.2c-3.4,0-7.4-2.1-9.3-4.8h-0.1l-0.5,4c-0.1,0.7-0.3,0.8-0.6,0.8c-0.5,0-1-0.1-1.4-0.3l-7.2-2.4
		c-0.3-0.1-0.4-0.2-0.3-0.6l0.2-0.9c0.1-0.3,0.3-0.4,0.8-0.3c0.8,0.2,1.9,0.2,2.3,0.2c0.8,0,1.6-0.3,1.8-2.4
		c0.1-1.4,0.1-4.8,0.1-8.1V621.1z"/>
	<path d="M1496.3,695.6c0,4.2,0.2,21.3,0.2,22.6c0,0.9,0.4,1.9,3,1.9h3.3c0.4,0,0.5,0.1,0.5,0.5v1.7c0,0.3-0.1,0.5-0.5,0.5
		s-1.3-0.1-2.7-0.1c-1.4,0-3.4-0.1-6.1-0.1c-3.7,0-10.4,0-16.5,0.1c-6.1,0-11.5,0.1-12.4,0.1c-0.4-1.9-3.2-13.2-3.4-13.7
		c-0.1-0.4-0.1-0.5,0.1-0.6l1.1-0.4c0.3-0.1,0.4,0,0.5,0.3c1,2.7,5.1,10.9,9.1,11.5c2.1,0.3,15.7,0.1,17.2,0
		c0.2-2.8,0.2-17.6,0.2-18.8v-5.9c0-4.8-0.2-15.2-0.2-16.1c0-2-0.3-2.7-2.4-2.7h-4.1c-0.5,0-0.7-0.2-0.7-0.5v-1.6
		c0-0.3,0.1-0.5,0.6-0.5c0.6,0,3.5,0.2,10.2,0.2c5.7,0,8.2-0.2,8.9-0.2c0.4,0,0.5,0.1,0.5,0.5v1.5c0,0.3-0.1,0.7-0.5,0.7h-3.2
		c-2.1,0-2.4,0.7-2.5,2.5c-0.1,1.2-0.2,8.5-0.2,12.9V695.6z"/>
	<path d="M1433.1,723.6c-9.5,0-15.6-4.1-19.8-9.7c-3.6-4.8-5.1-10-5.1-15c0-9.5,4.4-16.2,9.4-20.5c5.4-4.5,11.1-5.4,15.4-5.4
		c5.8,0,12.6,1.4,18.6,8.7c5.3,6.4,6.4,12.9,6.4,17.1c0,10-5.2,17.4-10.1,20.4C1442.5,722.5,1436.5,723.6,1433.1,723.6z M1432.6,721
		c5.8,0,18.4-6.4,18.4-24.4c0-5.6-2.3-12.6-6.9-17c-5.1-4.9-9.8-4.1-10.8-4.1c-7.6,0-18.3,8.9-18.3,23.9
		C1414.9,705.5,1417.5,721,1432.6,721z"/>
	<path d="M1376.1,723.6c-9.5,0-15.6-4.1-19.8-9.7c-3.6-4.8-5.1-10-5.1-15c0-9.5,4.4-16.2,9.4-20.5c5.4-4.5,11.1-5.4,15.4-5.4
		c5.8,0,12.6,1.4,18.6,8.7c5.3,6.4,6.4,12.9,6.4,17.1c0,10-5.2,17.4-10.1,20.4C1385.4,722.5,1379.4,723.6,1376.1,723.6z M1375.5,721
		c5.8,0,18.4-6.4,18.4-24.4c0-5.6-2.3-12.6-6.9-17c-5.1-4.9-9.8-4.1-10.8-4.1c-7.6,0-18.3,8.9-18.3,23.9
		C1357.9,705.5,1360.4,721,1375.5,721z"/>
	<path d="M1338.6,697.2c0,8.6,0.1,21,0.2,21.6c0.1,0.7,0.6,1.2,1.9,1.2h2.8c0.3,0,0.5,0.1,0.5,0.4v1.8c0,0.3-0.1,0.5-0.5,0.5
		c-0.6,0-2.8-0.2-8.2-0.2c-4.9,0-6.9,0.2-7.8,0.2c-0.3,0-0.4-0.2-0.4-0.5v-1.8c0-0.3,0.2-0.4,0.5-0.4h3c0.9,0,1.5-0.6,1.6-1.5
		c0.1-1,0.2-11.1,0.2-14.5v-4.9h-1.3c-1,0-1.9,0.1-3,1c-0.9,0.7-13,16.8-13.7,18.1c-0.3,0.7-0.2,1.9,1.1,1.9h1
		c0.3,0,0.4,0.1,0.4,0.4v1.8c0,0.3-0.1,0.4-0.4,0.4c-1,0-3.6-0.2-9.3-0.2c-5.1,0-7.8,0.2-8.4,0.2c-0.4,0-0.5-0.1-0.5-0.5v-1.7
		c0-0.3,0.1-0.5,0.5-0.5h2.4c1.6,0,3.6-0.3,4.8-1.7l18.4-22.8c-3-3.8-13.5-16-16-17.9c-1.2-0.9-2.8-1.3-3.8-1.3h-1.4
		c-0.3,0-0.5-0.1-0.5-0.5v-1.9c0-0.2,0.1-0.3,0.5-0.3c0.8,0,3.2,0.2,5.2,0.2c3.2,0,6-0.2,6.8-0.2c0.3,0,0.4,0.1,0.4,0.5v1.6
		c0,0.3-0.1,0.5-0.3,0.5h-1c-0.9,0-1.2,0.7-0.6,1.6c0.6,0.9,13.3,17.1,14.8,18.2c1,0.7,1.7,1,2.8,1h1.2v-3.4
		c0-3.4-0.2-14.1-0.2-15.1c0-1.6-0.5-2.1-1.9-2.1h-2.9c-0.3,0-0.5-0.1-0.5-0.5v-1.8c0-0.3,0.1-0.4,0.5-0.4c0.9,0,3.2,0.2,7.8,0.2
		c5.1,0,7.2-0.2,8-0.2c0.4,0,0.5,0.1,0.5,0.4v1.8c0,0.3-0.1,0.5-0.5,0.5h-2.4c-1.7,0-2.1,0.9-2.1,1.6c0,0.5-0.2,13.9-0.2,15.2V697.2
		z"/>
</g>
</svg>
