<svg id="Layer_1" data-name="Layer 1" xmlns="http://www.w3.org/2000/svg" viewBox="0 0 2560 1600"><defs><style>.cls-1{fill:#231f20;}</style></defs><title>extra</title><path class="cls-1" d="M90.71,263c0-.76,1.92-8,2-8.24H92.57c-0.76.69-5.29,5.29-6,5.7-1.17.69-2.54,0.69-3.3-.55a2.23,2.23,0,0,1,1-3.16,67.3,67.3,0,0,1,8.17-2.47V254.1c-0.34-.07-7.62-1.92-8.38-2.27a2,2,0,0,1-1-3c0.82-1.51,2.27-1.24,3.3-.69a64.35,64.35,0,0,1,6.18,5.56l0.14-.14c-0.07-.21-2-7.48-2-8.24a2,2,0,0,1,2.2-2.27c1.72,0,2.2.82,2.2,2.27a82.68,82.68,0,0,1-2,8.31l0.14,0.14c0.21-.27,5.42-5.42,6.18-5.84a2.13,2.13,0,0,1,3,.76c1,1.58.21,2.47-.89,3.09a71.45,71.45,0,0,1-8.17,2.27v0.14c0.27,0.07,7.69,2.06,8.38,2.4,0.89,0.41,2.06,1.17.82,3.23-0.76,1.24-2.27,1.1-3.36.48a60.47,60.47,0,0,1-6-5.77l-0.14.14a81.06,81.06,0,0,1,2,8.24,2.09,2.09,0,0,1-2.2,2.4A2.14,2.14,0,0,1,90.71,263Z"/><path class="cls-1" d="M228.71,349c0-.76,1.92-8,2-8.24h-0.14c-0.76.69-5.29,5.29-6,5.7-1.17.69-2.54,0.69-3.3-.55a2.23,2.23,0,0,1,1-3.16,67.3,67.3,0,0,1,8.17-2.47V340.1c-0.34-.07-7.62-1.92-8.38-2.27a2,2,0,0,1-1-3c0.82-1.51,2.27-1.24,3.3-.69a64.35,64.35,0,0,1,6.18,5.56l0.14-.14c-0.07-.21-2-7.48-2-8.24a2,2,0,0,1,2.2-2.27c1.72,0,2.2.82,2.2,2.27a82.68,82.68,0,0,1-2,8.31l0.14,0.14c0.21-.27,5.42-5.42,6.18-5.84a2.13,2.13,0,0,1,3,.76c1,1.58.21,2.47-.89,3.09a71.45,71.45,0,0,1-8.17,2.27v0.14c0.27,0.07,7.69,2.06,8.38,2.4,0.89,0.41,2.06,1.17.82,3.23-0.76,1.24-2.27,1.1-3.36.48a60.47,60.47,0,0,1-6-5.77l-0.14.14a81.06,81.06,0,0,1,2,8.24,2.09,2.09,0,0,1-2.2,2.4A2.14,2.14,0,0,1,228.71,349Z"/></svg>