<svg id="Layer_1" data-name="Layer 1" xmlns="http://www.w3.org/2000/svg" viewBox="0 0 2560 1600"><defs><style>.cls-1{fill:#231f20;}</style></defs><title>extra</title><path class="cls-1" d="M90.71,263c0-.75,1.92-8,2-8.24H92.57c-0.76.69-5.29,5.29-6,5.7-1.17.69-2.54,0.69-3.3-.55a2.23,2.23,0,0,1,1-3.16,67.34,67.34,0,0,1,8.17-2.47V254.1c-0.34-.07-7.62-1.92-8.38-2.27a2,2,0,0,1-1-3c0.82-1.51,2.27-1.24,3.3-.69a64.42,64.42,0,0,1,6.18,5.56l0.14-.14c-0.07-.21-2-7.48-2-8.24a2,2,0,0,1,2.2-2.27c1.72,0,2.2.82,2.2,2.27a82.62,82.62,0,0,1-2,8.31l0.14,0.14c0.21-.27,5.42-5.42,6.18-5.84a2.13,2.13,0,0,1,3,.76c1,1.58.21,2.47-.89,3.09a71.5,71.5,0,0,1-8.17,2.27v0.14c0.27,0.07,7.69,2.06,8.38,2.4,0.89,0.41,2.06,1.17.82,3.23-0.76,1.24-2.27,1.1-3.36.48a60.32,60.32,0,0,1-6-5.77l-0.14.14a81.05,81.05,0,0,1,2,8.24,2.09,2.09,0,0,1-2.2,2.4A2.14,2.14,0,0,1,90.71,263Z"/><path class="cls-1" d="M228.71,349c0-.75,1.92-8,2-8.24h-0.14c-0.76.69-5.29,5.29-6,5.7-1.17.69-2.54,0.69-3.3-.55a2.23,2.23,0,0,1,1-3.16,67.34,67.34,0,0,1,8.17-2.47V340.1c-0.34-.07-7.62-1.92-8.38-2.27a2,2,0,0,1-1-3c0.82-1.51,2.27-1.24,3.3-.69a64.42,64.42,0,0,1,6.18,5.56l0.14-.14c-0.07-.21-2-7.48-2-8.24a2,2,0,0,1,2.2-2.27c1.72,0,2.2.82,2.2,2.27a82.62,82.62,0,0,1-2,8.31l0.14,0.14c0.21-.27,5.42-5.42,6.18-5.84a2.13,2.13,0,0,1,3,.76c1,1.58.21,2.47-.89,3.09a71.5,71.5,0,0,1-8.17,2.27v0.14c0.27,0.07,7.69,2.06,8.38,2.4,0.89,0.41,2.06,1.17.82,3.23-0.76,1.24-2.27,1.1-3.36.48a60.32,60.32,0,0,1-6-5.77l-0.14.14a81.05,81.05,0,0,1,2,8.24,2.09,2.09,0,0,1-2.2,2.4A2.14,2.14,0,0,1,228.71,349Z"/><path class="cls-1" d="M915.68,621.95c0-.75,1.92-8,2-8.24h-0.14c-0.76.69-5.29,5.29-6,5.7-1.17.69-2.54,0.69-3.3-.55a2.23,2.23,0,0,1,1-3.16,67.34,67.34,0,0,1,8.17-2.47v-0.14c-0.34-.07-7.62-1.92-8.38-2.27a2,2,0,0,1-1-3c0.82-1.51,2.27-1.24,3.3-.69a64.42,64.42,0,0,1,6.18,5.56l0.14-.14c-0.07-.21-2-7.48-2-8.24a2,2,0,0,1,2.2-2.27c1.72,0,2.2.82,2.2,2.27a82.62,82.62,0,0,1-2,8.31l0.14,0.14c0.21-.27,5.42-5.42,6.18-5.84a2.13,2.13,0,0,1,3,.76c1,1.58.21,2.47-.89,3.09a71.5,71.5,0,0,1-8.17,2.27v0.14c0.27,0.07,7.69,2.06,8.38,2.4,0.89,0.41,2.06,1.17.82,3.23-0.76,1.24-2.27,1.1-3.36.48a60.32,60.32,0,0,1-6-5.77l-0.14.14a81.05,81.05,0,0,1,2,8.24,2.09,2.09,0,0,1-2.2,2.4A2.14,2.14,0,0,1,915.68,621.95Z"/><path class="cls-1" d="M1086.69,123.9c0-.75,1.92-8,2-8.24h-0.14c-0.76.69-5.29,5.29-6,5.7-1.17.69-2.54,0.69-3.3-.55a2.23,2.23,0,0,1,1-3.16,67.34,67.34,0,0,1,8.17-2.47V115c-0.34-.07-7.62-1.92-8.38-2.27a2,2,0,0,1-1-3c0.82-1.51,2.27-1.24,3.3-.69a64.27,64.27,0,0,1,6.18,5.56l0.14-.14c-0.07-.21-2-7.48-2-8.24a2,2,0,0,1,2.2-2.27c1.72,0,2.2.82,2.2,2.27a82.59,82.59,0,0,1-2,8.31l0.14,0.14c0.21-.27,5.42-5.42,6.18-5.84a2.13,2.13,0,0,1,3,.76c1,1.58.21,2.47-.89,3.09a71.5,71.5,0,0,1-8.17,2.27v0.14c0.27,0.07,7.69,2.06,8.38,2.4,0.89,0.41,2.06,1.17.82,3.23-0.76,1.24-2.27,1.1-3.36.48a60.42,60.42,0,0,1-6-5.77l-0.14.14a81,81,0,0,1,2,8.24,2.09,2.09,0,0,1-2.2,2.4A2.14,2.14,0,0,1,1086.69,123.9Z"/><path class="cls-1" d="M1289.06,283.9c0-.75,1.92-8,2-8.24h-0.14c-0.76.69-5.29,5.29-6,5.7-1.17.69-2.54,0.69-3.3-.55a2.23,2.23,0,0,1,1-3.16,67.34,67.34,0,0,1,8.17-2.47V275c-0.34-.07-7.62-1.92-8.38-2.27a2,2,0,0,1-1-3c0.82-1.51,2.27-1.24,3.3-.69a64.31,64.31,0,0,1,6.18,5.56l0.14-.14c-0.07-.21-2-7.48-2-8.24a2,2,0,0,1,2.2-2.27c1.72,0,2.2.82,2.2,2.27a82.66,82.66,0,0,1-2,8.31l0.14,0.14c0.21-.27,5.42-5.42,6.18-5.84a2.13,2.13,0,0,1,3,.76c1,1.58.21,2.47-.89,3.09a71.5,71.5,0,0,1-8.17,2.27v0.14c0.27,0.07,7.69,2.06,8.38,2.4,0.89,0.41,2.06,1.17.82,3.23-0.76,1.24-2.27,1.1-3.36.48a60.44,60.44,0,0,1-6-5.77l-0.14.14a81.09,81.09,0,0,1,2,8.24,2.09,2.09,0,0,1-2.2,2.4A2.14,2.14,0,0,1,1289.06,283.9Z"/><path class="cls-1" d="M746.69,349c0-.75,1.92-8,2-8.24h-0.14c-0.76.69-5.29,5.29-6,5.7-1.17.69-2.54,0.69-3.3-.55a2.23,2.23,0,0,1,1-3.16,67.34,67.34,0,0,1,8.17-2.47V340.1c-0.34-.07-7.62-1.92-8.38-2.27a2,2,0,0,1-1-3c0.82-1.51,2.27-1.24,3.3-.69a64.42,64.42,0,0,1,6.18,5.56l0.14-.14c-0.07-.21-2-7.48-2-8.24a2,2,0,0,1,2.2-2.27c1.72,0,2.2.82,2.2,2.27a82.62,82.62,0,0,1-2,8.31l0.14,0.14c0.21-.27,5.42-5.42,6.18-5.84a2.13,2.13,0,0,1,3,.76c1,1.58.21,2.47-.89,3.09a71.5,71.5,0,0,1-8.17,2.27v0.14c0.27,0.07,7.69,2.06,8.38,2.4,0.89,0.41,2.06,1.17.82,3.23-0.76,1.24-2.27,1.1-3.36.48a60.32,60.32,0,0,1-6-5.77l-0.14.14a81.05,81.05,0,0,1,2,8.24,2.09,2.09,0,0,1-2.2,2.4A2.14,2.14,0,0,1,746.69,349Z"/><path class="cls-1" d="M200.71,105c0-.75,1.92-8,2-8.24h-0.14c-0.76.69-5.29,5.29-6,5.7-1.17.69-2.54,0.69-3.3-.55a2.23,2.23,0,0,1,1-3.16,67.34,67.34,0,0,1,8.17-2.47V96.1c-0.34-.07-7.62-1.92-8.38-2.27a2,2,0,0,1-1-3c0.82-1.51,2.27-1.24,3.3-.69a64.42,64.42,0,0,1,6.18,5.56l0.14-.14c-0.07-.21-2-7.48-2-8.24a2,2,0,0,1,2.2-2.27c1.72,0,2.2.82,2.2,2.27a82.62,82.62,0,0,1-2,8.31l0.14,0.14c0.21-.27,5.42-5.42,6.18-5.84a2.13,2.13,0,0,1,3,.76c1,1.58.21,2.47-.89,3.09a71.5,71.5,0,0,1-8.17,2.27v0.14c0.27,0.07,7.69,2.06,8.38,2.4,0.89,0.41,2.06,1.17.82,3.23-0.76,1.24-2.27,1.1-3.36.48a60.32,60.32,0,0,1-6-5.77l-0.14.14a81.05,81.05,0,0,1,2,8.24,2.09,2.09,0,0,1-2.2,2.4A2.14,2.14,0,0,1,200.71,105Z"/><path class="cls-1" d="M160.65,172.78c0-2.33-.41-3.57-3.85-4.12-0.48-.07-0.62-0.21-0.62-0.48v-0.62a0.56,0.56,0,0,1,.48-0.48,56.29,56.29,0,0,0,7.42-3.36,2.84,2.84,0,0,1,1.3-.41c0.34,0,.41.34,0.34,0.82-0.14,1.17-.14,5.49-0.14,11.19v7.48c0,2.68,0,5.15.07,5.91,0.14,1.3.34,1.79,1.1,1.79h3.16c0.55,0,.69.21,0.69,0.62v1.17c0,0.48-.14.69-0.62,0.69s-3.71-.21-6.59-0.21c-4,0-6.66.21-7.42,0.21a0.48,0.48,0,0,1-.55-0.55V191c0-.41.21-0.55,0.69-0.55h3.36c0.76,0,1-.28,1.1-1.37,0.07-2.06.07-4.19,0.07-6.25V172.78Zm-3.23-21.08a4.05,4.05,0,0,1,4.33-3.84,3.62,3.62,0,0,1,3.71,3.64,3.93,3.93,0,0,1-4.12,4.05A4.19,4.19,0,0,1,157.42,151.7Z"/><path class="cls-1" d="M1403.15,289.74a3.16,3.16,0,0,0,2.4-1c0.27-.34.41-0.48,0.69-0.28l0.69,0.55a0.91,0.91,0,0,1-.07,1.24,5.67,5.67,0,0,1-5.36,3.37c-2.47,0-4.26-1.79-4.88-4.6h-0.14a14.8,14.8,0,0,1-6.8,4.19,12.9,12.9,0,0,1-4.05.41c-1.65,0-4.12-1.37-4.12-5.7,0-3.16,1.44-5.91,6.87-8.31,3.09-1.37,6.66-3,7.76-4V271.2c-0.14-1.17-.21-3-1-3.85a5.22,5.22,0,0,0-4.12-1.51,7.69,7.69,0,0,0-4.46,1.44c-1,.89-0.34,1.92-0.34,3.16,0,2.4-.82,3.91-3.64,3.91-1.1,0-1.65-.62-1.65-2.2,0-2.2,1.92-4.81,4.74-6.45a15.14,15.14,0,0,1,8.38-2.4c3.23,0,4.53,1,5.49,1.85,1.44,1.44,1.51,3,1.51,4.88v14.56C1401.09,288.5,1401.91,289.74,1403.15,289.74Zm-7.07-12.08c-2.47,1.85-9.2,3.23-9.2,8.93,0,2.54,1.51,3.78,3.57,3.78s5.63-2.4,5.63-4.26v-8.45Z"/></svg>