<svg id="Layer_1" data-name="Layer 1" xmlns="http://www.w3.org/2000/svg" viewBox="0 0 2560 1600"><defs><style>.cls-1{fill:#231f20;}</style></defs><title>extra</title><path class="cls-1" d="M90.71,263c0-.76,1.92-8,2-8.24H92.57c-0.76.69-5.29,5.29-6,5.7-1.17.69-2.54,0.69-3.3-.55a2.23,2.23,0,0,1,1-3.16,67.35,67.35,0,0,1,8.17-2.47V254.1c-0.34-.07-7.62-1.92-8.38-2.27a2,2,0,0,1-1-3c0.82-1.51,2.27-1.24,3.3-.69a64.35,64.35,0,0,1,6.18,5.56l0.14-.14c-0.07-.21-2-7.48-2-8.24a2,2,0,0,1,2.2-2.27c1.72,0,2.2.82,2.2,2.27a82.64,82.64,0,0,1-2,8.31l0.14,0.14c0.21-.27,5.42-5.42,6.18-5.84a2.13,2.13,0,0,1,3,.76c1,1.58.21,2.47-.89,3.09a71.5,71.5,0,0,1-8.17,2.27v0.14c0.27,0.07,7.69,2.06,8.38,2.4,0.89,0.41,2.06,1.17.82,3.23-0.76,1.24-2.27,1.1-3.36.48a60.43,60.43,0,0,1-6-5.77l-0.14.14a81,81,0,0,1,2,8.24,2.09,2.09,0,0,1-2.2,2.4A2.14,2.14,0,0,1,90.71,263Z"/><path class="cls-1" d="M228.71,349c0-.76,1.92-8,2-8.24h-0.14c-0.76.69-5.29,5.29-6,5.7-1.17.69-2.54,0.69-3.3-.55a2.23,2.23,0,0,1,1-3.16,67.35,67.35,0,0,1,8.17-2.47V340.1c-0.34-.07-7.62-1.92-8.38-2.27a2,2,0,0,1-1-3c0.82-1.51,2.27-1.24,3.3-.69a64.35,64.35,0,0,1,6.18,5.56l0.14-.14c-0.07-.21-2-7.48-2-8.24a2,2,0,0,1,2.2-2.27c1.72,0,2.2.82,2.2,2.27a82.64,82.64,0,0,1-2,8.31l0.14,0.14c0.21-.27,5.42-5.42,6.18-5.84a2.13,2.13,0,0,1,3,.76c1,1.58.21,2.47-.89,3.09a71.5,71.5,0,0,1-8.17,2.27v0.14c0.27,0.07,7.69,2.06,8.38,2.4,0.89,0.41,2.06,1.17.82,3.23-0.76,1.24-2.27,1.1-3.36.48a60.43,60.43,0,0,1-6-5.77l-0.14.14a81,81,0,0,1,2,8.24,2.09,2.09,0,0,1-2.2,2.4A2.14,2.14,0,0,1,228.71,349Z"/><path class="cls-1" d="M915.68,621.95c0-.76,1.92-8,2-8.24h-0.14c-0.76.69-5.29,5.29-6,5.7-1.17.69-2.54,0.69-3.3-.55a2.23,2.23,0,0,1,1-3.16,67.35,67.35,0,0,1,8.17-2.47v-0.14c-0.34-.07-7.62-1.92-8.38-2.27a2,2,0,0,1-1-3c0.82-1.51,2.27-1.24,3.3-.69a64.35,64.35,0,0,1,6.18,5.56l0.14-.14c-0.07-.21-2-7.48-2-8.24a2,2,0,0,1,2.2-2.27c1.72,0,2.2.82,2.2,2.27a82.64,82.64,0,0,1-2,8.31l0.14,0.14c0.21-.27,5.42-5.42,6.18-5.84a2.13,2.13,0,0,1,3,.76c1,1.58.21,2.47-.89,3.09a71.5,71.5,0,0,1-8.17,2.27v0.14c0.27,0.07,7.69,2.06,8.38,2.4,0.89,0.41,2.06,1.17.82,3.23-0.76,1.24-2.27,1.1-3.36.48a60.43,60.43,0,0,1-6-5.77l-0.14.14a81,81,0,0,1,2,8.24,2.09,2.09,0,0,1-2.2,2.4A2.14,2.14,0,0,1,915.68,621.95Z"/><path class="cls-1" d="M200.71,105c0-.76,1.92-8,2-8.24h-0.14c-0.76.69-5.29,5.29-6,5.7-1.17.69-2.54,0.69-3.3-.55a2.23,2.23,0,0,1,1-3.16,67.35,67.35,0,0,1,8.17-2.47V96.1c-0.34-.07-7.62-1.92-8.38-2.27a2,2,0,0,1-1-3c0.82-1.51,2.27-1.24,3.3-.69a64.35,64.35,0,0,1,6.18,5.56l0.14-.14c-0.07-.21-2-7.48-2-8.24a2,2,0,0,1,2.2-2.27c1.72,0,2.2.82,2.2,2.27a82.64,82.64,0,0,1-2,8.31l0.14,0.14c0.21-.27,5.42-5.42,6.18-5.84a2.13,2.13,0,0,1,3,.76c1,1.58.21,2.47-.89,3.09a71.5,71.5,0,0,1-8.17,2.27v0.14c0.27,0.07,7.69,2.06,8.38,2.4,0.89,0.41,2.06,1.17.82,3.23-0.76,1.24-2.27,1.1-3.36.48a60.43,60.43,0,0,1-6-5.77l-0.14.14a81,81,0,0,1,2,8.24,2.09,2.09,0,0,1-2.2,2.4A2.14,2.14,0,0,1,200.71,105Z"/><path class="cls-1" d="M160.65,172.78c0-2.33-.41-3.57-3.85-4.12-0.48-.07-0.62-0.21-0.62-0.48v-0.62a0.56,0.56,0,0,1,.48-0.48,56.17,56.17,0,0,0,7.42-3.36,2.83,2.83,0,0,1,1.3-.41c0.34,0,.41.34,0.34,0.82-0.14,1.17-.14,5.49-0.14,11.19v7.48c0,2.68,0,5.15.07,5.91,0.14,1.3.34,1.79,1.1,1.79h3.16c0.55,0,.69.21,0.69,0.62v1.17c0,0.48-.14.69-0.62,0.69s-3.71-.21-6.59-0.21c-4,0-6.66.21-7.42,0.21a0.48,0.48,0,0,1-.55-0.55V191c0-.41.21-0.55,0.69-0.55h3.36c0.76,0,1-.27,1.1-1.37,0.07-2.06.07-4.19,0.07-6.25V172.78Zm-3.23-21.08a4.05,4.05,0,0,1,4.33-3.85,3.62,3.62,0,0,1,3.71,3.64,3.93,3.93,0,0,1-4.12,4.05A4.18,4.18,0,0,1,157.42,151.7Z"/></svg>