<svg id="Layer_1" data-name="Layer 1" xmlns="http://www.w3.org/2000/svg" viewBox="0 0 2560 1600"><defs><style>.cls-1{fill:#231f20;}</style></defs><title>extra</title><path class="cls-1" d="M90.71,263c0-.76,1.92-8,2-8.24H92.57c-0.75.69-5.29,5.29-6,5.7-1.17.69-2.54,0.69-3.3-.55a2.23,2.23,0,0,1,1-3.16,67.35,67.35,0,0,1,8.17-2.47V254.1c-0.34-.07-7.62-1.92-8.38-2.27a2,2,0,0,1-1-3c0.82-1.51,2.27-1.24,3.3-.69a64.31,64.31,0,0,1,6.18,5.56l0.14-.14c-0.07-.21-2-7.48-2-8.24a2,2,0,0,1,2.2-2.27c1.72,0,2.2.82,2.2,2.27a82.54,82.54,0,0,1-2,8.31l0.14,0.14c0.21-.27,5.42-5.42,6.18-5.84a2.13,2.13,0,0,1,3,.76c1,1.58.21,2.47-.89,3.09a71.49,71.49,0,0,1-8.17,2.27v0.14c0.27,0.07,7.69,2.06,8.38,2.4,0.89,0.41,2.06,1.17.82,3.23-0.76,1.24-2.27,1.1-3.36.48a60.4,60.4,0,0,1-6-5.77l-0.14.14a80.93,80.93,0,0,1,2,8.24,2.09,2.09,0,0,1-2.2,2.4A2.14,2.14,0,0,1,90.71,263Z"/><path class="cls-1" d="M228.71,349c0-.76,1.92-8,2-8.24h-0.14c-0.76.69-5.29,5.29-6,5.7-1.17.69-2.54,0.69-3.3-.55a2.23,2.23,0,0,1,1-3.16,67.35,67.35,0,0,1,8.17-2.47V340.1c-0.34-.07-7.62-1.92-8.38-2.27a2,2,0,0,1-1-3c0.82-1.51,2.27-1.24,3.3-.69a64.31,64.31,0,0,1,6.18,5.56l0.14-.14c-0.07-.21-2-7.48-2-8.24a2,2,0,0,1,2.2-2.27c1.72,0,2.2.82,2.2,2.27a82.55,82.55,0,0,1-2,8.31l0.14,0.14c0.21-.27,5.42-5.42,6.18-5.84a2.13,2.13,0,0,1,3,.76c1,1.58.21,2.47-.89,3.09a71.49,71.49,0,0,1-8.17,2.27v0.14c0.27,0.07,7.69,2.06,8.38,2.4,0.89,0.41,2.06,1.17.82,3.23-0.76,1.24-2.27,1.1-3.36.48a60.4,60.4,0,0,1-6-5.77l-0.14.14a80.93,80.93,0,0,1,2,8.24,2.09,2.09,0,0,1-2.2,2.4A2.14,2.14,0,0,1,228.71,349Z"/><path class="cls-1" d="M915.68,621.95c0-.76,1.92-8,2-8.24h-0.14c-0.76.69-5.29,5.29-6,5.7-1.17.69-2.54,0.69-3.3-.55a2.23,2.23,0,0,1,1-3.16,67.37,67.37,0,0,1,8.17-2.47v-0.14c-0.34-.07-7.62-1.92-8.38-2.27a2,2,0,0,1-1-3c0.82-1.51,2.27-1.24,3.3-.69a64.48,64.48,0,0,1,6.18,5.56l0.14-.14c-0.07-.21-2-7.48-2-8.24a2,2,0,0,1,2.2-2.27c1.72,0,2.2.82,2.2,2.27a82.55,82.55,0,0,1-2,8.31l0.14,0.14c0.21-.27,5.42-5.42,6.18-5.84a2.13,2.13,0,0,1,3,.76c1,1.58.21,2.47-.89,3.09a71.5,71.5,0,0,1-8.17,2.27v0.14c0.28,0.07,7.69,2.06,8.38,2.4,0.89,0.41,2.06,1.17.82,3.23-0.75,1.24-2.27,1.1-3.36.48a60.4,60.4,0,0,1-6-5.77l-0.14.14a80.93,80.93,0,0,1,2,8.24,2.09,2.09,0,0,1-2.2,2.4A2.14,2.14,0,0,1,915.68,621.95Z"/><path class="cls-1" d="M138.6,1486c0-.76,1.92-8,2-8.24h-0.14c-0.76.69-5.29,5.29-6,5.7-1.17.69-2.54,0.69-3.3-.55a2.23,2.23,0,0,1,1-3.16,67.26,67.26,0,0,1,8.17-2.47v-0.14c-0.34-.07-7.62-1.92-8.38-2.27a2,2,0,0,1-1-3c0.82-1.51,2.27-1.24,3.3-.69a64.37,64.37,0,0,1,6.18,5.56l0.14-.14c-0.07-.21-2-7.48-2-8.24a2,2,0,0,1,2.2-2.27c1.72,0,2.2.82,2.2,2.27a82.58,82.58,0,0,1-2,8.31l0.14,0.14c0.21-.27,5.42-5.42,6.18-5.84a2.13,2.13,0,0,1,3,.75c1,1.58.21,2.47-.89,3.09a71.4,71.4,0,0,1-8.17,2.27v0.14c0.27,0.07,7.69,2.06,8.38,2.4,0.89,0.41,2.06,1.17.82,3.23-0.76,1.24-2.27,1.1-3.36.48a60.46,60.46,0,0,1-6-5.77l-0.14.14a80.93,80.93,0,0,1,2,8.24,2.09,2.09,0,0,1-2.2,2.4A2.14,2.14,0,0,1,138.6,1486Z"/><path class="cls-1" d="M72.59,1009c0-.76,1.92-8,2-8.24H74.45c-0.75.69-5.29,5.29-6,5.7-1.17.69-2.54,0.69-3.3-.55a2.23,2.23,0,0,1,1-3.16,67.26,67.26,0,0,1,8.17-2.47v-0.14c-0.34-.07-7.62-1.92-8.38-2.27a2,2,0,0,1-1-3c0.82-1.51,2.27-1.24,3.3-.69a64.37,64.37,0,0,1,6.18,5.56l0.14-.14c-0.07-.21-2-7.48-2-8.24a2,2,0,0,1,2.2-2.27c1.72,0,2.2.82,2.2,2.27a82.57,82.57,0,0,1-2,8.31l0.14,0.14c0.21-.27,5.42-5.42,6.18-5.84a2.13,2.13,0,0,1,3,.75c1,1.58.21,2.47-.89,3.09a71.4,71.4,0,0,1-8.17,2.27v0.14c0.27,0.07,7.69,2.06,8.38,2.4,0.89,0.41,2.06,1.17.82,3.23-0.76,1.24-2.27,1.1-3.36.48a60.46,60.46,0,0,1-6-5.77l-0.14.14a80.93,80.93,0,0,1,2,8.24,2.09,2.09,0,0,1-2.2,2.4A2.14,2.14,0,0,1,72.59,1009Z"/><path class="cls-1" d="M453.63,1222c0-.76,1.92-8,2-8.24h-0.14c-0.76.69-5.29,5.29-6,5.7-1.17.69-2.54,0.69-3.29-.55a2.23,2.23,0,0,1,1-3.16,67.33,67.33,0,0,1,8.17-2.47v-0.14c-0.34-.07-7.62-1.92-8.38-2.27a2,2,0,0,1-1-3c0.82-1.51,2.27-1.24,3.3-.69a64.55,64.55,0,0,1,6.18,5.56l0.14-.14c-0.07-.21-2-7.48-2-8.24a2,2,0,0,1,2.2-2.27c1.72,0,2.2.82,2.2,2.27a82.58,82.58,0,0,1-2,8.31l0.14,0.14c0.21-.27,5.42-5.42,6.18-5.84a2.13,2.13,0,0,1,3,.75c1,1.58.21,2.47-.89,3.09a71.41,71.41,0,0,1-8.17,2.27v0.14c0.28,0.07,7.69,2.06,8.38,2.4,0.89,0.41,2.06,1.17.82,3.23-0.75,1.24-2.27,1.1-3.36.48a60.46,60.46,0,0,1-6-5.77l-0.14.14a80.93,80.93,0,0,1,2,8.24,2.09,2.09,0,0,1-2.2,2.4A2.14,2.14,0,0,1,453.63,1222Z"/><path class="cls-1" d="M915.68,1537.12c0-.76,1.92-8,2-8.24h-0.14c-0.76.69-5.29,5.29-6,5.7-1.17.69-2.54,0.69-3.3-.55a2.23,2.23,0,0,1,1-3.16,67.37,67.37,0,0,1,8.17-2.47v-0.14c-0.34-.07-7.62-1.92-8.38-2.27a2,2,0,0,1-1-3c0.82-1.51,2.27-1.24,3.3-.69a64.48,64.48,0,0,1,6.18,5.56l0.14-.14c-0.07-.21-2-7.48-2-8.24a2,2,0,0,1,2.2-2.27c1.72,0,2.2.82,2.2,2.27a82.55,82.55,0,0,1-2,8.31l0.14,0.14c0.21-.27,5.42-5.42,6.18-5.84a2.13,2.13,0,0,1,3,.76c1,1.58.21,2.47-.89,3.09a71.5,71.5,0,0,1-8.17,2.27v0.14c0.28,0.07,7.69,2.06,8.38,2.4,0.89,0.41,2.06,1.17.82,3.23-0.75,1.24-2.27,1.1-3.36.48a60.4,60.4,0,0,1-6-5.77l-0.14.14a80.93,80.93,0,0,1,2,8.24,2.09,2.09,0,0,1-2.2,2.4A2.14,2.14,0,0,1,915.68,1537.12Z"/><path class="cls-1" d="M849.21,1293.4c0-.76,1.92-8,2-8.24h-0.14c-0.76.69-5.29,5.29-6,5.7-1.17.69-2.54,0.69-3.29-.55a2.23,2.23,0,0,1,1-3.16,67.33,67.33,0,0,1,8.17-2.47v-0.14c-0.34-.07-7.62-1.92-8.38-2.27a2,2,0,0,1-1-3c0.82-1.51,2.27-1.24,3.3-.69a64.55,64.55,0,0,1,6.18,5.56l0.14-.14c-0.07-.21-2-7.48-2-8.24a2,2,0,0,1,2.2-2.27c1.72,0,2.2.82,2.2,2.27a82.58,82.58,0,0,1-2,8.31l0.14,0.14c0.21-.27,5.42-5.42,6.18-5.84a2.13,2.13,0,0,1,3,.75c1,1.58.21,2.47-.89,3.09a71.41,71.41,0,0,1-8.17,2.27v0.14c0.28,0.07,7.69,2.06,8.38,2.4,0.89,0.41,2.06,1.17.82,3.23-0.75,1.24-2.27,1.1-3.36.48a60.46,60.46,0,0,1-6-5.77l-0.14.14a80.93,80.93,0,0,1,2,8.24,2.09,2.09,0,0,1-2.2,2.4A2.14,2.14,0,0,1,849.21,1293.4Z"/><path class="cls-1" d="M1459.75,717.33c0-.76,1.92-8,2-8.24h-0.14c-0.76.69-5.29,5.29-6,5.7-1.17.69-2.54,0.69-3.29-.55a2.23,2.23,0,0,1,1-3.16,67.42,67.42,0,0,1,8.17-2.47v-0.14c-0.34-.07-7.62-1.92-8.38-2.27a2,2,0,0,1-1-3c0.82-1.51,2.27-1.24,3.3-.69a64.48,64.48,0,0,1,6.18,5.56l0.14-.14c-0.07-.21-2-7.48-2-8.24a2,2,0,0,1,2.2-2.27c1.72,0,2.2.82,2.2,2.27a82.54,82.54,0,0,1-2,8.31l0.14,0.14c0.21-.27,5.42-5.42,6.18-5.84a2.13,2.13,0,0,1,3,.76c1,1.58.21,2.47-.89,3.09a71.5,71.5,0,0,1-8.17,2.27v0.14c0.28,0.07,7.69,2.06,8.38,2.4,0.89,0.41,2.06,1.17.82,3.23-0.75,1.24-2.27,1.1-3.36.48a60.4,60.4,0,0,1-6-5.77l-0.14.14a80.93,80.93,0,0,1,2,8.24,2.09,2.09,0,0,1-2.2,2.4A2.14,2.14,0,0,1,1459.75,717.33Z"/><path class="cls-1" d="M1208.64,648.4c0-.76,1.92-8,2-8.24h-0.14c-0.76.69-5.29,5.29-6,5.7-1.17.69-2.54,0.69-3.29-.55a2.23,2.23,0,0,1,1-3.16,67.42,67.42,0,0,1,8.17-2.47v-0.14c-0.34-.07-7.62-1.92-8.38-2.27a2,2,0,0,1-1-3c0.82-1.51,2.27-1.24,3.3-.69a64.48,64.48,0,0,1,6.18,5.56l0.14-.14c-0.07-.21-2-7.48-2-8.24a2,2,0,0,1,2.2-2.27c1.72,0,2.2.82,2.2,2.27a82.54,82.54,0,0,1-2,8.31l0.14,0.14c0.21-.27,5.42-5.42,6.18-5.84a2.13,2.13,0,0,1,3,.76c1,1.58.21,2.47-.89,3.09a71.5,71.5,0,0,1-8.17,2.27v0.14c0.28,0.07,7.69,2.06,8.38,2.4,0.89,0.41,2.06,1.17.82,3.23-0.75,1.24-2.27,1.1-3.36.48a60.4,60.4,0,0,1-6-5.77l-0.14.14a80.93,80.93,0,0,1,2,8.24,2.09,2.09,0,0,1-2.2,2.4A2.14,2.14,0,0,1,1208.64,648.4Z"/><path class="cls-1" d="M1334.19,884.74c0-.76,1.92-8,2-8.24H1336c-0.76.69-5.29,5.29-6,5.7-1.17.69-2.54,0.69-3.3-.55a2.23,2.23,0,0,1,1-3.16A67.28,67.28,0,0,1,1336,876v-0.14c-0.34-.07-7.62-1.92-8.38-2.27a2,2,0,0,1-1-3c0.82-1.51,2.27-1.24,3.3-.69a64.55,64.55,0,0,1,6.18,5.56l0.14-.14c-0.07-.21-2-7.48-2-8.24a2,2,0,0,1,2.2-2.27c1.72,0,2.2.82,2.2,2.27a82.58,82.58,0,0,1-2,8.31l0.14,0.14c0.21-.27,5.42-5.42,6.18-5.84a2.13,2.13,0,0,1,3,.75c1,1.58.21,2.47-.89,3.09a71.41,71.41,0,0,1-8.17,2.27V876c0.28,0.07,7.69,2.06,8.38,2.4,0.89,0.41,2.06,1.17.82,3.23-0.75,1.24-2.27,1.1-3.36.48a60.46,60.46,0,0,1-6-5.77l-0.14.14a80.93,80.93,0,0,1,2,8.24,2.09,2.09,0,0,1-2.2,2.4A2.14,2.14,0,0,1,1334.19,884.74Z"/><path class="cls-1" d="M1358.19,1367.78c0-.76,1.92-8,2-8.24H1360c-0.76.69-5.29,5.29-6,5.7-1.17.69-2.54,0.69-3.3-.55a2.23,2.23,0,0,1,1-3.16,67.28,67.28,0,0,1,8.17-2.47v-0.14c-0.34-.07-7.62-1.92-8.38-2.27a2,2,0,0,1-1-3c0.82-1.51,2.27-1.24,3.3-.69a64.55,64.55,0,0,1,6.18,5.56l0.14-.14c-0.07-.21-2-7.48-2-8.24a2,2,0,0,1,2.2-2.27c1.72,0,2.2.82,2.2,2.27a82.58,82.58,0,0,1-2,8.31l0.14,0.14c0.21-.27,5.42-5.42,6.18-5.84a2.13,2.13,0,0,1,3,.75c1,1.58.21,2.47-.89,3.09a71.41,71.41,0,0,1-8.17,2.27v0.14c0.28,0.07,7.69,2.06,8.38,2.4,0.89,0.41,2.06,1.17.82,3.23-0.75,1.24-2.27,1.1-3.36.48a60.46,60.46,0,0,1-6-5.77l-0.14.14a80.93,80.93,0,0,1,2,8.24,2.09,2.09,0,0,1-2.2,2.4A2.14,2.14,0,0,1,1358.19,1367.78Z"/><path class="cls-1" d="M1437.69,1466.78c0-.76,1.92-8,2-8.24h-0.14c-0.76.69-5.29,5.29-6,5.7-1.17.69-2.54,0.69-3.3-.55a2.23,2.23,0,0,1,1-3.16,67.28,67.28,0,0,1,8.17-2.47v-0.14c-0.34-.07-7.62-1.92-8.38-2.27a2,2,0,0,1-1-3c0.82-1.51,2.27-1.24,3.3-.69a64.55,64.55,0,0,1,6.18,5.56l0.14-.14c-0.07-.21-2-7.48-2-8.24a2,2,0,0,1,2.2-2.27c1.72,0,2.2.82,2.2,2.27a82.58,82.58,0,0,1-2,8.31l0.14,0.14c0.21-.27,5.42-5.42,6.18-5.84a2.13,2.13,0,0,1,3,.75c1,1.58.21,2.47-.89,3.09a71.41,71.41,0,0,1-8.17,2.27v0.14c0.28,0.07,7.69,2.06,8.38,2.4,0.89,0.41,2.06,1.17.82,3.23-0.75,1.24-2.27,1.1-3.36.48a60.46,60.46,0,0,1-6-5.77l-0.14.14a80.93,80.93,0,0,1,2,8.24,2.09,2.09,0,0,1-2.2,2.4A2.14,2.14,0,0,1,1437.69,1466.78Z"/><path class="cls-1" d="M1086.7,123.9c0-.76,1.92-8,2-8.24h-0.14c-0.76.69-5.29,5.29-6,5.7-1.17.69-2.54,0.69-3.3-.55a2.23,2.23,0,0,1,1-3.16,67.37,67.37,0,0,1,8.17-2.47V115c-0.34-.07-7.62-1.92-8.38-2.27a2,2,0,0,1-1-3c0.82-1.51,2.27-1.24,3.3-.69a64.48,64.48,0,0,1,6.18,5.56l0.14-.14c-0.07-.21-2-7.48-2-8.24a2,2,0,0,1,2.2-2.27c1.72,0,2.2.82,2.2,2.27a82.55,82.55,0,0,1-2,8.31l0.14,0.14c0.21-.27,5.42-5.42,6.18-5.84a2.13,2.13,0,0,1,3,.76c1,1.58.21,2.47-.89,3.09a71.5,71.5,0,0,1-8.17,2.27v0.14c0.28,0.07,7.69,2.06,8.38,2.4,0.89,0.41,2.06,1.17.82,3.23-0.75,1.24-2.27,1.1-3.36.48a60.4,60.4,0,0,1-6-5.77l-0.14.14a80.93,80.93,0,0,1,2,8.24,2.09,2.09,0,0,1-2.2,2.4A2.14,2.14,0,0,1,1086.7,123.9Z"/><path class="cls-1" d="M2283.81,240.91c0-.76,1.92-8,2-8.24h-0.14c-0.76.69-5.29,5.29-6,5.7-1.17.69-2.54,0.69-3.3-.55a2.23,2.23,0,0,1,1-3.16,67.37,67.37,0,0,1,8.17-2.47v-0.14c-0.34-.07-7.62-1.92-8.38-2.27a2,2,0,0,1-1-3c0.82-1.51,2.27-1.24,3.3-.69a64.48,64.48,0,0,1,6.18,5.56l0.14-.14c-0.07-.21-2-7.48-2-8.24a2,2,0,0,1,2.2-2.27c1.72,0,2.2.82,2.2,2.27a82.54,82.54,0,0,1-2,8.31l0.14,0.14c0.21-.27,5.42-5.42,6.18-5.84a2.13,2.13,0,0,1,3,.76c1,1.58.21,2.47-.89,3.09a71.5,71.5,0,0,1-8.17,2.27v0.14c0.28,0.07,7.69,2.06,8.38,2.4,0.89,0.41,2.06,1.17.82,3.23-0.75,1.24-2.27,1.1-3.36.48a60.4,60.4,0,0,1-6-5.77l-0.14.14a80.93,80.93,0,0,1,2,8.24,2.09,2.09,0,0,1-2.2,2.4A2.14,2.14,0,0,1,2283.81,240.91Z"/><path class="cls-1" d="M1289.06,283.9c0-.76,1.92-8,2-8.24h-0.14c-0.76.69-5.29,5.29-6,5.7-1.17.69-2.54,0.69-3.29-.55a2.23,2.23,0,0,1,1-3.16,67.42,67.42,0,0,1,8.17-2.47V275c-0.34-.07-7.62-1.92-8.38-2.27a2,2,0,0,1-1-3c0.82-1.51,2.27-1.24,3.3-.69a64.48,64.48,0,0,1,6.18,5.56l0.14-.14c-0.07-.21-2-7.48-2-8.24a2,2,0,0,1,2.2-2.27c1.72,0,2.2.82,2.2,2.27a82.55,82.55,0,0,1-2,8.31l0.14,0.14c0.21-.27,5.42-5.42,6.18-5.84a2.13,2.13,0,0,1,3,.76c1,1.58.21,2.47-.89,3.09a71.5,71.5,0,0,1-8.17,2.27v0.14c0.28,0.07,7.69,2.06,8.38,2.4,0.89,0.41,2.06,1.17.82,3.23-0.75,1.24-2.27,1.1-3.36.48a60.4,60.4,0,0,1-6-5.77l-0.14.14a80.93,80.93,0,0,1,2,8.24,2.09,2.09,0,0,1-2.2,2.4A2.14,2.14,0,0,1,1289.06,283.9Z"/><path class="cls-1" d="M1499.09,263c0-.76,1.92-8,2-8.24h-0.14c-0.76.69-5.29,5.29-6,5.7-1.17.69-2.54,0.69-3.3-.55a2.23,2.23,0,0,1,1-3.16,67.37,67.37,0,0,1,8.17-2.47V254.1c-0.34-.07-7.62-1.92-8.38-2.27a2,2,0,0,1-1-3c0.82-1.51,2.27-1.24,3.3-.69a64.48,64.48,0,0,1,6.18,5.56l0.14-.14c-0.07-.21-2-7.48-2-8.24a2,2,0,0,1,2.2-2.27c1.72,0,2.2.82,2.2,2.27a82.55,82.55,0,0,1-2,8.31l0.14,0.14c0.21-.27,5.42-5.42,6.18-5.84a2.13,2.13,0,0,1,3,.76c1,1.58.21,2.47-.89,3.09a71.5,71.5,0,0,1-8.17,2.27v0.14c0.28,0.07,7.69,2.06,8.38,2.4,0.89,0.41,2.06,1.17.82,3.23-0.75,1.24-2.27,1.1-3.36.48a60.4,60.4,0,0,1-6-5.77l-0.14.14a80.93,80.93,0,0,1,2,8.24,2.09,2.09,0,0,1-2.2,2.4A2.14,2.14,0,0,1,1499.09,263Z"/><path class="cls-1" d="M1919.13,563c0-.76,1.92-8,2-8.24H1921c-0.76.69-5.29,5.29-6,5.7-1.17.69-2.54,0.69-3.29-.55a2.23,2.23,0,0,1,1-3.16,67.42,67.42,0,0,1,8.17-2.47v-0.14c-0.34-.07-7.62-1.92-8.38-2.27a2,2,0,0,1-1-3c0.82-1.51,2.27-1.24,3.3-.69a64.48,64.48,0,0,1,6.18,5.56l0.14-.14c-0.07-.21-2-7.48-2-8.24a2,2,0,0,1,2.2-2.27c1.72,0,2.2.82,2.2,2.27a82.55,82.55,0,0,1-2,8.31l0.14,0.14c0.21-.27,5.42-5.42,6.18-5.84a2.13,2.13,0,0,1,3,.76c1,1.58.21,2.47-.89,3.09a71.5,71.5,0,0,1-8.17,2.27v0.14c0.28,0.07,7.69,2.06,8.38,2.4,0.89,0.41,2.06,1.17.82,3.23-0.75,1.24-2.27,1.1-3.36.48a60.4,60.4,0,0,1-6-5.77l-0.14.14a80.93,80.93,0,0,1,2,8.24,2.09,2.09,0,0,1-2.2,2.4A2.14,2.14,0,0,1,1919.13,563Z"/><path class="cls-1" d="M1481.09,314c0-.76,1.92-8,2-8.24h-0.14c-0.76.69-5.29,5.29-6,5.7-1.17.69-2.54,0.69-3.3-.55a2.23,2.23,0,0,1,1-3.16,67.37,67.37,0,0,1,8.17-2.47v-0.14c-0.34-.07-7.62-1.92-8.38-2.27a2,2,0,0,1-1-3c0.82-1.51,2.27-1.24,3.3-.69a64.48,64.48,0,0,1,6.18,5.56l0.14-.14c-0.07-.21-2-7.48-2-8.24a2,2,0,0,1,2.2-2.27c1.72,0,2.2.82,2.2,2.27a82.55,82.55,0,0,1-2,8.31l0.14,0.14c0.21-.27,5.42-5.42,6.18-5.84a2.13,2.13,0,0,1,3,.76c1,1.58.21,2.47-.89,3.09a71.5,71.5,0,0,1-8.17,2.27v0.14c0.28,0.07,7.69,2.06,8.38,2.4,0.89,0.41,2.06,1.17.82,3.23-0.75,1.24-2.27,1.1-3.36.48a60.4,60.4,0,0,1-6-5.77l-0.14.14a80.93,80.93,0,0,1,2,8.24,2.09,2.09,0,0,1-2.2,2.4A2.14,2.14,0,0,1,1481.09,314Z"/><path class="cls-1" d="M746.7,349c0-.76,1.92-8,2-8.24h-0.14c-0.76.69-5.29,5.29-6,5.7-1.17.69-2.54,0.69-3.3-.55a2.23,2.23,0,0,1,1-3.16,67.37,67.37,0,0,1,8.17-2.47V340.1c-0.34-.07-7.62-1.92-8.38-2.27a2,2,0,0,1-1-3c0.82-1.51,2.27-1.24,3.3-.69a64.48,64.48,0,0,1,6.18,5.56l0.14-.14c-0.07-.21-2-7.48-2-8.24a2,2,0,0,1,2.2-2.27c1.72,0,2.2.82,2.2,2.27a82.55,82.55,0,0,1-2,8.31l0.14,0.14c0.21-.27,5.42-5.42,6.18-5.84a2.13,2.13,0,0,1,3,.76c1,1.58.21,2.47-.89,3.09a71.5,71.5,0,0,1-8.17,2.27v0.14c0.28,0.07,7.69,2.06,8.38,2.4,0.89,0.41,2.06,1.17.82,3.23-0.75,1.24-2.27,1.1-3.36.48a60.4,60.4,0,0,1-6-5.77l-0.14.14a80.93,80.93,0,0,1,2,8.24,2.09,2.09,0,0,1-2.2,2.4A2.14,2.14,0,0,1,746.7,349Z"/><path class="cls-1" d="M200.71,105c0-.76,1.92-8,2-8.24h-0.14c-0.76.69-5.29,5.29-6,5.7-1.17.69-2.54,0.69-3.3-.55a2.23,2.23,0,0,1,1-3.16,67.35,67.35,0,0,1,8.17-2.47V96.1c-0.34-.07-7.62-1.92-8.38-2.27a2,2,0,0,1-1-3c0.82-1.51,2.27-1.24,3.3-.69a64.31,64.31,0,0,1,6.18,5.56l0.14-.14c-0.07-.21-2-7.48-2-8.24a2,2,0,0,1,2.2-2.27c1.72,0,2.2.82,2.2,2.27a82.55,82.55,0,0,1-2,8.31l0.14,0.14c0.21-.27,5.42-5.42,6.18-5.84a2.13,2.13,0,0,1,3,.76c1,1.58.21,2.47-.89,3.09a71.49,71.49,0,0,1-8.17,2.27v0.14c0.27,0.07,7.69,2.06,8.38,2.4,0.89,0.41,2.06,1.17.82,3.23-0.76,1.24-2.27,1.1-3.36.48a60.4,60.4,0,0,1-6-5.77l-0.14.14a80.93,80.93,0,0,1,2,8.24,2.09,2.09,0,0,1-2.2,2.4A2.14,2.14,0,0,1,200.71,105Z"/><path class="cls-1" d="M160.65,172.78c0-2.33-.41-3.57-3.85-4.12-0.48-.07-0.62-0.21-0.62-0.48v-0.62a0.56,0.56,0,0,1,.48-0.48,56.17,56.17,0,0,0,7.42-3.36,2.83,2.83,0,0,1,1.3-.41c0.34,0,.41.34,0.34,0.82-0.14,1.17-.14,5.49-0.14,11.19v7.48c0,2.68,0,5.15.07,5.91,0.14,1.3.34,1.79,1.1,1.79h3.16c0.55,0,.69.21,0.69,0.62v1.17c0,0.48-.14.69-0.62,0.69s-3.71-.21-6.59-0.21c-4,0-6.66.21-7.42,0.21a0.48,0.48,0,0,1-.55-0.55V191c0-.41.21-0.55,0.69-0.55h3.36c0.76,0,1-.27,1.1-1.37,0.07-2.06.07-4.19,0.07-6.25V172.78Zm-3.23-21.08a4.05,4.05,0,0,1,4.33-3.85,3.62,3.62,0,0,1,3.71,3.64,3.93,3.93,0,0,1-4.12,4.05A4.18,4.18,0,0,1,157.42,151.7Z"/><path class="cls-1" d="M101.54,633.49a17.63,17.63,0,0,0-.21,3.3c0,6.73,4.26,11.81,9.75,11.81a9.3,9.3,0,0,0,8.31-4.67,0.56,0.56,0,0,1,.62-0.34l0.89,0.48c0.21,0.07.34,0.27,0,1-1.24,2.75-4.81,7.48-10.92,7.48-3.91,0-8.24-1.17-10.78-4.88-2.4-3.5-3-6-3-10.85a15.46,15.46,0,0,1,4.33-10.92c3-3,6.39-3.64,9.82-3.64,7.9,0,10.09,7.42,10.09,10.09,0,1-.82,1.1-1.92,1.1h-17Zm10.92-2.06c1.3,0,1.85-.34,1.85-1,0-1.58-.82-6.11-5.29-6.11-3,0-5.91,2-7.21,7.07h10.64Z"/><path class="cls-1" d="M278.1,897.43a0.45,0.45,0,0,1-.48.55c-0.62,0-2.4-.21-5.36-0.21-3.43,0-4.6.21-5.29,0.21a0.52,0.52,0,0,1-.62-0.62v-1.24a0.5,0.5,0,0,1,.55-0.62h1.79a3.62,3.62,0,0,0,2.82-.82c1.3-1.17,7.69-9.68,8.86-11a124.94,124.94,0,0,0-8.1-11.4,3.12,3.12,0,0,0-2.47-1h-1.92a0.43,0.43,0,0,1-.48-0.48v-1.37c0-.48.07-0.62,0.55-0.62s2.4,0.21,5.63.21,5.77-.21,6.39-0.21c0.34,0,.41.21,0.41,0.62v1.3c0,0.41-.14.55-0.41,0.55h-0.62c-1.1,0-1.1,1.1-.27,2.33l4.26,6.73,5.22-6.87c0.62-.82.41-2.2-0.76-2.2H287a0.39,0.39,0,0,1-.41-0.48v-1.44c0-.41.07-0.55,0.34-0.55,0.82,0,2,.21,5.91.21a34.94,34.94,0,0,0,3.91-.21,0.54,0.54,0,0,1,.62.69v1.24c0,0.41-.07.55-0.55,0.55h-1.1a3.79,3.79,0,0,0-2.68.82c-1.17,1-7,8.17-8.45,10,2.75,4.05,5.49,8.31,8.51,11.95a3.77,3.77,0,0,0,3,1.44h1.1c0.27,0,.34.14,0.34,0.55v1.37a0.45,0.45,0,0,1-.48.55c-0.62,0-1.92-.21-5.29-0.21-3.91,0-6,.21-6.73.21a0.5,0.5,0,0,1-.55-0.62V896.2c0-.48.07-0.69,0.55-0.69h1c0.75,0,1.17-1,.41-2.2l-4.94-7.9c-1,1.37-5.49,7.48-6,8.58a1,1,0,0,0,.76,1.51h1.44c0.27,0,.34.27,0.34,0.55v1.37Z"/><path class="cls-1" d="M501.29,1123.22c0,5.15,2.33,6,3.57,6a9.88,9.88,0,0,0,4.53-.89,0.56,0.56,0,0,1,.82.14l0.34,0.62a0.55,0.55,0,0,1-.14.76,11.55,11.55,0,0,1-7.62,2.75c-3.37,0-6.66-3.23-6.66-5.84,0-2.81.21-8.86,0.21-9.82v-1.51c0-1.24.07-5.91,0.14-8.79h-4.19a0.86,0.86,0,0,1-1-.82c0-.55.41-0.76,1.24-1.24,1.65-1,6.93-6.25,7.83-8.58a0.92,0.92,0,0,1,1-.69c0.55,0,.69.48,0.69,1l-0.34,6.73h9.54a0.45,0.45,0,0,1,.48.62l-0.69,2.4a0.56,0.56,0,0,1-.62.55h-8.86c-0.14,3.16-.21,6.52-0.21,9.68v6.87Z"/><path class="cls-1" d="M582.66,1273.54c0-3.5-.55-4.19-2.47-5.22l-1.3-.69c-0.41-.14-0.55-0.21-0.55-0.48v-0.41a0.69,0.69,0,0,1,.55-0.62l6.8-3.5a2.07,2.07,0,0,1,1-.27c0.41,0,.48.41,0.48,0.82l0.34,4.88h0.27c2.06-3.16,5.29-6,8.24-6,2.33,0,3.5,1.44,3.5,3a3.32,3.32,0,0,1-2.88,3.36,4.51,4.51,0,0,1-2-.55,4.41,4.41,0,0,0-2.27-.55,4.88,4.88,0,0,0-4.05,2.88,7.43,7.43,0,0,0-.69,2.2v14.28c0,2.13.48,2.81,1.92,2.81h3.23c0.41,0,.48.21,0.48,0.62v1.24c0,0.41-.07.62-0.34,0.62s-3.57-.21-7.28-0.21c-4.26,0-7.14.21-7.55,0.21s-0.41-.14-0.41-0.69v-1.17c0-.48.14-0.62,0.75-0.62h2.68c1,0,1.51-.41,1.51-1.3,0.07-2.27.07-4.67,0.07-8.24v-6.45Z"/><path class="cls-1" d="M762.76,1086.92a3.16,3.16,0,0,0,2.4-1c0.28-.34.41-0.48,0.69-0.27l0.69,0.55a0.91,0.91,0,0,1-.07,1.24,5.67,5.67,0,0,1-5.36,3.36c-2.47,0-4.26-1.79-4.87-4.6H756.1a14.81,14.81,0,0,1-6.8,4.19,12.91,12.91,0,0,1-4.05.41c-1.65,0-4.12-1.37-4.12-5.7,0-3.16,1.44-5.91,6.87-8.31,3.09-1.37,6.66-3,7.76-4v-4.39c-0.14-1.17-.21-3-1-3.85a5.22,5.22,0,0,0-4.12-1.51,7.69,7.69,0,0,0-4.46,1.44c-1,.89-0.34,1.92-0.34,3.16,0,2.4-.82,3.91-3.64,3.91-1.1,0-1.65-.62-1.65-2.2,0-2.2,1.92-4.81,4.74-6.45a15.14,15.14,0,0,1,8.38-2.4c3.23,0,4.53,1,5.49,1.85,1.44,1.44,1.51,3,1.51,4.88v14.56C760.7,1085.68,761.53,1086.92,762.76,1086.92Zm-7.07-12.08c-2.47,1.85-9.2,3.23-9.2,8.93,0,2.54,1.51,3.78,3.57,3.78s5.63-2.4,5.63-4.26v-8.45Z"/><path class="cls-1" d="M978.19,726.85c0,5.15,2.33,6,3.57,6a9.88,9.88,0,0,0,4.53-.89,0.56,0.56,0,0,1,.82.14l0.34,0.62a0.55,0.55,0,0,1-.14.75,11.55,11.55,0,0,1-7.62,2.75c-3.37,0-6.66-3.23-6.66-5.84,0-2.81.21-8.86,0.21-9.82v-1.51c0-1.24.07-5.9,0.14-8.79h-4.19a0.86,0.86,0,0,1-1-.82c0-.55.41-0.76,1.24-1.24,1.65-1,6.93-6.25,7.83-8.58a0.92,0.92,0,0,1,1-.69c0.55,0,.69.48,0.69,1l-0.34,6.73h9.54a0.45,0.45,0,0,1,.48.62l-0.69,2.4a0.56,0.56,0,0,1-.62.55h-8.86c-0.14,3.16-.21,6.52-0.21,9.68v6.87Z"/><path class="cls-1" d="M1100,911.65a17.59,17.59,0,0,0-.21,3.3c0,6.73,4.26,11.81,9.75,11.81a9.3,9.3,0,0,0,8.31-4.67,0.56,0.56,0,0,1,.62-0.34l0.89,0.48c0.21,0.07.34,0.27,0,1-1.24,2.75-4.81,7.48-10.92,7.48-3.91,0-8.24-1.17-10.78-4.87-2.4-3.5-3-6-3-10.85A15.46,15.46,0,0,1,1099,904.1c3-3,6.39-3.64,9.82-3.64,7.9,0,10.09,7.42,10.09,10.09,0,1-.82,1.1-1.92,1.1h-17Zm10.92-2.06c1.3,0,1.85-.34,1.85-1,0-1.58-.82-6.11-5.29-6.11-3,0-5.91,2-7.21,7.07H1111Z"/><path class="cls-1" d="M1583.08,1113.53a17.59,17.59,0,0,0-.21,3.3c0,6.73,4.26,11.81,9.75,11.81a9.3,9.3,0,0,0,8.31-4.67,0.56,0.56,0,0,1,.62-0.34l0.89,0.48c0.21,0.07.34,0.27,0,1-1.24,2.75-4.81,7.48-10.92,7.48-3.91,0-8.24-1.17-10.78-4.87-2.4-3.5-3-6-3-10.85a15.46,15.46,0,0,1,4.33-10.92c3-3,6.39-3.64,9.82-3.64,7.9,0,10.09,7.42,10.09,10.09,0,1-.82,1.1-1.92,1.1h-17Zm10.92-2.06c1.3,0,1.85-.34,1.85-1,0-1.58-.82-6.11-5.29-6.11-3,0-5.91,2-7.21,7.07H1594Z"/><path class="cls-1" d="M1394.28,788.66c0-3.5-.55-4.19-2.47-5.22l-1.3-.69c-0.41-.14-0.55-0.21-0.55-0.48v-0.41a0.69,0.69,0,0,1,.55-0.62l6.8-3.5a2.07,2.07,0,0,1,1-.27c0.41,0,.48.41,0.48,0.82l0.34,4.88h0.27c2.06-3.16,5.29-6,8.24-6,2.33,0,3.5,1.44,3.5,3a3.32,3.32,0,0,1-2.88,3.36,4.5,4.5,0,0,1-2-.55,4.42,4.42,0,0,0-2.27-.55,4.87,4.87,0,0,0-4.05,2.88,7.4,7.4,0,0,0-.69,2.2v14.28c0,2.13.48,2.81,1.92,2.81h3.23c0.41,0,.48.21,0.48,0.62v1.24c0,0.41-.07.62-0.34,0.62s-3.57-.21-7.28-0.21c-4.26,0-7.14.21-7.55,0.21s-0.41-.14-0.41-0.69v-1.17c0-.48.14-0.62,0.76-0.62h2.68c1,0,1.51-.41,1.51-1.3,0.07-2.27.07-4.67,0.07-8.24v-6.45Z"/><path class="cls-1" d="M1403.15,289.74a3.16,3.16,0,0,0,2.4-1c0.28-.34.41-0.48,0.69-0.27l0.69,0.55a0.91,0.91,0,0,1-.07,1.24,5.67,5.67,0,0,1-5.36,3.36c-2.47,0-4.26-1.79-4.87-4.6h-0.14a14.81,14.81,0,0,1-6.8,4.19,12.9,12.9,0,0,1-4.05.41c-1.65,0-4.12-1.37-4.12-5.7,0-3.16,1.44-5.91,6.87-8.31,3.09-1.37,6.66-3,7.76-4V271.2c-0.14-1.17-.21-3-1-3.85a5.22,5.22,0,0,0-4.12-1.51,7.69,7.69,0,0,0-4.46,1.44c-1,.89-0.34,1.92-0.34,3.16,0,2.4-.82,3.91-3.64,3.91-1.1,0-1.65-.62-1.65-2.2,0-2.2,1.92-4.81,4.74-6.45a15.14,15.14,0,0,1,8.38-2.4c3.23,0,4.53,1,5.49,1.85,1.44,1.44,1.51,3,1.51,4.88v14.56C1401.09,288.5,1401.91,289.74,1403.15,289.74Zm-7.07-12.08c-2.47,1.85-9.2,3.23-9.2,8.93,0,2.54,1.51,3.78,3.57,3.78s5.63-2.4,5.63-4.26v-8.45Z"/><path class="cls-1" d="M1585.7,175.18c0-5.08-1-6.39-2.06-7.42a7.39,7.39,0,0,0-4.39-1.24,8,8,0,0,0-6.59,4,8.16,8.16,0,0,0-1,4.6v13.6c0,1.1.41,1.79,1.37,1.79h2.47c0.62,0,.69.14,0.69,0.62v1.1c0,0.48-.07.76-0.55,0.76s-2.47-.21-6.25-0.21-5.84.21-6.39,0.21-0.55-.14-0.55-0.62v-1.24c0-.55.14-0.62,0.82-0.62h2.33c0.62,0,1-.41,1-1.72s0.07-2.4.07-3.57V173a3.48,3.48,0,0,0-1.92-3.5l-1.44-.76a0.7,0.7,0,0,1-.48-0.55v-0.55a0.85,0.85,0,0,1,.41-0.55l6-3.09a3.39,3.39,0,0,1,1.3-.41,0.82,0.82,0,0,1,.62,1l0.28,4h0.21a13.35,13.35,0,0,1,10.09-5.22,8.33,8.33,0,0,1,7.76,5.29H1590c2.06-2.68,6-5.29,10.09-5.29,2.4,0,4.53.41,6.18,2.06s3.3,3.16,3.3,8.45v15.31a1.25,1.25,0,0,0,1.44,1.37h1.85c0.62,0,.76.14,0.76,0.62v1.17c0,0.48-.14.69-0.48,0.69s-2.4-.21-5.7-0.21-5.91.21-6.39,0.21-0.55-.21-0.55-0.69v-1.17c0-.48.14-0.62,0.89-0.62h1.72a1.24,1.24,0,0,0,1.37-1.3c0.14-1.58.14-4.05,0.14-5.56V173.47c0-2.27-.41-4.26-2-5.49a8.26,8.26,0,0,0-5.08-1.44,7.74,7.74,0,0,0-6,3.57c-1,2-1,3.85-1,6.94v11.88a1.33,1.33,0,0,0,1.37,1.58h2.33c0.62,0,.75.14,0.75,0.62v1.1c0,0.55-.14.76-0.48,0.76s-2.27-.21-6.11-0.21-6,.21-6.45.21-0.48-.21-0.48-0.69v-1.1c0-.55.07-0.69,0.69-0.69h2c1.1,0,1.51-.27,1.51-1.17V175.18Z"/><path class="cls-1" d="M1263.79,1178.64c0-3.5-.55-4.19-2.47-5.22l-1.3-.69c-0.41-.14-0.55-0.21-0.55-0.48v-0.41a0.69,0.69,0,0,1,.55-0.62l6.8-3.5a2.07,2.07,0,0,1,1-.27c0.41,0,.48.41,0.48,0.82l0.34,4.88h0.27c2.06-3.16,5.29-6,8.24-6,2.33,0,3.5,1.44,3.5,3a3.32,3.32,0,0,1-2.88,3.36,4.49,4.49,0,0,1-2-.55,4.43,4.43,0,0,0-2.27-.55,4.87,4.87,0,0,0-4.05,2.88,7.4,7.4,0,0,0-.69,2.2v14.28c0,2.13.48,2.81,1.92,2.81h3.23c0.41,0,.48.21,0.48,0.62v1.24c0,0.41-.07.62-0.34,0.62s-3.57-.21-7.28-0.21c-4.26,0-7.14.21-7.55,0.21s-0.41-.14-0.41-0.69v-1.17c0-.48.14-0.62,0.75-0.62h2.68c1,0,1.51-.41,1.51-1.3,0.07-2.27.07-4.67,0.07-8.24v-6.45Z"/></svg>