<?xml version="1.0" encoding="utf-8"?>
<!-- Generator: Adobe Illustrator 19.2.1, SVG Export Plug-In . SVG Version: 6.00 Build 0)  -->
<svg version="1.1" id="Layer_1" xmlns="http://www.w3.org/2000/svg" xmlns:xlink="http://www.w3.org/1999/xlink" x="0px" y="0px"
	 viewBox="0 0 2560 1600" style="enable-background:new 0 0 2560 1600;" xml:space="preserve">
<style type="text/css">
	.st0{fill:#FFFFFF;}
</style>
<g>
	<path class="st0" d="M90.7,263c0-0.8,1.9-8,2-8.2h-0.1c-0.8,0.7-5.3,5.3-6,5.7c-1.2,0.7-2.5,0.7-3.3-0.5c-1-1.7,0.5-2.8,1-3.2
		c0.8-0.5,7.8-2.5,8.2-2.5v-0.1c-0.3-0.1-7.6-1.9-8.4-2.3c-0.9-0.4-1.9-1.5-1-3c0.8-1.5,2.3-1.2,3.3-0.7c0.8,0.4,6,5.3,6.2,5.6
		l0.1-0.1c-0.1-0.2-2-7.5-2-8.2c0-1.2,0.6-2.3,2.2-2.3c1.7,0,2.2,0.8,2.2,2.3c0,1-1.9,8-2,8.3l0.1,0.1c0.2-0.3,5.4-5.4,6.2-5.8
		c1-0.5,2.3-0.5,3,0.8c1,1.6,0.2,2.5-0.9,3.1c-0.8,0.5-7.8,2.3-8.2,2.3v0.1c0.3,0.1,7.7,2.1,8.4,2.4c0.9,0.4,2.1,1.2,0.8,3.2
		c-0.8,1.2-2.3,1.1-3.4,0.5c-0.8-0.4-5.8-5.4-6-5.8l-0.1,0.1c0.1,0.3,2,7.3,2,8.2c0,1-0.3,2.4-2.2,2.4
		C91.3,265.4,90.7,264.2,90.7,263z"/>
</g>
<g>
	<path class="st0" d="M228.7,349c0-0.8,1.9-8,2-8.2h-0.1c-0.8,0.7-5.3,5.3-6,5.7c-1.2,0.7-2.5,0.7-3.3-0.5c-1-1.7,0.5-2.8,1-3.2
		c0.8-0.5,7.8-2.5,8.2-2.5v-0.1c-0.3-0.1-7.6-1.9-8.4-2.3c-0.9-0.4-1.9-1.5-1-3c0.8-1.5,2.3-1.2,3.3-0.7c0.8,0.4,6,5.3,6.2,5.6
		l0.1-0.1c-0.1-0.2-2-7.5-2-8.2c0-1.2,0.6-2.3,2.2-2.3c1.7,0,2.2,0.8,2.2,2.3c0,1-1.9,8-2,8.3l0.1,0.1c0.2-0.3,5.4-5.4,6.2-5.8
		c1-0.5,2.3-0.5,3,0.8c1,1.6,0.2,2.5-0.9,3.1c-0.8,0.5-7.8,2.3-8.2,2.3v0.1c0.3,0.1,7.7,2.1,8.4,2.4c0.9,0.4,2.1,1.2,0.8,3.2
		c-0.8,1.2-2.3,1.1-3.4,0.5c-0.8-0.4-5.8-5.4-6-5.8l-0.1,0.1c0.1,0.3,2,7.3,2,8.2c0,1-0.3,2.4-2.2,2.4
		C229.3,351.4,228.7,350.2,228.7,349z"/>
</g>
<g>
	<path class="st0" d="M915.7,621.9c0-0.8,1.9-8,2-8.2h-0.1c-0.8,0.7-5.3,5.3-6,5.7c-1.2,0.7-2.5,0.7-3.3-0.5c-1-1.7,0.5-2.8,1-3.2
		c0.8-0.5,7.8-2.5,8.2-2.5v-0.1c-0.3-0.1-7.6-1.9-8.4-2.3c-0.9-0.4-1.9-1.5-1-3c0.8-1.5,2.3-1.2,3.3-0.7c0.8,0.4,6,5.3,6.2,5.6
		l0.1-0.1c-0.1-0.2-2-7.5-2-8.2c0-1.2,0.6-2.3,2.2-2.3c1.7,0,2.2,0.8,2.2,2.3c0,1-1.9,8-2,8.3l0.1,0.1c0.2-0.3,5.4-5.4,6.2-5.8
		c1-0.5,2.3-0.5,3,0.8c1,1.6,0.2,2.5-0.9,3.1c-0.8,0.5-7.8,2.3-8.2,2.3v0.1c0.3,0.1,7.7,2.1,8.4,2.4c0.9,0.4,2.1,1.2,0.8,3.2
		c-0.8,1.2-2.3,1.1-3.4,0.5c-0.8-0.4-5.8-5.4-6-5.8l-0.1,0.1c0.1,0.3,2,7.3,2,8.2c0,1-0.3,2.4-2.2,2.4
		C916.3,624.4,915.7,623.2,915.7,621.9z"/>
</g>
<g>
	<path class="st0" d="M138.6,1486c0-0.8,1.9-8,2-8.2h-0.1c-0.8,0.7-5.3,5.3-6,5.7c-1.2,0.7-2.5,0.7-3.3-0.5c-1-1.7,0.5-2.8,1-3.2
		c0.8-0.5,7.8-2.5,8.2-2.5v-0.1c-0.3-0.1-7.6-1.9-8.4-2.3c-0.9-0.4-1.9-1.5-1-3c0.8-1.5,2.3-1.2,3.3-0.7c0.8,0.4,6,5.3,6.2,5.6
		l0.1-0.1c-0.1-0.2-2-7.5-2-8.2c0-1.2,0.6-2.3,2.2-2.3c1.7,0,2.2,0.8,2.2,2.3c0,1-1.9,8-2,8.3l0.1,0.1c0.2-0.3,5.4-5.4,6.2-5.8
		c1-0.5,2.3-0.5,3,0.8c1,1.6,0.2,2.5-0.9,3.1c-0.8,0.5-7.8,2.3-8.2,2.3v0.1c0.3,0.1,7.7,2.1,8.4,2.4c0.9,0.4,2.1,1.2,0.8,3.2
		c-0.8,1.2-2.3,1.1-3.4,0.5c-0.8-0.4-5.8-5.4-6-5.8l-0.1,0.1c0.1,0.3,2,7.3,2,8.2c0,1-0.3,2.4-2.2,2.4
		C139.2,1488.4,138.6,1487.3,138.6,1486z"/>
</g>
<g>
	<path class="st0" d="M72.6,1009c0-0.8,1.9-8,2-8.2h-0.1c-0.8,0.7-5.3,5.3-6,5.7c-1.2,0.7-2.5,0.7-3.3-0.5c-1-1.7,0.5-2.8,1-3.2
		c0.8-0.5,7.8-2.5,8.2-2.5v-0.1c-0.3-0.1-7.6-1.9-8.4-2.3c-0.9-0.4-1.9-1.5-1-3c0.8-1.5,2.3-1.2,3.3-0.7c0.8,0.4,6,5.3,6.2,5.6
		l0.1-0.1c-0.1-0.2-2-7.5-2-8.2c0-1.2,0.6-2.3,2.2-2.3c1.7,0,2.2,0.8,2.2,2.3c0,1-1.9,8-2,8.3l0.1,0.1c0.2-0.3,5.4-5.4,6.2-5.8
		c1-0.5,2.3-0.5,3,0.8c1,1.6,0.2,2.5-0.9,3.1c-0.8,0.5-7.8,2.3-8.2,2.3v0.1c0.3,0.1,7.7,2.1,8.4,2.4c0.9,0.4,2.1,1.2,0.8,3.2
		c-0.8,1.2-2.3,1.1-3.4,0.5c-0.8-0.4-5.8-5.4-6-5.8l-0.1,0.1c0.1,0.3,2,7.3,2,8.2c0,1-0.3,2.4-2.2,2.4
		C73.2,1011.4,72.6,1010.2,72.6,1009z"/>
</g>
<g>
	<path class="st0" d="M453.6,1222c0-0.8,1.9-8,2-8.2h-0.1c-0.8,0.7-5.3,5.3-6,5.7c-1.2,0.7-2.5,0.7-3.3-0.5c-1-1.7,0.5-2.8,1-3.2
		c0.8-0.5,7.8-2.5,8.2-2.5v-0.1c-0.3-0.1-7.6-1.9-8.4-2.3c-0.9-0.4-1.9-1.5-1-3c0.8-1.5,2.3-1.2,3.3-0.7c0.8,0.4,6,5.3,6.2,5.6
		l0.1-0.1c-0.1-0.2-2-7.5-2-8.2c0-1.2,0.6-2.3,2.2-2.3c1.7,0,2.2,0.8,2.2,2.3c0,1-1.9,8-2,8.3l0.1,0.1c0.2-0.3,5.4-5.4,6.2-5.8
		c1-0.5,2.3-0.5,3,0.8c1,1.6,0.2,2.5-0.9,3.1c-0.8,0.5-7.8,2.3-8.2,2.3v0.1c0.3,0.1,7.7,2.1,8.4,2.4c0.9,0.4,2.1,1.2,0.8,3.2
		c-0.8,1.2-2.3,1.1-3.4,0.5c-0.8-0.4-5.8-5.4-6-5.8l-0.1,0.1c0.1,0.3,2,7.3,2,8.2c0,1-0.3,2.4-2.2,2.4
		C454.2,1224.4,453.6,1223.2,453.6,1222z"/>
</g>
<g>
	<path class="st0" d="M1086.7,123.9c0-0.8,1.9-8,2-8.2h-0.1c-0.8,0.7-5.3,5.3-6,5.7c-1.2,0.7-2.5,0.7-3.3-0.5c-1-1.7,0.5-2.8,1-3.2
		c0.8-0.5,7.8-2.5,8.2-2.5V115c-0.3-0.1-7.6-1.9-8.4-2.3c-0.9-0.4-1.9-1.5-1-3c0.8-1.5,2.3-1.2,3.3-0.7c0.8,0.4,6,5.3,6.2,5.6
		l0.1-0.1c-0.1-0.2-2-7.5-2-8.2c0-1.2,0.6-2.3,2.2-2.3c1.7,0,2.2,0.8,2.2,2.3c0,1-1.9,8-2,8.3l0.1,0.1c0.2-0.3,5.4-5.4,6.2-5.8
		c1-0.5,2.3-0.5,3,0.8c1,1.6,0.2,2.5-0.9,3.1c-0.8,0.5-7.8,2.3-8.2,2.3v0.1c0.3,0.1,7.7,2.1,8.4,2.4c0.9,0.4,2.1,1.2,0.8,3.2
		c-0.8,1.2-2.3,1.1-3.4,0.5c-0.8-0.4-5.8-5.4-6-5.8l-0.1,0.1c0.1,0.3,2,7.3,2,8.2c0,1-0.3,2.4-2.2,2.4
		C1087.3,126.3,1086.7,125.1,1086.7,123.9z"/>
</g>
<g>
	<path class="st0" d="M2283.8,240.9c0-0.8,1.9-8,2-8.2h-0.1c-0.8,0.7-5.3,5.3-6,5.7c-1.2,0.7-2.5,0.7-3.3-0.5c-1-1.7,0.5-2.8,1-3.2
		c0.8-0.5,7.8-2.5,8.2-2.5v-0.1c-0.3-0.1-7.6-1.9-8.4-2.3c-0.9-0.4-1.9-1.5-1-3c0.8-1.5,2.3-1.2,3.3-0.7c0.8,0.4,6,5.3,6.2,5.6
		l0.1-0.1c-0.1-0.2-2-7.5-2-8.2c0-1.2,0.6-2.3,2.2-2.3c1.7,0,2.2,0.8,2.2,2.3c0,1-1.9,8-2,8.3l0.1,0.1c0.2-0.3,5.4-5.4,6.2-5.8
		c1-0.5,2.3-0.5,3,0.8c1,1.6,0.2,2.5-0.9,3.1c-0.8,0.5-7.8,2.3-8.2,2.3v0.1c0.3,0.1,7.7,2.1,8.4,2.4c0.9,0.4,2.1,1.2,0.8,3.2
		c-0.8,1.2-2.3,1.1-3.4,0.5c-0.8-0.4-5.8-5.4-6-5.8l-0.1,0.1c0.1,0.3,2,7.3,2,8.2c0,1-0.3,2.4-2.2,2.4
		C2284.4,243.3,2283.8,242.1,2283.8,240.9z"/>
</g>
<g>
	<path class="st0" d="M1289.1,283.9c0-0.8,1.9-8,2-8.2h-0.1c-0.8,0.7-5.3,5.3-6,5.7c-1.2,0.7-2.5,0.7-3.3-0.5c-1-1.7,0.5-2.8,1-3.2
		c0.8-0.5,7.8-2.5,8.2-2.5V275c-0.3-0.1-7.6-1.9-8.4-2.3c-0.9-0.4-1.9-1.5-1-3c0.8-1.5,2.3-1.2,3.3-0.7c0.8,0.4,6,5.3,6.2,5.6
		l0.1-0.1c-0.1-0.2-2-7.5-2-8.2c0-1.2,0.6-2.3,2.2-2.3c1.7,0,2.2,0.8,2.2,2.3c0,1-1.9,8-2,8.3l0.1,0.1c0.2-0.3,5.4-5.4,6.2-5.8
		c1-0.5,2.3-0.5,3,0.8c1,1.6,0.2,2.5-0.9,3.1c-0.8,0.5-7.8,2.3-8.2,2.3v0.1c0.3,0.1,7.7,2.1,8.4,2.4c0.9,0.4,2.1,1.2,0.8,3.2
		c-0.8,1.2-2.3,1.1-3.4,0.5c-0.8-0.4-5.8-5.4-6-5.8l-0.1,0.1c0.1,0.3,2,7.3,2,8.2c0,1-0.3,2.4-2.2,2.4
		C1289.7,286.3,1289.1,285.1,1289.1,283.9z"/>
</g>
<g>
	<path class="st0" d="M1499.1,263c0-0.8,1.9-8,2-8.2h-0.1c-0.8,0.7-5.3,5.3-6,5.7c-1.2,0.7-2.5,0.7-3.3-0.5c-1-1.7,0.5-2.8,1-3.2
		c0.8-0.5,7.8-2.5,8.2-2.5v-0.1c-0.3-0.1-7.6-1.9-8.4-2.3c-0.9-0.4-1.9-1.5-1-3c0.8-1.5,2.3-1.2,3.3-0.7c0.8,0.4,6,5.3,6.2,5.6
		l0.1-0.1c-0.1-0.2-2-7.5-2-8.2c0-1.2,0.6-2.3,2.2-2.3c1.7,0,2.2,0.8,2.2,2.3c0,1-1.9,8-2,8.3l0.1,0.1c0.2-0.3,5.4-5.4,6.2-5.8
		c1-0.5,2.3-0.5,3,0.8c1,1.6,0.2,2.5-0.9,3.1c-0.8,0.5-7.8,2.3-8.2,2.3v0.1c0.3,0.1,7.7,2.1,8.4,2.4c0.9,0.4,2.1,1.2,0.8,3.2
		c-0.8,1.2-2.3,1.1-3.4,0.5c-0.8-0.4-5.8-5.4-6-5.8l-0.1,0.1c0.1,0.3,2,7.3,2,8.2c0,1-0.3,2.4-2.2,2.4
		C1499.7,265.4,1499.1,264.2,1499.1,263z"/>
</g>
<g>
	<path class="st0" d="M1919.1,563c0-0.8,1.9-8,2-8.2h-0.1c-0.8,0.7-5.3,5.3-6,5.7c-1.2,0.7-2.5,0.7-3.3-0.5c-1-1.7,0.5-2.8,1-3.2
		c0.8-0.5,7.8-2.5,8.2-2.5v-0.1c-0.3-0.1-7.6-1.9-8.4-2.3c-0.9-0.4-1.9-1.5-1-3c0.8-1.5,2.3-1.2,3.3-0.7c0.8,0.4,6,5.3,6.2,5.6
		l0.1-0.1c-0.1-0.2-2-7.5-2-8.2c0-1.2,0.6-2.3,2.2-2.3c1.7,0,2.2,0.8,2.2,2.3c0,1-1.9,8-2,8.3l0.1,0.1c0.2-0.3,5.4-5.4,6.2-5.8
		c1-0.5,2.3-0.5,3,0.8c1,1.6,0.2,2.5-0.9,3.1c-0.8,0.5-7.8,2.3-8.2,2.3v0.1c0.3,0.1,7.7,2.1,8.4,2.4c0.9,0.4,2.1,1.2,0.8,3.2
		c-0.8,1.2-2.3,1.1-3.4,0.5c-0.8-0.4-5.8-5.4-6-5.8l-0.1,0.1c0.1,0.3,2,7.3,2,8.2c0,1-0.3,2.4-2.2,2.4
		C1919.7,565.4,1919.1,564.2,1919.1,563z"/>
</g>
<g>
	<path class="st0" d="M1481.1,314c0-0.8,1.9-8,2-8.2h-0.1c-0.8,0.7-5.3,5.3-6,5.7c-1.2,0.7-2.5,0.7-3.3-0.5c-1-1.7,0.5-2.8,1-3.2
		c0.8-0.5,7.8-2.5,8.2-2.5v-0.1c-0.3-0.1-7.6-1.9-8.4-2.3c-0.9-0.4-1.9-1.5-1-3c0.8-1.5,2.3-1.2,3.3-0.7c0.8,0.4,6,5.3,6.2,5.6
		l0.1-0.1c-0.1-0.2-2-7.5-2-8.2c0-1.2,0.6-2.3,2.2-2.3c1.7,0,2.2,0.8,2.2,2.3c0,1-1.9,8-2,8.3l0.1,0.1c0.2-0.3,5.4-5.4,6.2-5.8
		c1-0.5,2.3-0.5,3,0.8c1,1.6,0.2,2.5-0.9,3.1c-0.8,0.5-7.8,2.3-8.2,2.3v0.1c0.3,0.1,7.7,2.1,8.4,2.4c0.9,0.4,2.1,1.2,0.8,3.2
		c-0.8,1.2-2.3,1.1-3.4,0.5c-0.8-0.4-5.8-5.4-6-5.8l-0.1,0.1c0.1,0.3,2,7.3,2,8.2c0,1-0.3,2.4-2.2,2.4
		C1481.7,316.4,1481.1,315.2,1481.1,314z"/>
</g>
<g>
	<path class="st0" d="M746.7,349c0-0.8,1.9-8,2-8.2h-0.1c-0.8,0.7-5.3,5.3-6,5.7c-1.2,0.7-2.5,0.7-3.3-0.5c-1-1.7,0.5-2.8,1-3.2
		c0.8-0.5,7.8-2.5,8.2-2.5v-0.1c-0.3-0.1-7.6-1.9-8.4-2.3c-0.9-0.4-1.9-1.5-1-3c0.8-1.5,2.3-1.2,3.3-0.7c0.8,0.4,6,5.3,6.2,5.6
		l0.1-0.1c-0.1-0.2-2-7.5-2-8.2c0-1.2,0.6-2.3,2.2-2.3c1.7,0,2.2,0.8,2.2,2.3c0,1-1.9,8-2,8.3l0.1,0.1c0.2-0.3,5.4-5.4,6.2-5.8
		c1-0.5,2.3-0.5,3,0.8c1,1.6,0.2,2.5-0.9,3.1c-0.8,0.5-7.8,2.3-8.2,2.3v0.1c0.3,0.1,7.7,2.1,8.4,2.4c0.9,0.4,2.1,1.2,0.8,3.2
		c-0.8,1.2-2.3,1.1-3.4,0.5c-0.8-0.4-5.8-5.4-6-5.8l-0.1,0.1c0.1,0.3,2,7.3,2,8.2c0,1-0.3,2.4-2.2,2.4
		C747.3,351.4,746.7,350.2,746.7,349z"/>
</g>
<g>
	<path class="st0" d="M200.7,105c0-0.8,1.9-8,2-8.2h-0.1c-0.8,0.7-5.3,5.3-6,5.7c-1.2,0.7-2.5,0.7-3.3-0.5c-1-1.7,0.5-2.8,1-3.2
		c0.8-0.5,7.8-2.5,8.2-2.5v-0.1c-0.3-0.1-7.6-1.9-8.4-2.3c-0.9-0.4-1.9-1.5-1-3c0.8-1.5,2.3-1.2,3.3-0.7c0.8,0.4,6,5.3,6.2,5.6
		l0.1-0.1c-0.1-0.2-2-7.5-2-8.2c0-1.2,0.6-2.3,2.2-2.3c1.7,0,2.2,0.8,2.2,2.3c0,1-1.9,8-2,8.3l0.1,0.1c0.2-0.3,5.4-5.4,6.2-5.8
		c1-0.5,2.3-0.5,3,0.8c1,1.6,0.2,2.5-0.9,3.1c-0.8,0.5-7.8,2.3-8.2,2.3v0.1c0.3,0.1,7.7,2.1,8.4,2.4c0.9,0.4,2.1,1.2,0.8,3.2
		c-0.8,1.2-2.3,1.1-3.4,0.5c-0.8-0.4-5.8-5.4-6-5.8l-0.1,0.1c0.1,0.3,2,7.3,2,8.2c0,1-0.3,2.4-2.2,2.4
		C201.3,107.4,200.7,106.2,200.7,105z"/>
</g>
<g>
	<path class="st0" d="M160.7,172.8c0-2.3-0.4-3.6-3.8-4.1c-0.5-0.1-0.6-0.2-0.6-0.5v-0.6c0-0.2,0.1-0.3,0.5-0.5
		c2.2-0.8,4.8-1.9,7.4-3.4c0.5-0.3,0.9-0.4,1.3-0.4c0.3,0,0.4,0.3,0.3,0.8c-0.1,1.2-0.1,5.5-0.1,11.2v7.5c0,2.7,0,5.1,0.1,5.9
		c0.1,1.3,0.3,1.8,1.1,1.8h3.2c0.5,0,0.7,0.2,0.7,0.6v1.2c0,0.5-0.1,0.7-0.6,0.7c-0.5,0-3.7-0.2-6.6-0.2c-4,0-6.7,0.2-7.4,0.2
		c-0.3,0-0.5-0.1-0.5-0.5V191c0-0.4,0.2-0.5,0.7-0.5h3.4c0.8,0,1-0.3,1.1-1.4c0.1-2.1,0.1-4.2,0.1-6.2V172.8z M157.4,151.7
		c0-1.8,1.5-3.8,4.3-3.8c2.5,0,3.7,2.1,3.7,3.6c0,1.9-1.2,4.1-4.1,4.1C159.8,155.5,157.4,154,157.4,151.7z"/>
</g>
<g>
	<path class="st0" d="M101.5,633.5c-0.1,0.6-0.2,1.7-0.2,3.3c0,6.7,4.3,11.8,9.8,11.8c4.2,0,7.1-2.4,8.3-4.7
		c0.1-0.3,0.4-0.4,0.6-0.3l0.9,0.5c0.2,0.1,0.3,0.3,0,1c-1.2,2.7-4.8,7.5-10.9,7.5c-3.9,0-8.2-1.2-10.8-4.9c-2.4-3.5-3-6-3-10.8
		c0-2.7,0.7-7.3,4.3-10.9c3-3,6.4-3.6,9.8-3.6c7.9,0,10.1,7.4,10.1,10.1c0,1-0.8,1.1-1.9,1.1H101.5z M112.5,631.4
		c1.3,0,1.9-0.3,1.9-1c0-1.6-0.8-6.1-5.3-6.1c-3,0-5.9,2-7.2,7.1H112.5z"/>
</g>
<g>
	<path class="st0" d="M278.1,897.4c0,0.3-0.1,0.5-0.5,0.5c-0.6,0-2.4-0.2-5.4-0.2c-3.4,0-4.6,0.2-5.3,0.2c-0.5,0-0.6-0.3-0.6-0.6
		v-1.2c0-0.3,0.1-0.6,0.5-0.6h1.8c1.5,0,2.3-0.3,2.8-0.8c1.3-1.2,7.7-9.7,8.9-11c-2.6-4.1-6.5-9.7-8.1-11.4c-0.5-0.7-1.5-1-2.5-1
		h-1.9c-0.4,0-0.5-0.3-0.5-0.5v-1.4c0-0.5,0.1-0.6,0.5-0.6c0.5,0,2.4,0.2,5.6,0.2c3.2,0,5.8-0.2,6.4-0.2c0.3,0,0.4,0.2,0.4,0.6v1.3
		c0,0.4-0.1,0.5-0.4,0.5h-0.6c-1.1,0-1.1,1.1-0.3,2.3l4.3,6.7l5.2-6.9c0.6-0.8,0.4-2.2-0.8-2.2H287c-0.3,0-0.4-0.2-0.4-0.5v-1.4
		c0-0.4,0.1-0.5,0.3-0.5c0.8,0,2,0.2,5.9,0.2c2.7,0,3.4-0.2,3.9-0.2c0.5,0,0.6,0.3,0.6,0.7v1.2c0,0.4-0.1,0.5-0.5,0.5h-1.1
		c-1.3,0-2,0.3-2.7,0.8c-1.2,1-7,8.2-8.4,10c2.7,4.1,5.5,8.3,8.5,11.9c0.8,1,1.8,1.4,3,1.4h1.1c0.3,0,0.3,0.1,0.3,0.5v1.4
		c0,0.3-0.1,0.5-0.5,0.5c-0.6,0-1.9-0.2-5.3-0.2c-3.9,0-6,0.2-6.7,0.2c-0.5,0-0.5-0.3-0.5-0.6v-1.2c0-0.5,0.1-0.7,0.5-0.7h1
		c0.8,0,1.2-1,0.4-2.2l-4.9-7.9c-1,1.4-5.5,7.5-6,8.6c-0.3,0.8-0.1,1.5,0.8,1.5h1.4c0.3,0,0.3,0.3,0.3,0.5V897.4z"/>
</g>
<g>
	<path class="st0" d="M1403.1,289.7c1.1,0,2.1-0.5,2.4-1c0.3-0.3,0.4-0.5,0.7-0.3l0.7,0.5c0.2,0.2,0.3,0.5-0.1,1.2
		c-0.5,1-1.9,3.4-5.4,3.4c-2.5,0-4.3-1.8-4.9-4.6h-0.1c-1.4,1.7-3.7,3.2-6.8,4.2c-1.3,0.4-2.5,0.4-4.1,0.4c-1.6,0-4.1-1.4-4.1-5.7
		c0-3.2,1.4-5.9,6.9-8.3c3.1-1.4,6.7-3,7.8-4v-4.4c-0.1-1.2-0.2-3-1-3.8c-0.8-0.9-2.1-1.5-4.1-1.5c-1.4,0-3.5,0.5-4.5,1.4
		c-1,0.9-0.3,1.9-0.3,3.2c0,2.4-0.8,3.9-3.6,3.9c-1.1,0-1.6-0.6-1.6-2.2c0-2.2,1.9-4.8,4.7-6.5c2.9-1.7,5.3-2.4,8.4-2.4
		c3.2,0,4.5,1,5.5,1.9c1.4,1.4,1.5,3,1.5,4.9v14.6C1401.1,288.5,1401.9,289.7,1403.1,289.7z M1396.1,277.7c-2.5,1.9-9.2,3.2-9.2,8.9
		c0,2.5,1.5,3.8,3.6,3.8c2,0,5.6-2.4,5.6-4.3V277.7z"/>
</g>
<g>
	<path class="st0" d="M1585.7,175.2c0-5.1-1-6.4-2.1-7.4c-0.9-0.8-2.9-1.2-4.4-1.2c-1.8,0-4.7,0.9-6.6,4c-0.8,1.4-1,2.7-1,4.6v13.6
		c0,1.1,0.4,1.8,1.4,1.8h2.5c0.6,0,0.7,0.1,0.7,0.6v1.1c0,0.5-0.1,0.8-0.5,0.8c-0.6,0-2.5-0.2-6.2-0.2c-3.6,0-5.8,0.2-6.4,0.2
		c-0.4,0-0.5-0.1-0.5-0.6v-1.2c0-0.5,0.1-0.6,0.8-0.6h2.3c0.6,0,1-0.4,1-1.7c0.1-1.2,0.1-2.4,0.1-3.6V173c0-1.4-0.3-2.6-1.9-3.5
		l-1.4-0.8c-0.3-0.2-0.5-0.3-0.5-0.5v-0.5c0-0.2,0.3-0.5,0.4-0.5l6-3.1c0.5-0.3,1-0.4,1.3-0.4c0.4,0,0.6,0.5,0.6,1l0.3,4h0.2
		c2.1-2.8,6.1-5.2,10.1-5.2c3.6,0,6.3,2.1,7.8,5.3h0.3c2.1-2.7,6-5.3,10.1-5.3c2.4,0,4.5,0.4,6.2,2.1c1.6,1.6,3.3,3.2,3.3,8.4v15.3
		c0,1,0.6,1.4,1.4,1.4h1.9c0.6,0,0.8,0.1,0.8,0.6v1.2c0,0.5-0.1,0.7-0.5,0.7c-0.5,0-2.4-0.2-5.7-0.2c-3.4,0-5.9,0.2-6.4,0.2
		c-0.4,0-0.5-0.2-0.5-0.7v-1.2c0-0.5,0.1-0.6,0.9-0.6h1.7c0.8,0,1.3-0.3,1.4-1.3c0.1-1.6,0.1-4.1,0.1-5.6v-10.2c0-2.3-0.4-4.3-2-5.5
		c-1.2-1-3-1.4-5.1-1.4s-4.9,1.6-6,3.6c-1,2-1,3.8-1,6.9v11.9c0,0.9,0.3,1.6,1.4,1.6h2.3c0.6,0,0.8,0.1,0.8,0.6v1.1
		c0,0.5-0.1,0.8-0.5,0.8c-0.5,0-2.3-0.2-6.1-0.2c-3.7,0-6,0.2-6.5,0.2c-0.3,0-0.5-0.2-0.5-0.7v-1.1c0-0.5,0.1-0.7,0.7-0.7h2
		c1.1,0,1.5-0.3,1.5-1.2V175.2z"/>
</g>
</svg>
