<?xml version="1.0" encoding="utf-8"?>
<!-- Generator: Adobe Illustrator 19.2.1, SVG Export Plug-In . SVG Version: 6.00 Build 0)  -->
<svg version="1.1" id="Layer_1" xmlns="http://www.w3.org/2000/svg" xmlns:xlink="http://www.w3.org/1999/xlink" x="0px" y="0px"
	 viewBox="0 0 2560 1600" style="enable-background:new 0 0 2560 1600;" xml:space="preserve">
<style type="text/css">
	.st0{fill:#FFFFFF;}
</style>
<g>
	<path class="st0" d="M90.7,263c0-0.8,1.9-8,2-8.2h-0.1c-0.8,0.7-5.3,5.3-6,5.7c-1.2,0.7-2.5,0.7-3.3-0.5c-1-1.7,0.5-2.8,1-3.2
		c0.8-0.5,7.8-2.5,8.2-2.5v-0.1c-0.3-0.1-7.6-1.9-8.4-2.3c-0.9-0.4-1.9-1.5-1-3c0.8-1.5,2.3-1.2,3.3-0.7c0.8,0.4,6,5.3,6.2,5.6
		l0.1-0.1c-0.1-0.2-2-7.5-2-8.2c0-1.2,0.6-2.3,2.2-2.3c1.7,0,2.2,0.8,2.2,2.3c0,1-1.9,8-2,8.3l0.1,0.1c0.2-0.3,5.4-5.4,6.2-5.8
		c1-0.5,2.3-0.5,3,0.8c1,1.6,0.2,2.5-0.9,3.1c-0.8,0.5-7.8,2.3-8.2,2.3v0.1c0.3,0.1,7.7,2.1,8.4,2.4c0.9,0.4,2.1,1.2,0.8,3.2
		c-0.8,1.2-2.3,1.1-3.4,0.5c-0.8-0.4-5.8-5.4-6-5.8l-0.1,0.1c0.1,0.3,2,7.3,2,8.2c0,1-0.3,2.4-2.2,2.4
		C91.3,265.4,90.7,264.2,90.7,263z"/>
</g>
<g>
	<path class="st0" d="M228.7,349c0-0.8,1.9-8,2-8.2h-0.1c-0.8,0.7-5.3,5.3-6,5.7c-1.2,0.7-2.5,0.7-3.3-0.5c-1-1.7,0.5-2.8,1-3.2
		c0.8-0.5,7.8-2.5,8.2-2.5v-0.1c-0.3-0.1-7.6-1.9-8.4-2.3c-0.9-0.4-1.9-1.5-1-3c0.8-1.5,2.3-1.2,3.3-0.7c0.8,0.4,6,5.3,6.2,5.6
		l0.1-0.1c-0.1-0.2-2-7.5-2-8.2c0-1.2,0.6-2.3,2.2-2.3c1.7,0,2.2,0.8,2.2,2.3c0,1-1.9,8-2,8.3l0.1,0.1c0.2-0.3,5.4-5.4,6.2-5.8
		c1-0.5,2.3-0.5,3,0.8c1,1.6,0.2,2.5-0.9,3.1c-0.8,0.5-7.8,2.3-8.2,2.3v0.1c0.3,0.1,7.7,2.1,8.4,2.4c0.9,0.4,2.1,1.2,0.8,3.2
		c-0.8,1.2-2.3,1.1-3.4,0.5c-0.8-0.4-5.8-5.4-6-5.8l-0.1,0.1c0.1,0.3,2,7.3,2,8.2c0,1-0.3,2.4-2.2,2.4
		C229.3,351.4,228.7,350.2,228.7,349z"/>
</g>
<g>
	<path class="st0" d="M915.7,621.9c0-0.8,1.9-8,2-8.2h-0.1c-0.8,0.7-5.3,5.3-6,5.7c-1.2,0.7-2.5,0.7-3.3-0.5c-1-1.7,0.5-2.8,1-3.2
		c0.8-0.5,7.8-2.5,8.2-2.5v-0.1c-0.3-0.1-7.6-1.9-8.4-2.3c-0.9-0.4-1.9-1.5-1-3c0.8-1.5,2.3-1.2,3.3-0.7c0.8,0.4,6,5.3,6.2,5.6
		l0.1-0.1c-0.1-0.2-2-7.5-2-8.2c0-1.2,0.6-2.3,2.2-2.3c1.7,0,2.2,0.8,2.2,2.3c0,1-1.9,8-2,8.3l0.1,0.1c0.2-0.3,5.4-5.4,6.2-5.8
		c1-0.5,2.3-0.5,3,0.8c1,1.6,0.2,2.5-0.9,3.1c-0.8,0.5-7.8,2.3-8.2,2.3v0.1c0.3,0.1,7.7,2.1,8.4,2.4c0.9,0.4,2.1,1.2,0.8,3.2
		c-0.8,1.2-2.3,1.1-3.4,0.5c-0.8-0.4-5.8-5.4-6-5.8l-0.1,0.1c0.1,0.3,2,7.3,2,8.2c0,1-0.3,2.4-2.2,2.4
		C916.3,624.4,915.7,623.2,915.7,621.9z"/>
</g>
<g>
	<path class="st0" d="M727.7,821.9c0-0.8,1.9-8,2-8.2h-0.1c-0.8,0.7-5.3,5.3-6,5.7c-1.2,0.7-2.5,0.7-3.3-0.5c-1-1.7,0.5-2.8,1-3.2
		c0.8-0.5,7.8-2.5,8.2-2.5v-0.1c-0.3-0.1-7.6-1.9-8.4-2.3c-0.9-0.4-1.9-1.5-1-3c0.8-1.5,2.3-1.2,3.3-0.7c0.8,0.4,6,5.3,6.2,5.6
		l0.1-0.1c-0.1-0.2-2-7.5-2-8.2c0-1.2,0.6-2.3,2.2-2.3c1.7,0,2.2,0.8,2.2,2.3c0,1-1.9,8-2,8.3l0.1,0.1c0.2-0.3,5.4-5.4,6.2-5.8
		c1-0.5,2.3-0.5,3,0.8c1,1.6,0.2,2.5-0.9,3.1c-0.8,0.5-7.8,2.3-8.2,2.3v0.1c0.3,0.1,7.7,2.1,8.4,2.4c0.9,0.4,2.1,1.2,0.8,3.2
		c-0.8,1.2-2.3,1.1-3.4,0.5c-0.8-0.4-5.8-5.4-6-5.8l-0.1,0.1c0.1,0.3,2,7.3,2,8.2c0,1-0.3,2.4-2.2,2.4
		C728.3,824.4,727.7,823.2,727.7,821.9z"/>
</g>
<g>
	<path class="st0" d="M755.7,770.2c0-0.8,1.9-8,2-8.2h-0.1c-0.8,0.7-5.3,5.3-6,5.7c-1.2,0.7-2.5,0.7-3.3-0.5c-1-1.7,0.5-2.8,1-3.2
		c0.8-0.5,7.8-2.5,8.2-2.5v-0.1c-0.3-0.1-7.6-1.9-8.4-2.3c-0.9-0.4-1.9-1.5-1-3c0.8-1.5,2.3-1.2,3.3-0.7c0.8,0.4,6,5.3,6.2,5.6
		l0.1-0.1c-0.1-0.2-2-7.5-2-8.2c0-1.2,0.6-2.3,2.2-2.3c1.7,0,2.2,0.8,2.2,2.3c0,1-1.9,8-2,8.3l0.1,0.1c0.2-0.3,5.4-5.4,6.2-5.8
		c1-0.5,2.3-0.5,3,0.8c1,1.6,0.2,2.5-0.9,3.1c-0.8,0.5-7.8,2.3-8.2,2.3v0.1c0.3,0.1,7.7,2.1,8.4,2.4c0.9,0.4,2.1,1.2,0.8,3.2
		c-0.8,1.2-2.3,1.1-3.4,0.5c-0.8-0.4-5.8-5.4-6-5.8l-0.1,0.1c0.1,0.3,2,7.3,2,8.2c0,1-0.3,2.4-2.2,2.4
		C756.3,772.6,755.7,771.4,755.7,770.2z"/>
</g>
<g>
	<path class="st0" d="M138.6,1486c0-0.8,1.9-8,2-8.2h-0.1c-0.8,0.7-5.3,5.3-6,5.7c-1.2,0.7-2.5,0.7-3.3-0.5c-1-1.7,0.5-2.8,1-3.2
		c0.8-0.5,7.8-2.5,8.2-2.5v-0.1c-0.3-0.1-7.6-1.9-8.4-2.3c-0.9-0.4-1.9-1.5-1-3c0.8-1.5,2.3-1.2,3.3-0.7c0.8,0.4,6,5.3,6.2,5.6
		l0.1-0.1c-0.1-0.2-2-7.5-2-8.2c0-1.2,0.6-2.3,2.2-2.3c1.7,0,2.2,0.8,2.2,2.3c0,1-1.9,8-2,8.3l0.1,0.1c0.2-0.3,5.4-5.4,6.2-5.8
		c1-0.5,2.3-0.5,3,0.8c1,1.6,0.2,2.5-0.9,3.1c-0.8,0.5-7.8,2.3-8.2,2.3v0.1c0.3,0.1,7.7,2.1,8.4,2.4c0.9,0.4,2.1,1.2,0.8,3.2
		c-0.8,1.2-2.3,1.1-3.4,0.5c-0.8-0.4-5.8-5.4-6-5.8l-0.1,0.1c0.1,0.3,2,7.3,2,8.2c0,1-0.3,2.4-2.2,2.4
		C139.2,1488.4,138.6,1487.3,138.6,1486z"/>
</g>
<g>
	<path class="st0" d="M72.6,1009c0-0.8,1.9-8,2-8.2h-0.1c-0.8,0.7-5.3,5.3-6,5.7c-1.2,0.7-2.5,0.7-3.3-0.5c-1-1.7,0.5-2.8,1-3.2
		c0.8-0.5,7.8-2.5,8.2-2.5v-0.1c-0.3-0.1-7.6-1.9-8.4-2.3c-0.9-0.4-1.9-1.5-1-3c0.8-1.5,2.3-1.2,3.3-0.7c0.8,0.4,6,5.3,6.2,5.6
		l0.1-0.1c-0.1-0.2-2-7.5-2-8.2c0-1.2,0.6-2.3,2.2-2.3c1.7,0,2.2,0.8,2.2,2.3c0,1-1.9,8-2,8.3l0.1,0.1c0.2-0.3,5.4-5.4,6.2-5.8
		c1-0.5,2.3-0.5,3,0.8c1,1.6,0.2,2.5-0.9,3.1c-0.8,0.5-7.8,2.3-8.2,2.3v0.1c0.3,0.1,7.7,2.1,8.4,2.4c0.9,0.4,2.1,1.2,0.8,3.2
		c-0.8,1.2-2.3,1.1-3.4,0.5c-0.8-0.4-5.8-5.4-6-5.8l-0.1,0.1c0.1,0.3,2,7.3,2,8.2c0,1-0.3,2.4-2.2,2.4
		C73.2,1011.4,72.6,1010.2,72.6,1009z"/>
</g>
<g>
	<path class="st0" d="M453.6,1222c0-0.8,1.9-8,2-8.2h-0.1c-0.8,0.7-5.3,5.3-6,5.7c-1.2,0.7-2.5,0.7-3.3-0.5c-1-1.7,0.5-2.8,1-3.2
		c0.8-0.5,7.8-2.5,8.2-2.5v-0.1c-0.3-0.1-7.6-1.9-8.4-2.3c-0.9-0.4-1.9-1.5-1-3c0.8-1.5,2.3-1.2,3.3-0.7c0.8,0.4,6,5.3,6.2,5.6
		l0.1-0.1c-0.1-0.2-2-7.5-2-8.2c0-1.2,0.6-2.3,2.2-2.3c1.7,0,2.2,0.8,2.2,2.3c0,1-1.9,8-2,8.3l0.1,0.1c0.2-0.3,5.4-5.4,6.2-5.8
		c1-0.5,2.3-0.5,3,0.8c1,1.6,0.2,2.5-0.9,3.1c-0.8,0.5-7.8,2.3-8.2,2.3v0.1c0.3,0.1,7.7,2.1,8.4,2.4c0.9,0.4,2.1,1.2,0.8,3.2
		c-0.8,1.2-2.3,1.1-3.4,0.5c-0.8-0.4-5.8-5.4-6-5.8l-0.1,0.1c0.1,0.3,2,7.3,2,8.2c0,1-0.3,2.4-2.2,2.4
		C454.3,1224.4,453.6,1223.2,453.6,1222z"/>
</g>
<g>
	<path class="st0" d="M915.7,1537.1c0-0.8,1.9-8,2-8.2h-0.1c-0.8,0.7-5.3,5.3-6,5.7c-1.2,0.7-2.5,0.7-3.3-0.5c-1-1.7,0.5-2.8,1-3.2
		c0.8-0.5,7.8-2.5,8.2-2.5v-0.1c-0.3-0.1-7.6-1.9-8.4-2.3c-0.9-0.4-1.9-1.5-1-3c0.8-1.5,2.3-1.2,3.3-0.7c0.8,0.4,6,5.3,6.2,5.6
		l0.1-0.1c-0.1-0.2-2-7.5-2-8.2c0-1.2,0.6-2.3,2.2-2.3c1.7,0,2.2,0.8,2.2,2.3c0,1-1.9,8-2,8.3l0.1,0.1c0.2-0.3,5.4-5.4,6.2-5.8
		c1-0.5,2.3-0.5,3,0.8c1,1.6,0.2,2.5-0.9,3.1c-0.8,0.5-7.8,2.3-8.2,2.3v0.1c0.3,0.1,7.7,2.1,8.4,2.4c0.9,0.4,2.1,1.2,0.8,3.2
		c-0.8,1.2-2.3,1.1-3.4,0.5c-0.8-0.4-5.8-5.4-6-5.8l-0.1,0.1c0.1,0.3,2,7.3,2,8.2c0,1-0.3,2.4-2.2,2.4
		C916.3,1539.5,915.7,1538.4,915.7,1537.1z"/>
</g>
<g>
	<path class="st0" d="M849.2,1293.4c0-0.8,1.9-8,2-8.2h-0.1c-0.8,0.7-5.3,5.3-6,5.7c-1.2,0.7-2.5,0.7-3.3-0.5c-1-1.7,0.5-2.8,1-3.2
		c0.8-0.5,7.8-2.5,8.2-2.5v-0.1c-0.3-0.1-7.6-1.9-8.4-2.3c-0.9-0.4-1.9-1.5-1-3c0.8-1.5,2.3-1.2,3.3-0.7c0.8,0.4,6,5.3,6.2,5.6
		l0.1-0.1c-0.1-0.2-2-7.5-2-8.2c0-1.2,0.6-2.3,2.2-2.3c1.7,0,2.2,0.8,2.2,2.3c0,1-1.9,8-2,8.3l0.1,0.1c0.2-0.3,5.4-5.4,6.2-5.8
		c1-0.5,2.3-0.5,3,0.8c1,1.6,0.2,2.5-0.9,3.1c-0.8,0.5-7.8,2.3-8.2,2.3v0.1c0.3,0.1,7.7,2.1,8.4,2.4c0.9,0.4,2.1,1.2,0.8,3.2
		c-0.8,1.2-2.3,1.1-3.4,0.5c-0.8-0.4-5.8-5.4-6-5.8l-0.1,0.1c0.1,0.3,2,7.3,2,8.2c0,1-0.3,2.4-2.2,2.4
		C849.8,1295.8,849.2,1294.6,849.2,1293.4z"/>
</g>
<g>
	<path class="st0" d="M1459.7,717.3c0-0.8,1.9-8,2-8.2h-0.1c-0.8,0.7-5.3,5.3-6,5.7c-1.2,0.7-2.5,0.7-3.3-0.5c-1-1.7,0.5-2.8,1-3.2
		c0.8-0.5,7.8-2.5,8.2-2.5v-0.1c-0.3-0.1-7.6-1.9-8.4-2.3c-0.9-0.4-1.9-1.5-1-3c0.8-1.5,2.3-1.2,3.3-0.7c0.8,0.4,6,5.3,6.2,5.6
		l0.1-0.1c-0.1-0.2-2-7.5-2-8.2c0-1.2,0.6-2.3,2.2-2.3c1.7,0,2.2,0.8,2.2,2.3c0,1-1.9,8-2,8.3l0.1,0.1c0.2-0.3,5.4-5.4,6.2-5.8
		c1-0.5,2.3-0.5,3,0.8c1,1.6,0.2,2.5-0.9,3.1c-0.8,0.5-7.8,2.3-8.2,2.3v0.1c0.3,0.1,7.7,2.1,8.4,2.4c0.9,0.4,2.1,1.2,0.8,3.2
		c-0.8,1.2-2.3,1.1-3.4,0.5c-0.8-0.4-5.8-5.4-6-5.8l-0.1,0.1c0.1,0.3,2,7.3,2,8.2c0,1-0.3,2.4-2.2,2.4
		C1460.4,719.7,1459.7,718.6,1459.7,717.3z"/>
</g>
<g>
	<path class="st0" d="M1208.6,648.4c0-0.8,1.9-8,2-8.2h-0.1c-0.8,0.7-5.3,5.3-6,5.7c-1.2,0.7-2.5,0.7-3.3-0.5c-1-1.7,0.5-2.8,1-3.2
		c0.8-0.5,7.8-2.5,8.2-2.5v-0.1c-0.3-0.1-7.6-1.9-8.4-2.3c-0.9-0.4-1.9-1.5-1-3c0.8-1.5,2.3-1.2,3.3-0.7c0.8,0.4,6,5.3,6.2,5.6
		l0.1-0.1c-0.1-0.2-2-7.5-2-8.2c0-1.2,0.6-2.3,2.2-2.3c1.7,0,2.2,0.8,2.2,2.3c0,1-1.9,8-2,8.3l0.1,0.1c0.2-0.3,5.4-5.4,6.2-5.8
		c1-0.5,2.3-0.5,3,0.8c1,1.6,0.2,2.5-0.9,3.1c-0.8,0.5-7.8,2.3-8.2,2.3v0.1c0.3,0.1,7.7,2.1,8.4,2.4c0.9,0.4,2.1,1.2,0.8,3.2
		c-0.8,1.2-2.3,1.1-3.4,0.5c-0.8-0.4-5.8-5.4-6-5.8l-0.1,0.1c0.1,0.3,2,7.3,2,8.2c0,1-0.3,2.4-2.2,2.4
		C1209.3,650.8,1208.6,649.6,1208.6,648.4z"/>
</g>
<g>
	<path class="st0" d="M1334.2,884.7c0-0.8,1.9-8,2-8.2h-0.1c-0.8,0.7-5.3,5.3-6,5.7c-1.2,0.7-2.5,0.7-3.3-0.5c-1-1.7,0.5-2.8,1-3.2
		c0.8-0.5,7.8-2.5,8.2-2.5v-0.1c-0.3-0.1-7.6-1.9-8.4-2.3c-0.9-0.4-1.9-1.5-1-3c0.8-1.5,2.3-1.2,3.3-0.7c0.8,0.4,6,5.3,6.2,5.6
		l0.1-0.1c-0.1-0.2-2-7.5-2-8.2c0-1.2,0.6-2.3,2.2-2.3c1.7,0,2.2,0.8,2.2,2.3c0,1-1.9,8-2,8.3l0.1,0.1c0.2-0.3,5.4-5.4,6.2-5.8
		c1-0.5,2.3-0.5,3,0.8c1,1.6,0.2,2.5-0.9,3.1c-0.8,0.5-7.8,2.3-8.2,2.3v0.1c0.3,0.1,7.7,2.1,8.4,2.4c0.9,0.4,2.1,1.2,0.8,3.2
		c-0.8,1.2-2.3,1.1-3.4,0.5c-0.8-0.4-5.8-5.4-6-5.8l-0.1,0.1c0.1,0.3,2,7.3,2,8.2c0,1-0.3,2.4-2.2,2.4
		C1334.8,887.1,1334.2,886,1334.2,884.7z"/>
</g>
<g>
	<path class="st0" d="M1358.2,1367.8c0-0.8,1.9-8,2-8.2h-0.1c-0.8,0.7-5.3,5.3-6,5.7c-1.2,0.7-2.5,0.7-3.3-0.5c-1-1.7,0.5-2.8,1-3.2
		c0.8-0.5,7.8-2.5,8.2-2.5v-0.1c-0.3-0.1-7.6-1.9-8.4-2.3c-0.9-0.4-1.9-1.5-1-3c0.8-1.5,2.3-1.2,3.3-0.7c0.8,0.4,6,5.3,6.2,5.6
		l0.1-0.1c-0.1-0.2-2-7.5-2-8.2c0-1.2,0.6-2.3,2.2-2.3c1.7,0,2.2,0.8,2.2,2.3c0,1-1.9,8-2,8.3l0.1,0.1c0.2-0.3,5.4-5.4,6.2-5.8
		c1-0.5,2.3-0.5,3,0.8c1,1.6,0.2,2.5-0.9,3.1c-0.8,0.5-7.8,2.3-8.2,2.3v0.1c0.3,0.1,7.7,2.1,8.4,2.4c0.9,0.4,2.1,1.2,0.8,3.2
		c-0.8,1.2-2.3,1.1-3.4,0.5c-0.8-0.4-5.8-5.4-6-5.8l-0.1,0.1c0.1,0.3,2,7.3,2,8.2c0,1-0.3,2.4-2.2,2.4
		C1358.8,1370.2,1358.2,1369,1358.2,1367.8z"/>
</g>
<g>
	<path class="st0" d="M1437.7,1466.8c0-0.8,1.9-8,2-8.2h-0.1c-0.8,0.7-5.3,5.3-6,5.7c-1.2,0.7-2.5,0.7-3.3-0.5c-1-1.7,0.5-2.8,1-3.2
		c0.8-0.5,7.8-2.5,8.2-2.5v-0.1c-0.3-0.1-7.6-1.9-8.4-2.3c-0.9-0.4-1.9-1.5-1-3c0.8-1.5,2.3-1.2,3.3-0.7c0.8,0.4,6,5.3,6.2,5.6
		l0.1-0.1c-0.1-0.2-2-7.5-2-8.2c0-1.2,0.6-2.3,2.2-2.3c1.7,0,2.2,0.8,2.2,2.3c0,1-1.9,8-2,8.3l0.1,0.1c0.2-0.3,5.4-5.4,6.2-5.8
		c1-0.5,2.3-0.5,3,0.8c1,1.6,0.2,2.5-0.9,3.1c-0.8,0.5-7.8,2.3-8.2,2.3v0.1c0.3,0.1,7.7,2.1,8.4,2.4c0.9,0.4,2.1,1.2,0.8,3.2
		c-0.8,1.2-2.3,1.1-3.4,0.5c-0.8-0.4-5.8-5.4-6-5.8l-0.1,0.1c0.1,0.3,2,7.3,2,8.2c0,1-0.3,2.4-2.2,2.4
		C1438.3,1469.2,1437.7,1468,1437.7,1466.8z"/>
</g>
<g>
	<path class="st0" d="M2232.8,1520.8c0-0.8,1.9-8,2-8.2h-0.1c-0.8,0.7-5.3,5.3-6,5.7c-1.2,0.7-2.5,0.7-3.3-0.5c-1-1.7,0.5-2.8,1-3.2
		c0.8-0.5,7.8-2.5,8.2-2.5v-0.1c-0.3-0.1-7.6-1.9-8.4-2.3c-0.9-0.4-1.9-1.5-1-3c0.8-1.5,2.3-1.2,3.3-0.7c0.8,0.4,6,5.3,6.2,5.6
		l0.1-0.1c-0.1-0.2-2-7.5-2-8.2c0-1.2,0.6-2.3,2.2-2.3c1.7,0,2.2,0.8,2.2,2.3c0,1-1.9,8-2,8.3l0.1,0.1c0.2-0.3,5.4-5.4,6.2-5.8
		c1-0.5,2.3-0.5,3,0.8c1,1.6,0.2,2.5-0.9,3.1c-0.8,0.5-7.8,2.3-8.2,2.3v0.1c0.3,0.1,7.7,2.1,8.4,2.4c0.9,0.4,2.1,1.2,0.8,3.2
		c-0.8,1.2-2.3,1.1-3.4,0.5c-0.8-0.4-5.8-5.4-6-5.8l-0.1,0.1c0.1,0.3,2,7.3,2,8.2c0,1-0.3,2.4-2.2,2.4
		C2233.4,1523.2,2232.8,1522,2232.8,1520.8z"/>
</g>
<g>
	<path class="st0" d="M2424.8,1076.7c0-0.8,1.9-8,2-8.2h-0.1c-0.8,0.7-5.3,5.3-6,5.7c-1.2,0.7-2.5,0.7-3.3-0.5c-1-1.7,0.5-2.8,1-3.2
		c0.8-0.5,7.8-2.5,8.2-2.5v-0.1c-0.3-0.1-7.6-1.9-8.4-2.3c-0.9-0.4-1.9-1.5-1-3c0.8-1.5,2.3-1.2,3.3-0.7c0.8,0.4,6,5.3,6.2,5.6
		l0.1-0.1c-0.1-0.2-2-7.5-2-8.2c0-1.2,0.6-2.3,2.2-2.3c1.7,0,2.2,0.8,2.2,2.3c0,1-1.9,8-2,8.3l0.1,0.1c0.2-0.3,5.4-5.4,6.2-5.8
		c1-0.5,2.3-0.5,3,0.8c1,1.6,0.2,2.5-0.9,3.1c-0.8,0.5-7.8,2.3-8.2,2.3v0.1c0.3,0.1,7.7,2.1,8.4,2.4c0.9,0.4,2.1,1.2,0.8,3.2
		c-0.8,1.2-2.3,1.1-3.4,0.5c-0.8-0.4-5.8-5.4-6-5.8l-0.1,0.1c0.1,0.3,2,7.3,2,8.2c0,1-0.3,2.4-2.2,2.4
		C2425.4,1079.1,2424.8,1078,2424.8,1076.7z"/>
</g>
<g>
	<path class="st0" d="M1758.7,868c0-0.8,1.9-8,2-8.2h-0.1c-0.8,0.7-5.3,5.3-6,5.7c-1.2,0.7-2.5,0.7-3.3-0.5c-1-1.7,0.5-2.8,1-3.2
		c0.8-0.5,7.8-2.5,8.2-2.5v-0.1c-0.3-0.1-7.6-1.9-8.4-2.3c-0.9-0.4-1.9-1.5-1-3c0.8-1.5,2.3-1.2,3.3-0.7c0.8,0.4,6,5.3,6.2,5.6
		l0.1-0.1c-0.1-0.2-2-7.5-2-8.2c0-1.2,0.6-2.3,2.2-2.3c1.7,0,2.2,0.8,2.2,2.3c0,1-1.9,8-2,8.3l0.1,0.1c0.2-0.3,5.4-5.4,6.2-5.8
		c1-0.5,2.3-0.5,3,0.8c1,1.6,0.2,2.5-0.9,3.1c-0.8,0.5-7.8,2.3-8.2,2.3v0.1c0.3,0.1,7.7,2.1,8.4,2.4c0.9,0.4,2.1,1.2,0.8,3.2
		c-0.8,1.2-2.3,1.1-3.4,0.5c-0.8-0.4-5.8-5.4-6-5.8l-0.1,0.1c0.1,0.3,2,7.3,2,8.2c0,1-0.3,2.4-2.2,2.4
		C1759.3,870.4,1758.7,869.2,1758.7,868z"/>
</g>
<g>
	<path class="st0" d="M1086.7,123.9c0-0.8,1.9-8,2-8.2h-0.1c-0.8,0.7-5.3,5.3-6,5.7c-1.2,0.7-2.5,0.7-3.3-0.5c-1-1.7,0.5-2.8,1-3.2
		c0.8-0.5,7.8-2.5,8.2-2.5V115c-0.3-0.1-7.6-1.9-8.4-2.3c-0.9-0.4-1.9-1.5-1-3c0.8-1.5,2.3-1.2,3.3-0.7c0.8,0.4,6,5.3,6.2,5.6
		l0.1-0.1c-0.1-0.2-2-7.5-2-8.2c0-1.2,0.6-2.3,2.2-2.3c1.7,0,2.2,0.8,2.2,2.3c0,1-1.9,8-2,8.3l0.1,0.1c0.2-0.3,5.4-5.4,6.2-5.8
		c1-0.5,2.3-0.5,3,0.8c1,1.6,0.2,2.5-0.9,3.1c-0.8,0.5-7.8,2.3-8.2,2.3v0.1c0.3,0.1,7.7,2.1,8.4,2.4c0.9,0.4,2.1,1.2,0.8,3.2
		c-0.8,1.2-2.3,1.1-3.4,0.5c-0.8-0.4-5.8-5.4-6-5.8l-0.1,0.1c0.1,0.3,2,7.3,2,8.2c0,1-0.3,2.4-2.2,2.4
		C1087.3,126.3,1086.7,125.1,1086.7,123.9z"/>
</g>
<g>
	<path class="st0" d="M2283.8,240.9c0-0.8,1.9-8,2-8.2h-0.1c-0.8,0.7-5.3,5.3-6,5.7c-1.2,0.7-2.5,0.7-3.3-0.5c-1-1.7,0.5-2.8,1-3.2
		c0.8-0.5,7.8-2.5,8.2-2.5V232c-0.3-0.1-7.6-1.9-8.4-2.3c-0.9-0.4-1.9-1.5-1-3c0.8-1.5,2.3-1.2,3.3-0.7c0.8,0.4,6,5.3,6.2,5.6
		l0.1-0.1c-0.1-0.2-2-7.5-2-8.2c0-1.2,0.6-2.3,2.2-2.3c1.7,0,2.2,0.8,2.2,2.3c0,1-1.9,8-2,8.3l0.1,0.1c0.2-0.3,5.4-5.4,6.2-5.8
		c1-0.5,2.3-0.5,3,0.8c1,1.6,0.2,2.5-0.9,3.1c-0.8,0.5-7.8,2.3-8.2,2.3v0.1c0.3,0.1,7.7,2.1,8.4,2.4c0.9,0.4,2.1,1.2,0.8,3.2
		c-0.8,1.2-2.3,1.1-3.4,0.5c-0.8-0.4-5.8-5.4-6-5.8l-0.1,0.1c0.1,0.3,2,7.3,2,8.2c0,1-0.3,2.4-2.2,2.4
		C2284.4,243.3,2283.8,242.1,2283.8,240.9z"/>
</g>
<g>
	<path class="st0" d="M1289.1,283.9c0-0.8,1.9-8,2-8.2h-0.1c-0.8,0.7-5.3,5.3-6,5.7c-1.2,0.7-2.5,0.7-3.3-0.5c-1-1.7,0.5-2.8,1-3.2
		c0.8-0.5,7.8-2.5,8.2-2.5V275c-0.3-0.1-7.6-1.9-8.4-2.3c-0.9-0.4-1.9-1.5-1-3c0.8-1.5,2.3-1.2,3.3-0.7c0.8,0.4,6,5.3,6.2,5.6
		l0.1-0.1c-0.1-0.2-2-7.5-2-8.2c0-1.2,0.6-2.3,2.2-2.3c1.7,0,2.2,0.8,2.2,2.3c0,1-1.9,8-2,8.3l0.1,0.1c0.2-0.3,5.4-5.4,6.2-5.8
		c1-0.5,2.3-0.5,3,0.8c1,1.6,0.2,2.5-0.9,3.1c-0.8,0.5-7.8,2.3-8.2,2.3v0.1c0.3,0.1,7.7,2.1,8.4,2.4c0.9,0.4,2.1,1.2,0.8,3.2
		c-0.8,1.2-2.3,1.1-3.4,0.5c-0.8-0.4-5.8-5.4-6-5.8l-0.1,0.1c0.1,0.3,2,7.3,2,8.2c0,1-0.3,2.4-2.2,2.4
		C1289.7,286.3,1289.1,285.1,1289.1,283.9z"/>
</g>
<g>
	<path class="st0" d="M1499.1,263c0-0.8,1.9-8,2-8.2h-0.1c-0.8,0.7-5.3,5.3-6,5.7c-1.2,0.7-2.5,0.7-3.3-0.5c-1-1.7,0.5-2.8,1-3.2
		c0.8-0.5,7.8-2.5,8.2-2.5v-0.1c-0.3-0.1-7.6-1.9-8.4-2.3c-0.9-0.4-1.9-1.5-1-3c0.8-1.5,2.3-1.2,3.3-0.7c0.8,0.4,6,5.3,6.2,5.6
		l0.1-0.1c-0.1-0.2-2-7.5-2-8.2c0-1.2,0.6-2.3,2.2-2.3c1.7,0,2.2,0.8,2.2,2.3c0,1-1.9,8-2,8.3l0.1,0.1c0.2-0.3,5.4-5.4,6.2-5.8
		c1-0.5,2.3-0.5,3,0.8c1,1.6,0.2,2.5-0.9,3.1c-0.8,0.5-7.8,2.3-8.2,2.3v0.1c0.3,0.1,7.7,2.1,8.4,2.4c0.9,0.4,2.1,1.2,0.8,3.2
		c-0.8,1.2-2.3,1.1-3.4,0.5c-0.8-0.4-5.8-5.4-6-5.8l-0.1,0.1c0.1,0.3,2,7.3,2,8.2c0,1-0.3,2.4-2.2,2.4
		C1499.7,265.4,1499.1,264.2,1499.1,263z"/>
</g>
<g>
	<path class="st0" d="M1919.1,563c0-0.8,1.9-8,2-8.2h-0.1c-0.8,0.7-5.3,5.3-6,5.7c-1.2,0.7-2.5,0.7-3.3-0.5c-1-1.7,0.5-2.8,1-3.2
		c0.8-0.5,7.8-2.5,8.2-2.5v-0.1c-0.3-0.1-7.6-1.9-8.4-2.3c-0.9-0.4-1.9-1.5-1-3c0.8-1.5,2.3-1.2,3.3-0.7c0.8,0.4,6,5.3,6.2,5.6
		l0.1-0.1c-0.1-0.2-2-7.5-2-8.2c0-1.2,0.6-2.3,2.2-2.3c1.7,0,2.2,0.8,2.2,2.3c0,1-1.9,8-2,8.3l0.1,0.1c0.2-0.3,5.4-5.4,6.2-5.8
		c1-0.5,2.3-0.5,3,0.8c1,1.6,0.2,2.5-0.9,3.1c-0.8,0.5-7.8,2.3-8.2,2.3v0.1c0.3,0.1,7.7,2.1,8.4,2.4c0.9,0.4,2.1,1.2,0.8,3.2
		c-0.8,1.2-2.3,1.1-3.4,0.5c-0.8-0.4-5.8-5.4-6-5.8l-0.1,0.1c0.1,0.3,2,7.3,2,8.2c0,1-0.3,2.4-2.2,2.4
		C1919.7,565.4,1919.1,564.2,1919.1,563z"/>
</g>
<g>
	<path class="st0" d="M1481.1,314c0-0.8,1.9-8,2-8.2h-0.1c-0.8,0.7-5.3,5.3-6,5.7c-1.2,0.7-2.5,0.7-3.3-0.5c-1-1.7,0.5-2.8,1-3.2
		c0.8-0.5,7.8-2.5,8.2-2.5v-0.1c-0.3-0.1-7.6-1.9-8.4-2.3c-0.9-0.4-1.9-1.5-1-3c0.8-1.5,2.3-1.2,3.3-0.7c0.8,0.4,6,5.3,6.2,5.6
		l0.1-0.1c-0.1-0.2-2-7.5-2-8.2c0-1.2,0.6-2.3,2.2-2.3c1.7,0,2.2,0.8,2.2,2.3c0,1-1.9,8-2,8.3l0.1,0.1c0.2-0.3,5.4-5.4,6.2-5.8
		c1-0.5,2.3-0.5,3,0.8c1,1.6,0.2,2.5-0.9,3.1c-0.8,0.5-7.8,2.3-8.2,2.3v0.1c0.3,0.1,7.7,2.1,8.4,2.4c0.9,0.4,2.1,1.2,0.8,3.2
		c-0.8,1.2-2.3,1.1-3.4,0.5c-0.8-0.4-5.8-5.4-6-5.8l-0.1,0.1c0.1,0.3,2,7.3,2,8.2c0,1-0.3,2.4-2.2,2.4
		C1481.7,316.4,1481.1,315.2,1481.1,314z"/>
</g>
<g>
	<path class="st0" d="M746.7,349c0-0.8,1.9-8,2-8.2h-0.1c-0.8,0.7-5.3,5.3-6,5.7c-1.2,0.7-2.5,0.7-3.3-0.5c-1-1.7,0.5-2.8,1-3.2
		c0.8-0.5,7.8-2.5,8.2-2.5v-0.1c-0.3-0.1-7.6-1.9-8.4-2.3c-0.9-0.4-1.9-1.5-1-3c0.8-1.5,2.3-1.2,3.3-0.7c0.8,0.4,6,5.3,6.2,5.6
		l0.1-0.1c-0.1-0.2-2-7.5-2-8.2c0-1.2,0.6-2.3,2.2-2.3c1.7,0,2.2,0.8,2.2,2.3c0,1-1.9,8-2,8.3l0.1,0.1c0.2-0.3,5.4-5.4,6.2-5.8
		c1-0.5,2.3-0.5,3,0.8c1,1.6,0.2,2.5-0.9,3.1c-0.8,0.5-7.8,2.3-8.2,2.3v0.1c0.3,0.1,7.7,2.1,8.4,2.4c0.9,0.4,2.1,1.2,0.8,3.2
		c-0.8,1.2-2.3,1.1-3.4,0.5c-0.8-0.4-5.8-5.4-6-5.8l-0.1,0.1c0.1,0.3,2,7.3,2,8.2c0,1-0.3,2.4-2.2,2.4
		C747.3,351.4,746.7,350.2,746.7,349z"/>
</g>
<g>
	<path class="st0" d="M670.7,185c0-0.8,1.9-8,2-8.2h-0.1c-0.8,0.7-5.3,5.3-6,5.7c-1.2,0.7-2.5,0.7-3.3-0.5c-1-1.7,0.5-2.8,1-3.2
		c0.8-0.5,7.8-2.5,8.2-2.5v-0.1c-0.3-0.1-7.6-1.9-8.4-2.3c-0.9-0.4-1.9-1.5-1-3c0.8-1.5,2.3-1.2,3.3-0.7c0.8,0.4,6,5.3,6.2,5.6
		l0.1-0.1c-0.1-0.2-2-7.5-2-8.2c0-1.2,0.6-2.3,2.2-2.3c1.7,0,2.2,0.8,2.2,2.3c0,1-1.9,8-2,8.3l0.1,0.1c0.2-0.3,5.4-5.4,6.2-5.8
		c1-0.5,2.3-0.5,3,0.8c1,1.6,0.2,2.5-0.9,3.1c-0.8,0.5-7.8,2.3-8.2,2.3v0.1c0.3,0.1,7.7,2.1,8.4,2.4c0.9,0.4,2.1,1.2,0.8,3.2
		c-0.8,1.2-2.3,1.1-3.4,0.5c-0.8-0.4-5.8-5.4-6-5.8l-0.1,0.1c0.1,0.3,2,7.3,2,8.2c0,1-0.3,2.4-2.2,2.4
		C671.3,187.4,670.7,186.2,670.7,185z"/>
</g>
<g>
	<path class="st0" d="M200.7,105c0-0.8,1.9-8,2-8.2h-0.1c-0.8,0.7-5.3,5.3-6,5.7c-1.2,0.7-2.5,0.7-3.3-0.5c-1-1.7,0.5-2.8,1-3.2
		c0.8-0.5,7.8-2.5,8.2-2.5v-0.1c-0.3-0.1-7.6-1.9-8.4-2.3c-0.9-0.4-1.9-1.5-1-3c0.8-1.5,2.3-1.2,3.3-0.7c0.8,0.4,6,5.3,6.2,5.6
		l0.1-0.1c-0.1-0.2-2-7.5-2-8.2c0-1.2,0.6-2.3,2.2-2.3c1.7,0,2.2,0.8,2.2,2.3c0,1-1.9,8-2,8.3l0.1,0.1c0.2-0.3,5.4-5.4,6.2-5.8
		c1-0.5,2.3-0.5,3,0.8c1,1.6,0.2,2.5-0.9,3.1c-0.8,0.5-7.8,2.3-8.2,2.3v0.1c0.3,0.1,7.7,2.1,8.4,2.4c0.9,0.4,2.1,1.2,0.8,3.2
		c-0.8,1.2-2.3,1.1-3.4,0.5c-0.8-0.4-5.8-5.4-6-5.8l-0.1,0.1c0.1,0.3,2,7.3,2,8.2c0,1-0.3,2.4-2.2,2.4
		C201.3,107.4,200.7,106.2,200.7,105z"/>
</g>
<g>
	<path class="st0" d="M160.7,172.8c0-2.3-0.4-3.6-3.8-4.1c-0.5-0.1-0.6-0.2-0.6-0.5v-0.6c0-0.2,0.1-0.3,0.5-0.5
		c2.2-0.8,4.8-1.9,7.4-3.4c0.5-0.3,0.9-0.4,1.3-0.4c0.3,0,0.4,0.3,0.3,0.8c-0.1,1.2-0.1,5.5-0.1,11.2v7.5c0,2.7,0,5.1,0.1,5.9
		c0.1,1.3,0.3,1.8,1.1,1.8h3.2c0.5,0,0.7,0.2,0.7,0.6v1.2c0,0.5-0.1,0.7-0.6,0.7c-0.5,0-3.7-0.2-6.6-0.2c-4,0-6.7,0.2-7.4,0.2
		c-0.3,0-0.5-0.1-0.5-0.5V191c0-0.4,0.2-0.5,0.7-0.5h3.4c0.8,0,1-0.3,1.1-1.4c0.1-2.1,0.1-4.2,0.1-6.2V172.8z M157.4,151.7
		c0-1.8,1.5-3.8,4.3-3.8c2.5,0,3.7,2.1,3.7,3.6c0,1.9-1.2,4.1-4.1,4.1C159.8,155.5,157.4,154,157.4,151.7z"/>
</g>
<g>
	<path class="st0" d="M2230.7,1044.7c0-2.3-0.4-3.6-3.8-4.1c-0.5-0.1-0.6-0.2-0.6-0.5v-0.6c0-0.2,0.1-0.3,0.5-0.5
		c2.2-0.8,4.8-1.9,7.4-3.4c0.5-0.3,0.9-0.4,1.3-0.4c0.3,0,0.4,0.3,0.3,0.8c-0.1,1.2-0.1,5.5-0.1,11.2v7.5c0,2.7,0,5.1,0.1,5.9
		c0.1,1.3,0.3,1.8,1.1,1.8h3.2c0.5,0,0.7,0.2,0.7,0.6v1.2c0,0.5-0.1,0.7-0.6,0.7c-0.5,0-3.7-0.2-6.6-0.2c-4,0-6.7,0.2-7.4,0.2
		c-0.3,0-0.5-0.1-0.5-0.5v-1.4c0-0.4,0.2-0.5,0.7-0.5h3.4c0.8,0,1-0.3,1.1-1.4c0.1-2.1,0.1-4.2,0.1-6.2V1044.7z M2227.5,1023.7
		c0-1.8,1.5-3.8,4.3-3.8c2.5,0,3.7,2.1,3.7,3.6c0,1.9-1.2,4.1-4.1,4.1C2229.8,1027.5,2227.5,1025.9,2227.5,1023.7z"/>
</g>
<g>
	<path class="st0" d="M101.5,633.5c-0.1,0.6-0.2,1.7-0.2,3.3c0,6.7,4.3,11.8,9.8,11.8c4.2,0,7.1-2.4,8.3-4.7
		c0.1-0.3,0.4-0.4,0.6-0.3l0.9,0.5c0.2,0.1,0.3,0.3,0,1c-1.2,2.7-4.8,7.5-10.9,7.5c-3.9,0-8.2-1.2-10.8-4.9c-2.4-3.5-3-6-3-10.8
		c0-2.7,0.7-7.3,4.3-10.9c3-3,6.4-3.6,9.8-3.6c7.9,0,10.1,7.4,10.1,10.1c0,1-0.8,1.1-1.9,1.1H101.5z M112.5,631.4
		c1.3,0,1.9-0.3,1.9-1c0-1.6-0.8-6.1-5.3-6.1c-3,0-5.9,2-7.2,7.1H112.5z"/>
</g>
<g>
	<path class="st0" d="M278.1,897.4c0,0.3-0.1,0.5-0.5,0.5c-0.6,0-2.4-0.2-5.4-0.2c-3.4,0-4.6,0.2-5.3,0.2c-0.5,0-0.6-0.3-0.6-0.6
		v-1.2c0-0.3,0.1-0.6,0.5-0.6h1.8c1.5,0,2.3-0.3,2.8-0.8c1.3-1.2,7.7-9.7,8.9-11c-2.6-4.1-6.5-9.7-8.1-11.4c-0.5-0.7-1.5-1-2.5-1
		h-1.9c-0.4,0-0.5-0.3-0.5-0.5v-1.4c0-0.5,0.1-0.6,0.5-0.6c0.5,0,2.4,0.2,5.6,0.2s5.8-0.2,6.4-0.2c0.3,0,0.4,0.2,0.4,0.6v1.3
		c0,0.4-0.1,0.5-0.4,0.5h-0.6c-1.1,0-1.1,1.1-0.3,2.3l4.3,6.7l5.2-6.9c0.6-0.8,0.4-2.2-0.8-2.2H287c-0.3,0-0.4-0.2-0.4-0.5v-1.4
		c0-0.4,0.1-0.5,0.3-0.5c0.8,0,2,0.2,5.9,0.2c2.7,0,3.4-0.2,3.9-0.2c0.5,0,0.6,0.3,0.6,0.7v1.2c0,0.4-0.1,0.5-0.5,0.5h-1.1
		c-1.3,0-2,0.3-2.7,0.8c-1.2,1-7,8.2-8.4,10c2.7,4.1,5.5,8.3,8.5,11.9c0.8,1,1.8,1.4,3,1.4h1.1c0.3,0,0.3,0.1,0.3,0.5v1.4
		c0,0.3-0.1,0.5-0.5,0.5c-0.6,0-1.9-0.2-5.3-0.2c-3.9,0-6,0.2-6.7,0.2c-0.5,0-0.5-0.3-0.5-0.6v-1.2c0-0.5,0.1-0.7,0.5-0.7h1
		c0.8,0,1.2-1,0.4-2.2l-4.9-7.9c-1,1.4-5.5,7.5-6,8.6c-0.3,0.8-0.1,1.5,0.8,1.5h1.4c0.3,0,0.3,0.3,0.3,0.5V897.4z"/>
</g>
<g>
	<path class="st0" d="M501.3,1123.2c0,5.1,2.3,6,3.6,6c1.6,0,3.6-0.3,4.5-0.9c0.3-0.2,0.6-0.1,0.8,0.1l0.3,0.6
		c0.2,0.3,0.1,0.5-0.1,0.8c-0.7,0.7-3.5,2.7-7.6,2.7c-3.4,0-6.7-3.2-6.7-5.8c0-2.8,0.2-8.9,0.2-9.8v-1.5c0-1.2,0.1-5.9,0.1-8.8h-4.2
		c-0.6,0-1-0.3-1-0.8c0-0.5,0.4-0.8,1.2-1.2c1.6-1,6.9-6.2,7.8-8.6c0.2-0.5,0.5-0.7,1-0.7c0.5,0,0.7,0.5,0.7,1l-0.3,6.7h9.5
		c0.4,0,0.6,0.3,0.5,0.6l-0.7,2.4c-0.1,0.3-0.2,0.5-0.6,0.5h-8.9c-0.1,3.2-0.2,6.5-0.2,9.7V1123.2z"/>
</g>
<g>
	<path class="st0" d="M582.7,1273.5c0-3.5-0.5-4.2-2.5-5.2l-1.3-0.7c-0.4-0.1-0.5-0.2-0.5-0.5v-0.4c0-0.3,0.1-0.4,0.5-0.6l6.8-3.5
		c0.4-0.2,0.7-0.3,1-0.3c0.4,0,0.5,0.4,0.5,0.8l0.3,4.9h0.3c2.1-3.2,5.3-6,8.2-6c2.3,0,3.5,1.4,3.5,3c0,2-1.6,3.4-2.9,3.4
		c-0.8,0-1.4-0.3-2-0.5c-0.5-0.3-1.4-0.5-2.3-0.5c-1.1,0-2.9,0.7-4.1,2.9c-0.4,0.8-0.7,2-0.7,2.2v14.3c0,2.1,0.5,2.8,1.9,2.8h3.2
		c0.4,0,0.5,0.2,0.5,0.6v1.2c0,0.4-0.1,0.6-0.3,0.6c-0.4,0-3.6-0.2-7.3-0.2c-4.3,0-7.1,0.2-7.6,0.2c-0.3,0-0.4-0.1-0.4-0.7v-1.2
		c0-0.5,0.1-0.6,0.8-0.6h2.7c1,0,1.5-0.4,1.5-1.3c0.1-2.3,0.1-4.7,0.1-8.2V1273.5z"/>
</g>
<g>
	<path class="st0" d="M762.8,1086.9c1.1,0,2.1-0.5,2.4-1c0.3-0.3,0.4-0.5,0.7-0.3l0.7,0.5c0.2,0.2,0.3,0.5-0.1,1.2
		c-0.5,1-1.9,3.4-5.4,3.4c-2.5,0-4.3-1.8-4.9-4.6h-0.1c-1.4,1.7-3.7,3.2-6.8,4.2c-1.3,0.4-2.5,0.4-4.1,0.4c-1.6,0-4.1-1.4-4.1-5.7
		c0-3.2,1.4-5.9,6.9-8.3c3.1-1.4,6.7-3,7.8-4v-4.4c-0.1-1.2-0.2-3-1-3.8c-0.8-0.9-2.1-1.5-4.1-1.5c-1.4,0-3.5,0.5-4.5,1.4
		s-0.3,1.9-0.3,3.2c0,2.4-0.8,3.9-3.6,3.9c-1.1,0-1.6-0.6-1.6-2.2c0-2.2,1.9-4.8,4.7-6.5c2.9-1.7,5.3-2.4,8.4-2.4
		c3.2,0,4.5,1,5.5,1.9c1.4,1.4,1.5,3,1.5,4.9v14.6C760.7,1085.7,761.5,1086.9,762.8,1086.9z M755.7,1074.8c-2.5,1.9-9.2,3.2-9.2,8.9
		c0,2.5,1.5,3.8,3.6,3.8c2,0,5.6-2.4,5.6-4.3V1074.8z"/>
</g>
<g>
	<path class="st0" d="M978.2,726.8c0,5.1,2.3,6,3.6,6c1.6,0,3.6-0.3,4.5-0.9c0.3-0.2,0.6-0.1,0.8,0.1l0.3,0.6
		c0.2,0.3,0.1,0.5-0.1,0.8c-0.7,0.7-3.5,2.7-7.6,2.7c-3.4,0-6.7-3.2-6.7-5.8c0-2.8,0.2-8.9,0.2-9.8v-1.5c0-1.2,0.1-5.9,0.1-8.8h-4.2
		c-0.6,0-1-0.3-1-0.8c0-0.5,0.4-0.8,1.2-1.2c1.6-1,6.9-6.2,7.8-8.6c0.2-0.5,0.5-0.7,1-0.7c0.5,0,0.7,0.5,0.7,1l-0.3,6.7h9.5
		c0.4,0,0.6,0.3,0.5,0.6l-0.7,2.4c-0.1,0.3-0.2,0.5-0.6,0.5h-8.9c-0.1,3.2-0.2,6.5-0.2,9.7V726.8z"/>
</g>
<g>
	<path class="st0" d="M1875.3,921.3c0,5.1,2.3,6,3.6,6c1.6,0,3.6-0.3,4.5-0.9c0.3-0.2,0.6-0.1,0.8,0.1l0.3,0.6
		c0.2,0.3,0.1,0.5-0.1,0.8c-0.7,0.7-3.5,2.7-7.6,2.7c-3.4,0-6.7-3.2-6.7-5.8c0-2.8,0.2-8.9,0.2-9.8v-1.5c0-1.2,0.1-5.9,0.1-8.8h-4.2
		c-0.6,0-1-0.3-1-0.8c0-0.5,0.4-0.8,1.2-1.2c1.6-1,6.9-6.2,7.8-8.6c0.2-0.5,0.5-0.7,1-0.7c0.5,0,0.7,0.5,0.7,1l-0.3,6.7h9.5
		c0.4,0,0.6,0.3,0.5,0.6l-0.7,2.4c-0.1,0.3-0.2,0.5-0.6,0.5h-8.9c-0.1,3.2-0.2,6.5-0.2,9.7V921.3z"/>
</g>
<g>
	<path class="st0" d="M1100,911.7c-0.1,0.6-0.2,1.7-0.2,3.3c0,6.7,4.3,11.8,9.8,11.8c4.2,0,7.1-2.4,8.3-4.7c0.1-0.3,0.4-0.4,0.6-0.3
		l0.9,0.5c0.2,0.1,0.3,0.3,0,1c-1.2,2.7-4.8,7.5-10.9,7.5c-3.9,0-8.2-1.2-10.8-4.9c-2.4-3.5-3-6-3-10.8c0-2.7,0.7-7.3,4.3-10.9
		c3-3,6.4-3.6,9.8-3.6c7.9,0,10.1,7.4,10.1,10.1c0,1-0.8,1.1-1.9,1.1H1100z M1111,909.6c1.3,0,1.9-0.3,1.9-1c0-1.6-0.8-6.1-5.3-6.1
		c-3,0-5.9,2-7.2,7.1H1111z"/>
</g>
<g>
	<path class="st0" d="M1583.1,1113.5c-0.1,0.6-0.2,1.7-0.2,3.3c0,6.7,4.3,11.8,9.8,11.8c4.2,0,7.1-2.4,8.3-4.7
		c0.1-0.3,0.4-0.4,0.6-0.3l0.9,0.5c0.2,0.1,0.3,0.3,0,1c-1.2,2.7-4.8,7.5-10.9,7.5c-3.9,0-8.2-1.2-10.8-4.9c-2.4-3.5-3-6-3-10.8
		c0-2.7,0.7-7.3,4.3-10.9c3-3,6.4-3.6,9.8-3.6c7.9,0,10.1,7.4,10.1,10.1c0,1-0.8,1.1-1.9,1.1H1583.1z M1594,1111.5
		c1.3,0,1.9-0.3,1.9-1c0-1.6-0.8-6.1-5.3-6.1c-3,0-5.9,2-7.2,7.1H1594z"/>
</g>
<g>
	<path class="st0" d="M1849.7,1466.7c-0.3-0.2-0.3-0.6-0.4-1l-1.2-6.5c-0.1-0.3,0.1-0.5,0.4-0.5l0.9-0.2c0.3-0.1,0.5,0.1,0.6,0.4
		l1.7,3.4c1.4,2.5,2.3,4.3,6,4.3c2.4,0,5.4-1.4,5.4-4.7c0-3.1-1.5-4.9-6.7-6.3c-4.1-1.2-8.1-3.3-8.1-8.7c0-4.7,4.5-8.4,9.6-8.4
		c3.3,0,5.1,0.8,6.3,1.4c1,0.5,1.2,0.8,1.2,1.2l1,4.8c0,0.3-0.1,0.5-0.5,0.6l-0.8,0.3c-0.3,0.1-0.4,0-0.6-0.3l-2.3-3.2
		c-0.8-1.3-2.1-2.7-4.8-2.7c-2.6,0-5.3,1.6-5.3,4.5c0,4,3.2,4.7,6.6,5.7c5,1.4,8.2,3.5,8.2,8.8c-0.1,5.6-4.6,9.1-10.4,9.1
		C1853.2,1468.7,1850.5,1467.3,1849.7,1466.7z"/>
</g>
<g>
	<path class="st0" d="M1394.3,788.7c0-3.5-0.5-4.2-2.5-5.2l-1.3-0.7c-0.4-0.1-0.5-0.2-0.5-0.5v-0.4c0-0.3,0.1-0.4,0.5-0.6l6.8-3.5
		c0.4-0.2,0.7-0.3,1-0.3c0.4,0,0.5,0.4,0.5,0.8l0.3,4.9h0.3c2.1-3.2,5.3-6,8.2-6c2.3,0,3.5,1.4,3.5,3c0,2-1.6,3.4-2.9,3.4
		c-0.8,0-1.4-0.3-2-0.5c-0.5-0.3-1.4-0.5-2.3-0.5c-1.1,0-2.9,0.7-4.1,2.9c-0.4,0.8-0.7,2-0.7,2.2v14.3c0,2.1,0.5,2.8,1.9,2.8h3.2
		c0.4,0,0.5,0.2,0.5,0.6v1.2c0,0.4-0.1,0.6-0.3,0.6c-0.4,0-3.6-0.2-7.3-0.2c-4.3,0-7.1,0.2-7.6,0.2c-0.3,0-0.4-0.1-0.4-0.7v-1.2
		c0-0.5,0.1-0.6,0.8-0.6h2.7c1,0,1.5-0.4,1.5-1.3c0.1-2.3,0.1-4.7,0.1-8.2V788.7z"/>
</g>
<g>
	<path class="st0" d="M1964.3,788.7c0-3.5-0.5-4.2-2.5-5.2l-1.3-0.7c-0.4-0.1-0.5-0.2-0.5-0.5v-0.4c0-0.3,0.1-0.4,0.5-0.6l6.8-3.5
		c0.4-0.2,0.7-0.3,1-0.3c0.4,0,0.5,0.4,0.5,0.8l0.3,4.9h0.3c2.1-3.2,5.3-6,8.2-6c2.3,0,3.5,1.4,3.5,3c0,2-1.6,3.4-2.9,3.4
		c-0.8,0-1.4-0.3-2-0.5c-0.5-0.3-1.4-0.5-2.3-0.5c-1.1,0-2.9,0.7-4.1,2.9c-0.4,0.8-0.7,2-0.7,2.2v14.3c0,2.1,0.5,2.8,1.9,2.8h3.2
		c0.4,0,0.5,0.2,0.5,0.6v1.2c0,0.4-0.1,0.6-0.3,0.6c-0.4,0-3.6-0.2-7.3-0.2c-4.3,0-7.1,0.2-7.6,0.2c-0.3,0-0.4-0.1-0.4-0.7v-1.2
		c0-0.5,0.1-0.6,0.8-0.6h2.7c1,0,1.5-0.4,1.5-1.3c0.1-2.3,0.1-4.7,0.1-8.2V788.7z"/>
</g>
<g>
	<path class="st0" d="M1403.1,289.7c1.1,0,2.1-0.5,2.4-1c0.3-0.3,0.4-0.5,0.7-0.3l0.7,0.5c0.2,0.2,0.3,0.5-0.1,1.2
		c-0.5,1-1.9,3.4-5.4,3.4c-2.5,0-4.3-1.8-4.9-4.6h-0.1c-1.4,1.7-3.7,3.2-6.8,4.2c-1.3,0.4-2.5,0.4-4.1,0.4c-1.6,0-4.1-1.4-4.1-5.7
		c0-3.2,1.4-5.9,6.9-8.3c3.1-1.4,6.7-3,7.8-4v-4.4c-0.1-1.2-0.2-3-1-3.8c-0.8-0.9-2.1-1.5-4.1-1.5c-1.4,0-3.5,0.5-4.5,1.4
		s-0.3,1.9-0.3,3.2c0,2.4-0.8,3.9-3.6,3.9c-1.1,0-1.6-0.6-1.6-2.2c0-2.2,1.9-4.8,4.7-6.5c2.9-1.7,5.3-2.4,8.4-2.4
		c3.2,0,4.5,1,5.5,1.9c1.4,1.4,1.5,3,1.5,4.9v14.6C1401.1,288.5,1401.9,289.7,1403.1,289.7z M1396.1,277.7c-2.5,1.9-9.2,3.2-9.2,8.9
		c0,2.5,1.5,3.8,3.6,3.8c2,0,5.6-2.4,5.6-4.3V277.7z"/>
</g>
<g>
	<path class="st0" d="M2366.2,829.8c1.1,0,2.1-0.5,2.4-1c0.3-0.3,0.4-0.5,0.7-0.3l0.7,0.5c0.2,0.2,0.3,0.5-0.1,1.2
		c-0.5,1-1.9,3.4-5.4,3.4c-2.5,0-4.3-1.8-4.9-4.6h-0.1c-1.4,1.7-3.7,3.2-6.8,4.2c-1.3,0.4-2.5,0.4-4.1,0.4c-1.6,0-4.1-1.4-4.1-5.7
		c0-3.2,1.4-5.9,6.9-8.3c3.1-1.4,6.7-3,7.8-4v-4.4c-0.1-1.2-0.2-3-1-3.8c-0.8-0.9-2.1-1.5-4.1-1.5c-1.4,0-3.5,0.5-4.5,1.4
		s-0.3,1.9-0.3,3.2c0,2.4-0.8,3.9-3.6,3.9c-1.1,0-1.6-0.6-1.6-2.2c0-2.2,1.9-4.8,4.7-6.5c2.9-1.7,5.3-2.4,8.4-2.4
		c3.2,0,4.5,1,5.5,1.9c1.4,1.4,1.5,3,1.5,4.9v14.6C2364.2,828.6,2365,829.8,2366.2,829.8z M2359.2,817.7c-2.5,1.9-9.2,3.2-9.2,8.9
		c0,2.5,1.5,3.8,3.6,3.8c2,0,5.6-2.4,5.6-4.3V817.7z"/>
</g>
<g>
	<path class="st0" d="M2427.3,293.2c0,3.6,0,13.9,0.1,16.1c0.1,1.2,0.3,2.1,1.8,2.1h3.1c0.6,0,0.8,0.2,0.8,0.6v1.2
		c0,0.4-0.1,0.7-0.4,0.7c-0.5,0-3.5-0.2-7.8-0.2c-4.4,0-7.1,0.2-7.8,0.2c-0.3,0-0.5-0.3-0.5-0.7V312c0-0.5,0.1-0.6,0.9-0.6h3.3
		c0.8,0,1.4-0.5,1.5-1.7c0.1-2.1,0.1-13.9,0.1-17.9v-4.3c0-4.9-0.1-11.1-0.2-12.9c-0.1-2.3-1.2-3.4-3.4-4.1l-1.4-0.5
		c-0.3-0.1-0.4-0.2-0.4-0.3v-0.5c0-0.2,0.2-0.3,0.6-0.5c2.4-1.1,5.5-2.3,8-4c0.6-0.4,1-0.5,1.4-0.5c0.5,0,0.6,0.3,0.5,1.2
		c-0.1,3.8-0.3,18.1-0.3,21.8V293.2z"/>
</g>
<g>
	<path class="st0" d="M1585.7,175.2c0-5.1-1-6.4-2.1-7.4c-0.9-0.8-2.9-1.2-4.4-1.2c-1.8,0-4.7,0.9-6.6,4c-0.8,1.4-1,2.7-1,4.6v13.6
		c0,1.1,0.4,1.8,1.4,1.8h2.5c0.6,0,0.7,0.1,0.7,0.6v1.1c0,0.5-0.1,0.8-0.5,0.8c-0.6,0-2.5-0.2-6.2-0.2c-3.6,0-5.8,0.2-6.4,0.2
		c-0.4,0-0.5-0.1-0.5-0.6v-1.2c0-0.5,0.1-0.6,0.8-0.6h2.3c0.6,0,1-0.4,1-1.7c0.1-1.2,0.1-2.4,0.1-3.6V173c0-1.4-0.3-2.6-1.9-3.5
		l-1.4-0.8c-0.3-0.2-0.5-0.3-0.5-0.5v-0.5c0-0.2,0.3-0.5,0.4-0.5l6-3.1c0.5-0.3,1-0.4,1.3-0.4c0.4,0,0.6,0.5,0.6,1l0.3,4h0.2
		c2.1-2.8,6.1-5.2,10.1-5.2c3.6,0,6.3,2.1,7.8,5.3h0.3c2.1-2.7,6-5.3,10.1-5.3c2.4,0,4.5,0.4,6.2,2.1c1.6,1.6,3.3,3.2,3.3,8.4v15.3
		c0,1,0.6,1.4,1.4,1.4h1.9c0.6,0,0.8,0.1,0.8,0.6v1.2c0,0.5-0.1,0.7-0.5,0.7c-0.5,0-2.4-0.2-5.7-0.2c-3.4,0-5.9,0.2-6.4,0.2
		c-0.4,0-0.5-0.2-0.5-0.7v-1.2c0-0.5,0.1-0.6,0.9-0.6h1.7c0.8,0,1.3-0.3,1.4-1.3c0.1-1.6,0.1-4.1,0.1-5.6v-10.2c0-2.3-0.4-4.3-2-5.5
		c-1.2-1-3-1.4-5.1-1.4c-2.1,0-4.9,1.6-6,3.6c-1,2-1,3.8-1,6.9v11.9c0,0.9,0.3,1.6,1.4,1.6h2.3c0.6,0,0.8,0.1,0.8,0.6v1.1
		c0,0.5-0.1,0.8-0.5,0.8c-0.5,0-2.3-0.2-6.1-0.2c-3.7,0-6,0.2-6.5,0.2c-0.3,0-0.5-0.2-0.5-0.7v-1.1c0-0.5,0.1-0.7,0.7-0.7h2
		c1.1,0,1.5-0.3,1.5-1.2V175.2z"/>
</g>
<g>
	<path class="st0" d="M1263.8,1178.6c0-3.5-0.5-4.2-2.5-5.2l-1.3-0.7c-0.4-0.1-0.5-0.2-0.5-0.5v-0.4c0-0.3,0.1-0.4,0.5-0.6l6.8-3.5
		c0.4-0.2,0.7-0.3,1-0.3c0.4,0,0.5,0.4,0.5,0.8l0.3,4.9h0.3c2.1-3.2,5.3-6,8.2-6c2.3,0,3.5,1.4,3.5,3c0,2-1.6,3.4-2.9,3.4
		c-0.8,0-1.4-0.3-2-0.5c-0.5-0.3-1.4-0.5-2.3-0.5c-1.1,0-2.9,0.7-4.1,2.9c-0.4,0.8-0.7,2-0.7,2.2v14.3c0,2.1,0.5,2.8,1.9,2.8h3.2
		c0.4,0,0.5,0.2,0.5,0.6v1.2c0,0.4-0.1,0.6-0.3,0.6c-0.4,0-3.6-0.2-7.3-0.2c-4.3,0-7.1,0.2-7.6,0.2c-0.3,0-0.4-0.1-0.4-0.7v-1.2
		c0-0.5,0.1-0.6,0.8-0.6h2.7c1,0,1.5-0.4,1.5-1.3c0.1-2.3,0.1-4.7,0.1-8.2V1178.6z"/>
</g>
</svg>
