<?xml version="1.0" encoding="utf-8"?>
<!-- Generator: Adobe Illustrator 19.2.1, SVG Export Plug-In . SVG Version: 6.00 Build 0)  -->
<svg version="1.1" id="Layer_1" xmlns="http://www.w3.org/2000/svg" xmlns:xlink="http://www.w3.org/1999/xlink" x="0px" y="0px"
	 viewBox="0 0 2560 1600" style="enable-background:new 0 0 2560 1600;" xml:space="preserve">
<style type="text/css">
	.st0{fill:#FFFFFF;}
</style>
<g>
	<path class="st0" d="M90.7,263c0-0.8,1.9-8,2-8.2h-0.1c-0.8,0.7-5.3,5.3-6,5.7c-1.2,0.7-2.5,0.7-3.3-0.5c-1-1.7,0.5-2.8,1-3.2
		c0.8-0.5,7.8-2.5,8.2-2.5v-0.1c-0.3-0.1-7.6-1.9-8.4-2.3c-0.9-0.4-1.9-1.5-1-3c0.8-1.5,2.3-1.2,3.3-0.7c0.8,0.4,6,5.3,6.2,5.6
		l0.1-0.1c-0.1-0.2-2-7.5-2-8.2c0-1.2,0.6-2.3,2.2-2.3c1.7,0,2.2,0.8,2.2,2.3c0,1-1.9,8-2,8.3l0.1,0.1c0.2-0.3,5.4-5.4,6.2-5.8
		c1-0.5,2.3-0.5,3,0.8c1,1.6,0.2,2.5-0.9,3.1c-0.8,0.5-7.8,2.3-8.2,2.3v0.1c0.3,0.1,7.7,2.1,8.4,2.4c0.9,0.4,2.1,1.2,0.8,3.2
		c-0.8,1.2-2.3,1.1-3.4,0.5c-0.8-0.4-5.8-5.4-6-5.8l-0.1,0.1c0.1,0.3,2,7.3,2,8.2c0,1-0.3,2.4-2.2,2.4
		C91.3,265.4,90.7,264.2,90.7,263z"/>
</g>
<g>
	<path class="st0" d="M228.7,349c0-0.8,1.9-8,2-8.2h-0.1c-0.8,0.7-5.3,5.3-6,5.7c-1.2,0.7-2.5,0.7-3.3-0.5c-1-1.7,0.5-2.8,1-3.2
		c0.8-0.5,7.8-2.5,8.2-2.5v-0.1c-0.3-0.1-7.6-1.9-8.4-2.3c-0.9-0.4-1.9-1.5-1-3c0.8-1.5,2.3-1.2,3.3-0.7c0.8,0.4,6,5.3,6.2,5.6
		l0.1-0.1c-0.1-0.2-2-7.5-2-8.2c0-1.2,0.6-2.3,2.2-2.3c1.7,0,2.2,0.8,2.2,2.3c0,1-1.9,8-2,8.3l0.1,0.1c0.2-0.3,5.4-5.4,6.2-5.8
		c1-0.5,2.3-0.5,3,0.8c1,1.6,0.2,2.5-0.9,3.1c-0.8,0.5-7.8,2.3-8.2,2.3v0.1c0.3,0.1,7.7,2.1,8.4,2.4c0.9,0.4,2.1,1.2,0.8,3.2
		c-0.8,1.2-2.3,1.1-3.4,0.5c-0.8-0.4-5.8-5.4-6-5.8l-0.1,0.1c0.1,0.3,2,7.3,2,8.2c0,1-0.3,2.4-2.2,2.4
		C229.3,351.4,228.7,350.2,228.7,349z"/>
</g>
</svg>
