<svg id="Layer_1" data-name="Layer 1" xmlns="http://www.w3.org/2000/svg" viewBox="0 0 2560 1600"><defs><style>.cls-1{fill:#231f20;}</style></defs><title>virus</title><path class="cls-1" d="M1557.61,412.74c0.48-2.25-.32-7.22-0.8-8.67l-17.33-49.6c-1.28-3.69-4.17-6.1-9.79-6.1H1526c-1,0-1.28-.32-1.12-1.28l0.64-3.37c0.16-1.12.48-1.28,1.6-1.28,2.09,0,6.26.48,16.85,0.48,12.2,0,17.66-.48,19.74-0.48,1.12,0,1.6.32,1.44,1.28l-0.32,3.37a1.23,1.23,0,0,1-1.44,1.28h-4.17c-6.1,0-6.42,4-5.14,7.7L1569,400.7c0.64,2.09,1.28,2.09,2.41.64,3.53-4.82,27.77-39.32,29.53-44.3,2.09-6.1.48-8.67-5.94-8.67h-3.21c-1,0-1.28-.64-1.12-1.61l0.32-3c0.16-1.12.48-1.28,1.93-1.28,2.25,0,8.51.48,17.66,0.48,8.83,0,13.64-.48,15.73-0.48,1.44,0,1.77.48,1.61,1.28l-0.48,3c-0.16,1.28-.48,1.61-1.28,1.61h-3c-5.46,0-8.35,2.57-12.52,7.86-2.25,2.89-31.62,44.14-33.87,47.35-3.53,5-5.14,7.06-6.74,14.29L1566,436c-1.77,8.19,1,9,6.26,9H1577a1,1,0,0,1,1.12,1.28l-0.48,3.37c-0.16.8-.48,1.28-1.77,1.28-2.41,0-7.54-.48-19.42-0.48-13.32,0-18.3.48-20.06,0.48-1,0-1.44-.32-1.28-1.28l0.64-3.37c0-.8.32-1.28,1.44-1.28h4.65c7.54,0,9.31-3.69,10.43-8.51Z"/><path class="cls-1" d="M1633.21,441.95c-9.47-9.63-13.48-22.15-13.48-37.72,0-32.9,26.48-63.72,56.18-63.72,24.24,0,42.21,19.42,42.21,48.15,0,29.85-20.71,64.2-57,64.2C1658.09,452.86,1644.13,453.34,1633.21,441.95Zm72.39-63.72c0-17.17-8.83-30.66-26.64-30.66-9.79,0-16.69,4.65-23.59,11.56-14.29,14.29-23.43,39-23.43,55.54,0,22.79,13.64,31.94,25.52,31.94C1683.77,446.6,1705.6,411,1705.6,378.23Z"/><path class="cls-1" d="M1820.68,405.67c-9.15,29.69-23.43,47.19-48.63,47.19-21.51,0-37.4-9.47-37.4-29.37,0-6.74,2.41-16.69,3.37-20.06l13.64-45.1c2.41-7.22.64-10-4.49-10h-5.78a1,1,0,0,1-1.12-1.28l0.8-3.37c0.16-1,.48-1.28,2.09-1.28,1.93,0,7.54.48,19.1,0.48,13,0,18.46-.48,20.06-0.48,1.28,0,1.6.48,1.44,1.6l-0.64,3a1.46,1.46,0,0,1-1.6,1.28h-5.14c-3.85,0-7.7.64-10.27,9.15l-13.16,42.86c-1,3.53-4.65,15.41-4.65,22.63,0,20.22,19.74,22.63,25.36,22.63a34,34,0,0,0,20.87-8c7.38-6.58,12.52-15.41,18-33.23l14.12-46.23c2.41-7.7-1-9.79-5.94-9.79h-6.1c-1.44,0-1.6-.48-1.44-1.28l0.48-3a1.76,1.76,0,0,1,2.09-1.61c1.93,0,8,.48,19.58.48,9.31,0,13-.48,14.61-0.48,1.44,0,1.61.48,1.44,1.6l-0.48,3c-0.16.8-.48,1.28-1.77,1.28h-3.37c-5.14,0-7.54,3-9.31,7.38Z"/><path class="cls-1" d="M1564.67,594.75L1542.2,623c-3.37,4.33-6.58,8.51-6.58,10.75,0,2.41,2.09,3.85,5.62,3.85H1547c0.8,0,1.44.32,1.12,1.61l-0.64,3a1.37,1.37,0,0,1-1.6,1.28c-1.6,0-8.51-.48-21-0.48-10.59,0-16.21.48-18,.48-0.8,0-1.61-.32-1.44-1.12l0.8-3.53c0.16-1,.48-1.28,1.12-1.28h2.41c6.9,0,13.64-4.82,19.42-11.72l74.31-88.76c0.8-1.12,1.44-1.44,4.49-1.6a47,47,0,0,0,7.54-1.12,27.81,27.81,0,0,1,5.3-1.28c1.28,0,1.93.48,1.6,1.61l-23.59,89.08c-0.64,2.73-1.6,6.74-1.6,9.31s2.73,4.49,5.94,4.49h4.33a1.19,1.19,0,0,1,1.28,1.61l-0.48,2.89c-0.16,1-.48,1.44-1.93,1.44-1.93,0-8.35-.48-19.26-0.48-11.24,0-16.21.48-18.78,0.48-1.44,0-1.77-.64-1.6-1.6l0.64-3a1.38,1.38,0,0,1,1.28-1.28h3c6.1,0,10.27-1.12,13.48-13.16l8-29.69h-28.57Zm30.34-5.62,12.36-42.37c0.64-2.25-2.25-2.57-3.53-1.12l-35,43.5H1595Z"/><path class="cls-1" d="M1660,549.49c1.77-5.14,1.12-8-4.65-8h-6.26c-1.28,0-1.44-.48-1.28-1.28l0.8-3.37c0.16-1,.48-1.28,2.09-1.28,16.85,0,33.39-.48,36-0.48,11.56,0,36.27,1.12,36.27,23,0,16.05-17.33,28.89-36.11,31.14v0.32c3.85,1.28,6.26,6.26,8,9.63,0.8,1.6,11.88,24.4,14.77,29.21,4,6.58,7.22,9.31,14.13,9.31h4c1.12,0,1.28.64,1.12,1.61l-0.48,3a1.37,1.37,0,0,1-1.6,1.28c-1.61,0-4.17-.48-11.88-0.48-7.06,0-10.11.48-11.88,0.48-1.28,0-2.09-1.28-4.33-5.14s-16.53-35.47-18.46-39.32c-4.65-9-13.64-8.19-19.74-8.19L1649.1,626c-2.89,9.15-.8,11.56,5.94,11.56h6.58a1,1,0,0,1,1.12,1.28l-0.48,3.69c-0.16.8-.8,1-1.93,1-1.77,0-9-.48-22.47-0.48-9.47,0-15.73.48-17.66,0.48-1,0-1.12-.48-1-1.28l0.64-3.37a1.29,1.29,0,0,1,1.6-1.28h3c5.78,0,8.51-3.53,10-8Zm2.09,36.27c8.19,0,17.82.8,29.53-4,9.47-3.85,16.85-12.52,16.85-23.76,0-6.74-5.94-17.82-25.52-17.82-2.89,0-4.65,0-6.58.16Z"/><path class="cls-1" d="M1768.19,552.38c2.89-9-3.37-11.4-8.83-11.4h-5.14c-1,0-1.28-.48-1-1.77l0.8-3c0.32-1,.8-1.12,1.93-1.12,1,0,2.73.16,6.1,0.16,3.37,0.16,8.35.32,16.05,0.32h10.27c12.2,0,21.35-.16,27.93-0.32,6.58,0,10.59-.16,12.36-0.16,2.41,0,2.73.48,3.37,3l5.14,22c0.16,0.8,0,1-1,1.44l-1.77.64c-0.8.32-1,.32-1.6-0.48l-15.09-19.42a2.75,2.75,0,0,0-2.57-1.28H1786l-13.8,42.21h15.41c9.31,0,14.61-.32,19.1-13.48a0.86,0.86,0,0,1,1.12-.8l2.41,0.48a1,1,0,0,1,1,1.28l-8.67,31.94c-0.16,1-.48,1.12-1.12,1l-2.57-.32c-0.8-.16-0.8-0.32-0.64-1.28,1.12-13.32-5.3-13.64-18-13.64h-9.63L1755,637.6h41.57c5.78,0,9.63-2.57,12.84-6.74l12.84-16.21a1.21,1.21,0,0,1,1.93-.32l1.6,1c0.64,0.48,1,.8.48,2.25l-8.19,23.27c-0.8,2.41-1.6,2.73-3.53,2.73-1.28,0-8.35-.16-17.82-0.32-9.47,0-21.35-.16-32.42-0.16h-18.62c-7.38,0-12,.16-15.09.16-2.89.16-4.17,0.32-4.81,0.32-1.12,0-1.61-.32-1.28-1.28l0.48-3.37c0.32-1,.48-1.28,1.28-1.28h5.94c6.58,0,9.79-3.37,11.56-9Z"/></svg>