<svg id="Layer_1" data-name="Layer 1" xmlns="http://www.w3.org/2000/svg" viewBox="0 0 2560 1600"><defs><style>.cls-1{fill:#231f20;}</style></defs><title>virus</title><path class="cls-1" d="M2189.87,160.17c0,2.68.21,7.14,0.27,7.9,0.21,2.2,1.24,2.4,3,2.4h2.68c0.48,0,.48.21,0.48,0.48v1.58c0,0.41,0,.62-0.48.62-0.82,0-3.5-.21-9.27-0.21-6.18,0-8.31.21-9.06,0.21a0.45,0.45,0,0,1-.41-0.55V171a0.41,0.41,0,0,1,.48-0.48h3.36c1.79,0,2.33-.69,2.4-1.72s0.21-6.39.21-12.77v-4c-0.89-1.79-12.29-21.15-14.28-23.55a5.23,5.23,0,0,0-3.57-1.65H2164a0.41,0.41,0,0,1-.48-0.48v-1.79c0-.28.07-0.41,0.48-0.41,0.62,0,3.85.21,8,.21,7.07,0,9.54-.21,10.23-0.21,0.41,0,.48.14,0.48,0.34v1.72c0,0.34-.07.62-0.48,0.62H2180c-2.06,0-2.33.62-2.06,2.27,0.21,1.1,8.65,16,10.71,19.91,2.54-4,12.15-18.26,12.43-19.5s0.62-2.68-2.27-2.68h-1.85c-0.41,0-.48-0.21-0.48-0.62v-1.65c0-.28.07-0.41,0.48-0.41,0.69,0,3.5.21,8.1,0.21,4.05,0,5.56-.21,6.18-0.21s0.55,0.14.55,0.41v1.65c0,0.41-.07.62-0.55,0.62h-1.72a4.91,4.91,0,0,0-3.36,1.51c-1.37,1.3-13.66,19.09-16.27,22.87v9Z"/><path class="cls-1" d="M2221.53,169.51c-4.88-3-10.09-10.37-10.09-20.39a26.68,26.68,0,0,1,6.39-17.1,22.47,22.47,0,0,1,18.61-8.72,23.13,23.13,0,0,1,15.38,5.42,26.45,26.45,0,0,1,9.41,20.53,25,25,0,0,1-5.15,15c-4.19,5.56-10.3,9.68-19.78,9.68A30.1,30.1,0,0,1,2221.53,169.51Zm33-19.71c0-15-10.71-23.9-18.33-23.9-1,0-5.7-.82-10.85,4.05-4.6,4.39-6.87,11.33-6.87,17,0,18.06,12.57,24.44,18.4,24.44C2251.95,171.37,2254.49,155.92,2254.49,149.81Z"/><path class="cls-1" d="M2281.34,172.53a12.51,12.51,0,0,1-8.17-9.2c-0.82-3.09-1.1-7.69-1.1-16.69V130.3c0-2.4-.48-3.5-2.61-3.5h-3.23c-0.41,0-.48-0.14-0.48-0.62v-1.51c0-.41.07-0.55,0.62-0.55s4.05,0.21,9.41.21,8.65-.21,9.41-0.21c0.55,0,.62.14,0.62,0.41v1.79c0,0.34-.07.48-0.55,0.48h-3.43a3.09,3.09,0,0,0-3.3,2.82c-0.07.62-.14,5.42-0.14,8.93v4.53c0,3.64.27,12.36,0.34,14.56,0.07,3.16.62,6.39,2.2,8.72,2.54,3.71,6.94,4.94,10.92,4.94s7.9-1.3,10.3-3.78c2.68-2.88,3.57-7,3.57-12.08V140.74c0-5.22-.14-9.2-0.34-10.92a3.06,3.06,0,0,0-3.09-3h-3c-0.41,0-.48-0.21-0.48-0.55v-1.65c0-.34.07-0.48,0.48-0.48,0.69,0,3.85.21,8.45,0.21s6.94-.21,7.55-0.21,0.69,0.27.69,0.48v1.51c0,0.41-.07.69-0.41,0.69h-2.82c-2.54,0-2.75,1.92-3,2.75s-0.14,10.44-.14,11.4-0.14,13-.34,15.66c-0.41,5.63-1.92,10-5.77,13.25-2.75,2.54-6.94,4.12-12.91,4.12A25.51,25.51,0,0,1,2281.34,172.53Z"/></svg>