<svg id="Layer_1" data-name="Layer 1" xmlns="http://www.w3.org/2000/svg" viewBox="0 0 2560 1600"><defs><style>.cls-1{fill:#231f20;}</style></defs><title>virus</title><path class="cls-1" d="M1186.39,188.12a3,3,0,0,1,3.16-2.68,11.8,11.8,0,0,1,3.16.75,1.65,1.65,0,0,0,1.44-.41c1-1.24,4.53-9.06,5.49-11.74-0.34-1.72-7.62-23.21-8.17-24.65-0.82-1.72-1.44-2.88-3.23-2.88h-1.79c-0.48,0-.55-0.21-0.55-0.62v-1.37c0-.28.07-0.48,0.55-0.48s2.27,0.21,6.32.21c3.5,0,5.63-.21,6.39-0.21,0.55,0,.62.21,0.62,0.48V146c0,0.34-.07.55-0.41,0.55h-1.3c-0.76,0-1,.48-0.89,1.51,0.21,1.51,4.88,16.68,5.63,18.2h0.28c0.69-1.1,6.66-15.38,7.07-17.1s-0.14-2.61-1.17-2.61h-1.1c-0.41,0-.48-0.21-0.48-0.55v-1.37c0-.34.07-0.55,0.41-0.55,0.89,0,2.33.21,5.63,0.21,1.85,0,3.43-.21,4.19-0.21,0.41,0,.41.28,0.41,0.55v1.3c0,0.41,0,.62-0.34.62h-1.1a3.08,3.08,0,0,0-2.4,1.24c-1.51,1.85-6,12.36-10.78,23.14-3.36,7.62-6,14-7.28,16.27-1,1.79-2.2,4.46-5.84,4.46C1187.69,191.62,1186.39,190.18,1186.39,188.12Z"/><path class="cls-1" d="M1221.75,169c-3.16-3.78-3.78-6.32-3.78-11.19a14.6,14.6,0,0,1,5.91-11.05,14.85,14.85,0,0,1,9.2-3.3,14.53,14.53,0,0,1,9.61,4,15.25,15.25,0,0,1,4.67,11.19c0,7.48-6.73,15.11-15.18,15.11A13.84,13.84,0,0,1,1221.75,169ZM1241.6,158c0-7.62-5.56-12.43-9.06-12.43a6.63,6.63,0,0,0-5.29,2.2c-2.68,2.75-3.64,5.56-3.64,10.78,0,3.85.41,6.46,2.61,9.61a7.6,7.6,0,0,0,6.8,3.57C1238.23,171.71,1241.6,165.32,1241.6,158Z"/><path class="cls-1" d="M1278.4,159c0,3.3,0,6.66.14,8.1,0.21,2.13,1,2.4,1.79,2.4a10.11,10.11,0,0,0,2.27-.21c0.55-.14.75,0,0.82,0.28l0.21,0.89a0.44,0.44,0,0,1-.34.62l-7.21,2.4a4.06,4.06,0,0,1-1.37.28c-0.27,0-.55-0.14-0.62-0.82l-0.55-4h-0.14a12.54,12.54,0,0,1-9.34,4.81,7.18,7.18,0,0,1-6.45-3.16c-2.82-3.64-2.68-5.91-2.68-13.46v-8c-0.07-1.92-1-2.4-2.61-2.61-1.17-.07-1.51-0.14-1.51-0.48v-1.24c0-.41.14-0.55,0.76-0.55h6.11a3.6,3.6,0,0,0,1-.14c0.27,0,.55-0.07.75-0.07a0.71,0.71,0,0,1,.76.82c-0.07.62-.28,3.85-0.28,7.9v4.94c0,2.75-.69,7.14,1.51,10.3,1.72,2.47,3.64,2.61,5.49,2.61s4.6-1.79,5.91-3.43a3.75,3.75,0,0,0,.69-1.85V148.91c-0.14-1.92-1.24-2.27-3-2.4-1.17,0-1.51-.14-1.51-0.48v-1.17c0-.55.14-0.62,0.82-0.62h6.39a5.47,5.47,0,0,0,1.17-.14c0.34,0,.62-0.07.82-0.07a0.59,0.59,0,0,1,.62.69,60.63,60.63,0,0,0-.41,9.13V159Z"/><path class="cls-1" d="M1309.51,156.33a19.35,19.35,0,0,0,3.5,10.44,8.84,8.84,0,0,0,7.48,3.5,9.41,9.41,0,0,0,7.55-3,0.36,0.36,0,0,1,.55,0l0.69,0.69a0.54,0.54,0,0,1,0,.89,15.89,15.89,0,0,1-11.05,4.88c-3.64,0-7.48-.82-10.64-4.81a14.22,14.22,0,0,1-3.09-9.34c0-8,5.63-16.14,14.69-16.14,7.14,0,9.34,4.12,9.34,5.56a2.34,2.34,0,0,1-2.54,2.4c-1.58,0-2.75-.89-3.78-2.75-1.51-2.82-3-3-4.6-3C1313.7,145.68,1309.51,149.26,1309.51,156.33Z"/><path class="cls-1" d="M1356,169.92a3.16,3.16,0,0,0,2.4-1c0.28-.34.41-0.48,0.69-0.28l0.69,0.55a0.91,0.91,0,0,1-.07,1.24,5.67,5.67,0,0,1-5.36,3.37c-2.47,0-4.26-1.79-4.87-4.6h-0.14a14.8,14.8,0,0,1-6.8,4.19,12.9,12.9,0,0,1-4.05.41c-1.65,0-4.12-1.37-4.12-5.7,0-3.16,1.44-5.91,6.87-8.31,3.09-1.37,6.66-3,7.76-4v-4.39c-0.14-1.17-.21-3-1-3.85a5.22,5.22,0,0,0-4.12-1.51,7.69,7.69,0,0,0-4.46,1.44c-1,.89-0.34,1.92-0.34,3.16,0,2.4-.82,3.91-3.64,3.91-1.1,0-1.65-.62-1.65-2.2,0-2.2,1.92-4.81,4.74-6.45a15.14,15.14,0,0,1,8.38-2.4c3.23,0,4.53,1,5.49,1.85,1.44,1.44,1.51,3,1.51,4.88v14.56C1353.94,168.69,1354.76,169.92,1356,169.92Zm-7.07-12.08c-2.47,1.85-9.2,3.23-9.2,8.93,0,2.54,1.51,3.78,3.57,3.78s5.63-2.4,5.63-4.26v-8.45Z"/><path class="cls-1" d="M1390.95,169.24a1.29,1.29,0,0,0,1.51,1.44h2.2c0.62,0,.76.21,0.76,0.62v1.1c0,0.48-.14.75-0.55,0.75s-2.61-.21-6.52-0.21c-3.5,0-5.7.21-6.18,0.21s-0.55-.21-0.55-0.75v-1.1c0-.48.21-0.62,0.89-0.62h2c0.75,0,1.3-.34,1.37-1.58,0.07-1.79.14-4,.14-5.77v-9.06c0-2.75,0-4.74-2-6.18-1.65-1.24-3.3-1.24-5-1.24a8.05,8.05,0,0,0-5.56,2.68,6.73,6.73,0,0,0-1.58,4.67v14.21c0,1.85.21,2.27,1.65,2.27h1.72a0.57,0.57,0,0,1,.69.69v1.17c0,0.41-.14.62-0.48,0.62s-2.33-.21-6-0.21-5.7.21-6.11,0.21-0.48-.21-0.48-0.62V171.3c0-.41.14-0.62,0.69-0.62h2a1.13,1.13,0,0,0,1.37-1.37V153.24a4.23,4.23,0,0,0-2.82-4.05l-0.55-.27a0.66,0.66,0,0,1-.55-0.62V148a0.8,0.8,0,0,1,.62-0.69l5.91-3.3a3.63,3.63,0,0,1,1.24-.48c0.34,0,.48.27,0.55,0.82l0.48,4.19h0.14c2-2.47,6-5,9.41-5a10.6,10.6,0,0,1,5.84,1.51,10,10,0,0,1,3.78,6.52v17.72Z"/><path class="cls-1" d="M1403.72,129.21c0,6.45-6,10.85-7.21,11.6a2.28,2.28,0,0,1-1.24.55,0.55,0.55,0,0,1-.69-0.55,0.89,0.89,0,0,1,.55-0.89c1.44-1.37,4.33-4.39,4.33-7.76a2.23,2.23,0,0,0-1-1.92c-0.62-.28-3.5-1-3.5-4,0-1.58,1.24-3,3.43-3A5.81,5.81,0,0,1,1403.72,129.21Z"/><path class="cls-1" d="M1414.16,164.36c0,5.15,2.33,6,3.57,6a9.87,9.87,0,0,0,4.53-.89,0.56,0.56,0,0,1,.82.14l0.34,0.62a0.55,0.55,0,0,1-.14.75,11.55,11.55,0,0,1-7.62,2.75c-3.36,0-6.66-3.23-6.66-5.84,0-2.82.21-8.86,0.21-9.82V156.6c0-1.24.07-5.91,0.14-8.79h-4.19a0.86,0.86,0,0,1-1-.82c0-.55.41-0.76,1.24-1.24,1.65-1,6.93-6.25,7.83-8.58a0.92,0.92,0,0,1,1-.69c0.55,0,.69.48,0.69,1l-0.34,6.73H1424a0.45,0.45,0,0,1,.48.62l-0.69,2.4a0.56,0.56,0,0,1-.62.55h-8.86c-0.14,3.16-.21,6.52-0.21,9.68v6.87Z"/><path class="cls-1" d="M1446.84,135.93c0-4.6-.75-5.56-3.23-6.39l-0.69-.21c-0.75-.21-0.89-0.34-0.89-0.55v-0.55a0.7,0.7,0,0,1,.55-0.55,72.51,72.51,0,0,0,7.28-3.78,2.87,2.87,0,0,1,1.44-.62c0.48,0,.62.34,0.55,1.17-0.07.55-.07,8.38-0.07,14.49v8c2.2-2.13,6.11-3.43,9.48-3.43,6,0,12.57,4.88,12.57,14.69,0,8-6.45,15.59-14.28,15.59a15.85,15.85,0,0,1-8.1-1.79l-2.75,1.51a1,1,0,0,1-.89.21l-0.82-.21c-0.27-.07-0.34-0.21-0.27-0.55,0.14-1,.14-6.66.14-11.67V135.93Zm4.94,22.25c0,5.7.21,7.76,1,10,0.69,1.65,3.57,3.43,6.52,3.43,4.12,0,9.2-2.82,9.2-11.81,0-6.66-3.5-13-10.23-13a9.14,9.14,0,0,0-6.52,2.47v8.93Z"/><path class="cls-1" d="M1483.17,154.68c0-3.5-.55-4.19-2.47-5.22l-1.3-.69c-0.41-.14-0.55-0.21-0.55-0.48v-0.41a0.69,0.69,0,0,1,.55-0.62l6.8-3.5a2.07,2.07,0,0,1,1-.27c0.41,0,.48.41,0.48,0.82l0.34,4.88h0.28c2.06-3.16,5.29-6,8.24-6,2.33,0,3.5,1.44,3.5,3a3.32,3.32,0,0,1-2.88,3.37,4.5,4.5,0,0,1-2-.55,4.43,4.43,0,0,0-2.27-.55,4.87,4.87,0,0,0-4.05,2.88,7.4,7.4,0,0,0-.69,2.2v14.28c0,2.13.48,2.82,1.92,2.82h3.23c0.41,0,.48.21,0.48,0.62v1.24c0,0.41-.07.62-0.34,0.62s-3.57-.21-7.28-0.21c-4.26,0-7.14.21-7.55,0.21s-0.41-.14-0.41-0.69V171.3c0-.48.14-0.62,0.75-0.62h2.68c1,0,1.51-.41,1.51-1.3,0.07-2.27.07-4.67,0.07-8.24v-6.45Z"/><path class="cls-1" d="M1507.13,154.68a17.69,17.69,0,0,0-.21,3.3c0,6.73,4.26,11.81,9.75,11.81a9.3,9.3,0,0,0,8.31-4.67,0.56,0.56,0,0,1,.62-0.34l0.89,0.48c0.21,0.07.34,0.27,0,1-1.24,2.75-4.81,7.48-10.92,7.48-3.91,0-8.24-1.17-10.78-4.87-2.4-3.5-3-6-3-10.85a15.46,15.46,0,0,1,4.33-10.92c3-3,6.39-3.64,9.82-3.64,7.9,0,10.09,7.42,10.09,10.09,0,1-.82,1.1-1.92,1.1h-17Zm10.92-2.06c1.3,0,1.85-.34,1.85-1,0-1.58-.82-6.11-5.29-6.11-3,0-5.91,2-7.21,7.07h10.64Z"/><path class="cls-1" d="M1553.62,169.92a3.16,3.16,0,0,0,2.4-1c0.27-.34.41-0.48,0.69-0.28l0.69,0.55a0.91,0.91,0,0,1-.07,1.24,5.67,5.67,0,0,1-5.36,3.37c-2.47,0-4.26-1.79-4.87-4.6H1547a14.81,14.81,0,0,1-6.8,4.19,12.9,12.9,0,0,1-4.05.41c-1.65,0-4.12-1.37-4.12-5.7,0-3.16,1.44-5.91,6.87-8.31,3.09-1.37,6.66-3,7.76-4v-4.39c-0.14-1.17-.21-3-1-3.85a5.22,5.22,0,0,0-4.12-1.51,7.69,7.69,0,0,0-4.46,1.44c-1,.89-0.34,1.92-0.34,3.16,0,2.4-.82,3.91-3.64,3.91-1.1,0-1.65-.62-1.65-2.2,0-2.2,1.92-4.81,4.74-6.45a15.14,15.14,0,0,1,8.38-2.4c3.23,0,4.53,1,5.49,1.85,1.44,1.44,1.51,3,1.51,4.88v14.56C1551.56,168.69,1552.39,169.92,1553.62,169.92Zm-7.07-12.08c-2.47,1.85-9.2,3.23-9.2,8.93,0,2.54,1.51,3.78,3.57,3.78s5.63-2.4,5.63-4.26v-8.45Z"/><path class="cls-1" d="M1569.41,164.36c0,5.15,2.33,6,3.57,6a9.88,9.88,0,0,0,4.53-.89,0.56,0.56,0,0,1,.82.14l0.34,0.62a0.55,0.55,0,0,1-.14.75,11.55,11.55,0,0,1-7.62,2.75c-3.37,0-6.66-3.23-6.66-5.84,0-2.82.21-8.86,0.21-9.82V156.6c0-1.24.07-5.91,0.14-8.79h-4.19a0.86,0.86,0,0,1-1-.82c0-.55.41-0.76,1.24-1.24,1.65-1,6.93-6.25,7.83-8.58a0.92,0.92,0,0,1,1-.69c0.55,0,.69.48,0.69,1l-0.34,6.73h9.54a0.45,0.45,0,0,1,.48.62l-0.69,2.4a0.56,0.56,0,0,1-.62.55h-8.86c-0.14,3.16-.21,6.52-0.21,9.68v6.87Z"/><path class="cls-1" d="M1586.44,135.52c0-4.19-.82-4.94-3.3-5.77l-1.17-.41c-0.41-.14-0.48-0.21-0.48-0.41v-0.62c0-.27.21-0.34,0.82-0.69l7.14-3.78a3.63,3.63,0,0,1,1.58-.55c0.41,0,.69.55,0.55,1.72s-0.21,15.11-.21,18.54V148h0.34a13.1,13.1,0,0,1,9.41-4.46,9,9,0,0,1,6.8,2.75c3.09,2.88,3,6.39,3,10.09v3.91c0,3.85.14,8.1,0.14,9.41,0,0.82,1.1,1,2.54,1h1.17c0.55,0,.76.14,0.76,0.62v1c0,0.55-.14.82-0.55,0.82s-2.68-.21-6.59-0.21c-3.36,0-5.84.21-6.45,0.21s-0.62-.21-0.62-0.75v-1.17c0-.34.07-0.55,0.48-0.55h1.58c1.17,0,2.54-.14,2.61-1.3,0.07-1,0-4.6,0-6.8V157c0-3.85-.27-6.59-2.27-8.45a6.3,6.3,0,0,0-4.53-1.92,8.38,8.38,0,0,0-6.39,2.88,6,6,0,0,0-1.37,3.37v15c0,2.2.21,2.82,1.51,2.82H1595c0.48,0,.76.14,0.76,0.55v1.17c0,0.48-.14.75-0.55,0.75s-3.36-.21-6.52-0.21c-3.43,0-6,.21-6.66.21-0.27,0-.48-0.21-0.48-0.69v-1.24c0-.48.27-0.55,1-0.55H1584c1.1,0,2.13-.28,2.27-1.1,0.21-1.3.21-8.86,0.21-13.32V135.52Z"/><path class="cls-1" d="M1624.62,154.68a17.6,17.6,0,0,0-.21,3.3c0,6.73,4.26,11.81,9.75,11.81a9.3,9.3,0,0,0,8.31-4.67,0.56,0.56,0,0,1,.62-0.34l0.89,0.48c0.21,0.07.34,0.27,0,1-1.24,2.75-4.81,7.48-10.92,7.48-3.91,0-8.24-1.17-10.78-4.87-2.4-3.5-3-6-3-10.85a15.46,15.46,0,0,1,4.33-10.92c3-3,6.39-3.64,9.82-3.64,7.9,0,10.09,7.42,10.09,10.09,0,1-.82,1.1-1.92,1.1h-17Zm10.92-2.06c1.3,0,1.85-.34,1.85-1,0-1.58-.82-6.11-5.29-6.11-3,0-5.91,2-7.21,7.07h10.64Z"/><path class="cls-1" d="M691.49,1125.37c0,5.15,2.33,6,3.57,6a9.88,9.88,0,0,0,4.53-.89,0.56,0.56,0,0,1,.82.14l0.34,0.62a0.55,0.55,0,0,1-.14.75,11.55,11.55,0,0,1-7.62,2.75c-3.37,0-6.66-3.23-6.66-5.84,0-2.82.21-8.86,0.21-9.82v-1.51c0-1.24.07-5.91,0.14-8.79h-4.19a0.86,0.86,0,0,1-1-.82c0-.55.41-0.76,1.24-1.24,1.65-1,6.93-6.25,7.83-8.58a0.92,0.92,0,0,1,1-.69c0.55,0,.69.48,0.69,1l-0.34,6.73h9.54a0.45,0.45,0,0,1,.48.62l-0.69,2.4a0.56,0.56,0,0,1-.62.55h-8.86c-0.14,3.16-.21,6.52-0.21,9.68v6.87Z"/><path class="cls-1" d="M708.52,1096.53c0-4.19-.82-4.94-3.3-5.77l-1.17-.41c-0.41-.14-0.48-0.21-0.48-0.41v-0.62c0-.27.21-0.34,0.82-0.69l7.14-3.78a3.63,3.63,0,0,1,1.58-.55c0.41,0,.69.55,0.55,1.72s-0.21,15.11-.21,18.54V1109h0.34a13.1,13.1,0,0,1,9.41-4.46,9,9,0,0,1,6.8,2.75c3.09,2.88,3,6.39,3,10.09v3.91c0,3.85.14,8.1,0.14,9.41,0,0.82,1.1,1,2.54,1h1.17c0.55,0,.76.14,0.76,0.62v1c0,0.55-.14.82-0.55,0.82s-2.68-.21-6.59-0.21c-3.36,0-5.84.21-6.45,0.21s-0.62-.21-0.62-0.75v-1.17c0-.34.07-0.55,0.48-0.55h1.58c1.17,0,2.54-.14,2.61-1.3,0.07-1,0-4.6,0-6.8V1118c0-3.85-.27-6.59-2.27-8.45a6.3,6.3,0,0,0-4.53-1.92,8.38,8.38,0,0,0-6.39,2.88,6,6,0,0,0-1.37,3.37v15c0,2.2.21,2.82,1.51,2.82H717c0.48,0,.76.14,0.76,0.55v1.17c0,0.48-.14.75-0.55,0.75s-3.36-.21-6.52-0.21c-3.43,0-6,.21-6.66.21-0.27,0-.48-0.21-0.48-0.69v-1.24c0-.48.27-0.55,1-0.55H706c1.1,0,2.13-.28,2.27-1.1,0.21-1.3.21-8.86,0.21-13.32v-20.74Z"/><path class="cls-1" d="M745.46,1115.68c0-3.5-.55-4.19-2.47-5.22l-1.3-.69c-0.41-.14-0.55-0.21-0.55-0.48v-0.41a0.69,0.69,0,0,1,.55-0.62l6.8-3.5a2.06,2.06,0,0,1,1-.27c0.41,0,.48.41,0.48,0.82l0.34,4.88h0.27c2.06-3.16,5.29-6,8.24-6,2.33,0,3.5,1.44,3.5,3a3.32,3.32,0,0,1-2.88,3.37,4.51,4.51,0,0,1-2-.55,4.42,4.42,0,0,0-2.27-.55,4.88,4.88,0,0,0-4.05,2.88,7.43,7.43,0,0,0-.69,2.2v14.28c0,2.13.48,2.82,1.92,2.82h3.23c0.41,0,.48.21,0.48,0.62v1.24c0,0.41-.07.62-0.34,0.62s-3.57-.21-7.28-0.21c-4.26,0-7.14.21-7.55,0.21s-0.41-.14-0.41-0.69v-1.17c0-.48.14-0.62,0.75-0.62h2.68c1,0,1.51-.41,1.51-1.3,0.07-2.27.07-4.67,0.07-8.24v-6.45Z"/><path class="cls-1" d="M767.71,1130c-3.16-3.78-3.78-6.32-3.78-11.19a14.6,14.6,0,0,1,5.91-11.05,14.85,14.85,0,0,1,9.2-3.3,14.53,14.53,0,0,1,9.61,4,15.25,15.25,0,0,1,4.67,11.19c0,7.48-6.73,15.11-15.17,15.11A13.84,13.84,0,0,1,767.71,1130ZM787.55,1119c0-7.62-5.56-12.43-9.06-12.43a6.63,6.63,0,0,0-5.29,2.2c-2.68,2.75-3.64,5.56-3.64,10.78,0,3.85.41,6.46,2.61,9.61a7.6,7.6,0,0,0,6.8,3.57C784.19,1132.71,787.55,1126.33,787.55,1119Z"/><path class="cls-1" d="M824.36,1120c0,3.3,0,6.66.14,8.1,0.21,2.13,1,2.4,1.79,2.4a10.11,10.11,0,0,0,2.27-.21c0.55-.14.75,0,0.82,0.28l0.21,0.89a0.44,0.44,0,0,1-.34.62l-7.21,2.4a4.06,4.06,0,0,1-1.37.28c-0.27,0-.55-0.14-0.62-0.82l-0.55-4h-0.14a12.54,12.54,0,0,1-9.34,4.81,7.18,7.18,0,0,1-6.45-3.16c-2.82-3.64-2.68-5.91-2.68-13.46v-8c-0.07-1.92-1-2.4-2.61-2.61-1.17-.07-1.51-0.14-1.51-0.48v-1.24c0-.41.14-0.55,0.75-0.55h6.11a3.6,3.6,0,0,0,1-.14c0.27,0,.55-0.07.75-0.07a0.71,0.71,0,0,1,.76.82c-0.07.62-.28,3.85-0.28,7.9v4.94c0,2.75-.69,7.14,1.51,10.3,1.72,2.47,3.64,2.61,5.49,2.61s4.6-1.79,5.91-3.43a3.75,3.75,0,0,0,.69-1.85v-16.41c-0.14-1.92-1.24-2.27-3-2.4-1.17,0-1.51-.14-1.51-0.48v-1.17c0-.55.14-0.62,0.82-0.62h6.39a5.47,5.47,0,0,0,1.17-.14c0.34,0,.62-0.07.82-0.07a0.59,0.59,0,0,1,.62.69,60.63,60.63,0,0,0-.41,9.13V1120Z"/><path class="cls-1" d="M834.93,1150.43c-2.47-1.51-3.5-3.3-3.5-5.56,0-3.85,3.91-6.8,7.21-8.24v-0.27c-2.88-.62-4.6-2.75-4.6-4.81,0-3.3,3.78-5.63,6.18-6.52v-0.14a10.92,10.92,0,0,1-6.39-10.44c0-4.46,4-10,11.74-10a11,11,0,0,1,8.65,4c1.85-1.3,4.19-2.68,6.46-2.68s3.36,1.51,3.23,2.88a2.61,2.61,0,0,1-2.68,2.54,3.42,3.42,0,0,1-2.4-1,2.74,2.74,0,0,0-1.44-.62,5,5,0,0,0-2.2.41,13,13,0,0,1,1,5.22,11.32,11.32,0,0,1-2.54,7.42,12.28,12.28,0,0,1-11.47,3.09c-1.37.55-3.64,1.92-3.64,3.85,0,2.82,3.43,2.61,8,2.33,5.63-.28,9.06.34,11.81,2.47a8.08,8.08,0,0,1,3.37,6.59c0,3.23-1.17,5.91-4.6,8.45a20.66,20.66,0,0,1-11.74,3.23C842.14,1152.63,838.23,1152.28,834.93,1150.43Zm22.66-7.07c0-4.05-3.09-7.14-10-6.66l-6.59.48c-2.13.55-5.49,2.88-5.49,6.59a6.59,6.59,0,0,0,2.68,4.74c2.27,1.58,4.74,1.92,9.61,1.92C850.38,1150.43,857.94,1148.64,857.59,1143.36Zm-6.39-29.25c0-3-.62-4.81-1.85-6.18a5.19,5.19,0,0,0-3.3-1.51,6.3,6.3,0,0,0-4.87,1.92c-2.2,2.33-2.47,5.49-2.47,8.1a8.54,8.54,0,0,0,2.2,6,5.6,5.6,0,0,0,4.12,1.72C849.7,1124.13,851.21,1118.43,851.21,1114.1Z"/><path class="cls-1" d="M870.5,1096.53c0-4.19-.82-4.94-3.3-5.77l-1.17-.41c-0.41-.14-0.48-0.21-0.48-0.41v-0.62c0-.27.21-0.34,0.82-0.69l7.14-3.78a3.63,3.63,0,0,1,1.58-.55c0.41,0,.69.55,0.55,1.72s-0.21,15.11-.21,18.54V1109h0.34a13.1,13.1,0,0,1,9.41-4.46,9,9,0,0,1,6.8,2.75c3.09,2.88,3,6.39,3,10.09v3.91c0,3.85.14,8.1,0.14,9.41,0,0.82,1.1,1,2.54,1h1.17c0.55,0,.75.14,0.75,0.62v1c0,0.55-.14.82-0.55,0.82s-2.68-.21-6.59-0.21c-3.36,0-5.84.21-6.45,0.21s-0.62-.21-0.62-0.75v-1.17c0-.34.07-0.55,0.48-0.55h1.58c1.17,0,2.54-.14,2.61-1.3,0.07-1,0-4.6,0-6.8V1118c0-3.85-.27-6.59-2.27-8.45a6.3,6.3,0,0,0-4.53-1.92,8.38,8.38,0,0,0-6.39,2.88,6,6,0,0,0-1.37,3.37v15c0,2.2.21,2.82,1.51,2.82H879c0.48,0,.75.14,0.75,0.55v1.17c0,0.48-.14.75-0.55,0.75s-3.36-.21-6.52-0.21c-3.43,0-6,.21-6.66.21-0.27,0-.48-0.21-0.48-0.69v-1.24c0-.48.27-0.55,1-0.55H868c1.1,0,2.13-.28,2.27-1.1,0.21-1.3.21-8.86,0.21-13.32v-20.74Z"/><path class="cls-1" d="M943.36,1130.93a3.16,3.16,0,0,0,2.4-1c0.27-.34.41-0.48,0.69-0.28l0.69,0.55a0.91,0.91,0,0,1-.07,1.24,5.67,5.67,0,0,1-5.36,3.37c-2.47,0-4.26-1.79-4.87-4.6H936.7a14.81,14.81,0,0,1-6.8,4.19,12.9,12.9,0,0,1-4.05.41c-1.65,0-4.12-1.37-4.12-5.7,0-3.16,1.44-5.91,6.87-8.31,3.09-1.37,6.66-3,7.76-4v-4.39c-0.14-1.17-.21-3-1-3.85a5.22,5.22,0,0,0-4.12-1.51,7.69,7.69,0,0,0-4.46,1.44c-1,.89-0.34,1.92-0.34,3.16,0,2.4-.82,3.91-3.64,3.91-1.1,0-1.65-.62-1.65-2.2,0-2.2,1.92-4.81,4.74-6.45a15.15,15.15,0,0,1,8.38-2.4c3.23,0,4.53,1,5.49,1.85,1.44,1.44,1.51,3,1.51,4.88v14.56C941.3,1129.69,942.12,1130.93,943.36,1130.93Zm-7.07-12.08c-2.47,1.85-9.2,3.23-9.2,8.93,0,2.54,1.51,3.78,3.57,3.78s5.63-2.4,5.63-4.26v-8.45Z"/><path class="cls-1" d="M980.85,1127.63h0.21c1.1-2.68,5.91-14.49,6.59-17.17,0.48-1.85,0-3-1.24-3H985c-0.21,0-.27-0.34-0.27-0.69v-1.24c0-.41.14-0.55,0.41-0.55,1,0,2.47.21,5.49,0.21,2.68,0,4.33-.21,4.94-0.21s0.62,0.07.62,0.62v1.17c0,0.48,0,.69-0.34.69h-1.3a2.73,2.73,0,0,0-2.13.75c-1,1-4.46,8.51-5.49,11.05-0.82,2.06-5.91,13.6-6.18,14.08-0.55,1-.89,1.58-1.65,1.58s-1.1-.62-1.44-1.44l-5.36-13.94c-0.21-.55-3-8.45-3.5-9.54-0.89-2-1.58-2.54-2.81-2.54h-1.37c-0.34,0-.41-0.28-0.41-0.69v-1.24c0-.48.14-0.55,0.76-0.55s1.92,0.21,5.77.21c3.64,0,5.42-.21,6.18-0.21,0.55,0,.69.14,0.69,0.55v1.24c0,0.41-.07.69-0.48,0.69h-1.37a1.17,1.17,0,0,0-1.24,1.3c0,1.24,1.79,7,2.2,8.17S980.09,1126.19,980.85,1127.63Z"/><path class="cls-1" d="M1001.73,1114c0-2.33-.41-3.57-3.85-4.12-0.48-.07-0.62-0.21-0.62-0.48v-0.62a0.56,0.56,0,0,1,.48-0.48,56.29,56.29,0,0,0,7.42-3.36,2.84,2.84,0,0,1,1.3-.41c0.34,0,.41.34,0.34,0.82-0.14,1.17-.14,5.49-0.14,11.19V1124c0,2.68,0,5.15.07,5.91,0.14,1.3.34,1.79,1.1,1.79H1011c0.55,0,.69.21,0.69,0.62v1.17a0.55,0.55,0,0,1-.62.69c-0.55,0-3.71-.21-6.59-0.21-4,0-6.66.21-7.42,0.21a0.48,0.48,0,0,1-.55-0.55v-1.37c0-.41.21-0.55,0.69-0.55h3.36c0.76,0,1-.28,1.1-1.37,0.07-2.06.07-4.19,0.07-6.25V1114Zm-3.23-21.08a4.05,4.05,0,0,1,4.33-3.84,3.62,3.62,0,0,1,3.71,3.64,3.93,3.93,0,0,1-4.12,4.05A4.19,4.19,0,0,1,998.5,1092.89Z"/><path class="cls-1" d="M1019.72,1115.68c0-3.5-.55-4.19-2.47-5.22l-1.3-.69c-0.41-.14-0.55-0.21-0.55-0.48v-0.41a0.69,0.69,0,0,1,.55-0.62l6.8-3.5a2.07,2.07,0,0,1,1-.27c0.41,0,.48.41,0.48,0.82l0.34,4.88h0.28c2.06-3.16,5.29-6,8.24-6,2.33,0,3.5,1.44,3.5,3a3.32,3.32,0,0,1-2.88,3.37,4.5,4.5,0,0,1-2-.55,4.43,4.43,0,0,0-2.27-.55,4.87,4.87,0,0,0-4.05,2.88,7.4,7.4,0,0,0-.69,2.2v14.28c0,2.13.48,2.82,1.92,2.82h3.23c0.41,0,.48.21,0.48,0.62v1.24c0,0.41-.07.62-0.34,0.62s-3.57-.21-7.28-0.21c-4.26,0-7.14.21-7.55,0.21s-0.41-.14-0.41-0.69v-1.17c0-.48.14-0.62,0.75-0.62h2.68c1,0,1.51-.41,1.51-1.3,0.07-2.27.07-4.67,0.07-8.24v-6.45Z"/><path class="cls-1" d="M1066,1120c0,3.3,0,6.66.14,8.1,0.21,2.13,1,2.4,1.79,2.4a10.11,10.11,0,0,0,2.27-.21c0.55-.14.75,0,0.82,0.28l0.21,0.89a0.44,0.44,0,0,1-.34.62l-7.21,2.4a4.06,4.06,0,0,1-1.37.28c-0.27,0-.55-0.14-0.62-0.82l-0.55-4H1061a12.54,12.54,0,0,1-9.34,4.81,7.18,7.18,0,0,1-6.45-3.16c-2.82-3.64-2.68-5.91-2.68-13.46v-8c-0.07-1.92-1-2.4-2.61-2.61-1.17-.07-1.51-0.14-1.51-0.48v-1.24c0-.41.14-0.55,0.76-0.55h6.11a3.6,3.6,0,0,0,1-.14c0.27,0,.55-0.07.75-0.07a0.71,0.71,0,0,1,.76.82c-0.07.62-.28,3.85-0.28,7.9v4.94c0,2.75-.69,7.14,1.51,10.3,1.72,2.47,3.64,2.61,5.49,2.61s4.6-1.79,5.91-3.43a3.75,3.75,0,0,0,.69-1.85v-16.41c-0.14-1.92-1.24-2.27-3-2.4-1.17,0-1.51-.14-1.51-0.48v-1.17c0-.55.14-0.62,0.82-0.62h6.39a5.47,5.47,0,0,0,1.17-.14c0.34,0,.62-0.07.82-0.07a0.59,0.59,0,0,1,.62.69,60.63,60.63,0,0,0-.41,9.13V1120Z"/><path class="cls-1" d="M1076.57,1132.78a1.25,1.25,0,0,1-.41-1l-1.17-6.52a0.44,0.44,0,0,1,.41-0.55l0.89-.21a0.51,0.51,0,0,1,.62.41l1.72,3.36c1.37,2.54,2.33,4.26,6,4.26,2.4,0,5.42-1.44,5.42-4.67s-1.51-4.87-6.66-6.32c-4.05-1.17-8.1-3.3-8.1-8.72,0-4.74,4.46-8.38,9.61-8.38a12.8,12.8,0,0,1,6.32,1.44c1,0.48,1.17.82,1.24,1.24l1,4.81a0.64,0.64,0,0,1-.48.62l-0.82.27a0.49,0.49,0,0,1-.62-0.34l-2.33-3.16a5.25,5.25,0,0,0-4.81-2.68c-2.61,0-5.29,1.58-5.29,4.53,0,4,3.23,4.74,6.59,5.7,5,1.44,8.17,3.5,8.24,8.79-0.07,5.56-4.6,9.06-10.44,9.06A12.92,12.92,0,0,1,1076.57,1132.78Z"/></svg>