<svg id="Layer_1" data-name="Layer 1" xmlns="http://www.w3.org/2000/svg" viewBox="0 0 2560 1600"><defs><style>.cls-1{fill:#231f20;}</style></defs><title>virus</title><path class="cls-1" d="M1231.18,827.11a3,3,0,0,1,3.16-2.68,11.82,11.82,0,0,1,3.16.75,1.65,1.65,0,0,0,1.44-.41c1-1.24,4.53-9.06,5.49-11.74-0.34-1.72-7.62-23.21-8.17-24.65-0.82-1.72-1.44-2.88-3.23-2.88h-1.79c-0.48,0-.55-0.21-0.55-0.62v-1.37c0-.28.07-0.48,0.55-0.48s2.27,0.21,6.32.21c3.5,0,5.63-.21,6.39-0.21,0.55,0,.62.21,0.62,0.48v1.44c0,0.34-.07.55-0.41,0.55h-1.3c-0.76,0-1,.48-0.89,1.51,0.21,1.51,4.88,16.69,5.63,18.2h0.27c0.69-1.1,6.66-15.38,7.07-17.1s-0.14-2.61-1.17-2.61h-1.1c-0.41,0-.48-0.21-0.48-0.55v-1.37c0-.34.07-0.55,0.41-0.55,0.89,0,2.33.21,5.63,0.21,1.85,0,3.43-.21,4.19-0.21,0.41,0,.41.28,0.41,0.55v1.3c0,0.41,0,.62-0.34.62h-1.1a3.08,3.08,0,0,0-2.4,1.24c-1.51,1.85-6,12.36-10.78,23.14-3.36,7.62-6,14-7.28,16.27-1,1.79-2.2,4.46-5.84,4.46C1232.48,830.61,1231.18,829.17,1231.18,827.11Z"/><path class="cls-1" d="M1266.54,808c-3.16-3.78-3.78-6.32-3.78-11.19a14.6,14.6,0,0,1,5.91-11.05,14.85,14.85,0,0,1,9.2-3.3,14.54,14.54,0,0,1,9.61,4,15.25,15.25,0,0,1,4.67,11.19c0,7.48-6.73,15.11-15.17,15.11A13.85,13.85,0,0,1,1266.54,808ZM1286.38,797c0-7.62-5.56-12.43-9.06-12.43a6.63,6.63,0,0,0-5.29,2.2c-2.68,2.75-3.64,5.56-3.64,10.78,0,3.85.41,6.46,2.61,9.61a7.6,7.6,0,0,0,6.8,3.57C1283,810.7,1286.38,804.31,1286.38,797Z"/><path class="cls-1" d="M1323.19,798c0,3.3,0,6.66.14,8.1,0.21,2.13,1,2.4,1.79,2.4a10.11,10.11,0,0,0,2.27-.21c0.55-.14.76,0,0.82,0.28l0.21,0.89a0.44,0.44,0,0,1-.34.62l-7.21,2.4a4.08,4.08,0,0,1-1.37.27c-0.27,0-.55-0.14-0.62-0.82l-0.55-4h-0.14a12.54,12.54,0,0,1-9.34,4.81,7.18,7.18,0,0,1-6.45-3.16c-2.81-3.64-2.68-5.9-2.68-13.46v-8c-0.07-1.92-1-2.4-2.61-2.61-1.17-.07-1.51-0.14-1.51-0.48v-1.24c0-.41.14-0.55,0.76-0.55h6.11a3.6,3.6,0,0,0,1-.14c0.27,0,.55-0.07.76-0.07a0.71,0.71,0,0,1,.76.82c-0.07.62-.27,3.85-0.27,7.9v4.94c0,2.75-.69,7.14,1.51,10.3,1.72,2.47,3.64,2.61,5.49,2.61s4.6-1.79,5.91-3.43a3.75,3.75,0,0,0,.69-1.85V787.9c-0.14-1.92-1.24-2.27-3-2.4-1.17,0-1.51-.14-1.51-0.48v-1.17c0-.55.14-0.62,0.82-0.62H1321a5.47,5.47,0,0,0,1.17-.14c0.34,0,.62-0.07.82-0.07a0.59,0.59,0,0,1,.62.69,60.73,60.73,0,0,0-.41,9.13V798Z"/></svg>