<svg id="Layer_1" data-name="Layer 1" xmlns="http://www.w3.org/2000/svg" viewBox="0 0 2560 1600"><defs><style>.cls-1{fill:#231f20;}</style></defs><title>virus</title><path class="cls-1" d="M1161.15,827.11a3,3,0,0,1,3.16-2.68,11.81,11.81,0,0,1,3.16.75,1.64,1.64,0,0,0,1.44-.41c1-1.24,4.53-9.06,5.49-11.74-0.34-1.72-7.62-23.21-8.17-24.65-0.82-1.72-1.44-2.88-3.23-2.88h-1.79c-0.48,0-.55-0.21-0.55-0.62v-1.37c0-.28.07-0.48,0.55-0.48s2.27,0.21,6.32.21c3.5,0,5.63-.21,6.39-0.21,0.55,0,.62.21,0.62,0.48v1.44c0,0.34-.07.55-0.41,0.55h-1.3c-0.76,0-1,.48-0.89,1.51,0.21,1.51,4.88,16.69,5.63,18.2h0.27c0.69-1.1,6.66-15.38,7.07-17.1s-0.14-2.61-1.17-2.61h-1.1c-0.41,0-.48-0.21-0.48-0.55v-1.37c0-.34.07-0.55,0.41-0.55,0.89,0,2.33.21,5.63,0.21,1.85,0,3.43-.21,4.19-0.21,0.41,0,.41.28,0.41,0.55v1.3c0,0.41,0,.62-0.34.62h-1.1a3.08,3.08,0,0,0-2.4,1.24c-1.51,1.85-6,12.36-10.78,23.14-3.36,7.62-6,14-7.28,16.27-1,1.79-2.2,4.46-5.84,4.46C1162.46,830.61,1161.15,829.17,1161.15,827.11Z"/><path class="cls-1" d="M1196.51,808c-3.16-3.78-3.78-6.32-3.78-11.19a14.6,14.6,0,0,1,5.91-11.05,14.85,14.85,0,0,1,9.2-3.3,14.54,14.54,0,0,1,9.61,4,15.25,15.25,0,0,1,4.67,11.19c0,7.48-6.73,15.11-15.17,15.11A13.85,13.85,0,0,1,1196.51,808ZM1216.36,797c0-7.62-5.56-12.43-9.06-12.43a6.63,6.63,0,0,0-5.29,2.2c-2.68,2.75-3.64,5.56-3.64,10.78,0,3.85.41,6.46,2.61,9.61a7.6,7.6,0,0,0,6.8,3.57C1213,810.7,1216.36,804.31,1216.36,797Z"/><path class="cls-1" d="M1253.16,798c0,3.3,0,6.66.14,8.1,0.21,2.13,1,2.4,1.79,2.4a10.11,10.11,0,0,0,2.27-.21c0.55-.14.76,0,0.82,0.28l0.21,0.89a0.44,0.44,0,0,1-.34.62l-7.21,2.4a4.08,4.08,0,0,1-1.37.27c-0.27,0-.55-0.14-0.62-0.82l-0.55-4h-0.14a12.54,12.54,0,0,1-9.34,4.81,7.18,7.18,0,0,1-6.45-3.16c-2.82-3.64-2.68-5.9-2.68-13.46v-8c-0.07-1.92-1-2.4-2.61-2.61-1.17-.07-1.51-0.14-1.51-0.48v-1.24c0-.41.14-0.55,0.76-0.55h6.11a3.6,3.6,0,0,0,1-.14c0.27,0,.55-0.07.76-0.07a0.71,0.71,0,0,1,.76.82c-0.07.62-.27,3.85-0.27,7.9v4.94c0,2.75-.69,7.14,1.51,10.3,1.72,2.47,3.64,2.61,5.49,2.61s4.6-1.79,5.91-3.43a3.75,3.75,0,0,0,.69-1.85V787.9c-0.14-1.92-1.24-2.27-3-2.4-1.17,0-1.51-.14-1.51-0.48v-1.17c0-.55.14-0.62,0.82-0.62H1251a5.48,5.48,0,0,0,1.17-.14c0.34,0,.62-0.07.82-0.07a0.59,0.59,0,0,1,.62.69,60.73,60.73,0,0,0-.41,9.13V798Z"/><path class="cls-1" d="M1284.27,795.32a19.35,19.35,0,0,0,3.5,10.44,8.84,8.84,0,0,0,7.48,3.5,9.42,9.42,0,0,0,7.55-3,0.36,0.36,0,0,1,.55,0L1304,807a0.54,0.54,0,0,1,0,.89,15.89,15.89,0,0,1-11.05,4.88c-3.64,0-7.48-.82-10.64-4.81a14.22,14.22,0,0,1-3.09-9.34c0-8,5.63-16.14,14.69-16.14,7.14,0,9.34,4.12,9.34,5.56a2.34,2.34,0,0,1-2.54,2.4c-1.58,0-2.75-.89-3.78-2.75-1.51-2.82-3-3-4.6-3C1288.46,784.67,1284.27,788.24,1284.27,795.32Z"/><path class="cls-1" d="M1330.76,808.91a3.16,3.16,0,0,0,2.4-1c0.27-.34.41-0.48,0.69-0.28l0.69,0.55a0.91,0.91,0,0,1-.07,1.24,5.67,5.67,0,0,1-5.36,3.37c-2.47,0-4.26-1.79-4.87-4.6h-0.14a14.8,14.8,0,0,1-6.8,4.19,12.9,12.9,0,0,1-4.05.41c-1.65,0-4.12-1.37-4.12-5.7,0-3.16,1.44-5.91,6.87-8.31,3.09-1.37,6.66-3,7.76-4v-4.39c-0.14-1.17-.21-3-1-3.85a5.22,5.22,0,0,0-4.12-1.51,7.69,7.69,0,0,0-4.46,1.44c-1,.89-0.34,1.92-0.34,3.16,0,2.4-.82,3.91-3.64,3.91-1.1,0-1.65-.62-1.65-2.2,0-2.2,1.92-4.81,4.74-6.45a15.14,15.14,0,0,1,8.38-2.4c3.23,0,4.53,1,5.49,1.85,1.44,1.44,1.51,3,1.51,4.88v14.56C1328.7,807.68,1329.52,808.91,1330.76,808.91Zm-7.07-12.08c-2.47,1.85-9.2,3.23-9.2,8.93,0,2.54,1.51,3.78,3.57,3.78s5.63-2.4,5.63-4.26v-8.45Z"/><path class="cls-1" d="M1365.71,808.22a1.29,1.29,0,0,0,1.51,1.44h2.2c0.62,0,.76.21,0.76,0.62v1.1c0,0.48-.14.76-0.55,0.76s-2.61-.21-6.52-0.21c-3.5,0-5.7.21-6.18,0.21s-0.55-.21-0.55-0.76v-1.1c0-.48.21-0.62,0.89-0.62h2c0.76,0,1.3-.34,1.37-1.58,0.07-1.79.14-4,.14-5.77v-9.06c0-2.75,0-4.74-2-6.18-1.65-1.24-3.3-1.24-5-1.24a8.05,8.05,0,0,0-5.56,2.68,6.73,6.73,0,0,0-1.58,4.67V807.4c0,1.85.21,2.27,1.65,2.27H1350a0.57,0.57,0,0,1,.69.69v1.17c0,0.41-.14.62-0.48,0.62s-2.33-.21-6-0.21-5.7.21-6.11,0.21-0.48-.21-0.48-0.62v-1.24c0-.41.14-0.62,0.69-0.62h2a1.13,1.13,0,0,0,1.37-1.37V792.23a4.23,4.23,0,0,0-2.81-4.05l-0.55-.27a0.66,0.66,0,0,1-.55-0.62v-0.34a0.8,0.8,0,0,1,.62-0.69l5.91-3.3a3.63,3.63,0,0,1,1.24-.48c0.34,0,.48.27,0.55,0.82l0.48,4.19h0.14c2-2.47,6-5,9.41-5a10.6,10.6,0,0,1,5.84,1.51,10,10,0,0,1,3.78,6.52v17.71Z"/><path class="cls-1" d="M1378.48,768.19c0,6.45-6,10.85-7.21,11.6a2.28,2.28,0,0,1-1.24.55,0.55,0.55,0,0,1-.69-0.55,0.89,0.89,0,0,1,.55-0.89c1.44-1.37,4.33-4.39,4.33-7.76a2.23,2.23,0,0,0-1-1.92c-0.62-.28-3.5-1-3.5-4,0-1.58,1.24-3,3.43-3A5.81,5.81,0,0,1,1378.48,768.19Z"/><path class="cls-1" d="M1388.92,803.35c0,5.15,2.33,6,3.57,6a9.87,9.87,0,0,0,4.53-.89,0.56,0.56,0,0,1,.82.14l0.34,0.62a0.55,0.55,0,0,1-.14.75,11.55,11.55,0,0,1-7.62,2.75c-3.36,0-6.66-3.23-6.66-5.84,0-2.82.21-8.86,0.21-9.82v-1.51c0-1.24.07-5.91,0.14-8.79h-4.19a0.86,0.86,0,0,1-1-.82c0-.55.41-0.76,1.24-1.24,1.65-1,6.94-6.25,7.83-8.58a0.92,0.92,0,0,1,1-.69c0.55,0,.69.48,0.69,1l-0.34,6.73h9.54a0.45,0.45,0,0,1,.48.62l-0.69,2.4a0.56,0.56,0,0,1-.62.55h-8.86c-0.14,3.16-.21,6.52-0.21,9.68v6.87Z"/></svg>