<svg id="Layer_1" data-name="Layer 1" xmlns="http://www.w3.org/2000/svg" viewBox="0 0 2560 1600"><defs><style>.cls-1{fill:#231f20;}</style></defs><title>virus</title><path class="cls-1" d="M2181.7,156.81a10.5,10.5,0,0,0-.34-3.71l-7.42-21.22c-0.55-1.58-1.79-2.61-4.19-2.61h-1.58c-0.41,0-.55-0.14-0.48-0.55l0.27-1.44c0.07-.48.21-0.55,0.69-0.55,0.89,0,2.68.21,7.21,0.21,5.22,0,7.55-.21,8.45-0.21,0.48,0,.69.14,0.62,0.55l-0.14,1.44a0.53,0.53,0,0,1-.62.55h-1.79c-2.61,0-2.75,1.72-2.2,3.3l6.39,19.09c0.27,0.89.55,0.89,1,.27,1.51-2.06,11.88-16.82,12.63-19,0.89-2.61.21-3.71-2.54-3.71h-1.37c-0.41,0-.55-0.27-0.48-0.69l0.14-1.3c0.07-.48.21-0.55,0.82-0.55,1,0,3.64.21,7.55,0.21s5.84-.21,6.73-0.21c0.62,0,.76.21,0.69,0.55l-0.21,1.3c-0.07.55-.21,0.69-0.55,0.69h-1.3c-2.33,0-3.57,1.1-5.36,3.36-1,1.24-13.53,18.88-14.49,20.26A13.35,13.35,0,0,0,2187,159l-1.72,7.76c-0.76,3.5.41,3.85,2.68,3.85H2190a0.41,0.41,0,0,1,.48.55l-0.21,1.44a0.62,0.62,0,0,1-.76.55c-1,0-3.23-.21-8.31-0.21-5.7,0-7.83.21-8.58,0.21-0.41,0-.62-0.14-0.55-0.55l0.27-1.44a0.5,0.5,0,0,1,.62-0.55h2c3.23,0,4-1.58,4.46-3.64Z"/><path class="cls-1" d="M2214,169.31c-4.05-4.12-5.77-9.48-5.77-16.14,0-14.08,11.33-27.26,24-27.26,10.37,0,18.06,8.31,18.06,20.6,0,12.77-8.86,27.47-24.38,27.47A15.91,15.91,0,0,1,2214,169.31ZM2245,142c0-7.35-3.78-13.11-11.4-13.11-4.19,0-7.14,2-10.09,4.94-6.11,6.11-10,16.69-10,23.76,0,9.75,5.84,13.66,10.92,13.66C2235.67,171.3,2245,156.05,2245,142Z"/><path class="cls-1" d="M2294.25,153.79c-3.91,12.7-10,20.19-20.81,20.19-9.2,0-16-4.05-16-12.57a38.75,38.75,0,0,1,1.44-8.58l5.84-19.29c1-3.09.27-4.26-1.92-4.26h-2.47a0.41,0.41,0,0,1-.48-0.55l0.34-1.44c0.07-.41.21-0.55,0.89-0.55s3.23,0.21,8.17.21c5.56,0,7.9-.21,8.58-0.21s0.69,0.21.62,0.69l-0.27,1.3a0.62,0.62,0,0,1-.69.55h-2.2c-1.65,0-3.3.27-4.39,3.91l-5.63,18.33c-0.41,1.51-2,6.59-2,9.68,0,8.65,8.45,9.68,10.85,9.68a14.56,14.56,0,0,0,8.93-3.43c3.16-2.82,5.36-6.59,7.69-14.21l6-19.78c1-3.3-.41-4.19-2.54-4.19h-2.61c-0.62,0-.69-0.21-0.62-0.55l0.21-1.3a0.75,0.75,0,0,1,.89-0.69c0.82,0,3.43.21,8.38,0.21,4,0,5.56-.21,6.25-0.21s0.69,0.21.62,0.69l-0.21,1.3a0.62,0.62,0,0,1-.76.55H2305c-2.2,0-3.23,1.3-4,3.16Z"/></svg>