<svg id="Layer_1" data-name="Layer 1" xmlns="http://www.w3.org/2000/svg" viewBox="0 0 2560 1600"><defs><style>.cls-1{fill:#231f20;}</style></defs><title>virus</title><path class="cls-1" d="M2171.54,153c0-2.33-.41-3.57-3.85-4.12-0.48-.07-0.62-0.21-0.62-0.48v-0.62a0.56,0.56,0,0,1,.48-0.48,56.18,56.18,0,0,0,7.42-3.36,2.83,2.83,0,0,1,1.3-.41c0.34,0,.41.34,0.34,0.82-0.14,1.17-.14,5.49-0.14,11.19V163c0,2.68,0,5.15.07,5.91,0.14,1.3.34,1.79,1.1,1.79h3.16c0.55,0,.69.21,0.69,0.62v1.17c0,0.48-.14.69-0.62,0.69s-3.71-.21-6.59-0.21c-4,0-6.66.21-7.42,0.21a0.48,0.48,0,0,1-.55-0.55v-1.37c0-.41.21-0.55,0.69-0.55h3.36c0.76,0,1-.27,1.1-1.37,0.07-2.06.07-4.19,0.07-6.25V153Zm-3.23-21.08a4.05,4.05,0,0,1,4.33-3.85,3.62,3.62,0,0,1,3.71,3.64,3.93,3.93,0,0,1-4.12,4.05A4.18,4.18,0,0,1,2168.31,131.88Z"/><path class="cls-1" d="M2194.47,164.36c0,5.15,2.33,6,3.57,6a9.88,9.88,0,0,0,4.53-.89,0.56,0.56,0,0,1,.82.14l0.34,0.62a0.55,0.55,0,0,1-.14.75,11.55,11.55,0,0,1-7.62,2.75c-3.36,0-6.66-3.23-6.66-5.84,0-2.81.21-8.86,0.21-9.82V156.6c0-1.24.07-5.9,0.14-8.79h-4.19a0.86,0.86,0,0,1-1-.82c0-.55.41-0.76,1.24-1.24,1.65-1,6.94-6.25,7.83-8.58a0.92,0.92,0,0,1,1-.69c0.55,0,.69.48,0.69,1l-0.34,6.73h9.54a0.45,0.45,0,0,1,.48.62l-0.69,2.4a0.56,0.56,0,0,1-.62.55h-8.86c-0.14,3.16-.21,6.52-0.21,9.68v6.87Z"/><path class="cls-1" d="M2229.22,153c0-2.33-.41-3.57-3.85-4.12-0.48-.07-0.62-0.21-0.62-0.48v-0.62a0.56,0.56,0,0,1,.48-0.48,56.18,56.18,0,0,0,7.42-3.36,2.83,2.83,0,0,1,1.3-.41c0.34,0,.41.34,0.34,0.82-0.14,1.17-.14,5.49-0.14,11.19V163c0,2.68,0,5.15.07,5.91,0.14,1.3.34,1.79,1.1,1.79h3.16c0.55,0,.69.21,0.69,0.62v1.17c0,0.48-.14.69-0.62,0.69s-3.71-.21-6.59-0.21c-4,0-6.66.21-7.42,0.21a0.48,0.48,0,0,1-.55-0.55v-1.37c0-.41.21-0.55,0.69-0.55h3.36c0.76,0,1-.27,1.1-1.37,0.07-2.06.07-4.19,0.07-6.25V153ZM2226,131.88a4.05,4.05,0,0,1,4.33-3.85,3.62,3.62,0,0,1,3.71,3.64,3.93,3.93,0,0,1-4.12,4.05A4.18,4.18,0,0,1,2226,131.88Z"/><path class="cls-1" d="M2245,171.78a1.25,1.25,0,0,1-.41-1l-1.17-6.52a0.44,0.44,0,0,1,.41-0.55l0.89-.21a0.51,0.51,0,0,1,.62.41l1.72,3.36c1.37,2.54,2.33,4.26,6,4.26,2.4,0,5.42-1.44,5.42-4.67s-1.51-4.87-6.66-6.32c-4.05-1.17-8.1-3.3-8.1-8.72,0-4.74,4.46-8.38,9.61-8.38a12.79,12.79,0,0,1,6.32,1.44c1,0.48,1.17.82,1.24,1.24l1,4.81a0.64,0.64,0,0,1-.48.62l-0.82.27a0.49,0.49,0,0,1-.62-0.34l-2.33-3.16a5.25,5.25,0,0,0-4.81-2.68c-2.61,0-5.29,1.58-5.29,4.53,0,4,3.23,4.74,6.59,5.7,5,1.44,8.17,3.5,8.24,8.79-0.07,5.56-4.6,9.06-10.44,9.06A12.92,12.92,0,0,1,2245,171.78Z"/><path class="cls-1" d="M2162,171.47c0-2.33-.41-3.57-3.85-4.12-0.48-.07-0.62-0.21-0.62-0.48v-0.62a0.56,0.56,0,0,1,.48-0.48,56.16,56.16,0,0,0,7.42-3.36,2.83,2.83,0,0,1,1.3-.41c0.34,0,.41.34,0.34,0.82C2167,164,2167,168.31,2167,174v7.48c0,2.68,0,5.15.07,5.91,0.14,1.3.34,1.79,1.1,1.79h3.16c0.55,0,.69.21,0.69,0.62V191c0,0.48-.14.69-0.62,0.69s-3.71-.21-6.59-0.21c-4,0-6.66.21-7.42,0.21a0.48,0.48,0,0,1-.55-0.55v-1.37c0-.41.21-0.55,0.69-0.55h3.36c0.76,0,1-.27,1.1-1.37,0.07-2.06.07-4.19,0.07-6.25V171.47Zm-3.23-21.08a4.05,4.05,0,0,1,4.33-3.85,3.62,3.62,0,0,1,3.71,3.64,3.93,3.93,0,0,1-4.12,4.05A4.18,4.18,0,0,1,2158.81,150.39Z"/><path class="cls-1" d="M2185,182.86c0,5.15,2.33,6,3.57,6a9.88,9.88,0,0,0,4.53-.89,0.56,0.56,0,0,1,.82.14l0.34,0.62a0.55,0.55,0,0,1-.14.75,11.55,11.55,0,0,1-7.62,2.75c-3.36,0-6.66-3.23-6.66-5.84,0-2.81.21-8.86,0.21-9.82V175.1c0-1.24.07-5.9,0.14-8.79H2176a0.86,0.86,0,0,1-1-.82c0-.55.41-0.76,1.24-1.24,1.65-1,6.94-6.25,7.83-8.58a0.92,0.92,0,0,1,1-.69c0.55,0,.69.48,0.69,1l-0.34,6.73h9.54a0.45,0.45,0,0,1,.48.62l-0.69,2.4a0.56,0.56,0,0,1-.62.55h-8.86c-0.14,3.16-.21,6.52-0.21,9.68v6.87Z"/><path class="cls-1" d="M2219.72,171.47c0-2.33-.41-3.57-3.85-4.12-0.48-.07-0.62-0.21-0.62-0.48v-0.62a0.56,0.56,0,0,1,.48-0.48,56.16,56.16,0,0,0,7.42-3.36,2.83,2.83,0,0,1,1.3-.41c0.34,0,.41.34,0.34,0.82-0.14,1.17-.14,5.49-0.14,11.19v7.48c0,2.68,0,5.15.07,5.91,0.14,1.3.34,1.79,1.1,1.79H2229c0.55,0,.69.21,0.69,0.62V191c0,0.48-.14.69-0.62,0.69s-3.71-.21-6.59-0.21c-4,0-6.66.21-7.42,0.21a0.48,0.48,0,0,1-.55-0.55v-1.37c0-.41.21-0.55,0.69-0.55h3.36c0.76,0,1-.27,1.1-1.37,0.07-2.06.07-4.19,0.07-6.25V171.47Zm-3.23-21.08a4.05,4.05,0,0,1,4.33-3.85,3.62,3.62,0,0,1,3.71,3.64,3.93,3.93,0,0,1-4.12,4.05A4.18,4.18,0,0,1,2216.49,150.39Z"/><path class="cls-1" d="M2235.51,190.28a1.25,1.25,0,0,1-.41-1l-1.17-6.52a0.44,0.44,0,0,1,.41-0.55l0.89-.21a0.51,0.51,0,0,1,.62.41l1.72,3.36c1.37,2.54,2.33,4.26,6,4.26,2.4,0,5.42-1.44,5.42-4.67s-1.51-4.87-6.66-6.32c-4.05-1.17-8.1-3.3-8.1-8.72,0-4.74,4.46-8.38,9.61-8.38a12.79,12.79,0,0,1,6.32,1.44c1,0.48,1.17.82,1.24,1.24l1,4.81a0.64,0.64,0,0,1-.48.62l-0.82.27a0.49,0.49,0,0,1-.62-0.34l-2.33-3.16a5.25,5.25,0,0,0-4.81-2.68c-2.61,0-5.29,1.58-5.29,4.53,0,4,3.23,4.74,6.59,5.7,5,1.44,8.17,3.5,8.24,8.79-0.07,5.56-4.6,9.06-10.44,9.06A12.92,12.92,0,0,1,2235.51,190.28Z"/><path class="cls-1" d="M2189,171.47c0-2.33-.41-3.57-3.85-4.12-0.48-.07-0.62-0.21-0.62-0.48v-0.62a0.56,0.56,0,0,1,.48-0.48,56.16,56.16,0,0,0,7.42-3.36,2.83,2.83,0,0,1,1.3-.41c0.34,0,.41.34,0.34,0.82C2194,164,2194,168.31,2194,174v7.48c0,2.68,0,5.15.07,5.91,0.14,1.3.34,1.79,1.1,1.79h3.16c0.55,0,.69.21,0.69,0.62V191c0,0.48-.14.69-0.62,0.69s-3.71-.21-6.59-0.21c-4,0-6.66.21-7.42,0.21a0.48,0.48,0,0,1-.55-0.55v-1.37c0-.41.21-0.55,0.69-0.55h3.36c0.76,0,1-.27,1.1-1.37,0.07-2.06.07-4.19,0.07-6.25V171.47Zm-3.23-21.08a4.05,4.05,0,0,1,4.33-3.85,3.62,3.62,0,0,1,3.71,3.64,3.93,3.93,0,0,1-4.12,4.05A4.18,4.18,0,0,1,2185.79,150.39Z"/><path class="cls-1" d="M2212,182.86c0,5.15,2.33,6,3.57,6a9.88,9.88,0,0,0,4.53-.89,0.56,0.56,0,0,1,.82.14l0.34,0.62a0.55,0.55,0,0,1-.14.75,11.55,11.55,0,0,1-7.62,2.75c-3.36,0-6.66-3.23-6.66-5.84,0-2.81.21-8.86,0.21-9.82V175.1c0-1.24.07-5.9,0.14-8.79H2203a0.86,0.86,0,0,1-1-.82c0-.55.41-0.76,1.24-1.24,1.65-1,6.94-6.25,7.83-8.58a0.92,0.92,0,0,1,1-.69c0.55,0,.69.48,0.69,1l-0.34,6.73h9.54a0.45,0.45,0,0,1,.48.62l-0.69,2.4a0.56,0.56,0,0,1-.62.55h-8.86c-0.14,3.16-.21,6.52-0.21,9.68v6.87Z"/><path class="cls-1" d="M2246.7,171.47c0-2.33-.41-3.57-3.85-4.12-0.48-.07-0.62-0.21-0.62-0.48v-0.62a0.56,0.56,0,0,1,.48-0.48,56.16,56.16,0,0,0,7.42-3.36,2.83,2.83,0,0,1,1.3-.41c0.34,0,.41.34,0.34,0.82-0.14,1.17-.14,5.49-0.14,11.19v7.48c0,2.68,0,5.15.07,5.91,0.14,1.3.34,1.79,1.1,1.79H2256c0.55,0,.69.21,0.69,0.62V191c0,0.48-.14.69-0.62,0.69s-3.71-.21-6.59-0.21c-4,0-6.66.21-7.42,0.21a0.48,0.48,0,0,1-.55-0.55v-1.37c0-.41.21-0.55,0.69-0.55h3.36c0.76,0,1-.27,1.1-1.37,0.07-2.06.07-4.19,0.07-6.25V171.47Zm-3.23-21.08a4.05,4.05,0,0,1,4.33-3.85,3.62,3.62,0,0,1,3.71,3.64,3.93,3.93,0,0,1-4.12,4.05A4.18,4.18,0,0,1,2243.47,150.39Z"/><path class="cls-1" d="M2262.49,190.28a1.25,1.25,0,0,1-.41-1l-1.17-6.52a0.44,0.44,0,0,1,.41-0.55l0.89-.21a0.51,0.51,0,0,1,.62.41l1.72,3.36c1.37,2.54,2.33,4.26,6,4.26,2.4,0,5.42-1.44,5.42-4.67s-1.51-4.87-6.66-6.32c-4.05-1.17-8.1-3.3-8.1-8.72,0-4.74,4.46-8.38,9.61-8.38a12.79,12.79,0,0,1,6.32,1.44c1,0.48,1.17.82,1.24,1.24l1,4.81a0.64,0.64,0,0,1-.48.62l-0.82.27a0.49,0.49,0,0,1-.62-0.34l-2.33-3.16a5.25,5.25,0,0,0-4.81-2.68c-2.61,0-5.29,1.58-5.29,4.53,0,4,3.23,4.74,6.59,5.7,5,1.44,8.17,3.5,8.24,8.79-0.07,5.56-4.6,9.06-10.44,9.06A12.92,12.92,0,0,1,2262.49,190.28Z"/><path class="cls-1" d="M2179.52,190c0-2.33-.41-3.57-3.85-4.12-0.48-.07-0.62-0.21-0.62-0.48v-0.62a0.56,0.56,0,0,1,.48-0.48,56.16,56.16,0,0,0,7.42-3.36,2.83,2.83,0,0,1,1.3-.41c0.34,0,.41.34,0.34,0.82-0.14,1.17-.14,5.49-0.14,11.19V200c0,2.68,0,5.15.07,5.91,0.14,1.3.34,1.79,1.1,1.79h3.16c0.55,0,.69.21,0.69,0.62v1.17c0,0.48-.14.69-0.62,0.69s-3.71-.21-6.59-0.21c-4,0-6.66.21-7.42,0.21a0.48,0.48,0,0,1-.55-0.55v-1.37c0-.41.21-0.55,0.69-0.55h3.36c0.76,0,1-.27,1.1-1.37,0.07-2.06.07-4.19,0.07-6.25V190Zm-3.23-21.08a4.05,4.05,0,0,1,4.33-3.85,3.62,3.62,0,0,1,3.71,3.64,3.93,3.93,0,0,1-4.12,4.05A4.18,4.18,0,0,1,2176.29,168.89Z"/><path class="cls-1" d="M2202.45,201.36c0,5.15,2.33,6,3.57,6a9.88,9.88,0,0,0,4.53-.89,0.56,0.56,0,0,1,.82.14l0.34,0.62a0.55,0.55,0,0,1-.14.76,11.55,11.55,0,0,1-7.62,2.75c-3.36,0-6.66-3.23-6.66-5.84,0-2.81.21-8.86,0.21-9.82v-1.51c0-1.24.07-5.91,0.14-8.79h-4.19a0.86,0.86,0,0,1-1-.82c0-.55.41-0.76,1.24-1.24,1.65-1,6.94-6.25,7.83-8.58a0.92,0.92,0,0,1,1-.69c0.55,0,.69.48,0.69,1l-0.34,6.73h9.54a0.45,0.45,0,0,1,.48.62l-0.69,2.4a0.56,0.56,0,0,1-.62.55h-8.86c-0.14,3.16-.21,6.52-0.21,9.68v6.87Z"/><path class="cls-1" d="M2237.2,190c0-2.33-.41-3.57-3.85-4.12-0.48-.07-0.62-0.21-0.62-0.48v-0.62a0.56,0.56,0,0,1,.48-0.48,56.16,56.16,0,0,0,7.42-3.36,2.83,2.83,0,0,1,1.3-.41c0.34,0,.41.34,0.34,0.82-0.14,1.17-.14,5.49-0.14,11.19V200c0,2.68,0,5.15.07,5.91,0.14,1.3.34,1.79,1.1,1.79h3.16c0.55,0,.69.21,0.69,0.62v1.17c0,0.48-.14.69-0.62,0.69s-3.71-.21-6.59-0.21c-4,0-6.66.21-7.42,0.21a0.48,0.48,0,0,1-.55-0.55v-1.37c0-.41.21-0.55,0.69-0.55H2236c0.76,0,1-.27,1.1-1.37,0.07-2.06.07-4.19,0.07-6.25V190ZM2234,168.89a4.05,4.05,0,0,1,4.33-3.85,3.62,3.62,0,0,1,3.71,3.64,3.93,3.93,0,0,1-4.12,4.05A4.18,4.18,0,0,1,2234,168.89Z"/><path class="cls-1" d="M2253,208.78a1.25,1.25,0,0,1-.41-1l-1.17-6.52a0.44,0.44,0,0,1,.41-0.55l0.89-.21a0.51,0.51,0,0,1,.62.41l1.72,3.36c1.37,2.54,2.33,4.26,6,4.26,2.4,0,5.42-1.44,5.42-4.67s-1.51-4.87-6.66-6.32c-4.05-1.17-8.1-3.3-8.1-8.72,0-4.74,4.46-8.38,9.61-8.38a12.79,12.79,0,0,1,6.32,1.44c1,0.48,1.17.82,1.24,1.24l1,4.81a0.64,0.64,0,0,1-.48.62l-0.82.27a0.49,0.49,0,0,1-.62-0.34l-2.33-3.16a5.25,5.25,0,0,0-4.81-2.68c-2.61,0-5.29,1.58-5.29,4.53,0,4,3.23,4.74,6.59,5.7,5,1.44,8.17,3.5,8.24,8.79-0.07,5.56-4.6,9.06-10.44,9.06A12.92,12.92,0,0,1,2253,208.78Z"/><path class="cls-1" d="M2158,193c0-2.33-.41-3.57-3.85-4.12-0.48-.07-0.62-0.21-0.62-0.48v-0.62a0.56,0.56,0,0,1,.48-0.48,56.18,56.18,0,0,0,7.42-3.36,2.83,2.83,0,0,1,1.3-.41c0.34,0,.41.34,0.34,0.82-0.14,1.17-.14,5.49-0.14,11.19V203c0,2.68,0,5.15.07,5.91,0.14,1.3.34,1.79,1.1,1.79h3.16c0.55,0,.69.21,0.69,0.62v1.17c0,0.48-.14.69-0.62,0.69s-3.71-.21-6.59-0.21c-4,0-6.66.21-7.42,0.21a0.48,0.48,0,0,1-.55-0.55v-1.37c0-.41.21-0.55,0.69-0.55h3.36c0.76,0,1-.27,1.1-1.37,0.07-2.06.07-4.19,0.07-6.25V193Zm-3.23-21.08a4.05,4.05,0,0,1,4.33-3.85,3.62,3.62,0,0,1,3.71,3.64,3.93,3.93,0,0,1-4.12,4.05A4.18,4.18,0,0,1,2154.82,171.89Z"/><path class="cls-1" d="M2181,204.36c0,5.15,2.33,6,3.57,6a9.88,9.88,0,0,0,4.53-.89,0.56,0.56,0,0,1,.82.14l0.34,0.62a0.55,0.55,0,0,1-.14.76,11.55,11.55,0,0,1-7.62,2.75c-3.36,0-6.66-3.23-6.66-5.84,0-2.81.21-8.86,0.21-9.82v-1.51c0-1.24.07-5.91,0.14-8.79H2172a0.86,0.86,0,0,1-1-.82c0-.55.41-0.76,1.24-1.24,1.65-1,6.94-6.25,7.83-8.58a0.92,0.92,0,0,1,1-.69c0.55,0,.69.48,0.69,1l-0.34,6.73h9.54a0.45,0.45,0,0,1,.48.62l-0.69,2.4a0.56,0.56,0,0,1-.62.55h-8.86c-0.14,3.16-.21,6.52-0.21,9.68v6.87Z"/><path class="cls-1" d="M2215.73,193c0-2.33-.41-3.57-3.85-4.12-0.48-.07-0.62-0.21-0.62-0.48v-0.62a0.56,0.56,0,0,1,.48-0.48,56.18,56.18,0,0,0,7.42-3.36,2.83,2.83,0,0,1,1.3-.41c0.34,0,.41.34,0.34,0.82-0.14,1.17-.14,5.49-0.14,11.19V203c0,2.68,0,5.15.07,5.91,0.14,1.3.34,1.79,1.1,1.79H2225c0.55,0,.69.21,0.69,0.62v1.17c0,0.48-.14.69-0.62,0.69s-3.71-.21-6.59-0.21c-4,0-6.66.21-7.42,0.21a0.48,0.48,0,0,1-.55-0.55v-1.37c0-.41.21-0.55,0.69-0.55h3.36c0.76,0,1-.27,1.1-1.37,0.07-2.06.07-4.19,0.07-6.25V193Zm-3.23-21.08a4.05,4.05,0,0,1,4.33-3.85,3.62,3.62,0,0,1,3.71,3.64,3.93,3.93,0,0,1-4.12,4.05A4.18,4.18,0,0,1,2212.5,171.89Z"/><path class="cls-1" d="M2231.52,211.78a1.25,1.25,0,0,1-.41-1l-1.17-6.52a0.44,0.44,0,0,1,.41-0.55l0.89-.21a0.51,0.51,0,0,1,.62.41l1.72,3.36c1.37,2.54,2.33,4.26,6,4.26,2.4,0,5.42-1.44,5.42-4.67s-1.51-4.87-6.66-6.32c-4.05-1.17-8.1-3.3-8.1-8.72,0-4.74,4.46-8.38,9.61-8.38a12.79,12.79,0,0,1,6.32,1.44c1,0.48,1.17.82,1.24,1.24l1,4.81a0.64,0.64,0,0,1-.48.62l-0.82.27a0.49,0.49,0,0,1-.62-0.34l-2.33-3.16a5.25,5.25,0,0,0-4.81-2.68c-2.61,0-5.29,1.58-5.29,4.53,0,4,3.23,4.74,6.59,5.7,5,1.44,8.17,3.5,8.24,8.79-0.07,5.56-4.6,9.06-10.44,9.06A12.92,12.92,0,0,1,2231.52,211.78Z"/><path class="cls-1" d="M2148.55,211.47c0-2.33-.41-3.57-3.85-4.12-0.48-.07-0.62-0.21-0.62-0.48v-0.62a0.56,0.56,0,0,1,.48-0.48,56.16,56.16,0,0,0,7.42-3.36,2.83,2.83,0,0,1,1.3-.41c0.34,0,.41.34,0.34,0.82-0.14,1.17-.14,5.49-0.14,11.19v7.48c0,2.68,0,5.15.07,5.91,0.14,1.3.34,1.79,1.1,1.79h3.16c0.55,0,.69.21,0.69,0.62V231c0,0.48-.14.69-0.62,0.69s-3.71-.21-6.59-0.21c-4,0-6.66.21-7.42,0.21a0.48,0.48,0,0,1-.55-0.55v-1.37c0-.41.21-0.55,0.69-0.55h3.36c0.76,0,1-.27,1.1-1.37,0.07-2.06.07-4.19,0.07-6.25V211.47Zm-3.23-21.08a4.05,4.05,0,0,1,4.33-3.85,3.62,3.62,0,0,1,3.71,3.64,3.93,3.93,0,0,1-4.12,4.05A4.18,4.18,0,0,1,2145.32,190.39Z"/><path class="cls-1" d="M2171.48,222.87c0,5.15,2.33,6,3.57,6a9.88,9.88,0,0,0,4.53-.89,0.56,0.56,0,0,1,.82.14l0.34,0.62a0.55,0.55,0,0,1-.14.76,11.55,11.55,0,0,1-7.62,2.75c-3.36,0-6.66-3.23-6.66-5.84,0-2.81.21-8.86,0.21-9.82v-1.51c0-1.24.07-5.91,0.14-8.79h-4.19a0.86,0.86,0,0,1-1-.82c0-.55.41-0.76,1.24-1.24,1.65-1,6.94-6.25,7.83-8.58a0.92,0.92,0,0,1,1-.69c0.55,0,.69.48,0.69,1l-0.34,6.73h9.54a0.45,0.45,0,0,1,.48.62l-0.69,2.4a0.56,0.56,0,0,1-.62.55h-8.86c-0.14,3.16-.21,6.52-0.21,9.68v6.87Z"/><path class="cls-1" d="M2206.23,211.47c0-2.33-.41-3.57-3.85-4.12-0.48-.07-0.62-0.21-0.62-0.48v-0.62a0.56,0.56,0,0,1,.48-0.48,56.16,56.16,0,0,0,7.42-3.36,2.83,2.83,0,0,1,1.3-.41c0.34,0,.41.34,0.34,0.82-0.14,1.17-.14,5.49-0.14,11.19v7.48c0,2.68,0,5.15.07,5.91,0.14,1.3.34,1.79,1.1,1.79h3.16c0.55,0,.69.21,0.69,0.62V231c0,0.48-.14.69-0.62,0.69s-3.71-.21-6.59-0.21c-4,0-6.66.21-7.42,0.21a0.48,0.48,0,0,1-.55-0.55v-1.37c0-.41.21-0.55,0.69-0.55h3.36c0.76,0,1-.27,1.1-1.37,0.07-2.06.07-4.19,0.07-6.25V211.47ZM2203,190.39a4.05,4.05,0,0,1,4.33-3.85,3.62,3.62,0,0,1,3.71,3.64,3.93,3.93,0,0,1-4.12,4.05A4.18,4.18,0,0,1,2203,190.39Z"/><path class="cls-1" d="M2222,230.28a1.25,1.25,0,0,1-.41-1l-1.17-6.52a0.44,0.44,0,0,1,.41-0.55l0.89-.21a0.51,0.51,0,0,1,.62.41l1.72,3.36c1.37,2.54,2.33,4.26,6,4.26,2.4,0,5.42-1.44,5.42-4.67s-1.51-4.87-6.66-6.32c-4.05-1.17-8.1-3.3-8.1-8.72,0-4.74,4.46-8.38,9.61-8.38a12.79,12.79,0,0,1,6.32,1.44c1,0.48,1.17.82,1.24,1.24l1,4.81a0.64,0.64,0,0,1-.48.62l-0.82.27A0.49,0.49,0,0,1,2237,210l-2.33-3.16a5.25,5.25,0,0,0-4.81-2.68c-2.61,0-5.29,1.58-5.29,4.53,0,4,3.23,4.74,6.59,5.7,5,1.44,8.17,3.5,8.24,8.79-0.07,5.56-4.6,9.06-10.44,9.06A12.92,12.92,0,0,1,2222,230.28Z"/><path class="cls-1" d="M2175.53,211.47c0-2.33-.41-3.57-3.85-4.12-0.48-.07-0.62-0.21-0.62-0.48v-0.62a0.56,0.56,0,0,1,.48-0.48,56.16,56.16,0,0,0,7.42-3.36,2.83,2.83,0,0,1,1.3-.41c0.34,0,.41.34,0.34,0.82-0.14,1.17-.14,5.49-0.14,11.19v7.48c0,2.68,0,5.15.07,5.91,0.14,1.3.34,1.79,1.1,1.79h3.16c0.55,0,.69.21,0.69,0.62V231c0,0.48-.14.69-0.62,0.69s-3.71-.21-6.59-0.21c-4,0-6.66.21-7.42,0.21a0.48,0.48,0,0,1-.55-0.55v-1.37c0-.41.21-0.55,0.69-0.55h3.36c0.76,0,1-.27,1.1-1.37,0.07-2.06.07-4.19,0.07-6.25V211.47Zm-3.23-21.08a4.05,4.05,0,0,1,4.33-3.85,3.62,3.62,0,0,1,3.71,3.64,3.93,3.93,0,0,1-4.12,4.05A4.18,4.18,0,0,1,2172.3,190.39Z"/><path class="cls-1" d="M2198.46,222.87c0,5.15,2.33,6,3.57,6a9.88,9.88,0,0,0,4.53-.89,0.56,0.56,0,0,1,.82.14l0.34,0.62a0.55,0.55,0,0,1-.14.76,11.55,11.55,0,0,1-7.62,2.75c-3.36,0-6.66-3.23-6.66-5.84,0-2.81.21-8.86,0.21-9.82v-1.51c0-1.24.07-5.91,0.14-8.79h-4.19a0.86,0.86,0,0,1-1-.82c0-.55.41-0.76,1.24-1.24,1.65-1,6.94-6.25,7.83-8.58a0.92,0.92,0,0,1,1-.69c0.55,0,.69.48,0.69,1l-0.34,6.73h9.54a0.45,0.45,0,0,1,.48.62l-0.69,2.4a0.56,0.56,0,0,1-.62.55h-8.86c-0.14,3.16-.21,6.52-0.21,9.68v6.87Z"/><path class="cls-1" d="M2233.21,211.47c0-2.33-.41-3.57-3.85-4.12-0.48-.07-0.62-0.21-0.62-0.48v-0.62a0.56,0.56,0,0,1,.48-0.48,56.16,56.16,0,0,0,7.42-3.36,2.83,2.83,0,0,1,1.3-.41c0.34,0,.41.34,0.34,0.82-0.14,1.17-.14,5.49-0.14,11.19v7.48c0,2.68,0,5.15.07,5.91,0.14,1.3.34,1.79,1.1,1.79h3.16c0.55,0,.69.21,0.69,0.62V231c0,0.48-.14.69-0.62,0.69s-3.71-.21-6.59-0.21c-4,0-6.66.21-7.42,0.21a0.48,0.48,0,0,1-.55-0.55v-1.37c0-.41.21-0.55,0.69-0.55H2232c0.76,0,1-.27,1.1-1.37,0.07-2.06.07-4.19,0.07-6.25V211.47ZM2230,190.39a4.05,4.05,0,0,1,4.33-3.85,3.62,3.62,0,0,1,3.71,3.64,3.93,3.93,0,0,1-4.12,4.05A4.18,4.18,0,0,1,2230,190.39Z"/><path class="cls-1" d="M2249,230.28a1.25,1.25,0,0,1-.41-1l-1.17-6.52a0.44,0.44,0,0,1,.41-0.55l0.89-.21a0.51,0.51,0,0,1,.62.41l1.72,3.36c1.37,2.54,2.33,4.26,6,4.26,2.4,0,5.42-1.44,5.42-4.67s-1.51-4.87-6.66-6.32c-4.05-1.17-8.1-3.3-8.1-8.72,0-4.74,4.46-8.38,9.61-8.38a12.79,12.79,0,0,1,6.32,1.44c1,0.48,1.17.82,1.24,1.24l1,4.81a0.64,0.64,0,0,1-.48.62l-0.82.27A0.49,0.49,0,0,1,2264,210l-2.33-3.16a5.25,5.25,0,0,0-4.81-2.68c-2.61,0-5.29,1.58-5.29,4.53,0,4,3.23,4.74,6.59,5.7,5,1.44,8.17,3.5,8.24,8.79-0.07,5.56-4.6,9.06-10.44,9.06A12.92,12.92,0,0,1,2249,230.28Z"/><path class="cls-1" d="M2166,230c0-2.33-.41-3.57-3.85-4.12-0.48-.07-0.62-0.21-0.62-0.48v-0.62a0.56,0.56,0,0,1,.48-0.48,56.16,56.16,0,0,0,7.42-3.36,2.83,2.83,0,0,1,1.3-.41c0.34,0,.41.34,0.34,0.82-0.14,1.17-.14,5.49-0.14,11.19V240c0,2.68,0,5.15.07,5.91,0.14,1.3.34,1.79,1.1,1.79h3.16c0.55,0,.69.21,0.69,0.62v1.17c0,0.48-.14.69-0.62,0.69s-3.71-.21-6.59-0.21c-4,0-6.66.21-7.42,0.21a0.48,0.48,0,0,1-.55-0.55v-1.37c0-.41.21-0.55,0.69-0.55h3.36c0.76,0,1-.27,1.1-1.37,0.07-2.06.07-4.19,0.07-6.25V230Zm-3.23-21.08a4.05,4.05,0,0,1,4.33-3.85,3.62,3.62,0,0,1,3.71,3.64,3.93,3.93,0,0,1-4.12,4.05A4.18,4.18,0,0,1,2162.8,208.89Z"/><path class="cls-1" d="M2189,241.37c0,5.15,2.33,6,3.57,6a9.88,9.88,0,0,0,4.53-.89,0.56,0.56,0,0,1,.82.14l0.34,0.62a0.55,0.55,0,0,1-.14.75,11.55,11.55,0,0,1-7.62,2.75c-3.36,0-6.66-3.23-6.66-5.84,0-2.81.21-8.86,0.21-9.82v-1.51c0-1.24.07-5.9,0.14-8.79H2180a0.86,0.86,0,0,1-1-.82c0-.55.41-0.76,1.24-1.24,1.65-1,6.94-6.25,7.83-8.58a0.92,0.92,0,0,1,1-.69c0.55,0,.69.48,0.69,1l-0.34,6.73h9.54a0.45,0.45,0,0,1,.48.62l-0.69,2.4a0.56,0.56,0,0,1-.62.55h-8.86c-0.14,3.16-.21,6.52-0.21,9.68v6.87Z"/><path class="cls-1" d="M2223.71,230c0-2.33-.41-3.57-3.85-4.12-0.48-.07-0.62-0.21-0.62-0.48v-0.62a0.56,0.56,0,0,1,.48-0.48,56.16,56.16,0,0,0,7.42-3.36,2.83,2.83,0,0,1,1.3-.41c0.34,0,.41.34,0.34,0.82-0.14,1.17-.14,5.49-0.14,11.19V240c0,2.68,0,5.15.07,5.91,0.14,1.3.34,1.79,1.1,1.79H2233c0.55,0,.69.21,0.69,0.62v1.17c0,0.48-.14.69-0.62,0.69s-3.71-.21-6.59-0.21c-4,0-6.66.21-7.42,0.21a0.48,0.48,0,0,1-.55-0.55v-1.37c0-.41.21-0.55,0.69-0.55h3.36c0.76,0,1-.27,1.1-1.37,0.07-2.06.07-4.19,0.07-6.25V230Zm-3.23-21.08a4.05,4.05,0,0,1,4.33-3.85,3.62,3.62,0,0,1,3.71,3.64,3.93,3.93,0,0,1-4.12,4.05A4.18,4.18,0,0,1,2220.48,208.89Z"/><path class="cls-1" d="M2239.5,248.78a1.25,1.25,0,0,1-.41-1l-1.17-6.52a0.44,0.44,0,0,1,.41-0.55l0.89-.21a0.51,0.51,0,0,1,.62.41l1.72,3.36c1.37,2.54,2.33,4.26,6,4.26,2.4,0,5.42-1.44,5.42-4.67s-1.51-4.87-6.66-6.32c-4.05-1.17-8.1-3.3-8.1-8.72,0-4.74,4.46-8.38,9.61-8.38a12.79,12.79,0,0,1,6.32,1.44c1,0.48,1.17.82,1.24,1.24l1,4.81a0.64,0.64,0,0,1-.48.62l-0.82.27a0.49,0.49,0,0,1-.62-0.34l-2.33-3.16a5.25,5.25,0,0,0-4.81-2.68c-2.61,0-5.29,1.58-5.29,4.53,0,4,3.23,4.74,6.59,5.7,5,1.44,8.17,3.5,8.24,8.79-0.07,5.56-4.6,9.06-10.44,9.06A12.92,12.92,0,0,1,2239.5,248.78Z"/></svg>