<svg id="Layer_1" data-name="Layer 1" xmlns="http://www.w3.org/2000/svg" viewBox="0 0 2560 1600"><defs><style>.cls-1{fill:#231f20;}</style></defs><title>virus</title><path class="cls-1" d="M226.39,1163.11a3,3,0,0,1,3.16-2.68,11.78,11.78,0,0,1,3.16.76,1.65,1.65,0,0,0,1.44-.41c1-1.24,4.53-9.06,5.49-11.74-0.34-1.72-7.62-23.21-8.17-24.65-0.82-1.72-1.44-2.88-3.23-2.88h-1.79c-0.48,0-.55-0.21-0.55-0.62v-1.37c0-.27.07-0.48,0.55-0.48s2.27,0.21,6.32.21c3.5,0,5.63-.21,6.39-0.21,0.55,0,.62.21,0.62,0.48v1.44c0,0.34-.07.55-0.41,0.55h-1.3c-0.76,0-1,.48-0.89,1.51,0.21,1.51,4.88,16.69,5.63,18.2h0.27c0.69-1.1,6.66-15.38,7.07-17.1s-0.14-2.61-1.17-2.61h-1.1c-0.41,0-.48-0.21-0.48-0.55v-1.37c0-.34.07-0.55,0.41-0.55,0.89,0,2.33.21,5.63,0.21,1.85,0,3.43-.21,4.19-0.21,0.41,0,.41.27,0.41,0.55v1.3c0,0.41,0,.62-0.34.62h-1.1a3.08,3.08,0,0,0-2.4,1.24c-1.51,1.85-6,12.36-10.78,23.14-3.36,7.62-6,14-7.28,16.27-1,1.79-2.2,4.46-5.84,4.46C227.69,1166.61,226.39,1165.17,226.39,1163.11Z"/><path class="cls-1" d="M261.75,1144c-3.16-3.78-3.78-6.32-3.78-11.19a14.6,14.6,0,0,1,5.9-11.05,14.86,14.86,0,0,1,9.2-3.3,14.53,14.53,0,0,1,9.61,4,15.25,15.25,0,0,1,4.67,11.19c0,7.48-6.73,15.11-15.17,15.11A13.85,13.85,0,0,1,261.75,1144ZM281.6,1133c0-7.62-5.56-12.43-9.06-12.43a6.62,6.62,0,0,0-5.29,2.2c-2.68,2.75-3.64,5.56-3.64,10.78,0,3.85.41,6.45,2.61,9.61a7.6,7.6,0,0,0,6.8,3.57C278.23,1146.7,281.6,1140.31,281.6,1133Z"/><path class="cls-1" d="M318.4,1134c0,3.3,0,6.66.14,8.1,0.21,2.13,1,2.4,1.79,2.4a10.11,10.11,0,0,0,2.27-.21c0.55-.14.75,0,0.82,0.27l0.21,0.89a0.44,0.44,0,0,1-.34.62l-7.21,2.4a4.06,4.06,0,0,1-1.37.27c-0.27,0-.55-0.14-0.62-0.82l-0.55-4h-0.14a12.54,12.54,0,0,1-9.34,4.81,7.18,7.18,0,0,1-6.45-3.16c-2.82-3.64-2.68-5.91-2.68-13.46v-8c-0.07-1.92-1-2.4-2.61-2.61-1.17-.07-1.51-0.14-1.51-0.48v-1.24c0-.41.14-0.55,0.76-0.55h6.11a3.6,3.6,0,0,0,1-.14c0.27,0,.55-0.07.75-0.07a0.71,0.71,0,0,1,.76.82c-0.07.62-.27,3.85-0.27,7.9v4.94c0,2.75-.69,7.14,1.51,10.3,1.72,2.47,3.64,2.61,5.49,2.61s4.6-1.79,5.91-3.43a3.74,3.74,0,0,0,.69-1.85V1123.9c-0.14-1.92-1.24-2.27-3-2.4-1.17,0-1.51-.14-1.51-0.48v-1.17c0-.55.14-0.62,0.82-0.62h6.39a5.46,5.46,0,0,0,1.17-.14c0.34,0,.62-0.07.82-0.07a0.59,0.59,0,0,1,.62.69,60.89,60.89,0,0,0-.41,9.13V1134Z"/><path class="cls-1" d="M349.51,1131.32a19.35,19.35,0,0,0,3.5,10.44,8.84,8.84,0,0,0,7.48,3.5,9.41,9.41,0,0,0,7.55-3,0.36,0.36,0,0,1,.55,0l0.69,0.69a0.54,0.54,0,0,1,0,.89,15.89,15.89,0,0,1-11.06,4.88c-3.64,0-7.48-.82-10.64-4.81a14.22,14.22,0,0,1-3.09-9.34c0-8,5.63-16.14,14.69-16.14,7.14,0,9.34,4.12,9.34,5.56a2.34,2.34,0,0,1-2.54,2.4c-1.58,0-2.75-.89-3.78-2.75-1.51-2.81-3-3-4.6-3C353.7,1120.67,349.51,1124.24,349.51,1131.32Z"/><path class="cls-1" d="M396,1144.91a3.16,3.16,0,0,0,2.4-1c0.28-.34.41-0.48,0.69-0.27l0.69,0.55a0.91,0.91,0,0,1-.07,1.24,5.67,5.67,0,0,1-5.36,3.36c-2.47,0-4.26-1.79-4.87-4.6h-0.14a14.8,14.8,0,0,1-6.8,4.19,12.9,12.9,0,0,1-4.05.41c-1.65,0-4.12-1.37-4.12-5.7,0-3.16,1.44-5.91,6.87-8.31,3.09-1.37,6.66-3,7.76-4v-4.39c-0.14-1.17-.21-3-1-3.85a5.22,5.22,0,0,0-4.12-1.51,7.69,7.69,0,0,0-4.46,1.44c-1,.89-0.34,1.92-0.34,3.16,0,2.4-.82,3.91-3.64,3.91-1.1,0-1.65-.62-1.65-2.2,0-2.2,1.92-4.81,4.74-6.45a15.14,15.14,0,0,1,8.38-2.4c3.23,0,4.53,1,5.49,1.85,1.44,1.44,1.51,3,1.51,4.88v14.56C393.94,1143.67,394.76,1144.91,396,1144.91Zm-7.07-12.08c-2.47,1.85-9.2,3.23-9.2,8.93,0,2.54,1.51,3.78,3.57,3.78s5.63-2.4,5.63-4.26v-8.45Z"/><path class="cls-1" d="M430.95,1144.22a1.29,1.29,0,0,0,1.51,1.44h2.2c0.62,0,.76.21,0.76,0.62v1.1c0,0.48-.14.76-0.55,0.76s-2.61-.21-6.52-0.21c-3.5,0-5.7.21-6.18,0.21s-0.55-.21-0.55-0.76v-1.1c0-.48.21-0.62,0.89-0.62h2c0.75,0,1.3-.34,1.37-1.58,0.07-1.79.14-4,.14-5.77v-9.06c0-2.75,0-4.74-2-6.18-1.65-1.24-3.3-1.24-5-1.24a8.05,8.05,0,0,0-5.56,2.68,6.73,6.73,0,0,0-1.58,4.67v14.21c0,1.85.21,2.27,1.65,2.27h1.72a0.57,0.57,0,0,1,.69.69v1.17c0,0.41-.14.62-0.48,0.62s-2.33-.21-6-0.21-5.7.21-6.11,0.21-0.48-.21-0.48-0.62v-1.24c0-.41.14-0.62,0.69-0.62h2a1.13,1.13,0,0,0,1.37-1.37v-16.07a4.23,4.23,0,0,0-2.82-4.05l-0.55-.27a0.66,0.66,0,0,1-.55-0.62v-0.34a0.8,0.8,0,0,1,.62-0.69l5.91-3.3a3.63,3.63,0,0,1,1.24-.48c0.34,0,.48.27,0.55,0.82l0.48,4.19h0.14c2-2.47,6-5,9.41-5a10.6,10.6,0,0,1,5.84,1.51,10,10,0,0,1,3.78,6.52v17.72Z"/><path class="cls-1" d="M443.72,1104.19c0,6.45-6,10.85-7.21,11.6a2.29,2.29,0,0,1-1.24.55,0.55,0.55,0,0,1-.69-0.55,0.89,0.89,0,0,1,.55-0.89c1.44-1.37,4.33-4.39,4.33-7.76a2.23,2.23,0,0,0-1-1.92c-0.62-.27-3.5-1-3.5-4,0-1.58,1.24-3,3.43-3A5.81,5.81,0,0,1,443.72,1104.19Z"/><path class="cls-1" d="M454.16,1139.35c0,5.15,2.33,6,3.57,6a9.88,9.88,0,0,0,4.53-.89,0.56,0.56,0,0,1,.82.14l0.34,0.62a0.55,0.55,0,0,1-.14.75,11.55,11.55,0,0,1-7.62,2.75c-3.36,0-6.66-3.23-6.66-5.84,0-2.81.21-8.86,0.21-9.82v-1.51c0-1.24.07-5.9,0.14-8.79h-4.19a0.86,0.86,0,0,1-1-.82c0-.55.41-0.76,1.24-1.24,1.65-1,6.93-6.25,7.83-8.58a0.92,0.92,0,0,1,1-.69c0.55,0,.69.48,0.69,1l-0.34,6.73H464a0.45,0.45,0,0,1,.48.62l-0.69,2.4a0.56,0.56,0,0,1-.62.55h-8.86c-0.14,3.16-.21,6.52-0.21,9.68v6.87Z"/><path class="cls-1" d="M486.84,1110.92c0-4.6-.75-5.56-3.23-6.39l-0.69-.21c-0.75-.21-0.89-0.34-0.89-0.55v-0.55a0.7,0.7,0,0,1,.55-0.55,72.51,72.51,0,0,0,7.28-3.78,2.87,2.87,0,0,1,1.44-.62c0.48,0,.62.34,0.55,1.17-0.07.55-.07,8.38-0.07,14.49v8c2.2-2.13,6.11-3.43,9.48-3.43,6,0,12.57,4.88,12.57,14.69,0,8-6.45,15.59-14.28,15.59a15.84,15.84,0,0,1-8.1-1.79l-2.75,1.51a1,1,0,0,1-.89.21l-0.82-.21c-0.27-.07-0.34-0.21-0.27-0.55,0.14-1,.14-6.66.14-11.67v-25.34Zm4.94,22.25c0,5.7.21,7.76,1,10,0.69,1.65,3.57,3.43,6.52,3.43,4.12,0,9.2-2.82,9.2-11.81,0-6.66-3.5-13-10.23-13a9.14,9.14,0,0,0-6.52,2.47v8.93Z"/><path class="cls-1" d="M523.17,1129.67c0-3.5-.55-4.19-2.47-5.22l-1.3-.69c-0.41-.14-0.55-0.21-0.55-0.48v-0.41a0.69,0.69,0,0,1,.55-0.62l6.8-3.5a2.07,2.07,0,0,1,1-.27c0.41,0,.48.41,0.48,0.82l0.34,4.88h0.28c2.06-3.16,5.29-6,8.24-6,2.33,0,3.5,1.44,3.5,3a3.32,3.32,0,0,1-2.88,3.36,4.5,4.5,0,0,1-2-.55,4.42,4.42,0,0,0-2.27-.55,4.87,4.87,0,0,0-4.05,2.88,7.4,7.4,0,0,0-.69,2.2v14.28c0,2.13.48,2.81,1.92,2.81h3.23c0.41,0,.48.21,0.48,0.62v1.24c0,0.41-.07.62-0.34,0.62s-3.57-.21-7.28-0.21c-4.26,0-7.14.21-7.55,0.21s-0.41-.14-0.41-0.69v-1.17c0-.48.14-0.62,0.75-0.62h2.68c1,0,1.51-.41,1.51-1.3,0.07-2.27.07-4.67,0.07-8.24v-6.45Z"/><path class="cls-1" d="M547.13,1129.67a17.68,17.68,0,0,0-.21,3.3c0,6.73,4.26,11.81,9.75,11.81a9.3,9.3,0,0,0,8.31-4.67,0.56,0.56,0,0,1,.62-0.34l0.89,0.48c0.21,0.07.34,0.27,0,1-1.24,2.75-4.81,7.48-10.92,7.48-3.91,0-8.24-1.17-10.78-4.88-2.4-3.5-3-6-3-10.85a15.46,15.46,0,0,1,4.33-10.92c3-3,6.39-3.64,9.82-3.64,7.9,0,10.09,7.42,10.09,10.09,0,1-.82,1.1-1.92,1.1h-17Zm10.92-2.06c1.3,0,1.85-.34,1.85-1,0-1.58-.82-6.11-5.29-6.11-3,0-5.91,2-7.21,7.07h10.64Z"/><path class="cls-1" d="M593.62,1144.91a3.16,3.16,0,0,0,2.4-1c0.27-.34.41-0.48,0.69-0.27l0.69,0.55a0.91,0.91,0,0,1-.07,1.24,5.67,5.67,0,0,1-5.36,3.36c-2.47,0-4.26-1.79-4.87-4.6H587a14.81,14.81,0,0,1-6.8,4.19,12.9,12.9,0,0,1-4.05.41c-1.65,0-4.12-1.37-4.12-5.7,0-3.16,1.44-5.91,6.87-8.31,3.09-1.37,6.66-3,7.76-4v-4.39c-0.14-1.17-.21-3-1-3.85a5.22,5.22,0,0,0-4.12-1.51,7.69,7.69,0,0,0-4.46,1.44c-1,.89-0.34,1.92-0.34,3.16,0,2.4-.82,3.91-3.64,3.91-1.1,0-1.65-.62-1.65-2.2,0-2.2,1.92-4.81,4.74-6.45a15.14,15.14,0,0,1,8.38-2.4c3.23,0,4.53,1,5.49,1.85,1.44,1.44,1.51,3,1.51,4.88v14.56C591.56,1143.67,592.39,1144.91,593.62,1144.91Zm-7.07-12.08c-2.47,1.85-9.2,3.23-9.2,8.93,0,2.54,1.51,3.78,3.57,3.78s5.63-2.4,5.63-4.26v-8.45Z"/><path class="cls-1" d="M609.41,1139.35c0,5.15,2.33,6,3.57,6a9.88,9.88,0,0,0,4.53-.89,0.56,0.56,0,0,1,.82.14l0.34,0.62a0.55,0.55,0,0,1-.14.75,11.55,11.55,0,0,1-7.62,2.75c-3.37,0-6.66-3.23-6.66-5.84,0-2.81.21-8.86,0.21-9.82v-1.51c0-1.24.07-5.9,0.14-8.79h-4.19a0.86,0.86,0,0,1-1-.82c0-.55.41-0.76,1.24-1.24,1.65-1,6.93-6.25,7.83-8.58a0.92,0.92,0,0,1,1-.69c0.55,0,.69.48,0.69,1l-0.34,6.73h9.54a0.45,0.45,0,0,1,.48.62l-0.69,2.4a0.56,0.56,0,0,1-.62.55h-8.86c-0.14,3.16-.21,6.52-0.21,9.68v6.87Z"/><path class="cls-1" d="M626.44,1110.51c0-4.19-.82-4.94-3.3-5.77l-1.17-.41c-0.41-.14-0.48-0.21-0.48-0.41v-0.62c0-.27.21-0.34,0.82-0.69l7.14-3.78a3.64,3.64,0,0,1,1.58-.55c0.41,0,.69.55,0.55,1.72s-0.21,15.11-.21,18.54v4.39h0.34a13.1,13.1,0,0,1,9.41-4.46,9,9,0,0,1,6.8,2.75c3.09,2.88,3,6.39,3,10.09v3.91c0,3.85.14,8.1,0.14,9.41,0,0.82,1.1,1,2.54,1h1.17c0.55,0,.76.14,0.76,0.62v1c0,0.55-.14.82-0.55,0.82s-2.68-.21-6.59-0.21c-3.36,0-5.84.21-6.45,0.21s-0.62-.21-0.62-0.76v-1.17c0-.34.07-0.55,0.48-0.55h1.58c1.17,0,2.54-.14,2.61-1.3,0.07-1,0-4.6,0-6.8V1132c0-3.85-.27-6.59-2.27-8.45a6.3,6.3,0,0,0-4.53-1.92,8.38,8.38,0,0,0-6.39,2.88,6,6,0,0,0-1.37,3.36v15c0,2.2.21,2.81,1.51,2.81H635c0.48,0,.76.14,0.76,0.55v1.17c0,0.48-.14.76-0.55,0.76s-3.36-.21-6.52-0.21c-3.43,0-6,.21-6.66.21-0.27,0-.48-0.21-0.48-0.69v-1.24c0-.48.27-0.55,1-0.55H624c1.1,0,2.13-.27,2.27-1.1,0.21-1.3.21-8.86,0.21-13.32v-20.74Z"/><path class="cls-1" d="M664.62,1129.67a17.59,17.59,0,0,0-.21,3.3c0,6.73,4.26,11.81,9.75,11.81a9.3,9.3,0,0,0,8.31-4.67,0.56,0.56,0,0,1,.62-0.34l0.89,0.48c0.21,0.07.34,0.27,0,1-1.24,2.75-4.81,7.48-10.92,7.48-3.91,0-8.24-1.17-10.78-4.88-2.4-3.5-3-6-3-10.85a15.46,15.46,0,0,1,4.33-10.92c3-3,6.39-3.64,9.82-3.64,7.9,0,10.09,7.42,10.09,10.09,0,1-.82,1.1-1.92,1.1h-17Zm10.92-2.06c1.3,0,1.85-.34,1.85-1,0-1.58-.82-6.11-5.29-6.11-3,0-5.91,2-7.21,7.07h10.64Z"/><path class="cls-1" d="M1907.49,241.37c0,5.15,2.33,6,3.57,6a9.88,9.88,0,0,0,4.53-.89,0.56,0.56,0,0,1,.82.14l0.34,0.62a0.55,0.55,0,0,1-.14.75,11.55,11.55,0,0,1-7.62,2.75c-3.37,0-6.66-3.23-6.66-5.84,0-2.81.21-8.86,0.21-9.82v-1.51c0-1.24.07-5.9,0.14-8.79h-4.19a0.86,0.86,0,0,1-1-.82c0-.55.41-0.76,1.24-1.24,1.65-1,6.93-6.25,7.83-8.58a0.92,0.92,0,0,1,1-.69c0.55,0,.69.48,0.69,1l-0.34,6.73h9.54a0.45,0.45,0,0,1,.48.62l-0.69,2.4a0.56,0.56,0,0,1-.62.55h-8.86c-0.14,3.16-.21,6.52-0.21,9.68v6.87Z"/><path class="cls-1" d="M1924.52,212.53c0-4.19-.82-4.94-3.3-5.77l-1.17-.41c-0.41-.14-0.48-0.21-0.48-0.41v-0.62c0-.27.21-0.34,0.82-0.69l7.14-3.78a3.64,3.64,0,0,1,1.58-.55c0.41,0,.69.55,0.55,1.72s-0.21,15.11-.21,18.54V225h0.34a13.1,13.1,0,0,1,9.41-4.46,9,9,0,0,1,6.8,2.75c3.09,2.88,3,6.39,3,10.09v3.91c0,3.85.14,8.1,0.14,9.41,0,0.82,1.1,1,2.54,1h1.17c0.55,0,.76.14,0.76,0.62v1c0,0.55-.14.82-0.55,0.82s-2.68-.21-6.59-0.21c-3.36,0-5.84.21-6.45,0.21s-0.62-.21-0.62-0.76v-1.17c0-.34.07-0.55,0.48-0.55h1.58c1.17,0,2.54-.14,2.61-1.3,0.07-1,0-4.6,0-6.8V234c0-3.85-.27-6.59-2.27-8.45a6.3,6.3,0,0,0-4.53-1.92,8.38,8.38,0,0,0-6.39,2.88,6,6,0,0,0-1.37,3.36v15c0,2.2.21,2.81,1.51,2.81H1933c0.48,0,.76.14,0.76,0.55v1.17c0,0.48-.14.76-0.55,0.76s-3.36-.21-6.52-0.21c-3.43,0-6,.21-6.66.21-0.27,0-.48-0.21-0.48-0.69v-1.24c0-.48.27-0.55,1-0.55H1922c1.1,0,2.13-.27,2.27-1.1,0.21-1.3.21-8.86,0.21-13.32V212.53Z"/><path class="cls-1" d="M1961.46,231.68c0-3.5-.55-4.19-2.47-5.22l-1.3-.69c-0.41-.14-0.55-0.21-0.55-0.48v-0.41a0.69,0.69,0,0,1,.55-0.62l6.8-3.5a2.06,2.06,0,0,1,1-.27c0.41,0,.48.41,0.48,0.82l0.34,4.88h0.27c2.06-3.16,5.29-6,8.24-6,2.33,0,3.5,1.44,3.5,3a3.32,3.32,0,0,1-2.88,3.36,4.5,4.5,0,0,1-2-.55,4.42,4.42,0,0,0-2.27-.55,4.88,4.88,0,0,0-4.05,2.88,7.43,7.43,0,0,0-.69,2.2v14.28c0,2.13.48,2.81,1.92,2.81h3.23c0.41,0,.48.21,0.48,0.62v1.24c0,0.41-.07.62-0.34,0.62s-3.57-.21-7.28-0.21c-4.26,0-7.14.21-7.55,0.21s-0.41-.14-0.41-0.69V248.3c0-.48.14-0.62,0.75-0.62h2.68c1,0,1.51-.41,1.51-1.3,0.07-2.27.07-4.67,0.07-8.24v-6.45Z"/><path class="cls-1" d="M1983.71,246c-3.16-3.78-3.78-6.32-3.78-11.19a14.6,14.6,0,0,1,5.91-11.05,14.86,14.86,0,0,1,9.2-3.3,14.53,14.53,0,0,1,9.61,4,15.25,15.25,0,0,1,4.67,11.19c0,7.48-6.73,15.11-15.17,15.11A13.84,13.84,0,0,1,1983.71,246ZM2003.55,235c0-7.62-5.56-12.43-9.06-12.43a6.62,6.62,0,0,0-5.29,2.2c-2.68,2.75-3.64,5.56-3.64,10.78,0,3.85.41,6.45,2.61,9.61a7.6,7.6,0,0,0,6.8,3.57C2000.19,248.71,2003.55,242.33,2003.55,235Z"/><path class="cls-1" d="M2040.36,236c0,3.3,0,6.66.14,8.1,0.21,2.13,1,2.4,1.79,2.4a10.11,10.11,0,0,0,2.27-.21c0.55-.14.75,0,0.82,0.27l0.21,0.89a0.44,0.44,0,0,1-.34.62l-7.21,2.4a4.07,4.07,0,0,1-1.37.27c-0.27,0-.55-0.14-0.62-0.82l-0.55-4h-0.14a12.54,12.54,0,0,1-9.34,4.81,7.18,7.18,0,0,1-6.45-3.16c-2.82-3.64-2.68-5.91-2.68-13.46v-8c-0.07-1.92-1-2.4-2.61-2.61-1.17-.07-1.51-0.14-1.51-0.48V221.8c0-.41.14-0.55,0.75-0.55h6.11a3.6,3.6,0,0,0,1-.14c0.27,0,.55-0.07.75-0.07a0.71,0.71,0,0,1,.76.82c-0.07.62-.28,3.85-0.28,7.9v4.94c0,2.75-.69,7.14,1.51,10.3,1.72,2.47,3.64,2.61,5.49,2.61s4.6-1.79,5.91-3.43a3.75,3.75,0,0,0,.69-1.85V225.92c-0.14-1.92-1.24-2.27-3-2.4-1.17,0-1.51-.14-1.51-0.48v-1.17c0-.55.14-0.62,0.82-0.62h6.39a5.47,5.47,0,0,0,1.17-.14c0.34,0,.62-0.07.82-0.07a0.59,0.59,0,0,1,.62.69,60.66,60.66,0,0,0-.41,9.13V236Z"/><path class="cls-1" d="M2050.93,266.43c-2.47-1.51-3.5-3.3-3.5-5.56,0-3.85,3.91-6.8,7.21-8.24v-0.27c-2.88-.62-4.6-2.75-4.6-4.81,0-3.3,3.78-5.63,6.18-6.52v-0.14a10.92,10.92,0,0,1-6.39-10.44c0-4.46,4-10,11.74-10a11,11,0,0,1,8.65,4c1.85-1.3,4.19-2.68,6.46-2.68s3.36,1.51,3.23,2.88a2.61,2.61,0,0,1-2.68,2.54,3.42,3.42,0,0,1-2.4-1,2.73,2.73,0,0,0-1.44-.62,5,5,0,0,0-2.2.41,13,13,0,0,1,1,5.22,11.32,11.32,0,0,1-2.54,7.42,12.28,12.28,0,0,1-11.47,3.09c-1.37.55-3.64,1.92-3.64,3.85,0,2.82,3.43,2.61,8,2.33,5.63-.27,9.06.34,11.81,2.47a8.08,8.08,0,0,1,3.37,6.59c0,3.23-1.17,5.91-4.6,8.45a20.66,20.66,0,0,1-11.74,3.23C2058.14,268.63,2054.23,268.28,2050.93,266.43Zm22.66-7.07c0-4.05-3.09-7.14-10-6.66l-6.59.48c-2.13.55-5.49,2.88-5.49,6.59a6.59,6.59,0,0,0,2.68,4.74c2.27,1.58,4.74,1.92,9.61,1.92C2066.38,266.43,2073.94,264.64,2073.59,259.36Zm-6.39-29.25c0-3-.62-4.81-1.85-6.18a5.19,5.19,0,0,0-3.3-1.51,6.3,6.3,0,0,0-4.87,1.92c-2.2,2.33-2.47,5.49-2.47,8.1a8.54,8.54,0,0,0,2.2,6,5.6,5.6,0,0,0,4.12,1.72C2065.7,240.13,2067.21,234.43,2067.21,230.1Z"/><path class="cls-1" d="M2086.5,212.53c0-4.19-.82-4.94-3.3-5.77l-1.17-.41c-0.41-.14-0.48-0.21-0.48-0.41v-0.62c0-.27.21-0.34,0.82-0.69l7.14-3.78a3.64,3.64,0,0,1,1.58-.55c0.41,0,.69.55,0.55,1.72s-0.21,15.11-.21,18.54V225h0.34a13.1,13.1,0,0,1,9.41-4.46,9,9,0,0,1,6.8,2.75c3.09,2.88,3,6.39,3,10.09v3.91c0,3.85.14,8.1,0.14,9.41,0,0.82,1.1,1,2.54,1h1.17c0.55,0,.75.14,0.75,0.62v1c0,0.55-.14.82-0.55,0.82s-2.68-.21-6.59-0.21c-3.36,0-5.84.21-6.45,0.21s-0.62-.21-0.62-0.76v-1.17c0-.34.07-0.55,0.48-0.55h1.58c1.17,0,2.54-.14,2.61-1.3,0.07-1,0-4.6,0-6.8V234c0-3.85-.27-6.59-2.27-8.45a6.3,6.3,0,0,0-4.53-1.92,8.38,8.38,0,0,0-6.39,2.88,6,6,0,0,0-1.37,3.36v15c0,2.2.21,2.81,1.51,2.81H2095c0.48,0,.75.14,0.75,0.55v1.17c0,0.48-.14.76-0.55,0.76s-3.36-.21-6.52-0.21c-3.43,0-6,.21-6.66.21-0.27,0-.48-0.21-0.48-0.69v-1.24c0-.48.27-0.55,1-0.55H2084c1.1,0,2.13-.27,2.27-1.1,0.21-1.3.21-8.86,0.21-13.32V212.53Z"/><path class="cls-1" d="M2159.36,246.93a3.16,3.16,0,0,0,2.4-1c0.27-.34.41-0.48,0.69-0.27l0.69,0.55a0.91,0.91,0,0,1-.07,1.24,5.67,5.67,0,0,1-5.36,3.36c-2.47,0-4.26-1.79-4.87-4.6h-0.14a14.81,14.81,0,0,1-6.8,4.19,12.9,12.9,0,0,1-4.05.41c-1.65,0-4.12-1.37-4.12-5.7,0-3.16,1.44-5.91,6.87-8.31,3.09-1.37,6.66-3,7.76-4v-4.39c-0.14-1.17-.21-3-1-3.85a5.22,5.22,0,0,0-4.12-1.51,7.69,7.69,0,0,0-4.46,1.44c-1,.89-0.34,1.92-0.34,3.16,0,2.4-.82,3.91-3.64,3.91-1.1,0-1.65-.62-1.65-2.2,0-2.2,1.92-4.81,4.74-6.45a15.15,15.15,0,0,1,8.38-2.4c3.23,0,4.53,1,5.49,1.85,1.44,1.44,1.51,3,1.51,4.88v14.56C2157.3,245.69,2158.12,246.93,2159.36,246.93Zm-7.07-12.08c-2.47,1.85-9.2,3.23-9.2,8.93,0,2.54,1.51,3.78,3.57,3.78s5.63-2.4,5.63-4.26v-8.45Z"/><path class="cls-1" d="M2196.85,243.63h0.21c1.1-2.68,5.91-14.49,6.59-17.17,0.48-1.85,0-3-1.24-3H2201c-0.21,0-.27-0.34-0.27-0.69v-1.24c0-.41.14-0.55,0.41-0.55,1,0,2.47.21,5.49,0.21,2.68,0,4.33-.21,4.94-0.21s0.62,0.07.62,0.62v1.17c0,0.48,0,.69-0.34.69h-1.3a2.73,2.73,0,0,0-2.13.76c-1,1-4.46,8.51-5.49,11.06-0.82,2.06-5.91,13.6-6.18,14.08-0.55,1-.89,1.58-1.65,1.58s-1.1-.62-1.44-1.44l-5.36-13.94c-0.21-.55-3-8.45-3.5-9.54-0.89-2-1.58-2.54-2.81-2.54h-1.37c-0.34,0-.41-0.27-0.41-0.69v-1.24c0-.48.14-0.55,0.76-0.55s1.92,0.21,5.77.21c3.64,0,5.42-.21,6.18-0.21,0.55,0,.69.14,0.69,0.55v1.24c0,0.41-.07.69-0.48,0.69h-1.37a1.17,1.17,0,0,0-1.24,1.3c0,1.24,1.79,7,2.2,8.17S2196.09,242.19,2196.85,243.63Z"/><path class="cls-1" d="M2217.73,230c0-2.33-.41-3.57-3.85-4.12-0.48-.07-0.62-0.21-0.62-0.48v-0.62a0.56,0.56,0,0,1,.48-0.48,56.17,56.17,0,0,0,7.42-3.36,2.83,2.83,0,0,1,1.3-.41c0.34,0,.41.34,0.34,0.82-0.14,1.17-.14,5.49-0.14,11.19V240c0,2.68,0,5.15.07,5.91,0.14,1.3.34,1.79,1.1,1.79H2227c0.55,0,.69.21,0.69,0.62v1.17a0.55,0.55,0,0,1-.62.69c-0.55,0-3.71-.21-6.59-0.21-4,0-6.66.21-7.42,0.21a0.48,0.48,0,0,1-.55-0.55v-1.37c0-.41.21-0.55,0.69-0.55h3.36c0.76,0,1-.27,1.1-1.37,0.07-2.06.07-4.19,0.07-6.25V230Zm-3.23-21.08a4.05,4.05,0,0,1,4.33-3.85,3.62,3.62,0,0,1,3.71,3.64,3.93,3.93,0,0,1-4.12,4.05A4.18,4.18,0,0,1,2214.5,208.89Z"/><path class="cls-1" d="M2235.72,231.68c0-3.5-.55-4.19-2.47-5.22l-1.3-.69c-0.41-.14-0.55-0.21-0.55-0.48v-0.41a0.69,0.69,0,0,1,.55-0.62l6.8-3.5a2.07,2.07,0,0,1,1-.27c0.41,0,.48.41,0.48,0.82l0.34,4.88h0.28c2.06-3.16,5.29-6,8.24-6,2.33,0,3.5,1.44,3.5,3a3.32,3.32,0,0,1-2.88,3.36,4.5,4.5,0,0,1-2-.55,4.42,4.42,0,0,0-2.27-.55,4.87,4.87,0,0,0-4.05,2.88,7.4,7.4,0,0,0-.69,2.2v14.28c0,2.13.48,2.81,1.92,2.81h3.23c0.41,0,.48.21,0.48,0.62v1.24c0,0.41-.07.62-0.34,0.62s-3.57-.21-7.28-0.21c-4.26,0-7.14.21-7.55,0.21s-0.41-.14-0.41-0.69V248.3c0-.48.14-0.62,0.75-0.62h2.68c1,0,1.51-.41,1.51-1.3,0.07-2.27.07-4.67,0.07-8.24v-6.45Z"/><path class="cls-1" d="M2282,236c0,3.3,0,6.66.14,8.1,0.21,2.13,1,2.4,1.79,2.4a10.11,10.11,0,0,0,2.27-.21c0.55-.14.75,0,0.82,0.27l0.21,0.89a0.44,0.44,0,0,1-.34.62l-7.21,2.4a4.07,4.07,0,0,1-1.37.27c-0.27,0-.55-0.14-0.62-0.82l-0.55-4H2277a12.54,12.54,0,0,1-9.34,4.81,7.18,7.18,0,0,1-6.45-3.16c-2.82-3.64-2.68-5.91-2.68-13.46v-8c-0.07-1.92-1-2.4-2.61-2.61-1.17-.07-1.51-0.14-1.51-0.48V221.8c0-.41.14-0.55,0.76-0.55h6.11a3.6,3.6,0,0,0,1-.14c0.27,0,.55-0.07.75-0.07a0.71,0.71,0,0,1,.76.82c-0.07.62-.28,3.85-0.28,7.9v4.94c0,2.75-.69,7.14,1.51,10.3,1.72,2.47,3.64,2.61,5.49,2.61s4.6-1.79,5.91-3.43a3.75,3.75,0,0,0,.69-1.85V225.92c-0.14-1.92-1.24-2.27-3-2.4-1.17,0-1.51-.14-1.51-0.48v-1.17c0-.55.14-0.62,0.82-0.62h6.39a5.47,5.47,0,0,0,1.17-.14c0.34,0,.62-0.07.82-0.07a0.59,0.59,0,0,1,.62.69,60.66,60.66,0,0,0-.41,9.13V236Z"/><path class="cls-1" d="M2292.57,248.78a1.24,1.24,0,0,1-.41-1L2291,241.3a0.44,0.44,0,0,1,.41-0.55l0.89-.21a0.51,0.51,0,0,1,.62.41l1.72,3.36c1.37,2.54,2.33,4.26,6,4.26,2.4,0,5.42-1.44,5.42-4.67s-1.51-4.87-6.66-6.32c-4.05-1.17-8.1-3.3-8.1-8.72,0-4.74,4.46-8.38,9.61-8.38a12.79,12.79,0,0,1,6.32,1.44c1,0.48,1.17.82,1.24,1.24l1,4.81a0.64,0.64,0,0,1-.48.62l-0.82.27a0.49,0.49,0,0,1-.62-0.34l-2.33-3.16a5.25,5.25,0,0,0-4.81-2.68c-2.61,0-5.29,1.58-5.29,4.53,0,4,3.23,4.74,6.59,5.7,5,1.44,8.17,3.5,8.24,8.79-0.07,5.56-4.6,9.06-10.44,9.06A12.92,12.92,0,0,1,2292.57,248.78Z"/></svg>