<svg id="Layer_1" data-name="Layer 1" xmlns="http://www.w3.org/2000/svg" viewBox="0 0 2560 1600"><defs><style>.cls-1{fill:#231f20;}</style></defs><title>virus</title><path class="cls-1" d="M2181.7,156.81a10.5,10.5,0,0,0-.34-3.71l-7.42-21.22c-0.55-1.58-1.79-2.61-4.19-2.61h-1.58c-0.41,0-.55-0.14-0.48-0.55l0.27-1.44c0.07-.48.21-0.55,0.69-0.55,0.89,0,2.68.21,7.21,0.21,5.22,0,7.55-.21,8.45-0.21,0.48,0,.69.14,0.62,0.55l-0.14,1.44a0.53,0.53,0,0,1-.62.55h-1.79c-2.61,0-2.75,1.72-2.2,3.3l6.39,19.09c0.27,0.89.55,0.89,1,.27,1.51-2.06,11.88-16.82,12.63-19,0.89-2.61.21-3.71-2.54-3.71h-1.37c-0.41,0-.55-0.27-0.48-0.69l0.14-1.3c0.07-.48.21-0.55,0.82-0.55,1,0,3.64.21,7.55,0.21s5.84-.21,6.73-0.21c0.62,0,.76.21,0.69,0.55l-0.21,1.3c-0.07.55-.21,0.69-0.55,0.69h-1.3c-2.33,0-3.57,1.1-5.36,3.36-1,1.24-13.53,18.88-14.49,20.26A13.35,13.35,0,0,0,2187,159l-1.72,7.76c-0.76,3.5.41,3.85,2.68,3.85H2190a0.41,0.41,0,0,1,.48.55l-0.21,1.44a0.62,0.62,0,0,1-.76.55c-1,0-3.23-.21-8.31-0.21-5.7,0-7.83.21-8.58,0.21-0.41,0-.62-0.14-0.55-0.55l0.27-1.44a0.5,0.5,0,0,1,.62-0.55h2c3.23,0,4-1.58,4.46-3.64Z"/><path class="cls-1" d="M2214,169.31c-4.05-4.12-5.77-9.48-5.77-16.14,0-14.08,11.33-27.26,24-27.26,10.37,0,18.06,8.31,18.06,20.6,0,12.77-8.86,27.47-24.38,27.47A15.91,15.91,0,0,1,2214,169.31ZM2245,142c0-7.35-3.78-13.12-11.4-13.12-4.19,0-7.14,2-10.09,4.94-6.11,6.11-10,16.69-10,23.76,0,9.75,5.84,13.66,10.92,13.66C2235.67,171.3,2245,156.05,2245,142Z"/><path class="cls-1" d="M2294.25,153.79c-3.91,12.7-10,20.19-20.81,20.19-9.2,0-16-4.05-16-12.57a38.75,38.75,0,0,1,1.44-8.58l5.84-19.29c1-3.09.27-4.26-1.92-4.26h-2.47a0.41,0.41,0,0,1-.48-0.55l0.34-1.44c0.07-.41.21-0.55,0.89-0.55s3.23,0.21,8.17.21c5.56,0,7.9-.21,8.58-0.21s0.69,0.21.62,0.69l-0.27,1.3a0.62,0.62,0,0,1-.69.55h-2.2c-1.65,0-3.3.27-4.39,3.91l-5.63,18.33c-0.41,1.51-2,6.59-2,9.68,0,8.65,8.45,9.68,10.85,9.68a14.56,14.56,0,0,0,8.93-3.43c3.16-2.82,5.36-6.59,7.69-14.21l6-19.78c1-3.3-.41-4.19-2.54-4.19h-2.61c-0.62,0-.69-0.21-0.62-0.55l0.21-1.3a0.75,0.75,0,0,1,.89-0.69c0.82,0,3.43.21,8.38,0.21,4,0,5.56-.21,6.25-0.21s0.69,0.21.62,0.69l-0.21,1.3a0.62,0.62,0,0,1-.76.55H2305c-2.2,0-3.23,1.3-4,3.16Z"/><path class="cls-1" d="M2184.72,234.68l-9.61,12.08c-1.44,1.85-2.81,3.64-2.81,4.6s0.89,1.65,2.4,1.65h2.47c0.34,0,.62.14,0.48,0.69l-0.27,1.3a0.59,0.59,0,0,1-.69.55c-0.69,0-3.64-.21-9-0.21-4.53,0-6.94.21-7.69,0.21-0.34,0-.69-0.14-0.62-0.48l0.34-1.51c0.07-.41.21-0.55,0.48-0.55h1c3,0,5.84-2.06,8.31-5l31.79-38c0.34-.48.62-0.62,1.92-0.69a20.11,20.11,0,0,0,3.23-.48,11.93,11.93,0,0,1,2.27-.55c0.55,0,.82.21,0.69,0.69l-10.09,38.11a21,21,0,0,0-.69,4c0,1.1,1.17,1.92,2.54,1.92h1.85a0.51,0.51,0,0,1,.55.69l-0.21,1.24a0.65,0.65,0,0,1-.82.62c-0.82,0-3.57-.21-8.24-0.21s-6.94.21-8,.21c-0.62,0-.76-0.27-0.69-0.69l0.27-1.3a0.59,0.59,0,0,1,.55-0.55h1.3c2.61,0,4.39-.48,5.77-5.63l3.43-12.7h-12.22Zm13-2.4,5.29-18.13c0.27-1-1-1.1-1.51-.48l-15,18.61h11.19Z"/><path class="cls-1" d="M2225.51,215.32c0.76-2.2.48-3.43-2-3.43h-2.68c-0.55,0-.62-0.21-0.55-0.55l0.34-1.44c0.07-.41.21-0.55,0.89-0.55,7.21,0,14.28-.21,15.38-0.21,4.94,0,15.52.48,15.52,9.82,0,6.87-7.42,12.36-15.45,13.32v0.14c1.65,0.55,2.68,2.68,3.43,4.12,0.34,0.69,5.08,10.44,6.32,12.5,1.72,2.82,3.09,4,6,4h1.72c0.48,0,.55.27,0.48,0.69l-0.21,1.3a0.59,0.59,0,0,1-.69.55c-0.69,0-1.79-.21-5.08-0.21-3,0-4.33.21-5.08,0.21-0.55,0-.89-0.55-1.85-2.2s-7.07-15.17-7.9-16.82c-2-3.85-5.84-3.5-8.45-3.5l-4.87,15c-1.24,3.91-.34,4.94,2.54,4.94h2.82a0.41,0.41,0,0,1,.48.55l-0.21,1.58c-0.07.34-.34,0.41-0.82,0.41-0.75,0-3.84-.21-9.61-0.21-4.05,0-6.73.21-7.55,0.21-0.41,0-.48-0.21-0.41-0.55l0.27-1.44A0.55,0.55,0,0,1,2209,253h1.3c2.47,0,3.64-1.51,4.26-3.43Zm0.89,15.52c3.5,0,7.62.34,12.63-1.72a11,11,0,0,0,7.21-10.16c0-2.88-2.54-7.62-10.92-7.62-1.24,0-2,0-2.82.07Z"/><path class="cls-1" d="M2271.79,216.55c1.24-3.85-1.44-4.87-3.78-4.87h-2.2c-0.41,0-.55-0.21-0.41-0.76l0.34-1.3a0.67,0.67,0,0,1,.82-0.48c0.41,0,1.17.07,2.61,0.07s3.57,0.14,6.87.14h4.39c5.22,0,9.13-.07,11.95-0.14s4.53-.07,5.29-0.07c1,0,1.17.21,1.44,1.3l2.2,9.41c0.07,0.34,0,.41-0.41.62l-0.76.27c-0.34.14-.41,0.14-0.69-0.21l-6.45-8.31a1.18,1.18,0,0,0-1.1-.55h-12.5l-5.91,18.06h6.59c4,0,6.25-.14,8.17-5.77a0.37,0.37,0,0,1,.48-0.34l1,0.21a0.44,0.44,0,0,1,.41.55L2286.49,238c-0.07.41-.21,0.48-0.48,0.41l-1.1-.14c-0.34-.07-0.34-0.14-0.27-0.55,0.48-5.7-2.27-5.84-7.69-5.84h-4.12L2266.16,253h17.78a6.53,6.53,0,0,0,5.49-2.88l5.49-6.94a0.52,0.52,0,0,1,.82-0.14l0.69,0.41c0.27,0.21.41,0.34,0.21,1l-3.5,10a1.3,1.3,0,0,1-1.51,1.17l-7.62-.14c-4.05,0-9.13-.07-13.87-0.07h-8c-3.16,0-5.15.07-6.45,0.07s-1.79.14-2.06,0.14c-0.48,0-.69-0.14-0.55-0.55l0.21-1.44c0.14-.41.21-0.55,0.55-0.55h2.54c2.82,0,4.19-1.44,4.94-3.85Z"/><path class="cls-1" d="M2231.87,341c0-.48.14-0.69,0.55-0.69h22.18a0.53,0.53,0,0,1,.62.55v2.33c0,0.69-.27.82-0.62,0.82h-22.18c-0.41,0-.55-0.14-0.55-0.48V341Z"/><path class="cls-1" d="M2261.4,357.93c0-1.58,1.17-4.74,4.05-12.43l2-5.36a16.11,16.11,0,0,0,1.24-4.05,0.85,0.85,0,0,0-1-.89c-1.17,0-4.39,3.71-5.49,4.81a0.49,0.49,0,0,1-.76.07l-0.55-.62c-0.27-.21-0.41-0.34-0.21-0.62s7.28-8.65,11.67-8.45a1.6,1.6,0,0,1,1.65,1.72c0,1.24-1.1,4.33-2.33,7.62l-4,10.44a16.73,16.73,0,0,0-1.24,4.53,1,1,0,0,0,.75,1.17c1.44-.27,5.15-4.19,5.49-4.81,0.14-.21.41-0.21,0.76,0.14l0.55,0.48a0.58,0.58,0,0,1,.14.82c-0.41.55-5.91,7.14-11.6,7.14C2261.88,359.58,2261.4,359,2261.4,357.93Zm8.65-40a3.43,3.43,0,0,1,3.57-3.43,3.38,3.38,0,0,1,3.64,3.3,3.53,3.53,0,0,1-3.64,3.43A3.36,3.36,0,0,1,2270,317.9Z"/><path class="cls-1" d="M2288.24,334.79h-4.81c-0.41,0-.55-0.14-0.41-0.55l0.55-1.51a0.69,0.69,0,0,1,.75-0.48h4.94l3.57-8a1.62,1.62,0,0,1,1.1-1,26.49,26.49,0,0,0,3.09-1.17,2.89,2.89,0,0,1,1-.41c0.41,0,.55.41,0.07,1.37l-4.53,9.2h7c0.34,0,.48.21,0.27,0.76l-0.62,1.44a0.64,0.64,0,0,1-.62.34h-7L2286,350.24a18.23,18.23,0,0,0-1.58,4.39c0,0.76.27,1.17,0.89,1.17,2,0,6.45-3.91,6.87-4.39,0.21-.27.41-0.21,0.62,0l0.76,0.82a0.43,0.43,0,0,1,.07.62c-0.89,1.1-7.28,6.8-12.57,6.8-1.72,0-2.2-.69-2.2-1.65a9.21,9.21,0,0,1,.76-3.23Z"/><path class="cls-1" d="M2299.44,353.33c0-9.34,7.62-22.93,15.59-22.93a3.7,3.7,0,0,1,3.91,3.85,3,3,0,0,1-2.81,2.88,1.76,1.76,0,0,1-1.79-1.51,2.44,2.44,0,0,0-2.13-1.79c-1.72,0-3.5,1.65-5,4.74a37.16,37.16,0,0,0-3,12c0,5,1.51,5.7,2.75,5.7,2.68,0,5.29-2.75,6-3.71,0.21-.27.41-0.41,0.62-0.27l0.76,0.69c0.21,0.14.34,0.34,0.07,0.75-1,1.44-5.49,5.91-9.89,5.91C2302.18,359.65,2299.44,357.93,2299.44,353.33Z"/><path class="cls-1" d="M2318.66,359c-0.41,0-.55-0.21-0.48-0.34l15.72-38.93a8.7,8.7,0,0,0,.89-3.36c0-.82-1-1.37-2.27-1.37h-2.13c-0.41,0-.76-0.21-0.62-0.62l0.34-1.17a0.65,0.65,0,0,1,.76-0.55h9.27a0.7,0.7,0,0,1,.82.82,8,8,0,0,1-.62,2.06l-10.78,25.27,0.34,0.27c3.43-4.88,8-10.64,13.6-10.64,3.16,0,4.74,2.61,4.74,5.77,0,5.56-2.33,11.47-4.74,15.93-2.75,5.15-6.45,9.06-10.3,9.06a3.31,3.31,0,0,1-3.5-3c0-1.58,1-3.36,2.47-3.36a2.46,2.46,0,0,1,2.4,2.06,1.35,1.35,0,0,0,1.17,1.37c1.51,0,3.78-4.46,5.08-8a40.38,40.38,0,0,0,2.75-12.43c0-1.72-.14-3.85-2.06-3.85-3.64,0-9.68,7.14-11.54,9.48a32.9,32.9,0,0,0-4.53,8l-2.88,7a0.83,0.83,0,0,1-1,.48h-3Z"/></svg>