<svg id="Layer_1" data-name="Layer 1" xmlns="http://www.w3.org/2000/svg" viewBox="0 0 2560 1600"><defs><style>.cls-1{fill:#231f20;}</style></defs><title>virus</title><path class="cls-1" d="M2169,189.43c-2.47-1.51-3.5-3.3-3.5-5.56,0-3.85,3.91-6.8,7.21-8.24v-0.27c-2.88-.62-4.6-2.75-4.6-4.81,0-3.3,3.78-5.63,6.18-6.52v-0.14a10.91,10.91,0,0,1-6.39-10.44c0-4.46,4-10,11.74-10a11,11,0,0,1,8.65,4c1.85-1.3,4.19-2.68,6.45-2.68s3.36,1.51,3.23,2.88a2.61,2.61,0,0,1-2.68,2.54,3.42,3.42,0,0,1-2.4-1,2.73,2.73,0,0,0-1.44-.62,5,5,0,0,0-2.2.41,13,13,0,0,1,1,5.22,11.32,11.32,0,0,1-2.54,7.42,12.28,12.28,0,0,1-11.47,3.09c-1.37.55-3.64,1.92-3.64,3.85,0,2.82,3.43,2.61,8,2.33,5.63-.27,9.06.34,11.81,2.47a8.07,8.07,0,0,1,3.36,6.59c0,3.23-1.17,5.9-4.6,8.45a20.66,20.66,0,0,1-11.74,3.23C2176.21,191.62,2172.3,191.28,2169,189.43Zm22.66-7.07c0-4.05-3.09-7.14-10-6.66l-6.59.48c-2.13.55-5.49,2.88-5.49,6.59a6.59,6.59,0,0,0,2.68,4.74c2.27,1.58,4.74,1.92,9.61,1.92C2184.45,189.43,2192,187.64,2191.66,182.35Zm-6.39-29.25c0-3-.62-4.81-1.85-6.18a5.19,5.19,0,0,0-3.3-1.51,6.3,6.3,0,0,0-4.88,1.92c-2.2,2.33-2.47,5.49-2.47,8.1a8.54,8.54,0,0,0,2.2,6,5.6,5.6,0,0,0,4.12,1.72C2183.76,163.13,2185.27,157.43,2185.27,153.1Z"/><path class="cls-1" d="M2209.37,152.48c0,3.57,0,13.94.07,16.07,0.07,1.17.34,2.13,1.79,2.13h3.09c0.62,0,.76.21,0.76,0.62v1.17c0,0.41-.14.69-0.41,0.69-0.48,0-3.5-.21-7.76-0.21s-7.14.21-7.76,0.21c-0.34,0-.48-0.27-0.48-0.69V171.3c0-.48.14-0.62,0.89-0.62h3.3a1.54,1.54,0,0,0,1.51-1.72c0.07-2.13.07-13.94,0.07-17.92v-4.33c0-4.87-.07-11.12-0.21-12.91-0.14-2.33-1.24-3.43-3.43-4.12l-1.37-.48c-0.34-.14-0.41-0.21-0.41-0.34v-0.55a0.68,0.68,0,0,1,.62-0.48,62.17,62.17,0,0,0,8-4,2.54,2.54,0,0,1,1.44-.55c0.48,0,.62.34,0.55,1.24-0.07,3.78-.27,18.06-0.27,21.84v6.11Z"/></svg>