<svg id="Layer_1" data-name="Layer 1" xmlns="http://www.w3.org/2000/svg" viewBox="0 0 2560 1600"><defs><style>.cls-1{fill:#231f20;}</style></defs><title>virus</title><path class="cls-1" d="M2189.46,131.13c0-2.61-.48-3.43-4.33-4.05-0.41-.07-0.48-0.21-0.48-0.48v-1.17c0-.27.14-0.41,0.55-0.48,2.68-.55,6.25-1.17,7.55-1.44,0.62-.07,1.1-0.21,1.58-0.21s0.41,0.48.34,1.24c-0.21,3.43-.27,13.39-0.27,22.11v15.17c0,2.54.14,5.56,0.69,6.25a5.12,5.12,0,0,0,3,1.17c1,0.07,1.24.14,1.37,0.48l0.14,0.55a0.59,0.59,0,0,1-.48.75l-7.76,2.61a0.67,0.67,0,0,1-.89-0.55l-0.89-3c-2.2,2.2-6.59,3.71-10.09,3.71-2.27,0-4.87.14-8.1-3.16-3.5-3.43-4.33-6.52-4.33-11.12a16.36,16.36,0,0,1,4.81-11.67,13.8,13.8,0,0,1,10.23-4.33,25.61,25.61,0,0,1,7.35,1V131.13Zm0,21.77a6.78,6.78,0,0,0-.62-3.37c-1-1.85-3.16-3.71-7.21-3.71a8.47,8.47,0,0,0-6.25,2.47,13.11,13.11,0,0,0-3.16,9.13c0,7.76,5.36,13.39,9.34,13.39s6.8-2,7.48-3.78a6.44,6.44,0,0,0,.41-2.33V152.9Z"/><path class="cls-1" d="M2208.21,154.68a17.64,17.64,0,0,0-.21,3.3c0,6.73,4.26,11.81,9.75,11.81a9.3,9.3,0,0,0,8.31-4.67,0.56,0.56,0,0,1,.62-0.34l0.89,0.48c0.21,0.07.34,0.27,0,1-1.24,2.75-4.81,7.48-10.92,7.48-3.91,0-8.24-1.17-10.78-4.87-2.4-3.5-3-6-3-10.85a15.46,15.46,0,0,1,4.33-10.92c3-3,6.39-3.64,9.82-3.64,7.9,0,10.09,7.42,10.09,10.09,0,1-.82,1.1-1.92,1.1h-17Zm10.92-2.06c1.3,0,1.85-.34,1.85-1,0-1.58-.82-6.11-5.29-6.11-3,0-5.91,2-7.21,7.07h10.64Z"/><path class="cls-1" d="M2233.14,153.24c0-.41.14-0.48,0.62-0.48H2253a0.62,0.62,0,0,1,.76.76v2.61c0,0.41-.27.48-0.82,0.48h-19.16c-0.48.07-.62,0-0.62-0.34v-3Z"/><path class="cls-1" d="M2264,154.68c0-3.5-.55-4.19-2.47-5.22l-1.3-.69c-0.41-.14-0.55-0.21-0.55-0.48v-0.41a0.69,0.69,0,0,1,.55-0.62l6.8-3.5a2.07,2.07,0,0,1,1-.27c0.41,0,.48.41,0.48,0.82l0.34,4.88H2269c2.06-3.16,5.29-6,8.24-6,2.33,0,3.5,1.44,3.5,3a3.32,3.32,0,0,1-2.88,3.37,4.49,4.49,0,0,1-2-.55,4.43,4.43,0,0,0-2.27-.55,4.87,4.87,0,0,0-4.05,2.88,7.4,7.4,0,0,0-.69,2.2v14.28c0,2.13.48,2.82,1.92,2.82h3.23c0.41,0,.48.21,0.48,0.62v1.24c0,0.41-.07.62-0.34,0.62s-3.57-.21-7.28-0.21c-4.26,0-7.14.21-7.55,0.21s-0.41-.14-0.41-0.69V171.3c0-.48.14-0.62,0.76-0.62h2.68c1,0,1.51-.41,1.51-1.3,0.07-2.27.07-4.67,0.07-8.24v-6.45Z"/><path class="cls-1" d="M2287.93,154.68a17.64,17.64,0,0,0-.21,3.3c0,6.73,4.26,11.81,9.75,11.81a9.3,9.3,0,0,0,8.31-4.67,0.56,0.56,0,0,1,.62-0.34l0.89,0.48c0.21,0.07.34,0.27,0,1-1.24,2.75-4.81,7.48-10.92,7.48-3.91,0-8.24-1.17-10.78-4.87-2.4-3.5-3-6-3-10.85a15.46,15.46,0,0,1,4.33-10.92c3-3,6.39-3.64,9.82-3.64,7.9,0,10.09,7.42,10.09,10.09,0,1-.82,1.1-1.92,1.1h-17Zm10.92-2.06c1.3,0,1.85-.34,1.85-1,0-1.58-.82-6.11-5.29-6.11-3,0-5.91,2-7.21,7.07h10.64Z"/><path class="cls-1" d="M2334.42,169.92a3.16,3.16,0,0,0,2.4-1c0.27-.34.41-0.48,0.69-0.28l0.69,0.55a0.91,0.91,0,0,1-.07,1.24,5.67,5.67,0,0,1-5.36,3.37c-2.47,0-4.26-1.79-4.88-4.6h-0.14a14.8,14.8,0,0,1-6.8,4.19,12.9,12.9,0,0,1-4.05.41c-1.65,0-4.12-1.37-4.12-5.7,0-3.16,1.44-5.91,6.87-8.31,3.09-1.37,6.66-3,7.76-4v-4.39c-0.14-1.17-.21-3-1-3.85a5.22,5.22,0,0,0-4.12-1.51,7.69,7.69,0,0,0-4.46,1.44c-1,.89-0.34,1.92-0.34,3.16,0,2.4-.82,3.91-3.64,3.91-1.1,0-1.65-.62-1.65-2.2,0-2.2,1.92-4.81,4.74-6.45a15.14,15.14,0,0,1,8.38-2.4c3.23,0,4.53,1,5.49,1.85,1.44,1.44,1.51,3,1.51,4.88v14.56C2332.36,168.69,2333.18,169.92,2334.42,169.92Zm-7.07-12.08c-2.47,1.85-9.2,3.23-9.2,8.93,0,2.54,1.51,3.78,3.57,3.78s5.63-2.4,5.63-4.26v-8.45Z"/><path class="cls-1" d="M2350.14,152.48c0,3.57,0,13.94.07,16.07,0.07,1.17.34,2.13,1.79,2.13h3.09c0.62,0,.75.21,0.75,0.62v1.17c0,0.41-.14.69-0.41,0.69-0.48,0-3.5-.21-7.76-0.21s-7.14.21-7.76,0.21c-0.34,0-.48-0.27-0.48-0.69V171.3c0-.48.14-0.62,0.89-0.62h3.3a1.54,1.54,0,0,0,1.51-1.72c0.07-2.13.07-13.94,0.07-17.92v-4.33c0-4.88-.07-11.12-0.21-12.91-0.14-2.33-1.24-3.43-3.43-4.12l-1.37-.48c-0.34-.14-0.41-0.21-0.41-0.34v-0.55a0.68,0.68,0,0,1,.62-0.48,62.23,62.23,0,0,0,8-4,2.54,2.54,0,0,1,1.44-.55c0.48,0,.62.34,0.55,1.24-0.07,3.78-.27,18.06-0.27,21.83v6.11Z"/><path class="cls-1" d="M2197.15,417.07c0.62,0,.76.21,0.62,0.62L2192.48,432a64.17,64.17,0,0,0-2.88,8.93,0.64,0.64,0,0,0,.55.82c1,0,4.81-3.43,5.36-4.26a0.35,0.35,0,0,1,.62,0l0.69,0.69c0.21,0.21.21,0.34,0,.62s-6.59,6.87-11.33,6.87a1.34,1.34,0,0,1-1.3-1.58c0-.82,3.5-9.41,4.39-11.74l-0.41-.21c-2.88,4.19-10.16,13.53-17,13.53a2.69,2.69,0,0,1-2.54-2.82c0.07-2.2,2.2-6.45,4.88-12.84,1.79-4.26,3.36-7.48,3.36-8.72a1,1,0,0,0-1.1-1c-1.24,0-4.67,3.09-5.36,3.91a0.39,0.39,0,0,1-.62,0l-0.62-.62c-0.21-.14-0.21-0.34.07-0.62,0.48-.62,6.18-6.59,10.57-6.59,1.37,0,2,1.37,2,2.47,0,1.72-1.65,5.77-4.46,11.88-1.85,4.05-3.64,8.45-3.64,10a1.08,1.08,0,0,0,1.17,1.17c3.64,0,10.92-9,12.91-11.88a26.86,26.86,0,0,0,3.16-5.84l2.4-6.59a0.83,0.83,0,0,1,1-.48h2.82Z"/><path class="cls-1" d="M2202.71,444.95c-0.76,0-.89-0.14-0.76-0.62l4.88-12.7c1.65-4.26,3.57-9.2,3.57-10.37a1,1,0,0,0-1-1.17c-1.3,0-4.6,3.3-5.77,4.6-0.21.21-.41,0.21-0.69-0.07l-0.62-.62c-0.27-.28-0.34-0.41-0.14-0.69,1-1.24,6.11-6.94,11.06-6.94a2,2,0,0,1,2.2,2.06c0,2.13-3,8.65-3.5,10.23l0.27,0.14c2.06-3.3,9.54-12.43,15.66-12.43,2.06,0,3.43,1,3.43,2.82,0,3-1.58,6.59-3.85,12.15-1.85,4.53-3.5,8.38-3.5,9.48a0.85,0.85,0,0,0,.82.89c1,0,4.05-2.54,4.94-3.5a0.5,0.5,0,0,1,.76.14l0.48,0.55c0.27,0.27.34,0.41,0.07,0.75-0.82,1.1-6.39,6-11,6a1.38,1.38,0,0,1-1.65-1.37c0-1.3,2.47-6.73,4.6-12.63,1-2.68,3.43-8.38,3.43-9.89a1.46,1.46,0,0,0-1.72-1.58c-2.68,0-9.48,6.32-12.5,11.19a39.91,39.91,0,0,0-4.12,8.58l-1.72,4.6c-0.14.27-.27,0.41-1,0.41h-2.68Z"/><path class="cls-1" d="M2237.74,427c0-.48.14-0.69,0.55-0.69h22.18a0.53,0.53,0,0,1,.62.55v2.33c0,0.69-.27.82-0.62,0.82h-22.18c-0.41,0-.55-0.14-0.55-0.48V427Z"/><path class="cls-1" d="M2266.71,444.95c-0.48,0-.76-0.27-0.62-0.62l3.85-11.12c1.24-3.85,3.36-11.06,3.36-12a1.09,1.09,0,0,0-1.17-1c-1.37,0-4.46,3.09-5.42,4.26a0.36,0.36,0,0,1-.55,0l-0.69-.69a0.41,0.41,0,0,1,0-.55c1.44-2.13,5.56-6.8,10.23-6.8,1.37,0,1.92,1.17,1.92,2.4s-1.1,5.15-2.47,9.75l0.34,0.14c1.85-3.85,7.35-12.29,11.19-12.29a3,3,0,0,1,3.23,3.09,3,3,0,0,1-2.68,3.16,2.22,2.22,0,0,1-1.72-.69,2.12,2.12,0,0,0-1.79-.82c-1.85,0-5.7,5.9-8.45,10.44a25.42,25.42,0,0,0-2.68,6l-2.27,6.94c-0.14.48-.34,0.48-0.89,0.48h-2.75Z"/><path class="cls-1" d="M2289.92,438.9c0-5.77,3.78-13,8.79-17.92,2.2-2.2,5.9-4.6,9.2-4.6a3.68,3.68,0,0,1,3.91,3.64c0,3.36-2.54,6.93-6.39,8.93a28,28,0,0,1-10,2.82,18.71,18.71,0,0,0-.89,6.32c0,3.09,2.27,4.33,3.57,4.33,3.36,0,6.39-2.54,7.83-4.87a0.35,0.35,0,0,1,.62-0.07l0.75,0.62c0.34,0.21.34,0.41,0.07,0.62-1.72,2.4-5.84,6.93-11.12,6.93C2291.84,445.63,2289.92,443.43,2289.92,438.9Zm6.11-9.13c2.4,0.21,11.4-2.68,11.4-7.76,0-1.37-.69-2.61-2.2-2.61C2300.84,419.4,2296.58,427.3,2296,429.77Z"/><path class="cls-1" d="M2342.11,416.38c0.27,0,.34.34,0.21,0.62-1.3,2.82-4.81,12.29-5.15,13.39s-3.3,9.68-3.3,10.3a0.71,0.71,0,0,0,.76.82c0.82,0,4.33-3.57,4.81-4.19,0.21-.21.41-0.34,0.55-0.14l0.62,0.69c0.21,0.21.27,0.34,0.14,0.55-0.76,1.37-6.73,7.21-10.64,7.21a1.17,1.17,0,0,1-1.44-1.17c0-1,.69-3.16,3.3-10.44l-0.34-.14c-2.88,4.39-9.82,11.74-14.69,11.74-1.58,0-3.71-1.3-3.71-4.39,0-10,11.26-24.86,19.64-24.86,2.88,0,4.19,1.24,4.88,2.33l1.3-1.85a0.93,0.93,0,0,1,.69-0.48h2.4Zm-8.65,11.95a12.87,12.87,0,0,0,1.65-5.7c0-1.85-.69-4.05-3.23-4.05-6.32,0-13.66,14.49-13.66,21,0,1.58.69,2.4,1.85,2.4C2323.5,442,2332.22,430.87,2333.46,428.33Z"/><path class="cls-1" d="M2359.07,405.26c1-2.61,1-4.33-1-4.33h-2c-0.48,0-.55-0.28-0.41-0.62l0.41-1.24a0.57,0.57,0,0,1,.69-0.48h8.51c0.62,0,.82.41,0.62,1L2351.58,436c-0.62,1.58-2.27,5.36-.82,5.36,1.1,0,4.26-2.68,5.08-3.57a0.35,0.35,0,0,1,.62,0l0.75,0.82a0.46,0.46,0,0,1-.07.69c-0.34.55-6.73,6.39-11.12,6.39-0.89,0-1.51-.41-1.51-2,0-1,1.72-5.36,2.54-7.42Z"/></svg>