<svg id="Layer_1" data-name="Layer 1" xmlns="http://www.w3.org/2000/svg" viewBox="0 0 2560 1600"><defs><style>.cls-1{fill:#231f20;}</style></defs><title>virus</title><path class="cls-1" d="M2193.1,128.93c-0.55,0-.62-0.27-0.55-0.48L2193,127c0.07-.27.21-0.41,0.82-0.41h8.45a0.8,0.8,0,0,1,.82,1.24c-1,2.4-13,34.54-14.21,38.66-0.62,2.13-.69,3.16.27,3.16,1.17,0,4.46-3.16,4.81-3.57a0.49,0.49,0,0,1,.76.07l0.69,0.69a0.45,0.45,0,0,1,0,.69c-0.48.62-6.39,6.11-10,6.11-1.1,0-1.85-.34-1.85-1.58s1.51-6,3-10L2186,162c-3.36,5.36-9.82,11.67-14.49,11.67a4.25,4.25,0,0,1-4.39-4.53c0-5.42,3.85-13.6,9.48-19.16,2.2-2.13,6.18-5.56,10.78-5.56a5.47,5.47,0,0,1,4.33,2.27l5.29-15c0.48-1.3.14-2.68-1.72-2.68h-2.13Zm-8.1,31.79c1.92-2.61,4.46-6.94,4.46-9.61,0-3.23-1.44-4.53-3.64-4.53-6.45,0-13.73,15-13.73,21.35a2,2,0,0,0,2,2.2C2177,170.13,2182.25,164.5,2185,160.72Z"/><path class="cls-1" d="M2199.9,166.9c0-5.77,3.78-13,8.79-17.92,2.2-2.2,5.9-4.6,9.2-4.6a3.68,3.68,0,0,1,3.91,3.64c0,3.36-2.54,6.94-6.39,8.93a28,28,0,0,1-10,2.82,18.71,18.71,0,0,0-.89,6.32c0,3.09,2.27,4.33,3.57,4.33,3.36,0,6.39-2.54,7.83-4.88a0.35,0.35,0,0,1,.62-0.07l0.75,0.62c0.34,0.21.34,0.41,0.07,0.62-1.72,2.4-5.84,6.94-11.12,6.94C2201.82,173.63,2199.9,171.43,2199.9,166.9Zm6.11-9.13c2.4,0.21,11.4-2.68,11.4-7.76,0-1.37-.69-2.61-2.2-2.61C2210.82,147.4,2206.56,155.3,2206,157.77Z"/><path class="cls-1" d="M2225.17,155c0-.48.14-0.69,0.55-0.69h22.18a0.53,0.53,0,0,1,.62.55v2.33c0,0.69-.27.82-0.62,0.82h-22.18c-0.41,0-.55-0.14-0.55-0.48V155Z"/><path class="cls-1" d="M2254.15,172.95c-0.48,0-.76-0.27-0.62-0.62l3.85-11.12c1.24-3.85,3.36-11.06,3.36-12a1.09,1.09,0,0,0-1.17-1c-1.37,0-4.46,3.09-5.42,4.26a0.36,0.36,0,0,1-.55,0l-0.69-.69a0.42,0.42,0,0,1,0-.55c1.44-2.13,5.56-6.8,10.23-6.8,1.37,0,1.92,1.17,1.92,2.4s-1.1,5.15-2.47,9.75l0.34,0.14c1.85-3.85,7.35-12.29,11.19-12.29a3,3,0,0,1,3.23,3.09,3,3,0,0,1-2.68,3.16,2.22,2.22,0,0,1-1.72-.69,2.12,2.12,0,0,0-1.79-.82c-1.85,0-5.7,5.91-8.45,10.44a25.44,25.44,0,0,0-2.68,6l-2.27,6.94c-0.14.48-.34,0.48-0.89,0.48h-2.75Z"/><path class="cls-1" d="M2277.36,166.9c0-5.77,3.78-13,8.79-17.92,2.2-2.2,5.91-4.6,9.2-4.6a3.68,3.68,0,0,1,3.91,3.64c0,3.36-2.54,6.94-6.39,8.93a28,28,0,0,1-10,2.82,18.71,18.71,0,0,0-.89,6.32c0,3.09,2.27,4.33,3.57,4.33,3.36,0,6.39-2.54,7.83-4.88a0.35,0.35,0,0,1,.62-0.07l0.76,0.62c0.34,0.21.34,0.41,0.07,0.62-1.72,2.4-5.84,6.94-11.12,6.94C2279.28,173.63,2277.36,171.43,2277.36,166.9Zm6.11-9.13c2.4,0.21,11.4-2.68,11.4-7.76,0-1.37-.69-2.61-2.2-2.61C2288.27,147.4,2284,155.3,2283.47,157.77Z"/><path class="cls-1" d="M2329.54,144.38c0.27,0,.34.34,0.21,0.62-1.3,2.81-4.81,12.29-5.15,13.39s-3.3,9.68-3.3,10.3a0.71,0.71,0,0,0,.76.82c0.82,0,4.33-3.57,4.81-4.19,0.21-.21.41-0.34,0.55-0.14l0.62,0.69c0.21,0.21.27,0.34,0.14,0.55-0.76,1.37-6.73,7.21-10.64,7.21a1.17,1.17,0,0,1-1.44-1.17c0-1,.69-3.16,3.3-10.44l-0.34-.14c-2.88,4.39-9.82,11.74-14.69,11.74-1.58,0-3.71-1.3-3.71-4.39,0-10,11.26-24.86,19.64-24.86,2.88,0,4.19,1.24,4.88,2.33l1.3-1.85a0.93,0.93,0,0,1,.69-0.48h2.4Zm-8.65,11.95a12.86,12.86,0,0,0,1.65-5.7c0-1.85-.69-4.05-3.23-4.05-6.32,0-13.66,14.49-13.66,21,0,1.58.69,2.4,1.85,2.4C2310.93,170,2319.65,158.87,2320.89,156.33Z"/><path class="cls-1" d="M2346.5,133.26c1-2.61,1-4.33-1-4.33h-2c-0.48,0-.55-0.27-0.41-0.62l0.41-1.24a0.57,0.57,0,0,1,.69-0.48h8.51c0.62,0,.82.41,0.62,1L2339,164c-0.62,1.58-2.27,5.36-.82,5.36,1.1,0,4.26-2.68,5.08-3.57a0.35,0.35,0,0,1,.62,0l0.76,0.82a0.46,0.46,0,0,1-.07.69c-0.34.55-6.73,6.39-11.12,6.39-0.89,0-1.51-.41-1.51-2,0-1,1.72-5.36,2.54-7.42Z"/></svg>