<svg id="Layer_1" data-name="Layer 1" xmlns="http://www.w3.org/2000/svg" viewBox="0 0 2560 1600"><defs><style>.cls-1{fill:#231f20;}</style></defs><title>virus</title><path class="cls-1" d="M2161,184.34c0-5.08,8.24-8.45,11.6-9.89-2-1.44-2.61-2.68-2.61-4s1.24-2.47,5.84-5.08a8,8,0,0,1-5.36-7.9c0-5.15,4.53-13.12,12.15-13.12a6.69,6.69,0,0,1,5.84,3.23,9.65,9.65,0,0,1,5.84-2.54,2.73,2.73,0,0,1,2.88,2.68,2.09,2.09,0,0,1-2.2,2.13,2.63,2.63,0,0,1-2.27-1,1.92,1.92,0,0,0-1.3-.48,2.91,2.91,0,0,0-2,1,15.7,15.7,0,0,1,.55,3.84c0,3.3-1.92,11-9.82,12.36a7.79,7.79,0,0,0-2.06.48c-1.3.55-3.57,2.13-3.57,3.3a2.67,2.67,0,0,0,1.17,1.85c1.17,0.82,4.46,2.88,8.93,5.84,4,2.61,5.08,4.88,5.08,7.42,0,1.1-1.17,8.93-14.63,8.93C2167.9,193.34,2161,189.29,2161,184.34Zm15.45,6.87c4.67,0,8.58-1.65,8.58-5.49,0-3-2.88-4.88-4.6-6l-6-3.91c-5.63,2.27-8.65,4.88-8.65,8.1C2165.7,188.6,2171.81,191.21,2176.41,191.21Zm9.13-40.51c0-3.16-1.24-4.6-3.09-4.6-4.12,0-7.62,8-7.62,13.18,0,3.09,1.17,4.67,3.23,4.67C2183.08,164,2185.55,155.64,2185.55,150.7Z"/><path class="cls-1" d="M2211.16,133.26c1-2.61,1-4.33-1-4.33h-2c-0.48,0-.55-0.27-0.41-0.62l0.41-1.24a0.57,0.57,0,0,1,.69-0.48h8.51c0.62,0,.82.41,0.62,1L2203.68,164c-0.62,1.58-2.27,5.36-.82,5.36,1.1,0,4.26-2.68,5.08-3.57a0.35,0.35,0,0,1,.62,0l0.76,0.82a0.47,0.47,0,0,1-.07.69c-0.34.55-6.73,6.39-11.12,6.39-0.89,0-1.51-.41-1.51-2,0-1,1.72-5.36,2.54-7.42Z"/><path class="cls-1" d="M2216,155c0-.48.14-0.69,0.55-0.69h22.18a0.53,0.53,0,0,1,.62.55v2.33c0,0.69-.27.82-0.62,0.82h-22.18c-0.41,0-.55-0.14-0.55-0.48V155Z"/></svg>