<svg id="Layer_1" data-name="Layer 1" xmlns="http://www.w3.org/2000/svg" viewBox="0 0 2560 1600"><defs><style>.cls-1{fill:#fff;}</style></defs><title>intimacy</title><path class="cls-1" d="M1276.3,1354.55c0-1,2.57-10.67,2.67-11h-0.18c-1,.92-7.08,7.08-8,7.63-1.56.92-3.4,0.92-4.42-.74-1.38-2.3.64-3.77,1.38-4.23,1-.64,10.39-3.31,10.95-3.31v-0.18c-0.46-.09-10.21-2.58-11.22-3a2.71,2.71,0,0,1-1.38-4c1.1-2,3-1.66,4.42-.92,1.1,0.55,8.09,7.08,8.28,7.45l0.18-.18c-0.09-.28-2.67-10-2.67-11a2.73,2.73,0,0,1,2.94-3c2.3,0,2.94,1.1,2.94,3,0,1.29-2.48,10.76-2.67,11.13l0.18,0.18c0.28-.37,7.27-7.27,8.28-7.82a2.86,2.86,0,0,1,4,1c1.29,2.12.28,3.31-1.2,4.14-1.1.64-10.48,3-10.95,3v0.18c0.37,0.09,10.3,2.76,11.22,3.22,1.2,0.55,2.76,1.56,1.1,4.32-1,1.66-3,1.47-4.51.64a81,81,0,0,1-8-7.73l-0.18.18c0.18,0.37,2.67,9.75,2.67,11s-0.46,3.22-2.94,3.22C1277.13,1357.76,1276.3,1356.2,1276.3,1354.55Z"/><path class="cls-1" d="M1324.17,1348.91a29.91,29.91,0,0,1,6.73-9.18,1.74,1.74,0,0,1,1-.36,1.16,1.16,0,0,1,1,.71,1.54,1.54,0,0,1-.46.92c-4.85,5-8.21,11.83-8.21,21.83s3.37,16.78,8.26,21.78a1.6,1.6,0,0,1,.41.92,1.2,1.2,0,0,1-1,.76,1.53,1.53,0,0,1-1-.41,30,30,0,0,1-7.19-9.18,31.29,31.29,0,0,1-3-13.87A30.86,30.86,0,0,1,1324.17,1348.91Z"/><path class="cls-1" d="M1334.47,1388.73a2.26,2.26,0,0,1,2.35-2,8.77,8.77,0,0,1,2.35.56,1.23,1.23,0,0,0,1.07-.31c0.77-.92,3.37-6.73,4.08-8.72-0.26-1.28-5.66-17.24-6.07-18.31-0.61-1.27-1.07-2.14-2.4-2.14h-1.33c-0.36,0-.41-0.15-0.41-0.46v-1c0-.2.05-0.36,0.41-0.36s1.68,0.15,4.69.15c2.6,0,4.18-.15,4.74-0.15,0.41,0,.46.15,0.46,0.36v1.07c0,0.25-.05.41-0.31,0.41h-1c-0.56,0-.76.36-0.66,1.12,0.15,1.12,3.62,12.39,4.18,13.51h0.2c0.51-.82,4.95-11.42,5.25-12.7s-0.1-1.94-.87-1.94h-0.82c-0.31,0-.36-0.15-0.36-0.41v-1c0-.25.05-0.41,0.31-0.41,0.66,0,1.73.15,4.18,0.15,1.38,0,2.55-.15,3.11-0.15,0.31,0,.31.2,0.31,0.41v1c0,0.31,0,.46-0.25.46h-0.82a2.29,2.29,0,0,0-1.79.92c-1.12,1.38-4.49,9.18-8,17.18-2.5,5.66-4.49,10.4-5.41,12.09-0.71,1.33-1.63,3.32-4.33,3.32C1335.44,1391.34,1334.47,1390.26,1334.47,1388.73Z"/><path class="cls-1" d="M1360.74,1374.56c-2.35-2.8-2.8-4.69-2.8-8.31a10.85,10.85,0,0,1,4.38-8.21,11,11,0,0,1,6.83-2.45,10.79,10.79,0,0,1,7.14,3,11.32,11.32,0,0,1,3.47,8.31,11.64,11.64,0,0,1-11.27,11.22A10.29,10.29,0,0,1,1360.74,1374.56Zm14.74-8.21c0-5.66-4.13-9.23-6.73-9.23a4.92,4.92,0,0,0-3.93,1.63c-2,2-2.7,4.13-2.7,8,0,2.86.31,4.79,1.94,7.14a5.65,5.65,0,0,0,5,2.65C1373,1376.55,1375.47,1371.8,1375.47,1366.35Z"/><path class="cls-1" d="M1402.81,1367.11c0,2.45,0,4.95.1,6,0.15,1.58.71,1.79,1.32,1.79a7.49,7.49,0,0,0,1.68-.15c0.41-.1.56,0,0.61,0.2l0.15,0.66a0.33,0.33,0,0,1-.26.46l-5.35,1.79a3,3,0,0,1-1,.2c-0.2,0-.41-0.1-0.46-0.61l-0.41-3h-0.1a9.31,9.31,0,0,1-6.94,3.57,5.34,5.34,0,0,1-4.79-2.35c-2.09-2.7-2-4.39-2-10v-6c-0.05-1.43-.77-1.79-1.94-1.94-0.87-.05-1.12-0.1-1.12-0.36v-0.92c0-.31.1-0.41,0.56-0.41h4.54a2.67,2.67,0,0,0,.71-0.1c0.2,0,.41-0.05.56-0.05a0.53,0.53,0,0,1,.56.61c-0.05.46-.2,2.86-0.2,5.86v3.67c0,2-.51,5.3,1.12,7.65a4.27,4.27,0,0,0,4.08,1.94c1.38,0,3.42-1.33,4.38-2.55a2.77,2.77,0,0,0,.51-1.38v-12.19c-0.1-1.43-.92-1.68-2.19-1.78-0.87,0-1.12-.1-1.12-0.36v-0.87c0-.41.1-0.46,0.61-0.46h4.74a4.06,4.06,0,0,0,.87-0.1c0.25,0,.46-0.05.61-0.05a0.44,0.44,0,0,1,.46.51,45.11,45.11,0,0,0-.31,6.78v3.83Z"/><path class="cls-1" d="M1425.3,1349.67c0-3.11-.61-3.67-2.45-4.28l-0.87-.31c-0.3-.1-0.36-0.15-0.36-0.31v-0.46c0-.2.15-0.25,0.61-0.51l5.3-2.8a2.7,2.7,0,0,1,1.17-.41c0.3,0,.51.41,0.41,1.27s-0.15,11.22-.15,13.77v3.26h0.26a9.73,9.73,0,0,1,7-3.31,6.69,6.69,0,0,1,5,2c2.29,2.14,2.19,4.74,2.19,7.5V1368c0,2.86.1,6,.1,7,0,0.61.81,0.76,1.89,0.76h0.87c0.41,0,.56.1,0.56,0.46V1377c0,0.41-.1.61-0.41,0.61s-2-.15-4.9-0.15c-2.5,0-4.33.15-4.79,0.15s-0.46-.15-0.46-0.56v-0.87c0-.26.05-0.41,0.36-0.41h1.17c0.87,0,1.89-.1,1.94-1,0.05-.71,0-3.42,0-5v-4.13c0-2.86-.21-4.9-1.68-6.27a4.68,4.68,0,0,0-3.37-1.43,6.22,6.22,0,0,0-4.74,2.14,4.44,4.44,0,0,0-1,2.5v11.12c0,1.63.15,2.09,1.12,2.09h1.53c0.36,0,.56.1,0.56,0.41v0.87c0,0.36-.1.56-0.41,0.56s-2.5-.15-4.84-0.15c-2.55,0-4.49.15-4.95,0.15-0.2,0-.36-0.15-0.36-0.51v-0.92c0-.36.2-0.41,0.76-0.41h1.07c0.81,0,1.58-.2,1.68-0.82,0.15-1,.15-6.58.15-9.89v-15.4Z"/><path class="cls-1" d="M1466.46,1375.22a2.35,2.35,0,0,0,1.79-.76c0.2-.25.3-0.36,0.51-0.2l0.51,0.41a0.68,0.68,0,0,1-.05.92,4.21,4.21,0,0,1-4,2.5c-1.84,0-3.16-1.33-3.62-3.42h-0.1a11,11,0,0,1-5,3.11,9.56,9.56,0,0,1-3,.31c-1.22,0-3.06-1-3.06-4.23,0-2.35,1.07-4.38,5.1-6.17a33.8,33.8,0,0,0,5.76-3v-3.26a6,6,0,0,0-.71-2.86,3.87,3.87,0,0,0-3.06-1.12,5.72,5.72,0,0,0-3.32,1.07c-0.71.66-.25,1.43-0.25,2.35,0,1.79-.61,2.91-2.7,2.91-0.82,0-1.22-.46-1.22-1.63,0-1.63,1.43-3.57,3.52-4.79a11.24,11.24,0,0,1,6.22-1.79,5.24,5.24,0,0,1,4.08,1.38,4.51,4.51,0,0,1,1.12,3.62v10.81C1464.93,1374.3,1465.54,1375.22,1466.46,1375.22Zm-5.25-9c-1.84,1.38-6.83,2.4-6.83,6.63a2.51,2.51,0,0,0,2.65,2.8c1.48,0,4.18-1.78,4.18-3.16v-6.27Z"/><path class="cls-1" d="M1481.35,1372.77h0.15c0.82-2,4.38-10.76,4.89-12.75,0.36-1.38,0-2.19-.92-2.19h-1c-0.15,0-.2-0.25-0.2-0.51v-0.92c0-.31.1-0.41,0.3-0.41,0.71,0,1.84.15,4.08,0.15,2,0,3.21-.15,3.67-0.15s0.46,0.05.46,0.46v0.87c0,0.36,0,.51-0.26.51h-1a2,2,0,0,0-1.58.56c-0.77.71-3.31,6.32-4.08,8.21-0.61,1.53-4.38,10.1-4.59,10.45-0.41.71-.66,1.17-1.22,1.17a1.35,1.35,0,0,1-1.07-1.07l-4-10.35c-0.15-.41-2.24-6.27-2.6-7.09-0.66-1.48-1.17-1.89-2.09-1.89h-1c-0.26,0-.31-0.2-0.31-0.51v-0.92c0-.36.1-0.41,0.56-0.41s1.43,0.15,4.28.15c2.7,0,4-.15,4.59-0.15,0.41,0,.51.1,0.51,0.41v0.92c0,0.31-.05.51-0.36,0.51h-1a0.87,0.87,0,0,0-.92,1,42.62,42.62,0,0,0,1.63,6.07C1478.6,1365.84,1480.79,1371.7,1481.35,1372.77Z"/><path class="cls-1" d="M1497.21,1363.9a13.14,13.14,0,0,0-.15,2.45c0,5,3.16,8.77,7.24,8.77a6.91,6.91,0,0,0,6.17-3.47,0.41,0.41,0,0,1,.46-0.25l0.66,0.36c0.15,0.05.26,0.2,0,.76-0.92,2-3.57,5.56-8.11,5.56-2.91,0-6.12-.87-8-3.62-1.79-2.6-2.24-4.49-2.24-8.06a11.48,11.48,0,0,1,3.21-8.11,9.45,9.45,0,0,1,7.29-2.7c5.87,0,7.5,5.51,7.5,7.5,0,0.71-.61.82-1.43,0.82h-12.6Zm8.11-1.53c1,0,1.38-.25,1.38-0.71,0-1.17-.61-4.54-3.93-4.54-2.24,0-4.38,1.48-5.35,5.25h7.9Z"/><path class="cls-1" d="M1548.87,1374.71a1,1,0,0,0,1.12,1.07h1.63c0.46,0,.56.15,0.56,0.46v0.82c0,0.36-.1.56-0.41,0.56s-1.94-.15-4.84-0.15c-2.6,0-4.23.15-4.59,0.15s-0.41-.15-0.41-0.56v-0.82c0-.36.15-0.46,0.66-0.46h1.48a1,1,0,0,0,1-1.17c0.05-1.33.1-3,.1-4.28v-6.73c0-2,0-3.52-1.48-4.59a5.59,5.59,0,0,0-3.72-.92,6,6,0,0,0-4.13,2,5,5,0,0,0-1.17,3.47v10.56c0,1.38.15,1.68,1.22,1.68h1.28a0.42,0.42,0,0,1,.51.51v0.87c0,0.31-.1.46-0.36,0.46s-1.73-.15-4.44-0.15-4.23.15-4.54,0.15-0.36-.15-0.36-0.46v-0.92c0-.31.1-0.46,0.51-0.46H1530a0.84,0.84,0,0,0,1-1v-11.93a3.14,3.14,0,0,0-2.09-3l-0.41-.2a0.49,0.49,0,0,1-.41-0.46v-0.25a0.59,0.59,0,0,1,.46-0.51l4.39-2.45a2.67,2.67,0,0,1,.92-0.36c0.25,0,.36.2,0.41,0.61l0.36,3.11h0.1c1.48-1.84,4.44-3.72,7-3.72a7.87,7.87,0,0,1,4.34,1.12,7.43,7.43,0,0,1,2.8,4.84v13.16Z"/><path class="cls-1" d="M1557.75,1374.56c-2.35-2.8-2.8-4.69-2.8-8.31a10.85,10.85,0,0,1,4.38-8.21,11,11,0,0,1,6.83-2.45,10.79,10.79,0,0,1,7.14,3,11.32,11.32,0,0,1,3.47,8.31,11.64,11.64,0,0,1-11.27,11.22A10.29,10.29,0,0,1,1557.75,1374.56Zm14.74-8.21c0-5.66-4.13-9.23-6.73-9.23a4.92,4.92,0,0,0-3.93,1.63c-2,2-2.7,4.13-2.7,8,0,2.86.31,4.79,1.94,7.14a5.65,5.65,0,0,0,5,2.65C1570,1376.55,1572.48,1371.8,1572.48,1366.35Z"/><path class="cls-1" d="M1587.17,1371.09c0,3.82,1.73,4.49,2.65,4.49a7.33,7.33,0,0,0,3.37-.66,0.42,0.42,0,0,1,.61.1l0.26,0.46a0.41,0.41,0,0,1-.1.56,8.58,8.58,0,0,1-5.66,2c-2.5,0-4.95-2.4-4.95-4.33,0-2.09.15-6.58,0.15-7.29v-1.12c0-.92.05-4.39,0.1-6.53h-3.11a0.64,0.64,0,0,1-.77-0.61c0-.41.31-0.56,0.92-0.92,1.22-.71,5.15-4.64,5.81-6.37a0.68,0.68,0,0,1,.71-0.51c0.41,0,.51.36,0.51,0.76l-0.25,5h7.09a0.33,0.33,0,0,1,.36.46l-0.51,1.78a0.42,0.42,0,0,1-.46.41h-6.58c-0.1,2.35-.15,4.84-0.15,7.19v5.1Z"/><path class="cls-1" d="M1599.82,1349.67c0-3.11-.61-3.67-2.45-4.28l-0.87-.31c-0.31-.1-0.36-0.15-0.36-0.31v-0.46c0-.2.15-0.25,0.61-0.51l5.3-2.8a2.7,2.7,0,0,1,1.17-.41c0.31,0,.51.41,0.41,1.27s-0.15,11.22-.15,13.77v3.26h0.25a9.73,9.73,0,0,1,7-3.31,6.69,6.69,0,0,1,5,2c2.29,2.14,2.19,4.74,2.19,7.5V1368c0,2.86.1,6,.1,7,0,0.61.82,0.76,1.89,0.76h0.87c0.41,0,.56.1,0.56,0.46V1377c0,0.41-.1.61-0.41,0.61s-2-.15-4.89-0.15c-2.5,0-4.33.15-4.79,0.15s-0.46-.15-0.46-0.56v-0.87c0-.26.05-0.41,0.36-0.41h1.17c0.87,0,1.89-.1,1.94-1,0.05-.71,0-3.42,0-5v-4.13c0-2.86-.2-4.9-1.68-6.27a4.67,4.67,0,0,0-3.37-1.43,6.22,6.22,0,0,0-4.74,2.14,4.44,4.44,0,0,0-1,2.5v11.12c0,1.63.15,2.09,1.12,2.09h1.53c0.36,0,.56.1,0.56,0.41v0.87c0,0.36-.1.56-0.41,0.56s-2.5-.15-4.85-0.15c-2.55,0-4.49.15-4.95,0.15-0.21,0-.36-0.15-0.36-0.51v-0.92c0-.36.21-0.41,0.77-0.41H1598c0.82,0,1.58-.2,1.68-0.82,0.15-1,.15-6.58.15-9.89v-15.4Z"/><path class="cls-1" d="M1627.51,1362.62c0-1.73-.3-2.65-2.86-3.06-0.36-.05-0.46-0.15-0.46-0.36v-0.46a0.42,0.42,0,0,1,.36-0.36,41.54,41.54,0,0,0,5.51-2.5,2.11,2.11,0,0,1,1-.31c0.25,0,.31.25,0.25,0.61-0.1.87-.1,4.08-0.1,8.31v5.56c0,2,0,3.83.05,4.39,0.1,1,.26,1.33.82,1.33h2.35c0.41,0,.51.15,0.51,0.46v0.87c0,0.36-.1.51-0.46,0.51s-2.75-.15-4.89-0.15c-3,0-4.95.15-5.51,0.15a0.35,0.35,0,0,1-.41-0.41v-1c0-.31.15-0.41,0.51-0.41h2.5c0.56,0,.76-0.2.81-1,0.05-1.53.05-3.11,0.05-4.64v-7.5Zm-2.4-15.66a3,3,0,0,1,3.21-2.86,2.69,2.69,0,0,1,2.75,2.7,2.92,2.92,0,0,1-3.06,3A3.11,3.11,0,0,1,1625.12,1347Z"/><path class="cls-1" d="M1658.77,1374.71a1,1,0,0,0,1.12,1.07h1.63c0.46,0,.56.15,0.56,0.46v0.82c0,0.36-.1.56-0.41,0.56s-1.94-.15-4.84-0.15c-2.6,0-4.23.15-4.59,0.15s-0.41-.15-0.41-0.56v-0.82c0-.36.15-0.46,0.66-0.46H1654a1,1,0,0,0,1-1.17c0.05-1.33.1-3,.1-4.28v-6.73c0-2,0-3.52-1.48-4.59a5.59,5.59,0,0,0-3.72-.92,6,6,0,0,0-4.13,2,5,5,0,0,0-1.17,3.47v10.56c0,1.38.15,1.68,1.22,1.68h1.28a0.42,0.42,0,0,1,.51.51v0.87c0,0.31-.1.46-0.36,0.46s-1.73-.15-4.44-0.15-4.23.15-4.54,0.15-0.36-.15-0.36-0.46v-0.92c0-.31.1-0.46,0.51-0.46h1.48a0.84,0.84,0,0,0,1-1v-11.93a3.14,3.14,0,0,0-2.09-3l-0.41-.2a0.49,0.49,0,0,1-.41-0.46v-0.25a0.59,0.59,0,0,1,.46-0.51l4.38-2.45a2.7,2.7,0,0,1,.92-0.36c0.26,0,.36.2,0.41,0.61l0.36,3.11h0.1c1.48-1.84,4.44-3.72,7-3.72a7.86,7.86,0,0,1,4.33,1.12,7.42,7.42,0,0,1,2.8,4.84v13.16Z"/><path class="cls-1" d="M1666.38,1389.7a4.61,4.61,0,0,1-2.6-4.13c0-2.86,2.91-5,5.36-6.12v-0.2a4,4,0,0,1-3.42-3.57c0-2.45,2.8-4.18,4.59-4.84v-0.1a8.11,8.11,0,0,1-4.74-7.75c0-3.31,3-7.39,8.72-7.39a8.19,8.19,0,0,1,6.43,3,9.06,9.06,0,0,1,4.79-2c1.68,0,2.5,1.12,2.4,2.14a1.94,1.94,0,0,1-2,1.89,2.54,2.54,0,0,1-1.79-.77,2,2,0,0,0-1.07-.46,3.71,3.71,0,0,0-1.63.31,9.62,9.62,0,0,1,.77,3.88,8.41,8.41,0,0,1-1.89,5.51,9.12,9.12,0,0,1-8.52,2.29c-1,.41-2.7,1.43-2.7,2.86,0,2.09,2.55,1.94,6,1.73,4.18-.2,6.73.26,8.77,1.84a6,6,0,0,1,2.5,4.9c0,2.4-.87,4.39-3.42,6.27a15.34,15.34,0,0,1-8.72,2.4A16,16,0,0,1,1666.38,1389.7Zm16.83-5.25c0-3-2.29-5.3-7.39-4.95l-4.89.36c-1.58.41-4.08,2.14-4.08,4.9a4.9,4.9,0,0,0,2,3.52c1.68,1.17,3.52,1.43,7.14,1.43C1677.85,1389.7,1683.46,1388.38,1683.2,1384.45Zm-4.74-21.72c0-2.24-.46-3.57-1.38-4.59a3.86,3.86,0,0,0-2.45-1.12,4.68,4.68,0,0,0-3.62,1.43c-1.63,1.73-1.84,4.08-1.84,6a6.35,6.35,0,0,0,1.63,4.44,4.16,4.16,0,0,0,3.06,1.28C1677.34,1370.17,1678.46,1365.94,1678.46,1362.73Z"/><path class="cls-1" d="M1709.37,1371.09c0,3.82,1.73,4.49,2.65,4.49a7.33,7.33,0,0,0,3.37-.66,0.42,0.42,0,0,1,.61.1l0.26,0.46a0.41,0.41,0,0,1-.1.56,8.58,8.58,0,0,1-5.66,2c-2.5,0-4.95-2.4-4.95-4.33,0-2.09.15-6.58,0.15-7.29v-1.12c0-.92.05-4.39,0.1-6.53h-3.11a0.64,0.64,0,0,1-.77-0.61c0-.41.31-0.56,0.92-0.92,1.22-.71,5.15-4.64,5.81-6.37a0.68,0.68,0,0,1,.71-0.51c0.41,0,.51.36,0.51,0.76l-0.25,5h7.09a0.33,0.33,0,0,1,.36.46l-0.51,1.78a0.42,0.42,0,0,1-.46.41h-6.58c-0.1,2.35-.15,4.84-0.15,7.19v5.1Z"/><path class="cls-1" d="M1721.61,1374.56c-2.35-2.8-2.8-4.69-2.8-8.31a10.85,10.85,0,0,1,4.38-8.21,11,11,0,0,1,6.83-2.45,10.79,10.79,0,0,1,7.14,3,11.32,11.32,0,0,1,3.47,8.31,11.64,11.64,0,0,1-11.27,11.22A10.29,10.29,0,0,1,1721.61,1374.56Zm14.74-8.21c0-5.66-4.13-9.23-6.73-9.23a4.92,4.92,0,0,0-3.93,1.63c-2,2-2.7,4.13-2.7,8,0,2.86.31,4.79,1.94,7.14a5.65,5.65,0,0,0,5,2.65C1733.84,1376.55,1736.34,1371.8,1736.34,1366.35Z"/><path class="cls-1" d="M1773.88,1346.41c0-1.94-.36-2.55-3.21-3-0.31-.05-0.36-0.15-0.36-0.36v-0.87c0-.2.1-0.31,0.41-0.36,2-.41,4.64-0.87,5.61-1.07,0.46-.05.82-0.15,1.17-0.15s0.3,0.36.25,0.92c-0.15,2.55-.2,9.94-0.2,16.42v11.27c0,1.89.1,4.13,0.51,4.64a3.8,3.8,0,0,0,2.24.87c0.71,0.05.92,0.1,1,.36l0.1,0.41a0.44,0.44,0,0,1-.36.56l-5.76,1.94a0.5,0.5,0,0,1-.66-0.41l-0.66-2.24a11.73,11.73,0,0,1-7.5,2.75,7.06,7.06,0,0,1-6-2.35c-2.6-2.55-3.21-4.84-3.21-8.26a12.15,12.15,0,0,1,3.57-8.67,10.25,10.25,0,0,1,7.6-3.21,19,19,0,0,1,5.46.76v-9.94Zm0,16.17a5,5,0,0,0-.46-2.5c-0.71-1.38-2.35-2.75-5.36-2.75a6.29,6.29,0,0,0-4.64,1.83,9.74,9.74,0,0,0-2.35,6.78c0,5.76,4,9.94,6.94,9.94s5-1.48,5.56-2.8a4.76,4.76,0,0,0,.31-1.73v-8.77Z"/><path class="cls-1" d="M1786.53,1374.56c-2.35-2.8-2.8-4.69-2.8-8.31a10.85,10.85,0,0,1,4.38-8.21,11,11,0,0,1,6.83-2.45,10.79,10.79,0,0,1,7.14,3,11.32,11.32,0,0,1,3.47,8.31,11.64,11.64,0,0,1-11.27,11.22A10.29,10.29,0,0,1,1786.53,1374.56Zm14.74-8.21c0-5.66-4.13-9.23-6.73-9.23a4.92,4.92,0,0,0-3.93,1.63c-2,2-2.7,4.13-2.7,8,0,2.86.31,4.79,1.94,7.14a5.65,5.65,0,0,0,5,2.65C1798.77,1376.55,1801.27,1371.8,1801.27,1366.35Z"/><path class="cls-1" d="M1845.33,1371.91h0.2l4.13-11.27c0.66-1.79.26-2.8-.76-2.8h-0.71c-0.25,0-.31-0.15-0.31-0.41v-1.07a0.32,0.32,0,0,1,.36-0.36c0.31,0,1.84.15,3.93,0.15s3.11-.15,3.72-0.15a0.32,0.32,0,0,1,.36.36v1.07a0.34,0.34,0,0,1-.36.41h-1.28a2.18,2.18,0,0,0-1.63.87c-0.61,1-7.09,17.24-7.75,18.87a0.9,0.9,0,0,1-1,.66,1.18,1.18,0,0,1-.92-1l-5-14.58h-0.26l-6.27,14.74a1.14,1.14,0,0,1-1.07.82,1.15,1.15,0,0,1-.87-1l-6.68-18a1.92,1.92,0,0,0-2.14-1.38h-1.12c-0.3,0-.36-0.15-0.36-0.46v-1c0-.25.05-0.41,0.3-0.41,0.71,0,1.73.15,4.64,0.15,2.29,0,3.52-.15,4.29-0.15a0.34,0.34,0,0,1,.41.41v1a0.34,0.34,0,0,1-.41.41h-0.46c-0.56,0-.92.46-0.61,1.38l4,13.56h0.2l5.2-12.49a3.1,3.1,0,0,0-.46-1.63,1.51,1.51,0,0,0-1.37-.51h-0.77a0.3,0.3,0,0,1-.36-0.36v-1.07a0.37,0.37,0,0,1,.46-0.41c0.41,0,2,.15,4.59.15,2.35,0,3.47-.15,3.88-0.15s0.46,0.1.46,0.36v1.07a0.34,0.34,0,0,1-.36.41h-1.07a0.94,0.94,0,0,0-.71,1.33Z"/><path class="cls-1" d="M1860.48,1362.62c0-1.73-.31-2.65-2.86-3.06-0.36-.05-0.46-0.15-0.46-0.36v-0.46a0.42,0.42,0,0,1,.36-0.36,41.63,41.63,0,0,0,5.51-2.5,2.12,2.12,0,0,1,1-.31c0.26,0,.31.25,0.26,0.61-0.1.87-.1,4.08-0.1,8.31v5.56c0,2,0,3.83.05,4.39,0.1,1,.25,1.33.82,1.33h2.35c0.41,0,.51.15,0.51,0.46v0.87c0,0.36-.1.51-0.46,0.51s-2.75-.15-4.9-0.15c-3,0-4.95.15-5.51,0.15a0.35,0.35,0,0,1-.41-0.41v-1c0-.31.15-0.41,0.51-0.41h2.5c0.56,0,.77-0.2.82-1,0.05-1.53.05-3.11,0.05-4.64v-7.5Zm-2.4-15.66a3,3,0,0,1,3.21-2.86,2.69,2.69,0,0,1,2.75,2.7,2.92,2.92,0,0,1-3.06,3A3.11,3.11,0,0,1,1858.08,1347Z"/><path class="cls-1" d="M1877.51,1371.09c0,3.82,1.73,4.49,2.65,4.49a7.34,7.34,0,0,0,3.37-.66,0.42,0.42,0,0,1,.61.1l0.25,0.46a0.41,0.41,0,0,1-.1.56,8.58,8.58,0,0,1-5.66,2c-2.5,0-4.95-2.4-4.95-4.33,0-2.09.15-6.58,0.15-7.29v-1.12c0-.92.05-4.39,0.1-6.53h-3.11a0.64,0.64,0,0,1-.76-0.61c0-.41.3-0.56,0.92-0.92,1.22-.71,5.15-4.64,5.81-6.37a0.69,0.69,0,0,1,.71-0.51c0.41,0,.51.36,0.51,0.76l-0.26,5h7.09a0.33,0.33,0,0,1,.36.46l-0.51,1.78a0.42,0.42,0,0,1-.46.41h-6.58c-0.1,2.35-.15,4.84-0.15,7.19v5.1Z"/><path class="cls-1" d="M1890.16,1349.67c0-3.11-.61-3.67-2.45-4.28l-0.87-.31c-0.3-.1-0.36-0.15-0.36-0.31v-0.46c0-.2.15-0.25,0.61-0.51l5.3-2.8a2.7,2.7,0,0,1,1.17-.41c0.3,0,.51.41,0.41,1.27s-0.15,11.22-.15,13.77v3.26h0.26a9.73,9.73,0,0,1,7-3.31,6.69,6.69,0,0,1,5,2c2.29,2.14,2.19,4.74,2.19,7.5V1368c0,2.86.1,6,.1,7,0,0.61.81,0.76,1.89,0.76h0.87c0.41,0,.56.1,0.56,0.46V1377c0,0.41-.1.61-0.41,0.61s-2-.15-4.9-0.15c-2.5,0-4.33.15-4.79,0.15s-0.46-.15-0.46-0.56v-0.87c0-.26.05-0.41,0.36-0.41h1.17c0.87,0,1.89-.1,1.94-1,0.05-.71,0-3.42,0-5v-4.13c0-2.86-.21-4.9-1.68-6.27a4.68,4.68,0,0,0-3.37-1.43,6.22,6.22,0,0,0-4.74,2.14,4.44,4.44,0,0,0-1,2.5v11.12c0,1.63.15,2.09,1.12,2.09h1.53c0.36,0,.56.1,0.56,0.41v0.87c0,0.36-.1.56-0.41,0.56s-2.5-.15-4.84-0.15c-2.55,0-4.49.15-4.95,0.15-0.2,0-.36-0.15-0.36-0.51v-0.92c0-.36.2-0.41,0.76-0.41h1.07c0.81,0,1.58-.2,1.68-0.82,0.15-1,.15-6.58.15-9.89v-15.4Z"/><path class="cls-1" d="M1930.8,1362.62c0-1.73-.3-2.65-2.86-3.06-0.36-.05-0.46-0.15-0.46-0.36v-0.46a0.42,0.42,0,0,1,.36-0.36,41.54,41.54,0,0,0,5.51-2.5,2.11,2.11,0,0,1,1-.31c0.25,0,.31.25,0.25,0.61-0.1.87-.1,4.08-0.1,8.31v5.56c0,2,0,3.83.05,4.39,0.1,1,.26,1.33.82,1.33h2.35c0.41,0,.51.15,0.51,0.46v0.87c0,0.36-.1.51-0.46,0.51s-2.75-.15-4.89-0.15c-3,0-4.95.15-5.51,0.15a0.35,0.35,0,0,1-.41-0.41v-1c0-.31.15-0.41,0.51-0.41h2.5c0.56,0,.76-0.2.81-1,0.05-1.53.05-3.11,0.05-4.64v-7.5Zm-2.4-15.66a3,3,0,0,1,3.21-2.86,2.69,2.69,0,0,1,2.75,2.7,2.92,2.92,0,0,1-3.06,3A3.11,3.11,0,0,1,1928.41,1347Z"/><path class="cls-1" d="M1947.84,1371.09c0,3.82,1.73,4.49,2.65,4.49a7.34,7.34,0,0,0,3.37-.66,0.42,0.42,0,0,1,.61.1l0.25,0.46a0.41,0.41,0,0,1-.1.56,8.58,8.58,0,0,1-5.66,2c-2.5,0-4.95-2.4-4.95-4.33,0-2.09.15-6.58,0.15-7.29v-1.12c0-.92.05-4.39,0.1-6.53h-3.11a0.64,0.64,0,0,1-.76-0.61c0-.41.3-0.56,0.92-0.92,1.22-.71,5.15-4.64,5.81-6.37a0.69,0.69,0,0,1,.71-0.51c0.41,0,.51.36,0.51,0.76l-0.26,5h7.09a0.33,0.33,0,0,1,.36.46l-0.51,1.78a0.42,0.42,0,0,1-.46.41H1948c-0.1,2.35-.15,4.84-0.15,7.19v5.1Z"/><path class="cls-1" d="M1965.84,1376.75a29.61,29.61,0,0,1-6.73,9.13,1.54,1.54,0,0,1-1,.41,1.2,1.2,0,0,1-1-.76,1.43,1.43,0,0,1,.46-0.87c4.84-5,8.21-11.83,8.21-21.83s-3.37-16.78-8.26-21.77a1.73,1.73,0,0,1-.41-1,1.16,1.16,0,0,1,1-.71,1.75,1.75,0,0,1,1,.36,31,31,0,0,1,7.19,9.23,31.28,31.28,0,0,1,3,13.87A30.84,30.84,0,0,1,1965.84,1376.75Z"/></svg>