<svg id="Layer_1" data-name="Layer 1" xmlns="http://www.w3.org/2000/svg" viewBox="0 0 2560 1600"><defs><style>.cls-1{fill:#fff;}</style></defs><title>intimacy</title><path class="cls-1" d="M104.8,803.91c0-1.58,1.17-4.74,4.05-12.43l2-5.36a16.12,16.12,0,0,0,1.24-4.05,0.85,0.85,0,0,0-1-.89c-1.17,0-4.39,3.71-5.49,4.81a0.49,0.49,0,0,1-.76.07l-0.55-.62c-0.27-.21-0.41-0.34-0.21-0.62s7.28-8.65,11.67-8.45a1.6,1.6,0,0,1,1.65,1.72c0,1.24-1.1,4.33-2.33,7.62l-4,10.44a16.73,16.73,0,0,0-1.24,4.53,1,1,0,0,0,.76,1.17c1.44-.27,5.15-4.19,5.49-4.81,0.14-.21.41-0.21,0.76,0.14l0.55,0.48a0.58,0.58,0,0,1,.14.82c-0.41.55-5.91,7.14-11.6,7.14C105.28,805.56,104.8,805,104.8,803.91Zm8.65-40a3.43,3.43,0,0,1,3.57-3.43,3.38,3.38,0,0,1,3.64,3.3,3.53,3.53,0,0,1-3.64,3.43A3.36,3.36,0,0,1,113.45,763.88Z"/><path class="cls-1" d="M124.3,804.94c-0.76,0-.89-0.14-0.76-0.62l4.88-12.7c1.65-4.26,3.57-9.2,3.57-10.37a1,1,0,0,0-1-1.17c-1.3,0-4.6,3.3-5.77,4.6-0.21.21-.41,0.21-0.69-0.07l-0.62-.62c-0.27-.27-0.34-0.41-0.14-0.69,1-1.24,6.11-6.94,11.05-6.94a2,2,0,0,1,2.2,2.06c0,2.13-3,8.65-3.5,10.23l0.27,0.14c2.06-3.3,9.54-12.43,15.66-12.43,2.06,0,3.43,1,3.43,2.82,0,3-1.58,6.59-3.85,12.15-1.85,4.53-3.5,8.38-3.5,9.48a0.85,0.85,0,0,0,.82.89c1,0,4.05-2.54,4.94-3.5a0.5,0.5,0,0,1,.76.14l0.48,0.55c0.27,0.27.34,0.41,0.07,0.76-0.82,1.1-6.39,6-11,6a1.38,1.38,0,0,1-1.65-1.37c0-1.3,2.47-6.73,4.6-12.63,1-2.68,3.43-8.38,3.43-9.89a1.46,1.46,0,0,0-1.72-1.58c-2.68,0-9.48,6.32-12.5,11.19a39.93,39.93,0,0,0-4.12,8.58l-1.72,4.6c-0.14.27-.27,0.41-1,0.41H124.3Z"/><path class="cls-1" d="M167.29,780.77h-4.81c-0.41,0-.55-0.14-0.41-0.55l0.55-1.51a0.69,0.69,0,0,1,.76-0.48h4.94l3.57-8a1.62,1.62,0,0,1,1.1-1,26.54,26.54,0,0,0,3.09-1.17,2.9,2.9,0,0,1,1-.41c0.41,0,.55.41,0.07,1.37l-4.53,9.2h7c0.34,0,.48.21,0.27,0.76l-0.62,1.44a0.64,0.64,0,0,1-.62.34h-7L165,796.22a18.24,18.24,0,0,0-1.58,4.39c0,0.76.27,1.17,0.89,1.17,2,0,6.45-3.91,6.87-4.39,0.21-.27.41-0.21,0.62,0l0.76,0.82a0.43,0.43,0,0,1,.07.62c-0.89,1.1-7.28,6.8-12.57,6.8-1.72,0-2.2-.69-2.2-1.65a9.2,9.2,0,0,1,.76-3.23Z"/><path class="cls-1" d="M181.71,803.91c0-1.58,1.17-4.74,4.05-12.43l2-5.36a16.12,16.12,0,0,0,1.24-4.05,0.85,0.85,0,0,0-1-.89c-1.17,0-4.39,3.71-5.49,4.81a0.49,0.49,0,0,1-.76.07l-0.55-.62c-0.27-.21-0.41-0.34-0.21-0.62s7.28-8.65,11.67-8.45a1.6,1.6,0,0,1,1.65,1.72c0,1.24-1.1,4.33-2.33,7.62l-4,10.44a16.73,16.73,0,0,0-1.24,4.53,1,1,0,0,0,.76,1.17c1.44-.27,5.15-4.19,5.49-4.81,0.14-.21.41-0.21,0.76,0.14l0.55,0.48a0.58,0.58,0,0,1,.14.82c-0.41.55-5.91,7.14-11.6,7.14C182.19,805.56,181.71,805,181.71,803.91Zm8.65-40a3.43,3.43,0,0,1,3.57-3.43,3.38,3.38,0,0,1,3.64,3.3,3.53,3.53,0,0,1-3.64,3.43A3.36,3.36,0,0,1,190.36,763.88Z"/><path class="cls-1" d="M200.59,804.94c-0.34,0-.62-0.14-0.41-0.69l5.22-12.43c1.79-4.33,3.85-9.06,4-10.3,0-.69-0.21-1.1-0.69-1.1-1,0-5.15,4.05-5.77,4.88a0.52,0.52,0,0,1-.82-0.07l-0.62-.62a0.39,0.39,0,0,1-.07-0.62c1.58-1.85,6.94-7.62,11.26-7.62a1.75,1.75,0,0,1,1.65,1.92c0,1.65-4.19,10.71-4.88,12.57l0.34,0.07c3.16-4.87,10.23-14.56,16.07-14.56a2.84,2.84,0,0,1,3,3c0,2.54-2.75,9.13-3.91,11.88l0.34,0.07c3.78-5.77,10-14.9,15.79-14.9a3.29,3.29,0,0,1,3.3,3.3c0,2.33-1.3,5.22-4.19,12.22-1.58,3.91-2.88,6.8-2.88,8a0.76,0.76,0,0,0,.76.89c1.24,0,5-4.39,5.42-4.94,0.21-.34.55-0.27,0.82,0l0.55,0.55a0.61,0.61,0,0,1,.14.76c-0.21.48-7.42,8.45-11.88,8.45A1.41,1.41,0,0,1,231.9,804c0-1.72,1.92-6.32,4.67-13,2-4.87,3.3-7.76,3.3-9.75a1.27,1.27,0,0,0-1.44-1.3c-2.33,0-9.06,7.62-13.25,13.73a21.64,21.64,0,0,0-2.82,4.88l-2.33,6a0.83,0.83,0,0,1-1,.41h-2.75c-0.55,0-.82-0.14-0.62-0.55l4.67-11.4c1.92-4.74,4-9.61,4-11.54a1.26,1.26,0,0,0-1.37-1.37c-2.33,0-8.86,7-12.77,12.5a29.09,29.09,0,0,0-3.43,5.84l-2.47,6.11a1,1,0,0,1-1.1.41h-2.61Z"/><path class="cls-1" d="M277.7,776.38c0.27,0,.34.34,0.21,0.62-1.3,2.82-4.81,12.29-5.15,13.39s-3.3,9.68-3.3,10.3a0.71,0.71,0,0,0,.76.82c0.82,0,4.33-3.57,4.81-4.19,0.21-.21.41-0.34,0.55-0.14l0.62,0.69c0.21,0.21.27,0.34,0.14,0.55-0.76,1.37-6.73,7.21-10.64,7.21a1.17,1.17,0,0,1-1.44-1.17c0-1,.69-3.16,3.3-10.44l-0.34-.14c-2.88,4.39-9.82,11.74-14.69,11.74-1.58,0-3.71-1.3-3.71-4.39,0-10,11.26-24.86,19.64-24.86,2.88,0,4.19,1.24,4.88,2.33l1.3-1.85a0.93,0.93,0,0,1,.69-0.48h2.4ZM269,788.33a12.86,12.86,0,0,0,1.65-5.7c0-1.85-.69-4.05-3.23-4.05-6.32,0-13.66,14.49-13.66,21,0,1.58.69,2.4,1.85,2.4C259.09,802,267.81,790.87,269,788.33Z"/><path class="cls-1" d="M281,799.31c0-9.34,7.62-22.93,15.59-22.93a3.7,3.7,0,0,1,3.91,3.84,3,3,0,0,1-2.82,2.88,1.76,1.76,0,0,1-1.79-1.51,2.44,2.44,0,0,0-2.13-1.79c-1.72,0-3.5,1.65-5,4.74a37.15,37.15,0,0,0-3,12c0,5,1.51,5.7,2.75,5.7,2.68,0,5.29-2.75,6-3.71,0.21-.27.41-0.41,0.62-0.27L296,799c0.21,0.14.34,0.34,0.07,0.76-1,1.44-5.49,5.91-9.89,5.91C283.74,805.63,281,803.91,281,799.31Z"/><path class="cls-1" d="M302.21,786.27c-0.14-.07-0.21-0.27-0.07-0.62,0.41-.82,4.05-9.27,8.24-9.27,2.13,0,2.88,1.72,3.43,7.76,0.69,7.83,1.17,15.86,1.3,20.32l0.27-.07c1.92-3.09,6-11.26,7-14.56a18.38,18.38,0,0,0,1-6,9.48,9.48,0,0,0-.34-2.54,6.54,6.54,0,0,1-.76-2.47c0-1.1.62-2.47,2.82-2.47,1.85,0,2.75,1.72,2.75,3.43,0,4.46-2.61,10.23-4.6,14.56-3,6.59-10.23,18.88-16.2,24.72-1.85,1.92-6.39,6.25-10.44,6.25-2.68,0-3.85-1.65-3.85-3.23a2.91,2.91,0,0,1,2.75-2.82,3.36,3.36,0,0,1,2.54,1.1,3.08,3.08,0,0,0,1.72.82,6.13,6.13,0,0,0,3.23-1.44,25.6,25.6,0,0,0,7.55-9.27,8.84,8.84,0,0,0,.55-3.85c-0.14-1.58-1.44-20.26-2.2-23.83-0.27-1.3-.62-1.92-1.17-1.92-1.24,0-3.43,4.05-4,5.56a0.47,0.47,0,0,1-.62.21Z"/></svg>