<svg id="Layer_1" data-name="Layer 1" xmlns="http://www.w3.org/2000/svg" viewBox="0 0 2560 1600"><defs><style>.cls-1{fill:#fff;}</style></defs><title>intimacy</title><path class="cls-1" d="M834.18,887.92a3.16,3.16,0,0,0,2.4-1c0.27-.34.41-0.48,0.69-0.28l0.69,0.55a0.91,0.91,0,0,1-.07,1.24,5.67,5.67,0,0,1-5.36,3.37c-2.47,0-4.26-1.79-4.87-4.6h-0.14a14.8,14.8,0,0,1-6.8,4.19,12.9,12.9,0,0,1-4.05.41c-1.65,0-4.12-1.37-4.12-5.7,0-3.16,1.44-5.91,6.87-8.31,3.09-1.37,6.66-3,7.76-4v-4.39c-0.14-1.17-.21-3-1-3.85a5.22,5.22,0,0,0-4.12-1.51,7.69,7.69,0,0,0-4.46,1.44c-1,.89-0.34,1.92-0.34,3.16,0,2.4-.82,3.91-3.64,3.91-1.1,0-1.65-.62-1.65-2.2,0-2.2,1.92-4.81,4.74-6.45a15.14,15.14,0,0,1,8.38-2.4c3.23,0,4.53,1,5.49,1.85,1.44,1.44,1.51,3,1.51,4.88v14.56C832.12,886.69,832.94,887.92,834.18,887.92Zm-7.07-12.08c-2.47,1.85-9.2,3.23-9.2,8.93,0,2.54,1.51,3.78,3.57,3.78s5.63-2.4,5.63-4.26v-8.45Z"/><path class="cls-1" d="M869.13,887.24a1.29,1.29,0,0,0,1.51,1.44h2.2c0.62,0,.76.21,0.76,0.62v1.1c0,0.48-.14.75-0.55,0.75s-2.61-.21-6.52-0.21c-3.5,0-5.7.21-6.18,0.21s-0.55-.21-0.55-0.75v-1.1c0-.48.21-0.62,0.89-0.62h2c0.76,0,1.3-.34,1.37-1.58,0.07-1.79.14-4,.14-5.77v-9.06c0-2.75,0-4.74-2-6.18-1.65-1.24-3.3-1.24-5-1.24a8.05,8.05,0,0,0-5.56,2.68A6.74,6.74,0,0,0,850,872.2v14.21c0,1.85.21,2.27,1.65,2.27h1.72a0.57,0.57,0,0,1,.69.69v1.17c0,0.41-.14.62-0.48,0.62s-2.33-.21-6-0.21-5.7.21-6.11,0.21-0.48-.21-0.48-0.62V889.3c0-.41.14-0.62,0.69-0.62h2a1.13,1.13,0,0,0,1.37-1.37V871.24a4.23,4.23,0,0,0-2.82-4.05l-0.55-.27a0.66,0.66,0,0,1-.55-0.62V866a0.8,0.8,0,0,1,.62-0.69l5.91-3.3a3.63,3.63,0,0,1,1.24-.48c0.34,0,.48.27,0.55,0.82L850,866.5h0.14c2-2.47,6-5,9.41-5a10.6,10.6,0,0,1,5.84,1.51,10,10,0,0,1,3.78,6.52v17.72Z"/><path class="cls-1" d="M899.82,849.13c0-2.61-.48-3.43-4.33-4.05-0.41-.07-0.48-0.21-0.48-0.48v-1.17c0-.28.14-0.41,0.55-0.48,2.68-.55,6.25-1.17,7.55-1.44,0.62-.07,1.1-0.21,1.58-0.21s0.41,0.48.34,1.24c-0.21,3.43-.27,13.39-0.27,22.11v15.17c0,2.54.14,5.56,0.69,6.25a5.12,5.12,0,0,0,3,1.17c1,0.07,1.24.14,1.37,0.48l0.14,0.55a0.59,0.59,0,0,1-.48.75l-7.76,2.61a0.67,0.67,0,0,1-.89-0.55l-0.89-3c-2.2,2.2-6.59,3.71-10.09,3.71-2.27,0-4.87.14-8.1-3.16-3.5-3.43-4.33-6.52-4.33-11.12a16.36,16.36,0,0,1,4.81-11.67,13.8,13.8,0,0,1,10.23-4.33,25.61,25.61,0,0,1,7.35,1V849.13Zm0,21.77a6.78,6.78,0,0,0-.62-3.37c-1-1.85-3.16-3.71-7.21-3.71a8.47,8.47,0,0,0-6.25,2.47,13.12,13.12,0,0,0-3.16,9.13c0,7.76,5.36,13.39,9.34,13.39s6.8-2,7.48-3.78a6.44,6.44,0,0,0,.41-2.33V870.9Z"/><path class="cls-1" d="M935.12,871c0-2.33-.41-3.57-3.85-4.12-0.48-.07-0.62-0.21-0.62-0.48v-0.62a0.56,0.56,0,0,1,.48-0.48,56.3,56.3,0,0,0,7.42-3.36,2.84,2.84,0,0,1,1.3-.41c0.34,0,.41.34,0.34,0.82-0.14,1.17-.14,5.49-0.14,11.19V881c0,2.68,0,5.15.07,5.91,0.14,1.3.34,1.79,1.1,1.79h3.16c0.55,0,.69.21,0.69,0.62v1.17c0,0.48-.14.69-0.62,0.69s-3.71-.21-6.59-0.21c-4,0-6.66.21-7.42,0.21a0.48,0.48,0,0,1-.55-0.55v-1.37c0-.41.21-0.55,0.69-0.55H934c0.76,0,1-.28,1.1-1.37,0.07-2.06.07-4.19,0.07-6.25V871Zm-3.23-21.08a4.05,4.05,0,0,1,4.33-3.84,3.62,3.62,0,0,1,3.71,3.64,3.93,3.93,0,0,1-4.12,4.05A4.19,4.19,0,0,1,931.89,849.88Z"/><path class="cls-1" d="M989,887.92a3.16,3.16,0,0,0,2.4-1c0.27-.34.41-0.48,0.69-0.28l0.69,0.55a0.91,0.91,0,0,1-.07,1.24,5.67,5.67,0,0,1-5.36,3.37c-2.47,0-4.26-1.79-4.88-4.6h-0.14a14.8,14.8,0,0,1-6.8,4.19,12.9,12.9,0,0,1-4.05.41c-1.65,0-4.12-1.37-4.12-5.7,0-3.16,1.44-5.91,6.87-8.31,3.09-1.37,6.66-3,7.76-4v-4.39c-0.14-1.17-.21-3-1-3.85a5.22,5.22,0,0,0-4.12-1.51,7.69,7.69,0,0,0-4.46,1.44c-1,.89-0.34,1.92-0.34,3.16,0,2.4-.82,3.91-3.64,3.91-1.1,0-1.65-.62-1.65-2.2,0-2.2,1.92-4.81,4.74-6.45a15.14,15.14,0,0,1,8.38-2.4c3.23,0,4.53,1,5.49,1.85,1.44,1.44,1.51,3,1.51,4.88v14.56C987,886.69,987.79,887.92,989,887.92Zm-7.07-12.08c-2.47,1.85-9.2,3.23-9.2,8.93,0,2.54,1.51,3.78,3.57,3.78s5.63-2.4,5.63-4.26v-8.45Z"/><path class="cls-1" d="M1018.89,873.37c0-5.08-1-6.39-2.06-7.42a7.38,7.38,0,0,0-4.39-1.24,8,8,0,0,0-6.59,4,8.16,8.16,0,0,0-1,4.6v13.6c0,1.1.41,1.79,1.37,1.79h2.47c0.62,0,.69.14,0.69,0.62v1.1c0,0.48-.07.75-0.55,0.75s-2.47-.21-6.25-0.21-5.84.21-6.39,0.21-0.55-.14-0.55-0.62V889.3c0-.55.14-0.62,0.82-0.62h2.33c0.62,0,1-.41,1-1.72s0.07-2.4.07-3.57V871.17a3.48,3.48,0,0,0-1.92-3.5l-1.44-.75a0.7,0.7,0,0,1-.48-0.55v-0.55a0.85,0.85,0,0,1,.41-0.55l6-3.09a3.4,3.4,0,0,1,1.3-.41,0.82,0.82,0,0,1,.62,1l0.27,4H1005a13.35,13.35,0,0,1,10.09-5.22,8.33,8.33,0,0,1,7.76,5.29h0.34c2.06-2.68,6-5.29,10.09-5.29,2.4,0,4.53.41,6.18,2.06s3.3,3.16,3.3,8.45v15.31a1.25,1.25,0,0,0,1.44,1.37H1046c0.62,0,.76.14,0.76,0.62v1.17c0,0.48-.14.69-0.48,0.69s-2.4-.21-5.7-0.21-5.9.21-6.39,0.21-0.55-.21-0.55-0.69V889.3c0-.48.14-0.62,0.89-0.62h1.72a1.24,1.24,0,0,0,1.37-1.3c0.14-1.58.14-4.05,0.14-5.56V871.65c0-2.27-.41-4.26-2-5.49a8.26,8.26,0,0,0-5.08-1.44,7.74,7.74,0,0,0-6,3.57c-1,2-1,3.84-1,6.93V887.1a1.33,1.33,0,0,0,1.37,1.58h2.33c0.62,0,.76.14,0.76,0.62v1.1c0,0.55-.14.75-0.48,0.75s-2.27-.21-6.11-0.21-6,.21-6.45.21-0.48-.21-0.48-0.69v-1.1c0-.55.07-0.69,0.69-0.69h2c1.1,0,1.51-.28,1.51-1.17V873.37Z"/><path class="cls-1" d="M1070.46,889.78a1.25,1.25,0,0,1-.41-1l-1.17-6.52a0.44,0.44,0,0,1,.41-0.55l0.89-.21a0.51,0.51,0,0,1,.62.41l1.72,3.36c1.37,2.54,2.33,4.26,6,4.26,2.4,0,5.42-1.44,5.42-4.67s-1.51-4.87-6.66-6.32c-4.05-1.17-8.1-3.3-8.1-8.72,0-4.74,4.46-8.38,9.61-8.38a12.8,12.8,0,0,1,6.32,1.44c1,0.48,1.17.82,1.24,1.24l1,4.81a0.64,0.64,0,0,1-.48.62l-0.82.27a0.49,0.49,0,0,1-.62-0.34l-2.33-3.16a5.25,5.25,0,0,0-4.81-2.68c-2.61,0-5.29,1.58-5.29,4.53,0,4,3.23,4.74,6.59,5.7,5,1.44,8.17,3.5,8.24,8.79-0.07,5.56-4.6,9.06-10.44,9.06A12.92,12.92,0,0,1,1070.46,889.78Z"/><path class="cls-1" d="M1097.45,871c0-2.33-.41-3.57-3.85-4.12-0.48-.07-0.62-0.21-0.62-0.48v-0.62a0.56,0.56,0,0,1,.48-0.48,56.27,56.27,0,0,0,7.42-3.36,2.84,2.84,0,0,1,1.3-.41c0.34,0,.41.34,0.34,0.82-0.14,1.17-.14,5.49-0.14,11.19V881c0,2.68,0,5.15.07,5.91,0.14,1.3.34,1.79,1.1,1.79h3.16c0.55,0,.69.21,0.69,0.62v1.17a0.55,0.55,0,0,1-.62.69c-0.55,0-3.71-.21-6.59-0.21-4,0-6.66.21-7.42,0.21a0.48,0.48,0,0,1-.55-0.55v-1.37c0-.41.21-0.55,0.69-0.55h3.36c0.76,0,1-.28,1.1-1.37,0.07-2.06.07-4.19,0.07-6.25V871Zm-3.23-21.08a4.05,4.05,0,0,1,4.33-3.84,3.62,3.62,0,0,1,3.71,3.64,3.93,3.93,0,0,1-4.12,4.05A4.19,4.19,0,0,1,1094.22,849.88Z"/><path class="cls-1" d="M1120.38,882.36c0,5.15,2.33,6,3.57,6a9.87,9.87,0,0,0,4.53-.89,0.56,0.56,0,0,1,.82.14l0.34,0.62a0.55,0.55,0,0,1-.14.75,11.55,11.55,0,0,1-7.62,2.75c-3.36,0-6.66-3.23-6.66-5.84,0-2.82.21-8.86,0.21-9.82V874.6c0-1.24.07-5.91,0.14-8.79h-4.19a0.86,0.86,0,0,1-1-.82c0-.55.41-0.76,1.24-1.24,1.65-1,6.94-6.25,7.83-8.58a0.92,0.92,0,0,1,1-.69c0.55,0,.69.48,0.69,1l-0.34,6.73h9.54a0.45,0.45,0,0,1,.48.62l-0.69,2.4a0.56,0.56,0,0,1-.62.55h-8.86c-0.14,3.16-.21,6.52-0.21,9.68v6.87Z"/><path class="cls-1" d="M1142.29,882.36c0,5.15,2.33,6,3.57,6a9.87,9.87,0,0,0,4.53-.89,0.56,0.56,0,0,1,.82.14l0.34,0.62a0.55,0.55,0,0,1-.14.75,11.55,11.55,0,0,1-7.62,2.75c-3.36,0-6.66-3.23-6.66-5.84,0-2.82.21-8.86,0.21-9.82V874.6c0-1.24.07-5.91,0.14-8.79h-4.19a0.86,0.86,0,0,1-1-.82c0-.55.41-0.76,1.24-1.24,1.65-1,6.94-6.25,7.83-8.58a0.92,0.92,0,0,1,1-.69c0.55,0,.69.48,0.69,1l-0.34,6.73h9.54a0.45,0.45,0,0,1,.48.62l-0.69,2.4a0.56,0.56,0,0,1-.62.55h-8.86c-0.14,3.16-.21,6.52-0.21,9.68v6.87Z"/><path class="cls-1" d="M1159.59,871c0-2.33-.41-3.57-3.85-4.12-0.48-.07-0.62-0.21-0.62-0.48v-0.62a0.56,0.56,0,0,1,.48-0.48,56.3,56.3,0,0,0,7.42-3.36,2.84,2.84,0,0,1,1.3-.41c0.34,0,.41.34,0.34,0.82-0.14,1.17-.14,5.49-0.14,11.19V881c0,2.68,0,5.15.07,5.91,0.14,1.3.34,1.79,1.1,1.79h3.16c0.55,0,.69.21,0.69,0.62v1.17c0,0.48-.14.69-0.62,0.69s-3.71-.21-6.59-0.21c-4,0-6.66.21-7.42,0.21a0.48,0.48,0,0,1-.55-0.55v-1.37c0-.41.21-0.55,0.69-0.55h3.36c0.76,0,1-.28,1.1-1.37,0.07-2.06.07-4.19,0.07-6.25V871Zm-3.23-21.08a4.05,4.05,0,0,1,4.33-3.84,3.62,3.62,0,0,1,3.71,3.64,3.93,3.93,0,0,1-4.12,4.05A4.19,4.19,0,0,1,1156.36,849.88Z"/><path class="cls-1" d="M1201.68,887.24a1.29,1.29,0,0,0,1.51,1.44h2.2c0.62,0,.76.21,0.76,0.62v1.1c0,0.48-.14.75-0.55,0.75s-2.61-.21-6.52-0.21c-3.5,0-5.7.21-6.18,0.21s-0.55-.21-0.55-0.75v-1.1c0-.48.21-0.62,0.89-0.62h2c0.76,0,1.3-.34,1.37-1.58,0.07-1.79.14-4,.14-5.77v-9.06c0-2.75,0-4.74-2-6.18-1.65-1.24-3.3-1.24-5-1.24a8.05,8.05,0,0,0-5.56,2.68,6.74,6.74,0,0,0-1.58,4.67v14.21c0,1.85.21,2.27,1.65,2.27H1186a0.57,0.57,0,0,1,.69.69v1.17c0,0.41-.14.62-0.48,0.62s-2.33-.21-6-0.21-5.7.21-6.11,0.21-0.48-.21-0.48-0.62V889.3c0-.41.14-0.62,0.69-0.62h2a1.13,1.13,0,0,0,1.37-1.37V871.24a4.23,4.23,0,0,0-2.82-4.05l-0.55-.27a0.66,0.66,0,0,1-.55-0.62V866a0.8,0.8,0,0,1,.62-0.69l5.9-3.3a3.63,3.63,0,0,1,1.24-.48c0.34,0,.48.27,0.55,0.82l0.48,4.19h0.14c2-2.47,6-5,9.41-5a10.6,10.6,0,0,1,5.84,1.51,10,10,0,0,1,3.78,6.52v17.72Z"/><path class="cls-1" d="M1211.92,907.42c-2.47-1.51-3.5-3.3-3.5-5.56,0-3.85,3.91-6.8,7.21-8.24v-0.27c-2.88-.62-4.6-2.75-4.6-4.81,0-3.3,3.78-5.63,6.18-6.52v-0.14a10.92,10.92,0,0,1-6.39-10.44c0-4.46,4-10,11.74-10a11,11,0,0,1,8.65,4c1.85-1.3,4.19-2.68,6.45-2.68s3.36,1.51,3.23,2.88a2.61,2.61,0,0,1-2.68,2.54,3.42,3.42,0,0,1-2.4-1,2.74,2.74,0,0,0-1.44-.62,5,5,0,0,0-2.2.41,13,13,0,0,1,1,5.22,11.32,11.32,0,0,1-2.54,7.42,12.28,12.28,0,0,1-11.47,3.09c-1.37.55-3.64,1.92-3.64,3.85,0,2.82,3.43,2.61,8,2.33,5.63-.28,9.06.34,11.81,2.47a8.07,8.07,0,0,1,3.36,6.59c0,3.23-1.17,5.91-4.6,8.45a20.66,20.66,0,0,1-11.74,3.23C1219.13,909.62,1215.21,909.28,1211.92,907.42Zm22.66-7.07c0-4.05-3.09-7.14-10-6.66l-6.59.48c-2.13.55-5.49,2.88-5.49,6.59a6.59,6.59,0,0,0,2.68,4.74c2.27,1.58,4.74,1.92,9.61,1.92C1227.37,907.42,1234.92,905.64,1234.58,900.35Zm-6.39-29.25c0-3-.62-4.81-1.85-6.18a5.2,5.2,0,0,0-3.3-1.51,6.3,6.3,0,0,0-4.88,1.92c-2.2,2.33-2.47,5.49-2.47,8.1a8.55,8.55,0,0,0,2.2,6,5.6,5.6,0,0,0,4.12,1.72C1226.68,881.13,1228.19,875.43,1228.19,871.1Z"/><path class="cls-1" d="M1287.93,893.42c0,4.26.21,10.09,0.34,11.95,0.07,1.24.48,2,1.44,2h2.13c0.48,0,.69.14,0.69,0.41v1.51c0,0.41-.14.55-0.48,0.55-0.62,0-3.16-.21-6.66-0.21-4.33,0-6.66.21-7.21,0.21s-0.55-.14-0.55-0.62v-1.37c0-.34.14-0.48,0.76-0.48h2.81a1.4,1.4,0,0,0,1.65-1.44c0.14-1,.14-11.19.14-15.72v-1.72h-0.14a15.43,15.43,0,0,1-9.82,3.3c-4.87,0-12.29-2.61-12.29-14.42a17.91,17.91,0,0,1,5.84-12.57,13.26,13.26,0,0,1,9.06-3.3,25.15,25.15,0,0,1,8.17,1.51l3.64-1.51a0.51,0.51,0,0,1,.62.07l0.62,0.48a1,1,0,0,1,0,1,42.29,42.29,0,0,0-.55,4.53c-0.14,1.51-.21,4.94-0.21,10.16v15.66ZM1283,870c-0.55-4.81-5.22-6.32-7.9-6.32-6,0-9.06,7.28-9.06,11.33,0,6.52,2.13,9.13,3.64,11.05a8.26,8.26,0,0,0,6,2.88,9.76,9.76,0,0,0,7.28-3.09V870Z"/><path class="cls-1" d="M1321.71,877c0,3.3,0,6.66.14,8.1,0.21,2.13,1,2.4,1.79,2.4a10.11,10.11,0,0,0,2.27-.21c0.55-.14.76,0,0.82,0.28l0.21,0.89a0.44,0.44,0,0,1-.34.62l-7.21,2.4a4.05,4.05,0,0,1-1.37.28c-0.27,0-.55-0.14-0.62-0.82l-0.55-4h-0.14a12.54,12.54,0,0,1-9.34,4.81,7.18,7.18,0,0,1-6.45-3.16c-2.81-3.64-2.68-5.91-2.68-13.46v-8c-0.07-1.92-1-2.4-2.61-2.61-1.17-.07-1.51-0.14-1.51-0.48v-1.24c0-.41.14-0.55,0.76-0.55H1301a3.6,3.6,0,0,0,1-.14c0.27,0,.55-0.07.76-0.07a0.71,0.71,0,0,1,.75.82c-0.07.62-.27,3.85-0.27,7.9v4.94c0,2.75-.69,7.14,1.51,10.3,1.72,2.47,3.64,2.61,5.49,2.61s4.6-1.79,5.9-3.43a3.74,3.74,0,0,0,.69-1.85V866.91c-0.14-1.92-1.24-2.27-3-2.4-1.17,0-1.51-.14-1.51-0.48v-1.17c0-.55.14-0.62,0.82-0.62h6.39a5.47,5.47,0,0,0,1.17-.14c0.34,0,.62-0.07.82-0.07a0.59,0.59,0,0,1,.62.69,60.86,60.86,0,0,0-.41,9.13V877Z"/><path class="cls-1" d="M1334.83,871c0-2.33-.41-3.57-3.85-4.12-0.48-.07-0.62-0.21-0.62-0.48v-0.62a0.56,0.56,0,0,1,.48-0.48,56.3,56.3,0,0,0,7.42-3.36,2.84,2.84,0,0,1,1.3-.41c0.34,0,.41.34,0.34,0.82-0.14,1.17-.14,5.49-0.14,11.19V881c0,2.68,0,5.15.07,5.91,0.14,1.3.34,1.79,1.1,1.79h3.16c0.55,0,.69.21,0.69,0.62v1.17c0,0.48-.14.69-0.62,0.69s-3.71-.21-6.59-0.21c-4,0-6.66.21-7.42,0.21a0.48,0.48,0,0,1-.55-0.55v-1.37c0-.41.21-0.55,0.69-0.55h3.36c0.76,0,1-.28,1.1-1.37,0.07-2.06.07-4.19,0.07-6.25V871Zm-3.23-21.08a4.05,4.05,0,0,1,4.33-3.84,3.62,3.62,0,0,1,3.71,3.64,3.93,3.93,0,0,1-4.12,4.05A4.19,4.19,0,0,1,1331.6,849.88Z"/><path class="cls-1" d="M1354.06,872.68a17.64,17.64,0,0,0-.21,3.3c0,6.73,4.26,11.81,9.75,11.81a9.3,9.3,0,0,0,8.31-4.67,0.56,0.56,0,0,1,.62-0.34l0.89,0.48c0.21,0.07.34,0.27,0,1-1.24,2.75-4.81,7.48-10.92,7.48-3.91,0-8.24-1.17-10.78-4.87-2.4-3.5-3-6-3-10.85a15.46,15.46,0,0,1,4.33-10.92c3-3,6.39-3.64,9.82-3.64,7.9,0,10.09,7.42,10.09,10.09,0,1-.82,1.1-1.92,1.1h-17Zm10.92-2.06c1.3,0,1.85-.34,1.85-1,0-1.58-.82-6.11-5.29-6.11-3,0-5.9,2-7.21,7.07H1365Z"/><path class="cls-1" d="M1387,882.36c0,5.15,2.33,6,3.57,6a9.87,9.87,0,0,0,4.53-.89,0.56,0.56,0,0,1,.82.14l0.34,0.62a0.55,0.55,0,0,1-.14.75,11.55,11.55,0,0,1-7.62,2.75c-3.36,0-6.66-3.23-6.66-5.84,0-2.82.21-8.86,0.21-9.82V874.6c0-1.24.07-5.91,0.14-8.79H1378a0.86,0.86,0,0,1-1-.82c0-.55.41-0.76,1.24-1.24,1.65-1,6.94-6.25,7.83-8.58a0.92,0.92,0,0,1,1-.69c0.55,0,.69.48,0.69,1l-0.34,6.73h9.54a0.45,0.45,0,0,1,.48.62l-0.69,2.4a0.56,0.56,0,0,1-.62.55h-8.86c-0.14,3.16-.21,6.52-0.21,9.68v6.87Z"/><path class="cls-1" d="M1408.85,870.48c0,3.57,0,13.94.07,16.07,0.07,1.17.34,2.13,1.79,2.13h3.09c0.62,0,.76.21,0.76,0.62v1.17c0,0.41-.14.69-0.41,0.69-0.48,0-3.5-.21-7.76-0.21s-7.14.21-7.76,0.21c-0.34,0-.48-0.27-0.48-0.69V889.3c0-.48.14-0.62,0.89-0.62h3.3a1.54,1.54,0,0,0,1.51-1.72c0.07-2.13.07-13.94,0.07-17.92v-4.33c0-4.88-.07-11.12-0.21-12.91-0.14-2.33-1.24-3.43-3.43-4.12l-1.37-.48c-0.34-.14-0.41-0.21-0.41-0.34v-0.55a0.68,0.68,0,0,1,.62-0.48,62.23,62.23,0,0,0,8-4,2.54,2.54,0,0,1,1.44-.55c0.48,0,.62.34,0.55,1.24-0.07,3.78-.27,18.06-0.27,21.83v6.11Z"/><path class="cls-1" d="M1415.65,906.12a3,3,0,0,1,3.16-2.68,11.81,11.81,0,0,1,3.16.75,1.64,1.64,0,0,0,1.44-.41c1-1.24,4.53-9.06,5.49-11.74-0.34-1.72-7.62-23.21-8.17-24.65-0.82-1.72-1.44-2.88-3.23-2.88h-1.79c-0.48,0-.55-0.21-0.55-0.62v-1.37c0-.28.07-0.48,0.55-0.48s2.27,0.21,6.32.21c3.5,0,5.63-.21,6.39-0.21,0.55,0,.62.21,0.62,0.48V864c0,0.34-.07.55-0.41,0.55h-1.3c-0.76,0-1,.48-0.89,1.51,0.21,1.51,4.88,16.68,5.63,18.2h0.27c0.69-1.1,6.66-15.38,7.07-17.1s-0.14-2.61-1.17-2.61h-1.1c-0.41,0-.48-0.21-0.48-0.55v-1.37c0-.34.07-0.55,0.41-0.55,0.89,0,2.33.21,5.63,0.21,1.85,0,3.43-.21,4.19-0.21,0.41,0,.41.28,0.41,0.55v1.3c0,0.41,0,.62-0.34.62h-1.1a3.08,3.08,0,0,0-2.4,1.24c-1.51,1.85-6,12.36-10.78,23.14-3.36,7.62-6,14-7.28,16.27-1,1.79-2.2,4.46-5.84,4.46C1417,909.62,1415.65,908.18,1415.65,906.12Z"/><path class="cls-1" d="M1468,853.94c0-4.6-.76-5.56-3.23-6.39l-0.69-.21c-0.76-.21-0.89-0.34-0.89-0.55v-0.55a0.7,0.7,0,0,1,.55-0.55,72.51,72.51,0,0,0,7.28-3.78,2.87,2.87,0,0,1,1.44-.62c0.48,0,.62.34,0.55,1.17-0.07.55-.07,8.38-0.07,14.49v8c2.2-2.13,6.11-3.43,9.48-3.43,6,0,12.57,4.88,12.57,14.69,0,8-6.45,15.59-14.28,15.59a15.85,15.85,0,0,1-8.1-1.79l-2.75,1.51a1,1,0,0,1-.89.21l-0.82-.21c-0.27-.07-0.34-0.21-0.27-0.55,0.14-1,.14-6.66.14-11.67V853.94Zm4.94,22.25c0,5.7.21,7.76,1,10,0.69,1.65,3.57,3.43,6.52,3.43,4.12,0,9.2-2.82,9.2-11.81,0-6.66-3.5-13-10.23-13a9.14,9.14,0,0,0-6.52,2.47v8.93Z"/><path class="cls-1" d="M1505.61,872.68a17.64,17.64,0,0,0-.21,3.3c0,6.73,4.26,11.81,9.75,11.81a9.3,9.3,0,0,0,8.31-4.67,0.56,0.56,0,0,1,.62-0.34l0.89,0.48c0.21,0.07.34,0.27,0,1-1.24,2.75-4.81,7.48-10.92,7.48-3.91,0-8.24-1.17-10.78-4.87-2.4-3.5-3-6-3-10.85a15.46,15.46,0,0,1,4.33-10.92c3-3,6.39-3.64,9.82-3.64,7.9,0,10.09,7.42,10.09,10.09,0,1-.82,1.1-1.92,1.1h-17Zm10.92-2.06c1.3,0,1.85-.34,1.85-1,0-1.58-.82-6.11-5.29-6.11-3,0-5.91,2-7.21,7.07h10.64Z"/><path class="cls-1" d="M1531.43,889.78a1.25,1.25,0,0,1-.41-1l-1.17-6.52a0.44,0.44,0,0,1,.41-0.55l0.89-.21a0.51,0.51,0,0,1,.62.41l1.72,3.36c1.37,2.54,2.33,4.26,6,4.26,2.4,0,5.42-1.44,5.42-4.67s-1.51-4.87-6.66-6.32c-4.05-1.17-8.1-3.3-8.1-8.72,0-4.74,4.46-8.38,9.61-8.38a12.8,12.8,0,0,1,6.32,1.44c1,0.48,1.17.82,1.24,1.24l1,4.81a0.64,0.64,0,0,1-.48.62l-0.82.27a0.49,0.49,0,0,1-.62-0.34l-2.33-3.16a5.25,5.25,0,0,0-4.81-2.68c-2.61,0-5.29,1.58-5.29,4.53,0,4,3.23,4.74,6.59,5.7,5,1.44,8.17,3.5,8.24,8.79-0.07,5.56-4.6,9.06-10.44,9.06A12.92,12.92,0,0,1,1531.43,889.78Z"/><path class="cls-1" d="M1558.41,871c0-2.33-.41-3.57-3.85-4.12-0.48-.07-0.62-0.21-0.62-0.48v-0.62a0.56,0.56,0,0,1,.48-0.48,56.3,56.3,0,0,0,7.42-3.36,2.84,2.84,0,0,1,1.3-.41c0.34,0,.41.34,0.34,0.82-0.14,1.17-.14,5.49-0.14,11.19V881c0,2.68,0,5.15.07,5.91,0.14,1.3.34,1.79,1.1,1.79h3.16c0.55,0,.69.21,0.69,0.62v1.17c0,0.48-.14.69-0.62,0.69s-3.71-.21-6.59-0.21c-4,0-6.66.21-7.42,0.21a0.48,0.48,0,0,1-.55-0.55v-1.37c0-.41.21-0.55,0.69-0.55h3.36c0.76,0,1-.28,1.1-1.37,0.07-2.06.07-4.19,0.07-6.25V871Zm-3.23-21.08a4.05,4.05,0,0,1,4.33-3.84,3.62,3.62,0,0,1,3.71,3.64,3.93,3.93,0,0,1-4.12,4.05A4.19,4.19,0,0,1,1555.18,849.88Z"/><path class="cls-1" d="M1594.67,849.13c0-2.61-.48-3.43-4.33-4.05-0.41-.07-0.48-0.21-0.48-0.48v-1.17c0-.28.14-0.41,0.55-0.48,2.68-.55,6.25-1.17,7.55-1.44,0.62-.07,1.1-0.21,1.58-0.21s0.41,0.48.34,1.24c-0.21,3.43-.27,13.39-0.27,22.11v15.17c0,2.54.14,5.56,0.69,6.25a5.12,5.12,0,0,0,3,1.17c1,0.07,1.24.14,1.37,0.48l0.14,0.55a0.59,0.59,0,0,1-.48.75l-7.76,2.61a0.67,0.67,0,0,1-.89-0.55l-0.89-3c-2.2,2.2-6.59,3.71-10.09,3.71-2.27,0-4.88.14-8.1-3.16-3.5-3.43-4.33-6.52-4.33-11.12a16.36,16.36,0,0,1,4.81-11.67,13.8,13.8,0,0,1,10.23-4.33,25.61,25.61,0,0,1,7.35,1V849.13Zm0,21.77a6.79,6.79,0,0,0-.62-3.37c-1-1.85-3.16-3.71-7.21-3.71a8.47,8.47,0,0,0-6.25,2.47,13.12,13.12,0,0,0-3.16,9.13c0,7.76,5.36,13.39,9.34,13.39s6.8-2,7.48-3.78a6.44,6.44,0,0,0,.41-2.33V870.9Z"/><path class="cls-1" d="M1613.41,872.68a17.6,17.6,0,0,0-.21,3.3c0,6.73,4.26,11.81,9.75,11.81a9.3,9.3,0,0,0,8.31-4.67,0.56,0.56,0,0,1,.62-0.34l0.89,0.48c0.21,0.07.34,0.27,0,1-1.24,2.75-4.81,7.48-10.92,7.48-3.91,0-8.24-1.17-10.78-4.87-2.4-3.5-3-6-3-10.85a15.46,15.46,0,0,1,4.33-10.92c3-3,6.39-3.64,9.82-3.64,7.9,0,10.09,7.42,10.09,10.09,0,1-.82,1.1-1.92,1.1h-17Zm10.92-2.06c1.3,0,1.85-.34,1.85-1,0-1.58-.82-6.11-5.29-6.11-3,0-5.91,2-7.21,7.07h10.64Z"/><path class="cls-1" d="M1652.14,906.12a3,3,0,0,1,3.16-2.68,11.82,11.82,0,0,1,3.16.75,1.65,1.65,0,0,0,1.44-.41c1-1.24,4.53-9.06,5.49-11.74-0.34-1.72-7.62-23.21-8.17-24.65-0.82-1.72-1.44-2.88-3.23-2.88h-1.79c-0.48,0-.55-0.21-0.55-0.62v-1.37c0-.28.07-0.48,0.55-0.48s2.27,0.21,6.32.21c3.5,0,5.63-.21,6.39-0.21,0.55,0,.62.21,0.62,0.48V864c0,0.34-.07.55-0.41,0.55h-1.3c-0.75,0-1,.48-0.89,1.51,0.21,1.51,4.88,16.68,5.63,18.2h0.27c0.69-1.1,6.66-15.38,7.07-17.1s-0.14-2.61-1.17-2.61h-1.1c-0.41,0-.48-0.21-0.48-0.55v-1.37c0-.34.07-0.55,0.41-0.55,0.89,0,2.33.21,5.63,0.21,1.85,0,3.43-.21,4.19-0.21,0.41,0,.41.28,0.41,0.55v1.3c0,0.41,0,.62-0.34.62h-1.1a3.08,3.08,0,0,0-2.4,1.24c-1.51,1.85-6,12.36-10.78,23.14-3.36,7.62-6,14-7.28,16.27-1,1.79-2.2,4.46-5.84,4.46C1653.45,909.62,1652.14,908.18,1652.14,906.12Z"/><path class="cls-1" d="M1687.51,887c-3.16-3.78-3.78-6.32-3.78-11.19a14.6,14.6,0,0,1,5.9-11.05,14.86,14.86,0,0,1,9.2-3.3,14.54,14.54,0,0,1,9.61,4,15.25,15.25,0,0,1,4.67,11.19c0,7.48-6.73,15.11-15.17,15.11A13.85,13.85,0,0,1,1687.51,887ZM1707.35,876c0-7.62-5.56-12.43-9.06-12.43a6.63,6.63,0,0,0-5.29,2.2c-2.68,2.75-3.64,5.56-3.64,10.78,0,3.85.41,6.46,2.61,9.61a7.6,7.6,0,0,0,6.8,3.57C1704,889.71,1707.35,883.32,1707.35,876Z"/><path class="cls-1" d="M1744.16,877c0,3.3,0,6.66.14,8.1,0.21,2.13,1,2.4,1.79,2.4a10.11,10.11,0,0,0,2.27-.21c0.55-.14.76,0,0.82,0.28l0.21,0.89a0.44,0.44,0,0,1-.34.62l-7.21,2.4a4.05,4.05,0,0,1-1.37.28c-0.27,0-.55-0.14-0.62-0.82l-0.55-4h-0.14a12.54,12.54,0,0,1-9.34,4.81,7.18,7.18,0,0,1-6.45-3.16c-2.81-3.64-2.68-5.91-2.68-13.46v-8c-0.07-1.92-1-2.4-2.61-2.61-1.17-.07-1.51-0.14-1.51-0.48v-1.24c0-.41.14-0.55,0.76-0.55h6.11a3.6,3.6,0,0,0,1-.14c0.27,0,.55-0.07.76-0.07a0.71,0.71,0,0,1,.75.82c-0.07.62-.27,3.85-0.27,7.9v4.94c0,2.75-.69,7.14,1.51,10.3,1.72,2.47,3.64,2.61,5.49,2.61s4.6-1.79,5.9-3.43a3.74,3.74,0,0,0,.69-1.85V866.91c-0.14-1.92-1.24-2.27-3-2.4-1.17,0-1.51-.14-1.51-0.48v-1.17c0-.55.14-0.62,0.82-0.62H1742a5.47,5.47,0,0,0,1.17-.14c0.34,0,.62-0.07.82-0.07a0.59,0.59,0,0,1,.62.69,60.86,60.86,0,0,0-.41,9.13V877Z"/><path class="cls-1" d="M1287.21,171.64c0,7.21-6.66,12.08-8,12.91a3.54,3.54,0,0,1-1.37.62q-0.82,0-.82-0.62a1.14,1.14,0,0,1,.62-1c1.65-1.51,4.88-4.87,4.88-8.65a2.42,2.42,0,0,0-1.17-2.06c-0.69-.27-3.91-1.1-3.91-4.53,0-1.72,1.37-3.23,3.85-3.23A6.43,6.43,0,0,1,1287.21,171.64Z"/><path class="cls-1" d="M1174.08,310.64a1.29,1.29,0,0,0,1.51,1.44h2.2c0.62,0,.76.21,0.76,0.62v1.1c0,0.48-.14.75-0.55,0.75s-2.61-.21-6.52-0.21c-3.5,0-5.7.21-6.18,0.21s-0.55-.21-0.55-0.75v-1.1c0-.48.21-0.62,0.89-0.62h2c0.76,0,1.3-.34,1.37-1.58,0.07-1.79.14-4,.14-5.77v-9.06c0-2.75,0-4.74-2-6.18-1.65-1.24-3.3-1.24-5-1.24a8.05,8.05,0,0,0-5.56,2.68,6.73,6.73,0,0,0-1.58,4.67v14.21c0,1.85.21,2.27,1.65,2.27h1.72a0.57,0.57,0,0,1,.69.69v1.17c0,0.41-.14.62-0.48,0.62s-2.33-.21-6-0.21-5.7.21-6.11,0.21-0.48-.21-0.48-0.62v-1.24c0-.41.14-0.62,0.69-0.62h2a1.13,1.13,0,0,0,1.37-1.37V294.64a4.23,4.23,0,0,0-2.81-4.05l-0.55-.27a0.66,0.66,0,0,1-.55-0.62v-0.34a0.8,0.8,0,0,1,.62-0.69l5.91-3.3a3.63,3.63,0,0,1,1.24-.48c0.34,0,.48.27,0.55,0.82l0.48,4.19h0.14c2-2.47,6-5,9.41-5a10.6,10.6,0,0,1,5.84,1.51,10,10,0,0,1,3.78,6.52v17.72Z"/><path class="cls-1" d="M1193.24,310.91c-4.87-3-10.09-10.37-10.09-20.39a26.67,26.67,0,0,1,6.39-17.1,22.47,22.47,0,0,1,18.61-8.72,23.13,23.13,0,0,1,15.38,5.42,26.45,26.45,0,0,1,9.41,20.53,25,25,0,0,1-5.15,15c-4.19,5.56-10.3,9.68-19.78,9.68A30.1,30.1,0,0,1,1193.24,310.91Zm33-19.71c0-15-10.71-23.9-18.33-23.9-1,0-5.7-.82-10.85,4.05-4.6,4.39-6.87,11.33-6.87,17,0,18.06,12.57,24.44,18.4,24.44C1223.66,312.76,1226.2,297.31,1226.2,291.2Z"/><path class="cls-1" d="M1261.15,272.53c0-2.61-.48-3.43-4.33-4.05-0.41-.07-0.48-0.21-0.48-0.48v-1.17c0-.28.14-0.41,0.55-0.48,2.68-.55,6.25-1.17,7.55-1.44,0.62-.07,1.1-0.21,1.58-0.21s0.41,0.48.34,1.24c-0.21,3.43-.27,13.39-0.27,22.11v15.17c0,2.54.14,5.56,0.69,6.25a5.12,5.12,0,0,0,3,1.17c1,0.07,1.24.14,1.37,0.48l0.14,0.55a0.59,0.59,0,0,1-.48.75l-7.76,2.61a0.67,0.67,0,0,1-.89-0.55l-0.89-3c-2.2,2.2-6.59,3.71-10.09,3.71-2.27,0-4.87.14-8.1-3.16-3.5-3.43-4.33-6.52-4.33-11.12a16.36,16.36,0,0,1,4.81-11.67,13.8,13.8,0,0,1,10.23-4.33,25.61,25.61,0,0,1,7.35,1V272.53Zm0,21.77a6.78,6.78,0,0,0-.62-3.37c-1-1.85-3.16-3.71-7.21-3.71a8.47,8.47,0,0,0-6.25,2.47,13.12,13.12,0,0,0-3.16,9.13c0,7.76,5.36,13.39,9.34,13.39s6.8-2,7.48-3.78a6.44,6.44,0,0,0,.41-2.33V294.29Z"/><path class="cls-1" d="M1281.82,282.83c0-1.79-.21-11.54-0.34-12.7-0.21-1.65-1.1-1.92-3-1.92h-3.78c-0.34,0-.55-0.07-0.55-0.48v-1.85c0-.27.21-0.34,0.48-0.34,0.89,0,3.91.21,10.09,0.21,1.79,0,8.65-.21,10.23-0.21,8.86,0,16.27,1,22.32,6.18,4.46,3.84,7.62,9.54,7.62,17.51s-2.27,13.11-6.8,18.06c-6.59,7.28-16.07,7.28-21.35,7.28-4.33,0-9.54-.21-12.63-0.21-6,0-8.72.21-9.68,0.21a0.41,0.41,0,0,1-.48-0.48v-1.79a0.45,0.45,0,0,1,.55-0.41h4.6c1.3,0,2.06-.55,2.2-1.65,0.21-1.44.48-16.89,0.48-22.25v-5.15Zm6.32,6.66c0,0.89.07,12.57,0.14,16.82a6.45,6.45,0,0,0,1.17,3.85c1.1,1.44,3.85,2.2,7.28,2.2a20.14,20.14,0,0,0,16.14-7.42,25.17,25.17,0,0,0,5-15.45,24.36,24.36,0,0,0-5.63-15.17c-3.57-3.91-9.61-6.59-17.23-6.59-1.51,0-4.33,0-5.49.69-1,.62-1.24,1.72-1.3,3.23-0.07,2.88-.07,11.88-0.07,13v4.88Z"/><path class="cls-1" d="M1334.83,294.36c0-2.33-.41-3.57-3.85-4.12-0.48-.07-0.62-0.21-0.62-0.48v-0.62a0.56,0.56,0,0,1,.48-0.48,56.3,56.3,0,0,0,7.42-3.36,2.84,2.84,0,0,1,1.3-.41c0.34,0,.41.34,0.34,0.82-0.14,1.17-.14,5.49-0.14,11.19v7.48c0,2.68,0,5.15.07,5.91,0.14,1.3.34,1.79,1.1,1.79h3.16c0.55,0,.69.21,0.69,0.62v1.17c0,0.48-.14.69-0.62,0.69s-3.71-.21-6.59-0.21c-4,0-6.66.21-7.42,0.21a0.48,0.48,0,0,1-.55-0.55v-1.37c0-.41.21-0.55,0.69-0.55h3.36c0.76,0,1-.28,1.1-1.37,0.07-2.06.07-4.19,0.07-6.25V294.36Zm-3.23-21.08a4.05,4.05,0,0,1,4.33-3.84,3.62,3.62,0,0,1,3.71,3.64,3.93,3.93,0,0,1-4.12,4.05A4.19,4.19,0,0,1,1331.6,273.28Z"/><path class="cls-1" d="M1376.92,310.64a1.29,1.29,0,0,0,1.51,1.44h2.2c0.62,0,.75.21,0.75,0.62v1.1c0,0.48-.14.75-0.55,0.75s-2.61-.21-6.52-0.21c-3.5,0-5.7.21-6.18,0.21s-0.55-.21-0.55-0.75v-1.1c0-.48.21-0.62,0.89-0.62h2c0.76,0,1.3-.34,1.37-1.58,0.07-1.79.14-4,.14-5.77v-9.06c0-2.75,0-4.74-2-6.18-1.65-1.24-3.3-1.24-5-1.24a8.05,8.05,0,0,0-5.56,2.68,6.74,6.74,0,0,0-1.58,4.67v14.21c0,1.85.21,2.27,1.65,2.27h1.72a0.57,0.57,0,0,1,.69.69v1.17c0,0.41-.14.62-0.48,0.62s-2.33-.21-6-0.21-5.7.21-6.11,0.21-0.48-.21-0.48-0.62v-1.24c0-.41.14-0.62,0.69-0.62h2a1.13,1.13,0,0,0,1.37-1.37V294.64a4.23,4.23,0,0,0-2.82-4.05l-0.55-.27a0.66,0.66,0,0,1-.55-0.62v-0.34a0.8,0.8,0,0,1,.62-0.69l5.91-3.3a3.63,3.63,0,0,1,1.24-.48c0.34,0,.48.27,0.55,0.82l0.48,4.19h0.14c2-2.47,6-5,9.41-5a10.6,10.6,0,0,1,5.84,1.51,10,10,0,0,1,3.78,6.52v17.72Z"/><path class="cls-1" d="M1387.16,330.82c-2.47-1.51-3.5-3.3-3.5-5.56,0-3.85,3.91-6.8,7.21-8.24v-0.27c-2.88-.62-4.6-2.75-4.6-4.81,0-3.3,3.78-5.63,6.18-6.52v-0.14a10.92,10.92,0,0,1-6.39-10.44c0-4.46,4-10,11.74-10a11,11,0,0,1,8.65,4c1.85-1.3,4.19-2.68,6.45-2.68s3.36,1.51,3.23,2.88a2.61,2.61,0,0,1-2.68,2.54,3.42,3.42,0,0,1-2.4-1,2.74,2.74,0,0,0-1.44-.62,5,5,0,0,0-2.2.41,13,13,0,0,1,1,5.22,11.32,11.32,0,0,1-2.54,7.42,12.28,12.28,0,0,1-11.47,3.09c-1.37.55-3.64,1.92-3.64,3.85,0,2.82,3.43,2.61,8,2.33,5.63-.28,9.06.34,11.81,2.47a8.07,8.07,0,0,1,3.36,6.59c0,3.23-1.17,5.91-4.6,8.45a20.66,20.66,0,0,1-11.74,3.23C1394.37,333,1390.45,332.68,1387.16,330.82Zm22.66-7.07c0-4.05-3.09-7.14-10-6.66l-6.59.48c-2.13.55-5.49,2.88-5.49,6.59a6.59,6.59,0,0,0,2.68,4.74c2.27,1.58,4.74,1.92,9.61,1.92C1402.61,330.82,1410.16,329,1409.82,323.75Zm-6.39-29.25c0-3-.62-4.81-1.85-6.18a5.2,5.2,0,0,0-3.3-1.51,6.3,6.3,0,0,0-4.87,1.92c-2.2,2.33-2.47,5.49-2.47,8.1a8.55,8.55,0,0,0,2.2,6,5.6,5.6,0,0,0,4.12,1.72C1401.92,304.52,1403.43,298.82,1403.43,294.5Z"/></svg>