<svg id="Layer_1" data-name="Layer 1" xmlns="http://www.w3.org/2000/svg" viewBox="0 0 2560 1600"><defs><style>.cls-1{fill:#fff;}</style></defs><title>intimacy</title><path class="cls-1" d="M1276.3,1354.55c0-1,2.57-10.67,2.67-11h-0.18c-1,.92-7.08,7.08-8,7.63-1.56.92-3.4,0.92-4.42-.74-1.38-2.3.64-3.77,1.38-4.23,1-.64,10.39-3.31,10.95-3.31v-0.18c-0.46-.09-10.21-2.58-11.22-3a2.71,2.71,0,0,1-1.38-4c1.1-2,3-1.66,4.42-.92,1.1,0.55,8.09,7.08,8.28,7.45l0.18-.18c-0.09-.28-2.67-10-2.67-11a2.73,2.73,0,0,1,2.94-3c2.3,0,2.94,1.1,2.94,3,0,1.29-2.48,10.76-2.67,11.13l0.18,0.18c0.28-.37,7.27-7.27,8.28-7.82a2.86,2.86,0,0,1,4,1c1.29,2.12.28,3.31-1.2,4.14-1.1.64-10.48,3-10.95,3v0.18c0.37,0.09,10.3,2.76,11.22,3.22,1.2,0.55,2.76,1.56,1.1,4.32-1,1.66-3,1.47-4.51.64a81,81,0,0,1-8-7.73l-0.18.18c0.18,0.37,2.67,9.75,2.67,11s-0.46,3.22-2.94,3.22C1277.13,1357.76,1276.3,1356.2,1276.3,1354.55Z"/></svg>