<svg id="Layer_1" data-name="Layer 1" xmlns="http://www.w3.org/2000/svg" xmlns:xlink="http://www.w3.org/1999/xlink" viewBox="0 0 1965.72 2309.92"><defs><style>.cls-1{font-size:40px;fill:#1a1818;font-family:Adobe Caslon Pro;}.cls-2{letter-spacing:1px;}</style></defs><title>everything1</title><image width="1876" height="2782" transform="translate(223.02 557) scale(0.24)" xlink:href="../../right angles/New Scans/Cropped/bridge.jpg"/><image width="2837" height="4208" transform="translate(176.88 1300) scale(0.24)" xlink:href="../../right angles/New Scans/Cropped/building.jpg"/><image width="961" height="795" transform="translate(485.76 718) scale(0.24)" xlink:href="../../right angles/New Scans/Cropped/couple.jpg"/><image width="1831" height="416" transform="translate(104.76 1237) scale(0.24)" xlink:href="../../right angles/New Scans/Cropped/womaneye.jpg"/><image width="302" height="1503" transform="translate(114.02 1084.56) scale(0.36)" xlink:href="../../right angles/New Scans/Cropped/womaneye2.jpg"/><image width="1373" height="1494" transform="translate(857.76 440) scale(0.24)" xlink:href="../../right angles/New Scans/Cropped/toaster.jpg"/><image width="2954" height="3257" transform="translate(1256.76) scale(0.24)" xlink:href="../../right angles/New Scans/Cropped/shadow2.jpg"/><image width="914" height="910" transform="translate(1242.76 556) scale(0.24)" xlink:href="../../right angles/New Scans/Cropped/graph.jpg"/><image width="991" height="1326" transform="translate(459.76 956) scale(0.24)" xlink:href="../../right angles/New Scans/Cropped/crane.jpg"/><image width="2024" height="2915" transform="translate(0 1491) scale(0.24)" xlink:href="everything11.png"/><image width="3034" height="2870" transform="translate(95.68 395.76) scale(0.24)" xlink:href="../../right angles/New Scans/Cropped/construction2.jpg"/><image width="673" height="1720" transform="translate(394.92 1030.6) scale(0.24)" xlink:href="../../right angles/New Scans/Cropped/city.jpg"/><image width="757" height="777" transform="translate(394.92 1030.6) scale(0.24)" xlink:href="../../right angles/New Scans/Cropped/clock.jpg"/><image width="713" height="732" transform="translate(424.76 1349) scale(0.24)" xlink:href="../../right angles/New Scans/Cropped/clock2.jpg"/><image width="2857" height="712" transform="translate(987.76 1457.4) scale(0.3)" xlink:href="../../right angles/New Scans/Cropped/cinema.jpg"/><text class="cls-1" transform="translate(987.76 1059)">e<tspan x="17.44" y="0">v</tspan><tspan x="34.52" y="0">e</tspan><tspan class="cls-2" x="51.56" y="0">r</tspan><tspan x="66.6" y="0">y</tspan><tspan x="84.44" y="0">thing</tspan></text><text class="cls-1" transform="translate(1714.76 1323)">e<tspan x="17.44" y="0">v</tspan><tspan x="34.52" y="0">e</tspan><tspan class="cls-2" x="51.56" y="0">r</tspan><tspan x="66.6" y="0">y</tspan><tspan x="84.44" y="0">thing</tspan></text></svg>