<svg id="Layer_1" data-name="Layer 1" xmlns="http://www.w3.org/2000/svg" viewBox="0 0 2560 1600"><defs><style>.cls-1{fill:#231f20;}</style></defs><title>everything</title><path class="cls-1" d="M704.83,1087.07a17.64,17.64,0,0,0,3.3.21c6.73,0,11.81-4.26,11.81-9.75a9.3,9.3,0,0,0-4.67-8.31,0.56,0.56,0,0,1-.34-0.62l0.48-.89c0.07-.21.27-0.34,1,0,2.75,1.24,7.48,4.81,7.48,10.92,0,3.91-1.17,8.24-4.88,10.78-3.5,2.4-6,3-10.85,3a15.46,15.46,0,0,1-10.92-4.33c-3-3-3.64-6.39-3.64-9.82,0-7.9,7.42-10.09,10.09-10.09,1,0,1.1.82,1.1,1.92v17Zm-2.06-10.92c0-1.3-.34-1.85-1-1.85-1.58,0-6.11.82-6.11,5.29,0,3,2,5.91,7.07,7.21v-10.64Z"/><path class="cls-1" d="M716.78,1049.16V1049c-2.68-1.1-14.49-5.9-17.17-6.59-1.85-.48-3,0-3,1.24V1045c0,0.21-.34.27-0.69,0.27h-1.24c-0.41,0-.55-0.14-0.55-0.41,0-1,.21-2.47.21-5.49,0-2.68-.21-4.33-0.21-4.94s0.07-.62.62-0.62H696c0.48,0,.69,0,0.69.34v1.3a2.73,2.73,0,0,0,.76,2.13c1,1,8.51,4.46,11.06,5.49,2.06,0.82,13.6,5.9,14.08,6.18,1,0.55,1.58.89,1.58,1.65s-0.62,1.1-1.44,1.44l-13.94,5.36c-0.55.21-8.45,3-9.54,3.5-2,.89-2.54,1.58-2.54,2.81v1.37c0,0.34-.27.41-0.69,0.41h-1.24c-0.48,0-.55-0.14-0.55-0.75s0.21-1.92.21-5.77c0-3.64-.21-5.42-0.21-6.18,0-.55.14-0.69,0.55-0.69H696c0.41,0,.69.07,0.69,0.48v1.37a1.17,1.17,0,0,0,1.3,1.24c1.24,0,7-1.79,8.17-2.2S715.34,1049.92,716.78,1049.16Z"/><path class="cls-1" d="M704.83,1027.81a17.64,17.64,0,0,0,3.3.21c6.73,0,11.81-4.26,11.81-9.75a9.3,9.3,0,0,0-4.67-8.31,0.56,0.56,0,0,1-.34-0.62l0.48-.89c0.07-.21.27-0.34,1,0,2.75,1.24,7.48,4.81,7.48,10.92,0,3.91-1.17,8.24-4.88,10.78-3.5,2.4-6,3-10.85,3a15.46,15.46,0,0,1-10.92-4.33c-3-3-3.64-6.39-3.64-9.82,0-7.9,7.42-10.09,10.09-10.09,1,0,1.1.82,1.1,1.92v17Zm-2.06-10.92c0-1.3-.34-1.85-1-1.85-1.58,0-6.11.82-6.11,5.29,0,3,2,5.91,7.07,7.21v-10.64Z"/><path class="cls-1" d="M704.83,999.79c-3.5,0-4.19.55-5.22,2.47l-0.69,1.3c-0.14.41-.21,0.55-0.48,0.55H698a0.69,0.69,0,0,1-.62-0.55l-3.5-6.8a2.07,2.07,0,0,1-.27-1c0-.41.41-0.48,0.82-0.48l4.88-.34v-0.27c-3.16-2.06-6-5.29-6-8.24,0-2.33,1.44-3.5,3-3.5a3.32,3.32,0,0,1,3.36,2.88,4.5,4.5,0,0,1-.55,2,4.42,4.42,0,0,0-.55,2.27,4.87,4.87,0,0,0,2.88,4.05,7.4,7.4,0,0,0,2.2.69H718c2.13,0,2.82-.48,2.82-1.92V989.7c0-.41.21-0.48,0.62-0.48h1.24c0.41,0,.62.07,0.62,0.34s-0.21,3.57-.21,7.28c0,4.26.21,7.14,0.21,7.55s-0.14.41-.69,0.41h-1.17c-0.48,0-.62-0.14-0.62-0.76v-2.68c0-1-.41-1.51-1.3-1.51-2.27-.07-4.67-0.07-8.24-0.07h-6.45Z"/><path class="cls-1" d="M738.27,980.7a3,3,0,0,1-2.68-3.16,11.79,11.79,0,0,1,.76-3.16,1.65,1.65,0,0,0-.41-1.44c-1.24-1-9.06-4.53-11.74-5.49-1.72.34-23.21,7.62-24.65,8.17-1.72.82-2.88,1.44-2.88,3.23v1.79c0,0.48-.21.55-0.62,0.55h-1.37c-0.27,0-.48-0.07-0.48-0.55s0.21-2.27.21-6.32c0-3.5-.21-5.63-0.21-6.39,0-.55.21-0.62,0.48-0.62h1.44c0.34,0,.55.07,0.55,0.41V969c0,0.76.48,1,1.51,0.89,1.51-.21,16.69-4.87,18.2-5.63V964c-1.1-.69-15.38-6.66-17.1-7.07s-2.61.14-2.61,1.17v1.1c0,0.41-.21.48-0.55,0.48h-1.37c-0.34,0-.55-0.07-0.55-0.41,0-.89.21-2.33,0.21-5.63,0-1.85-.21-3.43-0.21-4.19,0-.41.27-0.41,0.55-0.41H696c0.41,0,.62,0,0.62.34v1.1a3.08,3.08,0,0,0,1.24,2.4c1.85,1.51,12.36,6,23.14,10.78,7.62,3.36,14,6,16.27,7.28,1.79,1,4.46,2.2,4.46,5.84C741.77,979.4,740.33,980.7,738.27,980.7Z"/><path class="cls-1" d="M714.51,938.4c5.15,0,6-2.33,6-3.57a9.88,9.88,0,0,0-.89-4.53,0.56,0.56,0,0,1,.14-0.82l0.62-.34a0.55,0.55,0,0,1,.76.14,11.55,11.55,0,0,1,2.75,7.62c0,3.36-3.23,6.66-5.84,6.66-2.82,0-8.86-.21-9.82-0.21h-1.51c-1.24,0-5.91-.07-8.79-0.14v4.19a0.86,0.86,0,0,1-.82,1c-0.55,0-.76-0.41-1.24-1.24-1-1.65-6.25-6.94-8.58-7.83a0.92,0.92,0,0,1-.69-1c0-.55.48-0.69,1-0.69l6.73,0.34v-9.54A0.45,0.45,0,0,1,695,928l2.4,0.69a0.56,0.56,0,0,1,.55.62v8.86c3.16,0.14,6.52.21,9.68,0.21h6.87Z"/><path class="cls-1" d="M685.67,921.37c-4.19,0-4.94.82-5.77,3.3l-0.41,1.17c-0.14.41-.21,0.48-0.41,0.48h-0.62c-0.27,0-.34-0.21-0.69-0.82L674,918.35a3.63,3.63,0,0,1-.55-1.58c0-.41.55-0.69,1.72-0.55s15.11,0.21,18.54.21h4.39v-0.34a13.1,13.1,0,0,1-4.46-9.41,9,9,0,0,1,2.75-6.8c2.88-3.09,6.39-3,10.09-3h3.91c3.85,0,8.1-.14,9.41-0.14,0.82,0,1-1.1,1-2.54v-1.17c0-.55.14-0.76,0.62-0.76h1c0.55,0,.82.14,0.82,0.55s-0.21,2.68-.21,6.59c0,3.36.21,5.84,0.21,6.45s-0.21.62-.76,0.62h-1.17c-0.34,0-.55-0.07-0.55-0.48v-1.58c0-1.17-.14-2.54-1.3-2.61-1-.07-4.6,0-6.8,0h-5.56c-3.85,0-6.59.27-8.45,2.27a6.29,6.29,0,0,0-1.92,4.53,8.38,8.38,0,0,0,2.88,6.39,6,6,0,0,0,3.36,1.37h15c2.2,0,2.82-.21,2.82-1.51v-2.06c0-.48.14-0.76,0.55-0.76h1.17c0.48,0,.76.14,0.76,0.55s-0.21,3.36-.21,6.52c0,3.43.21,6,.21,6.66,0,0.27-.21.48-0.69,0.48h-1.24c-0.48,0-.55-0.27-0.55-1v-1.44c0-1.1-.27-2.13-1.1-2.27-1.3-.21-8.86-0.21-13.32-0.21H685.67Z"/><path class="cls-1" d="M682,887.32a4.05,4.05,0,0,1-3.85-4.33,3.62,3.62,0,0,1,3.64-3.71,3.93,3.93,0,0,1,4.05,4.12A4.18,4.18,0,0,1,682,887.32Zm21.08-3.23c-2.33,0-3.57.41-4.12,3.85-0.07.48-.21,0.62-0.48,0.62H697.9a0.56,0.56,0,0,1-.48-0.48,56.12,56.12,0,0,0-3.36-7.42,2.84,2.84,0,0,1-.41-1.3c0-.34.34-0.41,0.82-0.34,1.17,0.14,5.49.14,11.19,0.14h7.48c2.68,0,5.15,0,5.91-.07,1.3-.14,1.79-0.34,1.79-1.1v-3.16c0-.55.21-0.69,0.62-0.69h1.17c0.48,0,.69.14,0.69,0.62s-0.21,3.71-.21,6.59c0,4,.21,6.66.21,7.42a0.48,0.48,0,0,1-.55.55h-1.37c-0.41,0-.55-0.21-0.55-0.69v-3.36c0-.76-0.27-1-1.37-1.1-2.06-.07-4.19-0.07-6.25-0.07H703.12Z"/><path class="cls-1" d="M719.39,842a1.29,1.29,0,0,0,1.44-1.51v-2.2c0-.62.21-0.76,0.62-0.76h1.1c0.48,0,.76.14,0.76,0.55s-0.21,2.61-.21,6.52c0,3.5.21,5.7,0.21,6.18s-0.21.55-.76,0.55h-1.1c-0.48,0-.62-0.21-0.62-0.89v-2c0-.75-0.34-1.3-1.58-1.37-1.79-.07-4-0.14-5.77-0.14h-9.06c-2.75,0-4.74,0-6.18,2-1.24,1.65-1.24,3.3-1.24,5a8.05,8.05,0,0,0,2.68,5.56,6.73,6.73,0,0,0,4.67,1.58h14.21c1.85,0,2.27-.21,2.27-1.65v-1.72a0.57,0.57,0,0,1,.69-0.69h1.17c0.41,0,.62.14,0.62,0.48s-0.21,2.33-.21,6,0.21,5.7.21,6.11-0.21.48-.62,0.48h-1.24c-0.41,0-.62-0.14-0.62-0.69v-2a1.13,1.13,0,0,0-1.37-1.37H703.39a4.23,4.23,0,0,0-4.05,2.82l-0.27.55a0.66,0.66,0,0,1-.62.55H698.1a0.8,0.8,0,0,1-.69-0.62l-3.3-5.9a3.63,3.63,0,0,1-.48-1.24c0-.34.27-0.48,0.82-0.55l4.19-.48V861c-2.47-2-5-6-5-9.41a10.6,10.6,0,0,1,1.51-5.84,10,10,0,0,1,6.52-3.78h17.72Z"/><path class="cls-1" d="M739.58,831.76c-1.51,2.47-3.3,3.5-5.56,3.5-3.85,0-6.8-3.91-8.24-7.21H725.5c-0.62,2.88-2.75,4.6-4.81,4.6-3.3,0-5.63-3.78-6.52-6.18H714a10.92,10.92,0,0,1-10.44,6.39c-4.46,0-10-4-10-11.74a11,11,0,0,1,4-8.65c-1.3-1.85-2.68-4.19-2.68-6.45s1.51-3.36,2.88-3.23a2.61,2.61,0,0,1,2.54,2.68,3.42,3.42,0,0,1-1,2.4,2.73,2.73,0,0,0-.62,1.44,5,5,0,0,0,.41,2.2,13,13,0,0,1,5.22-1,11.32,11.32,0,0,1,7.42,2.54,12.28,12.28,0,0,1,3.09,11.47c0.55,1.37,1.92,3.64,3.85,3.64,2.82,0,2.61-3.43,2.33-8-0.27-5.63.34-9.06,2.47-11.81a8.07,8.07,0,0,1,6.59-3.36c3.23,0,5.91,1.17,8.45,4.6a20.66,20.66,0,0,1,3.23,11.74C741.77,824.55,741.43,828.47,739.58,831.76Zm-36.32-16.27c-3,0-4.81.62-6.18,1.85a5.2,5.2,0,0,0-1.51,3.3,6.3,6.3,0,0,0,1.92,4.88c2.33,2.2,5.49,2.47,8.1,2.47a8.55,8.55,0,0,0,6-2.2,5.6,5.6,0,0,0,1.72-4.12C713.28,817,707.58,815.49,703.25,815.49Zm29.25-6.39c-4.05,0-7.14,3.09-6.66,10l0.48,6.59c0.55,2.13,2.88,5.49,6.59,5.49a6.59,6.59,0,0,0,4.74-2.68c1.58-2.27,1.92-4.74,1.92-9.61C739.58,816.31,737.79,808.76,732.5,809.1Z"/><path class="cls-1" d="M107.54,112.49a17.61,17.61,0,0,0-.21,3.3c0,6.73,4.26,11.81,9.75,11.81a9.3,9.3,0,0,0,8.31-4.67,0.56,0.56,0,0,1,.62-0.34l0.89,0.48c0.21,0.07.34,0.27,0,1-1.24,2.75-4.81,7.48-10.92,7.48-3.91,0-8.24-1.17-10.78-4.87-2.4-3.5-3-6-3-10.85a15.46,15.46,0,0,1,4.33-10.92c3-3,6.39-3.64,9.82-3.64,7.9,0,10.09,7.42,10.09,10.09,0,1-.82,1.1-1.92,1.1h-17Zm10.92-2.06c1.3,0,1.85-.34,1.85-1,0-1.58-.82-6.11-5.29-6.11-3,0-5.91,2-7.21,7.07h10.64Z"/><path class="cls-1" d="M145.45,124.44h0.21c1.1-2.68,5.91-14.49,6.59-17.17,0.48-1.85,0-3-1.24-3h-1.37c-0.21,0-.27-0.34-0.27-0.69V102.4c0-.41.14-0.55,0.41-0.55,1,0,2.47.21,5.49,0.21,2.68,0,4.33-.21,4.94-0.21s0.62,0.07.62,0.62v1.17c0,0.48,0,.69-0.34.69h-1.3a2.73,2.73,0,0,0-2.13.76c-1,1-4.46,8.51-5.49,11.06-0.82,2.06-5.91,13.6-6.18,14.08-0.55,1-.89,1.58-1.65,1.58s-1.1-.62-1.44-1.44l-5.36-13.94c-0.21-.55-3-8.45-3.5-9.54-0.89-2-1.58-2.54-2.82-2.54h-1.37c-0.34,0-.41-0.27-0.41-0.69V102.4c0-.48.14-0.55,0.76-0.55s1.92,0.21,5.77.21c3.64,0,5.42-.21,6.18-0.21,0.55,0,.69.14,0.69,0.55v1.24c0,0.41-.07.69-0.48,0.69h-1.37a1.17,1.17,0,0,0-1.24,1.3c0,1.24,1.79,7,2.2,8.17S144.69,123,145.45,124.44Z"/><path class="cls-1" d="M166.81,112.49a17.61,17.61,0,0,0-.21,3.3c0,6.73,4.26,11.81,9.75,11.81a9.3,9.3,0,0,0,8.31-4.67,0.56,0.56,0,0,1,.62-0.34l0.89,0.48c0.21,0.07.34,0.27,0,1-1.24,2.75-4.81,7.48-10.92,7.48-3.91,0-8.24-1.17-10.78-4.87-2.4-3.5-3-6-3-10.85a15.46,15.46,0,0,1,4.33-10.92c3-3,6.39-3.64,9.82-3.64,7.9,0,10.09,7.42,10.09,10.09,0,1-.82,1.1-1.92,1.1h-17Zm10.92-2.06c1.3,0,1.85-.34,1.85-1,0-1.58-.82-6.11-5.29-6.11-3,0-5.91,2-7.21,7.07h10.64Z"/><path class="cls-1" d="M194.82,112.49c0-3.5-.55-4.19-2.47-5.22l-1.3-.69c-0.41-.14-0.55-0.21-0.55-0.48V105.7a0.69,0.69,0,0,1,.55-0.62l6.8-3.5a2.07,2.07,0,0,1,1-.27c0.41,0,.48.41,0.48,0.82l0.34,4.88h0.27c2.06-3.16,5.29-6,8.24-6,2.33,0,3.5,1.44,3.5,3a3.32,3.32,0,0,1-2.88,3.36,4.51,4.51,0,0,1-2-.55,4.42,4.42,0,0,0-2.27-.55,4.87,4.87,0,0,0-4.05,2.88,7.4,7.4,0,0,0-.69,2.2v14.28c0,2.13.48,2.81,1.92,2.81h3.23c0.41,0,.48.21,0.48,0.62v1.24c0,0.41-.07.62-0.34,0.62s-3.57-.21-7.28-0.21c-4.26,0-7.14.21-7.55,0.21s-0.41-.14-0.41-0.69v-1.17c0-.48.14-0.62,0.76-0.62h2.68c1,0,1.51-.41,1.51-1.3,0.07-2.27.07-4.67,0.07-8.24v-6.45Z"/><path class="cls-1" d="M213.91,145.93a3,3,0,0,1,3.16-2.68,11.77,11.77,0,0,1,3.16.76,1.65,1.65,0,0,0,1.44-.41c1-1.24,4.53-9.06,5.49-11.74-0.34-1.72-7.62-23.21-8.17-24.65-0.82-1.72-1.44-2.88-3.23-2.88H214c-0.48,0-.55-0.21-0.55-0.62v-1.37c0-.27.07-0.48,0.55-0.48s2.27,0.21,6.32.21c3.5,0,5.63-.21,6.39-0.21,0.55,0,.62.21,0.62,0.48v1.44c0,0.34-.07.55-0.41,0.55h-1.3c-0.76,0-1,.48-0.89,1.51,0.21,1.51,4.88,16.69,5.63,18.2h0.27c0.69-1.1,6.66-15.38,7.07-17.1s-0.14-2.61-1.17-2.61h-1.1c-0.41,0-.48-0.21-0.48-0.55V102.4c0-.34.07-0.55,0.41-0.55,0.89,0,2.33.21,5.63,0.21,1.85,0,3.43-.21,4.19-0.21,0.41,0,.41.27,0.41,0.55v1.3c0,0.41,0,.62-0.34.62h-1.1a3.08,3.08,0,0,0-2.4,1.24c-1.51,1.85-6,12.36-10.78,23.14-3.36,7.62-6,14-7.28,16.27-1,1.79-2.2,4.46-5.84,4.46C215.21,149.44,213.91,148,213.91,145.93Z"/><path class="cls-1" d="M256.21,122.18c0,5.15,2.33,6,3.57,6a9.88,9.88,0,0,0,4.53-.89,0.56,0.56,0,0,1,.82.14l0.34,0.62a0.55,0.55,0,0,1-.14.76,11.55,11.55,0,0,1-7.62,2.75c-3.36,0-6.66-3.23-6.66-5.84,0-2.81.21-8.86,0.21-9.82v-1.51c0-1.24.07-5.91,0.14-8.79h-4.19a0.86,0.86,0,0,1-1-.82c0-.55.41-0.76,1.24-1.24,1.65-1,6.94-6.25,7.83-8.58a0.92,0.92,0,0,1,1-.69c0.55,0,.69.48,0.69,1l-0.34,6.73h9.54a0.45,0.45,0,0,1,.48.62l-0.69,2.4a0.56,0.56,0,0,1-.62.55h-8.86c-0.14,3.16-.21,6.52-0.21,9.68v6.87Z"/><path class="cls-1" d="M273.24,93.34c0-4.19-.82-4.94-3.3-5.77l-1.17-.41c-0.41-.14-0.48-0.21-0.48-0.41V86.13c0-.27.21-0.34,0.82-0.69l7.14-3.78a3.64,3.64,0,0,1,1.58-.55c0.41,0,.69.55,0.55,1.72s-0.21,15.11-.21,18.54v4.39h0.34a13.1,13.1,0,0,1,9.41-4.46,9,9,0,0,1,6.8,2.75c3.09,2.88,3,6.39,3,10.09v3.91c0,3.85.14,8.1,0.14,9.41,0,0.82,1.1,1,2.54,1h1.17c0.55,0,.76.14,0.76,0.62v1c0,0.55-.14.82-0.55,0.82s-2.68-.21-6.59-0.21c-3.36,0-5.84.21-6.45,0.21s-0.62-.21-0.62-0.76V129c0-.34.07-0.55,0.48-0.55h1.58c1.17,0,2.54-.14,2.61-1.3,0.07-1,0-4.6,0-6.8v-5.56c0-3.85-.27-6.59-2.27-8.45a6.3,6.3,0,0,0-4.53-1.92,8.38,8.38,0,0,0-6.39,2.88,6,6,0,0,0-1.37,3.36v15c0,2.2.21,2.81,1.51,2.81h2.06c0.48,0,.76.14,0.76,0.55v1.17c0,0.48-.14.76-0.55,0.76s-3.36-.21-6.52-0.21c-3.43,0-6,.21-6.66.21-0.27,0-.48-0.21-0.48-0.69V129c0-.48.27-0.55,1-0.55h1.44c1.1,0,2.13-.27,2.27-1.1,0.21-1.3.21-8.86,0.21-13.32V93.34Z"/><path class="cls-1" d="M310.52,110.78c0-2.33-.41-3.57-3.85-4.12-0.48-.07-0.62-0.21-0.62-0.48v-0.62a0.56,0.56,0,0,1,.48-0.48,56.16,56.16,0,0,0,7.42-3.36,2.83,2.83,0,0,1,1.3-.41c0.34,0,.41.34,0.34,0.82-0.14,1.17-.14,5.49-0.14,11.19v7.48c0,2.68,0,5.15.07,5.91,0.14,1.3.34,1.79,1.1,1.79h3.16c0.55,0,.69.21,0.69,0.62v1.17c0,0.48-.14.69-0.62,0.69s-3.71-.21-6.59-0.21c-4,0-6.66.21-7.42,0.21a0.48,0.48,0,0,1-.55-0.55V129c0-.41.21-0.55,0.69-0.55h3.36c0.76,0,1-.27,1.1-1.37,0.07-2.06.07-4.19,0.07-6.25V110.78ZM307.3,89.7a4.05,4.05,0,0,1,4.33-3.85,3.62,3.62,0,0,1,3.71,3.64,3.93,3.93,0,0,1-4.12,4.05A4.18,4.18,0,0,1,307.3,89.7Z"/><path class="cls-1" d="M352.62,127.05a1.29,1.29,0,0,0,1.51,1.44h2.2c0.62,0,.76.21,0.76,0.62v1.1c0,0.48-.14.76-0.55,0.76s-2.61-.21-6.52-0.21c-3.5,0-5.7.21-6.18,0.21s-0.55-.21-0.55-0.76v-1.1c0-.48.21-0.62,0.89-0.62h2c0.76,0,1.3-.34,1.37-1.58,0.07-1.79.14-4,.14-5.77v-9.06c0-2.75,0-4.74-2-6.18-1.65-1.24-3.3-1.24-5-1.24a8.05,8.05,0,0,0-5.56,2.68,6.73,6.73,0,0,0-1.58,4.67v14.21c0,1.85.21,2.27,1.65,2.27h1.72a0.57,0.57,0,0,1,.69.69v1.17c0,0.41-.14.62-0.48,0.62s-2.33-.21-6-0.21-5.7.21-6.11,0.21-0.48-.21-0.48-0.62v-1.24c0-.41.14-0.62,0.69-0.62h2a1.13,1.13,0,0,0,1.37-1.37V111.05a4.23,4.23,0,0,0-2.82-4.05l-0.55-.27a0.66,0.66,0,0,1-.55-0.62v-0.34a0.8,0.8,0,0,1,.62-0.69l5.91-3.3a3.63,3.63,0,0,1,1.24-.48c0.34,0,.48.27,0.55,0.82l0.48,4.19h0.14c2-2.47,6-5,9.41-5a10.6,10.6,0,0,1,5.84,1.51,10,10,0,0,1,3.78,6.52v17.72Z"/><path class="cls-1" d="M362.85,147.24c-2.47-1.51-3.5-3.3-3.5-5.56,0-3.85,3.91-6.8,7.21-8.24v-0.27c-2.88-.62-4.6-2.75-4.6-4.81,0-3.3,3.78-5.63,6.18-6.52V121.7a10.91,10.91,0,0,1-6.39-10.44c0-4.46,4-10,11.74-10a11,11,0,0,1,8.65,4c1.85-1.3,4.19-2.68,6.45-2.68s3.36,1.51,3.23,2.88a2.61,2.61,0,0,1-2.68,2.54,3.42,3.42,0,0,1-2.4-1,2.73,2.73,0,0,0-1.44-.62,5,5,0,0,0-2.2.41,13,13,0,0,1,1,5.22,11.32,11.32,0,0,1-2.54,7.42,12.28,12.28,0,0,1-11.47,3.09c-1.37.55-3.64,1.92-3.64,3.85,0,2.82,3.43,2.61,8,2.33,5.63-.27,9.06.34,11.81,2.47a8.07,8.07,0,0,1,3.36,6.59c0,3.23-1.17,5.9-4.6,8.45a20.66,20.66,0,0,1-11.74,3.23C370.06,149.44,366.14,149.09,362.85,147.24Zm22.66-7.07c0-4.05-3.09-7.14-10-6.66L369,134c-2.13.55-5.49,2.88-5.49,6.59a6.59,6.59,0,0,0,2.68,4.74c2.27,1.58,4.74,1.92,9.61,1.92C378.3,147.24,385.85,145.45,385.51,140.17Zm-6.39-29.25c0-3-.62-4.81-1.85-6.18a5.19,5.19,0,0,0-3.3-1.51,6.3,6.3,0,0,0-4.88,1.92c-2.2,2.33-2.47,5.49-2.47,8.1a8.54,8.54,0,0,0,2.2,6,5.6,5.6,0,0,0,4.12,1.72C377.61,120.94,379.12,115.24,379.12,110.91Z"/><path class="cls-1" d="M1841.91,490.66a17.63,17.63,0,0,0-3.3-.21c-6.73,0-11.81,4.26-11.81,9.75a9.3,9.3,0,0,0,4.67,8.31,0.56,0.56,0,0,1,.34.62l-0.48.89c-0.07.21-.27,0.34-1,0-2.75-1.24-7.48-4.81-7.48-10.92,0-3.91,1.17-8.24,4.88-10.78,3.5-2.4,6-3,10.85-3a15.46,15.46,0,0,1,10.92,4.33c3,3,3.64,6.39,3.64,9.82,0,7.9-7.42,10.09-10.09,10.09-1,0-1.1-.82-1.1-1.92v-17Zm2.06,10.92c0,1.3.34,1.85,1,1.85,1.58,0,6.11-.82,6.11-5.29,0-3-2-5.91-7.07-7.21v10.64Z"/><path class="cls-1" d="M1830,528.56v0.21c2.68,1.1,14.49,5.9,17.17,6.59,1.85,0.48,3,0,3-1.24v-1.37c0-.21.34-0.27,0.69-0.27H1852c0.41,0,.55.14,0.55,0.41,0,1-.21,2.47-0.21,5.49,0,2.68.21,4.33,0.21,4.94s-0.07.62-.62,0.62h-1.17c-0.48,0-.69,0-0.69-0.34v-1.3a2.73,2.73,0,0,0-.76-2.13c-1-1-8.51-4.46-11.06-5.49-2.06-.82-13.6-5.9-14.08-6.18-1-.55-1.58-0.89-1.58-1.65s0.62-1.1,1.44-1.44L1838,520c0.55-.21,8.45-3,9.54-3.5,2-.89,2.54-1.58,2.54-2.81v-1.37c0-.34.27-0.41,0.69-0.41H1852c0.48,0,.55.14,0.55,0.75s-0.21,1.92-.21,5.77c0,3.64.21,5.42,0.21,6.18,0,0.55-.14.69-0.55,0.69h-1.24c-0.41,0-.69-0.07-0.69-0.48v-1.37a1.17,1.17,0,0,0-1.3-1.24c-1.24,0-7,1.79-8.17,2.2S1831.41,527.81,1830,528.56Z"/><path class="cls-1" d="M1841.91,549.92a17.63,17.63,0,0,0-3.3-.21c-6.73,0-11.81,4.26-11.81,9.75a9.3,9.3,0,0,0,4.67,8.31,0.56,0.56,0,0,1,.34.62l-0.48.89c-0.07.21-.27,0.34-1,0-2.75-1.24-7.48-4.81-7.48-10.92,0-3.91,1.17-8.24,4.88-10.78,3.5-2.4,6-3,10.85-3a15.46,15.46,0,0,1,10.92,4.33c3,3,3.64,6.39,3.64,9.82,0,7.9-7.42,10.09-10.09,10.09-1,0-1.1-.82-1.1-1.92v-17Zm2.06,10.92c0,1.3.34,1.85,1,1.85,1.58,0,6.11-.82,6.11-5.29,0-3-2-5.91-7.07-7.21v10.64Z"/><path class="cls-1" d="M1841.91,577.94c3.5,0,4.19-.55,5.22-2.47l0.69-1.3c0.14-.41.21-0.55,0.48-0.55h0.41a0.69,0.69,0,0,1,.62.55l3.5,6.8a2.07,2.07,0,0,1,.27,1c0,0.41-.41.48-0.82,0.48l-4.88.34V583c3.16,2.06,6,5.29,6,8.24,0,2.33-1.44,3.5-3,3.5a3.32,3.32,0,0,1-3.36-2.88,4.5,4.5,0,0,1,.55-2,4.42,4.42,0,0,0,.55-2.27,4.87,4.87,0,0,0-2.88-4.05,7.41,7.41,0,0,0-2.2-.69h-14.28c-2.13,0-2.81.48-2.81,1.92V588c0,0.41-.21.48-0.62,0.48h-1.24c-0.41,0-.62-0.07-0.62-0.34s0.21-3.57.21-7.28c0-4.26-.21-7.14-0.21-7.55s0.14-.41.69-0.41h1.17c0.48,0,.62.14,0.62,0.76v2.68c0,1,.41,1.51,1.3,1.51,2.27,0.07,4.67.07,8.24,0.07h6.45Z"/><path class="cls-1" d="M1808.47,597a3,3,0,0,1,2.68,3.16,11.77,11.77,0,0,1-.76,3.16,1.65,1.65,0,0,0,.41,1.44c1.24,1,9.06,4.53,11.74,5.49,1.72-.34,23.21-7.62,24.65-8.17,1.72-.82,2.88-1.44,2.88-3.23v-1.79c0-.48.21-0.55,0.62-0.55h1.37c0.27,0,.48.07,0.48,0.55s-0.21,2.27-.21,6.32c0,3.5.21,5.63,0.21,6.39,0,0.55-.21.62-0.48,0.62h-1.44c-0.34,0-.55-0.07-0.55-0.41v-1.3c0-.76-0.48-1-1.51-0.89-1.51.21-16.69,4.88-18.2,5.63v0.27c1.1,0.69,15.38,6.66,17.1,7.07s2.61-.14,2.61-1.17v-1.1c0-.41.21-0.48,0.55-0.48H1852c0.34,0,.55.07,0.55,0.41,0,0.89-.21,2.33-0.21,5.63,0,1.85.21,3.43,0.21,4.19,0,0.41-.27.41-0.55,0.41h-1.3c-0.41,0-.62,0-0.62-0.34v-1.1a3.08,3.08,0,0,0-1.24-2.4c-1.85-1.51-12.36-6-23.14-10.78-7.62-3.36-14-6-16.27-7.28-1.79-1-4.46-2.2-4.46-5.84C1805,598.33,1806.41,597,1808.47,597Z"/><path class="cls-1" d="M1832.23,639.32c-5.15,0-6,2.33-6,3.57a9.88,9.88,0,0,0,.89,4.53,0.56,0.56,0,0,1-.14.82l-0.62.34a0.55,0.55,0,0,1-.75-0.14,11.55,11.55,0,0,1-2.75-7.62c0-3.36,3.23-6.66,5.84-6.66,2.81,0,8.86.21,9.82,0.21H1840c1.24,0,5.9.07,8.79,0.14v-4.19a0.86,0.86,0,0,1,.82-1c0.55,0,.76.41,1.24,1.24,1,1.65,6.25,6.94,8.58,7.83a0.92,0.92,0,0,1,.69,1c0,0.55-.48.69-1,0.69l-6.73-.34v9.54a0.45,0.45,0,0,1-.62.48l-2.4-.69a0.56,0.56,0,0,1-.55-0.62v-8.86c-3.16-.14-6.52-0.21-9.68-0.21h-6.87Z"/><path class="cls-1" d="M1861.07,656.35c4.19,0,4.94-.82,5.77-3.3l0.41-1.17c0.14-.41.21-0.48,0.41-0.48h0.62c0.27,0,.34.21,0.69,0.82l3.78,7.14a3.64,3.64,0,0,1,.55,1.58c0,0.41-.55.69-1.72,0.55s-15.11-.21-18.54-0.21h-4.39v0.34a13.1,13.1,0,0,1,4.46,9.41,9,9,0,0,1-2.75,6.8c-2.88,3.09-6.39,3-10.09,3h-3.91c-3.85,0-8.1.14-9.41,0.14-0.82,0-1,1.1-1,2.54v1.17c0,0.55-.14.76-0.62,0.76h-1c-0.55,0-.82-0.14-0.82-0.55s0.21-2.68.21-6.59c0-3.36-.21-5.84-0.21-6.45s0.21-.62.76-0.62h1.17c0.34,0,.55.07,0.55,0.48v1.58c0,1.17.14,2.54,1.3,2.61,1,0.07,4.6,0,6.8,0h5.56c3.85,0,6.59-.27,8.45-2.27a6.3,6.3,0,0,0,1.92-4.53,8.38,8.38,0,0,0-2.88-6.39,6,6,0,0,0-3.36-1.37h-15c-2.2,0-2.81.21-2.81,1.51v2.06c0,0.48-.14.76-0.55,0.76h-1.17c-0.48,0-.76-0.14-0.76-0.55s0.21-3.36.21-6.52c0-3.43-.21-6-0.21-6.66,0-.27.21-0.48,0.69-0.48h1.24c0.48,0,.55.27,0.55,1v1.44c0,1.1.27,2.13,1.1,2.27,1.3,0.21,8.86.21,13.32,0.21h20.74Z"/><path class="cls-1" d="M1843.63,693.64c2.33,0,3.57-.41,4.12-3.85,0.07-.48.21-0.62,0.48-0.62h0.62a0.56,0.56,0,0,1,.48.48,56.18,56.18,0,0,0,3.36,7.42,2.83,2.83,0,0,1,.41,1.3c0,0.34-.34.41-0.82,0.34-1.17-.14-5.49-0.14-11.19-0.14h-7.48c-2.68,0-5.15,0-5.91.07-1.3.14-1.79,0.34-1.79,1.1v3.16c0,0.55-.21.69-0.62,0.69h-1.17c-0.48,0-.69-0.14-0.69-0.62s0.21-3.71.21-6.59c0-4-.21-6.66-0.21-7.42a0.48,0.48,0,0,1,.55-0.55h1.37c0.41,0,.55.21,0.55,0.69v3.36c0,0.75.27,1,1.37,1.1,2.06,0.07,4.19.07,6.25,0.07h10.09Zm21.08-3.23a4.05,4.05,0,0,1,3.85,4.33,3.62,3.62,0,0,1-3.64,3.71,3.93,3.93,0,0,1-4.05-4.12A4.18,4.18,0,0,1,1864.71,690.41Z"/><path class="cls-1" d="M1827.36,735.73a1.29,1.29,0,0,0-1.44,1.51v2.2c0,0.62-.21.76-0.62,0.76h-1.1c-0.48,0-.76-0.14-0.76-0.55s0.21-2.61.21-6.52c0-3.5-.21-5.7-0.21-6.18s0.21-.55.76-0.55h1.1c0.48,0,.62.21,0.62,0.89v2c0,0.76.34,1.3,1.58,1.37,1.79,0.07,4,.14,5.77.14h9.06c2.75,0,4.74,0,6.18-2,1.24-1.65,1.24-3.3,1.24-5a8.05,8.05,0,0,0-2.68-5.56,6.73,6.73,0,0,0-4.67-1.58h-14.21c-1.85,0-2.27.21-2.27,1.65V720a0.57,0.57,0,0,1-.69.69h-1.17c-0.41,0-.62-0.14-0.62-0.48s0.21-2.33.21-6-0.21-5.7-.21-6.11,0.21-.48.62-0.48h1.24c0.41,0,.62.14,0.62,0.69v2a1.13,1.13,0,0,0,1.37,1.37h16.07a4.23,4.23,0,0,0,4.05-2.81l0.27-.55a0.66,0.66,0,0,1,.62-0.55h0.34a0.8,0.8,0,0,1,.69.62l3.3,5.91a3.63,3.63,0,0,1,.48,1.24c0,0.34-.27.48-0.82,0.55l-4.19.48v0.14c2.47,2,5,6,5,9.41a10.6,10.6,0,0,1-1.51,5.84,10,10,0,0,1-6.52,3.78h-17.72Z"/><path class="cls-1" d="M1807.17,746c1.51-2.47,3.3-3.5,5.56-3.5,3.85,0,6.8,3.91,8.24,7.21h0.27c0.62-2.88,2.75-4.6,4.81-4.6,3.3,0,5.63,3.78,6.52,6.18h0.14a10.92,10.92,0,0,1,10.44-6.39c4.46,0,10,4,10,11.74a11,11,0,0,1-4,8.65c1.3,1.85,2.68,4.19,2.68,6.45s-1.51,3.36-2.88,3.23a2.61,2.61,0,0,1-2.54-2.68,3.42,3.42,0,0,1,1-2.4,2.73,2.73,0,0,0,.62-1.44,5,5,0,0,0-.41-2.2,13,13,0,0,1-5.22,1,11.32,11.32,0,0,1-7.42-2.54,12.28,12.28,0,0,1-3.09-11.47c-0.55-1.37-1.92-3.64-3.85-3.64-2.82,0-2.61,3.43-2.33,8,0.27,5.63-.34,9.06-2.47,11.81a8.07,8.07,0,0,1-6.59,3.36c-3.23,0-5.91-1.17-8.45-4.6a20.66,20.66,0,0,1-3.23-11.74C1805,753.17,1805.31,749.26,1807.17,746Zm7.07,22.66c4.05,0,7.14-3.09,6.66-10l-0.48-6.59c-0.55-2.13-2.88-5.49-6.59-5.49a6.59,6.59,0,0,0-4.74,2.68c-1.58,2.27-1.92,4.74-1.92,9.61C1807.17,761.41,1809,769,1814.24,768.62Zm29.25-6.39c3,0,4.81-.62,6.18-1.85a5.2,5.2,0,0,0,1.51-3.3,6.3,6.3,0,0,0-1.92-4.88c-2.33-2.2-5.49-2.47-8.1-2.47a8.55,8.55,0,0,0-6,2.2,5.6,5.6,0,0,0-1.72,4.12C1833.47,760.73,1839.17,762.24,1843.49,762.24Z"/><path class="cls-1" d="M1661.95,1216.51a17.63,17.63,0,0,0-3.3-.21c-6.73,0-11.81,4.26-11.81,9.75a9.3,9.3,0,0,0,4.67,8.31,0.56,0.56,0,0,1,.34.62l-0.48.89c-0.07.21-.27,0.34-1,0-2.75-1.24-7.48-4.81-7.48-10.92,0-3.91,1.17-8.24,4.88-10.78,3.5-2.4,6-3,10.85-3a15.46,15.46,0,0,1,10.92,4.33c3,3,3.64,6.39,3.64,9.82,0,7.9-7.42,10.09-10.09,10.09-1,0-1.1-.82-1.1-1.92v-17Zm2.06,10.92c0,1.3.34,1.85,1,1.85,1.58,0,6.11-.82,6.11-5.29,0-3-2-5.91-7.07-7.21v10.64Z"/><path class="cls-1" d="M1650,1254.42v0.21c2.68,1.1,14.49,5.9,17.17,6.59,1.85,0.48,3,0,3-1.24v-1.37c0-.21.34-0.27,0.69-0.27H1672c0.41,0,.55.14,0.55,0.41,0,1-.21,2.47-0.21,5.49,0,2.68.21,4.33,0.21,4.94s-0.07.62-.62,0.62h-1.17c-0.48,0-.69,0-0.69-0.34v-1.3a2.73,2.73,0,0,0-.76-2.13c-1-1-8.51-4.46-11.06-5.49-2.06-.82-13.6-5.9-14.08-6.18-1-.55-1.58-0.89-1.58-1.65s0.62-1.1,1.44-1.44l13.94-5.36c0.55-.21,8.45-3,9.54-3.5,2-.89,2.54-1.58,2.54-2.81v-1.37c0-.34.27-0.41,0.69-0.41H1672c0.48,0,.55.14,0.55,0.75s-0.21,1.92-.21,5.77c0,3.64.21,5.42,0.21,6.18,0,0.55-.14.69-0.55,0.69h-1.24c-0.41,0-.69-0.07-0.69-0.48v-1.37a1.17,1.17,0,0,0-1.3-1.24c-1.24,0-7,1.79-8.17,2.2S1651.44,1253.66,1650,1254.42Z"/><path class="cls-1" d="M1661.95,1275.77a17.63,17.63,0,0,0-3.3-.21c-6.73,0-11.81,4.26-11.81,9.75a9.3,9.3,0,0,0,4.67,8.31,0.56,0.56,0,0,1,.34.62l-0.48.89c-0.07.21-.27,0.34-1,0-2.75-1.24-7.48-4.81-7.48-10.92,0-3.91,1.17-8.24,4.88-10.78,3.5-2.4,6-3,10.85-3a15.46,15.46,0,0,1,10.92,4.33c3,3,3.64,6.39,3.64,9.82,0,7.9-7.42,10.09-10.09,10.09-1,0-1.1-.82-1.1-1.92v-17Zm2.06,10.92c0,1.3.34,1.85,1,1.85,1.58,0,6.11-.82,6.11-5.29,0-3-2-5.91-7.07-7.21v10.64Z"/><path class="cls-1" d="M1661.95,1303.79c3.5,0,4.19-.55,5.22-2.47l0.69-1.3c0.14-.41.21-0.55,0.48-0.55h0.41a0.69,0.69,0,0,1,.62.55l3.5,6.8a2.07,2.07,0,0,1,.27,1c0,0.41-.41.48-0.82,0.48l-4.88.34v0.27c3.16,2.06,6,5.29,6,8.24,0,2.33-1.44,3.5-3,3.5a3.32,3.32,0,0,1-3.36-2.88,4.5,4.5,0,0,1,.55-2,4.42,4.42,0,0,0,.55-2.27,4.87,4.87,0,0,0-2.88-4.05,7.4,7.4,0,0,0-2.2-.69h-14.28c-2.13,0-2.81.48-2.81,1.92v3.23c0,0.41-.21.48-0.62,0.48h-1.24c-0.41,0-.62-0.07-0.62-0.34s0.21-3.57.21-7.28c0-4.26-.21-7.14-0.21-7.55s0.14-.41.69-0.41h1.17c0.48,0,.62.14,0.62,0.76v2.68c0,1,.41,1.51,1.3,1.51,2.27,0.07,4.67.07,8.24,0.07h6.45Z"/><path class="cls-1" d="M1628.51,1322.88a3,3,0,0,1,2.68,3.16,11.77,11.77,0,0,1-.76,3.16,1.65,1.65,0,0,0,.41,1.44c1.24,1,9.06,4.53,11.74,5.49,1.72-.34,23.21-7.62,24.65-8.17,1.72-.82,2.88-1.44,2.88-3.23v-1.79c0-.48.21-0.55,0.62-0.55h1.37c0.27,0,.48.07,0.48,0.55s-0.21,2.27-.21,6.32c0,3.5.21,5.63,0.21,6.39,0,0.55-.21.62-0.48,0.62h-1.44c-0.34,0-.55-0.07-0.55-0.41v-1.3c0-.76-0.48-1-1.51-0.89-1.51.21-16.69,4.88-18.2,5.63v0.27c1.1,0.69,15.38,6.66,17.1,7.07s2.61-.14,2.61-1.17v-1.1c0-.41.21-0.48,0.55-0.48H1672c0.34,0,.55.07,0.55,0.41,0,0.89-.21,2.33-0.21,5.63,0,1.85.21,3.43,0.21,4.19,0,0.41-.27.41-0.55,0.41h-1.3c-0.41,0-.62,0-0.62-0.34v-1.1a3.08,3.08,0,0,0-1.24-2.4c-1.85-1.51-12.36-6-23.14-10.78-7.62-3.36-14-6-16.27-7.28-1.79-1-4.46-2.2-4.46-5.84C1625,1324.18,1626.45,1322.88,1628.51,1322.88Z"/><path class="cls-1" d="M1652.27,1365.18c-5.15,0-6,2.33-6,3.57a9.88,9.88,0,0,0,.89,4.53,0.56,0.56,0,0,1-.14.82l-0.62.34a0.55,0.55,0,0,1-.75-0.14,11.55,11.55,0,0,1-2.75-7.62c0-3.36,3.23-6.66,5.84-6.66,2.81,0,8.86.21,9.82,0.21H1660c1.24,0,5.9.07,8.79,0.14v-4.19a0.86,0.86,0,0,1,.82-1c0.55,0,.76.41,1.24,1.24,1,1.65,6.25,6.94,8.58,7.83a0.92,0.92,0,0,1,.69,1c0,0.55-.48.69-1,0.69l-6.73-.34v9.54a0.45,0.45,0,0,1-.62.48l-2.4-.69a0.56,0.56,0,0,1-.55-0.62v-8.86c-3.16-.14-6.52-0.21-9.68-0.21h-6.87Z"/><path class="cls-1" d="M1681.11,1382.21c4.19,0,4.94-.82,5.77-3.3l0.41-1.17c0.14-.41.21-0.48,0.41-0.48h0.62c0.27,0,.34.21,0.69,0.82l3.78,7.14a3.64,3.64,0,0,1,.55,1.58c0,0.41-.55.69-1.72,0.55s-15.11-.21-18.54-0.21h-4.39v0.34a13.1,13.1,0,0,1,4.46,9.41,9,9,0,0,1-2.75,6.8c-2.88,3.09-6.39,3-10.09,3h-3.91c-3.85,0-8.1.14-9.41,0.14-0.82,0-1,1.1-1,2.54v1.17c0,0.55-.14.76-0.62,0.76h-1c-0.55,0-.82-0.14-0.82-0.55s0.21-2.68.21-6.59c0-3.36-.21-5.84-0.21-6.45s0.21-.62.76-0.62h1.17c0.34,0,.55.07,0.55,0.48v1.58c0,1.17.14,2.54,1.3,2.61,1,0.07,4.6,0,6.8,0h5.56c3.85,0,6.59-.27,8.45-2.27a6.29,6.29,0,0,0,1.92-4.53,8.38,8.38,0,0,0-2.88-6.39,6,6,0,0,0-3.36-1.37h-15c-2.2,0-2.81.21-2.81,1.51v2.06c0,0.48-.14.76-0.55,0.76h-1.17c-0.48,0-.76-0.14-0.76-0.55s0.21-3.36.21-6.52c0-3.43-.21-6-0.21-6.66,0-.27.21-0.48,0.69-0.48h1.24c0.48,0,.55.27,0.55,1v1.44c0,1.1.27,2.13,1.1,2.27,1.3,0.21,8.86.21,13.32,0.21h20.74Z"/><path class="cls-1" d="M1663.67,1419.49c2.33,0,3.57-.41,4.12-3.85,0.07-.48.21-0.62,0.48-0.62h0.62a0.56,0.56,0,0,1,.48.48,56.14,56.14,0,0,0,3.36,7.42,2.83,2.83,0,0,1,.41,1.3c0,0.34-.34.41-0.82,0.34-1.17-.14-5.49-0.14-11.19-0.14h-7.48c-2.68,0-5.15,0-5.91.07-1.3.14-1.79,0.34-1.79,1.1v3.16c0,0.55-.21.69-0.62,0.69h-1.17c-0.48,0-.69-0.14-0.69-0.62s0.21-3.71.21-6.59c0-4-.21-6.66-0.21-7.42a0.48,0.48,0,0,1,.55-0.55h1.37c0.41,0,.55.21,0.55,0.69v3.36c0,0.76.27,1,1.37,1.1,2.06,0.07,4.19.07,6.25,0.07h10.09Zm21.08-3.23a4.05,4.05,0,0,1,3.85,4.33,3.62,3.62,0,0,1-3.64,3.71,3.93,3.93,0,0,1-4.05-4.12A4.18,4.18,0,0,1,1684.75,1416.27Z"/><path class="cls-1" d="M1647.39,1461.58a1.29,1.29,0,0,0-1.44,1.51v2.2c0,0.62-.21.76-0.62,0.76h-1.1c-0.48,0-.76-0.14-0.76-0.55s0.21-2.61.21-6.52c0-3.5-.21-5.7-0.21-6.18s0.21-.55.76-0.55h1.1c0.48,0,.62.21,0.62,0.89v2c0,0.75.34,1.3,1.58,1.37,1.79,0.07,4,.14,5.77.14h9.06c2.75,0,4.74,0,6.18-2,1.24-1.65,1.24-3.3,1.24-5a8.05,8.05,0,0,0-2.68-5.56,6.73,6.73,0,0,0-4.67-1.58h-14.21c-1.85,0-2.27.21-2.27,1.65v1.72a0.57,0.57,0,0,1-.69.69h-1.17c-0.41,0-.62-0.14-0.62-0.48s0.21-2.33.21-6-0.21-5.7-.21-6.11,0.21-.48.62-0.48h1.24c0.41,0,.62.14,0.62,0.69v2a1.13,1.13,0,0,0,1.37,1.37h16.07a4.23,4.23,0,0,0,4.05-2.82l0.27-.55a0.66,0.66,0,0,1,.62-0.55h0.34a0.8,0.8,0,0,1,.69.62l3.3,5.9a3.63,3.63,0,0,1,.48,1.24c0,0.34-.27.48-0.82,0.55l-4.19.48v0.14c2.47,2,5,6,5,9.41a10.6,10.6,0,0,1-1.51,5.84,10,10,0,0,1-6.52,3.78h-17.72Z"/><path class="cls-1" d="M1627.21,1471.82c1.51-2.47,3.3-3.5,5.56-3.5,3.85,0,6.8,3.91,8.24,7.21h0.27c0.62-2.88,2.75-4.6,4.81-4.6,3.3,0,5.63,3.78,6.52,6.18h0.14a10.92,10.92,0,0,1,10.44-6.39c4.46,0,10,4,10,11.74a11,11,0,0,1-4,8.65c1.3,1.85,2.68,4.19,2.68,6.45s-1.51,3.36-2.88,3.23a2.61,2.61,0,0,1-2.54-2.68,3.42,3.42,0,0,1,1-2.4,2.73,2.73,0,0,0,.62-1.44,5,5,0,0,0-.41-2.2,13,13,0,0,1-5.22,1,11.32,11.32,0,0,1-7.42-2.54,12.28,12.28,0,0,1-3.09-11.47c-0.55-1.37-1.92-3.64-3.85-3.64-2.82,0-2.61,3.43-2.33,8,0.27,5.63-.34,9.06-2.47,11.81a8.07,8.07,0,0,1-6.59,3.36c-3.23,0-5.91-1.17-8.45-4.6a20.66,20.66,0,0,1-3.23-11.74C1625,1479,1625.35,1475.11,1627.21,1471.82Zm7.07,22.66c4.05,0,7.14-3.09,6.66-10l-0.48-6.59c-0.55-2.13-2.88-5.49-6.59-5.49a6.59,6.59,0,0,0-4.74,2.68c-1.58,2.27-1.92,4.74-1.92,9.61C1627.21,1487.27,1629,1494.82,1634.28,1494.48Zm29.25-6.39c3,0,4.81-.62,6.18-1.85a5.2,5.2,0,0,0,1.51-3.3,6.3,6.3,0,0,0-1.92-4.88c-2.33-2.2-5.49-2.47-8.1-2.47a8.55,8.55,0,0,0-6,2.2,5.6,5.6,0,0,0-1.72,4.12C1653.5,1486.58,1659.2,1488.09,1663.53,1488.09Z"/><path class="cls-1" d="M1158,274.7a17.64,17.64,0,0,0-3.3-.21c-6.73,0-11.81,4.26-11.81,9.75a9.3,9.3,0,0,0,4.67,8.31,0.56,0.56,0,0,1,.34.62l-0.48.89c-0.07.21-.27,0.34-1,0-2.75-1.24-7.48-4.81-7.48-10.92,0-3.91,1.17-8.24,4.88-10.78,3.5-2.4,6-3,10.85-3a15.46,15.46,0,0,1,10.92,4.33c3,3,3.64,6.39,3.64,9.82,0,7.9-7.42,10.09-10.09,10.09-1,0-1.1-.82-1.1-1.92v-17Zm2.06,10.92c0,1.3.34,1.85,1,1.85,1.58,0,6.11-.82,6.11-5.29,0-3-2-5.91-7.07-7.21v10.64Z"/><path class="cls-1" d="M1146.1,312.61v0.21c2.68,1.1,14.49,5.9,17.17,6.59,1.85,0.48,3,0,3-1.24v-1.37c0-.21.34-0.27,0.69-0.27h1.24c0.41,0,.55.14,0.55,0.41,0,1-.21,2.47-0.21,5.49,0,2.68.21,4.33,0.21,4.94s-0.07.62-.62,0.62h-1.17c-0.48,0-.69,0-0.69-0.34v-1.3a2.73,2.73,0,0,0-.76-2.13c-1-1-8.51-4.46-11.06-5.49-2.06-.82-13.6-5.9-14.08-6.18-1-.55-1.58-0.89-1.58-1.65s0.62-1.1,1.44-1.44l13.94-5.36c0.55-.21,8.45-3,9.54-3.5,2-.89,2.54-1.58,2.54-2.81V296.4c0-.34.27-0.41,0.69-0.41h1.24c0.48,0,.55.14,0.55,0.75s-0.21,1.92-.21,5.77c0,3.64.21,5.42,0.21,6.18,0,0.55-.14.69-0.55,0.69h-1.24c-0.41,0-.69-0.07-0.69-0.48v-1.37a1.17,1.17,0,0,0-1.3-1.24c-1.24,0-7,1.79-8.17,2.2S1147.54,311.85,1146.1,312.61Z"/><path class="cls-1" d="M1158,334a17.64,17.64,0,0,0-3.3-.21c-6.73,0-11.81,4.26-11.81,9.75a9.3,9.3,0,0,0,4.67,8.31,0.56,0.56,0,0,1,.34.62l-0.48.89c-0.07.21-.27,0.34-1,0-2.75-1.24-7.48-4.81-7.48-10.92,0-3.91,1.17-8.24,4.88-10.78,3.5-2.4,6-3,10.85-3a15.46,15.46,0,0,1,10.92,4.33c3,3,3.64,6.39,3.64,9.82,0,7.9-7.42,10.09-10.09,10.09-1,0-1.1-.82-1.1-1.92V334Zm2.06,10.92c0,1.3.34,1.85,1,1.85,1.58,0,6.11-.82,6.11-5.29,0-3-2-5.91-7.07-7.21v10.64Z"/><path class="cls-1" d="M1158,362c3.5,0,4.19-.55,5.22-2.47l0.69-1.3c0.14-.41.21-0.55,0.48-0.55h0.41a0.69,0.69,0,0,1,.62.55l3.5,6.8a2.07,2.07,0,0,1,.27,1c0,0.41-.41.48-0.82,0.48l-4.88.34v0.27c3.16,2.06,6,5.29,6,8.24,0,2.33-1.44,3.5-3,3.5a3.32,3.32,0,0,1-3.36-2.88,4.5,4.5,0,0,1,.55-2,4.42,4.42,0,0,0,.55-2.27,4.87,4.87,0,0,0-2.88-4.05,7.4,7.4,0,0,0-2.2-.69h-14.28c-2.13,0-2.82.48-2.82,1.92v3.23c0,0.41-.21.48-0.62,0.48h-1.24c-0.41,0-.62-0.07-0.62-0.34s0.21-3.57.21-7.28c0-4.26-.21-7.14-0.21-7.55s0.14-.41.69-0.41h1.17c0.48,0,.62.14,0.62,0.76v2.68c0,1,.41,1.51,1.3,1.51,2.27,0.07,4.67.07,8.24,0.07H1158Z"/><path class="cls-1" d="M1124.61,381.07a3,3,0,0,1,2.68,3.16,11.79,11.79,0,0,1-.76,3.16,1.65,1.65,0,0,0,.41,1.44c1.24,1,9.06,4.53,11.74,5.49,1.72-.34,23.21-7.62,24.65-8.17,1.72-.82,2.88-1.44,2.88-3.23v-1.79c0-.48.21-0.55,0.62-0.55h1.37c0.27,0,.48.07,0.48,0.55s-0.21,2.27-.21,6.32c0,3.5.21,5.63,0.21,6.39,0,0.55-.21.62-0.48,0.62h-1.44c-0.34,0-.55-0.07-0.55-0.41v-1.3c0-.76-0.48-1-1.51-0.89-1.51.21-16.69,4.88-18.2,5.63v0.27c1.1,0.69,15.38,6.66,17.1,7.07s2.61-.14,2.61-1.17v-1.1c0-.41.21-0.48,0.55-0.48h1.37c0.34,0,.55.07,0.55,0.41,0,0.89-.21,2.33-0.21,5.63,0,1.85.21,3.43,0.21,4.19,0,0.41-.27.41-0.55,0.41h-1.3c-0.41,0-.62,0-0.62-0.34v-1.1a3.08,3.08,0,0,0-1.24-2.4c-1.85-1.51-12.36-6-23.14-10.78-7.62-3.36-14-6-16.27-7.28-1.79-1-4.46-2.2-4.46-5.84C1121.11,382.37,1122.55,381.07,1124.61,381.07Z"/><path class="cls-1" d="M1148.37,423.37c-5.15,0-6,2.33-6,3.57a9.88,9.88,0,0,0,.89,4.53,0.56,0.56,0,0,1-.14.82l-0.62.34a0.55,0.55,0,0,1-.76-0.14,11.55,11.55,0,0,1-2.75-7.62c0-3.36,3.23-6.66,5.84-6.66,2.82,0,8.86.21,9.82,0.21h1.51c1.24,0,5.91.07,8.79,0.14v-4.19a0.86,0.86,0,0,1,.82-1c0.55,0,.76.41,1.24,1.24,1,1.65,6.25,6.94,8.58,7.83a0.92,0.92,0,0,1,.69,1c0,0.55-.48.69-1,0.69l-6.73-.34v9.54a0.45,0.45,0,0,1-.62.48l-2.4-.69a0.56,0.56,0,0,1-.55-0.62v-8.86c-3.16-.14-6.52-0.21-9.68-0.21h-6.87Z"/><path class="cls-1" d="M1177.21,440.39c4.19,0,4.94-.82,5.77-3.3l0.41-1.17c0.14-.41.21-0.48,0.41-0.48h0.62c0.27,0,.34.21,0.69,0.82l3.78,7.14a3.64,3.64,0,0,1,.55,1.58c0,0.41-.55.69-1.72,0.55s-15.11-.21-18.54-0.21h-4.39v0.34a13.1,13.1,0,0,1,4.46,9.41,9,9,0,0,1-2.75,6.8c-2.88,3.09-6.39,3-10.09,3h-3.91c-3.85,0-8.1.14-9.41,0.14-0.82,0-1,1.1-1,2.54v1.17c0,0.55-.14.76-0.62,0.76h-1c-0.55,0-.82-0.14-0.82-0.55s0.21-2.68.21-6.59c0-3.36-.21-5.84-0.21-6.45s0.21-.62.76-0.62h1.17c0.34,0,.55.07,0.55,0.48v1.58c0,1.17.14,2.54,1.3,2.61,1,0.07,4.6,0,6.8,0h5.56c3.85,0,6.59-.27,8.45-2.27a6.3,6.3,0,0,0,1.92-4.53,8.38,8.38,0,0,0-2.88-6.39,6,6,0,0,0-3.36-1.37h-15c-2.2,0-2.82.21-2.82,1.51v2.06c0,0.48-.14.76-0.55,0.76h-1.17c-0.48,0-.76-0.14-0.76-0.55s0.21-3.36.21-6.52c0-3.43-.21-6-0.21-6.66,0-.27.21-0.48,0.69-0.48h1.24c0.48,0,.55.27,0.55,1v1.44c0,1.1.27,2.13,1.1,2.27,1.3,0.21,8.86.21,13.32,0.21h20.74Z"/><path class="cls-1" d="M1159.77,477.68c2.33,0,3.57-.41,4.12-3.85,0.07-.48.21-0.62,0.48-0.62H1165a0.56,0.56,0,0,1,.48.48,56.15,56.15,0,0,0,3.36,7.42,2.83,2.83,0,0,1,.41,1.3c0,0.34-.34.41-0.82,0.34-1.17-.14-5.49-0.14-11.19-0.14h-7.48c-2.68,0-5.15,0-5.91.07-1.3.14-1.79,0.34-1.79,1.1V487c0,0.55-.21.69-0.62,0.69h-1.17c-0.48,0-.69-0.14-0.69-0.62s0.21-3.71.21-6.59c0-4-.21-6.66-0.21-7.42a0.48,0.48,0,0,1,.55-0.55h1.37c0.41,0,.55.21,0.55,0.69v3.36c0,0.75.27,1,1.37,1.1,2.06,0.07,4.19.07,6.25,0.07h10.09Zm21.08-3.23a4.05,4.05,0,0,1,3.85,4.33,3.62,3.62,0,0,1-3.64,3.71,3.93,3.93,0,0,1-4.05-4.12A4.18,4.18,0,0,1,1180.85,474.45Z"/><path class="cls-1" d="M1143.49,519.77a1.29,1.29,0,0,0-1.44,1.51v2.2c0,0.62-.21.76-0.62,0.76h-1.1c-0.48,0-.76-0.14-0.76-0.55s0.21-2.61.21-6.52c0-3.5-.21-5.7-0.21-6.18s0.21-.55.76-0.55h1.1c0.48,0,.62.21,0.62,0.89v2c0,0.76.34,1.3,1.58,1.37,1.79,0.07,4,.14,5.77.14h9.06c2.75,0,4.74,0,6.18-2,1.24-1.65,1.24-3.3,1.24-5a8.05,8.05,0,0,0-2.68-5.56,6.73,6.73,0,0,0-4.67-1.58h-14.21c-1.85,0-2.27.21-2.27,1.65V504a0.57,0.57,0,0,1-.69.69h-1.17c-0.41,0-.62-0.14-0.62-0.48s0.21-2.33.21-6-0.21-5.7-.21-6.11,0.21-.48.62-0.48h1.24c0.41,0,.62.14,0.62,0.69v2a1.13,1.13,0,0,0,1.37,1.37h16.07a4.23,4.23,0,0,0,4.05-2.81l0.27-.55a0.66,0.66,0,0,1,.62-0.55h0.34a0.8,0.8,0,0,1,.69.62l3.3,5.91a3.63,3.63,0,0,1,.48,1.24c0,0.34-.27.48-0.82,0.55l-4.19.48v0.14c2.47,2,5,6,5,9.41a10.6,10.6,0,0,1-1.51,5.84,10,10,0,0,1-6.52,3.78h-17.72Z"/><path class="cls-1" d="M1123.31,530c1.51-2.47,3.3-3.5,5.56-3.5,3.85,0,6.8,3.91,8.24,7.21h0.27c0.62-2.88,2.75-4.6,4.81-4.6,3.3,0,5.63,3.78,6.52,6.18h0.14a10.92,10.92,0,0,1,10.44-6.39c4.46,0,10,4,10,11.74a11,11,0,0,1-4,8.65c1.3,1.85,2.68,4.19,2.68,6.45s-1.51,3.36-2.88,3.23a2.61,2.61,0,0,1-2.54-2.68,3.42,3.42,0,0,1,1-2.4,2.73,2.73,0,0,0,.62-1.44,5,5,0,0,0-.41-2.2,13,13,0,0,1-5.22,1,11.32,11.32,0,0,1-7.42-2.54,12.28,12.28,0,0,1-3.09-11.47c-0.55-1.37-1.92-3.64-3.85-3.64-2.82,0-2.61,3.43-2.33,8,0.27,5.63-.34,9.06-2.47,11.81a8.07,8.07,0,0,1-6.59,3.36c-3.23,0-5.91-1.17-8.45-4.6a20.66,20.66,0,0,1-3.23-11.74C1121.11,537.22,1121.45,533.3,1123.31,530Zm7.07,22.66c4.05,0,7.14-3.09,6.66-10l-0.48-6.59c-0.55-2.13-2.88-5.49-6.59-5.49a6.59,6.59,0,0,0-4.74,2.68c-1.58,2.27-1.92,4.74-1.92,9.61C1123.31,545.46,1125.09,553,1130.38,552.67Zm29.25-6.39c3,0,4.81-.62,6.18-1.85a5.19,5.19,0,0,0,1.51-3.3,6.3,6.3,0,0,0-1.92-4.88c-2.33-2.2-5.49-2.47-8.1-2.47a8.55,8.55,0,0,0-6,2.2,5.6,5.6,0,0,0-1.72,4.12C1149.6,544.77,1155.3,546.28,1159.63,546.28Z"/><path class="cls-1" d="M1044.07,940.57a17.64,17.64,0,0,0-3.3-.21c-6.73,0-11.81,4.26-11.81,9.75a9.3,9.3,0,0,0,4.67,8.31,0.56,0.56,0,0,1,.34.62l-0.48.89c-0.07.21-.27,0.34-1,0-2.75-1.24-7.48-4.81-7.48-10.92,0-3.91,1.17-8.24,4.88-10.78,3.5-2.4,6-3,10.85-3a15.46,15.46,0,0,1,10.92,4.33c3,3,3.64,6.39,3.64,9.82,0,7.9-7.42,10.09-10.09,10.09-1,0-1.1-.82-1.1-1.92v-17Zm2.06,10.92c0,1.3.34,1.85,1,1.85,1.58,0,6.11-.82,6.11-5.29,0-3-2-5.91-7.07-7.21v10.64Z"/><path class="cls-1" d="M1032.12,978.47v0.21c2.68,1.1,14.49,5.9,17.17,6.59,1.85,0.48,3,0,3-1.24v-1.37c0-.21.34-0.27,0.69-0.27h1.24c0.41,0,.55.14,0.55,0.41,0,1-.21,2.47-0.21,5.49,0,2.68.21,4.33,0.21,4.94s-0.07.62-.62,0.62h-1.17c-0.48,0-.69,0-0.69-0.34v-1.3a2.73,2.73,0,0,0-.76-2.13c-1-1-8.51-4.46-11.06-5.49-2.06-.82-13.6-5.9-14.08-6.18-1-.55-1.58-0.89-1.58-1.65s0.62-1.1,1.44-1.44l13.94-5.36c0.55-.21,8.45-3,9.54-3.5,2-.89,2.54-1.58,2.54-2.81v-1.37c0-.34.27-0.41,0.69-0.41h1.24c0.48,0,.55.14,0.55,0.75s-0.21,1.92-.21,5.77c0,3.64.21,5.42,0.21,6.18,0,0.55-.14.69-0.55,0.69h-1.24c-0.41,0-.69-0.07-0.69-0.48v-1.37a1.17,1.17,0,0,0-1.3-1.24c-1.24,0-7,1.79-8.17,2.2S1033.57,977.72,1032.12,978.47Z"/><path class="cls-1" d="M1044.07,999.83a17.64,17.64,0,0,0-3.3-.21c-6.73,0-11.81,4.26-11.81,9.75a9.3,9.3,0,0,0,4.67,8.31,0.56,0.56,0,0,1,.34.62l-0.48.89c-0.07.21-.27,0.34-1,0-2.75-1.24-7.48-4.81-7.48-10.92,0-3.91,1.17-8.24,4.88-10.78,3.5-2.4,6-3,10.85-3a15.46,15.46,0,0,1,10.92,4.33c3,3,3.64,6.39,3.64,9.82,0,7.9-7.42,10.09-10.09,10.09-1,0-1.1-.82-1.1-1.92v-17Zm2.06,10.92c0,1.3.34,1.85,1,1.85,1.58,0,6.11-.82,6.11-5.29,0-3-2-5.91-7.07-7.21v10.64Z"/><path class="cls-1" d="M1044.07,1027.85c3.5,0,4.19-.55,5.22-2.47l0.69-1.3c0.14-.41.21-0.55,0.48-0.55h0.41a0.69,0.69,0,0,1,.62.55l3.5,6.8a2.07,2.07,0,0,1,.27,1c0,0.41-.41.48-0.82,0.48l-4.88.34v0.27c3.16,2.06,6,5.29,6,8.24,0,2.33-1.44,3.5-3,3.5a3.32,3.32,0,0,1-3.36-2.88,4.5,4.5,0,0,1,.55-2,4.42,4.42,0,0,0,.55-2.27,4.87,4.87,0,0,0-2.88-4.05,7.4,7.4,0,0,0-2.2-.69h-14.28c-2.13,0-2.82.48-2.82,1.92v3.23c0,0.41-.21.48-0.62,0.48h-1.24c-0.41,0-.62-0.07-0.62-0.34s0.21-3.57.21-7.28c0-4.26-.21-7.14-0.21-7.55s0.14-.41.69-0.41h1.17c0.48,0,.62.14,0.62,0.76v2.68c0,1,.41,1.51,1.3,1.51,2.27,0.07,4.67.07,8.24,0.07h6.45Z"/><path class="cls-1" d="M1010.63,1046.94a3,3,0,0,1,2.68,3.16,11.79,11.79,0,0,1-.76,3.16,1.65,1.65,0,0,0,.41,1.44c1.24,1,9.06,4.53,11.74,5.49,1.72-.34,23.21-7.62,24.65-8.17,1.72-.82,2.88-1.44,2.88-3.23V1047c0-.48.21-0.55,0.62-0.55h1.37c0.27,0,.48.07,0.48,0.55s-0.21,2.27-.21,6.32c0,3.5.21,5.63,0.21,6.39,0,0.55-.21.62-0.48,0.62h-1.44c-0.34,0-.55-0.07-0.55-0.41v-1.3c0-.76-0.48-1-1.51-0.89-1.51.21-16.69,4.88-18.2,5.63v0.27c1.1,0.69,15.38,6.66,17.1,7.07s2.61-.14,2.61-1.17v-1.1c0-.41.21-0.48,0.55-0.48h1.37c0.34,0,.55.07,0.55,0.41,0,0.89-.21,2.33-0.21,5.63,0,1.85.21,3.43,0.21,4.19,0,0.41-.27.41-0.55,0.41h-1.3c-0.41,0-.62,0-0.62-0.34v-1.1a3.08,3.08,0,0,0-1.24-2.4c-1.85-1.51-12.36-6-23.14-10.78-7.62-3.36-14-6-16.27-7.28-1.79-1-4.46-2.2-4.46-5.84C1007.13,1048.24,1008.57,1046.94,1010.63,1046.94Z"/><path class="cls-1" d="M1034.39,1089.23c-5.15,0-6,2.33-6,3.57a9.88,9.88,0,0,0,.89,4.53,0.56,0.56,0,0,1-.14.82l-0.62.34a0.55,0.55,0,0,1-.76-0.14,11.55,11.55,0,0,1-2.75-7.62c0-3.36,3.23-6.66,5.84-6.66,2.82,0,8.86.21,9.82,0.21h1.51c1.24,0,5.91.07,8.79,0.14v-4.19a0.86,0.86,0,0,1,.82-1c0.55,0,.76.41,1.24,1.24,1,1.65,6.25,6.94,8.58,7.83a0.92,0.92,0,0,1,.69,1c0,0.55-.48.69-1,0.69l-6.73-.34v9.54a0.45,0.45,0,0,1-.62.48l-2.4-.69a0.56,0.56,0,0,1-.55-0.62v-8.86c-3.16-.14-6.52-0.21-9.68-0.21h-6.87Z"/><path class="cls-1" d="M1063.23,1106.26c4.19,0,4.94-.82,5.77-3.3l0.41-1.17c0.14-.41.21-0.48,0.41-0.48h0.62c0.27,0,.34.21,0.69,0.82l3.78,7.14a3.63,3.63,0,0,1,.55,1.58c0,0.41-.55.69-1.72,0.55s-15.11-.21-18.54-0.21h-4.39v0.34a13.1,13.1,0,0,1,4.46,9.41,9,9,0,0,1-2.75,6.8c-2.88,3.09-6.39,3-10.09,3h-3.91c-3.85,0-8.1.14-9.41,0.14-0.82,0-1,1.1-1,2.54v1.17c0,0.55-.14.76-0.62,0.76h-1c-0.55,0-.82-0.14-0.82-0.55s0.21-2.68.21-6.59c0-3.36-.21-5.84-0.21-6.45s0.21-.62.76-0.62h1.17c0.34,0,.55.07,0.55,0.48v1.58c0,1.17.14,2.54,1.3,2.61,1,0.07,4.6,0,6.8,0h5.56c3.85,0,6.59-.27,8.45-2.27a6.29,6.29,0,0,0,1.92-4.53,8.38,8.38,0,0,0-2.88-6.39,6,6,0,0,0-3.36-1.37h-15c-2.2,0-2.82.21-2.82,1.51v2.06c0,0.48-.14.76-0.55,0.76h-1.17c-0.48,0-.76-0.14-0.76-0.55s0.21-3.36.21-6.52c0-3.43-.21-6-0.21-6.66,0-.27.21-0.48,0.69-0.48h1.24c0.48,0,.55.27,0.55,1v1.44c0,1.1.27,2.13,1.1,2.27,1.3,0.21,8.86.21,13.32,0.21h20.74Z"/><path class="cls-1" d="M1045.79,1143.55c2.33,0,3.57-.41,4.12-3.85,0.07-.48.21-0.62,0.48-0.62H1051a0.56,0.56,0,0,1,.48.48,56.12,56.12,0,0,0,3.36,7.42,2.84,2.84,0,0,1,.41,1.3c0,0.34-.34.41-0.82,0.34-1.17-.14-5.49-0.14-11.19-0.14h-7.48c-2.68,0-5.15,0-5.91.07-1.3.14-1.79,0.34-1.79,1.1v3.16c0,0.55-.21.69-0.62,0.69h-1.17c-0.48,0-.69-0.14-0.69-0.62s0.21-3.71.21-6.59c0-4-.21-6.66-0.21-7.42a0.48,0.48,0,0,1,.55-0.55h1.37c0.41,0,.55.21,0.55,0.69v3.36c0,0.76.27,1,1.37,1.1,2.06,0.07,4.19.07,6.25,0.07h10.09Zm21.08-3.23a4.05,4.05,0,0,1,3.85,4.33,3.62,3.62,0,0,1-3.64,3.71,3.93,3.93,0,0,1-4.05-4.12A4.18,4.18,0,0,1,1066.87,1140.32Z"/><path class="cls-1" d="M1029.52,1185.64a1.29,1.29,0,0,0-1.44,1.51v2.2c0,0.62-.21.76-0.62,0.76h-1.1c-0.48,0-.76-0.14-0.76-0.55s0.21-2.61.21-6.52c0-3.5-.21-5.7-0.21-6.18s0.21-.55.76-0.55h1.1c0.48,0,.62.21,0.62,0.89v2c0,0.75.34,1.3,1.58,1.37,1.79,0.07,4,.14,5.77.14h9.06c2.75,0,4.74,0,6.18-2,1.24-1.65,1.24-3.3,1.24-5a8.05,8.05,0,0,0-2.68-5.56,6.73,6.73,0,0,0-4.67-1.58h-14.21c-1.85,0-2.27.21-2.27,1.65v1.72a0.57,0.57,0,0,1-.69.69h-1.17c-0.41,0-.62-0.14-0.62-0.48s0.21-2.33.21-6-0.21-5.7-.21-6.11,0.21-.48.62-0.48h1.24c0.41,0,.62.14,0.62,0.69v2a1.13,1.13,0,0,0,1.37,1.37h16.07a4.23,4.23,0,0,0,4.05-2.82l0.27-.55a0.66,0.66,0,0,1,.62-0.55h0.34a0.8,0.8,0,0,1,.69.62l3.3,5.9a3.63,3.63,0,0,1,.48,1.24c0,0.34-.27.48-0.82,0.55l-4.19.48v0.14c2.47,2,5,6,5,9.41a10.6,10.6,0,0,1-1.51,5.84,10,10,0,0,1-6.52,3.78h-17.72Z"/><path class="cls-1" d="M1009.33,1195.87c1.51-2.47,3.3-3.5,5.56-3.5,3.85,0,6.8,3.91,8.24,7.21h0.27c0.62-2.88,2.75-4.6,4.81-4.6,3.3,0,5.63,3.78,6.52,6.18h0.14a10.92,10.92,0,0,1,10.44-6.39c4.46,0,10,4,10,11.74a11,11,0,0,1-4,8.65c1.3,1.85,2.68,4.19,2.68,6.45s-1.51,3.36-2.88,3.23a2.61,2.61,0,0,1-2.54-2.68,3.42,3.42,0,0,1,1-2.4,2.73,2.73,0,0,0,.62-1.44,5,5,0,0,0-.41-2.2,13,13,0,0,1-5.22,1,11.32,11.32,0,0,1-7.42-2.54,12.28,12.28,0,0,1-3.09-11.47c-0.55-1.37-1.92-3.64-3.85-3.64-2.82,0-2.61,3.43-2.33,8,0.27,5.63-.34,9.06-2.47,11.81a8.07,8.07,0,0,1-6.59,3.36c-3.23,0-5.91-1.17-8.45-4.6a20.66,20.66,0,0,1-3.23-11.74C1007.13,1203.08,1007.47,1199.17,1009.33,1195.87Zm7.07,22.66c4.05,0,7.14-3.09,6.66-10l-0.48-6.59c-0.55-2.13-2.88-5.49-6.59-5.49a6.59,6.59,0,0,0-4.74,2.68c-1.58,2.27-1.92,4.74-1.92,9.61C1009.33,1211.32,1011.11,1218.88,1016.4,1218.53Zm29.25-6.39c3,0,4.81-.62,6.18-1.85a5.2,5.2,0,0,0,1.51-3.3,6.3,6.3,0,0,0-1.92-4.88c-2.33-2.2-5.49-2.47-8.1-2.47a8.55,8.55,0,0,0-6,2.2,5.6,5.6,0,0,0-1.72,4.12C1035.63,1210.64,1041.33,1212.15,1045.65,1212.15Z"/><path class="cls-1" d="M119.72,1482.66a17.64,17.64,0,0,0,3.3.21c6.73,0,11.81-4.26,11.81-9.75a9.3,9.3,0,0,0-4.67-8.31,0.56,0.56,0,0,1-.34-0.62l0.48-.89c0.07-.21.27-0.34,1,0,2.75,1.24,7.48,4.81,7.48,10.92,0,3.91-1.17,8.24-4.88,10.78-3.5,2.4-6,3-10.85,3a15.46,15.46,0,0,1-10.92-4.33c-3-3-3.64-6.39-3.64-9.82,0-7.9,7.42-10.09,10.09-10.09,1,0,1.1.82,1.1,1.92v17Zm-2.06-10.92c0-1.3-.34-1.85-1-1.85-1.58,0-6.11.82-6.11,5.29,0,3,2,5.91,7.07,7.21v-10.64Z"/><path class="cls-1" d="M131.67,1444.76v-0.21c-2.68-1.1-14.49-5.9-17.17-6.59-1.85-.48-3,0-3,1.24v1.37c0,0.21-.34.27-0.69,0.27h-1.24c-0.41,0-.55-0.14-0.55-0.41,0-1,.21-2.47.21-5.49,0-2.68-.21-4.33-0.21-4.94s0.07-.62.62-0.62h1.17c0.48,0,.69,0,0.69.34v1.3a2.73,2.73,0,0,0,.76,2.13c1,1,8.51,4.46,11.06,5.49,2.06,0.82,13.6,5.9,14.08,6.18,1,0.55,1.58.89,1.58,1.65s-0.62,1.1-1.44,1.44l-13.94,5.36c-0.55.21-8.45,3-9.54,3.5-2,.89-2.54,1.58-2.54,2.81V1461c0,0.34-.27.41-0.69,0.41h-1.24c-0.48,0-.55-0.14-0.55-0.75s0.21-1.92.21-5.77c0-3.64-.21-5.42-0.21-6.18,0-.55.14-0.69,0.55-0.69h1.24c0.41,0,.69.07,0.69,0.48v1.37a1.17,1.17,0,0,0,1.3,1.24c1.24,0,7-1.79,8.17-2.2S130.23,1445.52,131.67,1444.76Z"/><path class="cls-1" d="M119.72,1423.4a17.64,17.64,0,0,0,3.3.21c6.73,0,11.81-4.26,11.81-9.75a9.3,9.3,0,0,0-4.67-8.31,0.56,0.56,0,0,1-.34-0.62l0.48-.89c0.07-.21.27-0.34,1,0,2.75,1.24,7.48,4.81,7.48,10.92,0,3.91-1.17,8.24-4.88,10.78-3.5,2.4-6,3-10.85,3a15.46,15.46,0,0,1-10.92-4.33c-3-3-3.64-6.39-3.64-9.82,0-7.9,7.42-10.09,10.09-10.09,1,0,1.1.82,1.1,1.92v17Zm-2.06-10.92c0-1.3-.34-1.85-1-1.85-1.58,0-6.11.82-6.11,5.29,0,3,2,5.91,7.07,7.21v-10.64Z"/><path class="cls-1" d="M119.72,1395.39c-3.5,0-4.19.55-5.22,2.47l-0.69,1.3c-0.14.41-.21,0.55-0.48,0.55h-0.41a0.69,0.69,0,0,1-.62-0.55l-3.5-6.8a2.07,2.07,0,0,1-.27-1c0-.41.41-0.48,0.82-0.48l4.88-.34v-0.27c-3.16-2.06-6-5.29-6-8.24,0-2.33,1.44-3.5,3-3.5a3.32,3.32,0,0,1,3.36,2.88,4.5,4.5,0,0,1-.55,2,4.42,4.42,0,0,0-.55,2.27,4.87,4.87,0,0,0,2.88,4.05,7.4,7.4,0,0,0,2.2.69H132.9c2.13,0,2.82-.48,2.82-1.92v-3.23c0-.41.21-0.48,0.62-0.48h1.24c0.41,0,.62.07,0.62,0.34s-0.21,3.57-.21,7.28c0,4.26.21,7.14,0.21,7.55s-0.14.41-.69,0.41h-1.17c-0.48,0-.62-0.14-0.62-0.76V1397c0-1-.41-1.51-1.3-1.51-2.27-.07-4.67-0.07-8.24-0.07h-6.45Z"/><path class="cls-1" d="M153.16,1376.3a3,3,0,0,1-2.68-3.16,11.79,11.79,0,0,1,.76-3.16,1.65,1.65,0,0,0-.41-1.44c-1.24-1-9.06-4.53-11.74-5.49-1.72.34-23.21,7.62-24.65,8.17-1.72.82-2.88,1.44-2.88,3.23v1.79c0,0.48-.21.55-0.62,0.55h-1.37c-0.27,0-.48-0.07-0.48-0.55s0.21-2.27.21-6.32c0-3.5-.21-5.63-0.21-6.39,0-.55.21-0.62,0.48-0.62H111c0.34,0,.55.07,0.55,0.41v1.3c0,0.76.48,1,1.51,0.89,1.51-.21,16.69-4.87,18.2-5.63v-0.27c-1.1-.69-15.38-6.66-17.1-7.07s-2.61.14-2.61,1.17v1.1c0,0.41-.21.48-0.55,0.48h-1.37c-0.34,0-.55-0.07-0.55-0.41,0-.89.21-2.33,0.21-5.63,0-1.85-.21-3.43-0.21-4.19,0-.41.27-0.41,0.55-0.41h1.3c0.41,0,.62,0,0.62.34v1.1a3.08,3.08,0,0,0,1.24,2.4c1.85,1.51,12.36,6,23.14,10.78,7.62,3.36,14,6,16.27,7.28,1.79,1,4.46,2.2,4.46,5.84C156.66,1375,155.22,1376.3,153.16,1376.3Z"/><path class="cls-1" d="M129.4,1334c5.15,0,6-2.33,6-3.57a9.88,9.88,0,0,0-.89-4.53,0.56,0.56,0,0,1,.14-0.82l0.62-.34a0.55,0.55,0,0,1,.76.14,11.55,11.55,0,0,1,2.75,7.62c0,3.36-3.23,6.66-5.84,6.66-2.82,0-8.86-.21-9.82-0.21h-1.51c-1.24,0-5.91-.07-8.79-0.14V1343a0.86,0.86,0,0,1-.82,1c-0.55,0-.76-0.41-1.24-1.24-1-1.65-6.25-6.94-8.58-7.83a0.92,0.92,0,0,1-.69-1c0-.55.48-0.69,1-0.69l6.73,0.34v-9.54a0.45,0.45,0,0,1,.62-0.48l2.4,0.69a0.56,0.56,0,0,1,.55.62v8.86c3.16,0.14,6.52.21,9.68,0.21h6.87Z"/><path class="cls-1" d="M100.56,1317c-4.19,0-4.94.82-5.77,3.3l-0.41,1.17c-0.14.41-.21,0.48-0.41,0.48H93.35c-0.27,0-.34-0.21-0.69-0.82L88.89,1314a3.63,3.63,0,0,1-.55-1.58c0-.41.55-0.69,1.72-0.55s15.11,0.21,18.54.21H113v-0.34a13.1,13.1,0,0,1-4.46-9.41,9,9,0,0,1,2.75-6.8c2.88-3.09,6.39-3,10.09-3h3.91c3.85,0,8.1-.14,9.41-0.14,0.82,0,1-1.1,1-2.54v-1.17c0-.55.14-0.76,0.62-0.76h1c0.55,0,.82.14,0.82,0.55s-0.21,2.68-.21,6.59c0,3.36.21,5.84,0.21,6.45s-0.21.62-.76,0.62h-1.17c-0.34,0-.55-0.07-0.55-0.48v-1.58c0-1.17-.14-2.54-1.3-2.61-1-.07-4.6,0-6.8,0h-5.56c-3.85,0-6.59.27-8.45,2.27a6.29,6.29,0,0,0-1.92,4.53,8.38,8.38,0,0,0,2.88,6.39,6,6,0,0,0,3.36,1.37h15c2.2,0,2.82-.21,2.82-1.51v-2.06c0-.48.14-0.76,0.55-0.76h1.17c0.48,0,.76.14,0.76,0.55s-0.21,3.36-.21,6.52c0,3.43.21,6,.21,6.66,0,0.27-.21.48-0.69,0.48h-1.24c-0.48,0-.55-0.27-0.55-1v-1.44c0-1.1-.27-2.13-1.1-2.27-1.3-.21-8.86-0.21-13.32-0.21H100.56Z"/><path class="cls-1" d="M96.92,1282.91a4.05,4.05,0,0,1-3.85-4.33,3.62,3.62,0,0,1,3.64-3.71,3.93,3.93,0,0,1,4.05,4.12A4.18,4.18,0,0,1,96.92,1282.91Zm21.08-3.23c-2.33,0-3.57.41-4.12,3.85-0.07.48-.21,0.62-0.48,0.62h-0.62a0.56,0.56,0,0,1-.48-0.48,56.12,56.12,0,0,0-3.36-7.42,2.84,2.84,0,0,1-.41-1.3c0-.34.34-0.41,0.82-0.34,1.17,0.14,5.49.14,11.19,0.14H128c2.68,0,5.15,0,5.91-.07,1.3-.14,1.79-0.34,1.79-1.1v-3.16c0-.55.21-0.69,0.62-0.69h1.17c0.48,0,.69.14,0.69,0.62s-0.21,3.71-.21,6.59c0,4,.21,6.66.21,7.42a0.48,0.48,0,0,1-.55.55h-1.37c-0.41,0-.55-0.21-0.55-0.69v-3.36c0-.76-0.27-1-1.37-1.1-2.06-.07-4.19-0.07-6.25-0.07H118Z"/><path class="cls-1" d="M134.28,1237.59a1.29,1.29,0,0,0,1.44-1.51v-2.2c0-.62.21-0.76,0.62-0.76h1.1c0.48,0,.76.14,0.76,0.55s-0.21,2.61-.21,6.52c0,3.5.21,5.7,0.21,6.18s-0.21.55-.76,0.55h-1.1c-0.48,0-.62-0.21-0.62-0.89v-2c0-.75-0.34-1.3-1.58-1.37-1.79-.07-4-0.14-5.77-0.14h-9.06c-2.75,0-4.74,0-6.18,2-1.24,1.65-1.24,3.3-1.24,5a8.05,8.05,0,0,0,2.68,5.56,6.73,6.73,0,0,0,4.67,1.58h14.21c1.85,0,2.27-.21,2.27-1.65v-1.72a0.57,0.57,0,0,1,.69-0.69h1.17c0.41,0,.62.14,0.62,0.48s-0.21,2.33-.21,6,0.21,5.7.21,6.11-0.21.48-.62,0.48h-1.24c-0.41,0-.62-0.14-0.62-0.69v-2a1.13,1.13,0,0,0-1.37-1.37H118.28a4.23,4.23,0,0,0-4.05,2.82L114,1265a0.66,0.66,0,0,1-.62.55H113a0.8,0.8,0,0,1-.69-0.62L109,1259a3.63,3.63,0,0,1-.48-1.24c0-.34.27-0.48,0.82-0.55l4.19-.48v-0.14c-2.47-2-5-6-5-9.41a10.6,10.6,0,0,1,1.51-5.84,10,10,0,0,1,6.52-3.78h17.72Z"/><path class="cls-1" d="M154.46,1227.36c-1.51,2.47-3.3,3.5-5.56,3.5-3.85,0-6.8-3.91-8.24-7.21h-0.27c-0.62,2.88-2.75,4.6-4.81,4.6-3.3,0-5.63-3.78-6.52-6.18h-0.14a10.92,10.92,0,0,1-10.44,6.39c-4.46,0-10-4-10-11.74a11,11,0,0,1,4-8.65c-1.3-1.85-2.68-4.19-2.68-6.45s1.51-3.36,2.88-3.23a2.61,2.61,0,0,1,2.54,2.68,3.42,3.42,0,0,1-1,2.4,2.73,2.73,0,0,0-.62,1.44,5,5,0,0,0,.41,2.2,13,13,0,0,1,5.22-1,11.32,11.32,0,0,1,7.42,2.54,12.28,12.28,0,0,1,3.09,11.47c0.55,1.37,1.92,3.64,3.85,3.64,2.82,0,2.61-3.43,2.33-8-0.27-5.63.34-9.06,2.47-11.81a8.07,8.07,0,0,1,6.59-3.36c3.23,0,5.91,1.17,8.45,4.6a20.66,20.66,0,0,1,3.23,11.74C156.66,1220.15,156.32,1224.07,154.46,1227.36Zm-36.32-16.27c-3,0-4.81.62-6.18,1.85a5.2,5.2,0,0,0-1.51,3.3,6.3,6.3,0,0,0,1.92,4.88c2.33,2.2,5.49,2.47,8.1,2.47a8.55,8.55,0,0,0,6-2.2,5.6,5.6,0,0,0,1.72-4.12C128.17,1212.6,122.47,1211.09,118.14,1211.09Zm29.25-6.39c-4.05,0-7.14,3.09-6.66,10l0.48,6.59c0.55,2.13,2.88,5.49,6.59,5.49a6.59,6.59,0,0,0,4.74-2.68c1.58-2.27,1.92-4.74,1.92-9.61C154.46,1211.91,152.68,1204.36,147.39,1204.7Z"/><path class="cls-1" d="M2021.57,1427a17.63,17.63,0,0,0,3.3.21c6.73,0,11.81-4.26,11.81-9.75a9.3,9.3,0,0,0-4.67-8.31,0.56,0.56,0,0,1-.34-0.62l0.48-.89c0.07-.21.27-0.34,1,0,2.75,1.24,7.48,4.81,7.48,10.92,0,3.91-1.17,8.24-4.88,10.78-3.5,2.4-6,3-10.85,3A15.46,15.46,0,0,1,2014,1428c-3-3-3.64-6.39-3.64-9.82,0-7.9,7.42-10.09,10.09-10.09,1,0,1.1.82,1.1,1.92v17Zm-2.06-10.92c0-1.3-.34-1.85-1-1.85-1.58,0-6.11.82-6.11,5.29,0,3,2,5.91,7.07,7.21v-10.64Z"/><path class="cls-1" d="M2033.52,1389.09v-0.21c-2.68-1.1-14.49-5.9-17.17-6.59-1.85-.48-3,0-3,1.24v1.37c0,0.21-.34.27-0.69,0.27h-1.24c-0.41,0-.55-0.14-0.55-0.41,0-1,.21-2.47.21-5.49,0-2.68-.21-4.33-0.21-4.94s0.07-.62.62-0.62h1.17c0.48,0,.69,0,0.69.34v1.3a2.73,2.73,0,0,0,.76,2.13c1,1,8.51,4.46,11.06,5.49,2.06,0.82,13.6,5.9,14.08,6.18,1,0.55,1.58.89,1.58,1.65s-0.62,1.1-1.44,1.44l-13.94,5.36c-0.55.21-8.45,3-9.54,3.5-2,.89-2.54,1.58-2.54,2.81v1.37c0,0.34-.27.41-0.69,0.41h-1.24c-0.48,0-.55-0.14-0.55-0.75s0.21-1.92.21-5.77c0-3.64-.21-5.42-0.21-6.18,0-.55.14-0.69,0.55-0.69h1.24c0.41,0,.69.07,0.69,0.48v1.37a1.17,1.17,0,0,0,1.3,1.24c1.24,0,7-1.79,8.17-2.2S2032.07,1389.84,2033.52,1389.09Z"/><path class="cls-1" d="M2021.57,1367.73a17.63,17.63,0,0,0,3.3.21c6.73,0,11.81-4.26,11.81-9.75a9.3,9.3,0,0,0-4.67-8.31,0.56,0.56,0,0,1-.34-0.62l0.48-.89c0.07-.21.27-0.34,1,0,2.75,1.24,7.48,4.81,7.48,10.92,0,3.91-1.17,8.24-4.88,10.78-3.5,2.4-6,3-10.85,3a15.46,15.46,0,0,1-10.92-4.33c-3-3-3.64-6.39-3.64-9.82,0-7.9,7.42-10.09,10.09-10.09,1,0,1.1.82,1.1,1.92v17Zm-2.06-10.92c0-1.3-.34-1.85-1-1.85-1.58,0-6.11.82-6.11,5.29,0,3,2,5.91,7.07,7.21v-10.64Z"/><path class="cls-1" d="M2021.57,1339.71c-3.5,0-4.19.55-5.22,2.47l-0.69,1.3c-0.14.41-.21,0.55-0.48,0.55h-0.41a0.69,0.69,0,0,1-.62-0.55l-3.5-6.8a2.07,2.07,0,0,1-.27-1c0-.41.41-0.48,0.82-0.48l4.88-.34v-0.27c-3.16-2.06-6-5.29-6-8.24,0-2.33,1.44-3.5,3-3.5a3.32,3.32,0,0,1,3.36,2.88,4.5,4.5,0,0,1-.55,2,4.42,4.42,0,0,0-.55,2.27,4.87,4.87,0,0,0,2.88,4.05,7.4,7.4,0,0,0,2.2.69h14.28c2.13,0,2.81-.48,2.81-1.92v-3.23c0-.41.21-0.48,0.62-0.48h1.24c0.41,0,.62.07,0.62,0.34s-0.21,3.57-.21,7.28c0,4.26.21,7.14,0.21,7.55s-0.14.41-.69,0.41h-1.17c-0.48,0-.62-0.14-0.62-0.76v-2.68c0-1-.41-1.51-1.3-1.51-2.27-.07-4.67-0.07-8.24-0.07h-6.45Z"/><path class="cls-1" d="M2055,1320.63a3,3,0,0,1-2.68-3.16,11.77,11.77,0,0,1,.76-3.16,1.65,1.65,0,0,0-.41-1.44c-1.24-1-9.06-4.53-11.74-5.49-1.72.34-23.21,7.62-24.65,8.17-1.72.82-2.88,1.44-2.88,3.23v1.79c0,0.48-.21.55-0.62,0.55h-1.37c-0.27,0-.48-0.07-0.48-0.55s0.21-2.27.21-6.32c0-3.5-.21-5.63-0.21-6.39,0-.55.21-0.62,0.48-0.62h1.44c0.34,0,.55.07,0.55,0.41v1.3c0,0.76.48,1,1.51,0.89,1.51-.21,16.69-4.87,18.2-5.63v-0.27c-1.1-.69-15.38-6.66-17.1-7.07s-2.61.14-2.61,1.17v1.1c0,0.41-.21.48-0.55,0.48h-1.37c-0.34,0-.55-0.07-0.55-0.41,0-.89.21-2.33,0.21-5.63,0-1.85-.21-3.43-0.21-4.19,0-.41.27-0.41,0.55-0.41h1.3c0.41,0,.62,0,0.62.34v1.1a3.08,3.08,0,0,0,1.24,2.4c1.85,1.51,12.36,6,23.14,10.78,7.62,3.36,14,6,16.27,7.28,1.79,1,4.46,2.2,4.46,5.84C2058.51,1319.32,2057.07,1320.63,2055,1320.63Z"/><path class="cls-1" d="M2031.25,1278.33c5.15,0,6-2.33,6-3.57a9.88,9.88,0,0,0-.89-4.53,0.56,0.56,0,0,1,.14-0.82l0.62-.34a0.55,0.55,0,0,1,.75.14,11.55,11.55,0,0,1,2.75,7.62c0,3.36-3.23,6.66-5.84,6.66-2.81,0-8.86-.21-9.82-0.21h-1.51c-1.24,0-5.9-.07-8.79-0.14v4.19a0.86,0.86,0,0,1-.82,1c-0.55,0-.76-0.41-1.24-1.24-1-1.65-6.25-6.94-8.58-7.83a0.92,0.92,0,0,1-.69-1c0-.55.48-0.69,1-0.69l6.73,0.34v-9.54a0.45,0.45,0,0,1,.62-0.48l2.4,0.69a0.56,0.56,0,0,1,.55.62v8.86c3.16,0.14,6.52.21,9.68,0.21h6.87Z"/><path class="cls-1" d="M2002.41,1261.3c-4.19,0-4.94.82-5.77,3.3l-0.41,1.17c-0.14.41-.21,0.48-0.41,0.48h-0.62c-0.27,0-.34-0.21-0.69-0.82l-3.78-7.14a3.64,3.64,0,0,1-.55-1.58c0-.41.55-0.69,1.72-0.55s15.11,0.21,18.54.21h4.39V1256a13.1,13.1,0,0,1-4.46-9.41,9,9,0,0,1,2.75-6.8c2.88-3.09,6.39-3,10.09-3h3.91c3.85,0,8.1-.14,9.41-0.14,0.82,0,1-1.1,1-2.54V1233c0-.55.14-0.76,0.62-0.76h1c0.55,0,.82.14,0.82,0.55s-0.21,2.68-.21,6.59c0,3.36.21,5.84,0.21,6.45s-0.21.62-.76,0.62h-1.17c-0.34,0-.55-0.07-0.55-0.48v-1.58c0-1.17-.14-2.54-1.3-2.61-1-.07-4.6,0-6.8,0h-5.56c-3.85,0-6.59.27-8.45,2.27a6.29,6.29,0,0,0-1.92,4.53,8.38,8.38,0,0,0,2.88,6.39,6,6,0,0,0,3.36,1.37h15c2.2,0,2.81-.21,2.81-1.51v-2.06c0-.48.14-0.76,0.55-0.76h1.17c0.48,0,.76.14,0.76,0.55s-0.21,3.36-.21,6.52c0,3.43.21,6,.21,6.66,0,0.27-.21.48-0.69,0.48h-1.24c-0.48,0-.55-0.27-0.55-1v-1.44c0-1.1-.27-2.13-1.1-2.27-1.3-.21-8.86-0.21-13.32-0.21h-20.74Z"/><path class="cls-1" d="M1998.77,1227.24a4.05,4.05,0,0,1-3.85-4.33,3.62,3.62,0,0,1,3.64-3.71,3.93,3.93,0,0,1,4.05,4.12A4.18,4.18,0,0,1,1998.77,1227.24Zm21.08-3.23c-2.33,0-3.57.41-4.12,3.85-0.07.48-.21,0.62-0.48,0.62h-0.62a0.56,0.56,0,0,1-.48-0.48,56.14,56.14,0,0,0-3.36-7.42,2.83,2.83,0,0,1-.41-1.3c0-.34.34-0.41,0.82-0.34,1.17,0.14,5.49.14,11.19,0.14h7.48c2.68,0,5.15,0,5.91-.07,1.3-.14,1.79-0.34,1.79-1.1v-3.16c0-.55.21-0.69,0.62-0.69h1.17c0.48,0,.69.14,0.69,0.62s-0.21,3.71-.21,6.59c0,4,.21,6.66.21,7.42a0.48,0.48,0,0,1-.55.55h-1.37c-0.41,0-.55-0.21-0.55-0.69v-3.36c0-.76-0.27-1-1.37-1.1-2.06-.07-4.19-0.07-6.25-0.07h-10.09Z"/><path class="cls-1" d="M2036.13,1181.92a1.29,1.29,0,0,0,1.44-1.51v-2.2c0-.62.21-0.76,0.62-0.76h1.1c0.48,0,.76.14,0.76,0.55s-0.21,2.61-.21,6.52c0,3.5.21,5.7,0.21,6.18s-0.21.55-.76,0.55h-1.1c-0.48,0-.62-0.21-0.62-0.89v-2c0-.75-0.34-1.3-1.58-1.37-1.79-.07-4-0.14-5.77-0.14h-9.06c-2.75,0-4.74,0-6.18,2-1.24,1.65-1.24,3.3-1.24,5a8.05,8.05,0,0,0,2.68,5.56,6.73,6.73,0,0,0,4.67,1.58h14.21c1.85,0,2.27-.21,2.27-1.65v-1.72a0.57,0.57,0,0,1,.69-0.69h1.17c0.41,0,.62.14,0.62,0.48s-0.21,2.33-.21,6,0.21,5.7.21,6.11-0.21.48-.62,0.48h-1.24c-0.41,0-.62-0.14-0.62-0.69v-2a1.13,1.13,0,0,0-1.37-1.37h-16.07a4.23,4.23,0,0,0-4.05,2.82l-0.27.55a0.66,0.66,0,0,1-.62.55h-0.34a0.8,0.8,0,0,1-.69-0.62l-3.3-5.9a3.63,3.63,0,0,1-.48-1.24c0-.34.27-0.48,0.82-0.55l4.19-.48v-0.14c-2.47-2-5-6-5-9.41a10.6,10.6,0,0,1,1.51-5.84,10,10,0,0,1,6.52-3.78h17.72Z"/><path class="cls-1" d="M2056.31,1171.69c-1.51,2.47-3.3,3.5-5.56,3.5-3.85,0-6.8-3.91-8.24-7.21h-0.27c-0.62,2.88-2.75,4.6-4.81,4.6-3.3,0-5.63-3.78-6.52-6.18h-0.14a10.92,10.92,0,0,1-10.44,6.39c-4.46,0-10-4-10-11.74a11,11,0,0,1,4-8.65c-1.3-1.85-2.68-4.19-2.68-6.45s1.51-3.36,2.88-3.23a2.61,2.61,0,0,1,2.54,2.68,3.42,3.42,0,0,1-1,2.4,2.73,2.73,0,0,0-.62,1.44,5,5,0,0,0,.41,2.2,13,13,0,0,1,5.22-1,11.32,11.32,0,0,1,7.42,2.54,12.28,12.28,0,0,1,3.09,11.47c0.55,1.37,1.92,3.64,3.85,3.64,2.82,0,2.61-3.43,2.33-8-0.27-5.63.34-9.06,2.47-11.81a8.07,8.07,0,0,1,6.59-3.36c3.23,0,5.91,1.17,8.45,4.6a20.66,20.66,0,0,1,3.23,11.74C2058.51,1164.48,2058.17,1168.39,2056.31,1171.69ZM2020,1155.41c-3,0-4.81.62-6.18,1.85a5.2,5.2,0,0,0-1.51,3.3,6.3,6.3,0,0,0,1.92,4.88c2.33,2.2,5.49,2.47,8.1,2.47a8.55,8.55,0,0,0,6-2.2,5.6,5.6,0,0,0,1.72-4.12C2030,1156.92,2024.31,1155.41,2020,1155.41Zm29.25-6.39c-4.05,0-7.14,3.09-6.66,10l0.48,6.59c0.55,2.13,2.88,5.49,6.59,5.49a6.59,6.59,0,0,0,4.74-2.68c1.58-2.27,1.92-4.74,1.92-9.61C2056.31,1156.24,2054.53,1148.68,2049.24,1149Z"/><path class="cls-1" d="M474.41,710.93a17.64,17.64,0,0,0-3.3-.21c-6.73,0-11.81,4.26-11.81,9.75a9.3,9.3,0,0,0,4.67,8.31,0.56,0.56,0,0,1,.34.62l-0.48.89c-0.07.21-.27,0.34-1,0-2.75-1.24-7.48-4.81-7.48-10.92,0-3.91,1.17-8.24,4.88-10.78,3.5-2.4,6-3,10.85-3A15.46,15.46,0,0,1,482,709.9c3,3,3.64,6.39,3.64,9.82,0,7.9-7.42,10.09-10.09,10.09-1,0-1.1-.82-1.1-1.92v-17Zm2.06,10.92c0,1.3.34,1.85,1,1.85,1.58,0,6.11-.82,6.11-5.29,0-3-2-5.91-7.07-7.21v10.64Z"/><path class="cls-1" d="M462.47,748.84V749c2.68,1.1,14.49,5.9,17.17,6.59,1.85,0.48,3,0,3-1.24V753c0-.21.34-0.27,0.69-0.27h1.24c0.41,0,.55.14,0.55,0.41,0,1-.21,2.47-0.21,5.49,0,2.68.21,4.33,0.21,4.94s-0.07.62-.62,0.62h-1.17c-0.48,0-.69,0-0.69-0.34v-1.3a2.73,2.73,0,0,0-.76-2.13c-1-1-8.51-4.46-11.06-5.49-2.06-.82-13.6-5.9-14.08-6.18-1-.55-1.58-0.89-1.58-1.65s0.62-1.1,1.44-1.44l13.94-5.36c0.55-.21,8.45-3,9.54-3.5,2-.89,2.54-1.58,2.54-2.81v-1.37c0-.34.27-0.41,0.69-0.41h1.24c0.48,0,.55.14,0.55,0.75s-0.21,1.92-.21,5.77c0,3.64.21,5.42,0.21,6.18,0,0.55-.14.69-0.55,0.69h-1.24c-0.41,0-.69-0.07-0.69-0.48v-1.37a1.17,1.17,0,0,0-1.3-1.24c-1.24,0-7,1.79-8.17,2.2S463.91,748.08,462.47,748.84Z"/><path class="cls-1" d="M474.41,770.19a17.64,17.64,0,0,0-3.3-.21c-6.73,0-11.81,4.26-11.81,9.75A9.3,9.3,0,0,0,464,788a0.56,0.56,0,0,1,.34.62l-0.48.89c-0.07.21-.27,0.34-1,0-2.75-1.24-7.48-4.81-7.48-10.92,0-3.91,1.17-8.24,4.88-10.78,3.5-2.4,6-3,10.85-3A15.46,15.46,0,0,1,482,769.16c3,3,3.64,6.39,3.64,9.82,0,7.9-7.42,10.09-10.09,10.09-1,0-1.1-.82-1.1-1.92v-17Zm2.06,10.92c0,1.3.34,1.85,1,1.85,1.58,0,6.11-.82,6.11-5.29,0-3-2-5.91-7.07-7.21v10.64Z"/><path class="cls-1" d="M474.41,798.21c3.5,0,4.19-.55,5.22-2.47l0.69-1.3c0.14-.41.21-0.55,0.48-0.55h0.41a0.69,0.69,0,0,1,.62.55l3.5,6.8a2.07,2.07,0,0,1,.27,1c0,0.41-.41.48-0.82,0.48l-4.88.34v0.27c3.16,2.06,6,5.29,6,8.24,0,2.33-1.44,3.5-3,3.5a3.32,3.32,0,0,1-3.36-2.88,4.5,4.5,0,0,1,.55-2,4.42,4.42,0,0,0,.55-2.27,4.87,4.87,0,0,0-2.88-4.05,7.4,7.4,0,0,0-2.2-.69H461.23c-2.13,0-2.82.48-2.82,1.92v3.23c0,0.41-.21.48-0.62,0.48h-1.24c-0.41,0-.62-0.07-0.62-0.34s0.21-3.57.21-7.28c0-4.26-.21-7.14-0.21-7.55s0.14-.41.69-0.41h1.17c0.48,0,.62.14,0.62,0.76v2.68c0,1,.41,1.51,1.3,1.51,2.27,0.07,4.67.07,8.24,0.07h6.45Z"/><path class="cls-1" d="M441,817.3a3,3,0,0,1,2.68,3.16,11.79,11.79,0,0,1-.76,3.16,1.65,1.65,0,0,0,.41,1.44c1.24,1,9.06,4.53,11.74,5.49,1.72-.34,23.21-7.62,24.65-8.17,1.72-.82,2.88-1.44,2.88-3.23v-1.79c0-.48.21-0.55,0.62-0.55h1.37c0.27,0,.48.07,0.48,0.55s-0.21,2.27-.21,6.32c0,3.5.21,5.63,0.21,6.39,0,0.55-.21.62-0.48,0.62h-1.44c-0.34,0-.55-0.07-0.55-0.41V829c0-.76-0.48-1-1.51-0.89-1.51.21-16.69,4.88-18.2,5.63V834c1.1,0.69,15.38,6.66,17.1,7.07s2.61-.14,2.61-1.17v-1.1c0-.41.21-0.48,0.55-0.48h1.37c0.34,0,.55.07,0.55,0.41,0,0.89-.21,2.33-0.21,5.63,0,1.85.21,3.43,0.21,4.19,0,0.41-.27.41-0.55,0.41h-1.3c-0.41,0-.62,0-0.62-0.34v-1.1a3.08,3.08,0,0,0-1.24-2.4c-1.85-1.51-12.36-6-23.14-10.78-7.62-3.36-14-6-16.27-7.28-1.79-1-4.46-2.2-4.46-5.84C437.47,818.6,438.92,817.3,441,817.3Z"/><path class="cls-1" d="M464.73,859.59c-5.15,0-6,2.33-6,3.57a9.88,9.88,0,0,0,.89,4.53,0.56,0.56,0,0,1-.14.82l-0.62.34a0.55,0.55,0,0,1-.76-0.14,11.55,11.55,0,0,1-2.75-7.62c0-3.36,3.23-6.66,5.84-6.66,2.82,0,8.86.21,9.82,0.21h1.51c1.24,0,5.91.07,8.79,0.14V850.6a0.86,0.86,0,0,1,.82-1c0.55,0,.76.41,1.24,1.24,1,1.65,6.25,6.94,8.58,7.83a0.92,0.92,0,0,1,.69,1c0,0.55-.48.69-1,0.69l-6.73-.34v9.54a0.45,0.45,0,0,1-.62.48l-2.4-.69a0.56,0.56,0,0,1-.55-0.62V859.8c-3.16-.14-6.52-0.21-9.68-0.21h-6.87Z"/><path class="cls-1" d="M493.57,876.62c4.19,0,4.94-.82,5.77-3.3l0.41-1.17c0.14-.41.21-0.48,0.41-0.48h0.62c0.27,0,.34.21,0.69,0.82l3.78,7.14a3.63,3.63,0,0,1,.55,1.58c0,0.41-.55.69-1.72,0.55s-15.11-.21-18.54-0.21h-4.39v0.34a13.1,13.1,0,0,1,4.46,9.41,9,9,0,0,1-2.75,6.8c-2.88,3.09-6.39,3-10.09,3h-3.91c-3.85,0-8.1.14-9.41,0.14-0.82,0-1,1.1-1,2.54v1.17c0,0.55-.14.76-0.62,0.76h-1c-0.55,0-.82-0.14-0.82-0.55s0.21-2.68.21-6.59c0-3.36-.21-5.84-0.21-6.45s0.21-.62.76-0.62h1.17c0.34,0,.55.07,0.55,0.48v1.58c0,1.17.14,2.54,1.3,2.61,1,0.07,4.6,0,6.8,0h5.56c3.85,0,6.59-.27,8.45-2.27a6.29,6.29,0,0,0,1.92-4.53,8.38,8.38,0,0,0-2.88-6.39,6,6,0,0,0-3.36-1.37h-15c-2.2,0-2.82.21-2.82,1.51v2.06c0,0.48-.14.76-0.55,0.76H456.7c-0.48,0-.76-0.14-0.76-0.55s0.21-3.36.21-6.52c0-3.43-.21-6-0.21-6.66,0-.27.21-0.48,0.69-0.48h1.24c0.48,0,.55.27,0.55,1v1.44c0,1.1.27,2.13,1.1,2.27,1.3,0.21,8.86.21,13.32,0.21h20.74Z"/><path class="cls-1" d="M476.13,913.91c2.33,0,3.57-.41,4.12-3.85,0.07-.48.21-0.62,0.48-0.62h0.62a0.56,0.56,0,0,1,.48.48,56.12,56.12,0,0,0,3.36,7.42,2.84,2.84,0,0,1,.41,1.3c0,0.34-.34.41-0.82,0.34-1.17-.14-5.49-0.14-11.19-0.14h-7.48c-2.68,0-5.15,0-5.91.07-1.3.14-1.79,0.34-1.79,1.1v3.16c0,0.55-.21.69-0.62,0.69h-1.17c-0.48,0-.69-0.14-0.69-0.62s0.21-3.71.21-6.59c0-4-.21-6.66-0.21-7.42a0.48,0.48,0,0,1,.55-0.55h1.37c0.41,0,.55.21,0.55,0.69v3.36c0,0.76.27,1,1.37,1.1,2.06,0.07,4.19.07,6.25,0.07h10.09Zm21.08-3.23a4.05,4.05,0,0,1,3.85,4.33,3.62,3.62,0,0,1-3.64,3.71,3.93,3.93,0,0,1-4.05-4.12A4.18,4.18,0,0,1,497.21,910.68Z"/><path class="cls-1" d="M459.86,956a1.29,1.29,0,0,0-1.44,1.51v2.2c0,0.62-.21.76-0.62,0.76h-1.1c-0.48,0-.76-0.14-0.76-0.55s0.21-2.61.21-6.52c0-3.5-.21-5.7-0.21-6.18s0.21-.55.76-0.55h1.1c0.48,0,.62.21,0.62,0.89v2c0,0.75.34,1.3,1.58,1.37,1.79,0.07,4,.14,5.77.14h9.06c2.75,0,4.74,0,6.18-2,1.24-1.65,1.24-3.3,1.24-5a8.05,8.05,0,0,0-2.68-5.56,6.73,6.73,0,0,0-4.67-1.58H460.68c-1.85,0-2.27.21-2.27,1.65v1.72a0.57,0.57,0,0,1-.69.69h-1.17c-0.41,0-.62-0.14-0.62-0.48s0.21-2.33.21-6-0.21-5.7-.21-6.11,0.21-.48.62-0.48h1.24c0.41,0,.62.14,0.62,0.69v2a1.13,1.13,0,0,0,1.37,1.37h16.07a4.23,4.23,0,0,0,4.05-2.82l0.27-.55a0.66,0.66,0,0,1,.62-0.55h0.34a0.8,0.8,0,0,1,.69.62l3.3,5.9a3.63,3.63,0,0,1,.48,1.24c0,0.34-.27.48-0.82,0.55l-4.19.48V937c2.47,2,5,6,5,9.41a10.6,10.6,0,0,1-1.51,5.84,10,10,0,0,1-6.52,3.78H459.86Z"/><path class="cls-1" d="M439.67,966.23c1.51-2.47,3.3-3.5,5.56-3.5,3.85,0,6.8,3.91,8.24,7.21h0.27c0.62-2.88,2.75-4.6,4.81-4.6,3.3,0,5.63,3.78,6.52,6.18h0.14a10.92,10.92,0,0,1,10.44-6.39c4.46,0,10,4,10,11.74a11,11,0,0,1-4,8.65c1.3,1.85,2.68,4.19,2.68,6.45s-1.51,3.36-2.88,3.23a2.61,2.61,0,0,1-2.54-2.68,3.42,3.42,0,0,1,1-2.4,2.73,2.73,0,0,0,.62-1.44,5,5,0,0,0-.41-2.2,13,13,0,0,1-5.22,1,11.32,11.32,0,0,1-7.42-2.54,12.28,12.28,0,0,1-3.09-11.47c-0.55-1.37-1.92-3.64-3.85-3.64-2.82,0-2.61,3.43-2.33,8,0.27,5.63-.34,9.06-2.47,11.81a8.07,8.07,0,0,1-6.59,3.36c-3.23,0-5.91-1.17-8.45-4.6a20.66,20.66,0,0,1-3.23-11.74C437.47,973.44,437.82,969.53,439.67,966.23Zm7.07,22.66c4.05,0,7.14-3.09,6.66-10l-0.48-6.59c-0.55-2.13-2.88-5.49-6.59-5.49a6.59,6.59,0,0,0-4.74,2.68c-1.58,2.27-1.92,4.74-1.92,9.61C439.67,981.68,441.46,989.24,446.74,988.89ZM476,982.51c3,0,4.81-.62,6.18-1.85a5.2,5.2,0,0,0,1.51-3.3,6.3,6.3,0,0,0-1.92-4.88c-2.33-2.2-5.49-2.47-8.1-2.47a8.55,8.55,0,0,0-6,2.2,5.6,5.6,0,0,0-1.72,4.12C466,981,471.67,982.51,476,982.51Z"/></svg>