<svg id="Layer_1" data-name="Layer 1" xmlns="http://www.w3.org/2000/svg" viewBox="0 0 2560 1600"><defs><style>.cls-1{fill:#231f20;}</style></defs><title>everything</title><path class="cls-1" d="M1269.32,546.51a17.64,17.64,0,0,0-.21,3.3c0,6.73,4.26,11.81,9.75,11.81a9.3,9.3,0,0,0,8.31-4.67,0.56,0.56,0,0,1,.62-0.34l0.89,0.48c0.21,0.07.34,0.27,0,1-1.24,2.75-4.81,7.48-10.92,7.48-3.91,0-8.24-1.17-10.78-4.87-2.4-3.5-3-6-3-10.85a15.46,15.46,0,0,1,4.33-10.92c3-3,6.39-3.64,9.82-3.64,7.9,0,10.09,7.42,10.09,10.09,0,1-.82,1.1-1.92,1.1h-17Zm10.92-2.06c1.3,0,1.85-.34,1.85-1,0-1.58-.82-6.11-5.29-6.11-3,0-5.91,2-7.21,7.07h10.64Z"/><path class="cls-1" d="M1301.11,564.43a0.45,0.45,0,0,1-.48.55c-0.62,0-2.4-.21-5.36-0.21-3.43,0-4.6.21-5.29,0.21a0.52,0.52,0,0,1-.62-0.62v-1.24a0.5,0.5,0,0,1,.55-0.62h1.79a3.62,3.62,0,0,0,2.82-.82c1.3-1.17,7.69-9.68,8.86-11a124.93,124.93,0,0,0-8.1-11.4,3.12,3.12,0,0,0-2.47-1h-1.92a0.43,0.43,0,0,1-.48-0.48v-1.37c0-.48.07-0.62,0.55-0.62s2.4,0.21,5.63.21,5.77-.21,6.39-0.21c0.34,0,.41.21,0.41,0.62v1.3c0,0.41-.14.55-0.41,0.55h-0.62c-1.1,0-1.1,1.1-.27,2.33l4.26,6.73,5.22-6.87c0.62-.82.41-2.2-0.76-2.2H1310a0.39,0.39,0,0,1-.41-0.48v-1.44c0-.41.07-0.55,0.34-0.55,0.82,0,2,.21,5.91.21a34.94,34.94,0,0,0,3.91-.21,0.54,0.54,0,0,1,.62.69v1.24c0,0.41-.07.55-0.55,0.55h-1.1a3.79,3.79,0,0,0-2.68.82c-1.17,1-7,8.17-8.45,10,2.75,4.05,5.49,8.31,8.51,11.95a3.77,3.77,0,0,0,3,1.44h1.1c0.27,0,.34.14,0.34,0.55v1.37a0.45,0.45,0,0,1-.48.55c-0.62,0-1.92-.21-5.29-0.21-3.91,0-6,.21-6.73.21a0.5,0.5,0,0,1-.55-0.62v-1.17c0-.48.07-0.69,0.55-0.69h1c0.76,0,1.17-1,.41-2.2l-4.94-7.9c-1,1.37-5.49,7.48-6,8.58a1,1,0,0,0,.76,1.51h1.44c0.27,0,.34.27,0.34,0.55v1.37Z"/><path class="cls-1" d="M1328,548.15a19.36,19.36,0,0,0,3.5,10.44,8.84,8.84,0,0,0,7.48,3.5,9.42,9.42,0,0,0,7.55-3,0.36,0.36,0,0,1,.55,0l0.69,0.69a0.54,0.54,0,0,1,0,.89,15.89,15.89,0,0,1-11.06,4.88c-3.64,0-7.48-.82-10.64-4.81a14.22,14.22,0,0,1-3.09-9.34c0-8,5.63-16.14,14.69-16.14,7.14,0,9.34,4.12,9.34,5.56a2.34,2.34,0,0,1-2.54,2.4c-1.58,0-2.75-.89-3.78-2.75-1.51-2.82-3-3-4.6-3C1332.15,537.51,1328,541.08,1328,548.15Z"/><path class="cls-1" d="M1356.52,546.51a17.64,17.64,0,0,0-.21,3.3c0,6.73,4.26,11.81,9.75,11.81a9.3,9.3,0,0,0,8.31-4.67,0.56,0.56,0,0,1,.62-0.34l0.89,0.48c0.21,0.07.34,0.27,0,1-1.24,2.75-4.81,7.48-10.92,7.48-3.91,0-8.24-1.17-10.78-4.87-2.4-3.5-3-6-3-10.85a15.46,15.46,0,0,1,4.33-10.92c3-3,6.39-3.64,9.82-3.64,7.9,0,10.09,7.42,10.09,10.09,0,1-.82,1.1-1.92,1.1h-17Zm10.92-2.06c1.3,0,1.85-.34,1.85-1,0-1.58-.82-6.11-5.29-6.11-3,0-5.9,2-7.21,7.07h10.64Z"/><path class="cls-1" d="M1384,545.34c0-1.65-.48-2.61-2.47-3.71l-1.58-.89a0.58,0.58,0,0,1-.48-0.62v-0.55a0.56,0.56,0,0,1,.48-0.48l6.59-3.3a4,4,0,0,1,1.58-.55c0.34,0,.48.34,0.48,1.37l0.27,3.3h0.21a12.69,12.69,0,0,1,10-4.6,10.92,10.92,0,0,1,7.83,3.36c2.61,2.61,3.71,5.42,3.71,10.71,0,9-6.25,16.21-14.83,16.21a19.51,19.51,0,0,1-6.87-1.17v14.49c0,1.92.48,2.27,1.51,2.27h3a0.54,0.54,0,0,1,.62.69V583a0.52,0.52,0,0,1-.62.62c-0.34,0-2.68-.21-7.07-0.21-4,0-6.39.21-6.94,0.21a0.52,0.52,0,0,1-.62-0.62V581.8c0-.34.14-0.62,0.82-0.62h2.68c1.17,0,1.3-.69,1.44-1.72,0.21-1.51.21-5.22,0.21-11.95V545.34Zm4.94,12.57c0,1.51.14,2.75,1.44,3.64a11.08,11.08,0,0,0,6.87,1.85c3.91,0,8-3,8-11.47,0-9.61-4.33-13.46-8.93-13.46a8.72,8.72,0,0,0-7.35,4.39v15Z"/><path class="cls-1" d="M1424.78,556.19c0,5.15,2.33,6,3.57,6a9.87,9.87,0,0,0,4.53-.89,0.56,0.56,0,0,1,.82.14l0.34,0.62a0.55,0.55,0,0,1-.14.75,11.55,11.55,0,0,1-7.62,2.75c-3.36,0-6.66-3.23-6.66-5.84,0-2.82.21-8.86,0.21-9.82v-1.51c0-1.24.07-5.91,0.14-8.79h-4.19a0.86,0.86,0,0,1-1-.82c0-.55.41-0.76,1.24-1.24,1.65-1,6.94-6.25,7.83-8.58a0.92,0.92,0,0,1,1-.69c0.55,0,.69.48,0.69,1l-0.34,6.73h9.54a0.45,0.45,0,0,1,.48.62l-0.69,2.4a0.56,0.56,0,0,1-.62.55H1425c-0.14,3.16-.21,6.52-0.21,9.68v6.87Z"/><path class="cls-1" d="M1464.13,556.19c0,5.15,2.33,6,3.57,6a9.87,9.87,0,0,0,4.53-.89,0.56,0.56,0,0,1,.82.14l0.34,0.62a0.55,0.55,0,0,1-.14.75,11.55,11.55,0,0,1-7.62,2.75c-3.36,0-6.66-3.23-6.66-5.84,0-2.82.21-8.86,0.21-9.82v-1.51c0-1.24.07-5.91,0.14-8.79h-4.19a0.86,0.86,0,0,1-1-.82c0-.55.41-0.76,1.24-1.24,1.65-1,6.94-6.25,7.83-8.58a0.92,0.92,0,0,1,1-.69c0.55,0,.69.48,0.69,1l-0.34,6.73H1474a0.45,0.45,0,0,1,.48.62l-0.69,2.4a0.56,0.56,0,0,1-.62.55h-8.86c-0.14,3.16-.21,6.52-0.21,9.68v6.87Z"/><path class="cls-1" d="M1481.15,527.35c0-4.19-.82-4.94-3.3-5.77l-1.17-.41c-0.41-.14-0.48-0.21-0.48-0.41v-0.62c0-.27.21-0.34,0.82-0.69l7.14-3.78a3.63,3.63,0,0,1,1.58-.55c0.41,0,.69.55,0.55,1.72s-0.21,15.11-.21,18.54v4.39h0.34a13.1,13.1,0,0,1,9.41-4.46,9,9,0,0,1,6.8,2.75c3.09,2.88,3,6.39,3,10.09v3.91c0,3.85.14,8.1,0.14,9.41,0,0.82,1.1,1,2.54,1h1.17c0.55,0,.76.14,0.76,0.62v1c0,0.55-.14.82-0.55,0.82s-2.68-.21-6.59-0.21c-3.36,0-5.84.21-6.45,0.21s-0.62-.21-0.62-0.75v-1.17c0-.34.07-0.55,0.48-0.55H1498c1.17,0,2.54-.14,2.61-1.3,0.07-1,0-4.6,0-6.8v-5.56c0-3.85-.27-6.59-2.27-8.45a6.3,6.3,0,0,0-4.53-1.92,8.38,8.38,0,0,0-6.39,2.88,6,6,0,0,0-1.37,3.37v15c0,2.2.21,2.82,1.51,2.82h2.06c0.48,0,.76.14,0.76,0.55v1.17c0,0.48-.14.75-0.55,0.75s-3.36-.21-6.52-0.21c-3.43,0-6,.21-6.66.21-0.27,0-.48-0.21-0.48-0.69v-1.24c0-.48.27-0.55,1-0.55h1.44c1.1,0,2.13-.28,2.27-1.1,0.21-1.3.21-8.86,0.21-13.32V527.35Z"/><path class="cls-1" d="M1519.33,546.51a17.6,17.6,0,0,0-.21,3.3c0,6.73,4.26,11.81,9.75,11.81a9.3,9.3,0,0,0,8.31-4.67,0.56,0.56,0,0,1,.62-0.34l0.89,0.48c0.21,0.07.34,0.27,0,1-1.24,2.75-4.81,7.48-10.92,7.48-3.91,0-8.24-1.17-10.78-4.87-2.4-3.5-3-6-3-10.85A15.46,15.46,0,0,1,1518.3,539c3-3,6.39-3.64,9.82-3.64,7.9,0,10.09,7.42,10.09,10.09,0,1-.82,1.1-1.92,1.1h-17Zm10.92-2.06c1.3,0,1.85-.34,1.85-1,0-1.58-.82-6.11-5.29-6.11-3,0-5.91,2-7.21,7.07h10.64Z"/></svg>