<svg id="Layer_1" data-name="Layer 1" xmlns="http://www.w3.org/2000/svg" viewBox="0 0 2560 1600"><defs><style>.cls-1{fill:#231f20;}</style></defs><title>everything</title><path class="cls-1" d="M731,1076.69a17.62,17.62,0,0,0-.21,3.3c0,6.73,4.26,11.81,9.75,11.81a9.3,9.3,0,0,0,8.31-4.67,0.56,0.56,0,0,1,.62-0.34l0.89,0.48c0.21,0.07.34,0.27,0,1-1.24,2.75-4.81,7.48-10.92,7.48-3.91,0-8.24-1.17-10.78-4.88-2.4-3.5-3-6-3-10.85a15.46,15.46,0,0,1,4.33-10.92c3-3,6.39-3.64,9.82-3.64,7.9,0,10.09,7.42,10.09,10.09,0,1-.82,1.1-1.92,1.1H731Zm10.92-2.06c1.3,0,1.85-.34,1.85-1,0-1.58-.82-6.11-5.29-6.11-3,0-5.91,2-7.21,7.07h10.64Z"/><path class="cls-1" d="M768.9,1088.64h0.21c1.1-2.68,5.91-14.49,6.59-17.17,0.48-1.85,0-3-1.24-3h-1.37c-0.21,0-.27-0.34-0.27-0.69v-1.24c0-.41.14-0.55,0.41-0.55,1,0,2.47.21,5.49,0.21,2.68,0,4.33-.21,4.94-0.21s0.62,0.07.62,0.62v1.17c0,0.48,0,.69-0.34.69h-1.3a2.73,2.73,0,0,0-2.13.76c-1,1-4.46,8.51-5.49,11.06-0.82,2.06-5.91,13.6-6.18,14.08-0.55,1-.89,1.58-1.65,1.58s-1.1-.62-1.44-1.44l-5.36-13.94c-0.21-.55-3-8.45-3.5-9.54-0.89-2-1.58-2.54-2.82-2.54h-1.37c-0.34,0-.41-0.27-0.41-0.69v-1.24c0-.48.14-0.55,0.76-0.55s1.92,0.21,5.77.21c3.64,0,5.42-.21,6.18-0.21,0.55,0,.69.14,0.69,0.55v1.24c0,0.41-.07.69-0.48,0.69h-1.37a1.17,1.17,0,0,0-1.24,1.3c0,1.24,1.79,7,2.2,8.17S768.14,1087.2,768.9,1088.64Z"/><path class="cls-1" d="M790.25,1076.69a17.62,17.62,0,0,0-.21,3.3c0,6.73,4.26,11.81,9.75,11.81a9.3,9.3,0,0,0,8.31-4.67,0.56,0.56,0,0,1,.62-0.34l0.89,0.48c0.21,0.07.34,0.27,0,1-1.24,2.75-4.81,7.48-10.92,7.48-3.91,0-8.24-1.17-10.78-4.88-2.4-3.5-3-6-3-10.85a15.46,15.46,0,0,1,4.33-10.92c3-3,6.39-3.64,9.82-3.64,7.9,0,10.09,7.42,10.09,10.09,0,1-.82,1.1-1.92,1.1h-17Zm10.92-2.06c1.3,0,1.85-.34,1.85-1,0-1.58-.82-6.11-5.29-6.11-3,0-5.91,2-7.21,7.07h10.64Z"/><path class="cls-1" d="M818.27,1076.69c0-3.5-.55-4.19-2.47-5.22l-1.3-.69c-0.41-.14-0.55-0.21-0.55-0.48v-0.41a0.69,0.69,0,0,1,.55-0.62l6.8-3.5a2.07,2.07,0,0,1,1-.27c0.41,0,.48.41,0.48,0.82l0.34,4.88h0.27c2.06-3.16,5.29-6,8.24-6,2.33,0,3.5,1.44,3.5,3a3.32,3.32,0,0,1-2.88,3.36,4.5,4.5,0,0,1-2-.55,4.42,4.42,0,0,0-2.27-.55,4.87,4.87,0,0,0-4.05,2.88,7.41,7.41,0,0,0-.69,2.2v14.28c0,2.13.48,2.81,1.92,2.81h3.23c0.41,0,.48.21,0.48,0.62v1.24c0,0.41-.07.62-0.34,0.62s-3.57-.21-7.28-0.21c-4.26,0-7.14.21-7.55,0.21s-0.41-.14-0.41-0.69v-1.17c0-.48.14-0.62,0.76-0.62h2.68c1,0,1.51-.41,1.51-1.3,0.07-2.27.07-4.67,0.07-8.24v-6.45Z"/><path class="cls-1" d="M837.36,1110.13a3,3,0,0,1,3.16-2.68,11.77,11.77,0,0,1,3.16.76,1.65,1.65,0,0,0,1.44-.41c1-1.24,4.53-9.06,5.49-11.74-0.34-1.72-7.62-23.21-8.17-24.65-0.82-1.72-1.44-2.88-3.23-2.88h-1.79c-0.48,0-.55-0.21-0.55-0.62v-1.37c0-.27.07-0.48,0.55-0.48s2.27,0.21,6.32.21c3.5,0,5.63-.21,6.39-0.21,0.55,0,.62.21,0.62,0.48V1068c0,0.34-.07.55-0.41,0.55H849c-0.76,0-1,.48-0.89,1.51,0.21,1.51,4.88,16.69,5.63,18.2H854c0.69-1.1,6.66-15.38,7.07-17.1s-0.14-2.61-1.17-2.61h-1.1c-0.41,0-.48-0.21-0.48-0.55v-1.37c0-.34.07-0.55,0.41-0.55,0.89,0,2.33.21,5.63,0.21,1.85,0,3.43-.21,4.19-0.21,0.41,0,.41.27,0.41,0.55v1.3c0,0.41,0,.62-0.34.62h-1.1a3.08,3.08,0,0,0-2.4,1.24c-1.51,1.85-6,12.36-10.78,23.14-3.36,7.62-6,14-7.28,16.27-1,1.79-2.2,4.46-5.84,4.46C838.66,1113.64,837.36,1112.19,837.36,1110.13Z"/><path class="cls-1" d="M879.66,1086.38c0,5.15,2.33,6,3.57,6a9.88,9.88,0,0,0,4.53-.89,0.56,0.56,0,0,1,.82.14l0.34,0.62a0.55,0.55,0,0,1-.14.75,11.55,11.55,0,0,1-7.62,2.75c-3.36,0-6.66-3.23-6.66-5.84,0-2.81.21-8.86,0.21-9.82v-1.51c0-1.24.07-5.9,0.14-8.79h-4.19a0.86,0.86,0,0,1-1-.82c0-.55.41-0.76,1.24-1.24,1.65-1,6.94-6.25,7.83-8.58a0.92,0.92,0,0,1,1-.69c0.55,0,.69.48,0.69,1l-0.34,6.73h9.54a0.45,0.45,0,0,1,.48.62l-0.69,2.4a0.56,0.56,0,0,1-.62.55h-8.86c-0.14,3.16-.21,6.52-0.21,9.68v6.87Z"/><path class="cls-1" d="M896.69,1057.54c0-4.19-.82-4.94-3.3-5.77l-1.17-.41c-0.41-.14-0.48-0.21-0.48-0.41v-0.62c0-.27.21-0.34,0.82-0.69l7.14-3.78a3.64,3.64,0,0,1,1.58-.55c0.41,0,.69.55,0.55,1.72s-0.21,15.11-.21,18.54V1070H902a13.1,13.1,0,0,1,9.41-4.46,9,9,0,0,1,6.8,2.75c3.09,2.88,3,6.39,3,10.09v3.91c0,3.85.14,8.1,0.14,9.41,0,0.82,1.1,1,2.54,1H925c0.55,0,.76.14,0.76,0.62v1c0,0.55-.14.82-0.55,0.82s-2.68-.21-6.59-0.21c-3.36,0-5.84.21-6.45,0.21s-0.62-.21-0.62-0.76v-1.17c0-.34.07-0.55,0.48-0.55h1.58c1.17,0,2.54-.14,2.61-1.3,0.07-1,0-4.6,0-6.8V1079c0-3.85-.27-6.59-2.27-8.45a6.3,6.3,0,0,0-4.53-1.92,8.38,8.38,0,0,0-6.39,2.88,6,6,0,0,0-1.37,3.36v15c0,2.2.21,2.81,1.51,2.81h2.06c0.48,0,.76.14,0.76,0.55v1.17c0,0.48-.14.76-0.55,0.76s-3.36-.21-6.52-0.21c-3.43,0-6,.21-6.66.21-0.27,0-.48-0.21-0.48-0.69v-1.24c0-.48.27-0.55,1-0.55h1.44c1.1,0,2.13-.27,2.27-1.1,0.21-1.3.21-8.86,0.21-13.32v-20.74Z"/><path class="cls-1" d="M934,1075c0-2.33-.41-3.57-3.85-4.12-0.48-.07-0.62-0.21-0.62-0.48v-0.62a0.56,0.56,0,0,1,.48-0.48,56.17,56.17,0,0,0,7.42-3.36,2.83,2.83,0,0,1,1.3-.41c0.34,0,.41.34,0.34,0.82-0.14,1.17-.14,5.49-0.14,11.19V1085c0,2.68,0,5.15.07,5.91,0.14,1.3.34,1.79,1.1,1.79h3.16c0.55,0,.69.21,0.69,0.62v1.17c0,0.48-.14.69-0.62,0.69s-3.71-.21-6.59-0.21c-4,0-6.66.21-7.42,0.21a0.48,0.48,0,0,1-.55-0.55v-1.37c0-.41.21-0.55,0.69-0.55h3.36c0.76,0,1-.27,1.1-1.37,0.07-2.06.07-4.19,0.07-6.25V1075Zm-3.23-21.08a4.05,4.05,0,0,1,4.33-3.85,3.62,3.62,0,0,1,3.71,3.64,3.93,3.93,0,0,1-4.12,4.05A4.18,4.18,0,0,1,930.74,1053.9Z"/><path class="cls-1" d="M976.06,1091.25a1.29,1.29,0,0,0,1.51,1.44h2.2c0.62,0,.76.21,0.76,0.62v1.1c0,0.48-.14.76-0.55,0.76s-2.61-.21-6.52-0.21c-3.5,0-5.7.21-6.18,0.21s-0.55-.21-0.55-0.76v-1.1c0-.48.21-0.62,0.89-0.62h2c0.76,0,1.3-.34,1.37-1.58,0.07-1.79.14-4,.14-5.77v-9.06c0-2.75,0-4.74-2-6.18-1.65-1.24-3.3-1.24-5-1.24a8.05,8.05,0,0,0-5.56,2.68,6.73,6.73,0,0,0-1.58,4.67v14.21c0,1.85.21,2.27,1.65,2.27h1.72a0.57,0.57,0,0,1,.69.69v1.17c0,0.41-.14.62-0.48,0.62s-2.33-.21-6-0.21-5.7.21-6.11,0.21-0.48-.21-0.48-0.62v-1.24c0-.41.14-0.62,0.69-0.62h2a1.13,1.13,0,0,0,1.37-1.37v-16.07a4.23,4.23,0,0,0-2.82-4.05l-0.55-.27a0.66,0.66,0,0,1-.55-0.62V1070a0.8,0.8,0,0,1,.62-0.69l5.91-3.3a3.63,3.63,0,0,1,1.24-.48c0.34,0,.48.27,0.55,0.82l0.48,4.19H957c2-2.47,6-5,9.41-5a10.6,10.6,0,0,1,5.84,1.51,10,10,0,0,1,3.78,6.52v17.72Z"/><path class="cls-1" d="M986.3,1111.44c-2.47-1.51-3.5-3.3-3.5-5.56,0-3.85,3.91-6.8,7.21-8.24v-0.27c-2.88-.62-4.6-2.75-4.6-4.81,0-3.3,3.78-5.63,6.18-6.52v-0.14a10.92,10.92,0,0,1-6.39-10.44c0-4.46,4-10,11.74-10a11,11,0,0,1,8.65,4c1.85-1.3,4.19-2.68,6.45-2.68s3.36,1.51,3.23,2.88a2.61,2.61,0,0,1-2.68,2.54,3.42,3.42,0,0,1-2.4-1,2.73,2.73,0,0,0-1.44-.62,5,5,0,0,0-2.2.41,13,13,0,0,1,1,5.22,11.32,11.32,0,0,1-2.54,7.42,12.28,12.28,0,0,1-11.47,3.09c-1.37.55-3.64,1.92-3.64,3.85,0,2.82,3.43,2.61,8,2.33,5.63-.27,9.06.34,11.81,2.47a8.07,8.07,0,0,1,3.36,6.59c0,3.23-1.17,5.91-4.6,8.45a20.66,20.66,0,0,1-11.74,3.23C993.51,1113.64,989.59,1113.29,986.3,1111.44Zm22.66-7.07c0-4.05-3.09-7.14-10-6.66l-6.59.48c-2.13.55-5.49,2.88-5.49,6.59a6.59,6.59,0,0,0,2.68,4.74c2.27,1.58,4.74,1.92,9.61,1.92C1001.75,1111.44,1009.3,1109.65,1009,1104.37Zm-6.39-29.25c0-3-.62-4.81-1.85-6.18a5.2,5.2,0,0,0-3.3-1.51,6.3,6.3,0,0,0-4.88,1.92c-2.2,2.33-2.47,5.49-2.47,8.1a8.55,8.55,0,0,0,2.2,6,5.6,5.6,0,0,0,4.12,1.72C1001.06,1085.14,1002.57,1079.44,1002.57,1075.11Z"/><path class="cls-1" d="M107.54,112.5a17.63,17.63,0,0,0-.21,3.3c0,6.73,4.26,11.81,9.75,11.81a9.3,9.3,0,0,0,8.31-4.67,0.56,0.56,0,0,1,.62-0.34l0.89,0.48c0.21,0.07.34,0.27,0,1-1.24,2.75-4.81,7.48-10.92,7.48-3.91,0-8.24-1.17-10.78-4.88-2.4-3.5-3-6-3-10.85a15.46,15.46,0,0,1,4.33-10.92c3-3,6.39-3.64,9.82-3.64,7.9,0,10.09,7.42,10.09,10.09,0,1-.82,1.1-1.92,1.1h-17Zm10.92-2.06c1.3,0,1.85-.34,1.85-1,0-1.58-.82-6.11-5.29-6.11-3,0-5.91,2-7.21,7.07h10.64Z"/><path class="cls-1" d="M145.45,124.44h0.21c1.1-2.68,5.91-14.49,6.59-17.17,0.48-1.85,0-3-1.24-3h-1.37c-0.21,0-.27-0.34-0.27-0.69V102.4c0-.41.14-0.55,0.41-0.55,1,0,2.47.21,5.49,0.21,2.68,0,4.33-.21,4.94-0.21s0.62,0.07.62,0.62v1.17c0,0.48,0,.69-0.34.69h-1.3a2.73,2.73,0,0,0-2.13.76c-1,1-4.46,8.51-5.49,11.06-0.82,2.06-5.91,13.6-6.18,14.08-0.55,1-.89,1.58-1.65,1.58s-1.1-.62-1.44-1.44l-5.36-13.94c-0.21-.55-3-8.45-3.5-9.54-0.89-2-1.58-2.54-2.82-2.54h-1.37c-0.34,0-.41-0.27-0.41-0.69V102.4c0-.48.14-0.55,0.76-0.55s1.92,0.21,5.77.21c3.64,0,5.42-.21,6.18-0.21,0.55,0,.69.14,0.69,0.55v1.24c0,0.41-.07.69-0.48,0.69h-1.37a1.17,1.17,0,0,0-1.24,1.3c0,1.24,1.79,7,2.2,8.17S144.69,123,145.45,124.44Z"/><path class="cls-1" d="M166.81,112.5a17.63,17.63,0,0,0-.21,3.3c0,6.73,4.26,11.81,9.75,11.81a9.3,9.3,0,0,0,8.31-4.67,0.56,0.56,0,0,1,.62-0.34l0.89,0.48c0.21,0.07.34,0.27,0,1-1.24,2.75-4.81,7.48-10.92,7.48-3.91,0-8.24-1.17-10.78-4.88-2.4-3.5-3-6-3-10.85a15.46,15.46,0,0,1,4.33-10.92c3-3,6.39-3.64,9.82-3.64,7.9,0,10.09,7.42,10.09,10.09,0,1-.82,1.1-1.92,1.1h-17Zm10.92-2.06c1.3,0,1.85-.34,1.85-1,0-1.58-.82-6.11-5.29-6.11-3,0-5.91,2-7.21,7.07h10.64Z"/><path class="cls-1" d="M194.82,112.5c0-3.5-.55-4.19-2.47-5.22l-1.3-.69c-0.41-.14-0.55-0.21-0.55-0.48V105.7a0.69,0.69,0,0,1,.55-0.62l6.8-3.5a2.07,2.07,0,0,1,1-.27c0.41,0,.48.41,0.48,0.82l0.34,4.88h0.27c2.06-3.16,5.29-6,8.24-6,2.33,0,3.5,1.44,3.5,3a3.32,3.32,0,0,1-2.88,3.36,4.5,4.5,0,0,1-2-.55,4.42,4.42,0,0,0-2.27-.55,4.87,4.87,0,0,0-4.05,2.88,7.4,7.4,0,0,0-.69,2.2v14.28c0,2.13.48,2.82,1.92,2.82h3.23c0.41,0,.48.21,0.48,0.62v1.24c0,0.41-.07.62-0.34,0.62s-3.57-.21-7.28-0.21c-4.26,0-7.14.21-7.55,0.21s-0.41-.14-0.41-0.69v-1.17c0-.48.14-0.62,0.76-0.62h2.68c1,0,1.51-.41,1.51-1.3,0.07-2.27.07-4.67,0.07-8.24V112.5Z"/><path class="cls-1" d="M213.91,145.94a3,3,0,0,1,3.16-2.68,11.79,11.79,0,0,1,3.16.76,1.65,1.65,0,0,0,1.44-.41c1-1.24,4.53-9.06,5.49-11.74-0.34-1.72-7.62-23.21-8.17-24.65-0.82-1.72-1.44-2.88-3.23-2.88H214c-0.48,0-.55-0.21-0.55-0.62v-1.37c0-.27.07-0.48,0.55-0.48s2.27,0.21,6.32.21c3.5,0,5.63-.21,6.39-0.21,0.55,0,.62.21,0.62,0.48v1.44c0,0.34-.07.55-0.41,0.55h-1.3c-0.76,0-1,.48-0.89,1.51,0.21,1.51,4.88,16.69,5.63,18.2h0.27c0.69-1.1,6.66-15.38,7.07-17.1s-0.14-2.61-1.17-2.61h-1.1c-0.41,0-.48-0.21-0.48-0.55V102.4c0-.34.07-0.55,0.41-0.55,0.89,0,2.33.21,5.63,0.21,1.85,0,3.43-.21,4.19-0.21,0.41,0,.41.27,0.41,0.55v1.3c0,0.41,0,.62-0.34.62h-1.1a3.08,3.08,0,0,0-2.4,1.24c-1.51,1.85-6,12.36-10.78,23.14-3.36,7.62-6,14-7.28,16.27-1,1.79-2.2,4.46-5.84,4.46C215.21,149.44,213.91,148,213.91,145.94Z"/><path class="cls-1" d="M256.21,122.18c0,5.15,2.33,6,3.57,6a9.88,9.88,0,0,0,4.53-.89,0.56,0.56,0,0,1,.82.14l0.34,0.62a0.55,0.55,0,0,1-.14.76,11.55,11.55,0,0,1-7.62,2.75c-3.36,0-6.66-3.23-6.66-5.84,0-2.82.21-8.86,0.21-9.82v-1.51c0-1.24.07-5.91,0.14-8.79h-4.19a0.86,0.86,0,0,1-1-.82c0-.55.41-0.76,1.24-1.24,1.65-1,6.94-6.25,7.83-8.58a0.92,0.92,0,0,1,1-.69c0.55,0,.69.48,0.69,1l-0.34,6.73h9.54a0.45,0.45,0,0,1,.48.62l-0.69,2.4a0.56,0.56,0,0,1-.62.55h-8.86c-0.14,3.16-.21,6.52-0.21,9.68v6.87Z"/><path class="cls-1" d="M273.24,93.34c0-4.19-.82-4.94-3.3-5.77l-1.17-.41c-0.41-.14-0.48-0.21-0.48-0.41V86.13c0-.27.21-0.34,0.82-0.69l7.14-3.78a3.64,3.64,0,0,1,1.58-.55c0.41,0,.69.55,0.55,1.72s-0.21,15.11-.21,18.54v4.39h0.34a13.1,13.1,0,0,1,9.41-4.46,9,9,0,0,1,6.8,2.75c3.09,2.88,3,6.39,3,10.09v3.91c0,3.85.14,8.1,0.14,9.41,0,0.82,1.1,1,2.54,1h1.17c0.55,0,.76.14,0.76,0.62v1c0,0.55-.14.82-0.55,0.82s-2.68-.21-6.59-0.21c-3.36,0-5.84.21-6.45,0.21s-0.62-.21-0.62-0.76V129c0-.34.07-0.55,0.48-0.55h1.58c1.17,0,2.54-.14,2.61-1.3,0.07-1,0-4.6,0-6.8v-5.56c0-3.85-.27-6.59-2.27-8.45a6.3,6.3,0,0,0-4.53-1.92,8.38,8.38,0,0,0-6.39,2.88,6,6,0,0,0-1.37,3.36v15c0,2.2.21,2.82,1.51,2.82h2.06c0.48,0,.76.14,0.76,0.55v1.17c0,0.48-.14.76-0.55,0.76s-3.36-.21-6.52-0.21c-3.43,0-6,.21-6.66.21-0.27,0-.48-0.21-0.48-0.69V129c0-.48.27-0.55,1-0.55h1.44c1.1,0,2.13-.27,2.27-1.1,0.21-1.3.21-8.86,0.21-13.32V93.34Z"/><path class="cls-1" d="M310.52,110.78c0-2.33-.41-3.57-3.85-4.12-0.48-.07-0.62-0.21-0.62-0.48v-0.62a0.56,0.56,0,0,1,.48-0.48,56.14,56.14,0,0,0,7.42-3.36,2.83,2.83,0,0,1,1.3-.41c0.34,0,.41.34,0.34,0.82-0.14,1.17-.14,5.49-0.14,11.19v7.48c0,2.68,0,5.15.07,5.91,0.14,1.3.34,1.79,1.1,1.79h3.16c0.55,0,.69.21,0.69,0.62v1.17c0,0.48-.14.69-0.62,0.69s-3.71-.21-6.59-0.21c-4,0-6.66.21-7.42,0.21a0.48,0.48,0,0,1-.55-0.55V129c0-.41.21-0.55,0.69-0.55h3.36c0.76,0,1-.27,1.1-1.37,0.07-2.06.07-4.19,0.07-6.25V110.78ZM307.3,89.7a4.05,4.05,0,0,1,4.33-3.85,3.62,3.62,0,0,1,3.71,3.64,3.93,3.93,0,0,1-4.12,4.05A4.18,4.18,0,0,1,307.3,89.7Z"/><path class="cls-1" d="M352.62,127.05a1.29,1.29,0,0,0,1.51,1.44h2.2c0.62,0,.76.21,0.76,0.62v1.1c0,0.48-.14.76-0.55,0.76s-2.61-.21-6.52-0.21c-3.5,0-5.7.21-6.18,0.21s-0.55-.21-0.55-0.76v-1.1c0-.48.21-0.62,0.89-0.62h2c0.76,0,1.3-.34,1.37-1.58,0.07-1.79.14-4,.14-5.77v-9.06c0-2.75,0-4.74-2-6.18-1.65-1.24-3.3-1.24-5-1.24a8.05,8.05,0,0,0-5.56,2.68,6.73,6.73,0,0,0-1.58,4.67v14.21c0,1.85.21,2.27,1.65,2.27h1.72a0.57,0.57,0,0,1,.69.69v1.17c0,0.41-.14.62-0.48,0.62s-2.33-.21-6-0.21-5.7.21-6.11,0.21-0.48-.21-0.48-0.62v-1.24c0-.41.14-0.62,0.69-0.62h2a1.13,1.13,0,0,0,1.37-1.37V111.05a4.23,4.23,0,0,0-2.82-4.05l-0.55-.27a0.66,0.66,0,0,1-.55-0.62v-0.34a0.8,0.8,0,0,1,.62-0.69l5.91-3.3a3.63,3.63,0,0,1,1.24-.48c0.34,0,.48.27,0.55,0.82l0.48,4.19h0.14c2-2.47,6-5,9.41-5a10.6,10.6,0,0,1,5.84,1.51,10,10,0,0,1,3.78,6.52v17.72Z"/><path class="cls-1" d="M362.85,147.24c-2.47-1.51-3.5-3.3-3.5-5.56,0-3.85,3.91-6.8,7.21-8.24v-0.27c-2.88-.62-4.6-2.75-4.6-4.81,0-3.3,3.78-5.63,6.18-6.52V121.7a10.92,10.92,0,0,1-6.39-10.44c0-4.46,4-10,11.74-10a11,11,0,0,1,8.65,4c1.85-1.3,4.19-2.68,6.45-2.68s3.36,1.51,3.23,2.88a2.61,2.61,0,0,1-2.68,2.54,3.42,3.42,0,0,1-2.4-1,2.73,2.73,0,0,0-1.44-.62,5,5,0,0,0-2.2.41,13,13,0,0,1,1,5.22,11.32,11.32,0,0,1-2.54,7.42,12.28,12.28,0,0,1-11.47,3.09c-1.37.55-3.64,1.92-3.64,3.85,0,2.82,3.43,2.61,8,2.33,5.63-.27,9.06.34,11.81,2.47a8.07,8.07,0,0,1,3.36,6.59c0,3.23-1.17,5.91-4.6,8.45a20.66,20.66,0,0,1-11.74,3.23C370.06,149.44,366.14,149.09,362.85,147.24Zm22.66-7.07c0-4.05-3.09-7.14-10-6.66L369,134c-2.13.55-5.49,2.88-5.49,6.59a6.59,6.59,0,0,0,2.68,4.74c2.27,1.58,4.74,1.92,9.61,1.92C378.3,147.24,385.85,145.46,385.51,140.17Zm-6.39-29.25c0-3-.62-4.81-1.85-6.18a5.19,5.19,0,0,0-3.3-1.51,6.3,6.3,0,0,0-4.88,1.92c-2.2,2.33-2.47,5.49-2.47,8.1a8.55,8.55,0,0,0,2.2,6,5.6,5.6,0,0,0,4.12,1.72C377.61,120.94,379.12,115.24,379.12,110.92Z"/><path class="cls-1" d="M2053.43,1417.79c0.41,0,4.46-.21,5-0.34,1.79-.48,2.47-1.44,2.47-3.57,0-.27.07-0.34,0.34-0.34l1.51,0.07c0.27,0,.48.14,0.41,0.41-0.14.62-.14,4.26-0.14,4.88,0,1.51.21,3.64,0.27,4.53a0.29,0.29,0,0,1-.34.34l-1.44.14a0.32,0.32,0,0,1-.41-0.27c-0.34-1.72-.76-2.82-2.54-3.23a24.42,24.42,0,0,0-5.15-.48v2.33c0,2.4.14,6.39,0.14,7.28,0,3.23,2,3.43,4.94,3.43s4.94-.07,7.28-1.92a35.89,35.89,0,0,0,3.64-4.6c0.34-.48.69-0.55,0.89-0.41l1.1,0.62a0.42,0.42,0,0,1,.21.48l-2.47,7.28a1.06,1.06,0,0,1-.76.69c-0.21,0-1.24-.07-4.05-0.14s-7.28-.07-14.49-0.07c-0.62,0-1.85.07-3.09,0.07s-2.33.14-2.75,0.14a0.39,0.39,0,0,1-.41-0.48V1433a0.39,0.39,0,0,1,.48-0.41h0.62c3.23,0,3.43-.27,3.43-1.24v-14.63c0-3.64-.07-8.1-0.14-8.79-0.21-1.44-.62-1.72-3.36-1.72H2044c-0.21,0-.27-0.14-0.27-0.48v-1.65a0.32,0.32,0,0,1,.34-0.34c1,0,4.81.21,5.84,0.21l15.38-.07c0.69,0,1.58-.14,1.85-0.14s0.27,0.14.41,1c0.14,0.62,2.06,6.52,2.2,7,0.07,0.27.07,0.41-.07,0.48l-1.1.48a0.48,0.48,0,0,1-.62-0.27c-0.14-.21-3.43-4.05-4.6-5.15a4.1,4.1,0,0,0-2.61-1l-7.28-.14v11.67Z"/><path class="cls-1" d="M2089.48,1405.84a0.42,0.42,0,0,1-.48.41h-1.58c-0.89,0-1.92.14-1.92,1,0,1.58,1.17,4.26,3,10,0.55,1.72,3.09,9.68,3.5,10.78h0.21c0.41-1.44,3.78-10,4.12-11,2.61-7.62,3.5-9.48,3.5-10.16,0-.34-0.27-0.69-1.44-0.69h-0.76a0.39,0.39,0,0,1-.41-0.48v-1.58a0.4,0.4,0,0,1,.41-0.41c0.41,0,4,.21,5.56.21,1.24,0,4.33-.21,4.74-0.21a0.39,0.39,0,0,1,.41.48v1.44a0.48,0.48,0,0,1-.41.55h-1.1a4,4,0,0,0-2.88,1c-1.3,1.3-5,10.3-5.7,12.08-0.62,1.44-6.25,14.9-6.8,15.79a1.17,1.17,0,0,1-1.1.55,1.31,1.31,0,0,1-1.1-1l-5.7-15.52-0.48-1.51c-1.17-3.16-3.23-9.41-3.71-10.09a2.45,2.45,0,0,0-2-1.3h-0.69a0.34,0.34,0,0,1-.34-0.41v-1.72a0.35,0.35,0,0,1,.41-0.34c0.34,0,4.12.21,5.91,0.21s5.84-.21,6.25-0.21,0.55,0.14.55,0.48v1.58Z"/><path class="cls-1" d="M2122.85,1417.79c0.41,0,4.46-.21,5-0.34,1.79-.48,2.47-1.44,2.47-3.57,0-.27.07-0.34,0.34-0.34l1.51,0.07c0.27,0,.48.14,0.41,0.41-0.14.62-.14,4.26-0.14,4.88,0,1.51.21,3.64,0.27,4.53a0.29,0.29,0,0,1-.34.34l-1.44.14a0.32,0.32,0,0,1-.41-0.27c-0.34-1.72-.76-2.82-2.54-3.23a24.42,24.42,0,0,0-5.15-.48v2.33c0,2.4.14,6.39,0.14,7.28,0,3.23,2,3.43,4.94,3.43s4.94-.07,7.28-1.92a35.89,35.89,0,0,0,3.64-4.6c0.34-.48.69-0.55,0.89-0.41l1.1,0.62a0.42,0.42,0,0,1,.21.48l-2.47,7.28a1.06,1.06,0,0,1-.76.69c-0.21,0-1.24-.07-4.05-0.14s-7.28-.07-14.49-0.07c-0.62,0-1.85.07-3.09,0.07s-2.33.14-2.75,0.14a0.39,0.39,0,0,1-.41-0.48V1433a0.39,0.39,0,0,1,.48-0.41h0.62c3.23,0,3.43-.27,3.43-1.24v-14.63c0-3.64-.07-8.1-0.14-8.79-0.21-1.44-.62-1.72-3.36-1.72h-0.69c-0.21,0-.27-0.14-0.27-0.48v-1.65a0.32,0.32,0,0,1,.34-0.34c1,0,4.81.21,5.84,0.21l15.38-.07c0.69,0,1.58-.14,1.85-0.14s0.27,0.14.41,1c0.14,0.62,2.06,6.52,2.2,7,0.07,0.27.07,0.41-.07,0.48l-1.1.48a0.48,0.48,0,0,1-.62-0.27c-0.14-.21-3.43-4.05-4.6-5.15a4.1,4.1,0,0,0-2.61-1l-7.28-.14v11.67Z"/><path class="cls-1" d="M2151.14,1408.38c-0.07-1.37-.69-2.13-2.61-2.13h-0.69c-0.21,0-.27-0.21-0.27-0.48v-1.65a0.35,0.35,0,0,1,.41-0.34c0.34,0,4.6.21,5.84,0.21,0.82,0,6.8-.21,7.69-0.21,4.12,0,7.21,1.17,8.93,2.68a7.48,7.48,0,0,1,2.4,5c0,4.74-2.68,7.48-8.1,9.41V1421c1.58,0.34,3,2.47,5.77,6.45a21.55,21.55,0,0,0,3.85,4.39,4.74,4.74,0,0,0,3.09.76c0.27,0,.34.21,0.34,0.62v1.37a0.42,0.42,0,0,1-.41.48c-0.14,0-.69-0.07-1.37-0.14s-1.44-.07-2.13-0.07c-1.58,0-3.23.07-4.39,0.14-1.3-1-4.33-6.52-4.94-7.55-2.47-4.26-3.5-5.77-6.39-5.77a7,7,0,0,0-1.79.14v9.06a1.72,1.72,0,0,0,1.92,1.72h1.79a0.35,0.35,0,0,1,.41.34v1.65c0,0.34-.14.48-0.55,0.48s-4.19-.21-6.45-0.21c-1.72,0-5.22.21-5.7,0.21a0.45,0.45,0,0,1-.41-0.55V1433a0.35,0.35,0,0,1,.41-0.34h0.82c1.65,0,2.47-.27,2.47-1.79,0.07-3.36,0-7.42.07-11.6v-10.85Zm5.22,11.12a14.48,14.48,0,0,0,2.06.14c7.62,0,8.79-5.36,8.79-7.14a5.85,5.85,0,0,0-2.27-4.74,11.41,11.41,0,0,0-6.52-1.79c-1,0-2.06.27-2.06,1.51v12Z"/><path class="cls-1" d="M2197.42,1426.71c0.07,1.72,0,3.57.14,4.39,0.14,1.44,1.24,1.51,2.47,1.51h0.89c0.34,0,.48.14,0.48,0.34v1.65a0.46,0.46,0,0,1-.55.48c-0.41,0-4.26-.21-6.52-0.21-1.51,0-5.49.21-5.91,0.21s-0.48-.14-0.48-0.55V1433a0.4,0.4,0,0,1,.41-0.41h1c2.2,0,2.61-.41,2.68-1.37,0.07-.62.07-3.09,0.07-7.14v-2.47c-0.62-1.24-9-13.53-10.09-14.56a3.8,3.8,0,0,0-2.47-.82h-1c-0.34,0-.48-0.14-0.48-0.55v-1.51a0.45,0.45,0,0,1,.55-0.41c0.41,0,4,.21,5.63.21s6.18-.21,6.66-0.21a0.43,0.43,0,0,1,.48.48v1.51a0.41,0.41,0,0,1-.48.48h-1c-1.24,0-1.3.76-1,1.17,0.41,0.62,6.11,9.75,7.21,11.4,1-1.72,6.73-10,7-10.57,0.55-1.1.62-2-.89-2h-1.1a0.43,0.43,0,0,1-.48-0.48v-1.51a0.43,0.43,0,0,1,.48-0.48c0.41,0,3.85.21,5.91,0.21,1.24,0,3.64-.21,4.05-0.21s0.48,0.14.48,0.55v1.44a0.39,0.39,0,0,1-.41.48h-0.69a4.88,4.88,0,0,0-2.47.55c-1,.55-9,11.74-10.57,14.15v5.77Z"/><path class="cls-1" d="M2228.32,1406.39c-1.3,0-5.91-.07-8.45.62a15.8,15.8,0,0,0-4.05,5.29,0.47,0.47,0,0,1-.62.34l-1.24-.48a0.5,0.5,0,0,1-.27-0.69c0.48-1.51,2.13-7.07,2.4-8.31a0.73,0.73,0,0,1,.62-0.69,0.91,0.91,0,0,1,.55.21l0.55,0.41a4.13,4.13,0,0,0,2.68.76c2.4,0.14,5,.27,9,0.27h2.75c2.75,0,6.87-.14,9.68-0.27a4.55,4.55,0,0,0,2.47-.62l0.82-.55a1.1,1.1,0,0,1,.55-0.21c0.27,0,.41.21,0.62,1.51,0.14,1,1.3,5.9,1.65,7.76a0.45,0.45,0,0,1-.34.55l-1.17.34c-0.41.14-.62,0.07-0.76-0.27a18,18,0,0,0-3.43-5.29c-1.72-.62-7.48-0.69-8.72-0.69v11.54c0,7.21,0,12.36.07,12.91,0.14,1.1.48,1.79,1.58,1.79h2.61c0.34,0,.48.21,0.48,0.62v1.44a0.42,0.42,0,0,1-.48.41c-0.48,0-4.74-.21-7-0.21-1.92,0-6.39.21-6.94,0.21a0.5,0.5,0,0,1-.55-0.62v-1.37a0.39,0.39,0,0,1,.41-0.48h2.75a1.39,1.39,0,0,0,1.58-1.1c0.21-2.61.21-6.25,0.21-10.37v-14.76Z"/><path class="cls-1" d="M2286.21,1419c0,1.44.07,9.68,0.07,10.3,0.07,2.68.48,3.36,1.92,3.36h2c0.27,0,.34.21,0.34,0.48v1.51c0,0.34-.14.48-0.55,0.48-0.62,0-4.12-.21-6.32-0.21-1.44,0-5.56.21-6.66,0.21-0.48,0-.62-0.21-0.62-0.48V1433a0.39,0.39,0,0,1,.48-0.41h2.68c1,0,1.24-.82,1.24-2.4,0-1,.14-8,0.14-9.2v-0.62c0-.48-0.27-0.55-1-0.55h-15.31c-0.55,0-.69.07-0.69,0.41v0.62c0,1.17,0,7.9.07,9.2,0.07,2.13.55,2.54,1.51,2.54h2.06a0.39,0.39,0,0,1,.41.48v1.51a0.42,0.42,0,0,1-.41.48c-0.82,0-4.67-.21-6.18-0.21-1.3,0-5.77.21-6.73,0.21a0.41,0.41,0,0,1-.48-0.48V1433c0-.34.14-0.41,0.48-0.41h2.13c1.58,0,1.65-1.1,1.72-2.54,0-.89.14-9.41,0.14-10.51v-1.92c0-2.75-.14-8.1-0.14-8.79,0-2-.76-2.61-2-2.61h-1.85c-0.41,0-.55-0.14-0.55-0.48v-1.44c0-.41.07-0.55,0.55-0.55,0.76,0,5.22.21,6.94,0.21,1.51,0,5.42-.21,6.18-0.21a0.45,0.45,0,0,1,.55.55v1.44c0,0.34-.07.48-0.55,0.48h-1.92A1.71,1.71,0,0,0,2264,1408c0,0.62-.07,6.32-0.07,8.38V1417a0.48,0.48,0,0,0,.55.55H2280c0.69,0,1-.14,1-0.69v-0.62c0-1.85-.14-7.21-0.14-7.76,0-1.44-.69-2.2-1.58-2.2h-2a0.39,0.39,0,0,1-.48-0.41v-1.58a0.41,0.41,0,0,1,.48-0.48c0.76,0,5,.21,6.52.21,1.17,0,5.29-.21,5.84-0.21s0.62,0.21.62,0.69v1.3c0,0.27-.07.48-0.62,0.48h-1.79a1.44,1.44,0,0,0-1.51,1.65c0,1-.07,8-0.07,9.54V1419Z"/><path class="cls-1" d="M2308.12,1420.74c0,0.41,0,8.31.07,9.34,0.14,1.58,1,2.54,3,2.54h1c0.34,0,.41.14,0.41,0.34v1.65a0.39,0.39,0,0,1-.41.48c-0.55,0-4.12-.21-7.21-0.21-2.33,0-6.32.21-6.73,0.21a0.45,0.45,0,0,1-.41-0.55V1433a0.4,0.4,0,0,1,.41-0.41h1.51c1.72,0,2.82-.07,3-1.3,0.07-.62.14-9.34,0.14-11.67v-3c0-1.1-.14-8-0.14-8.93,0-.75-0.62-1.44-3.5-1.44H2298a0.39,0.39,0,0,1-.41-0.48v-1.58a0.36,0.36,0,0,1,.41-0.41c0.41,0,4.67.27,7.9,0.21,2,0,5.49-.21,6-0.21a0.35,0.35,0,0,1,.41.34v1.65a0.39,0.39,0,0,1-.41.48h-1.17c-1.85,0-2.47.27-2.54,1.72,0,0.69-.07,8.86-0.07,9.34v3.43Z"/><path class="cls-1" d="M2350.35,1434.06a1.09,1.09,0,0,1-1,1.3,3.06,3.06,0,0,1-1.58-.69c-0.48-.48-2.82-3.3-5.63-6.66l-6.87-8.17c-1.65-1.92-7.21-9.34-8.31-10.57h-0.14v9.41c0,4.12.27,11,.41,11.6,0.21,1.58,1,2.33,1.65,2.33h1.44c0.34,0,.34.14,0.34,0.41v1.65c0,0.27,0,.41-0.34.41s-3.23-.21-5.22-0.21c-1,0-4.05.21-4.6,0.21-0.14,0-.21-0.14-0.21-0.48v-1.79c0-.14.07-0.21,0.27-0.21h1.58a2.1,2.1,0,0,0,2-2.06c0.07-.82.21-5.7,0.21-13.46v-7.21a3.42,3.42,0,0,0-3.64-3.64h-0.62a0.36,0.36,0,0,1-.41-0.41v-1.65a0.4,0.4,0,0,1,.41-0.41c0.14,0,.89.07,1.79,0.07s2,0.14,2.75.14c1.1,0,2.54-.14,3.36-0.14s1.37,0.14,1.65.55,8.1,10.23,9.54,11.95c1.24,1.44,7.62,9.48,8.45,10.37h0.27v-4.53c0-3.91-.07-6-0.21-8.24a33.75,33.75,0,0,0-.55-6.45,2.6,2.6,0,0,0-2.54-1.24h-1.17a0.41,0.41,0,0,1-.48-0.48v-1.65c0-.21.14-0.34,0.48-0.34s3.43,0.21,5.63.21c1.44,0,3.85-.21,4.33-0.21s0.48,0.14.48,0.55v1.44a0.42,0.42,0,0,1-.41.48h-0.69c-1.72,0-2.06.48-2.2,1.44-0.34,3.16-.21,7.48-0.21,10.3v16.07Z"/><path class="cls-1" d="M2388,1430.83c0,0.62.21,1,.21,1.37a0.93,0.93,0,0,1-.76.75,25.72,25.72,0,0,1-11.74,2.75c-3.57,0-9.06-1.44-12.29-5-2.75-3-4.12-6.73-4.12-12.08a15,15,0,0,1,5.08-11.26,18.51,18.51,0,0,1,12.29-4.19,15,15,0,0,1,7.83,2.2c0.55,0.48.82,0.48,1,.27l0.34-.62a0.85,0.85,0,0,1,.89-0.48,0.63,0.63,0,0,1,.76.76c0,0.34.89,6.73,1,8a0.46,0.46,0,0,1-.27.55l-1.3.41c-0.21.07-.34,0-0.55-0.55a17.29,17.29,0,0,0-3.3-4.88c-1.85-1.92-3.78-3.3-6.94-3.3a9.84,9.84,0,0,0-7.35,3.5,14.49,14.49,0,0,0-3.57,9c0,5.29,1.51,9.2,4.19,12a9.65,9.65,0,0,0,12.29,1.58c0.89-.69,1-1.58,1-3v-2.54c0-1.58-1.58-2.06-3.36-2.06h-1.65a0.29,0.29,0,0,1-.34-0.34V1422a0.29,0.29,0,0,1,.34-0.34c0.41,0,3.78.14,7.48,0.14,2.54,0,5.63-.14,5.91-0.14a0.35,0.35,0,0,1,.41.34v1.65a0.38,0.38,0,0,1-.34.41H2390c-0.69,0-2,.27-2,1.44v5.29Z"/></svg>