<svg id="Layer_1" data-name="Layer 1" xmlns="http://www.w3.org/2000/svg" viewBox="0 0 2560 1600"><defs><style>.cls-1{fill:#231f20;}</style></defs><title>everything</title><path class="cls-1" d="M731,1076.7a17.63,17.63,0,0,0-.21,3.3c0,6.73,4.26,11.81,9.75,11.81a9.3,9.3,0,0,0,8.31-4.67,0.56,0.56,0,0,1,.62-0.34l0.89,0.48c0.21,0.07.34,0.27,0,1-1.24,2.75-4.81,7.48-10.92,7.48-3.91,0-8.24-1.17-10.78-4.87-2.4-3.5-3-6-3-10.85a15.46,15.46,0,0,1,4.33-10.92c3-3,6.39-3.64,9.82-3.64,7.9,0,10.09,7.42,10.09,10.09,0,1-.82,1.1-1.92,1.1H731Zm10.92-2.06c1.3,0,1.85-.34,1.85-1,0-1.58-.82-6.11-5.29-6.11-3,0-5.91,2-7.21,7.07h10.64Z"/><path class="cls-1" d="M768.9,1088.65h0.21c1.1-2.68,5.91-14.49,6.59-17.17,0.48-1.85,0-3-1.24-3h-1.37c-0.21,0-.27-0.34-0.27-0.69v-1.24c0-.41.14-0.55,0.41-0.55,1,0,2.47.21,5.49,0.21,2.68,0,4.33-.21,4.94-0.21s0.62,0.07.62,0.62v1.17c0,0.48,0,.69-0.34.69h-1.3a2.73,2.73,0,0,0-2.13.75c-1,1-4.46,8.51-5.49,11.05-0.82,2.06-5.91,13.6-6.18,14.08-0.55,1-.89,1.58-1.65,1.58s-1.1-.62-1.44-1.44l-5.36-13.94c-0.21-.55-3-8.45-3.5-9.54-0.89-2-1.58-2.54-2.82-2.54h-1.37c-0.34,0-.41-0.28-0.41-0.69v-1.24c0-.48.14-0.55,0.76-0.55s1.92,0.21,5.77.21c3.64,0,5.42-.21,6.18-0.21,0.55,0,.69.14,0.69,0.55v1.24c0,0.41-.07.69-0.48,0.69h-1.37a1.17,1.17,0,0,0-1.24,1.3c0,1.24,1.79,7,2.2,8.17S768.14,1087.2,768.9,1088.65Z"/><path class="cls-1" d="M790.25,1076.7a17.63,17.63,0,0,0-.21,3.3c0,6.73,4.26,11.81,9.75,11.81a9.3,9.3,0,0,0,8.31-4.67,0.56,0.56,0,0,1,.62-0.34l0.89,0.48c0.21,0.07.34,0.27,0,1-1.24,2.75-4.81,7.48-10.92,7.48-3.91,0-8.24-1.17-10.78-4.87-2.4-3.5-3-6-3-10.85a15.46,15.46,0,0,1,4.33-10.92c3-3,6.39-3.64,9.82-3.64,7.9,0,10.09,7.42,10.09,10.09,0,1-.82,1.1-1.92,1.1h-17Zm10.92-2.06c1.3,0,1.85-.34,1.85-1,0-1.58-.82-6.11-5.29-6.11-3,0-5.91,2-7.21,7.07h10.64Z"/><path class="cls-1" d="M818.27,1076.7c0-3.5-.55-4.19-2.47-5.22l-1.3-.69c-0.41-.14-0.55-0.21-0.55-0.48v-0.41a0.69,0.69,0,0,1,.55-0.62l6.8-3.5a2.07,2.07,0,0,1,1-.27c0.41,0,.48.41,0.48,0.82l0.34,4.88h0.27c2.06-3.16,5.29-6,8.24-6,2.33,0,3.5,1.44,3.5,3a3.32,3.32,0,0,1-2.88,3.37,4.49,4.49,0,0,1-2-.55,4.43,4.43,0,0,0-2.27-.55,4.87,4.87,0,0,0-4.05,2.88,7.4,7.4,0,0,0-.69,2.2v14.28c0,2.13.48,2.82,1.92,2.82h3.23c0.41,0,.48.21,0.48,0.62v1.24c0,0.41-.07.62-0.34,0.62s-3.57-.21-7.28-0.21c-4.26,0-7.14.21-7.55,0.21s-0.41-.14-0.41-0.69v-1.17c0-.48.14-0.62,0.76-0.62h2.68c1,0,1.51-.41,1.51-1.3,0.07-2.27.07-4.67,0.07-8.24v-6.45Z"/><path class="cls-1" d="M837.36,1110.14a3,3,0,0,1,3.16-2.68,11.81,11.81,0,0,1,3.16.75,1.64,1.64,0,0,0,1.44-.41c1-1.24,4.53-9.06,5.49-11.74-0.34-1.72-7.62-23.21-8.17-24.65-0.82-1.72-1.44-2.88-3.23-2.88h-1.79c-0.48,0-.55-0.21-0.55-0.62v-1.37c0-.28.07-0.48,0.55-0.48s2.27,0.21,6.32.21c3.5,0,5.63-.21,6.39-0.21,0.55,0,.62.21,0.62,0.48V1068c0,0.34-.07.55-0.41,0.55H849c-0.76,0-1,.48-0.89,1.51,0.21,1.51,4.88,16.69,5.63,18.2H854c0.69-1.1,6.66-15.38,7.07-17.1s-0.14-2.61-1.17-2.61h-1.1c-0.41,0-.48-0.21-0.48-0.55v-1.37c0-.34.07-0.55,0.41-0.55,0.89,0,2.33.21,5.63,0.21,1.85,0,3.43-.21,4.19-0.21,0.41,0,.41.28,0.41,0.55v1.3c0,0.41,0,.62-0.34.62h-1.1a3.08,3.08,0,0,0-2.4,1.24c-1.51,1.85-6,12.36-10.78,23.14-3.36,7.62-6,14-7.28,16.27-1,1.79-2.2,4.46-5.84,4.46C838.66,1113.64,837.36,1112.2,837.36,1110.14Z"/><path class="cls-1" d="M879.66,1086.38c0,5.15,2.33,6,3.57,6a9.87,9.87,0,0,0,4.53-.89,0.56,0.56,0,0,1,.82.14l0.34,0.62a0.55,0.55,0,0,1-.14.75,11.55,11.55,0,0,1-7.62,2.75c-3.36,0-6.66-3.23-6.66-5.84,0-2.82.21-8.86,0.21-9.82v-1.51c0-1.24.07-5.91,0.14-8.79h-4.19a0.86,0.86,0,0,1-1-.82c0-.55.41-0.76,1.24-1.24,1.65-1,6.94-6.25,7.83-8.58a0.92,0.92,0,0,1,1-.69c0.55,0,.69.48,0.69,1l-0.34,6.73h9.54a0.45,0.45,0,0,1,.48.62l-0.69,2.4a0.56,0.56,0,0,1-.62.55h-8.86c-0.14,3.16-.21,6.52-0.21,9.68v6.87Z"/><path class="cls-1" d="M896.69,1057.54c0-4.19-.82-4.94-3.3-5.77l-1.17-.41c-0.41-.14-0.48-0.21-0.48-0.41v-0.62c0-.27.21-0.34,0.82-0.69l7.14-3.78a3.63,3.63,0,0,1,1.58-.55c0.41,0,.69.55,0.55,1.72s-0.21,15.11-.21,18.54V1070H902a13.1,13.1,0,0,1,9.41-4.46,9,9,0,0,1,6.8,2.75c3.09,2.88,3,6.39,3,10.09v3.91c0,3.85.14,8.1,0.14,9.41,0,0.82,1.1,1,2.54,1H925c0.55,0,.76.14,0.76,0.62v1c0,0.55-.14.82-0.55,0.82s-2.68-.21-6.59-0.21c-3.36,0-5.84.21-6.45,0.21s-0.62-.21-0.62-0.76v-1.17c0-.34.07-0.55,0.48-0.55h1.58c1.17,0,2.54-.14,2.61-1.3,0.07-1,0-4.6,0-6.8V1079c0-3.84-.27-6.59-2.27-8.45a6.3,6.3,0,0,0-4.53-1.92,8.38,8.38,0,0,0-6.39,2.88,6,6,0,0,0-1.37,3.37v15c0,2.2.21,2.82,1.51,2.82h2.06c0.48,0,.76.14,0.76,0.55v1.17c0,0.48-.14.76-0.55,0.76s-3.36-.21-6.52-0.21c-3.43,0-6,.21-6.66.21-0.27,0-.48-0.21-0.48-0.69v-1.24c0-.48.27-0.55,1-0.55h1.44c1.1,0,2.13-.28,2.27-1.1,0.21-1.3.21-8.86,0.21-13.32v-20.74Z"/><path class="cls-1" d="M934,1075c0-2.33-.41-3.57-3.85-4.12-0.48-.07-0.62-0.21-0.62-0.48v-0.62a0.56,0.56,0,0,1,.48-0.48,56.29,56.29,0,0,0,7.42-3.36,2.84,2.84,0,0,1,1.3-.41c0.34,0,.41.34,0.34,0.82-0.14,1.17-.14,5.49-0.14,11.19V1085c0,2.68,0,5.15.07,5.91,0.14,1.3.34,1.79,1.1,1.79h3.16c0.55,0,.69.21,0.69,0.62v1.17c0,0.48-.14.69-0.62,0.69s-3.71-.21-6.59-0.21c-4,0-6.66.21-7.42,0.21a0.48,0.48,0,0,1-.55-0.55v-1.37c0-.41.21-0.55,0.69-0.55h3.36c0.76,0,1-.28,1.1-1.37,0.07-2.06.07-4.19,0.07-6.25V1075Zm-3.23-21.08a4.05,4.05,0,0,1,4.33-3.84,3.62,3.62,0,0,1,3.71,3.64,3.93,3.93,0,0,1-4.12,4.05A4.19,4.19,0,0,1,930.74,1053.9Z"/><path class="cls-1" d="M976.06,1091.25a1.29,1.29,0,0,0,1.51,1.44h2.2c0.62,0,.76.21,0.76,0.62v1.1c0,0.48-.14.76-0.55,0.76s-2.61-.21-6.52-0.21c-3.5,0-5.7.21-6.18,0.21s-0.55-.21-0.55-0.76v-1.1c0-.48.21-0.62,0.89-0.62h2c0.76,0,1.3-.34,1.37-1.58,0.07-1.79.14-4,.14-5.77v-9.06c0-2.75,0-4.74-2-6.18-1.65-1.24-3.3-1.24-5-1.24a8.05,8.05,0,0,0-5.56,2.68,6.73,6.73,0,0,0-1.58,4.67v14.21c0,1.85.21,2.27,1.65,2.27h1.72a0.57,0.57,0,0,1,.69.69v1.17c0,0.41-.14.62-0.48,0.62s-2.33-.21-6-0.21-5.7.21-6.11,0.21-0.48-.21-0.48-0.62v-1.24c0-.41.14-0.62,0.69-0.62h2a1.13,1.13,0,0,0,1.37-1.37v-16.07a4.23,4.23,0,0,0-2.82-4.05l-0.55-.27a0.66,0.66,0,0,1-.55-0.62V1070a0.8,0.8,0,0,1,.62-0.69l5.91-3.3a3.63,3.63,0,0,1,1.24-.48c0.34,0,.48.27,0.55,0.82l0.48,4.19H957c2-2.47,6-5,9.41-5a10.6,10.6,0,0,1,5.84,1.51,10,10,0,0,1,3.78,6.52v17.71Z"/><path class="cls-1" d="M986.3,1111.44c-2.47-1.51-3.5-3.3-3.5-5.56,0-3.85,3.91-6.8,7.21-8.24v-0.27c-2.88-.62-4.6-2.75-4.6-4.81,0-3.3,3.78-5.63,6.18-6.52v-0.14a10.92,10.92,0,0,1-6.39-10.44c0-4.46,4-10,11.74-10a11,11,0,0,1,8.65,4c1.85-1.3,4.19-2.68,6.45-2.68s3.36,1.51,3.23,2.88a2.61,2.61,0,0,1-2.68,2.54,3.42,3.42,0,0,1-2.4-1,2.74,2.74,0,0,0-1.44-.62,5,5,0,0,0-2.2.41,13,13,0,0,1,1,5.22,11.32,11.32,0,0,1-2.54,7.42,12.28,12.28,0,0,1-11.47,3.09c-1.37.55-3.64,1.92-3.64,3.84,0,2.82,3.43,2.61,8,2.33,5.63-.28,9.06.34,11.81,2.47a8.07,8.07,0,0,1,3.36,6.59c0,3.23-1.17,5.91-4.6,8.45a20.66,20.66,0,0,1-11.74,3.23C993.51,1113.64,989.59,1113.3,986.3,1111.44Zm22.66-7.07c0-4.05-3.09-7.14-10-6.66l-6.59.48c-2.13.55-5.49,2.88-5.49,6.59a6.59,6.59,0,0,0,2.68,4.74c2.27,1.58,4.74,1.92,9.61,1.92C1001.75,1111.44,1009.3,1109.66,1009,1104.37Zm-6.39-29.25c0-3-.62-4.81-1.85-6.18a5.19,5.19,0,0,0-3.3-1.51,6.3,6.3,0,0,0-4.88,1.92c-2.2,2.33-2.47,5.49-2.47,8.1a8.54,8.54,0,0,0,2.2,6,5.6,5.6,0,0,0,4.12,1.72C1001.06,1085.14,1002.57,1079.44,1002.57,1075.12Z"/><path class="cls-1" d="M107.54,112.49a17.63,17.63,0,0,0-.21,3.3c0,6.73,4.26,11.81,9.75,11.81a9.3,9.3,0,0,0,8.31-4.67,0.56,0.56,0,0,1,.62-0.34l0.89,0.48c0.21,0.07.34,0.28,0,1-1.24,2.75-4.81,7.48-10.92,7.48-3.91,0-8.24-1.17-10.78-4.88-2.4-3.5-3-6-3-10.85a15.46,15.46,0,0,1,4.33-10.92c3-3,6.39-3.64,9.82-3.64,7.9,0,10.09,7.42,10.09,10.09,0,1-.82,1.1-1.92,1.1h-17Zm10.92-2.06c1.3,0,1.85-.34,1.85-1,0-1.58-.82-6.11-5.29-6.11-3,0-5.91,2-7.21,7.07h10.64Z"/><path class="cls-1" d="M145.45,124.44h0.21c1.1-2.68,5.91-14.49,6.59-17.17,0.48-1.85,0-3-1.24-3h-1.37c-0.21,0-.27-0.34-0.27-0.69V102.4c0-.41.14-0.55,0.41-0.55,1,0,2.47.21,5.49,0.21,2.68,0,4.33-.21,4.94-0.21s0.62,0.07.62,0.62v1.17c0,0.48,0,.69-0.34.69h-1.3a2.73,2.73,0,0,0-2.13.76c-1,1-4.46,8.51-5.49,11.05-0.82,2.06-5.91,13.6-6.18,14.08-0.55,1-.89,1.58-1.65,1.58s-1.1-.62-1.44-1.44l-5.36-13.94c-0.21-.55-3-8.45-3.5-9.54-0.89-2-1.58-2.54-2.82-2.54h-1.37c-0.34,0-.41-0.27-0.41-0.69V102.4c0-.48.14-0.55,0.76-0.55s1.92,0.21,5.77.21c3.64,0,5.42-.21,6.18-0.21,0.55,0,.69.14,0.69,0.55v1.24c0,0.41-.07.69-0.48,0.69h-1.37a1.17,1.17,0,0,0-1.24,1.3c0,1.24,1.79,7,2.2,8.17S144.69,123,145.45,124.44Z"/><path class="cls-1" d="M166.81,112.49a17.63,17.63,0,0,0-.21,3.3c0,6.73,4.26,11.81,9.75,11.81a9.3,9.3,0,0,0,8.31-4.67,0.56,0.56,0,0,1,.62-0.34l0.89,0.48c0.21,0.07.34,0.28,0,1-1.24,2.75-4.81,7.48-10.92,7.48-3.91,0-8.24-1.17-10.78-4.88-2.4-3.5-3-6-3-10.85a15.46,15.46,0,0,1,4.33-10.92c3-3,6.39-3.64,9.82-3.64,7.9,0,10.09,7.42,10.09,10.09,0,1-.82,1.1-1.92,1.1h-17Zm10.92-2.06c1.3,0,1.85-.34,1.85-1,0-1.58-.82-6.11-5.29-6.11-3,0-5.91,2-7.21,7.07h10.64Z"/><path class="cls-1" d="M194.82,112.49c0-3.5-.55-4.19-2.47-5.22l-1.3-.69c-0.41-.14-0.55-0.21-0.55-0.48V105.7a0.69,0.69,0,0,1,.55-0.62l6.8-3.5a2.07,2.07,0,0,1,1-.28c0.41,0,.48.41,0.48,0.82l0.34,4.88h0.27c2.06-3.16,5.29-6,8.24-6,2.33,0,3.5,1.44,3.5,3a3.32,3.32,0,0,1-2.88,3.36,4.5,4.5,0,0,1-2-.55,4.42,4.42,0,0,0-2.27-.55,4.87,4.87,0,0,0-4.05,2.88,7.41,7.41,0,0,0-.69,2.2v14.28c0,2.13.48,2.82,1.92,2.82h3.23c0.41,0,.48.21,0.48,0.62v1.24c0,0.41-.07.62-0.34,0.62s-3.57-.21-7.28-0.21c-4.26,0-7.14.21-7.55,0.21s-0.41-.14-0.41-0.69v-1.17c0-.48.14-0.62,0.76-0.62h2.68c1,0,1.51-.41,1.51-1.3,0.07-2.27.07-4.67,0.07-8.24v-6.46Z"/><path class="cls-1" d="M213.91,145.94a3,3,0,0,1,3.16-2.68,11.77,11.77,0,0,1,3.16.76,1.65,1.65,0,0,0,1.44-.41c1-1.24,4.53-9.06,5.49-11.74-0.34-1.72-7.62-23.21-8.17-24.65-0.82-1.72-1.44-2.88-3.23-2.88H214c-0.48,0-.55-0.21-0.55-0.62v-1.37c0-.27.07-0.48,0.55-0.48s2.27,0.21,6.32.21c3.5,0,5.63-.21,6.39-0.21,0.55,0,.62.21,0.62,0.48v1.44c0,0.34-.07.55-0.41,0.55h-1.3c-0.76,0-1,.48-0.89,1.51,0.21,1.51,4.88,16.69,5.63,18.2h0.27c0.69-1.1,6.66-15.38,7.07-17.1s-0.14-2.61-1.17-2.61h-1.1c-0.41,0-.48-0.21-0.48-0.55V102.4c0-.34.07-0.55,0.41-0.55,0.89,0,2.33.21,5.63,0.21,1.85,0,3.43-.21,4.19-0.21,0.41,0,.41.27,0.41,0.55v1.3c0,0.41,0,.62-0.34.62h-1.1a3.08,3.08,0,0,0-2.4,1.24c-1.51,1.85-6,12.36-10.78,23.14-3.36,7.62-6,14-7.28,16.27-1,1.79-2.2,4.46-5.84,4.46C215.21,149.44,213.91,148,213.91,145.94Z"/><path class="cls-1" d="M256.21,122.18c0,5.15,2.33,6,3.57,6a9.87,9.87,0,0,0,4.53-.89,0.56,0.56,0,0,1,.82.14l0.34,0.62a0.55,0.55,0,0,1-.14.76,11.55,11.55,0,0,1-7.62,2.75c-3.36,0-6.66-3.23-6.66-5.84,0-2.82.21-8.86,0.21-9.82v-1.51c0-1.24.07-5.91,0.14-8.79h-4.19a0.86,0.86,0,0,1-1-.82c0-.55.41-0.75,1.24-1.24,1.65-1,6.94-6.25,7.83-8.58a0.92,0.92,0,0,1,1-.69c0.55,0,.69.48,0.69,1l-0.34,6.73h9.54a0.45,0.45,0,0,1,.48.62l-0.69,2.4a0.56,0.56,0,0,1-.62.55h-8.86c-0.14,3.16-.21,6.52-0.21,9.68v6.87Z"/><path class="cls-1" d="M273.24,93.34c0-4.19-.82-4.94-3.3-5.77l-1.17-.41c-0.41-.14-0.48-0.21-0.48-0.41V86.13c0-.27.21-0.34,0.82-0.69l7.14-3.78a3.64,3.64,0,0,1,1.58-.55c0.41,0,.69.55,0.55,1.72s-0.21,15.11-.21,18.54v4.39h0.34a13.1,13.1,0,0,1,9.41-4.46,9,9,0,0,1,6.8,2.75c3.09,2.88,3,6.39,3,10.09v3.91c0,3.84.14,8.1,0.14,9.41,0,0.82,1.1,1,2.54,1h1.17c0.55,0,.76.14,0.76,0.62v1c0,0.55-.14.82-0.55,0.82s-2.68-.21-6.59-0.21c-3.36,0-5.84.21-6.45,0.21s-0.62-.21-0.62-0.75V129c0-.34.07-0.55,0.48-0.55h1.58c1.17,0,2.54-.14,2.61-1.3,0.07-1,0-4.6,0-6.8v-5.56c0-3.84-.27-6.59-2.27-8.45a6.3,6.3,0,0,0-4.53-1.92,8.38,8.38,0,0,0-6.39,2.88,6,6,0,0,0-1.37,3.36v15c0,2.2.21,2.82,1.51,2.82h2.06c0.48,0,.76.14,0.76,0.55v1.17c0,0.48-.14.75-0.55,0.75s-3.36-.21-6.52-0.21c-3.43,0-6,.21-6.66.21-0.27,0-.48-0.21-0.48-0.69V129c0-.48.27-0.55,1-0.55h1.44c1.1,0,2.13-.27,2.27-1.1,0.21-1.3.21-8.86,0.21-13.32V93.34Z"/><path class="cls-1" d="M310.52,110.78c0-2.33-.41-3.57-3.85-4.12-0.48-.07-0.62-0.21-0.62-0.48v-0.62a0.56,0.56,0,0,1,.48-0.48,56.18,56.18,0,0,0,7.42-3.37,2.84,2.84,0,0,1,1.3-.41c0.34,0,.41.34,0.34,0.82-0.14,1.17-.14,5.49-0.14,11.19v7.48c0,2.68,0,5.15.07,5.91,0.14,1.3.34,1.79,1.1,1.79h3.16c0.55,0,.69.21,0.69,0.62v1.17c0,0.48-.14.69-0.62,0.69s-3.71-.21-6.59-0.21c-4,0-6.66.21-7.42,0.21a0.48,0.48,0,0,1-.55-0.55V129c0-.41.21-0.55,0.69-0.55h3.36c0.76,0,1-.27,1.1-1.37,0.07-2.06.07-4.19,0.07-6.25V110.78ZM307.3,89.7a4.05,4.05,0,0,1,4.33-3.85,3.62,3.62,0,0,1,3.71,3.64,3.93,3.93,0,0,1-4.12,4.05A4.18,4.18,0,0,1,307.3,89.7Z"/><path class="cls-1" d="M352.62,127.05a1.29,1.29,0,0,0,1.51,1.44h2.2c0.62,0,.76.21,0.76,0.62v1.1c0,0.48-.14.75-0.55,0.75s-2.61-.21-6.52-0.21c-3.5,0-5.7.21-6.18,0.21s-0.55-.21-0.55-0.75v-1.1c0-.48.21-0.62,0.89-0.62h2c0.76,0,1.3-.34,1.37-1.58,0.07-1.79.14-4,.14-5.77v-9.06c0-2.75,0-4.74-2-6.18-1.65-1.24-3.3-1.24-5-1.24a8.05,8.05,0,0,0-5.56,2.68,6.73,6.73,0,0,0-1.58,4.67v14.21c0,1.85.21,2.27,1.65,2.27h1.72a0.57,0.57,0,0,1,.69.69v1.17c0,0.41-.14.62-0.48,0.62s-2.33-.21-6-0.21-5.7.21-6.11,0.21-0.48-.21-0.48-0.62v-1.24c0-.41.14-0.62,0.69-0.62h2a1.13,1.13,0,0,0,1.37-1.37V111.05a4.23,4.23,0,0,0-2.82-4.05l-0.55-.27a0.66,0.66,0,0,1-.55-0.62v-0.34a0.79,0.79,0,0,1,.62-0.69l5.91-3.3a3.62,3.62,0,0,1,1.24-.48c0.34,0,.48.28,0.55,0.82l0.48,4.19h0.14c2-2.47,6-5,9.41-5a10.6,10.6,0,0,1,5.84,1.51,10,10,0,0,1,3.78,6.52v17.72Z"/><path class="cls-1" d="M362.85,147.24c-2.47-1.51-3.5-3.29-3.5-5.56,0-3.84,3.91-6.8,7.21-8.24v-0.28c-2.88-.62-4.6-2.75-4.6-4.81,0-3.3,3.78-5.63,6.18-6.52V121.7a10.91,10.91,0,0,1-6.39-10.44c0-4.46,4-10,11.74-10a11,11,0,0,1,8.65,4c1.85-1.3,4.19-2.68,6.45-2.68s3.36,1.51,3.23,2.88a2.61,2.61,0,0,1-2.68,2.54,3.41,3.41,0,0,1-2.4-1,2.73,2.73,0,0,0-1.44-.62,5,5,0,0,0-2.2.41,13,13,0,0,1,1,5.22,11.32,11.32,0,0,1-2.54,7.42,12.28,12.28,0,0,1-11.47,3.09c-1.37.55-3.64,1.92-3.64,3.85,0,2.81,3.43,2.61,8,2.33,5.63-.27,9.06.34,11.81,2.47a8.07,8.07,0,0,1,3.36,6.59c0,3.23-1.17,5.91-4.6,8.45a20.66,20.66,0,0,1-11.74,3.23C370.06,149.44,366.14,149.09,362.85,147.24Zm22.66-7.07c0-4.05-3.09-7.14-10-6.66L369,134c-2.13.55-5.49,2.88-5.49,6.59a6.6,6.6,0,0,0,2.68,4.74c2.27,1.58,4.74,1.92,9.61,1.92C378.3,147.24,385.85,145.45,385.51,140.17Zm-6.39-29.25c0-3-.62-4.81-1.85-6.18a5.2,5.2,0,0,0-3.3-1.51,6.3,6.3,0,0,0-4.88,1.92c-2.2,2.33-2.47,5.49-2.47,8.1a8.55,8.55,0,0,0,2.2,6,5.6,5.6,0,0,0,4.12,1.72C377.61,120.94,379.12,115.24,379.12,110.92Z"/><path class="cls-1" d="M1831.54,464.5a17.62,17.62,0,0,0-.21,3.3c0,6.73,4.26,11.81,9.75,11.81a9.3,9.3,0,0,0,8.31-4.67,0.56,0.56,0,0,1,.62-0.34l0.89,0.48c0.21,0.07.34,0.27,0,1-1.24,2.75-4.81,7.48-10.92,7.48-3.91,0-8.24-1.17-10.78-4.87-2.4-3.5-3-6-3-10.85a15.46,15.46,0,0,1,4.33-10.92c3-3,6.39-3.64,9.82-3.64,7.9,0,10.09,7.42,10.09,10.09,0,1-.82,1.1-1.92,1.1h-17Zm10.92-2.06c1.3,0,1.85-.34,1.85-1,0-1.58-.82-6.11-5.29-6.11-3,0-5.91,2-7.21,7.07h10.64Z"/><path class="cls-1" d="M1869.45,476.45h0.21c1.1-2.68,5.91-14.49,6.59-17.17,0.48-1.85,0-3-1.24-3h-1.37c-0.21,0-.27-0.34-0.27-0.69V454.4c0-.41.14-0.55,0.41-0.55,1,0,2.47.21,5.49,0.21,2.68,0,4.33-.21,4.94-0.21s0.62,0.07.62,0.62v1.17c0,0.48,0,.69-0.34.69h-1.3a2.73,2.73,0,0,0-2.13.75c-1,1-4.46,8.51-5.49,11.05-0.82,2.06-5.91,13.6-6.18,14.08-0.55,1-.89,1.58-1.65,1.58s-1.1-.62-1.44-1.44l-5.36-13.94c-0.21-.55-3-8.45-3.5-9.54-0.89-2-1.58-2.54-2.82-2.54h-1.37c-0.34,0-.41-0.28-0.41-0.69V454.4c0-.48.14-0.55,0.76-0.55s1.92,0.21,5.77.21c3.64,0,5.42-.21,6.18-0.21,0.55,0,.69.14,0.69,0.55v1.24c0,0.41-.07.69-0.48,0.69h-1.37a1.17,1.17,0,0,0-1.24,1.3c0,1.24,1.79,7,2.2,8.17S1868.69,475,1869.45,476.45Z"/><path class="cls-1" d="M1890.81,464.5a17.62,17.62,0,0,0-.21,3.3c0,6.73,4.26,11.81,9.75,11.81a9.3,9.3,0,0,0,8.31-4.67,0.56,0.56,0,0,1,.62-0.34l0.89,0.48c0.21,0.07.34,0.27,0,1-1.24,2.75-4.81,7.48-10.92,7.48-3.91,0-8.24-1.17-10.78-4.87-2.4-3.5-3-6-3-10.85a15.46,15.46,0,0,1,4.33-10.92c3-3,6.39-3.64,9.82-3.64,7.9,0,10.09,7.42,10.09,10.09,0,1-.82,1.1-1.92,1.1h-17Zm10.92-2.06c1.3,0,1.85-.34,1.85-1,0-1.58-.82-6.11-5.29-6.11-3,0-5.91,2-7.21,7.07h10.64Z"/><path class="cls-1" d="M1918.82,464.5c0-3.5-.55-4.19-2.47-5.22l-1.3-.69c-0.41-.14-0.55-0.21-0.55-0.48V457.7a0.69,0.69,0,0,1,.55-0.62l6.8-3.5a2.07,2.07,0,0,1,1-.27c0.41,0,.48.41,0.48,0.82l0.34,4.88h0.27c2.06-3.16,5.29-6,8.24-6,2.33,0,3.5,1.44,3.5,3a3.32,3.32,0,0,1-2.88,3.37,4.49,4.49,0,0,1-2-.55,4.43,4.43,0,0,0-2.27-.55,4.87,4.87,0,0,0-4.05,2.88,7.4,7.4,0,0,0-.69,2.2v14.28c0,2.13.48,2.82,1.92,2.82h3.23c0.41,0,.48.21,0.48,0.62v1.24c0,0.41-.07.62-0.34,0.62s-3.57-.21-7.28-0.21c-4.26,0-7.14.21-7.55,0.21s-0.41-.14-0.41-0.69v-1.17c0-.48.14-0.62,0.76-0.62h2.68c1,0,1.51-.41,1.51-1.3,0.07-2.27.07-4.67,0.07-8.24V464.5Z"/><path class="cls-1" d="M1937.91,497.94a3,3,0,0,1,3.16-2.68,11.81,11.81,0,0,1,3.16.75,1.64,1.64,0,0,0,1.44-.41c1-1.24,4.53-9.06,5.49-11.74-0.34-1.72-7.62-23.21-8.17-24.65-0.82-1.72-1.44-2.88-3.23-2.88H1938c-0.48,0-.55-0.21-0.55-0.62v-1.37c0-.28.07-0.48,0.55-0.48s2.27,0.21,6.32.21c3.5,0,5.63-.21,6.39-0.21,0.55,0,.62.21,0.62,0.48v1.44c0,0.34-.07.55-0.41,0.55h-1.3c-0.76,0-1,.48-0.89,1.51,0.21,1.51,4.88,16.69,5.63,18.2h0.27c0.69-1.1,6.66-15.38,7.07-17.1s-0.14-2.61-1.17-2.61h-1.1c-0.41,0-.48-0.21-0.48-0.55V454.4c0-.34.07-0.55,0.41-0.55,0.89,0,2.33.21,5.63,0.21,1.85,0,3.43-.21,4.19-0.21,0.41,0,.41.28,0.41,0.55v1.3c0,0.41,0,.62-0.34.62h-1.1a3.08,3.08,0,0,0-2.4,1.24c-1.51,1.85-6,12.36-10.78,23.14-3.36,7.62-6,14-7.28,16.27-1,1.79-2.2,4.46-5.84,4.46C1939.21,501.44,1937.91,500,1937.91,497.94Z"/><path class="cls-1" d="M1980.21,474.18c0,5.15,2.33,6,3.57,6a9.87,9.87,0,0,0,4.53-.89,0.56,0.56,0,0,1,.82.14l0.34,0.62a0.55,0.55,0,0,1-.14.75,11.55,11.55,0,0,1-7.62,2.75c-3.36,0-6.66-3.23-6.66-5.84,0-2.82.21-8.86,0.21-9.82v-1.51c0-1.24.07-5.91,0.14-8.79h-4.19a0.86,0.86,0,0,1-1-.82c0-.55.41-0.76,1.24-1.24,1.65-1,6.94-6.25,7.83-8.58a0.92,0.92,0,0,1,1-.69c0.55,0,.69.48,0.69,1l-0.34,6.73h9.54a0.45,0.45,0,0,1,.48.62l-0.69,2.4a0.56,0.56,0,0,1-.62.55h-8.86c-0.14,3.16-.21,6.52-0.21,9.68v6.87Z"/><path class="cls-1" d="M1997.24,445.34c0-4.19-.82-4.94-3.3-5.77l-1.17-.41c-0.41-.14-0.48-0.21-0.48-0.41v-0.62c0-.27.21-0.34,0.82-0.69l7.14-3.78a3.63,3.63,0,0,1,1.58-.55c0.41,0,.69.55,0.55,1.72s-0.21,15.11-.21,18.54v4.39h0.34a13.1,13.1,0,0,1,9.41-4.46,9,9,0,0,1,6.8,2.75c3.09,2.88,3,6.39,3,10.09v3.91c0,3.85.14,8.1,0.14,9.41,0,0.82,1.1,1,2.54,1h1.17c0.55,0,.76.14,0.76,0.62v1c0,0.55-.14.82-0.55,0.82s-2.68-.21-6.59-0.21c-3.36,0-5.84.21-6.45,0.21s-0.62-.21-0.62-0.76V481c0-.34.07-0.55,0.48-0.55h1.58c1.17,0,2.54-.14,2.61-1.3,0.07-1,0-4.6,0-6.8v-5.56c0-3.84-.27-6.59-2.27-8.45a6.3,6.3,0,0,0-4.53-1.92,8.38,8.38,0,0,0-6.39,2.88,6,6,0,0,0-1.37,3.37v15c0,2.2.21,2.82,1.51,2.82h2.06c0.48,0,.76.14,0.76,0.55v1.17c0,0.48-.14.76-0.55,0.76s-3.36-.21-6.52-0.21c-3.43,0-6,.21-6.66.21-0.27,0-.48-0.21-0.48-0.69V481c0-.48.27-0.55,1-0.55h1.44c1.1,0,2.13-.28,2.27-1.1,0.21-1.3.21-8.86,0.21-13.32V445.34Z"/><path class="cls-1" d="M2034.52,462.78c0-2.33-.41-3.57-3.85-4.12-0.48-.07-0.62-0.21-0.62-0.48v-0.62a0.56,0.56,0,0,1,.48-0.48,56.29,56.29,0,0,0,7.42-3.36,2.84,2.84,0,0,1,1.3-.41c0.34,0,.41.34,0.34,0.82-0.14,1.17-.14,5.49-0.14,11.19v7.48c0,2.68,0,5.15.07,5.91,0.14,1.3.34,1.79,1.1,1.79h3.16c0.55,0,.69.21,0.69,0.62v1.17c0,0.48-.14.69-0.62,0.69s-3.71-.21-6.59-0.21c-4,0-6.66.21-7.42,0.21a0.48,0.48,0,0,1-.55-0.55V481c0-.41.21-0.55,0.69-0.55h3.36c0.76,0,1-.28,1.1-1.37,0.07-2.06.07-4.19,0.07-6.25V462.78Zm-3.23-21.08a4.05,4.05,0,0,1,4.33-3.84,3.62,3.62,0,0,1,3.71,3.64,3.93,3.93,0,0,1-4.12,4.05A4.19,4.19,0,0,1,2031.3,441.7Z"/><path class="cls-1" d="M2076.62,479.06a1.29,1.29,0,0,0,1.51,1.44h2.2c0.62,0,.76.21,0.76,0.62v1.1c0,0.48-.14.76-0.55,0.76s-2.61-.21-6.52-0.21c-3.5,0-5.7.21-6.18,0.21s-0.55-.21-0.55-0.76v-1.1c0-.48.21-0.62,0.89-0.62h2c0.76,0,1.3-.34,1.37-1.58,0.07-1.79.14-4,.14-5.77v-9.06c0-2.75,0-4.74-2-6.18-1.65-1.24-3.3-1.24-5-1.24a8.05,8.05,0,0,0-5.56,2.68,6.73,6.73,0,0,0-1.58,4.67v14.21c0,1.85.21,2.27,1.65,2.27h1.72a0.57,0.57,0,0,1,.69.69v1.17c0,0.41-.14.62-0.48,0.62s-2.33-.21-6-0.21-5.7.21-6.11,0.21-0.48-.21-0.48-0.62v-1.24c0-.41.14-0.62,0.69-0.62h2a1.13,1.13,0,0,0,1.37-1.37V463.06a4.23,4.23,0,0,0-2.82-4.05l-0.55-.27a0.66,0.66,0,0,1-.55-0.62v-0.34a0.8,0.8,0,0,1,.62-0.69l5.91-3.3a3.63,3.63,0,0,1,1.24-.48c0.34,0,.48.27,0.55,0.82l0.48,4.19h0.14c2-2.47,6-5,9.41-5a10.6,10.6,0,0,1,5.84,1.51,10,10,0,0,1,3.78,6.52v17.71Z"/><path class="cls-1" d="M2086.85,499.24c-2.47-1.51-3.5-3.3-3.5-5.56,0-3.85,3.91-6.8,7.21-8.24v-0.27c-2.88-.62-4.6-2.75-4.6-4.81,0-3.3,3.78-5.63,6.18-6.52V473.7a10.92,10.92,0,0,1-6.39-10.44c0-4.46,4-10,11.74-10a11,11,0,0,1,8.65,4c1.85-1.3,4.19-2.68,6.45-2.68s3.36,1.51,3.23,2.88a2.61,2.61,0,0,1-2.68,2.54,3.42,3.42,0,0,1-2.4-1,2.74,2.74,0,0,0-1.44-.62,5,5,0,0,0-2.2.41,13,13,0,0,1,1,5.22,11.32,11.32,0,0,1-2.54,7.42,12.28,12.28,0,0,1-11.47,3.09c-1.37.55-3.64,1.92-3.64,3.84,0,2.82,3.43,2.61,8,2.33,5.63-.28,9.06.34,11.81,2.47a8.07,8.07,0,0,1,3.36,6.59c0,3.23-1.17,5.91-4.6,8.45a20.66,20.66,0,0,1-11.74,3.23C2094.06,501.44,2090.14,501.1,2086.85,499.24Zm22.66-7.07c0-4.05-3.09-7.14-10-6.66L2093,486c-2.13.55-5.49,2.88-5.49,6.59a6.59,6.59,0,0,0,2.68,4.74c2.27,1.58,4.74,1.92,9.61,1.92C2102.3,499.24,2109.85,497.46,2109.51,492.17Zm-6.39-29.25c0-3-.62-4.81-1.85-6.18a5.19,5.19,0,0,0-3.3-1.51,6.3,6.3,0,0,0-4.88,1.92c-2.2,2.33-2.47,5.49-2.47,8.1a8.54,8.54,0,0,0,2.2,6,5.6,5.6,0,0,0,4.12,1.72C2101.61,472.94,2103.12,467.24,2103.12,462.92Z"/><path class="cls-1" d="M1033.7,914.41a17.65,17.65,0,0,0-.21,3.3c0,6.73,4.26,11.81,9.75,11.81a9.3,9.3,0,0,0,8.31-4.67,0.56,0.56,0,0,1,.62-0.34l0.89,0.48c0.21,0.07.34,0.27,0,1-1.24,2.75-4.81,7.48-10.92,7.48-3.91,0-8.24-1.17-10.78-4.87-2.4-3.5-3-6-3-10.85a15.45,15.45,0,0,1,4.33-10.92c3-3,6.39-3.64,9.82-3.64,7.9,0,10.09,7.42,10.09,10.09,0,1-.82,1.1-1.92,1.1h-17Zm10.92-2.06c1.3,0,1.85-.34,1.85-1,0-1.58-.82-6.11-5.29-6.11-3,0-5.91,2-7.21,7.07h10.64Z"/><path class="cls-1" d="M1071.61,926.36h0.21c1.1-2.68,5.91-14.49,6.59-17.17,0.48-1.85,0-3-1.24-3h-1.37c-0.21,0-.27-0.34-0.27-0.69v-1.24c0-.41.14-0.55,0.41-0.55,1,0,2.47.21,5.49,0.21,2.68,0,4.33-.21,4.94-0.21s0.62,0.07.62,0.62v1.17c0,0.48,0,.69-0.34.69h-1.3a2.73,2.73,0,0,0-2.13.75c-1,1-4.46,8.51-5.49,11.05-0.82,2.06-5.91,13.6-6.18,14.08-0.55,1-.89,1.58-1.65,1.58s-1.1-.62-1.44-1.44l-5.36-13.94c-0.21-.55-3-8.45-3.5-9.54-0.89-2-1.58-2.54-2.82-2.54h-1.37c-0.34,0-.41-0.28-0.41-0.69v-1.24c0-.48.14-0.55,0.76-0.55s1.92,0.21,5.77.21c3.64,0,5.42-.21,6.18-0.21,0.55,0,.69.14,0.69,0.55v1.24c0,0.41-.07.69-0.48,0.69h-1.37a1.17,1.17,0,0,0-1.24,1.3c0,1.24,1.79,7,2.2,8.17S1070.85,924.91,1071.61,926.36Z"/><path class="cls-1" d="M1093,914.41a17.65,17.65,0,0,0-.21,3.3c0,6.73,4.26,11.81,9.75,11.81a9.3,9.3,0,0,0,8.31-4.67,0.56,0.56,0,0,1,.62-0.34l0.89,0.48c0.21,0.07.34,0.27,0,1-1.24,2.75-4.81,7.48-10.92,7.48-3.91,0-8.24-1.17-10.78-4.87-2.4-3.5-3-6-3-10.85a15.45,15.45,0,0,1,4.33-10.92c3-3,6.39-3.64,9.82-3.64,7.9,0,10.09,7.42,10.09,10.09,0,1-.82,1.1-1.92,1.1h-17Zm10.92-2.06c1.3,0,1.85-.34,1.85-1,0-1.58-.82-6.11-5.29-6.11-3,0-5.91,2-7.21,7.07h10.64Z"/><path class="cls-1" d="M1121,914.41c0-3.5-.55-4.19-2.47-5.22l-1.3-.69c-0.41-.14-0.55-0.21-0.55-0.48v-0.41a0.69,0.69,0,0,1,.55-0.62l6.8-3.5a2.07,2.07,0,0,1,1-.27c0.41,0,.48.41,0.48,0.82l0.34,4.88h0.27c2.06-3.16,5.29-6,8.24-6,2.33,0,3.5,1.44,3.5,3a3.32,3.32,0,0,1-2.88,3.37,4.49,4.49,0,0,1-2-.55,4.43,4.43,0,0,0-2.27-.55,4.87,4.87,0,0,0-4.05,2.88,7.4,7.4,0,0,0-.69,2.2v14.28c0,2.13.48,2.82,1.92,2.82h3.23c0.41,0,.48.21,0.48,0.62v1.24c0,0.41-.07.62-0.34,0.62s-3.57-.21-7.28-0.21c-4.26,0-7.14.21-7.55,0.21s-0.41-.14-0.41-0.69V931c0-.48.14-0.62,0.76-0.62h2.68c1,0,1.51-.41,1.51-1.3,0.07-2.27.07-4.67,0.07-8.24v-6.45Z"/><path class="cls-1" d="M1140.07,947.85a3,3,0,0,1,3.16-2.68,11.81,11.81,0,0,1,3.16.75,1.64,1.64,0,0,0,1.44-.41c1-1.24,4.53-9.06,5.49-11.74-0.34-1.72-7.62-23.21-8.17-24.65-0.82-1.72-1.44-2.88-3.23-2.88h-1.79c-0.48,0-.55-0.21-0.55-0.62v-1.37c0-.28.07-0.48,0.55-0.48s2.27,0.21,6.32.21c3.5,0,5.63-.21,6.39-0.21,0.55,0,.62.21,0.62,0.48v1.44c0,0.34-.07.55-0.41,0.55h-1.3c-0.76,0-1,.48-0.89,1.51,0.21,1.51,4.88,16.69,5.63,18.2h0.27c0.69-1.1,6.66-15.38,7.07-17.1s-0.14-2.61-1.17-2.61h-1.1c-0.41,0-.48-0.21-0.48-0.55v-1.37c0-.34.07-0.55,0.41-0.55,0.89,0,2.33.21,5.63,0.21,1.85,0,3.43-.21,4.19-0.21,0.41,0,.41.28,0.41,0.55v1.3c0,0.41,0,.62-0.34.62h-1.1a3.08,3.08,0,0,0-2.4,1.24c-1.51,1.85-6,12.36-10.78,23.14-3.36,7.62-6,14-7.28,16.27-1,1.79-2.2,4.46-5.84,4.46C1141.37,951.35,1140.07,949.91,1140.07,947.85Z"/><path class="cls-1" d="M1182.37,924.09c0,5.15,2.33,6,3.57,6a9.87,9.87,0,0,0,4.53-.89,0.56,0.56,0,0,1,.82.14l0.34,0.62a0.55,0.55,0,0,1-.14.75,11.55,11.55,0,0,1-7.62,2.75c-3.36,0-6.66-3.23-6.66-5.84,0-2.82.21-8.86,0.21-9.82v-1.51c0-1.24.07-5.91,0.14-8.79h-4.19a0.86,0.86,0,0,1-1-.82c0-.55.41-0.76,1.24-1.24,1.65-1,6.94-6.25,7.83-8.58a0.92,0.92,0,0,1,1-.69c0.55,0,.69.48,0.69,1l-0.34,6.73h9.54a0.45,0.45,0,0,1,.48.62L1192,907a0.56,0.56,0,0,1-.62.55h-8.86c-0.14,3.16-.21,6.52-0.21,9.68v6.87Z"/><path class="cls-1" d="M1199.4,895.25c0-4.19-.82-4.94-3.3-5.77l-1.17-.41c-0.41-.14-0.48-0.21-0.48-0.41V888c0-.27.21-0.34,0.82-0.69l7.14-3.78A3.63,3.63,0,0,1,1204,883c0.41,0,.69.55,0.55,1.72s-0.21,15.11-.21,18.54v4.39h0.34a13.1,13.1,0,0,1,9.41-4.46,9,9,0,0,1,6.8,2.75c3.09,2.88,3,6.39,3,10.09V920c0,3.85.14,8.1,0.14,9.41,0,0.82,1.1,1,2.54,1h1.17c0.55,0,.76.14,0.76,0.62v1c0,0.55-.14.82-0.55,0.82s-2.68-.21-6.59-0.21c-3.36,0-5.84.21-6.45,0.21s-0.62-.21-0.62-0.76V931c0-.34.07-0.55,0.48-0.55h1.58c1.17,0,2.54-.14,2.61-1.3,0.07-1,0-4.6,0-6.8v-5.56c0-3.84-.27-6.59-2.27-8.45a6.3,6.3,0,0,0-4.53-1.92,8.38,8.38,0,0,0-6.39,2.88,6,6,0,0,0-1.37,3.37v15c0,2.2.21,2.82,1.51,2.82h2.06c0.48,0,.76.14,0.76,0.55v1.17c0,0.48-.14.76-0.55,0.76s-3.36-.21-6.52-0.21c-3.43,0-6,.21-6.66.21-0.27,0-.48-0.21-0.48-0.69V931c0-.48.27-0.55,1-0.55h1.44c1.1,0,2.13-.28,2.27-1.1,0.21-1.3.21-8.86,0.21-13.32V895.25Z"/><path class="cls-1" d="M1236.68,912.69c0-2.33-.41-3.57-3.85-4.12-0.48-.07-0.62-0.21-0.62-0.48v-0.62a0.56,0.56,0,0,1,.48-0.48,56.29,56.29,0,0,0,7.42-3.36,2.84,2.84,0,0,1,1.3-.41c0.34,0,.41.34,0.34,0.82-0.14,1.17-.14,5.49-0.14,11.19v7.48c0,2.68,0,5.15.07,5.91,0.14,1.3.34,1.79,1.1,1.79H1246c0.55,0,.69.21,0.69,0.62v1.17c0,0.48-.14.69-0.62,0.69s-3.71-.21-6.59-0.21c-4,0-6.66.21-7.42,0.21a0.48,0.48,0,0,1-.55-0.55V931c0-.41.21-0.55,0.69-0.55h3.36c0.76,0,1-.28,1.1-1.37,0.07-2.06.07-4.19,0.07-6.25V912.69Zm-3.23-21.08a4.05,4.05,0,0,1,4.33-3.84,3.62,3.62,0,0,1,3.71,3.64,3.93,3.93,0,0,1-4.12,4.05A4.19,4.19,0,0,1,1233.46,891.61Z"/><path class="cls-1" d="M1278.77,929a1.29,1.29,0,0,0,1.51,1.44h2.2c0.62,0,.76.21,0.76,0.62v1.1c0,0.48-.14.76-0.55,0.76s-2.61-.21-6.52-0.21c-3.5,0-5.7.21-6.18,0.21s-0.55-.21-0.55-0.76V931c0-.48.21-0.62,0.89-0.62h2c0.76,0,1.3-.34,1.37-1.58,0.07-1.79.14-4,.14-5.77V914c0-2.75,0-4.74-2-6.18-1.65-1.24-3.3-1.24-5-1.24a8.05,8.05,0,0,0-5.56,2.68,6.73,6.73,0,0,0-1.58,4.67v14.21c0,1.85.21,2.27,1.65,2.27h1.72a0.57,0.57,0,0,1,.69.69v1.17c0,0.41-.14.62-0.48,0.62s-2.33-.21-6-0.21-5.7.21-6.11,0.21-0.48-.21-0.48-0.62V931c0-.41.14-0.62,0.69-0.62h2a1.13,1.13,0,0,0,1.37-1.37V913a4.23,4.23,0,0,0-2.82-4.05l-0.55-.27a0.66,0.66,0,0,1-.55-0.62v-0.34a0.8,0.8,0,0,1,.62-0.69l5.91-3.3a3.63,3.63,0,0,1,1.24-.48c0.34,0,.48.27,0.55,0.82l0.48,4.19h0.14c2-2.47,6-5,9.41-5a10.6,10.6,0,0,1,5.84,1.51,10,10,0,0,1,3.78,6.52V929Z"/><path class="cls-1" d="M1289,949.15c-2.47-1.51-3.5-3.3-3.5-5.56,0-3.85,3.91-6.8,7.21-8.24v-0.27c-2.88-.62-4.6-2.75-4.6-4.81,0-3.3,3.78-5.63,6.18-6.52v-0.14a10.92,10.92,0,0,1-6.39-10.44c0-4.46,4-10,11.74-10a11,11,0,0,1,8.65,4c1.85-1.3,4.19-2.68,6.45-2.68s3.36,1.51,3.23,2.88a2.61,2.61,0,0,1-2.68,2.54,3.42,3.42,0,0,1-2.4-1,2.74,2.74,0,0,0-1.44-.62,5,5,0,0,0-2.2.41,13,13,0,0,1,1,5.22,11.32,11.32,0,0,1-2.54,7.42,12.28,12.28,0,0,1-11.47,3.09c-1.37.55-3.64,1.92-3.64,3.84,0,2.82,3.43,2.61,8,2.33,5.63-.28,9.06.34,11.81,2.47a8.07,8.07,0,0,1,3.36,6.59c0,3.23-1.17,5.91-4.6,8.45a20.66,20.66,0,0,1-11.74,3.23C1296.22,951.35,1292.3,951,1289,949.15Zm22.66-7.07c0-4.05-3.09-7.14-10-6.66l-6.59.48c-2.13.55-5.49,2.88-5.49,6.59a6.59,6.59,0,0,0,2.68,4.74c2.27,1.58,4.74,1.92,9.61,1.92C1304.46,949.15,1312,947.37,1311.67,942.08Zm-6.39-29.25c0-3-.62-4.81-1.85-6.18a5.19,5.19,0,0,0-3.3-1.51,6.3,6.3,0,0,0-4.88,1.92c-2.2,2.33-2.47,5.49-2.47,8.1a8.54,8.54,0,0,0,2.2,6,5.6,5.6,0,0,0,4.12,1.72C1303.77,922.85,1305.28,917.15,1305.28,912.83Z"/><path class="cls-1" d="M2047.73,1416.62a17.62,17.62,0,0,0-.21,3.3c0,6.73,4.26,11.81,9.75,11.81a9.3,9.3,0,0,0,8.31-4.67,0.56,0.56,0,0,1,.62-0.34l0.89,0.48c0.21,0.07.34,0.27,0,1-1.24,2.75-4.81,7.48-10.92,7.48-3.91,0-8.24-1.17-10.78-4.87-2.4-3.5-3-6-3-10.85a15.46,15.46,0,0,1,4.33-10.92c3-3,6.39-3.64,9.82-3.64,7.9,0,10.09,7.42,10.09,10.09,0,1-.82,1.1-1.92,1.1h-17Zm10.92-2.06c1.3,0,1.85-.34,1.85-1,0-1.58-.82-6.11-5.29-6.11-3,0-5.91,2-7.21,7.07h10.64Z"/><path class="cls-1" d="M2085.63,1428.57h0.21c1.1-2.68,5.91-14.49,6.59-17.17,0.48-1.85,0-3-1.24-3h-1.37c-0.21,0-.27-0.34-0.27-0.69v-1.24c0-.41.14-0.55,0.41-0.55,1,0,2.47.21,5.49,0.21,2.68,0,4.33-.21,4.94-0.21s0.62,0.07.62,0.62v1.17c0,0.48,0,.69-0.34.69h-1.3a2.73,2.73,0,0,0-2.13.75c-1,1-4.46,8.51-5.49,11.05-0.82,2.06-5.91,13.6-6.18,14.08-0.55,1-.89,1.58-1.65,1.58s-1.1-.62-1.44-1.44l-5.36-13.94c-0.21-.55-3-8.45-3.5-9.54-0.89-2-1.58-2.54-2.82-2.54h-1.37c-0.34,0-.41-0.28-0.41-0.69v-1.24c0-.48.14-0.55,0.76-0.55s1.92,0.21,5.77.21c3.64,0,5.42-.21,6.18-0.21,0.55,0,.69.14,0.69,0.55v1.24c0,0.41-.07.69-0.48,0.69h-1.37a1.17,1.17,0,0,0-1.24,1.3c0,1.24,1.79,7,2.2,8.17S2084.88,1427.13,2085.63,1428.57Z"/><path class="cls-1" d="M2107,1416.62a17.62,17.62,0,0,0-.21,3.3c0,6.73,4.26,11.81,9.75,11.81a9.3,9.3,0,0,0,8.31-4.67,0.56,0.56,0,0,1,.62-0.34l0.89,0.48c0.21,0.07.34,0.27,0,1-1.24,2.75-4.81,7.48-10.92,7.48-3.91,0-8.24-1.17-10.78-4.87-2.4-3.5-3-6-3-10.85a15.46,15.46,0,0,1,4.33-10.92c3-3,6.39-3.64,9.82-3.64,7.9,0,10.09,7.42,10.09,10.09,0,1-.82,1.1-1.92,1.1h-17Zm10.92-2.06c1.3,0,1.85-.34,1.85-1,0-1.58-.82-6.11-5.29-6.11-3,0-5.91,2-7.21,7.07h10.64Z"/><path class="cls-1" d="M2135,1416.62c0-3.5-.55-4.19-2.47-5.22l-1.3-.69c-0.41-.14-0.55-0.21-0.55-0.48v-0.41a0.69,0.69,0,0,1,.55-0.62l6.8-3.5a2.07,2.07,0,0,1,1-.27c0.41,0,.48.41,0.48,0.82l0.34,4.88h0.27c2.06-3.16,5.29-6,8.24-6,2.33,0,3.5,1.44,3.5,3a3.32,3.32,0,0,1-2.88,3.37,4.5,4.5,0,0,1-2-.55,4.43,4.43,0,0,0-2.27-.55,4.87,4.87,0,0,0-4.05,2.88,7.4,7.4,0,0,0-.69,2.2v14.28c0,2.13.48,2.82,1.92,2.82h3.23c0.41,0,.48.21,0.48,0.62v1.24c0,0.41-.07.62-0.34,0.62s-3.57-.21-7.28-0.21c-4.26,0-7.14.21-7.55,0.21s-0.41-.14-0.41-0.69v-1.17c0-.48.14-0.62,0.76-0.62h2.68c1,0,1.51-.41,1.51-1.3,0.07-2.27.07-4.67,0.07-8.24v-6.45Z"/><path class="cls-1" d="M2154.09,1450.06a3,3,0,0,1,3.16-2.68,11.81,11.81,0,0,1,3.16.75,1.64,1.64,0,0,0,1.44-.41c1-1.24,4.53-9.06,5.49-11.74-0.34-1.72-7.62-23.21-8.17-24.65-0.82-1.72-1.44-2.88-3.23-2.88h-1.79c-0.48,0-.55-0.21-0.55-0.62v-1.37c0-.28.07-0.48,0.55-0.48s2.27,0.21,6.32.21c3.5,0,5.63-.21,6.39-0.21,0.55,0,.62.21,0.62,0.48v1.44c0,0.34-.07.55-0.41,0.55h-1.3c-0.76,0-1,.48-0.89,1.51,0.21,1.51,4.88,16.68,5.63,18.2h0.27c0.69-1.1,6.66-15.38,7.07-17.1s-0.14-2.61-1.17-2.61h-1.1c-0.41,0-.48-0.21-0.48-0.55v-1.37c0-.34.07-0.55,0.41-0.55,0.89,0,2.33.21,5.63,0.21,1.85,0,3.43-.21,4.19-0.21,0.41,0,.41.28,0.41,0.55v1.3c0,0.41,0,.62-0.34.62h-1.1a3.08,3.08,0,0,0-2.4,1.24c-1.51,1.85-6,12.36-10.78,23.14-3.36,7.62-6,14-7.28,16.27-1,1.79-2.2,4.46-5.84,4.46C2155.4,1453.56,2154.09,1452.12,2154.09,1450.06Z"/><path class="cls-1" d="M2196.39,1426.3c0,5.15,2.33,6,3.57,6a9.87,9.87,0,0,0,4.53-.89,0.56,0.56,0,0,1,.82.14l0.34,0.62a0.55,0.55,0,0,1-.14.75,11.55,11.55,0,0,1-7.62,2.75c-3.36,0-6.66-3.23-6.66-5.84,0-2.82.21-8.86,0.21-9.82v-1.51c0-1.24.07-5.91,0.14-8.79h-4.19a0.86,0.86,0,0,1-1-.82c0-.55.41-0.76,1.24-1.24,1.65-1,6.94-6.25,7.83-8.58a0.92,0.92,0,0,1,1-.69c0.55,0,.69.48,0.69,1l-0.34,6.73h9.54a0.45,0.45,0,0,1,.48.62l-0.69,2.4a0.56,0.56,0,0,1-.62.55h-8.86c-0.14,3.16-.21,6.52-0.21,9.68v6.87Z"/><path class="cls-1" d="M2213.42,1397.47c0-4.19-.82-4.94-3.3-5.77l-1.17-.41c-0.41-.14-0.48-0.21-0.48-0.41v-0.62c0-.27.21-0.34,0.82-0.69l7.14-3.78a3.63,3.63,0,0,1,1.58-.55c0.41,0,.69.55,0.55,1.72s-0.21,15.11-.21,18.54v4.39h0.34a13.1,13.1,0,0,1,9.41-4.46,9,9,0,0,1,6.8,2.75c3.09,2.88,3,6.39,3,10.09v3.91c0,3.85.14,8.1,0.14,9.41,0,0.82,1.1,1,2.54,1h1.17c0.55,0,.76.14,0.76,0.62v1c0,0.55-.14.82-0.55,0.82s-2.68-.21-6.59-0.21c-3.36,0-5.84.21-6.45,0.21s-0.62-.21-0.62-0.75v-1.17c0-.34.07-0.55,0.48-0.55h1.58c1.17,0,2.54-.14,2.61-1.3,0.07-1,0-4.6,0-6.8V1419c0-3.85-.27-6.59-2.27-8.45a6.3,6.3,0,0,0-4.53-1.92,8.38,8.38,0,0,0-6.39,2.88,6,6,0,0,0-1.37,3.37v15c0,2.2.21,2.82,1.51,2.82h2.06c0.48,0,.76.14,0.76,0.55v1.17c0,0.48-.14.75-0.55,0.75s-3.36-.21-6.52-0.21c-3.43,0-6,.21-6.66.21-0.27,0-.48-0.21-0.48-0.69v-1.24c0-.48.27-0.55,1-0.55h1.44c1.1,0,2.13-.28,2.27-1.1,0.21-1.3.21-8.86,0.21-13.32v-20.74Z"/><path class="cls-1" d="M2250.71,1414.91c0-2.33-.41-3.57-3.85-4.12-0.48-.07-0.62-0.21-0.62-0.48v-0.62a0.56,0.56,0,0,1,.48-0.48,56.3,56.3,0,0,0,7.42-3.36,2.84,2.84,0,0,1,1.3-.41c0.34,0,.41.34,0.34,0.82-0.14,1.17-.14,5.49-0.14,11.19v7.48c0,2.68,0,5.15.07,5.91,0.14,1.3.34,1.79,1.1,1.79H2260c0.55,0,.69.21,0.69,0.62v1.17c0,0.48-.14.69-0.62,0.69s-3.71-.21-6.59-0.21c-4,0-6.66.21-7.42,0.21a0.48,0.48,0,0,1-.55-0.55v-1.37c0-.41.21-0.55,0.69-0.55h3.36c0.76,0,1-.28,1.1-1.37,0.07-2.06.07-4.19,0.07-6.25v-10.09Zm-3.23-21.08a4.05,4.05,0,0,1,4.33-3.84,3.62,3.62,0,0,1,3.71,3.64,3.93,3.93,0,0,1-4.12,4.05A4.19,4.19,0,0,1,2247.48,1393.83Z"/><path class="cls-1" d="M2292.8,1431.18a1.29,1.29,0,0,0,1.51,1.44h2.2c0.62,0,.76.21,0.76,0.62v1.1c0,0.48-.14.75-0.55,0.75s-2.61-.21-6.52-0.21c-3.5,0-5.7.21-6.18,0.21s-0.55-.21-0.55-0.75v-1.1c0-.48.21-0.62,0.89-0.62h2c0.76,0,1.3-.34,1.37-1.58,0.07-1.79.14-4,.14-5.77v-9.06c0-2.75,0-4.74-2-6.18-1.65-1.24-3.3-1.24-5-1.24a8.05,8.05,0,0,0-5.56,2.68,6.73,6.73,0,0,0-1.58,4.67v14.21c0,1.85.21,2.27,1.65,2.27h1.72a0.57,0.57,0,0,1,.69.69v1.17c0,0.41-.14.62-0.48,0.62s-2.33-.21-6-0.21-5.7.21-6.11,0.21-0.48-.21-0.48-0.62v-1.24c0-.41.14-0.62,0.69-0.62h2a1.13,1.13,0,0,0,1.37-1.37v-16.07a4.23,4.23,0,0,0-2.82-4.05l-0.55-.27a0.66,0.66,0,0,1-.55-0.62v-0.34a0.8,0.8,0,0,1,.62-0.69l5.91-3.3a3.63,3.63,0,0,1,1.24-.48c0.34,0,.48.27,0.55,0.82l0.48,4.19h0.14c2-2.47,6-5,9.41-5a10.6,10.6,0,0,1,5.84,1.51,10,10,0,0,1,3.78,6.52v17.72Z"/><path class="cls-1" d="M2303,1451.37c-2.47-1.51-3.5-3.3-3.5-5.56,0-3.85,3.91-6.8,7.21-8.24v-0.27c-2.88-.62-4.6-2.75-4.6-4.81,0-3.3,3.78-5.63,6.18-6.52v-0.14a10.92,10.92,0,0,1-6.39-10.44c0-4.46,4-10,11.74-10a11,11,0,0,1,8.65,4c1.85-1.3,4.19-2.68,6.45-2.68s3.36,1.51,3.23,2.88a2.61,2.61,0,0,1-2.68,2.54,3.42,3.42,0,0,1-2.4-1,2.74,2.74,0,0,0-1.44-.62,5,5,0,0,0-2.2.41,13,13,0,0,1,1,5.22,11.32,11.32,0,0,1-2.54,7.42,12.28,12.28,0,0,1-11.47,3.09c-1.37.55-3.64,1.92-3.64,3.85,0,2.82,3.43,2.61,8,2.33,5.63-.28,9.06.34,11.81,2.47a8.07,8.07,0,0,1,3.36,6.59c0,3.23-1.17,5.91-4.6,8.45a20.66,20.66,0,0,1-11.74,3.23C2310.24,1453.56,2306.33,1453.22,2303,1451.37Zm22.66-7.07c0-4.05-3.09-7.14-10-6.66l-6.59.48c-2.13.55-5.49,2.88-5.49,6.59a6.59,6.59,0,0,0,2.68,4.74c2.27,1.58,4.74,1.92,9.61,1.92C2318.48,1451.37,2326,1449.58,2325.69,1444.29Zm-6.39-29.25c0-3-.62-4.81-1.85-6.18a5.19,5.19,0,0,0-3.3-1.51,6.3,6.3,0,0,0-4.87,1.92c-2.2,2.33-2.47,5.49-2.47,8.1a8.55,8.55,0,0,0,2.2,6,5.6,5.6,0,0,0,4.12,1.72C2317.8,1425.07,2319.31,1419.37,2319.31,1415Z"/><path class="cls-1" d="M469.75,685.94c0.41,0,4.46-.21,5-0.34,1.79-.48,2.47-1.44,2.47-3.57,0-.27.07-0.34,0.34-0.34l1.51,0.07c0.27,0,.48.14,0.41,0.41-0.14.62-.14,4.26-0.14,4.88,0,1.51.21,3.64,0.27,4.53a0.29,0.29,0,0,1-.34.34l-1.44.14a0.32,0.32,0,0,1-.41-0.27c-0.34-1.72-.76-2.82-2.54-3.23a24.42,24.42,0,0,0-5.15-.48v2.33c0,2.4.14,6.39,0.14,7.28,0,3.23,2,3.43,4.94,3.43s4.94-.07,7.28-1.92a35.88,35.88,0,0,0,3.64-4.6c0.34-.48.69-0.55,0.89-0.41l1.1,0.62a0.42,0.42,0,0,1,.21.48l-2.47,7.28a1.06,1.06,0,0,1-.76.69c-0.21,0-1.24-.07-4.05-0.14s-7.28-.07-14.49-0.07c-0.62,0-1.85.07-3.09,0.07s-2.33.14-2.75,0.14a0.39,0.39,0,0,1-.41-0.48v-1.58a0.39,0.39,0,0,1,.48-0.41H461c3.23,0,3.43-.28,3.43-1.24V684.91c0-3.64-.07-8.1-0.14-8.79-0.21-1.44-.62-1.72-3.36-1.72h-0.69c-0.21,0-.27-0.14-0.27-0.48v-1.65a0.32,0.32,0,0,1,.34-0.34c1,0,4.81.21,5.84,0.21l15.38-.07c0.69,0,1.58-.14,1.85-0.14s0.27,0.14.41,1c0.14,0.62,2.06,6.52,2.2,7,0.07,0.27.07,0.41-.07,0.48l-1.1.48a0.48,0.48,0,0,1-.62-0.27c-0.14-.21-3.43-4.05-4.6-5.15a4.1,4.1,0,0,0-2.61-1l-7.28-.14v11.67Z"/><path class="cls-1" d="M505.8,674a0.42,0.42,0,0,1-.48.41h-1.58c-0.89,0-1.92.14-1.92,1,0,1.58,1.17,4.26,3,10,0.55,1.72,3.09,9.68,3.5,10.78h0.21c0.41-1.44,3.78-10,4.12-11,2.61-7.62,3.5-9.48,3.5-10.16,0-.34-0.27-0.69-1.44-0.69H514a0.39,0.39,0,0,1-.41-0.48v-1.58a0.4,0.4,0,0,1,.41-0.41c0.41,0,4,.21,5.56.21,1.24,0,4.33-.21,4.74-0.21a0.39,0.39,0,0,1,.41.48v1.44a0.48,0.48,0,0,1-.41.55h-1.1a4,4,0,0,0-2.88,1c-1.3,1.3-5,10.3-5.7,12.08-0.62,1.44-6.25,14.9-6.8,15.79a1.17,1.17,0,0,1-1.1.55,1.3,1.3,0,0,1-1.1-1l-5.7-15.52-0.48-1.51c-1.17-3.16-3.23-9.41-3.71-10.09a2.45,2.45,0,0,0-2-1.3H493a0.34,0.34,0,0,1-.34-0.41v-1.72a0.35,0.35,0,0,1,.41-0.34c0.34,0,4.12.21,5.91,0.21s5.84-.21,6.25-0.21,0.55,0.14.55,0.48V674Z"/><path class="cls-1" d="M539.17,685.94c0.41,0,4.46-.21,5-0.34,1.79-.48,2.47-1.44,2.47-3.57,0-.27.07-0.34,0.34-0.34l1.51,0.07c0.27,0,.48.14,0.41,0.41-0.14.62-.14,4.26-0.14,4.88,0,1.51.21,3.64,0.27,4.53a0.29,0.29,0,0,1-.34.34l-1.44.14a0.32,0.32,0,0,1-.41-0.27c-0.34-1.72-.76-2.82-2.54-3.23a24.42,24.42,0,0,0-5.15-.48v2.33c0,2.4.14,6.39,0.14,7.28,0,3.23,2,3.43,4.94,3.43s4.94-.07,7.28-1.92a35.88,35.88,0,0,0,3.64-4.6c0.34-.48.69-0.55,0.89-0.41l1.1,0.62a0.42,0.42,0,0,1,.21.48l-2.47,7.28a1.06,1.06,0,0,1-.76.69c-0.21,0-1.24-.07-4.05-0.14S542.81,703,535.6,703c-0.62,0-1.85.07-3.09,0.07s-2.33.14-2.75,0.14a0.39,0.39,0,0,1-.41-0.48v-1.58a0.39,0.39,0,0,1,.48-0.41h0.62c3.23,0,3.43-.28,3.43-1.24V684.91c0-3.64-.07-8.1-0.14-8.79-0.21-1.44-.62-1.72-3.36-1.72h-0.69c-0.21,0-.27-0.14-0.27-0.48v-1.65a0.32,0.32,0,0,1,.34-0.34c1,0,4.81.21,5.84,0.21l15.38-.07c0.69,0,1.58-.14,1.85-0.14s0.27,0.14.41,1c0.14,0.62,2.06,6.52,2.2,7,0.07,0.27.07,0.41-.07,0.48l-1.1.48a0.48,0.48,0,0,1-.62-0.27c-0.14-.21-3.43-4.05-4.6-5.15a4.1,4.1,0,0,0-2.61-1l-7.28-.14v11.67Z"/><path class="cls-1" d="M567.46,676.53c-0.07-1.37-.69-2.13-2.61-2.13h-0.69c-0.21,0-.27-0.21-0.27-0.48v-1.65a0.35,0.35,0,0,1,.41-0.34c0.34,0,4.6.21,5.84,0.21,0.82,0,6.8-.21,7.69-0.21,4.12,0,7.21,1.17,8.93,2.68a7.48,7.48,0,0,1,2.4,5c0,4.74-2.68,7.48-8.1,9.41v0.14c1.58,0.34,3,2.47,5.77,6.45a21.53,21.53,0,0,0,3.85,4.39,4.74,4.74,0,0,0,3.09.76c0.27,0,.34.21,0.34,0.62v1.37a0.42,0.42,0,0,1-.41.48c-0.14,0-.69-0.07-1.37-0.14s-1.44-.07-2.13-0.07c-1.58,0-3.23.07-4.39,0.14-1.3-1-4.33-6.52-4.94-7.55-2.47-4.26-3.5-5.77-6.39-5.77a7,7,0,0,0-1.79.14v9.06a1.72,1.72,0,0,0,1.92,1.72h1.79a0.35,0.35,0,0,1,.41.34v1.65c0,0.34-.14.48-0.55,0.48s-4.19-.21-6.45-0.21c-1.72,0-5.22.21-5.7,0.21a0.45,0.45,0,0,1-.41-0.55v-1.58a0.35,0.35,0,0,1,.41-0.34h0.82c1.65,0,2.47-.28,2.47-1.79,0.07-3.37,0-7.42.07-11.6V676.53Zm5.22,11.12a14.54,14.54,0,0,0,2.06.14c7.62,0,8.79-5.36,8.79-7.14a5.85,5.85,0,0,0-2.27-4.74,11.41,11.41,0,0,0-6.52-1.79c-1,0-2.06.28-2.06,1.51v12Z"/><path class="cls-1" d="M613.74,694.86c0.07,1.72,0,3.57.14,4.39,0.14,1.44,1.24,1.51,2.47,1.51h0.89c0.34,0,.48.14,0.48,0.34v1.65a0.46,0.46,0,0,1-.55.48c-0.41,0-4.26-.21-6.52-0.21-1.51,0-5.49.21-5.91,0.21s-0.48-.14-0.48-0.55v-1.51a0.4,0.4,0,0,1,.41-0.41h1c2.2,0,2.61-.41,2.68-1.37,0.07-.62.07-3.09,0.07-7.14v-2.47c-0.62-1.24-9-13.53-10.09-14.56a3.8,3.8,0,0,0-2.47-.82h-1c-0.34,0-.48-0.14-0.48-0.55v-1.51a0.45,0.45,0,0,1,.55-0.41c0.41,0,4,.21,5.63.21s6.18-.21,6.66-0.21a0.43,0.43,0,0,1,.48.48v1.51a0.41,0.41,0,0,1-.48.48h-1c-1.24,0-1.3.75-1,1.17,0.41,0.62,6.11,9.75,7.21,11.4,1-1.72,6.73-10,7-10.57,0.55-1.1.62-2-.89-2h-1.1a0.43,0.43,0,0,1-.48-0.48v-1.51a0.43,0.43,0,0,1,.48-0.48c0.41,0,3.85.21,5.91,0.21,1.24,0,3.64-.21,4.05-0.21s0.48,0.14.48,0.55v1.44a0.39,0.39,0,0,1-.41.48h-0.69a4.89,4.89,0,0,0-2.47.55c-1,.55-9,11.74-10.57,14.15v5.77Z"/><path class="cls-1" d="M644.64,674.54c-1.3,0-5.91-.07-8.45.62a15.8,15.8,0,0,0-4.05,5.29,0.47,0.47,0,0,1-.62.34l-1.24-.48a0.5,0.5,0,0,1-.27-0.69c0.48-1.51,2.13-7.07,2.4-8.31a0.73,0.73,0,0,1,.62-0.69,0.92,0.92,0,0,1,.55.21l0.55,0.41a4.14,4.14,0,0,0,2.68.76c2.4,0.14,5,.27,9,0.27h2.75c2.75,0,6.87-.14,9.68-0.27a4.56,4.56,0,0,0,2.47-.62l0.82-.55a1.1,1.1,0,0,1,.55-0.21c0.27,0,.41.21,0.62,1.51,0.14,1,1.3,5.91,1.65,7.76a0.45,0.45,0,0,1-.34.55l-1.17.34c-0.41.14-.62,0.07-0.76-0.28a18,18,0,0,0-3.43-5.29c-1.72-.62-7.48-0.69-8.72-0.69v11.54c0,7.21,0,12.36.07,12.91,0.14,1.1.48,1.79,1.58,1.79h2.61c0.34,0,.48.21,0.48,0.62v1.44a0.42,0.42,0,0,1-.48.41c-0.48,0-4.74-.21-7-0.21-1.92,0-6.39.21-6.94,0.21a0.5,0.5,0,0,1-.55-0.62v-1.37a0.39,0.39,0,0,1,.41-0.48h2.75a1.39,1.39,0,0,0,1.58-1.1c0.21-2.61.21-6.25,0.21-10.37V674.54Z"/><path class="cls-1" d="M702.53,687.1c0,1.44.07,9.68,0.07,10.3,0.07,2.68.48,3.37,1.92,3.37h2c0.27,0,.34.21,0.34,0.48v1.51c0,0.34-.14.48-0.55,0.48-0.62,0-4.12-.21-6.32-0.21-1.44,0-5.56.21-6.66,0.21-0.48,0-.62-0.21-0.62-0.48v-1.58a0.39,0.39,0,0,1,.48-0.41h2.68c1,0,1.24-.82,1.24-2.4,0-1,.14-8,0.14-9.2v-0.62c0-.48-0.27-0.55-1-0.55H680.9c-0.55,0-.69.07-0.69,0.41V689c0,1.17,0,7.9.07,9.2,0.07,2.13.55,2.54,1.51,2.54h2.06a0.39,0.39,0,0,1,.41.48v1.51a0.42,0.42,0,0,1-.41.48c-0.82,0-4.67-.21-6.18-0.21-1.3,0-5.77.21-6.73,0.21a0.41,0.41,0,0,1-.48-0.48v-1.58c0-.34.14-0.41,0.48-0.41h2.13c1.58,0,1.65-1.1,1.72-2.54,0-.89.14-9.41,0.14-10.51V685.8c0-2.75-.14-8.1-0.14-8.79,0-2-.76-2.61-2-2.61h-1.85c-0.41,0-.55-0.14-0.55-0.48v-1.44c0-.41.07-0.55,0.55-0.55,0.76,0,5.22.21,6.94,0.21,1.51,0,5.42-.21,6.18-0.21a0.45,0.45,0,0,1,.55.55v1.44c0,0.34-.07.48-0.55,0.48h-1.92a1.71,1.71,0,0,0-1.85,1.79c0,0.62-.07,6.32-0.07,8.38v0.55a0.48,0.48,0,0,0,.55.55h15.52c0.69,0,1-.14,1-0.69v-0.62c0-1.85-.14-7.21-0.14-7.76,0-1.44-.69-2.2-1.58-2.2h-2a0.39,0.39,0,0,1-.48-0.41v-1.58a0.41,0.41,0,0,1,.48-0.48c0.76,0,5,.21,6.52.21,1.17,0,5.29-.21,5.84-0.21s0.62,0.21.62,0.69v1.3c0,0.28-.07.48-0.62,0.48h-1.79A1.44,1.44,0,0,0,702.6,676c0,1-.07,8-0.07,9.54v1.51Z"/><path class="cls-1" d="M724.43,688.89c0,0.41,0,8.31.07,9.34,0.14,1.58,1,2.54,3,2.54h1c0.34,0,.41.14,0.41,0.34v1.65a0.39,0.39,0,0,1-.41.48c-0.55,0-4.12-.21-7.21-0.21-2.33,0-6.32.21-6.73,0.21a0.45,0.45,0,0,1-.41-0.55v-1.51a0.4,0.4,0,0,1,.41-0.41h1.51c1.72,0,2.82-.07,3-1.3,0.07-.62.14-9.34,0.14-11.67v-3c0-1.1-.14-8-0.14-8.93,0-.75-0.62-1.44-3.5-1.44h-1.24a0.39,0.39,0,0,1-.41-0.48v-1.58a0.36,0.36,0,0,1,.41-0.41c0.41,0,4.67.28,7.9,0.21,2,0,5.49-.21,6-0.21a0.35,0.35,0,0,1,.41.34v1.65a0.39,0.39,0,0,1-.41.48H727c-1.85,0-2.47.27-2.54,1.72,0,0.69-.07,8.86-0.07,9.34v3.43Z"/><path class="cls-1" d="M766.66,702.21a1.09,1.09,0,0,1-1,1.3,3.06,3.06,0,0,1-1.58-.69c-0.48-.48-2.82-3.3-5.63-6.66L751.56,688c-1.65-1.92-7.21-9.34-8.31-10.58h-0.14v9.41c0,4.12.27,11,.41,11.6,0.21,1.58,1,2.33,1.65,2.33h1.44c0.34,0,.34.14,0.34,0.41v1.65c0,0.27,0,.41-0.34.41s-3.23-.21-5.22-0.21c-1,0-4.05.21-4.6,0.21-0.14,0-.21-0.14-0.21-0.48V701c0-.14.07-0.21,0.27-0.21h1.58a2.11,2.11,0,0,0,2-2.06c0.07-.82.21-5.7,0.21-13.46V678A3.42,3.42,0,0,0,737,674.4h-0.62A0.36,0.36,0,0,1,736,674v-1.65a0.4,0.4,0,0,1,.41-0.41c0.14,0,.89.07,1.79,0.07s2,0.14,2.75.14c1.1,0,2.54-.14,3.36-0.14s1.37,0.14,1.65.55,8.1,10.23,9.54,11.95c1.24,1.44,7.62,9.48,8.45,10.37h0.27v-4.53c0-3.91-.07-6-0.21-8.24a33.76,33.76,0,0,0-.55-6.46,2.6,2.6,0,0,0-2.54-1.24h-1.17a0.41,0.41,0,0,1-.48-0.48v-1.65c0-.21.14-0.34,0.48-0.34s3.43,0.21,5.63.21c1.44,0,3.85-.21,4.33-0.21s0.48,0.14.48,0.55v1.44a0.42,0.42,0,0,1-.41.48h-0.69c-1.72,0-2.06.48-2.2,1.44-0.34,3.16-.21,7.48-0.21,10.3v16.07Z"/><path class="cls-1" d="M804.36,699c0,0.62.21,1,.21,1.37a0.93,0.93,0,0,1-.76.75,25.72,25.72,0,0,1-11.74,2.75c-3.57,0-9.06-1.44-12.29-5-2.75-3-4.12-6.73-4.12-12.08a15,15,0,0,1,5.08-11.26A18.51,18.51,0,0,1,793,671.31a15,15,0,0,1,7.83,2.2c0.55,0.48.82,0.48,1,.27l0.34-.62a0.85,0.85,0,0,1,.89-0.48,0.63,0.63,0,0,1,.76.75c0,0.34.89,6.73,1,8a0.46,0.46,0,0,1-.27.55l-1.3.41c-0.21.07-.34,0-0.55-0.55a17.29,17.29,0,0,0-3.3-4.87c-1.85-1.92-3.78-3.3-6.94-3.3a9.85,9.85,0,0,0-7.35,3.5,14.49,14.49,0,0,0-3.57,9c0,5.29,1.51,9.2,4.19,12A9.65,9.65,0,0,0,798,699.74c0.89-.69,1-1.58,1-3v-2.54c0-1.58-1.58-2.06-3.36-2.06h-1.65a0.29,0.29,0,0,1-.34-0.34v-1.65a0.29,0.29,0,0,1,.34-0.34c0.41,0,3.78.14,7.48,0.14,2.54,0,5.63-.14,5.91-0.14a0.35,0.35,0,0,1,.41.34v1.65a0.38,0.38,0,0,1-.34.41h-1.17c-0.69,0-2,.27-2,1.44V699Z"/></svg>