<?xml version="1.0" encoding="utf-8"?>
<!-- Generator: Adobe Illustrator 19.2.1, SVG Export Plug-In . SVG Version: 6.00 Build 0)  -->
<svg version="1.1" id="Layer_1" xmlns="http://www.w3.org/2000/svg" xmlns:xlink="http://www.w3.org/1999/xlink" x="0px" y="0px"
	 viewBox="0 0 2560 1600" style="enable-background:new 0 0 2560 1600;" xml:space="preserve">
<g>
	<path d="M1162.9,655.3c0-1.4,1.5-2.7,3.2-2.7c1.3,0,2.5,0.6,3.2,0.8c0.5,0.1,1,0,1.4-0.4c1-1.2,4.5-9.1,5.5-11.7
		c-0.3-1.7-7.6-23.2-8.2-24.7c-0.8-1.7-1.4-2.9-3.2-2.9h-1.8c-0.5,0-0.5-0.2-0.5-0.6v-1.4c0-0.3,0.1-0.5,0.5-0.5
		c0.6,0,2.3,0.2,6.3,0.2c3.5,0,5.6-0.2,6.4-0.2c0.5,0,0.6,0.2,0.6,0.5v1.4c0,0.3-0.1,0.5-0.4,0.5h-1.3c-0.8,0-1,0.5-0.9,1.5
		c0.2,1.5,4.9,16.7,5.6,18.2h0.3c0.7-1.1,6.7-15.4,7.1-17.1c0.4-1.7-0.1-2.6-1.2-2.6h-1.1c-0.4,0-0.5-0.2-0.5-0.5v-1.4
		c0-0.3,0.1-0.5,0.4-0.5c0.9,0,2.3,0.2,5.6,0.2c1.9,0,3.4-0.2,4.2-0.2c0.4,0,0.4,0.3,0.4,0.5v1.3c0,0.4,0,0.6-0.3,0.6h-1.1
		c-0.8,0-1.7,0.3-2.4,1.2c-1.5,1.9-6,12.4-10.8,23.1c-3.4,7.6-6,14-7.3,16.3c-1,1.8-2.2,4.5-5.8,4.5
		C1164.2,658.8,1162.9,657.4,1162.9,655.3z"/>
	<path d="M1198.3,636.2c-3.2-3.8-3.8-6.3-3.8-11.2c0-3.5,1.9-7.9,5.9-11.1c3.6-2.7,6.9-3.3,9.2-3.3c3.8,0,7.6,1.9,9.6,4
		c3.1,3.2,4.7,6.7,4.7,11.2c0,7.5-6.7,15.1-15.2,15.1C1205.4,641,1201.2,639.7,1198.3,636.2z M1218.1,625.2c0-7.6-5.6-12.4-9.1-12.4
		c-1.9,0-3.6,0.4-5.3,2.2c-2.7,2.7-3.6,5.6-3.6,10.8c0,3.8,0.4,6.5,2.6,9.6c1.6,2.3,3.6,3.6,6.8,3.6
		C1214.8,638.9,1218.1,632.5,1218.1,625.2z"/>
	<path d="M1254.9,626.2c0,3.3,0,6.7,0.1,8.1c0.2,2.1,1,2.4,1.8,2.4c0.4,0,1.4,0,2.3-0.2c0.5-0.1,0.8,0,0.8,0.3l0.2,0.9
		c0.1,0.4-0.1,0.5-0.3,0.6l-7.2,2.4c-0.4,0.1-0.8,0.3-1.4,0.3c-0.3,0-0.5-0.1-0.6-0.8l-0.5-4h-0.1c-1.9,2.7-5.9,4.8-9.3,4.8
		c-1.9,0-4.2-0.2-6.5-3.2c-2.8-3.6-2.7-5.9-2.7-13.5v-8c-0.1-1.9-1-2.4-2.6-2.6c-1.2-0.1-1.5-0.1-1.5-0.5V612c0-0.4,0.1-0.5,0.8-0.5
		h6.1c0.4,0,0.7-0.1,1-0.1c0.3,0,0.5-0.1,0.8-0.1c0.5,0,0.8,0.3,0.8,0.8c-0.1,0.6-0.3,3.8-0.3,7.9v4.9c0,2.7-0.7,7.1,1.5,10.3
		c1.7,2.5,3.6,2.6,5.5,2.6s4.6-1.8,5.9-3.4c0.3-0.3,0.7-1.2,0.7-1.9v-16.4c-0.1-1.9-1.2-2.3-3-2.4c-1.2,0-1.5-0.1-1.5-0.5v-1.2
		c0-0.5,0.1-0.6,0.8-0.6h6.4c0.5,0,0.8-0.1,1.2-0.1c0.3,0,0.6-0.1,0.8-0.1c0.4,0,0.7,0.3,0.6,0.7c-0.1,0.6-0.4,2.4-0.4,9.1V626.2z"
		/>
	<path d="M1152.9,702.1c0,3.6,0,13.9,0.1,16.1c0.1,1.2,0.3,2.1,1.8,2.1h3.1c0.6,0,0.8,0.2,0.8,0.6v1.2c0,0.4-0.1,0.7-0.4,0.7
		c-0.5,0-3.5-0.2-7.8-0.2c-4.4,0-7.1,0.2-7.8,0.2c-0.3,0-0.5-0.3-0.5-0.7v-1.2c0-0.5,0.1-0.6,0.9-0.6h3.3c0.8,0,1.4-0.5,1.5-1.7
		c0.1-2.1,0.1-13.9,0.1-17.9v-4.3c0-4.9-0.1-11.1-0.2-12.9c-0.1-2.3-1.2-3.4-3.4-4.1l-1.4-0.5c-0.3-0.1-0.4-0.2-0.4-0.3v-0.5
		c0-0.2,0.2-0.3,0.6-0.5c2.4-1.1,5.5-2.3,8-4c0.6-0.4,1-0.5,1.4-0.5c0.5,0,0.6,0.3,0.5,1.2c-0.1,3.8-0.3,18.1-0.3,21.8V702.1z"/>
	<path d="M1165.1,718.6c-3.2-3.8-3.8-6.3-3.8-11.2c0-3.5,1.9-7.9,5.9-11.1c3.6-2.7,6.9-3.3,9.2-3.3c3.8,0,7.6,1.9,9.6,4
		c3.1,3.2,4.7,6.7,4.7,11.2c0,7.5-6.7,15.1-15.2,15.1C1172.3,723.4,1168,722.1,1165.1,718.6z M1185,707.6c0-7.6-5.6-12.4-9.1-12.4
		c-1.9,0-3.6,0.4-5.3,2.2c-2.7,2.7-3.6,5.6-3.6,10.8c0,3.8,0.4,6.5,2.6,9.6c1.6,2.3,3.6,3.6,6.8,3.6
		C1181.6,721.3,1185,714.9,1185,707.6z"/>
	<path d="M1199.3,718.6c-3.2-3.8-3.8-6.3-3.8-11.2c0-3.5,1.9-7.9,5.9-11.1c3.6-2.7,6.9-3.3,9.2-3.3c3.8,0,7.6,1.9,9.6,4
		c3.1,3.2,4.7,6.7,4.7,11.2c0,7.5-6.7,15.1-15.2,15.1C1206.5,723.4,1202.2,722.1,1199.3,718.6z M1219.2,707.6
		c0-7.6-5.6-12.4-9.1-12.4c-1.9,0-3.6,0.4-5.3,2.2c-2.7,2.7-3.6,5.6-3.6,10.8c0,3.8,0.4,6.5,2.6,9.6c1.6,2.3,3.6,3.6,6.8,3.6
		C1215.8,721.3,1219.2,714.9,1219.2,707.6z"/>
	<path d="M1233.5,683.1c0-2.8-0.2-4-3.6-4.9c-0.8-0.2-1-0.3-1-0.5v-0.6c0-0.3,0.2-0.4,0.9-0.7l7-3c0.6-0.3,1.1-0.5,1.5-0.5
		c0.4,0,0.5,0.3,0.4,1.2c-0.3,3.3-0.3,13.4-0.3,21.6v10.8c0.9,0,2.6-0.2,3.3-0.8c1.3-0.9,6.7-6.9,7.3-7.7c0.4-0.8,0.4-1.3,0-1.6
		c-0.5-0.4-1.4-0.4-1.8-0.4c-0.5,0-0.5-0.2-0.5-0.6v-1.3c0-0.3,0.1-0.5,0.5-0.5c0.4,0,2.9,0.2,6.4,0.2c3.4,0,5.1-0.2,5.6-0.2
		c0.3,0,0.4,0.2,0.4,0.7v1.2c0,0.4-0.1,0.5-0.5,0.5h-0.5c-1.4,0-3.4,0.7-4.7,1.6c-1,0.5-6.7,5.9-9.1,8.2
		c1.4,1.4,12.9,12.9,14.1,13.5c1.2,0.6,2.8,1,3.6,1c0.4,0,0.5,0.1,0.5,0.6v1.2c0,0.4-0.1,0.6-0.6,0.6c-0.5,0-2.5-0.2-5.7-0.2
		c-4.1,0-6.9,0.2-7.5,0.2c-0.3,0-0.5-0.2-0.5-0.7V721c0-0.3,0.1-0.5,0.7-0.5h0.5c0.5,0,1-0.5,0.8-1.1c-0.2-0.5-8-8.9-9.1-9.9
		c-0.8-0.6-2.1-0.8-3-0.8v3c0,2.4,0,4.7,0.1,7.1c0.1,1,0.4,1.4,1.4,1.4h2c0.5,0,0.6,0.1,0.6,0.5v1.2c0,0.5-0.1,0.8-0.5,0.8
		c-0.4,0-2.7-0.2-6.1-0.2c-3.7,0-6.1,0.2-6.6,0.2c-0.2,0-0.3-0.3-0.3-0.7v-1.2c0-0.5,0.2-0.6,0.7-0.6h2.5c0.9,0,1.2-0.8,1.2-1.6
		c0.1-3,0.1-6.7,0.1-12.8V683.1z"/>
	<path d="M1123,797.9c-1.4,4.8-3.9,11.5-6.5,15c-3,3.9-6.5,5.8-10.8,5.8c-5.2,0-6.6-3.2-6.6-4.6c0-2,1.2-3.6,3.1-3.6
		c2,0,3,1.7,3,2.9c0,0.5-0.1,1.3-0.4,1.7c-0.2,0.3-0.1,0.6,0,0.8c0.2,0.2,0.7,0.5,2.3,0.5c3.8,0,6.4-6.4,8-12.1l11.2-38.7
		c0.7-2.3,0.8-4.3-2.5-4.3h-2.3c-0.4,0-0.7-0.1-0.6-0.5l0.3-1.4c0.1-0.4,0.3-0.5,0.7-0.5c0.5,0,3.7,0.2,8.7,0.2s7.8-0.2,8.4-0.2
		c0.5,0,0.7,0.2,0.6,0.7l-0.3,1.4c-0.1,0.3-0.2,0.5-0.7,0.5h-1.8c-2.2,0-3.8,0.9-5.1,5.6L1123,797.9z"/>
	<path d="M1177.2,785.8c-3.9,12.7-10,20.2-20.8,20.2c-9.2,0-16-4.1-16-12.6c0-2.9,1-7.1,1.4-8.6l5.8-19.3c1-3.1,0.3-4.3-1.9-4.3
		h-2.5c-0.3,0-0.5-0.1-0.5-0.5l0.3-1.4c0.1-0.4,0.2-0.5,0.9-0.5c0.8,0,3.2,0.2,8.2,0.2c5.6,0,7.9-0.2,8.6-0.2c0.5,0,0.7,0.2,0.6,0.7
		l-0.3,1.3c-0.1,0.3-0.3,0.5-0.7,0.5h-2.2c-1.6,0-3.3,0.3-4.4,3.9l-5.6,18.3c-0.4,1.5-2,6.6-2,9.7c0,8.7,8.4,9.7,10.8,9.7
		c3,0,6.7-1.4,8.9-3.4c3.2-2.8,5.4-6.6,7.7-14.2l6-19.8c1-3.3-0.4-4.2-2.5-4.2h-2.6c-0.6,0-0.7-0.2-0.6-0.5l0.2-1.3
		c0.1-0.5,0.3-0.7,0.9-0.7c0.8,0,3.4,0.2,8.4,0.2c4,0,5.6-0.2,6.2-0.2c0.6,0,0.7,0.2,0.6,0.7l-0.2,1.3c-0.1,0.3-0.2,0.5-0.8,0.5
		h-1.4c-2.2,0-3.2,1.3-4,3.2L1177.2,785.8z"/>
	<path d="M1190.9,787.7c0.1-0.3,0.3-0.3,0.8-0.3l0.7,0.2c0.3,0.1,0.6,0.3,0.5,0.8c-2.5,10.2,3.6,14.9,7.9,14.9c4.4,0,8-3.5,8-8.1
		s-3.4-7.3-6.4-10.6c-4.3-4.7-7.6-8.2-7.6-14.6c0-4.9,3.9-12.1,11.7-12.1c3.8,0,7,2.3,8.1,3.1c0.3,0.2,0.5,0.3,1,0.3
		c0.5,0,0.8-1,1.1-2.4c0.1-0.2,0.2-0.3,0.7-0.2l0.9,0.1c0.4,0.1,0.5,0.2,0.5,0.5l-2.5,13c-0.1,0.3-0.2,0.4-0.5,0.4l-1-0.1
		c-0.4-0.1-0.7-0.2-0.6-0.6c0.4-2.7-0.5-11.5-7.6-11.5c-4.3,0-6.8,3.8-6.8,7.5c0,5.1,3,7.2,6.2,10.4c3.2,3.2,7.5,7,7.5,14.2
		c0,9.1-6.4,13.3-12.4,13.3c-4.4,0-7.3-2.5-10.1-5.2c-0.5-0.5-1.2-0.5-1.6,0.1c-0.4,0.5-1,1.6-1.4,2.6c-0.1,0.3-0.3,0.4-0.7,0.2
		l-0.9-0.3c-0.3-0.1-0.4-0.2-0.3-0.7L1190.9,787.7z"/>
	<path d="M1260.3,758.9c3.4,0,5.4-0.3,6.6-0.7c1.2-0.3,1.6-0.6,1.8-0.6c0.3,0,0.5,0.1,0.4,0.7c-0.1,1-0.8,10.8-0.6,13.6
		c0,0.4-0.1,0.5-0.5,0.5l-0.9,0.1c-0.6,0.1-0.8-0.1-0.9-0.9c-0.3-2.3-1.6-7.1-2.5-9.1c-1.9-0.8-8.2-1.4-10.5-1.4h-1.4l-11.3,35.6
		c-1.4,4.4-0.9,5.9,3,5.9h2.7c0.5,0,0.5,0.3,0.5,0.7l-0.3,1.3c-0.1,0.3-0.2,0.5-0.9,0.5c-1,0-3.7-0.2-10.3-0.2
		c-4.9,0-8.6,0.2-9.3,0.2c-0.5,0-0.6-0.2-0.5-0.7l0.2-1.3c0.1-0.3,0.2-0.5,0.8-0.5h1.9c4.1,0,5.4-1.9,7-7.1l11-34.4h-1.8
		c-6.7,0-10.4,0.8-12.4,1.4c-2.7,2.3-5.9,6.3-7,8.1c-0.2,0.3-0.5,0.3-0.9,0.2l-0.9-0.4c-0.3-0.1-0.3-0.4-0.1-0.7
		c0.8-1.6,5.1-11,5.2-11.4c0.1-0.4,0.2-0.7,0.5-0.7c0.8,0,2.3,1.3,11.2,1.3H1260.3z"/>
</g>
<g>
	<path d="M1393.2,658.8c-3.6,0-4.9-2.7-5.8-4.5c-1.2-2.3-3.9-8.7-7.3-16.3c-4.7-10.8-9.3-21.3-10.8-23.1c-0.7-0.9-1.6-1.2-2.4-1.2
		h-1.1c-0.3,0-0.3-0.2-0.3-0.6v-1.3c0-0.3,0-0.5,0.4-0.5c0.8,0,2.3,0.2,4.2,0.2c3.3,0,4.7-0.2,5.6-0.2c0.3,0,0.4,0.2,0.4,0.5v1.4
		c0,0.3-0.1,0.5-0.5,0.5h-1.1c-1,0-1.6,0.9-1.2,2.6c0.4,1.7,6.4,16,7.1,17.1h0.3c0.8-1.5,5.4-16.7,5.6-18.2c0.1-1-0.1-1.5-0.9-1.5
		h-1.3c-0.3,0-0.4-0.2-0.4-0.5v-1.4c0-0.3,0.1-0.5,0.6-0.5c0.8,0,2.9,0.2,6.4,0.2c4.1,0,5.7-0.2,6.3-0.2c0.5,0,0.5,0.2,0.5,0.5v1.4
		c0,0.4-0.1,0.6-0.5,0.6h-1.8c-1.8,0-2.4,1.2-3.2,2.9c-0.5,1.4-7.8,22.9-8.2,24.7c1,2.7,4.5,10.5,5.5,11.7c0.4,0.4,1,0.5,1.4,0.4
		c0.6-0.1,1.9-0.8,3.2-0.8c1.6,0,3.2,1.2,3.2,2.7C1397.1,657.4,1395.8,658.8,1393.2,658.8z"/>
	<path d="M1351.3,641c-8.4,0-15.2-7.6-15.2-15.1c0-4.5,1.6-8,4.7-11.2c2.1-2.1,5.8-4,9.6-4c2.3,0,5.6,0.5,9.2,3.3
		c4.1,3.2,5.9,7.6,5.9,11.1c0,4.9-0.6,7.4-3.8,11.2C1358.8,639.7,1354.6,641,1351.3,641z M1350.5,638.9c3.2,0,5.2-1.3,6.8-3.6
		c2.2-3.2,2.6-5.8,2.6-9.6c0-5.2-1-8-3.6-10.8c-1.6-1.8-3.4-2.2-5.3-2.2c-3.5,0-9.1,4.8-9.1,12.4
		C1341.9,632.5,1345.2,638.9,1350.5,638.9z"/>
	<path d="M1305.1,621.1c0-6.7-0.3-8.5-0.4-9.1c-0.1-0.3,0.2-0.7,0.6-0.7c0.2,0,0.5,0.1,0.8,0.1c0.3,0.1,0.7,0.1,1.2,0.1h6.4
		c0.7,0,0.8,0.1,0.8,0.6v1.2c0,0.3-0.3,0.5-1.5,0.5c-1.7,0.1-2.8,0.5-3,2.4v16.4c0,0.6,0.4,1.5,0.7,1.9c1.3,1.6,4.1,3.4,5.9,3.4
		s3.8-0.1,5.5-2.6c2.2-3.2,1.5-7.6,1.5-10.3V620c0-4.1-0.2-7.3-0.3-7.9c-0.1-0.5,0.3-0.8,0.8-0.8c0.2,0,0.5,0.1,0.8,0.1
		c0.3,0.1,0.5,0.1,1,0.1h6.1c0.6,0,0.8,0.1,0.8,0.5v1.2c0,0.3-0.3,0.4-1.5,0.5c-1.6,0.2-2.5,0.7-2.6,2.6v8c0,7.6,0.1,9.8-2.7,13.5
		c-2.3,3-4.5,3.2-6.5,3.2c-3.4,0-7.4-2.1-9.3-4.8h-0.1l-0.5,4c-0.1,0.7-0.3,0.8-0.6,0.8c-0.5,0-1-0.1-1.4-0.3l-7.2-2.4
		c-0.3-0.1-0.4-0.2-0.3-0.6l0.2-0.9c0.1-0.3,0.3-0.4,0.8-0.3c0.8,0.2,1.9,0.2,2.3,0.2c0.8,0,1.6-0.3,1.8-2.4
		c0.1-1.4,0.1-4.8,0.1-8.1V621.1z"/>
	<path d="M1407.1,696c0-3.8-0.2-18.1-0.3-21.8c-0.1-0.9,0.1-1.2,0.5-1.2c0.4,0,0.8,0.1,1.4,0.5c2.5,1.6,5.6,2.9,8,4
		c0.4,0.1,0.6,0.3,0.6,0.5v0.5c0,0.1-0.1,0.2-0.4,0.3l-1.4,0.5c-2.2,0.7-3.3,1.8-3.4,4.1c-0.1,1.8-0.2,8-0.2,12.9v4.3
		c0,4,0,15.8,0.1,17.9c0.1,1.2,0.8,1.7,1.5,1.7h3.3c0.8,0,0.9,0.1,0.9,0.6v1.2c0,0.4-0.1,0.7-0.5,0.7c-0.6,0-3.4-0.2-7.8-0.2
		c-4.3,0-7.3,0.2-7.8,0.2c-0.3,0-0.4-0.3-0.4-0.7v-1.2c0-0.4,0.1-0.6,0.8-0.6h3.1c1.4,0,1.7-1,1.8-2.1c0.1-2.1,0.1-12.5,0.1-16.1
		V696z"/>
	<path d="M1384.4,723.4c-8.4,0-15.2-7.6-15.2-15.1c0-4.5,1.6-8,4.7-11.2c2.1-2.1,5.8-4,9.6-4c2.3,0,5.6,0.5,9.2,3.3
		c4.1,3.2,5.9,7.6,5.9,11.1c0,4.9-0.6,7.4-3.8,11.2C1392,722.1,1387.7,723.4,1384.4,723.4z M1383.6,721.3c3.2,0,5.2-1.3,6.8-3.6
		c2.2-3.2,2.6-5.8,2.6-9.6c0-5.2-1-8-3.6-10.8c-1.6-1.8-3.4-2.2-5.3-2.2c-3.5,0-9.1,4.8-9.1,12.4
		C1375,714.9,1378.4,721.3,1383.6,721.3z"/>
	<path d="M1350.3,723.4c-8.4,0-15.2-7.6-15.2-15.1c0-4.5,1.6-8,4.7-11.2c2.1-2.1,5.8-4,9.6-4c2.3,0,5.6,0.5,9.2,3.3
		c4.1,3.2,5.9,7.6,5.9,11.1c0,4.9-0.6,7.4-3.8,11.2C1357.8,722.1,1353.5,723.4,1350.3,723.4z M1349.4,721.3c3.2,0,5.2-1.3,6.8-3.6
		c2.2-3.2,2.6-5.8,2.6-9.6c0-5.2-1-8-3.6-10.8c-1.6-1.8-3.4-2.2-5.3-2.2c-3.5,0-9.1,4.8-9.1,12.4
		C1340.8,714.9,1344.2,721.3,1349.4,721.3z"/>
	<path d="M1326.5,705.9c0,6,0.1,9.8,0.1,12.8c0,0.9,0.3,1.6,1.2,1.6h2.5c0.5,0,0.7,0.1,0.7,0.6v1.2c0,0.4-0.1,0.7-0.3,0.7
		c-0.5,0-2.9-0.2-6.6-0.2c-3.4,0-5.7,0.2-6.1,0.2c-0.4,0-0.5-0.2-0.5-0.8v-1.2c0-0.4,0.1-0.5,0.6-0.5h2c1,0,1.3-0.5,1.4-1.4
		c0.1-2.4,0.1-4.7,0.1-7.1v-3c-0.9,0-2.2,0.1-3,0.8c-1.1,1-8.9,9.3-9.1,9.9c-0.2,0.6,0.2,1.1,0.8,1.1h0.5c0.5,0,0.7,0.2,0.7,0.5v1.1
		c0,0.5-0.1,0.7-0.5,0.7c-0.5,0-3.4-0.2-7.5-0.2c-3.2,0-5.1,0.2-5.7,0.2c-0.5,0-0.6-0.2-0.6-0.6v-1.2c0-0.5,0.1-0.6,0.5-0.6
		c0.8,0,2.3-0.3,3.6-1c1.2-0.5,12.7-12.1,14.1-13.5c-2.3-2.3-8.1-7.6-9.1-8.2c-1.4-0.9-3.4-1.6-4.7-1.6h-0.5c-0.5,0-0.5-0.1-0.5-0.5
		v-1.2c0-0.5,0.1-0.7,0.4-0.7c0.5,0,2.2,0.2,5.6,0.2c3.5,0,6-0.2,6.4-0.2c0.3,0,0.5,0.2,0.5,0.5v1.3c0,0.4-0.1,0.6-0.5,0.6
		c-0.4,0-1.2,0-1.8,0.4c-0.4,0.3-0.4,0.8,0,1.6c0.5,0.8,6,6.8,7.3,7.7c0.7,0.5,2.4,0.8,3.3,0.8v-10.8c0-8.2,0-18.3-0.3-21.6
		c-0.1-0.8,0-1.2,0.4-1.2c0.4,0,0.9,0.3,1.5,0.5l7,3c0.7,0.3,0.9,0.4,0.9,0.7v0.6c0,0.2-0.2,0.3-1,0.5c-3.4,0.9-3.6,2.1-3.6,4.9
		V705.9z"/>
	<path d="M1428.2,766.9c-1.4-4.7-3-5.6-5.1-5.6h-1.8c-0.5,0-0.6-0.1-0.7-0.5l-0.3-1.4c-0.1-0.5,0.1-0.7,0.6-0.7
		c0.6,0,3.4,0.2,8.4,0.2c5,0,8.2-0.2,8.7-0.2c0.4,0,0.6,0.1,0.7,0.5l0.3,1.4c0.1,0.4-0.2,0.5-0.6,0.5h-2.3c-3.3,0-3.2,2-2.5,4.3
		l11.2,38.7c1.6,5.7,4.3,12.1,8,12.1c1.6,0,2.1-0.3,2.3-0.5c0.1-0.2,0.2-0.5,0-0.8c-0.3-0.4-0.4-1.2-0.4-1.7c0-1.2,1-2.9,3-2.9
		c1.9,0,3.1,1.6,3.1,3.6c0,1.4-1.4,4.6-6.6,4.6c-4.3,0-7.8-1.9-10.8-5.8c-2.6-3.4-5.1-10.2-6.5-15L1428.2,766.9z"/>
	<path d="M1376.1,764.4c-0.8-1.9-1.8-3.2-4-3.2h-1.4c-0.5,0-0.7-0.2-0.8-0.5l-0.2-1.3c-0.1-0.5,0-0.7,0.6-0.7c0.7,0,2.3,0.2,6.2,0.2
		c4.9,0,7.6-0.2,8.4-0.2c0.6,0,0.8,0.2,0.9,0.7l0.2,1.3c0.1,0.3,0,0.5-0.6,0.5h-2.6c-2.1,0-3.6,0.9-2.5,4.2l6,19.8
		c2.3,7.6,4.5,11.4,7.7,14.2c2.2,2,5.9,3.4,8.9,3.4c2.4,0,10.8-1,10.8-9.7c0-3.1-1.6-8.2-2-9.7l-5.6-18.3c-1.1-3.6-2.7-3.9-4.4-3.9
		h-2.2c-0.4,0-0.6-0.2-0.7-0.5l-0.3-1.3c-0.1-0.5,0.1-0.7,0.6-0.7c0.7,0,3,0.2,8.6,0.2c4.9,0,7.3-0.2,8.2-0.2c0.7,0,0.8,0.1,0.9,0.5
		l0.3,1.4c0.1,0.4-0.1,0.5-0.5,0.5h-2.5c-2.2,0-3,1.2-1.9,4.3l5.8,19.3c0.4,1.4,1.4,5.7,1.4,8.6c0,8.5-6.8,12.6-16,12.6
		c-10.8,0-16.9-7.5-20.8-20.2L1376.1,764.4z"/>
	<path d="M1374.2,802.7c0.1,0.5,0.1,0.5-0.3,0.7l-0.9,0.3c-0.4,0.2-0.5,0.1-0.7-0.2c-0.5-1-1-2.1-1.4-2.6c-0.4-0.6-1-0.7-1.6-0.1
		c-2.7,2.7-5.7,5.2-10.1,5.2c-6,0-12.4-4.2-12.4-13.3c0-7.2,4.3-11.1,7.5-14.2c3.2-3.2,6.2-5.3,6.2-10.4c0-3.7-2.5-7.5-6.8-7.5
		c-7.1,0-8,8.7-7.6,11.5c0.1,0.4-0.2,0.5-0.6,0.6l-1,0.1c-0.3,0-0.5-0.1-0.5-0.4l-2.5-13c-0.1-0.3,0.1-0.4,0.5-0.5l0.9-0.1
		c0.5-0.1,0.6,0,0.7,0.2c0.3,1.4,0.5,2.4,1.1,2.4c0.4,0,0.6-0.1,1-0.3c1.1-0.8,4.3-3.1,8.1-3.1c7.8,0,11.7,7.1,11.7,12.1
		c0,6.5-3.4,10-7.6,14.6c-3,3.3-6.4,6-6.4,10.6s3.6,8.1,8,8.1c4.3,0,10.4-4.7,7.9-14.9c-0.1-0.5,0.1-0.6,0.5-0.8l0.7-0.2
		c0.4-0.1,0.6-0.1,0.8,0.3L1374.2,802.7z"/>
	<path d="M1320.2,758.9c8.9,0,10.4-1.3,11.2-1.3c0.3,0,0.4,0.3,0.5,0.7c0.1,0.4,4.4,9.8,5.2,11.4c0.1,0.3,0.1,0.5-0.1,0.7l-0.9,0.4
		c-0.4,0.1-0.7,0.1-0.9-0.2c-1.1-1.8-4.3-5.8-7-8.1c-2-0.6-5.7-1.4-12.4-1.4h-1.8l11,34.4c1.6,5.2,2.9,7.1,7,7.1h1.9
		c0.5,0,0.7,0.2,0.8,0.5l0.2,1.3c0.1,0.5,0,0.7-0.5,0.7c-0.8,0-4.4-0.2-9.3-0.2c-6.6,0-9.3,0.2-10.3,0.2c-0.7,0-0.8-0.2-0.9-0.5
		l-0.3-1.3c-0.1-0.3,0-0.7,0.5-0.7h2.7c3.8,0,4.3-1.5,3-5.9l-11.3-35.6h-1.4c-2.3,0-8.6,0.7-10.5,1.4c-1,2-2.2,6.8-2.5,9.1
		c-0.1,0.8-0.3,1-0.9,0.9l-0.9-0.1c-0.4-0.1-0.5-0.1-0.5-0.5c0.2-2.7-0.5-12.6-0.6-13.6c-0.1-0.5,0.1-0.7,0.4-0.7
		c0.1,0,0.6,0.3,1.8,0.6c1.2,0.3,3.2,0.7,6.6,0.7H1320.2z"/>
</g>
</svg>
