<?xml version="1.0" encoding="utf-8"?>
<!-- Generator: Adobe Illustrator 19.2.1, SVG Export Plug-In . SVG Version: 6.00 Build 0)  -->
<svg version="1.1" id="Layer_1" xmlns="http://www.w3.org/2000/svg" xmlns:xlink="http://www.w3.org/1999/xlink" x="0px" y="0px"
	 viewBox="0 0 2560 1600" style="enable-background:new 0 0 2560 1600;" xml:space="preserve">
<g>
	<path d="M1146.4,655.3c0-1.4,1.5-2.7,3.2-2.7c1.3,0,2.5,0.6,3.2,0.8c0.5,0.1,1,0,1.4-0.4c1-1.2,4.5-9.1,5.5-11.7
		c-0.3-1.7-7.6-23.2-8.2-24.7c-0.8-1.7-1.4-2.9-3.2-2.9h-1.8c-0.5,0-0.5-0.2-0.5-0.6v-1.4c0-0.3,0.1-0.5,0.5-0.5
		c0.6,0,2.3,0.2,6.3,0.2c3.5,0,5.6-0.2,6.4-0.2c0.5,0,0.6,0.2,0.6,0.5v1.4c0,0.3-0.1,0.5-0.4,0.5h-1.3c-0.8,0-1,0.5-0.9,1.5
		c0.2,1.5,4.9,16.7,5.6,18.2h0.3c0.7-1.1,6.7-15.4,7.1-17.1s-0.1-2.6-1.2-2.6h-1.1c-0.4,0-0.5-0.2-0.5-0.5v-1.4
		c0-0.3,0.1-0.5,0.4-0.5c0.9,0,2.3,0.2,5.6,0.2c1.9,0,3.4-0.2,4.2-0.2c0.4,0,0.4,0.3,0.4,0.5v1.3c0,0.4,0,0.6-0.3,0.6h-1.1
		c-0.8,0-1.7,0.3-2.4,1.2c-1.5,1.9-6,12.4-10.8,23.1c-3.4,7.6-6,14-7.3,16.3c-1,1.8-2.2,4.5-5.8,4.5
		C1147.7,658.8,1146.4,657.4,1146.4,655.3z"/>
	<path d="M1181.8,636.2c-3.2-3.8-3.8-6.3-3.8-11.2c0-3.5,1.9-7.9,5.9-11.1c3.6-2.7,6.9-3.3,9.2-3.3c3.8,0,7.6,1.9,9.6,4
		c3.1,3.2,4.7,6.7,4.7,11.2c0,7.5-6.7,15.1-15.2,15.1C1188.9,641,1184.7,639.7,1181.8,636.2z M1201.6,625.2c0-7.6-5.6-12.4-9.1-12.4
		c-1.9,0-3.6,0.4-5.3,2.2c-2.7,2.7-3.6,5.6-3.6,10.8c0,3.8,0.4,6.5,2.6,9.6c1.6,2.3,3.6,3.6,6.8,3.6
		C1198.3,638.9,1201.6,632.5,1201.6,625.2z"/>
	<path d="M1226,639.7c-4.7-1.9-7.1-4.9-8.2-9.2c-0.8-3.1-1.1-7.7-1.1-16.7v-16.3c0-2.4-0.5-3.5-2.6-3.5h-3.2c-0.4,0-0.5-0.1-0.5-0.6
		v-1.5c0-0.4,0.1-0.5,0.6-0.5c0.7,0,4.1,0.2,9.4,0.2s8.7-0.2,9.4-0.2c0.5,0,0.6,0.1,0.6,0.4v1.8c0,0.3-0.1,0.5-0.5,0.5h-3.4
		c-2,0-3.2,1.3-3.3,2.8c-0.1,0.6-0.1,5.4-0.1,8.9v4.5c0,3.6,0.3,12.4,0.3,14.6c0.1,3.2,0.6,6.4,2.2,8.7c2.5,3.7,6.9,4.9,10.9,4.9
		c3.9,0,7.9-1.3,10.3-3.8c2.7-2.9,3.6-7,3.6-12.1v-14.7c0-5.2-0.1-9.2-0.3-10.9c-0.2-1.8-1.3-3-3.1-3h-3c-0.4,0-0.5-0.2-0.5-0.5
		v-1.6c0-0.3,0.1-0.5,0.5-0.5c0.7,0,3.8,0.2,8.4,0.2c4.7,0,6.9-0.2,7.6-0.2c0.6,0,0.7,0.3,0.7,0.5v1.5c0,0.4-0.1,0.7-0.4,0.7h-2.8
		c-2.5,0-2.7,1.9-3,2.7c-0.1,0.7-0.1,10.4-0.1,11.4c0,1-0.1,13-0.3,15.7c-0.4,5.6-1.9,10-5.8,13.3c-2.7,2.5-6.9,4.1-12.9,4.1
		C1231.7,641.2,1228.2,640.7,1226,639.7z"/>
</g>
<g>
	<path d="M1409.6,658.8c-3.6,0-4.9-2.7-5.8-4.5c-1.2-2.3-3.9-8.7-7.3-16.3c-4.7-10.8-9.3-21.3-10.8-23.1c-0.7-0.9-1.6-1.2-2.4-1.2
		h-1.1c-0.3,0-0.3-0.2-0.3-0.6v-1.3c0-0.3,0-0.5,0.4-0.5c0.8,0,2.3,0.2,4.2,0.2c3.3,0,4.7-0.2,5.6-0.2c0.3,0,0.4,0.2,0.4,0.5v1.4
		c0,0.3-0.1,0.5-0.5,0.5h-1.1c-1,0-1.6,0.9-1.2,2.6s6.4,16,7.1,17.1h0.3c0.8-1.5,5.4-16.7,5.6-18.2c0.1-1-0.1-1.5-0.9-1.5h-1.3
		c-0.3,0-0.4-0.2-0.4-0.5v-1.4c0-0.3,0.1-0.5,0.6-0.5c0.8,0,2.9,0.2,6.4,0.2c4.1,0,5.7-0.2,6.3-0.2c0.5,0,0.5,0.2,0.5,0.5v1.4
		c0,0.4-0.1,0.6-0.5,0.6h-1.8c-1.8,0-2.4,1.2-3.2,2.9c-0.5,1.4-7.8,22.9-8.2,24.7c1,2.7,4.5,10.5,5.5,11.7c0.4,0.4,1,0.5,1.4,0.4
		c0.6-0.1,1.9-0.8,3.2-0.8c1.6,0,3.2,1.2,3.2,2.7C1413.6,657.4,1412.3,658.8,1409.6,658.8z"/>
	<path d="M1367.8,641c-8.4,0-15.2-7.6-15.2-15.1c0-4.5,1.6-8,4.7-11.2c2.1-2.1,5.8-4,9.6-4c2.3,0,5.6,0.5,9.2,3.3
		c4.1,3.2,5.9,7.6,5.9,11.1c0,4.9-0.6,7.4-3.8,11.2C1375.3,639.7,1371.1,641,1367.8,641z M1366.9,638.9c3.2,0,5.2-1.3,6.8-3.6
		c2.2-3.2,2.6-5.8,2.6-9.6c0-5.2-1-8-3.6-10.8c-1.6-1.8-3.4-2.2-5.3-2.2c-3.5,0-9.1,4.8-9.1,12.4
		C1358.4,632.5,1361.7,638.9,1366.9,638.9z"/>
	<path d="M1324.8,641.2c-6,0-10.2-1.6-12.9-4.1c-3.8-3.3-5.4-7.6-5.8-13.3c-0.2-2.7-0.3-14.7-0.3-15.7c0-1,0-10.7-0.1-11.4
		c-0.2-0.8-0.4-2.7-3-2.7h-2.8c-0.3,0-0.4-0.3-0.4-0.7v-1.5c0-0.2,0.1-0.5,0.7-0.5c0.6,0,2.8,0.2,7.6,0.2c4.6,0,7.8-0.2,8.4-0.2
		c0.4,0,0.5,0.1,0.5,0.5v1.6c0,0.3-0.1,0.5-0.5,0.5h-3c-1.8,0-2.9,1.2-3.1,3c-0.2,1.7-0.3,5.7-0.3,10.9v14.7c0,5.1,0.9,9.2,3.6,12.1
		c2.4,2.5,6.4,3.8,10.3,3.8c4,0,8.4-1.2,10.9-4.9c1.6-2.3,2.1-5.6,2.2-8.7c0.1-2.2,0.3-10.9,0.3-14.6v-4.5c0-3.5-0.1-8.3-0.1-8.9
		c-0.1-1.5-1.3-2.8-3.3-2.8h-3.4c-0.5,0-0.5-0.1-0.5-0.5v-1.8c0-0.3,0.1-0.4,0.6-0.4c0.8,0,4.1,0.2,9.4,0.2s8.7-0.2,9.4-0.2
		c0.5,0,0.6,0.1,0.6,0.5v1.5c0,0.5-0.1,0.6-0.5,0.6h-3.2c-2.1,0-2.6,1.1-2.6,3.5v16.3c0,9-0.3,13.6-1.1,16.7
		c-1.1,4.3-3.5,7.3-8.2,9.2C1331.8,640.7,1328.3,641.2,1324.8,641.2z"/>
</g>
</svg>
