<svg id="Layer_1" data-name="Layer 1" xmlns="http://www.w3.org/2000/svg" viewBox="0 0 2560 1600"><defs><style>.cls-1{fill:#231f20;}</style></defs><title>thingsithought4</title><path class="cls-1" d="M1118.5,201.36c0,5.15,2.33,6,3.57,6a9.87,9.87,0,0,0,4.53-.89,0.56,0.56,0,0,1,.82.14l0.34,0.62a0.55,0.55,0,0,1-.14.75,11.55,11.55,0,0,1-7.62,2.75c-3.36,0-6.66-3.23-6.66-5.84,0-2.82.21-8.86,0.21-9.82V193.6c0-1.24.07-5.91,0.14-8.79h-4.19a0.86,0.86,0,0,1-1-.82c0-.55.41-0.76,1.24-1.24,1.65-1,6.94-6.25,7.83-8.58a0.92,0.92,0,0,1,1-.69c0.55,0,.69.48,0.69,1l-0.34,6.73h9.54a0.45,0.45,0,0,1,.48.62l-0.69,2.4a0.56,0.56,0,0,1-.62.55h-8.86c-0.14,3.16-.21,6.52-0.21,9.68v6.87Z"/><path class="cls-1" d="M1135.52,172.52c0-4.19-.82-4.94-3.3-5.77l-1.17-.41c-0.41-.14-0.48-0.21-0.48-0.41v-0.62c0-.27.21-0.34,0.82-0.69l7.14-3.78a3.63,3.63,0,0,1,1.58-.55c0.41,0,.69.55,0.55,1.72s-0.21,15.11-.21,18.54V185h0.34a13.1,13.1,0,0,1,9.41-4.46,9,9,0,0,1,6.8,2.75c3.09,2.88,3,6.39,3,10.09v3.91c0,3.85.14,8.1,0.14,9.41,0,0.82,1.1,1,2.54,1h1.17c0.55,0,.76.14,0.76,0.62v1c0,0.55-.14.82-0.55,0.82s-2.68-.21-6.59-0.21c-3.36,0-5.84.21-6.45,0.21s-0.62-.21-0.62-0.76v-1.17c0-.34.07-0.55,0.48-0.55h1.58c1.17,0,2.54-.14,2.61-1.3,0.07-1,0-4.6,0-6.8V194c0-3.84-.27-6.59-2.27-8.45a6.3,6.3,0,0,0-4.53-1.92,8.38,8.38,0,0,0-6.39,2.88,6,6,0,0,0-1.37,3.37v15c0,2.2.21,2.82,1.51,2.82H1144c0.48,0,.76.14,0.76,0.55v1.17c0,0.48-.14.76-0.55,0.76s-3.36-.21-6.52-0.21c-3.43,0-6,.21-6.66.21-0.27,0-.48-0.21-0.48-0.69v-1.24c0-.48.27-0.55,1-0.55h1.44c1.1,0,2.13-.28,2.27-1.1,0.21-1.3.21-8.86,0.21-13.32V172.52Z"/><path class="cls-1" d="M1173.7,191.68a17.63,17.63,0,0,0-.21,3.3c0,6.73,4.26,11.81,9.75,11.81a9.3,9.3,0,0,0,8.31-4.67,0.56,0.56,0,0,1,.62-0.34l0.89,0.48c0.21,0.07.34,0.27,0,1-1.24,2.75-4.81,7.48-10.92,7.48-3.91,0-8.24-1.17-10.78-4.87-2.4-3.5-3-6-3-10.85a15.46,15.46,0,0,1,4.33-10.92c3-3,6.39-3.64,9.82-3.64,7.9,0,10.09,7.42,10.09,10.09,0,1-.82,1.1-1.92,1.1h-17Zm10.92-2.06c1.3,0,1.85-.34,1.85-1,0-1.58-.82-6.11-5.29-6.11-3,0-5.91,2-7.21,7.07h10.64Z"/><path class="cls-1" d="M1199.52,208.78a1.25,1.25,0,0,1-.41-1l-1.17-6.52a0.44,0.44,0,0,1,.41-0.55l0.89-.21a0.51,0.51,0,0,1,.62.41l1.72,3.36c1.37,2.54,2.33,4.26,6,4.26,2.4,0,5.42-1.44,5.42-4.67s-1.51-4.88-6.66-6.32c-4.05-1.17-8.1-3.3-8.1-8.72,0-4.74,4.46-8.38,9.61-8.38a12.79,12.79,0,0,1,6.32,1.44c1,0.48,1.17.82,1.24,1.24l1,4.81a0.64,0.64,0,0,1-.48.62l-0.82.27a0.49,0.49,0,0,1-.62-0.34l-2.33-3.16a5.25,5.25,0,0,0-4.81-2.68c-2.61,0-5.29,1.58-5.29,4.53,0,4,3.23,4.74,6.59,5.7,5,1.44,8.17,3.5,8.24,8.79-0.07,5.56-4.6,9.06-10.44,9.06A12.93,12.93,0,0,1,1199.52,208.78Z"/><path class="cls-1" d="M1227.4,191.68a17.63,17.63,0,0,0-.21,3.3c0,6.73,4.26,11.81,9.75,11.81a9.3,9.3,0,0,0,8.31-4.67,0.56,0.56,0,0,1,.62-0.34l0.89,0.48c0.21,0.07.34,0.27,0,1-1.24,2.75-4.81,7.48-10.92,7.48-3.91,0-8.24-1.17-10.78-4.87-2.4-3.5-3-6-3-10.85a15.46,15.46,0,0,1,4.33-10.92c3-3,6.39-3.64,9.82-3.64,7.9,0,10.09,7.42,10.09,10.09,0,1-.82,1.1-1.92,1.1h-17Zm10.92-2.06c1.3,0,1.85-.34,1.85-1,0-1.58-.82-6.11-5.29-6.11-3,0-5.91,2-7.21,7.07h10.64Z"/><path class="cls-1" d="M1291.33,206.92a3.16,3.16,0,0,0,2.4-1c0.27-.34.41-0.48,0.69-0.28l0.69,0.55a0.91,0.91,0,0,1-.07,1.24,5.67,5.67,0,0,1-5.36,3.37c-2.47,0-4.26-1.79-4.88-4.6h-0.14a14.8,14.8,0,0,1-6.8,4.19,12.9,12.9,0,0,1-4.05.41c-1.65,0-4.12-1.37-4.12-5.7,0-3.16,1.44-5.91,6.87-8.31,3.09-1.37,6.66-3,7.76-4v-4.39c-0.14-1.17-.21-3-1-3.85a5.22,5.22,0,0,0-4.12-1.51,7.69,7.69,0,0,0-4.46,1.44c-1,.89-0.34,1.92-0.34,3.16,0,2.4-.82,3.91-3.64,3.91-1.1,0-1.65-.62-1.65-2.2,0-2.2,1.92-4.81,4.74-6.45a15.14,15.14,0,0,1,8.38-2.4c3.23,0,4.53,1,5.49,1.85,1.44,1.44,1.51,3,1.51,4.88v14.56C1289.27,205.69,1290.09,206.92,1291.33,206.92Zm-7.07-12.08c-2.47,1.85-9.2,3.23-9.2,8.93,0,2.54,1.51,3.78,3.57,3.78s5.63-2.4,5.63-4.26v-8.45Z"/><path class="cls-1" d="M1302.18,191.68c0-3.5-.55-4.19-2.47-5.22l-1.3-.69c-0.41-.14-0.55-0.21-0.55-0.48v-0.41a0.69,0.69,0,0,1,.55-0.62l6.8-3.5a2.07,2.07,0,0,1,1-.27c0.41,0,.48.41,0.48,0.82l0.34,4.88h0.27c2.06-3.16,5.29-6,8.24-6,2.33,0,3.5,1.44,3.5,3a3.32,3.32,0,0,1-2.88,3.37,4.49,4.49,0,0,1-2-.55,4.43,4.43,0,0,0-2.27-.55,4.87,4.87,0,0,0-4.05,2.88,7.4,7.4,0,0,0-.69,2.2v14.28c0,2.13.48,2.82,1.92,2.82h3.23c0.41,0,.48.21,0.48,0.62v1.24c0,0.41-.07.62-0.34,0.62s-3.57-.21-7.28-0.21c-4.26,0-7.14.21-7.55,0.21s-0.41-.14-0.41-0.69V208.3c0-.48.14-0.62,0.76-0.62h2.68c1,0,1.51-.41,1.51-1.3,0.07-2.27.07-4.67,0.07-8.24v-6.45Z"/><path class="cls-1" d="M1326.14,191.68a17.65,17.65,0,0,0-.21,3.3c0,6.73,4.26,11.81,9.75,11.81a9.3,9.3,0,0,0,8.31-4.67,0.56,0.56,0,0,1,.62-0.34l0.89,0.48c0.21,0.07.34,0.27,0,1-1.24,2.75-4.81,7.48-10.92,7.48-3.91,0-8.24-1.17-10.78-4.87-2.4-3.5-3-6-3-10.85a15.45,15.45,0,0,1,4.33-10.92c3-3,6.39-3.64,9.82-3.64,7.9,0,10.09,7.42,10.09,10.09,0,1-.82,1.1-1.92,1.1h-17Zm10.92-2.06c1.3,0,1.85-.34,1.85-1,0-1.58-.82-6.11-5.29-6.11-3,0-5.91,2-7.21,7.07h10.64Z"/><path class="cls-1" d="M1376.55,201.36c0,5.15,2.33,6,3.57,6a9.87,9.87,0,0,0,4.53-.89,0.56,0.56,0,0,1,.82.14l0.34,0.62a0.55,0.55,0,0,1-.14.75,11.55,11.55,0,0,1-7.62,2.75c-3.36,0-6.66-3.23-6.66-5.84,0-2.82.21-8.86,0.21-9.82V193.6c0-1.24.07-5.91,0.14-8.79h-4.19a0.86,0.86,0,0,1-1-.82c0-.55.41-0.76,1.24-1.24,1.65-1,6.94-6.25,7.83-8.58a0.92,0.92,0,0,1,1-.69c0.55,0,.69.48,0.69,1l-0.34,6.73h9.54a0.45,0.45,0,0,1,.48.62l-0.69,2.4a0.56,0.56,0,0,1-.62.55h-8.86c-0.14,3.16-.21,6.52-0.21,9.68v6.87Z"/><path class="cls-1" d="M1393.57,172.52c0-4.19-.82-4.94-3.3-5.77l-1.17-.41c-0.41-.14-0.48-0.21-0.48-0.41v-0.62c0-.27.21-0.34,0.82-0.69l7.14-3.78a3.63,3.63,0,0,1,1.58-.55c0.41,0,.69.55,0.55,1.72s-0.21,15.11-.21,18.54V185h0.34a13.1,13.1,0,0,1,9.41-4.46,9,9,0,0,1,6.8,2.75c3.09,2.88,3,6.39,3,10.09v3.91c0,3.85.14,8.1,0.14,9.41,0,0.82,1.1,1,2.54,1h1.17c0.55,0,.76.14,0.76,0.62v1c0,0.55-.14.82-0.55,0.82s-2.68-.21-6.59-0.21c-3.36,0-5.84.21-6.45,0.21s-0.62-.21-0.62-0.76v-1.17c0-.34.07-0.55,0.48-0.55h1.58c1.17,0,2.54-.14,2.61-1.3,0.07-1,0-4.6,0-6.8V194c0-3.84-.27-6.59-2.27-8.45a6.3,6.3,0,0,0-4.53-1.92,8.38,8.38,0,0,0-6.39,2.88,6,6,0,0,0-1.37,3.37v15c0,2.2.21,2.82,1.51,2.82h2.06c0.48,0,.76.14,0.76,0.55v1.17c0,0.48-.14.76-0.55,0.76s-3.36-.21-6.52-0.21c-3.43,0-6,.21-6.66.21-0.27,0-.48-0.21-0.48-0.69v-1.24c0-.48.27-0.55,1-0.55h1.44c1.1,0,2.13-.28,2.27-1.1,0.21-1.3.21-8.86,0.21-13.32V172.52Z"/><path class="cls-1" d="M1431.75,191.68a17.62,17.62,0,0,0-.21,3.3c0,6.73,4.26,11.81,9.75,11.81a9.3,9.3,0,0,0,8.31-4.67,0.56,0.56,0,0,1,.62-0.34l0.89,0.48c0.21,0.07.34,0.27,0,1-1.24,2.75-4.81,7.48-10.92,7.48-3.91,0-8.24-1.17-10.78-4.87-2.4-3.5-3-6-3-10.85a15.46,15.46,0,0,1,4.33-10.92c3-3,6.39-3.64,9.82-3.64,7.9,0,10.09,7.42,10.09,10.09,0,1-.82,1.1-1.92,1.1h-17Zm10.92-2.06c1.3,0,1.85-.34,1.85-1,0-1.58-.82-6.11-5.29-6.11-3,0-5.91,2-7.21,7.07h10.64Z"/><path class="cls-1" d="M1213.22,265.77h-4.81c-0.41,0-.55-0.14-0.41-0.55l0.55-1.51a0.69,0.69,0,0,1,.76-0.48h4.94l3.57-8a1.62,1.62,0,0,1,1.1-1,26.4,26.4,0,0,0,3.09-1.17,2.9,2.9,0,0,1,1-.41c0.41,0,.55.41,0.07,1.37l-4.53,9.2h7c0.34,0,.48.21,0.27,0.76l-0.62,1.44a0.64,0.64,0,0,1-.62.34h-7L1211,281.22a18.25,18.25,0,0,0-1.58,4.39c0,0.76.27,1.17,0.89,1.17,2,0,6.45-3.91,6.87-4.39,0.21-.28.41-0.21,0.62,0l0.76,0.82a0.43,0.43,0,0,1,.07.62c-0.89,1.1-7.28,6.8-12.57,6.8-1.72,0-2.2-.69-2.2-1.65a9.2,9.2,0,0,1,.76-3.23Z"/><path class="cls-1" d="M1224.62,289.94c-0.41,0-.55-0.21-0.48-0.34l15.72-38.93a8.69,8.69,0,0,0,.89-3.36c0-.82-1-1.37-2.27-1.37h-2.13c-0.41,0-.76-0.21-0.62-0.62l0.34-1.17a0.65,0.65,0,0,1,.76-0.55h9.27a0.7,0.7,0,0,1,.82.82,8,8,0,0,1-.62,2.06l-10.78,25.27,0.34,0.27c3.43-4.87,8-10.64,13.6-10.64,3.16,0,4.74,2.61,4.74,5.77,0,5.56-2.33,11.47-4.74,15.93-2.75,5.15-6.45,9.06-10.3,9.06a3.31,3.31,0,0,1-3.5-3c0-1.58,1-3.37,2.47-3.37a2.46,2.46,0,0,1,2.4,2.06,1.35,1.35,0,0,0,1.17,1.37c1.51,0,3.78-4.46,5.08-8a40.38,40.38,0,0,0,2.75-12.43c0-1.72-.14-3.84-2.06-3.84-3.64,0-9.68,7.14-11.54,9.48a32.89,32.89,0,0,0-4.53,8l-2.88,7a0.83,0.83,0,0,1-1,.48h-3Z"/><path class="cls-1" d="M1259.71,288.91c0-1.58,1.17-4.74,4.05-12.43l2-5.36a16.11,16.11,0,0,0,1.24-4.05,0.85,0.85,0,0,0-1-.89c-1.17,0-4.39,3.71-5.49,4.81a0.49,0.49,0,0,1-.76.07l-0.55-.62c-0.27-.21-0.41-0.34-0.21-0.62s7.28-8.65,11.67-8.45a1.6,1.6,0,0,1,1.65,1.72c0,1.24-1.1,4.33-2.33,7.62l-4,10.44a16.73,16.73,0,0,0-1.24,4.53,1,1,0,0,0,.76,1.17c1.44-.27,5.15-4.19,5.49-4.81,0.14-.21.41-0.21,0.76,0.14l0.55,0.48a0.58,0.58,0,0,1,.14.82c-0.41.55-5.91,7.14-11.6,7.14C1260.19,290.56,1259.71,290,1259.71,288.91Zm8.65-40a3.43,3.43,0,0,1,3.57-3.43,3.38,3.38,0,0,1,3.64,3.3,3.52,3.52,0,0,1-3.64,3.43A3.36,3.36,0,0,1,1268.36,248.88Z"/><path class="cls-1" d="M1279.21,289.94c-0.76,0-.89-0.14-0.76-0.62l4.88-12.7c1.65-4.26,3.57-9.2,3.57-10.37a1,1,0,0,0-1-1.17c-1.3,0-4.6,3.3-5.77,4.6-0.21.21-.41,0.21-0.69-0.07l-0.62-.62c-0.27-.28-0.34-0.41-0.14-0.69,1-1.24,6.11-6.94,11.06-6.94a2,2,0,0,1,2.2,2.06c0,2.13-3,8.65-3.5,10.23l0.27,0.14c2.06-3.3,9.54-12.43,15.66-12.43,2.06,0,3.43,1,3.43,2.82,0,3-1.58,6.59-3.85,12.15-1.85,4.53-3.5,8.38-3.5,9.48a0.85,0.85,0,0,0,.82.89c1,0,4.05-2.54,4.94-3.5a0.5,0.5,0,0,1,.76.14l0.48,0.55c0.27,0.27.34,0.41,0.07,0.75-0.82,1.1-6.39,6-11,6a1.38,1.38,0,0,1-1.65-1.37c0-1.3,2.47-6.73,4.6-12.63,1-2.68,3.43-8.38,3.43-9.89a1.46,1.46,0,0,0-1.72-1.58c-2.68,0-9.48,6.32-12.5,11.19a39.92,39.92,0,0,0-4.12,8.58l-1.72,4.6c-0.14.27-.27,0.41-1,0.41h-2.68Z"/><path class="cls-1" d="M1306.33,301.34c0-5.08,8.24-8.45,11.6-9.89-2-1.44-2.61-2.68-2.61-4s1.24-2.47,5.84-5.08a8,8,0,0,1-5.36-7.9c0-5.15,4.53-13.12,12.15-13.12a6.69,6.69,0,0,1,5.84,3.23,9.65,9.65,0,0,1,5.84-2.54,2.73,2.73,0,0,1,2.88,2.68,2.08,2.08,0,0,1-2.2,2.13,2.63,2.63,0,0,1-2.27-1,1.93,1.93,0,0,0-1.3-.48,2.9,2.9,0,0,0-2,1,15.69,15.69,0,0,1,.55,3.84c0,3.3-1.92,11-9.82,12.36a7.83,7.83,0,0,0-2.06.48c-1.3.55-3.57,2.13-3.57,3.3a2.67,2.67,0,0,0,1.17,1.85c1.17,0.82,4.46,2.88,8.93,5.84,4,2.61,5.08,4.88,5.08,7.42,0,1.1-1.17,8.93-14.63,8.93C1313.27,310.34,1306.33,306.29,1306.33,301.34Zm15.45,6.87c4.67,0,8.58-1.65,8.58-5.49,0-3-2.88-4.87-4.6-6l-6-3.91c-5.63,2.27-8.65,4.88-8.65,8.1C1311.07,305.6,1317.18,308.21,1321.78,308.21Zm9.13-40.51c0-3.16-1.24-4.6-3.09-4.6-4.12,0-7.62,8-7.62,13.18,0,3.09,1.17,4.67,3.23,4.67C1328.44,280.95,1330.92,272.64,1330.92,267.7Z"/><path class="cls-1" d="M1339.71,286.79a2.39,2.39,0,0,1,2.33-2.27,3,3,0,0,1,2.82,2.2c0.41,1.17.76,1.92,2.47,1.92a4.06,4.06,0,0,0,3.85-4.19c0-3-2.06-5.77-3-8-0.48-1.17-2.06-3.57-2-6.73a8.89,8.89,0,0,1,8.65-8.38c2.06,0,4.88.82,4.88,3.5a2.25,2.25,0,0,1-2.13,2.2,2.56,2.56,0,0,1-2.33-1.65c-0.34-.82-0.41-1.92-1.79-1.92s-3.36,1.85-3.36,4.33,2.06,5.42,2.47,6.39,2.61,4.19,2.61,7.83c0,5.36-4.33,8.58-9.06,8.58C1342.18,290.63,1339.71,289.05,1339.71,286.79Z"/><path class="cls-1" d="M1275.3,368.91c0-1.58,1.17-4.74,4.05-12.43l2-5.36a16.11,16.11,0,0,0,1.24-4.05,0.85,0.85,0,0,0-1-.89c-1.17,0-4.39,3.71-5.49,4.81a0.49,0.49,0,0,1-.76.07l-0.55-.62c-0.27-.21-0.41-0.34-0.21-0.62s7.28-8.65,11.67-8.45a1.6,1.6,0,0,1,1.65,1.72c0,1.24-1.1,4.33-2.33,7.62l-4,10.44a16.73,16.73,0,0,0-1.24,4.53,1,1,0,0,0,.76,1.17c1.44-.27,5.15-4.19,5.49-4.81,0.14-.21.41-0.21,0.76,0.14l0.55,0.48a0.58,0.58,0,0,1,.14.82c-0.41.55-5.91,7.14-11.6,7.14C1275.78,370.56,1275.3,370,1275.3,368.91Zm8.65-40a3.43,3.43,0,0,1,3.57-3.43,3.38,3.38,0,0,1,3.64,3.3,3.52,3.52,0,0,1-3.64,3.43A3.36,3.36,0,0,1,1283.95,328.88Z"/><path class="cls-1" d="M1193.58,425.77h-4.81c-0.41,0-.55-0.14-0.41-0.55l0.55-1.51a0.69,0.69,0,0,1,.76-0.48h4.94l3.57-8a1.62,1.62,0,0,1,1.1-1,26.41,26.41,0,0,0,3.09-1.17,2.9,2.9,0,0,1,1-.41c0.41,0,.55.41,0.07,1.37l-4.53,9.2h7c0.34,0,.48.21,0.27,0.76l-0.62,1.44a0.64,0.64,0,0,1-.62.34h-7l-6.66,15.45a18.25,18.25,0,0,0-1.58,4.39c0,0.76.27,1.17,0.89,1.17,2,0,6.45-3.91,6.87-4.39,0.21-.28.41-0.21,0.62,0l0.76,0.82a0.43,0.43,0,0,1,.07.62c-0.89,1.1-7.28,6.8-12.57,6.8-1.72,0-2.2-.69-2.2-1.65a9.2,9.2,0,0,1,.76-3.23Z"/><path class="cls-1" d="M1205,449.94c-0.41,0-.55-0.21-0.48-0.34l15.72-38.93a8.69,8.69,0,0,0,.89-3.36c0-.82-1-1.37-2.27-1.37h-2.13c-0.41,0-.76-0.21-0.62-0.62l0.34-1.17a0.65,0.65,0,0,1,.76-0.55h9.27a0.7,0.7,0,0,1,.82.82,8,8,0,0,1-.62,2.06l-10.78,25.27,0.34,0.27c3.43-4.87,8-10.64,13.6-10.64,3.16,0,4.74,2.61,4.74,5.77,0,5.56-2.33,11.47-4.74,15.93-2.75,5.15-6.45,9.06-10.3,9.06a3.31,3.31,0,0,1-3.5-3c0-1.58,1-3.37,2.47-3.37a2.46,2.46,0,0,1,2.4,2.06,1.35,1.35,0,0,0,1.17,1.37c1.51,0,3.78-4.46,5.08-8a40.39,40.39,0,0,0,2.75-12.43c0-1.72-.14-3.84-2.06-3.84-3.64,0-9.68,7.14-11.54,9.48a32.89,32.89,0,0,0-4.53,8l-2.88,7a0.83,0.83,0,0,1-1,.48h-3Z"/><path class="cls-1" d="M1238.49,441.77c0-8.65,6.52-20.39,15.66-20.39,4.6,0,7.35,3.36,7.35,8,0,7.55-6,21.22-15.93,21.22C1241.79,450.63,1238.49,447,1238.49,441.77Zm20.26-13.39c0.07-2.13-1.17-3.85-3.43-3.85-2.88,0-6.52,2.61-10,8.17-2.33,3.71-4,7.9-4,11.12a3.24,3.24,0,0,0,3.16,3.5C1251.67,447.34,1258.75,432.92,1258.75,428.38Z"/><path class="cls-1" d="M1294.8,422.07c0.62,0,.76.21,0.62,0.62L1290.13,437a64.17,64.17,0,0,0-2.88,8.93,0.64,0.64,0,0,0,.55.82c1,0,4.81-3.43,5.36-4.26a0.35,0.35,0,0,1,.62,0l0.69,0.69c0.21,0.21.21,0.34,0,.62s-6.59,6.87-11.33,6.87a1.34,1.34,0,0,1-1.3-1.58c0-.82,3.5-9.41,4.39-11.74l-0.41-.21c-2.88,4.19-10.16,13.53-17,13.53a2.69,2.69,0,0,1-2.54-2.82c0.07-2.2,2.2-6.45,4.88-12.84,1.79-4.26,3.36-7.48,3.36-8.72a1,1,0,0,0-1.1-1c-1.24,0-4.67,3.09-5.36,3.91a0.39,0.39,0,0,1-.62,0l-0.62-.62c-0.21-.14-0.21-0.34.07-0.62,0.48-.62,6.18-6.59,10.57-6.59,1.37,0,2,1.37,2,2.47,0,1.72-1.65,5.77-4.46,11.88-1.85,4.05-3.64,8.45-3.64,10a1.08,1.08,0,0,0,1.17,1.17c3.64,0,10.92-9,12.91-11.88a26.86,26.86,0,0,0,3.16-5.84l2.4-6.59a0.83,0.83,0,0,1,1-.48h2.82Z"/><path class="cls-1" d="M1291.85,461.34c0-5.08,8.24-8.45,11.6-9.89-2-1.44-2.61-2.68-2.61-4s1.24-2.47,5.84-5.08a8,8,0,0,1-5.36-7.9c0-5.15,4.53-13.12,12.15-13.12a6.69,6.69,0,0,1,5.84,3.23,9.65,9.65,0,0,1,5.84-2.54,2.73,2.73,0,0,1,2.88,2.68,2.08,2.08,0,0,1-2.2,2.13,2.63,2.63,0,0,1-2.27-1,1.93,1.93,0,0,0-1.3-.48,2.9,2.9,0,0,0-2,1,15.69,15.69,0,0,1,.55,3.84c0,3.3-1.92,11-9.82,12.36a7.83,7.83,0,0,0-2.06.48c-1.3.55-3.57,2.13-3.57,3.3a2.67,2.67,0,0,0,1.17,1.85c1.17,0.82,4.46,2.88,8.93,5.84,4,2.61,5.08,4.88,5.08,7.42,0,1.1-1.17,8.93-14.63,8.93C1298.78,470.34,1291.85,466.29,1291.85,461.34Zm15.45,6.87c4.67,0,8.58-1.65,8.58-5.49,0-3-2.88-4.87-4.6-6l-6-3.91c-5.63,2.27-8.65,4.88-8.65,8.1C1296.58,465.6,1302.69,468.21,1307.29,468.21Zm9.13-40.51c0-3.16-1.24-4.6-3.09-4.6-4.12,0-7.62,8-7.62,13.18,0,3.09,1.17,4.67,3.23,4.67C1314,440.95,1316.43,432.64,1316.43,427.7Z"/><path class="cls-1" d="M1327.21,449.94c-0.41,0-.55-0.21-0.48-0.34l15.72-38.93a8.69,8.69,0,0,0,.89-3.36c0-.82-1-1.37-2.27-1.37H1339c-0.41,0-.76-0.21-0.62-0.62l0.34-1.17a0.65,0.65,0,0,1,.76-0.55h9.27a0.7,0.7,0,0,1,.82.82,8,8,0,0,1-.62,2.06l-10.78,25.27,0.34,0.27c3.43-4.87,8-10.64,13.6-10.64,3.16,0,4.74,2.61,4.74,5.77,0,5.56-2.33,11.47-4.74,15.93-2.75,5.15-6.45,9.06-10.3,9.06a3.31,3.31,0,0,1-3.5-3c0-1.58,1-3.37,2.47-3.37a2.46,2.46,0,0,1,2.4,2.06,1.35,1.35,0,0,0,1.17,1.37c1.51,0,3.78-4.46,5.08-8a40.39,40.39,0,0,0,2.75-12.43c0-1.72-.14-3.84-2.06-3.84-3.64,0-9.68,7.14-11.54,9.48a32.89,32.89,0,0,0-4.53,8l-2.88,7a0.83,0.83,0,0,1-1,.48h-3Z"/><path class="cls-1" d="M1369.44,425.77h-4.81c-0.41,0-.55-0.14-0.41-0.55l0.55-1.51a0.69,0.69,0,0,1,.76-0.48h4.94l3.57-8a1.62,1.62,0,0,1,1.1-1,26.41,26.41,0,0,0,3.09-1.17,2.89,2.89,0,0,1,1-.41c0.41,0,.55.41,0.07,1.37l-4.53,9.2h7c0.34,0,.48.21,0.27,0.76l-0.62,1.44a0.64,0.64,0,0,1-.62.34h-7l-6.66,15.45a18.25,18.25,0,0,0-1.58,4.39c0,0.76.27,1.17,0.89,1.17,2,0,6.45-3.91,6.87-4.39,0.21-.28.41-0.21,0.62,0l0.76,0.82a0.43,0.43,0,0,1,.07.62c-0.89,1.1-7.28,6.8-12.57,6.8-1.72,0-2.2-.69-2.2-1.65a9.2,9.2,0,0,1,.76-3.23Z"/><path class="cls-1" d="M1218.13,506a2.38,2.38,0,0,0-2.47,2.27,2.12,2.12,0,0,0,1.3,2.06,2.4,2.4,0,0,1,1.44,2.13c0,1.24-.82,2.27-2.61,2.27-1.17,0-3.23-1.1-3.23-4.05,0-2.47,1.44-4.39,3-6.18a7.79,7.79,0,0,1,5.22-2.4h5l6.32-.41c0.89-.07,1.37.55,0.55,1.37-2.06,2.27-8.1,12-8.1,18.47,0,3.23,1.79,5,4.12,5a9.67,9.67,0,0,0,8-4.81c1.17-1.85,2.2-5.91,2.75-8.79,0.48-2.68.62-6,1.17-8.45a2.94,2.94,0,0,1,3.09-2.2,1.56,1.56,0,0,1,1.72,1.65c0,1.17-1.72,5.36-3.57,10.57-0.82,2.47-1.58,4.46-1.58,6.25a5.93,5.93,0,0,0,6,5.63c4.6,0,9.61-5.08,9.61-14.35,0-1.17-.48-3.57-1-4.19s-2.27-2-2.27-3.71a2.82,2.82,0,0,1,3-2.75c1.65,0,3.43,1.1,3.43,7.07,0,4.94-1.51,11.54-4.67,15.86-1.92,2.47-4.88,6.32-10.09,6.32-4.19,0-6.66-4-6.94-6.32-1.3,1.65-6,6.32-11.19,6.32-3,0-6.25-2.33-6.25-7-0.07-5.7,6.32-15,9.06-18.33l-0.48-.48a15.42,15.42,0,0,1-5,1.17h-5.42Z"/><path class="cls-1" d="M1261.6,529.94c-0.41,0-.55-0.21-0.48-0.34l15.72-38.93a8.69,8.69,0,0,0,.89-3.36c0-.82-1-1.37-2.27-1.37h-2.13c-0.41,0-.76-0.21-0.62-0.62l0.34-1.17a0.65,0.65,0,0,1,.76-0.55h9.27a0.7,0.7,0,0,1,.82.82,8,8,0,0,1-.62,2.06l-10.78,25.27,0.34,0.27c3.43-4.87,8-10.64,13.6-10.64,3.16,0,4.74,2.61,4.74,5.77,0,5.56-2.33,11.47-4.74,15.93-2.75,5.15-6.45,9.06-10.3,9.06a3.31,3.31,0,0,1-3.5-3c0-1.58,1-3.37,2.47-3.37a2.46,2.46,0,0,1,2.4,2.06,1.35,1.35,0,0,0,1.17,1.37c1.51,0,3.78-4.46,5.08-8a40.38,40.38,0,0,0,2.75-12.43c0-1.72-.14-3.84-2.06-3.84-3.64,0-9.68,7.14-11.54,9.48a32.89,32.89,0,0,0-4.53,8l-2.88,7a0.83,0.83,0,0,1-1,.48h-3Z"/><path class="cls-1" d="M1294.56,523.9c0-5.77,3.78-13,8.79-17.92,2.2-2.2,5.91-4.6,9.2-4.6a3.68,3.68,0,0,1,3.91,3.64c0,3.36-2.54,6.93-6.39,8.93a28,28,0,0,1-10,2.82,18.7,18.7,0,0,0-.89,6.32c0,3.09,2.27,4.33,3.57,4.33,3.36,0,6.39-2.54,7.83-4.87a0.35,0.35,0,0,1,.62-0.07l0.76,0.62c0.34,0.21.34,0.41,0.07,0.62-1.72,2.4-5.84,6.93-11.12,6.93C1296.48,530.63,1294.56,528.43,1294.56,523.9Zm6.11-9.13c2.4,0.21,11.4-2.68,11.4-7.76,0-1.37-.69-2.61-2.2-2.61C1305.48,504.4,1301.22,512.3,1300.67,514.77Z"/><path class="cls-1" d="M1320.45,529.94c-0.76,0-.89-0.14-0.76-0.62l4.88-12.7c1.65-4.26,3.57-9.2,3.57-10.37a1,1,0,0,0-1-1.17c-1.3,0-4.6,3.3-5.77,4.6-0.21.21-.41,0.21-0.69-0.07L1320,509c-0.27-.28-0.34-0.41-0.14-0.69,1-1.24,6.11-6.94,11.05-6.94a2,2,0,0,1,2.2,2.06c0,2.13-3,8.65-3.5,10.23l0.27,0.14c2.06-3.3,9.54-12.43,15.66-12.43,2.06,0,3.43,1,3.43,2.82,0,3-1.58,6.59-3.85,12.15-1.85,4.53-3.5,8.38-3.5,9.48a0.85,0.85,0,0,0,.82.89c1,0,4.05-2.54,4.94-3.5a0.5,0.5,0,0,1,.76.14l0.48,0.55c0.27,0.27.34,0.41,0.07,0.75-0.82,1.1-6.39,6-11,6a1.38,1.38,0,0,1-1.65-1.37c0-1.3,2.47-6.73,4.6-12.63,1-2.68,3.43-8.38,3.43-9.89a1.46,1.46,0,0,0-1.72-1.58c-2.68,0-9.48,6.32-12.5,11.19a39.93,39.93,0,0,0-4.12,8.58l-1.72,4.6c-0.14.27-.27,0.41-1,0.41h-2.68Z"/><path class="cls-1" d="M1245.19,609.94c-0.34,0-.62-0.14-0.41-0.69l5.22-12.43c1.79-4.33,3.85-9.06,4-10.3,0-.69-0.21-1.1-0.69-1.1-1,0-5.15,4.05-5.77,4.88a0.52,0.52,0,0,1-.82-0.07l-0.62-.62A0.39,0.39,0,0,1,1246,589c1.58-1.85,6.94-7.62,11.26-7.62a1.75,1.75,0,0,1,1.65,1.92c0,1.65-4.19,10.71-4.88,12.57l0.34,0.07c3.16-4.87,10.23-14.56,16.07-14.56a2.84,2.84,0,0,1,3,3c0,2.54-2.75,9.13-3.91,11.88l0.34,0.07c3.78-5.77,10-14.9,15.79-14.9a3.29,3.29,0,0,1,3.3,3.3c0,2.33-1.3,5.22-4.19,12.22-1.58,3.91-2.88,6.8-2.88,8a0.76,0.76,0,0,0,.76.89c1.24,0,5-4.39,5.42-4.94,0.21-.34.55-0.28,0.82,0l0.55,0.55a0.61,0.61,0,0,1,.14.76c-0.21.48-7.42,8.45-11.88,8.45a1.41,1.41,0,0,1-1.24-1.65c0-1.72,1.92-6.32,4.67-13,2-4.87,3.3-7.76,3.3-9.75a1.27,1.27,0,0,0-1.44-1.3c-2.33,0-9.06,7.62-13.25,13.73a21.65,21.65,0,0,0-2.82,4.88l-2.33,6a0.83,0.83,0,0,1-1,.41h-2.75c-0.55,0-.82-0.14-0.62-0.55L1265,598c1.92-4.74,4-9.61,4-11.54a1.26,1.26,0,0,0-1.37-1.37c-2.33,0-8.86,7-12.77,12.5a29.08,29.08,0,0,0-3.43,5.84l-2.47,6.11a1,1,0,0,1-1.1.41h-2.61Z"/><path class="cls-1" d="M1294.15,591.27c-0.14-.07-0.21-0.27-0.07-0.62,0.41-.82,4.05-9.27,8.24-9.27,2.13,0,2.88,1.72,3.43,7.76,0.69,7.83,1.17,15.86,1.3,20.33l0.27-.07c1.92-3.09,6-11.26,7-14.56a18.37,18.37,0,0,0,1-6,9.47,9.47,0,0,0-.34-2.54,6.55,6.55,0,0,1-.76-2.47c0-1.1.62-2.47,2.82-2.47,1.85,0,2.75,1.72,2.75,3.43,0,4.46-2.61,10.23-4.6,14.56-3,6.59-10.23,18.88-16.2,24.72-1.85,1.92-6.39,6.25-10.44,6.25-2.68,0-3.85-1.65-3.85-3.23a2.91,2.91,0,0,1,2.75-2.82,3.36,3.36,0,0,1,2.54,1.1,3.08,3.08,0,0,0,1.72.82,6.13,6.13,0,0,0,3.23-1.44,25.59,25.59,0,0,0,7.55-9.27,8.84,8.84,0,0,0,.55-3.84c-0.14-1.58-1.44-20.26-2.2-23.83-0.27-1.3-.62-1.92-1.17-1.92-1.24,0-3.43,4.05-4,5.56a0.47,0.47,0,0,1-.62.21Z"/><path class="cls-1" d="M1183.49,665.77h-4.81c-0.41,0-.55-0.14-0.41-0.55l0.55-1.51a0.69,0.69,0,0,1,.76-0.48h4.94l3.57-8a1.62,1.62,0,0,1,1.1-1,26.4,26.4,0,0,0,3.09-1.17,2.9,2.9,0,0,1,1-.41c0.41,0,.55.41,0.07,1.37l-4.53,9.2h7c0.34,0,.48.21,0.27,0.76l-0.62,1.44a0.64,0.64,0,0,1-.62.34h-7l-6.66,15.45a18.25,18.25,0,0,0-1.58,4.39c0,0.76.27,1.17,0.89,1.17,2,0,6.45-3.91,6.87-4.39,0.21-.28.41-0.21,0.62,0l0.76,0.82a0.43,0.43,0,0,1,.07.62c-0.89,1.1-7.28,6.8-12.57,6.8-1.72,0-2.2-.69-2.2-1.65a9.2,9.2,0,0,1,.76-3.23Z"/><path class="cls-1" d="M1194.89,689.94c-0.41,0-.55-0.21-0.48-0.34l15.72-38.93a8.69,8.69,0,0,0,.89-3.36c0-.82-1-1.37-2.27-1.37h-2.13c-0.41,0-.76-0.21-0.62-0.62l0.34-1.17a0.65,0.65,0,0,1,.76-0.55h9.27a0.7,0.7,0,0,1,.82.82,8,8,0,0,1-.62,2.06l-10.78,25.27,0.34,0.27c3.43-4.87,8-10.64,13.6-10.64,3.16,0,4.74,2.61,4.74,5.77,0,5.56-2.33,11.47-4.74,15.93-2.75,5.15-6.45,9.06-10.3,9.06a3.31,3.31,0,0,1-3.5-3c0-1.58,1-3.37,2.47-3.37a2.46,2.46,0,0,1,2.4,2.06,1.35,1.35,0,0,0,1.17,1.37c1.51,0,3.78-4.46,5.08-8a40.39,40.39,0,0,0,2.75-12.43c0-1.72-.14-3.84-2.06-3.84-3.64,0-9.68,7.14-11.54,9.48a32.89,32.89,0,0,0-4.53,8l-2.88,7a0.83,0.83,0,0,1-1,.48h-3Z"/><path class="cls-1" d="M1228.4,681.77c0-8.65,6.52-20.39,15.66-20.39,4.6,0,7.35,3.36,7.35,8,0,7.55-6,21.22-15.93,21.22C1231.69,690.63,1228.4,687,1228.4,681.77Zm20.26-13.39c0.07-2.13-1.17-3.85-3.43-3.85-2.88,0-6.52,2.61-10,8.17-2.33,3.71-4,7.9-4,11.12a3.24,3.24,0,0,0,3.16,3.5C1241.58,687.34,1248.65,672.92,1248.65,668.38Z"/><path class="cls-1" d="M1284.7,662.07c0.62,0,.76.21,0.62,0.62L1280,677a64.16,64.16,0,0,0-2.88,8.93,0.64,0.64,0,0,0,.55.82c1,0,4.81-3.43,5.36-4.26a0.35,0.35,0,0,1,.62,0l0.69,0.69c0.21,0.21.21,0.34,0,.62s-6.59,6.87-11.33,6.87a1.34,1.34,0,0,1-1.3-1.58c0-.82,3.5-9.41,4.39-11.74l-0.41-.21c-2.88,4.19-10.16,13.53-17,13.53a2.69,2.69,0,0,1-2.54-2.82c0.07-2.2,2.2-6.45,4.88-12.84,1.79-4.26,3.36-7.48,3.36-8.72a1,1,0,0,0-1.1-1c-1.24,0-4.67,3.09-5.36,3.91a0.39,0.39,0,0,1-.62,0l-0.62-.62c-0.21-.14-0.21-0.34.07-0.62,0.48-.62,6.18-6.59,10.57-6.59,1.37,0,2,1.37,2,2.47,0,1.72-1.65,5.77-4.46,11.88-1.85,4.05-3.64,8.45-3.64,10a1.08,1.08,0,0,0,1.17,1.17c3.64,0,10.92-9,12.91-11.88a26.86,26.86,0,0,0,3.16-5.84l2.4-6.59a0.83,0.83,0,0,1,1-.48h2.82Z"/><path class="cls-1" d="M1281.75,701.34c0-5.08,8.24-8.45,11.6-9.89-2-1.44-2.61-2.68-2.61-4s1.24-2.47,5.84-5.08a8,8,0,0,1-5.36-7.9c0-5.15,4.53-13.12,12.15-13.12a6.69,6.69,0,0,1,5.84,3.23,9.65,9.65,0,0,1,5.84-2.54,2.73,2.73,0,0,1,2.88,2.68,2.08,2.08,0,0,1-2.2,2.13,2.63,2.63,0,0,1-2.27-1,1.93,1.93,0,0,0-1.3-.48,2.9,2.9,0,0,0-2,1,15.69,15.69,0,0,1,.55,3.84c0,3.3-1.92,11-9.82,12.36a7.83,7.83,0,0,0-2.06.48c-1.3.55-3.57,2.13-3.57,3.3a2.67,2.67,0,0,0,1.17,1.85c1.17,0.82,4.46,2.88,8.93,5.84,4,2.61,5.08,4.88,5.08,7.42,0,1.1-1.17,8.93-14.63,8.93C1288.69,710.34,1281.75,706.29,1281.75,701.34Zm15.45,6.87c4.67,0,8.58-1.65,8.58-5.49,0-3-2.88-4.87-4.6-6l-6-3.91c-5.63,2.27-8.65,4.88-8.65,8.1C1286.49,705.6,1292.6,708.21,1297.2,708.21Zm9.13-40.51c0-3.16-1.24-4.6-3.09-4.6-4.12,0-7.62,8-7.62,13.18,0,3.09,1.17,4.67,3.23,4.67C1303.86,680.95,1306.33,672.64,1306.33,667.7Z"/><path class="cls-1" d="M1317.11,689.94c-0.41,0-.55-0.21-0.48-0.34l15.72-38.93a8.69,8.69,0,0,0,.89-3.36c0-.82-1-1.37-2.27-1.37h-2.13c-0.41,0-.76-0.21-0.62-0.62l0.34-1.17a0.65,0.65,0,0,1,.76-0.55h9.27a0.7,0.7,0,0,1,.82.82,8,8,0,0,1-.62,2.06L1328,671.75l0.34,0.27c3.43-4.87,8-10.64,13.6-10.64,3.16,0,4.74,2.61,4.74,5.77,0,5.56-2.33,11.47-4.74,15.93-2.75,5.15-6.45,9.06-10.3,9.06a3.31,3.31,0,0,1-3.5-3c0-1.58,1-3.37,2.47-3.37a2.46,2.46,0,0,1,2.4,2.06,1.35,1.35,0,0,0,1.17,1.37c1.51,0,3.78-4.46,5.08-8a40.39,40.39,0,0,0,2.75-12.43c0-1.72-.14-3.84-2.06-3.84-3.64,0-9.68,7.14-11.54,9.48a32.89,32.89,0,0,0-4.53,8l-2.88,7a0.83,0.83,0,0,1-1,.48h-3Z"/><path class="cls-1" d="M1359.34,665.77h-4.81c-0.41,0-.55-0.14-0.41-0.55l0.55-1.51a0.69,0.69,0,0,1,.76-0.48h4.94l3.57-8a1.62,1.62,0,0,1,1.1-1,26.41,26.41,0,0,0,3.09-1.17,2.9,2.9,0,0,1,1-.41c0.41,0,.55.41,0.07,1.37l-4.53,9.2h7c0.34,0,.48.21,0.27,0.76l-0.62,1.44a0.64,0.64,0,0,1-.62.34h-7l-6.66,15.45a18.25,18.25,0,0,0-1.58,4.39c0,0.76.27,1.17,0.89,1.17,2,0,6.45-3.91,6.87-4.39,0.21-.28.41-0.21,0.62,0l0.76,0.82a0.43,0.43,0,0,1,.07.62c-0.89,1.1-7.28,6.8-12.57,6.8-1.72,0-2.2-.69-2.2-1.65a9.2,9.2,0,0,1,.76-3.23Z"/><path class="cls-1" d="M1369.44,686.79a2.39,2.39,0,0,1,2.33-2.27,3,3,0,0,1,2.82,2.2c0.41,1.17.76,1.92,2.47,1.92a4.06,4.06,0,0,0,3.85-4.19c0-3-2.06-5.77-3-8-0.48-1.17-2.06-3.57-2-6.73a8.89,8.89,0,0,1,8.65-8.38c2.06,0,4.88.82,4.88,3.5a2.25,2.25,0,0,1-2.13,2.2,2.56,2.56,0,0,1-2.33-1.65c-0.34-.82-0.41-1.92-1.79-1.92s-3.36,1.85-3.36,4.33,2.06,5.42,2.47,6.39,2.61,4.19,2.61,7.83c0,5.36-4.33,8.58-9.06,8.58C1371.91,690.63,1369.44,689.05,1369.44,686.79Z"/><path class="cls-1" d="M1193.58,745.77h-4.81c-0.41,0-.55-0.14-0.41-0.55l0.55-1.51a0.69,0.69,0,0,1,.76-0.48h4.94l3.57-8a1.62,1.62,0,0,1,1.1-1,26.41,26.41,0,0,0,3.09-1.17,2.9,2.9,0,0,1,1-.41c0.41,0,.55.41,0.07,1.37l-4.53,9.2h7c0.34,0,.48.21,0.27,0.76l-0.62,1.44a0.64,0.64,0,0,1-.62.34h-7l-6.66,15.45a18.25,18.25,0,0,0-1.58,4.39c0,0.76.27,1.17,0.89,1.17,2,0,6.45-3.91,6.87-4.39,0.21-.28.41-0.21,0.62,0l0.76,0.82a0.43,0.43,0,0,1,.07.62c-0.89,1.1-7.28,6.8-12.57,6.8-1.72,0-2.2-.69-2.2-1.65a9.2,9.2,0,0,1,.76-3.23Z"/><path class="cls-1" d="M1205,769.94c-0.41,0-.55-0.21-0.48-0.34l15.72-38.93a8.69,8.69,0,0,0,.89-3.36c0-.82-1-1.37-2.27-1.37h-2.13c-0.41,0-.76-0.21-0.62-0.62l0.34-1.17a0.65,0.65,0,0,1,.76-0.55h9.27a0.7,0.7,0,0,1,.82.82,8,8,0,0,1-.62,2.06l-10.78,25.27,0.34,0.27c3.43-4.87,8-10.64,13.6-10.64,3.16,0,4.74,2.61,4.74,5.77,0,5.56-2.33,11.47-4.74,15.93-2.75,5.15-6.45,9.06-10.3,9.06a3.31,3.31,0,0,1-3.5-3c0-1.58,1-3.37,2.47-3.37a2.46,2.46,0,0,1,2.4,2.06,1.35,1.35,0,0,0,1.17,1.37c1.51,0,3.78-4.46,5.08-8a40.39,40.39,0,0,0,2.75-12.43c0-1.72-.14-3.84-2.06-3.84-3.64,0-9.68,7.14-11.54,9.48a32.89,32.89,0,0,0-4.53,8l-2.88,7a0.83,0.83,0,0,1-1,.48h-3Z"/><path class="cls-1" d="M1238.49,761.77c0-8.65,6.52-20.39,15.66-20.39,4.6,0,7.35,3.36,7.35,8,0,7.55-6,21.22-15.93,21.22C1241.79,770.63,1238.49,767,1238.49,761.77Zm20.26-13.39c0.07-2.13-1.17-3.85-3.43-3.85-2.88,0-6.52,2.61-10,8.17-2.33,3.71-4,7.9-4,11.12a3.24,3.24,0,0,0,3.16,3.5C1251.67,767.34,1258.75,752.92,1258.75,748.38Z"/><path class="cls-1" d="M1294.8,742.07c0.62,0,.76.21,0.62,0.62L1290.13,757a64.17,64.17,0,0,0-2.88,8.93,0.64,0.64,0,0,0,.55.82c1,0,4.81-3.43,5.36-4.26a0.35,0.35,0,0,1,.62,0l0.69,0.69c0.21,0.21.21,0.34,0,.62s-6.59,6.87-11.33,6.87a1.34,1.34,0,0,1-1.3-1.58c0-.82,3.5-9.41,4.39-11.74l-0.41-.21c-2.88,4.19-10.16,13.53-17,13.53a2.69,2.69,0,0,1-2.54-2.82c0.07-2.2,2.2-6.45,4.88-12.84,1.79-4.26,3.36-7.48,3.36-8.72a1,1,0,0,0-1.1-1c-1.24,0-4.67,3.09-5.36,3.91a0.39,0.39,0,0,1-.62,0l-0.62-.62c-0.21-.14-0.21-0.34.07-0.62,0.48-.62,6.18-6.59,10.57-6.59,1.37,0,2,1.37,2,2.47,0,1.72-1.65,5.77-4.46,11.88-1.85,4.05-3.64,8.45-3.64,10a1.08,1.08,0,0,0,1.17,1.17c3.64,0,10.92-9,12.91-11.88a26.86,26.86,0,0,0,3.16-5.84l2.4-6.59a0.83,0.83,0,0,1,1-.48h2.82Z"/><path class="cls-1" d="M1291.85,781.34c0-5.08,8.24-8.45,11.6-9.89-2-1.44-2.61-2.68-2.61-4s1.24-2.47,5.84-5.08a8,8,0,0,1-5.36-7.9c0-5.15,4.53-13.12,12.15-13.12a6.69,6.69,0,0,1,5.84,3.23,9.65,9.65,0,0,1,5.84-2.54,2.73,2.73,0,0,1,2.88,2.68,2.08,2.08,0,0,1-2.2,2.13,2.63,2.63,0,0,1-2.27-1,1.93,1.93,0,0,0-1.3-.48,2.9,2.9,0,0,0-2,1,15.69,15.69,0,0,1,.55,3.84c0,3.3-1.92,11-9.82,12.36a7.83,7.83,0,0,0-2.06.48c-1.3.55-3.57,2.13-3.57,3.3a2.67,2.67,0,0,0,1.17,1.85c1.17,0.82,4.46,2.88,8.93,5.84,4,2.61,5.08,4.88,5.08,7.42,0,1.1-1.17,8.93-14.63,8.93C1298.78,790.34,1291.85,786.29,1291.85,781.34Zm15.45,6.87c4.67,0,8.58-1.65,8.58-5.49,0-3-2.88-4.87-4.6-6l-6-3.91c-5.63,2.27-8.65,4.88-8.65,8.1C1296.58,785.6,1302.69,788.21,1307.29,788.21Zm9.13-40.51c0-3.16-1.24-4.6-3.09-4.6-4.12,0-7.62,8-7.62,13.18,0,3.09,1.17,4.67,3.23,4.67C1314,760.95,1316.43,752.64,1316.43,747.7Z"/><path class="cls-1" d="M1327.21,769.94c-0.41,0-.55-0.21-0.48-0.34l15.72-38.93a8.69,8.69,0,0,0,.89-3.36c0-.82-1-1.37-2.27-1.37H1339c-0.41,0-.76-0.21-0.62-0.62l0.34-1.17a0.65,0.65,0,0,1,.76-0.55h9.27a0.7,0.7,0,0,1,.82.82,8,8,0,0,1-.62,2.06l-10.78,25.27,0.34,0.27c3.43-4.87,8-10.64,13.6-10.64,3.16,0,4.74,2.61,4.74,5.77,0,5.56-2.33,11.47-4.74,15.93-2.75,5.15-6.45,9.06-10.3,9.06a3.31,3.31,0,0,1-3.5-3c0-1.58,1-3.37,2.47-3.37a2.46,2.46,0,0,1,2.4,2.06,1.35,1.35,0,0,0,1.17,1.37c1.51,0,3.78-4.46,5.08-8a40.39,40.39,0,0,0,2.75-12.43c0-1.72-.14-3.84-2.06-3.84-3.64,0-9.68,7.14-11.54,9.48a32.89,32.89,0,0,0-4.53,8l-2.88,7a0.83,0.83,0,0,1-1,.48h-3Z"/><path class="cls-1" d="M1369.44,745.77h-4.81c-0.41,0-.55-0.14-0.41-0.55l0.55-1.51a0.69,0.69,0,0,1,.76-0.48h4.94l3.57-8a1.62,1.62,0,0,1,1.1-1,26.41,26.41,0,0,0,3.09-1.17,2.89,2.89,0,0,1,1-.41c0.41,0,.55.41,0.07,1.37l-4.53,9.2h7c0.34,0,.48.21,0.27,0.76l-0.62,1.44a0.64,0.64,0,0,1-.62.34h-7l-6.66,15.45a18.25,18.25,0,0,0-1.58,4.39c0,0.76.27,1.17,0.89,1.17,2,0,6.45-3.91,6.87-4.39,0.21-.28.41-0.21,0.62,0l0.76,0.82a0.43,0.43,0,0,1,.07.62c-0.89,1.1-7.28,6.8-12.57,6.8-1.72,0-2.2-.69-2.2-1.65a9.2,9.2,0,0,1,.76-3.23Z"/><path class="cls-1" d="M1186.27,826a2.38,2.38,0,0,0-2.47,2.27,2.12,2.12,0,0,0,1.3,2.06,2.4,2.4,0,0,1,1.44,2.13c0,1.24-.82,2.27-2.61,2.27-1.17,0-3.23-1.1-3.23-4.05,0-2.47,1.44-4.39,3-6.18a7.79,7.79,0,0,1,5.22-2.4h5l6.32-.41c0.89-.07,1.37.55,0.55,1.37-2.06,2.27-8.1,12-8.1,18.47,0,3.23,1.79,5,4.12,5a9.67,9.67,0,0,0,8-4.81c1.17-1.85,2.2-5.91,2.75-8.79,0.48-2.68.62-6,1.17-8.45a2.94,2.94,0,0,1,3.09-2.2,1.56,1.56,0,0,1,1.72,1.65c0,1.17-1.72,5.36-3.57,10.57-0.82,2.47-1.58,4.46-1.58,6.25a5.93,5.93,0,0,0,6,5.63c4.6,0,9.61-5.08,9.61-14.35,0-1.17-.48-3.57-1-4.19s-2.27-2-2.27-3.71a2.82,2.82,0,0,1,3-2.75c1.65,0,3.43,1.1,3.43,7.07,0,4.94-1.51,11.54-4.67,15.86-1.92,2.47-4.88,6.32-10.09,6.32-4.19,0-6.66-4-6.94-6.32-1.3,1.65-6,6.32-11.19,6.32-3,0-6.25-2.33-6.25-7-0.07-5.7,6.32-15,9.06-18.33l-0.48-.48a15.42,15.42,0,0,1-5,1.17h-5.42Z"/><path class="cls-1" d="M1232.76,848.91c0-1.58,1.17-4.74,4.05-12.43l2-5.36a16.11,16.11,0,0,0,1.24-4.05,0.85,0.85,0,0,0-1-.89c-1.17,0-4.39,3.71-5.49,4.81a0.49,0.49,0,0,1-.76.07l-0.55-.62c-0.27-.21-0.41-0.34-0.21-0.62s7.28-8.65,11.67-8.45a1.6,1.6,0,0,1,1.65,1.72c0,1.24-1.1,4.33-2.33,7.62l-4,10.44a16.73,16.73,0,0,0-1.24,4.53,1,1,0,0,0,.76,1.17c1.44-.27,5.15-4.19,5.49-4.81,0.14-.21.41-0.21,0.76,0.14l0.55,0.48a0.58,0.58,0,0,1,.14.82c-0.41.55-5.91,7.14-11.6,7.14C1233.24,850.56,1232.76,850,1232.76,848.91Zm8.65-40a3.43,3.43,0,0,1,3.57-3.43,3.38,3.38,0,0,1,3.64,3.3,3.52,3.52,0,0,1-3.64,3.43A3.36,3.36,0,0,1,1241.41,808.88Z"/><path class="cls-1" d="M1259.61,825.77h-4.81c-0.41,0-.55-0.14-0.41-0.55l0.55-1.51a0.69,0.69,0,0,1,.76-0.48h4.94l3.57-8a1.62,1.62,0,0,1,1.1-1,26.41,26.41,0,0,0,3.09-1.17,2.9,2.9,0,0,1,1-.41c0.41,0,.55.41,0.07,1.37l-4.53,9.2h7c0.34,0,.48.21,0.27,0.76l-0.62,1.44a0.64,0.64,0,0,1-.62.34h-7l-6.66,15.45a18.25,18.25,0,0,0-1.58,4.39c0,0.76.27,1.17,0.89,1.17,2,0,6.45-3.91,6.87-4.39,0.21-.28.41-0.21,0.62,0l0.76,0.82a0.43,0.43,0,0,1,.07.62c-0.89,1.1-7.28,6.8-12.57,6.8-1.72,0-2.2-.69-2.2-1.65a9.2,9.2,0,0,1,.76-3.23Z"/><path class="cls-1" d="M1271,849.94c-0.41,0-.55-0.21-0.48-0.34l15.72-38.93a8.69,8.69,0,0,0,.89-3.36c0-.82-1-1.37-2.27-1.37h-2.13c-0.41,0-.76-0.21-0.62-0.62l0.34-1.17a0.65,0.65,0,0,1,.76-0.55h9.27a0.7,0.7,0,0,1,.82.82,8,8,0,0,1-.62,2.06l-10.78,25.27,0.34,0.27c3.43-4.87,8-10.64,13.6-10.64,3.16,0,4.74,2.61,4.74,5.77,0,5.56-2.33,11.47-4.74,15.93-2.75,5.15-6.45,9.06-10.3,9.06a3.31,3.31,0,0,1-3.5-3c0-1.58,1-3.37,2.47-3.37a2.46,2.46,0,0,1,2.4,2.06,1.35,1.35,0,0,0,1.17,1.37c1.51,0,3.78-4.46,5.08-8a40.39,40.39,0,0,0,2.75-12.43c0-1.72-.14-3.84-2.06-3.84-3.64,0-9.68,7.14-11.54,9.48a32.89,32.89,0,0,0-4.53,8l-2.88,7a0.83,0.83,0,0,1-1,.48h-3Z"/><path class="cls-1" d="M1304.51,841.77c0-8.65,6.52-20.39,15.66-20.39,4.6,0,7.35,3.36,7.35,8,0,7.55-6,21.22-15.93,21.22C1307.81,850.63,1304.51,847,1304.51,841.77Zm20.26-13.39c0.07-2.13-1.17-3.85-3.43-3.85-2.88,0-6.52,2.61-10,8.17-2.33,3.71-4,7.9-4,11.12a3.24,3.24,0,0,0,3.16,3.5C1317.7,847.34,1324.77,832.92,1324.77,828.38Z"/><path class="cls-1" d="M1360.82,822.07c0.62,0,.76.21,0.62,0.62L1356.15,837a64.18,64.18,0,0,0-2.88,8.93,0.64,0.64,0,0,0,.55.82c1,0,4.81-3.43,5.36-4.26a0.35,0.35,0,0,1,.62,0l0.69,0.69c0.21,0.21.21,0.34,0,.62s-6.59,6.87-11.33,6.87a1.34,1.34,0,0,1-1.3-1.58c0-.82,3.5-9.41,4.39-11.74l-0.41-.21c-2.88,4.19-10.16,13.53-17,13.53a2.69,2.69,0,0,1-2.54-2.82c0.07-2.2,2.2-6.45,4.88-12.84,1.79-4.26,3.36-7.48,3.36-8.72a1,1,0,0,0-1.1-1c-1.24,0-4.67,3.09-5.36,3.91a0.39,0.39,0,0,1-.62,0l-0.62-.62c-0.21-.14-0.21-0.34.07-0.62,0.48-.62,6.18-6.59,10.57-6.59,1.37,0,2,1.37,2,2.47,0,1.72-1.65,5.77-4.46,11.88-1.85,4.05-3.64,8.45-3.64,10a1.08,1.08,0,0,0,1.17,1.17c3.64,0,10.92-9,12.91-11.88a26.85,26.85,0,0,0,3.16-5.84l2.4-6.59a0.83,0.83,0,0,1,1-.48h2.82Z"/><path class="cls-1" d="M1373.73,825.77h-4.81c-0.41,0-.55-0.14-0.41-0.55l0.55-1.51a0.69,0.69,0,0,1,.76-0.48h4.94l3.57-8a1.62,1.62,0,0,1,1.1-1,26.4,26.4,0,0,0,3.09-1.17,2.9,2.9,0,0,1,1-.41c0.41,0,.55.41,0.07,1.37l-4.53,9.2h7c0.34,0,.48.21,0.27,0.76l-0.62,1.44a0.64,0.64,0,0,1-.62.34h-7l-6.66,15.45a18.25,18.25,0,0,0-1.58,4.39c0,0.76.27,1.17,0.89,1.17,2,0,6.45-3.91,6.87-4.39,0.21-.28.41-0.21,0.62,0l0.76,0.82a0.43,0.43,0,0,1,.07.62c-0.89,1.1-7.28,6.8-12.57,6.8-1.72,0-2.2-.69-2.2-1.65a9.2,9.2,0,0,1,.76-3.23Z"/><path class="cls-1" d="M1247.25,929.94c-0.34,0-.62-0.14-0.41-0.69l5.22-12.43c1.79-4.33,3.85-9.06,4-10.3,0-.69-0.21-1.1-0.69-1.1-1,0-5.15,4.05-5.77,4.88a0.52,0.52,0,0,1-.82-0.07l-0.62-.62a0.39,0.39,0,0,1-.07-0.62c1.58-1.85,6.94-7.62,11.26-7.62a1.75,1.75,0,0,1,1.65,1.92c0,1.65-4.19,10.71-4.88,12.57l0.34,0.07c3.16-4.87,10.23-14.56,16.07-14.56a2.84,2.84,0,0,1,3,3c0,2.54-2.75,9.13-3.91,11.88l0.34,0.07c3.78-5.77,10-14.9,15.79-14.9a3.29,3.29,0,0,1,3.3,3.3c0,2.33-1.3,5.22-4.19,12.22-1.58,3.91-2.88,6.8-2.88,8a0.76,0.76,0,0,0,.76.89c1.24,0,5-4.39,5.42-4.94,0.21-.34.55-0.28,0.82,0l0.55,0.55a0.61,0.61,0,0,1,.14.76c-0.21.48-7.42,8.45-11.88,8.45a1.41,1.41,0,0,1-1.24-1.65c0-1.72,1.92-6.32,4.67-13,2-4.87,3.3-7.76,3.3-9.75a1.27,1.27,0,0,0-1.44-1.3c-2.33,0-9.06,7.62-13.25,13.73a21.66,21.66,0,0,0-2.82,4.88l-2.33,6a0.83,0.83,0,0,1-1,.41H1263c-0.55,0-.82-0.14-0.62-0.55L1267,918c1.92-4.74,4-9.61,4-11.54a1.26,1.26,0,0,0-1.37-1.37c-2.33,0-8.86,7-12.77,12.5a29.08,29.08,0,0,0-3.43,5.84l-2.47,6.11a1,1,0,0,1-1.1.41h-2.61Z"/><path class="cls-1" d="M1296.14,923.9c0-5.77,3.78-13,8.79-17.92,2.2-2.2,5.91-4.6,9.2-4.6A3.68,3.68,0,0,1,1318,905c0,3.36-2.54,6.93-6.39,8.93a28,28,0,0,1-10,2.82,18.7,18.7,0,0,0-.89,6.32c0,3.09,2.27,4.33,3.57,4.33,3.36,0,6.39-2.54,7.83-4.87a0.35,0.35,0,0,1,.62-0.07l0.76,0.62c0.34,0.21.34,0.41,0.07,0.62-1.72,2.4-5.84,6.93-11.12,6.93C1298.06,930.63,1296.14,928.43,1296.14,923.9Zm6.11-9.13c2.4,0.21,11.4-2.68,11.4-7.76,0-1.37-.69-2.61-2.2-2.61C1307.05,904.4,1302.8,912.3,1302.25,914.77Z"/></svg>