<svg id="Layer_1" data-name="Layer 1" xmlns="http://www.w3.org/2000/svg" viewBox="0 0 2560 1600"><defs><style>.cls-1{fill:#231f20;}</style></defs><title>words</title><path class="cls-1" d="M1823.62,894.27c0,5.15,2.33,6,3.57,6a9.88,9.88,0,0,0,4.53-.89,0.56,0.56,0,0,1,.82.14l0.34,0.62a0.55,0.55,0,0,1-.14.75,11.55,11.55,0,0,1-7.62,2.75c-3.37,0-6.66-3.23-6.66-5.84,0-2.82.21-8.86,0.21-9.82v-1.51c0-1.24.07-5.91,0.14-8.79h-4.19a0.86,0.86,0,0,1-1-.82c0-.55.41-0.76,1.24-1.24,1.65-1,6.93-6.25,7.83-8.58a0.92,0.92,0,0,1,1-.69c0.55,0,.69.48,0.69,1l-0.34,6.73h9.54a0.45,0.45,0,0,1,.48.62l-0.69,2.4a0.56,0.56,0,0,1-.62.55h-8.86c-0.14,3.16-.21,6.52-0.21,9.68v6.87Z"/><path class="cls-1" d="M1840.65,865.43c0-4.19-.82-4.94-3.3-5.77l-1.17-.41c-0.41-.14-0.48-0.21-0.48-0.41v-0.62c0-.27.21-0.34,0.82-0.69l7.14-3.78a3.63,3.63,0,0,1,1.58-.55c0.41,0,.69.55,0.55,1.72s-0.21,15.11-.21,18.54v4.39h0.34a13.1,13.1,0,0,1,9.41-4.46,9,9,0,0,1,6.8,2.75c3.09,2.88,3,6.39,3,10.09v3.91c0,3.85.14,8.1,0.14,9.41,0,0.82,1.1,1,2.54,1h1.17c0.55,0,.76.14,0.76,0.62v1c0,0.55-.14.82-0.55,0.82s-2.68-.21-6.59-0.21c-3.36,0-5.84.21-6.45,0.21s-0.62-.21-0.62-0.75v-1.17c0-.34.07-0.55,0.48-0.55h1.58c1.17,0,2.54-.14,2.61-1.3,0.07-1,0-4.6,0-6.8v-5.56c0-3.85-.27-6.59-2.27-8.45a6.3,6.3,0,0,0-4.53-1.92,8.38,8.38,0,0,0-6.39,2.88,6,6,0,0,0-1.37,3.37v15c0,2.2.21,2.82,1.51,2.82h2.06c0.48,0,.76.14,0.76,0.55v1.17c0,0.48-.14.75-0.55,0.75s-3.36-.21-6.52-0.21c-3.43,0-6,.21-6.66.21-0.27,0-.48-0.21-0.48-0.69v-1.24c0-.48.27-0.55,1-0.55h1.44c1.1,0,2.13-.28,2.27-1.1,0.21-1.3.21-8.86,0.21-13.32V865.43Z"/><path class="cls-1" d="M1878.83,884.59a17.71,17.71,0,0,0-.21,3.3c0,6.73,4.26,11.81,9.75,11.81a9.3,9.3,0,0,0,8.31-4.67,0.56,0.56,0,0,1,.62-0.34l0.89,0.48c0.21,0.07.34,0.27,0,1-1.24,2.75-4.81,7.48-10.92,7.48-3.91,0-8.24-1.17-10.78-4.87-2.4-3.5-3-6-3-10.85A15.46,15.46,0,0,1,1877.8,877c3-3,6.39-3.64,9.82-3.64,7.9,0,10.09,7.42,10.09,10.09,0,1-.82,1.1-1.92,1.1h-17Zm10.92-2.06c1.3,0,1.85-.34,1.85-1,0-1.58-.82-6.11-5.29-6.11-3,0-5.9,2-7.21,7.07h10.64Z"/><path class="cls-1" d="M1900.46,918a3,3,0,0,1,3.16-2.68,11.81,11.81,0,0,1,3.16.75,1.65,1.65,0,0,0,1.44-.41c1-1.24,4.53-9.06,5.49-11.74-0.34-1.72-7.62-23.21-8.17-24.65-0.82-1.72-1.44-2.88-3.23-2.88h-1.79c-0.48,0-.55-0.21-0.55-0.62v-1.37c0-.28.07-0.48,0.55-0.48s2.27,0.21,6.32.21c3.5,0,5.63-.21,6.39-0.21,0.55,0,.62.21,0.62,0.48v1.44c0,0.34-.07.55-0.41,0.55h-1.3c-0.76,0-1,.48-0.89,1.51,0.21,1.51,4.88,16.68,5.63,18.2h0.27c0.69-1.1,6.66-15.38,7.07-17.1s-0.14-2.61-1.17-2.61H1922c-0.41,0-.48-0.21-0.48-0.55v-1.37c0-.34.07-0.55,0.41-0.55,0.89,0,2.33.21,5.63,0.21,1.85,0,3.43-.21,4.19-0.21,0.41,0,.41.28,0.41,0.55v1.3c0,0.41,0,.62-0.34.62h-1.1a3.08,3.08,0,0,0-2.4,1.24c-1.51,1.85-6,12.36-10.78,23.14-3.36,7.62-6,14-7.28,16.27-1,1.79-2.2,4.46-5.84,4.46C1901.76,921.53,1900.46,920.09,1900.46,918Z"/><path class="cls-1" d="M1959.51,894.27c0,5.15,2.33,6,3.57,6a9.87,9.87,0,0,0,4.53-.89,0.56,0.56,0,0,1,.82.14l0.34,0.62a0.55,0.55,0,0,1-.14.75,11.55,11.55,0,0,1-7.62,2.75c-3.36,0-6.66-3.23-6.66-5.84,0-2.82.21-8.86,0.21-9.82v-1.51c0-1.24.07-5.91,0.14-8.79h-4.19a0.86,0.86,0,0,1-1-.82c0-.55.41-0.76,1.24-1.24,1.65-1,6.94-6.25,7.83-8.58a0.92,0.92,0,0,1,1-.69c0.55,0,.69.48,0.69,1l-0.34,6.73h9.54a0.45,0.45,0,0,1,.48.62l-0.69,2.4a0.56,0.56,0,0,1-.62.55h-8.86c-0.14,3.16-.21,6.52-0.21,9.68v6.87Z"/><path class="cls-1" d="M1977.71,884.59a17.6,17.6,0,0,0-.21,3.3c0,6.73,4.26,11.81,9.75,11.81a9.3,9.3,0,0,0,8.31-4.67,0.56,0.56,0,0,1,.62-0.34l0.89,0.48c0.21,0.07.34,0.27,0,1-1.24,2.75-4.81,7.48-10.92,7.48-3.91,0-8.24-1.17-10.78-4.87-2.4-3.5-3-6-3-10.85a15.46,15.46,0,0,1,4.33-10.92c3-3,6.39-3.64,9.82-3.64,7.9,0,10.09,7.42,10.09,10.09,0,1-.82,1.1-1.92,1.1h-17Zm10.92-2.06c1.3,0,1.85-.34,1.85-1,0-1.58-.82-6.11-5.29-6.11-3,0-5.91,2-7.21,7.07h10.64Z"/><path class="cls-1" d="M2010.6,882.39c0,3.57,0,13.94.07,16.07,0.07,1.17.34,2.13,1.79,2.13h3.09c0.62,0,.75.21,0.75,0.62v1.17c0,0.41-.14.69-0.41,0.69-0.48,0-3.5-.21-7.76-0.21s-7.14.21-7.76,0.21c-0.34,0-.48-0.27-0.48-0.69V901.2c0-.48.14-0.62,0.89-0.62h3.3a1.54,1.54,0,0,0,1.51-1.72c0.07-2.13.07-13.94,0.07-17.92v-4.33c0-4.88-.07-11.12-0.21-12.91-0.14-2.33-1.24-3.43-3.43-4.12l-1.37-.48c-0.34-.14-0.41-0.21-0.41-0.34v-0.55a0.68,0.68,0,0,1,.62-0.48,62.2,62.2,0,0,0,8-4,2.54,2.54,0,0,1,1.44-.55c0.48,0,.62.34,0.55,1.24-0.07,3.78-.27,18.06-0.27,21.83v6.11Z"/><path class="cls-1" d="M2028.52,882.39c0,3.57,0,13.94.07,16.07,0.07,1.17.34,2.13,1.79,2.13h3.09c0.62,0,.76.21,0.76,0.62v1.17c0,0.41-.14.69-0.41,0.69-0.48,0-3.5-.21-7.76-0.21s-7.14.21-7.76,0.21c-0.34,0-.48-0.27-0.48-0.69V901.2c0-.48.14-0.62,0.89-0.62h3.3a1.54,1.54,0,0,0,1.51-1.72c0.07-2.13.07-13.94,0.07-17.92v-4.33c0-4.88-.07-11.12-0.21-12.91-0.14-2.33-1.24-3.43-3.43-4.12l-1.37-.48c-0.34-.14-0.41-0.21-0.41-0.34v-0.55a0.68,0.68,0,0,1,.62-0.48,62.27,62.27,0,0,0,8-4,2.54,2.54,0,0,1,1.44-.55c0.48,0,.62.34,0.55,1.24-0.07,3.78-.27,18.06-0.27,21.83v6.11Z"/><path class="cls-1" d="M2077.69,885.27c0-5.08-1-6.39-2.06-7.42a7.38,7.38,0,0,0-4.39-1.24,8,8,0,0,0-6.59,4,8.16,8.16,0,0,0-1,4.6v13.6c0,1.1.41,1.79,1.37,1.79h2.47c0.62,0,.69.14,0.69,0.62v1.1c0,0.48-.07.75-0.55,0.75s-2.47-.21-6.25-0.21-5.84.21-6.39,0.21-0.55-.14-0.55-0.62V901.2c0-.55.14-0.62,0.82-0.62h2.33c0.62,0,1-.41,1-1.72s0.07-2.4.07-3.57V883.08a3.48,3.48,0,0,0-1.92-3.5l-1.44-.75a0.7,0.7,0,0,1-.48-0.55v-0.55a0.86,0.86,0,0,1,.41-0.55l6-3.09a3.39,3.39,0,0,1,1.3-.41,0.82,0.82,0,0,1,.62,1l0.28,4h0.21a13.34,13.34,0,0,1,10.09-5.22,8.33,8.33,0,0,1,7.76,5.29h0.34c2.06-2.68,6-5.29,10.09-5.29,2.4,0,4.53.41,6.18,2.06s3.3,3.16,3.3,8.45v15.31a1.25,1.25,0,0,0,1.44,1.37h1.85c0.62,0,.76.14,0.76,0.62v1.17c0,0.48-.14.69-0.48,0.69s-2.4-.21-5.7-0.21-5.91.21-6.39,0.21-0.55-.21-0.55-0.69V901.2c0-.48.14-0.62,0.89-0.62h1.72a1.24,1.24,0,0,0,1.37-1.3c0.14-1.58.14-4.05,0.14-5.56V883.56c0-2.27-.41-4.26-2-5.49a8.26,8.26,0,0,0-5.08-1.44,7.74,7.74,0,0,0-6,3.57c-1,2-1,3.84-1,6.93V899a1.33,1.33,0,0,0,1.37,1.58h2.33c0.62,0,.76.14,0.76,0.62v1.1c0,0.55-.14.75-0.48,0.75s-2.27-.21-6.11-0.21-6,.21-6.46.21-0.48-.21-0.48-0.69v-1.1c0-.55.07-0.69,0.69-0.69h2c1.1,0,1.51-.28,1.51-1.17V885.27Z"/><path class="cls-1" d="M2115.25,884.59a17.69,17.69,0,0,0-.21,3.3c0,6.73,4.26,11.81,9.75,11.81a9.3,9.3,0,0,0,8.31-4.67,0.56,0.56,0,0,1,.62-0.34l0.89,0.48c0.21,0.07.34,0.27,0,1-1.24,2.75-4.81,7.48-10.92,7.48-3.91,0-8.24-1.17-10.78-4.87-2.4-3.5-3-6-3-10.85a15.46,15.46,0,0,1,4.33-10.92c3-3,6.39-3.64,9.82-3.64,7.9,0,10.09,7.42,10.09,10.09,0,1-.82,1.1-1.92,1.1h-17Zm10.92-2.06c1.3,0,1.85-.34,1.85-1,0-1.58-.82-6.11-5.29-6.11-3,0-5.91,2-7.21,7.07h10.64Z"/><path class="cls-1" d="M1816.48,984.09a1.25,1.25,0,0,1-.41-1l-1.17-6.52a0.44,0.44,0,0,1,.41-0.55l0.89-.21a0.51,0.51,0,0,1,.62.41l1.72,3.36c1.37,2.54,2.33,4.26,6,4.26,2.4,0,5.42-1.44,5.42-4.67s-1.51-4.87-6.66-6.32c-4.05-1.17-8.1-3.3-8.1-8.72,0-4.74,4.46-8.38,9.61-8.38a12.79,12.79,0,0,1,6.32,1.44c1,0.48,1.17.82,1.24,1.24l1,4.81a0.64,0.64,0,0,1-.48.62l-0.82.27a0.49,0.49,0,0,1-.62-0.34l-2.33-3.16a5.25,5.25,0,0,0-4.81-2.68c-2.61,0-5.29,1.58-5.29,4.53,0,4,3.23,4.74,6.59,5.7,5,1.44,8.17,3.5,8.24,8.79-0.07,5.56-4.6,9.06-10.44,9.06A12.92,12.92,0,0,1,1816.48,984.09Z"/><path class="cls-1" d="M1848.07,976.67c0,5.15,2.33,6,3.57,6a9.87,9.87,0,0,0,4.53-.89,0.56,0.56,0,0,1,.82.14l0.34,0.62a0.55,0.55,0,0,1-.14.75,11.55,11.55,0,0,1-7.62,2.75c-3.36,0-6.66-3.23-6.66-5.84,0-2.82.21-8.86,0.21-9.82v-1.51c0-1.24.07-5.91,0.14-8.79h-4.19a0.86,0.86,0,0,1-1-.82c0-.55.41-0.76,1.24-1.24,1.65-1,6.93-6.25,7.83-8.58a0.92,0.92,0,0,1,1-.69c0.55,0,.69.48,0.69,1l-0.34,6.73H1858a0.45,0.45,0,0,1,.48.62l-0.69,2.4a0.56,0.56,0,0,1-.62.55h-8.86c-0.14,3.16-.21,6.52-0.21,9.68v6.87Z"/><path class="cls-1" d="M1864.55,981.34c-3.16-3.78-3.78-6.32-3.78-11.19a14.6,14.6,0,0,1,5.9-11.05,14.86,14.86,0,0,1,9.2-3.3,14.53,14.53,0,0,1,9.61,4,15.24,15.24,0,0,1,4.67,11.19c0,7.48-6.73,15.11-15.17,15.11A13.84,13.84,0,0,1,1864.55,981.34Zm19.84-11.05c0-7.62-5.56-12.43-9.06-12.43a6.62,6.62,0,0,0-5.29,2.2c-2.68,2.75-3.64,5.56-3.64,10.78,0,3.85.41,6.46,2.61,9.61a7.6,7.6,0,0,0,6.8,3.57C1881,984,1884.39,977.63,1884.39,970.29Z"/><path class="cls-1" d="M1899.22,967c0-3.5-.55-4.19-2.47-5.22l-1.3-.69c-0.41-.14-0.55-0.21-0.55-0.48v-0.41a0.69,0.69,0,0,1,.55-0.62l6.8-3.5a2.07,2.07,0,0,1,1-.27c0.41,0,.48.41,0.48,0.82l0.34,4.88h0.28c2.06-3.16,5.29-6,8.24-6,2.33,0,3.5,1.44,3.5,3a3.32,3.32,0,0,1-2.88,3.37,4.5,4.5,0,0,1-2-.55,4.42,4.42,0,0,0-2.27-.55,4.88,4.88,0,0,0-4.05,2.88,7.4,7.4,0,0,0-.69,2.2v14.28c0,2.13.48,2.81,1.92,2.81h3.23c0.41,0,.48.21,0.48,0.62v1.24c0,0.41-.07.62-0.34,0.62s-3.57-.21-7.28-0.21c-4.26,0-7.14.21-7.55,0.21s-0.41-.14-0.41-0.69v-1.17c0-.48.14-0.62,0.75-0.62h2.68c1,0,1.51-.41,1.51-1.3,0.07-2.27.07-4.67,0.07-8.24V967Z"/><path class="cls-1" d="M1923.67,965.27c0-2.33-.41-3.57-3.84-4.12-0.48-.07-0.62-0.21-0.62-0.48v-0.62a0.56,0.56,0,0,1,.48-0.48,56.3,56.3,0,0,0,7.42-3.36,2.82,2.82,0,0,1,1.3-.41c0.34,0,.41.34,0.34,0.82-0.14,1.17-.14,5.49-0.14,11.19v7.48c0,2.68,0,5.15.07,5.91,0.14,1.3.34,1.79,1.1,1.79h3.16c0.55,0,.69.21,0.69,0.62v1.17c0,0.48-.14.69-0.62,0.69s-3.71-.21-6.59-0.21c-4,0-6.66.21-7.42,0.21a0.48,0.48,0,0,1-.55-0.55v-1.37c0-.41.21-0.55,0.69-0.55h3.37c0.75,0,1-.27,1.1-1.37,0.07-2.06.07-4.19,0.07-6.25V965.27Zm-3.23-21.08a4.05,4.05,0,0,1,4.33-3.85,3.62,3.62,0,0,1,3.71,3.64,3.93,3.93,0,0,1-4.12,4.05A4.18,4.18,0,0,1,1920.44,944.19Z"/><path class="cls-1" d="M1942.89,967a17.67,17.67,0,0,0-.21,3.3c0,6.73,4.26,11.81,9.75,11.81a9.3,9.3,0,0,0,8.31-4.67,0.56,0.56,0,0,1,.62-0.34l0.89,0.48c0.21,0.07.34,0.27,0,1-1.24,2.75-4.81,7.49-10.92,7.49-3.91,0-8.24-1.17-10.78-4.88-2.4-3.5-3-6-3-10.85a15.46,15.46,0,0,1,4.33-10.92c3-3,6.39-3.64,9.82-3.64,7.9,0,10.09,7.42,10.09,10.09,0,1-.82,1.1-1.92,1.1h-17Zm10.92-2.06c1.3,0,1.85-.34,1.85-1,0-1.58-.82-6.11-5.29-6.11-3,0-5.91,2-7.21,7.07h10.64Z"/><path class="cls-1" d="M1968.71,984.09a1.25,1.25,0,0,1-.41-1l-1.17-6.52a0.44,0.44,0,0,1,.41-0.55l0.89-.21a0.51,0.51,0,0,1,.62.41l1.72,3.36c1.37,2.54,2.33,4.26,6,4.26,2.4,0,5.42-1.44,5.42-4.67s-1.51-4.87-6.66-6.32c-4.05-1.17-8.1-3.3-8.1-8.72,0-4.74,4.46-8.38,9.61-8.38a12.79,12.79,0,0,1,6.32,1.44c1,0.48,1.17.82,1.24,1.24l1,4.81a0.64,0.64,0,0,1-.48.62l-0.82.27a0.49,0.49,0,0,1-.62-0.34l-2.33-3.16a5.25,5.25,0,0,0-4.81-2.68c-2.61,0-5.29,1.58-5.29,4.53,0,4,3.23,4.74,6.59,5.7,5,1.44,8.17,3.5,8.24,8.79-0.07,5.56-4.6,9.06-10.44,9.06A12.92,12.92,0,0,1,1968.71,984.09Z"/><path class="cls-1" d="M1817.17,1066.63c0-1.58,1.17-4.74,4.05-12.43l2-5.36a16.14,16.14,0,0,0,1.24-4.05,0.85,0.85,0,0,0-1-.89c-1.17,0-4.39,3.71-5.49,4.81a0.49,0.49,0,0,1-.75.07l-0.55-.62c-0.27-.21-0.41-0.34-0.21-0.62s7.28-8.65,11.67-8.45a1.6,1.6,0,0,1,1.65,1.72c0,1.24-1.1,4.33-2.33,7.62l-4,10.44a16.73,16.73,0,0,0-1.24,4.53,1,1,0,0,0,.75,1.17c1.44-.27,5.15-4.19,5.49-4.81,0.14-.21.41-0.21,0.75,0.14l0.55,0.48a0.58,0.58,0,0,1,.14.82c-0.41.55-5.91,7.14-11.6,7.14C1817.65,1068.27,1817.17,1067.73,1817.17,1066.63Zm8.65-40a3.43,3.43,0,0,1,3.57-3.43,3.38,3.38,0,0,1,3.64,3.3,3.53,3.53,0,0,1-3.64,3.43A3.36,3.36,0,0,1,1825.82,1026.6Z"/><path class="cls-1" d="M1840.1,1035.66a0.72,0.72,0,0,1,.69-0.89c1.51-.41,4.94-2.47,4.94-5.36a4.14,4.14,0,0,0-1.44-3.16c-0.34-.27-1.79-1.3-1.79-2.75a2.74,2.74,0,0,1,2.75-2.88c2.88,0,4.46,3.85,4.46,6,0,7.28-7.69,9.54-8.86,9.54C1840.51,1036.21,1840.24,1036.35,1840.1,1035.66Z"/><path class="cls-1" d="M1854,1043.42a3.6,3.6,0,0,0-3.78,3.57,2.29,2.29,0,0,0,1.51,2,2.62,2.62,0,0,1,1.51,2.06,2.28,2.28,0,0,1-2.54,2.27c-1.3,0-3.16-1-3.16-3.91a11.72,11.72,0,0,1,2.68-6.66c1.37-1.51,2.88-3.3,7.83-3.3a69.4,69.4,0,0,0,8.58-.34c0.89,0,1.58.41,0.89,1.3-1.44,1.79-8.1,11.06-8.1,17.92,0,4.67,2.47,6.39,4.88,6.39,5.9,0,11.88-9.27,11.88-16.21a9.25,9.25,0,0,0-.55-3.57,7.92,7.92,0,0,1-1-2.82,2.8,2.8,0,0,1,3.09-3c1.92,0,2.68,2,2.68,3.64a36.27,36.27,0,0,1-4.53,15.38c-3.09,5.36-8.65,10.23-14.28,10.23-3.43,0-6.8-2.13-6.8-7.07,0-6.39,5.7-14.83,9.68-19.5l-0.48-.21c-1.44,1.24-5.08,1.85-6.39,1.85H1854Z"/><path class="cls-1" d="M1882.4,1061.61c0-5.77,3.78-13,8.79-17.92,2.2-2.2,5.91-4.6,9.2-4.6a3.68,3.68,0,0,1,3.91,3.64c0,3.36-2.54,6.94-6.39,8.93a28,28,0,0,1-10,2.82,18.68,18.68,0,0,0-.89,6.32c0,3.09,2.27,4.33,3.57,4.33,3.36,0,6.39-2.54,7.83-4.87a0.35,0.35,0,0,1,.62-0.07l0.76,0.62c0.34,0.21.34,0.41,0.07,0.62-1.72,2.4-5.84,6.94-11.12,6.94C1884.32,1068.34,1882.4,1066.15,1882.4,1061.61Zm6.11-9.13c2.4,0.21,11.4-2.68,11.4-7.76,0-1.37-.69-2.61-2.2-2.61C1893.32,1042.11,1889.06,1050,1888.51,1052.48Z"/><path class="cls-1" d="M1924.08,1067.66c-0.76,0-.89-0.14-0.76-0.62l4.88-12.7c1.65-4.26,3.57-9.2,3.57-10.37a1,1,0,0,0-1-1.17c-1.3,0-4.6,3.3-5.77,4.6-0.21.21-.41,0.21-0.69-0.07l-0.62-.62c-0.27-.27-0.34-0.41-0.14-0.69,1-1.24,6.11-6.93,11.06-6.93a2,2,0,0,1,2.2,2.06c0,2.13-3,8.65-3.5,10.23l0.27,0.14c2.06-3.3,9.54-12.43,15.66-12.43,2.06,0,3.43,1,3.43,2.81,0,3-1.58,6.59-3.85,12.15-1.85,4.53-3.5,8.38-3.5,9.48a0.85,0.85,0,0,0,.82.89c1,0,4.05-2.54,4.94-3.5a0.49,0.49,0,0,1,.75.14l0.48,0.55c0.28,0.27.34,0.41,0.07,0.75-0.82,1.1-6.39,6-11,6a1.38,1.38,0,0,1-1.65-1.37c0-1.3,2.47-6.73,4.6-12.63,1-2.68,3.43-8.38,3.43-9.89a1.46,1.46,0,0,0-1.72-1.58c-2.68,0-9.48,6.32-12.5,11.19a39.91,39.91,0,0,0-4.12,8.58l-1.72,4.6c-0.14.27-.27,0.41-1,0.41h-2.68Z"/><path class="cls-1" d="M1957.8,1061.61c0-5.77,3.78-13,8.79-17.92,2.2-2.2,5.91-4.6,9.2-4.6a3.68,3.68,0,0,1,3.91,3.64c0,3.36-2.54,6.94-6.39,8.93a28,28,0,0,1-10,2.82,18.71,18.71,0,0,0-.89,6.32c0,3.09,2.27,4.33,3.57,4.33,3.36,0,6.39-2.54,7.83-4.87a0.35,0.35,0,0,1,.62-0.07l0.76,0.62c0.34,0.21.34,0.41,0.07,0.62-1.72,2.4-5.84,6.94-11.12,6.94C1959.72,1068.34,1957.8,1066.15,1957.8,1061.61Zm6.11-9.13c2.4,0.21,11.4-2.68,11.4-7.76,0-1.37-.69-2.61-2.2-2.61C1968.72,1042.11,1964.46,1050,1963.91,1052.48Z"/><path class="cls-1" d="M1989,1043.42a3.6,3.6,0,0,0-3.78,3.57,2.29,2.29,0,0,0,1.51,2,2.62,2.62,0,0,1,1.51,2.06,2.28,2.28,0,0,1-2.54,2.27c-1.3,0-3.16-1-3.16-3.91a11.72,11.72,0,0,1,2.68-6.66c1.37-1.51,2.88-3.3,7.83-3.3a69.4,69.4,0,0,0,8.58-.34c0.89,0,1.58.41,0.89,1.3-1.44,1.79-8.1,11.06-8.1,17.92,0,4.67,2.47,6.39,4.88,6.39,5.91,0,11.88-9.27,11.88-16.21a9.23,9.23,0,0,0-.55-3.57,7.92,7.92,0,0,1-1-2.82,2.8,2.8,0,0,1,3.09-3c1.92,0,2.68,2,2.68,3.64a36.27,36.27,0,0,1-4.53,15.38c-3.09,5.36-8.65,10.23-14.28,10.23-3.43,0-6.8-2.13-6.8-7.07,0-6.39,5.7-14.83,9.68-19.5l-0.48-.21c-1.44,1.24-5.08,1.85-6.39,1.85H1989Z"/><path class="cls-1" d="M2017.4,1061.61c0-5.77,3.78-13,8.79-17.92,2.2-2.2,5.9-4.6,9.2-4.6a3.68,3.68,0,0,1,3.91,3.64c0,3.36-2.54,6.94-6.39,8.93a28,28,0,0,1-10,2.82,18.69,18.69,0,0,0-.89,6.32c0,3.09,2.27,4.33,3.57,4.33,3.36,0,6.39-2.54,7.83-4.87a0.35,0.35,0,0,1,.62-0.07l0.76,0.62c0.34,0.21.34,0.41,0.07,0.62-1.72,2.4-5.84,6.94-11.12,6.94C2019.32,1068.34,2017.4,1066.15,2017.4,1061.61Zm6.11-9.13c2.4,0.21,11.4-2.68,11.4-7.76,0-1.37-.69-2.61-2.2-2.61C2028.32,1042.11,2024.06,1050,2023.51,1052.48Z"/><path class="cls-1" d="M2043.29,1067.66c-0.48,0-.76-0.28-0.62-0.62l3.85-11.12c1.24-3.84,3.36-11.05,3.36-12a1.09,1.09,0,0,0-1.17-1c-1.37,0-4.46,3.09-5.42,4.26a0.36,0.36,0,0,1-.55,0l-0.69-.69a0.42,0.42,0,0,1,0-.55c1.44-2.13,5.56-6.8,10.23-6.8,1.37,0,1.92,1.17,1.92,2.4s-1.1,5.15-2.47,9.75l0.34,0.14c1.85-3.84,7.35-12.29,11.19-12.29a3,3,0,0,1,3.23,3.09,3,3,0,0,1-2.68,3.16,2.22,2.22,0,0,1-1.72-.69,2.13,2.13,0,0,0-1.79-.82c-1.85,0-5.7,5.91-8.45,10.44a25.4,25.4,0,0,0-2.68,6l-2.27,6.93c-0.14.48-.34,0.48-0.89,0.48h-2.75Z"/><path class="cls-1" d="M2081.05,1067.66c-0.41,0-.55-0.21-0.48-0.34l15.72-38.93a8.69,8.69,0,0,0,.89-3.37c0-.82-1-1.37-2.27-1.37h-2.13c-0.41,0-.75-0.21-0.62-0.62l0.34-1.17a0.65,0.65,0,0,1,.76-0.55h9.27a0.7,0.7,0,0,1,.82.82,8,8,0,0,1-.62,2.06L2092,1049.46l0.34,0.27c3.43-4.87,8-10.64,13.6-10.64,3.16,0,4.74,2.61,4.74,5.77,0,5.56-2.33,11.47-4.74,15.93-2.75,5.15-6.45,9.06-10.3,9.06a3.31,3.31,0,0,1-3.5-3c0-1.58,1-3.36,2.47-3.36a2.45,2.45,0,0,1,2.4,2.06,1.35,1.35,0,0,0,1.17,1.37c1.51,0,3.78-4.46,5.08-8a40.37,40.37,0,0,0,2.75-12.43c0-1.72-.14-3.85-2.06-3.85-3.64,0-9.68,7.14-11.54,9.48a32.92,32.92,0,0,0-4.53,8l-2.88,7a0.83,0.83,0,0,1-1,.48h-3Z"/><path class="cls-1" d="M2114,1061.61c0-5.77,3.78-13,8.79-17.92,2.2-2.2,5.91-4.6,9.2-4.6a3.68,3.68,0,0,1,3.91,3.64c0,3.36-2.54,6.94-6.39,8.93a28,28,0,0,1-10,2.82,18.69,18.69,0,0,0-.89,6.32c0,3.09,2.27,4.33,3.57,4.33,3.36,0,6.39-2.54,7.83-4.87a0.35,0.35,0,0,1,.62-0.07l0.76,0.62c0.34,0.21.34,0.41,0.07,0.62-1.72,2.4-5.84,6.94-11.12,6.94C2115.94,1068.34,2114,1066.15,2114,1061.61Zm6.11-9.13c2.4,0.21,11.4-2.68,11.4-7.76,0-1.37-.69-2.61-2.2-2.61C2124.93,1042.11,2120.68,1050,2120.13,1052.48Z"/><path class="cls-1" d="M2166.2,1039.09c0.27,0,.34.34,0.21,0.62-1.3,2.82-4.81,12.29-5.15,13.39s-3.3,9.68-3.3,10.3a0.71,0.71,0,0,0,.75.82c0.82,0,4.33-3.57,4.81-4.19,0.21-.21.41-0.34,0.55-0.14l0.62,0.69c0.21,0.21.28,0.34,0.14,0.55-0.75,1.37-6.73,7.21-10.64,7.21a1.17,1.17,0,0,1-1.44-1.17c0-1,.69-3.16,3.3-10.44l-0.34-.14c-2.88,4.39-9.82,11.74-14.69,11.74-1.58,0-3.71-1.3-3.71-4.39,0-10,11.26-24.86,19.64-24.86,2.88,0,4.19,1.24,4.88,2.33l1.3-1.85a0.93,0.93,0,0,1,.69-0.48h2.4Zm-8.65,11.95a12.87,12.87,0,0,0,1.65-5.7c0-1.85-.69-4.05-3.23-4.05-6.32,0-13.67,14.49-13.67,21,0,1.58.69,2.4,1.85,2.4C2147.59,1064.7,2156.31,1053.58,2157.55,1051Z"/><path class="cls-1" d="M2170.8,1067.66c-0.48,0-.75-0.28-0.62-0.62l3.85-11.12c1.24-3.84,3.36-11.05,3.36-12a1.09,1.09,0,0,0-1.17-1c-1.37,0-4.46,3.09-5.42,4.26a0.36,0.36,0,0,1-.55,0l-0.69-.69a0.42,0.42,0,0,1,0-.55c1.44-2.13,5.56-6.8,10.23-6.8,1.37,0,1.92,1.17,1.92,2.4s-1.1,5.15-2.47,9.75l0.34,0.14c1.85-3.84,7.35-12.29,11.19-12.29a3,3,0,0,1,3.23,3.09,3,3,0,0,1-2.68,3.16,2.22,2.22,0,0,1-1.72-.69,2.12,2.12,0,0,0-1.79-.82c-1.85,0-5.7,5.91-8.45,10.44a25.44,25.44,0,0,0-2.68,6l-2.27,6.93c-0.14.48-.34,0.48-0.89,0.48h-2.75Z"/><path class="cls-1" d="M2219.55,1023.64c-0.55,0-.62-0.27-0.55-0.48l0.41-1.44c0.07-.27.21-0.41,0.82-0.41h8.45a0.8,0.8,0,0,1,.82,1.24c-1,2.4-13,34.54-14.21,38.66-0.62,2.13-.69,3.16.28,3.16,1.17,0,4.46-3.16,4.81-3.57a0.49,0.49,0,0,1,.76.07l0.69,0.69a0.45,0.45,0,0,1,0,.69c-0.48.62-6.39,6.11-10,6.11-1.1,0-1.85-.34-1.85-1.58s1.51-6,3-10l-0.55-.14c-3.36,5.36-9.82,11.67-14.49,11.67a4.25,4.25,0,0,1-4.39-4.53c0-5.42,3.85-13.6,9.48-19.16,2.2-2.13,6.18-5.56,10.78-5.56a5.47,5.47,0,0,1,4.33,2.27l5.29-15c0.48-1.3.14-2.68-1.72-2.68h-2.13Zm-8.1,31.79c1.92-2.61,4.46-6.94,4.46-9.61,0-3.23-1.44-4.53-3.64-4.53-6.46,0-13.73,15-13.73,21.35a2,2,0,0,0,2,2.2C2203.42,1064.84,2208.7,1059.21,2211.45,1055.43Z"/><path class="cls-1" d="M1819,1130.08c0-2.33-.41-3.57-3.85-4.12-0.48-.07-0.62-0.21-0.62-0.48v-0.62a0.56,0.56,0,0,1,.48-0.48,56,56,0,0,0,7.42-3.36,2.84,2.84,0,0,1,1.3-.41c0.34,0,.41.34,0.34,0.82-0.14,1.17-.14,5.49-0.14,11.19v7.48c0,2.68,0,5.15.07,5.91,0.14,1.3.34,1.79,1.1,1.79h3.16c0.55,0,.69.21,0.69,0.62v1.17c0,0.48-.14.69-0.62,0.69s-3.71-.21-6.59-0.21c-4,0-6.66.21-7.42,0.21a0.48,0.48,0,0,1-.55-0.55v-1.37c0-.41.21-0.55,0.69-0.55h3.37c0.75,0,1-.27,1.1-1.37,0.07-2.06.07-4.19,0.07-6.25v-10.09Zm-3.23-21.08a4.05,4.05,0,0,1,4.33-3.84,3.62,3.62,0,0,1,3.71,3.64,3.93,3.93,0,0,1-4.12,4.05A4.18,4.18,0,0,1,1815.79,1109Z"/><path class="cls-1" d="M1861.11,1146.35a1.29,1.29,0,0,0,1.51,1.44h2.2c0.62,0,.76.21,0.76,0.62v1.1c0,0.48-.14.75-0.55,0.75s-2.61-.21-6.52-0.21c-3.5,0-5.7.21-6.18,0.21s-0.55-.21-0.55-0.75v-1.1c0-.48.21-0.62,0.89-0.62h2c0.75,0,1.3-.34,1.37-1.58,0.07-1.79.14-4,.14-5.77v-9.06c0-2.75,0-4.74-2-6.18-1.65-1.24-3.3-1.24-5-1.24a8.05,8.05,0,0,0-5.56,2.68,6.73,6.73,0,0,0-1.58,4.67v14.21c0,1.85.21,2.27,1.65,2.27h1.72a0.57,0.57,0,0,1,.69.69v1.17c0,0.41-.14.62-0.48,0.62s-2.33-.21-6-0.21-5.7.21-6.11,0.21-0.48-.21-0.48-0.62v-1.24c0-.41.14-0.62,0.69-0.62h2a1.13,1.13,0,0,0,1.37-1.37v-16.07a4.23,4.23,0,0,0-2.82-4.05l-0.55-.27a0.66,0.66,0,0,1-.55-0.62v-0.34a0.8,0.8,0,0,1,.62-0.69l5.91-3.3a3.62,3.62,0,0,1,1.24-.48c0.34,0,.48.27,0.55,0.82l0.48,4.19h0.14c2-2.47,6-5,9.41-5a10.6,10.6,0,0,1,5.84,1.51,10,10,0,0,1,3.78,6.52v17.71Z"/><path class="cls-1" d="M1909.46,1147a3.16,3.16,0,0,0,2.4-1c0.27-.34.41-0.48,0.69-0.27l0.69,0.55a0.91,0.91,0,0,1-.07,1.24,5.67,5.67,0,0,1-5.36,3.36c-2.47,0-4.26-1.79-4.88-4.6h-0.14a14.81,14.81,0,0,1-6.8,4.19,12.9,12.9,0,0,1-4.05.41c-1.65,0-4.12-1.37-4.12-5.7,0-3.16,1.44-5.91,6.87-8.31,3.09-1.37,6.66-3,7.76-4v-4.39c-0.14-1.17-.21-3-1-3.84a5.22,5.22,0,0,0-4.12-1.51,7.69,7.69,0,0,0-4.46,1.44c-1,.89-0.34,1.92-0.34,3.16,0,2.4-.82,3.91-3.64,3.91-1.1,0-1.65-.62-1.65-2.2,0-2.2,1.92-4.81,4.74-6.46a15.14,15.14,0,0,1,8.38-2.4c3.23,0,4.53,1,5.49,1.85,1.44,1.44,1.51,3,1.51,4.88v14.56C1907.4,1145.8,1908.22,1147,1909.46,1147Zm-7.07-12.08c-2.47,1.85-9.2,3.23-9.2,8.93,0,2.54,1.51,3.78,3.57,3.78s5.63-2.4,5.63-4.26V1135Z"/><path class="cls-1" d="M1933.7,1124.65c-0.34,0-.48-0.14-0.34-0.76l0.28-2.06c0.07-.41.27-0.48,0.82-0.48h4v-1.24c0-6.8,1.92-11.26,4.6-14.28,3.64-4,7.42-5.42,11.26-5.42,3.23,0,6.25,1.24,6.25,3.85a3.28,3.28,0,0,1-2.88,3,4.38,4.38,0,0,1-1.92-.41,7.29,7.29,0,0,1-1.65-1.58,3.78,3.78,0,0,0-3.16-1.58,6.11,6.11,0,0,0-5.15,2.4c-2.54,3.23-2.4,9.2-2.4,14v1.3h8.31a0.5,0.5,0,0,1,.48.69l-0.34,2.27c-0.07.27-.34,0.34-0.89,0.34h-7.55v6.18c0,8.1,0,14.42.07,15.17,0.14,1.17.34,1.79,1.79,1.79h3.91c0.62,0,.76.14,0.76,0.55v1.1c0,0.55-.14.82-0.48,0.82s-3-.21-8.24-0.21c-3.78,0-7.28.21-7.83,0.21s-0.55-.14-0.55-0.48v-1.51c0-.34.14-0.48,0.69-0.48h3.3c1.3,0,1.58-.82,1.65-2.4v-20.74h-4.74Z"/><path class="cls-1" d="M1977.5,1147a3.16,3.16,0,0,0,2.4-1c0.28-.34.41-0.48,0.69-0.27l0.69,0.55a0.91,0.91,0,0,1-.07,1.24,5.67,5.67,0,0,1-5.36,3.36c-2.47,0-4.26-1.79-4.87-4.6h-0.14a14.8,14.8,0,0,1-6.8,4.19,12.9,12.9,0,0,1-4.05.41c-1.65,0-4.12-1.37-4.12-5.7,0-3.16,1.44-5.91,6.87-8.31,3.09-1.37,6.66-3,7.76-4v-4.39c-0.14-1.17-.21-3-1-3.84a5.22,5.22,0,0,0-4.12-1.51,7.7,7.7,0,0,0-4.46,1.44c-1,.89-0.34,1.92-0.34,3.16,0,2.4-.82,3.91-3.64,3.91-1.1,0-1.65-.62-1.65-2.2,0-2.2,1.92-4.81,4.74-6.46a15.14,15.14,0,0,1,8.38-2.4c3.23,0,4.53,1,5.49,1.85,1.44,1.44,1.51,3,1.51,4.88v14.56C1975.44,1145.8,1976.27,1147,1977.5,1147Zm-7.07-12.08c-2.47,1.85-9.2,3.23-9.2,8.93,0,2.54,1.51,3.78,3.57,3.78s5.63-2.4,5.63-4.26V1135Z"/><path class="cls-1" d="M2007.37,1132.48c0-5.08-1-6.39-2.06-7.42a7.38,7.38,0,0,0-4.39-1.24,8,8,0,0,0-6.59,4,8.16,8.16,0,0,0-1,4.6V1146c0,1.1.41,1.79,1.37,1.79h2.47c0.62,0,.69.14,0.69,0.62v1.1c0,0.48-.07.75-0.55,0.75s-2.47-.21-6.25-0.21-5.84.21-6.39,0.21-0.55-.14-0.55-0.62v-1.24c0-.55.14-0.62,0.82-0.62h2.33c0.62,0,1-.41,1-1.72s0.07-2.4.07-3.57v-12.22a3.48,3.48,0,0,0-1.92-3.5l-1.44-.75a0.7,0.7,0,0,1-.48-0.55v-0.55a0.86,0.86,0,0,1,.41-0.55l6-3.09a3.4,3.4,0,0,1,1.3-.41,0.82,0.82,0,0,1,.62,1l0.27,4h0.21a13.34,13.34,0,0,1,10.09-5.22,8.33,8.33,0,0,1,7.76,5.29h0.34c2.06-2.68,6-5.29,10.09-5.29,2.4,0,4.53.41,6.18,2.06s3.3,3.16,3.3,8.45v15.31a1.25,1.25,0,0,0,1.44,1.37h1.85c0.62,0,.75.14,0.75,0.62v1.17c0,0.48-.14.69-0.48,0.69s-2.4-.21-5.7-0.21-5.91.21-6.39,0.21-0.55-.21-0.55-0.69v-1.17c0-.48.14-0.62,0.89-0.62h1.72a1.24,1.24,0,0,0,1.37-1.3c0.14-1.58.14-4.05,0.14-5.56v-10.16c0-2.27-.41-4.26-2-5.49a8.26,8.26,0,0,0-5.08-1.44,7.74,7.74,0,0,0-6,3.57c-1,2-1,3.85-1,6.94v11.88a1.33,1.33,0,0,0,1.37,1.58H2016c0.62,0,.76.14,0.76,0.62v1.1c0,0.55-.14.75-0.48,0.75s-2.27-.21-6.11-0.21-6,.21-6.46.21-0.48-.21-0.48-0.69v-1.1c0-.55.07-0.69,0.69-0.69h2c1.1,0,1.51-.27,1.51-1.17v-14.15Z"/><path class="cls-1" d="M2044,1130.08c0-2.33-.41-3.57-3.84-4.12-0.48-.07-0.62-0.21-0.62-0.48v-0.62a0.57,0.57,0,0,1,.48-0.48,56,56,0,0,0,7.42-3.36,2.83,2.83,0,0,1,1.3-.41c0.34,0,.41.34,0.34,0.82-0.14,1.17-.14,5.49-0.14,11.19v7.48c0,2.68,0,5.15.07,5.91,0.14,1.3.34,1.79,1.1,1.79h3.16c0.55,0,.69.21,0.69,0.62v1.17a0.55,0.55,0,0,1-.62.69c-0.55,0-3.71-.21-6.59-0.21-4,0-6.66.21-7.42,0.21a0.48,0.48,0,0,1-.55-0.55v-1.37c0-.41.21-0.55,0.69-0.55h3.36c0.75,0,1-.27,1.1-1.37,0.07-2.06.07-4.19,0.07-6.25v-10.09Zm-3.23-21.08a4,4,0,0,1,4.33-3.84,3.62,3.62,0,0,1,3.71,3.64,3.93,3.93,0,0,1-4.12,4.05A4.18,4.18,0,0,1,2040.82,1109Z"/><path class="cls-1" d="M2066.91,1129.6c0,3.57,0,13.94.07,16.07,0.07,1.17.34,2.13,1.79,2.13h3.09c0.62,0,.75.21,0.75,0.62v1.17c0,0.41-.14.69-0.41,0.69-0.48,0-3.5-.21-7.76-0.21s-7.14.21-7.76,0.21c-0.34,0-.48-0.27-0.48-0.69v-1.17c0-.48.14-0.62,0.89-0.62h3.3a1.54,1.54,0,0,0,1.51-1.72c0.07-2.13.07-13.94,0.07-17.92v-4.33c0-4.87-.07-11.12-0.21-12.91-0.14-2.33-1.24-3.43-3.43-4.12l-1.37-.48c-0.34-.14-0.41-0.21-0.41-0.34v-0.55a0.68,0.68,0,0,1,.62-0.48,62.2,62.2,0,0,0,8-4,2.54,2.54,0,0,1,1.44-.55c0.48,0,.62.34,0.55,1.24-0.07,3.78-.28,18.06-0.28,21.83v6.11Z"/><path class="cls-1" d="M2080,1130.08c0-2.33-.41-3.57-3.84-4.12-0.48-.07-0.62-0.21-0.62-0.48v-0.62a0.57,0.57,0,0,1,.48-0.48,56,56,0,0,0,7.42-3.36,2.83,2.83,0,0,1,1.3-.41c0.34,0,.41.34,0.34,0.82-0.14,1.17-.14,5.49-0.14,11.19v7.48c0,2.68,0,5.15.07,5.91,0.14,1.3.34,1.79,1.1,1.79h3.16c0.55,0,.69.21,0.69,0.62v1.17a0.55,0.55,0,0,1-.62.69c-0.55,0-3.71-.21-6.59-0.21-4,0-6.66.21-7.42,0.21a0.48,0.48,0,0,1-.55-0.55v-1.37c0-.41.21-0.55,0.69-0.55h3.36c0.75,0,1-.27,1.1-1.37,0.07-2.06.07-4.19,0.07-6.25v-10.09Zm-3.23-21.08a4.05,4.05,0,0,1,4.33-3.84,3.62,3.62,0,0,1,3.71,3.64,3.93,3.93,0,0,1-4.12,4.05A4.18,4.18,0,0,1,2076.73,1109Z"/><path class="cls-1" d="M2116.42,1147a3.16,3.16,0,0,0,2.4-1c0.27-.34.41-0.48,0.69-0.27l0.69,0.55a0.91,0.91,0,0,1-.07,1.24,5.67,5.67,0,0,1-5.36,3.36c-2.47,0-4.26-1.79-4.87-4.6h-0.14a14.81,14.81,0,0,1-6.8,4.19,12.9,12.9,0,0,1-4.05.41c-1.65,0-4.12-1.37-4.12-5.7,0-3.16,1.44-5.91,6.87-8.31,3.09-1.37,6.66-3,7.76-4v-4.39c-0.14-1.17-.21-3-1-3.84a5.22,5.22,0,0,0-4.12-1.51,7.69,7.69,0,0,0-4.46,1.44c-1,.89-0.34,1.92-0.34,3.16,0,2.4-.82,3.91-3.64,3.91-1.1,0-1.65-.62-1.65-2.2,0-2.2,1.92-4.81,4.74-6.46a15.14,15.14,0,0,1,8.38-2.4c3.23,0,4.53,1,5.49,1.85,1.44,1.44,1.51,3,1.51,4.88v14.56C2114.36,1145.8,2115.18,1147,2116.42,1147Zm-7.07-12.08c-2.47,1.85-9.2,3.23-9.2,8.93,0,2.54,1.51,3.78,3.57,3.78s5.63-2.4,5.63-4.26V1135Z"/><path class="cls-1" d="M2127.27,1131.79c0-3.5-.55-4.19-2.47-5.22l-1.3-.69c-0.41-.14-0.55-0.21-0.55-0.48V1125a0.69,0.69,0,0,1,.55-0.62l6.8-3.5a2.08,2.08,0,0,1,1-.27c0.41,0,.48.41,0.48,0.82l0.34,4.88h0.27c2.06-3.16,5.29-6,8.24-6,2.33,0,3.5,1.44,3.5,3a3.32,3.32,0,0,1-2.88,3.36,4.5,4.5,0,0,1-2-.55,4.42,4.42,0,0,0-2.27-.55,4.87,4.87,0,0,0-4.05,2.88,7.4,7.4,0,0,0-.69,2.2V1145c0,2.13.48,2.82,1.92,2.82h3.23c0.41,0,.48.21,0.48,0.62v1.24c0,0.41-.07.62-0.34,0.62s-3.57-.21-7.28-0.21c-4.26,0-7.14.21-7.55,0.21s-0.41-.14-0.41-0.69v-1.17c0-.48.14-0.62,0.75-0.62h2.68c1,0,1.51-.41,1.51-1.3,0.07-2.27.07-4.67,0.07-8.24v-6.46Z"/><path class="cls-1" d="M2177.33,1143.74h0.21c1.1-2.68,5.9-14.49,6.59-17.17,0.48-1.85,0-3-1.24-3h-1.37c-0.21,0-.28-0.34-0.28-0.69v-1.24c0-.41.14-0.55,0.41-0.55,1,0,2.47.21,5.49,0.21,2.68,0,4.33-.21,4.94-0.21s0.62,0.07.62,0.62v1.17c0,0.48,0,.69-0.34.69h-1.3a2.74,2.74,0,0,0-2.13.75c-1,1-4.46,8.51-5.49,11.06-0.82,2.06-5.9,13.6-6.18,14.08-0.55,1-.89,1.58-1.65,1.58s-1.1-.62-1.44-1.44l-5.36-13.94c-0.21-.55-3-8.45-3.5-9.54-0.89-2-1.58-2.54-2.82-2.54h-1.37c-0.34,0-.41-0.27-0.41-0.69v-1.24c0-.48.14-0.55,0.75-0.55s1.92,0.21,5.77.21c3.64,0,5.42-.21,6.18-0.21,0.55,0,.69.14,0.69,0.55v1.24c0,0.41-.07.69-0.48,0.69h-1.37a1.17,1.17,0,0,0-1.24,1.3c0,1.24,1.79,7,2.2,8.17S2176.57,1142.3,2177.33,1143.74Z"/><path class="cls-1" d="M2197,1146.15c-3.16-3.78-3.78-6.32-3.78-11.19a14.6,14.6,0,0,1,5.9-11.06,14.86,14.86,0,0,1,9.2-3.3,14.54,14.54,0,0,1,9.61,4,15.25,15.25,0,0,1,4.67,11.19c0,7.48-6.73,15.11-15.17,15.11A13.85,13.85,0,0,1,2197,1146.15Zm19.84-11.06c0-7.62-5.56-12.43-9.06-12.43a6.62,6.62,0,0,0-5.29,2.2c-2.68,2.75-3.64,5.56-3.64,10.78,0,3.84.41,6.45,2.61,9.61a7.6,7.6,0,0,0,6.8,3.57C2213.45,1148.82,2216.81,1142.44,2216.81,1135.09Z"/><path class="cls-1" d="M2232,1130.08c0-2.33-.41-3.57-3.84-4.12-0.48-.07-0.62-0.21-0.62-0.48v-0.62a0.56,0.56,0,0,1,.48-0.48,56,56,0,0,0,7.42-3.36,2.83,2.83,0,0,1,1.3-.41c0.34,0,.41.34,0.34,0.82-0.14,1.17-.14,5.49-0.14,11.19v7.48c0,2.68,0,5.15.07,5.91,0.14,1.3.34,1.79,1.1,1.79h3.16c0.55,0,.69.21,0.69,0.62v1.17c0,0.48-.14.69-0.62,0.69s-3.71-.21-6.59-0.21c-4,0-6.66.21-7.42,0.21a0.48,0.48,0,0,1-.55-0.55v-1.37c0-.41.21-0.55,0.69-0.55h3.36c0.75,0,1-.27,1.1-1.37,0.07-2.06.07-4.19,0.07-6.25v-10.09Zm-3.23-21.08a4.05,4.05,0,0,1,4.33-3.84,3.62,3.62,0,0,1,3.71,3.64,3.93,3.93,0,0,1-4.12,4.05A4.18,4.18,0,0,1,2228.76,1109Z"/><path class="cls-1" d="M2250.87,1133.44a19.34,19.34,0,0,0,3.5,10.44,8.84,8.84,0,0,0,7.48,3.5,9.41,9.41,0,0,0,7.55-3,0.36,0.36,0,0,1,.55,0l0.69,0.69a0.54,0.54,0,0,1,0,.89,15.89,15.89,0,0,1-11.05,4.88c-3.64,0-7.48-.82-10.64-4.81a14.22,14.22,0,0,1-3.09-9.34c0-8,5.63-16.14,14.69-16.14,7.14,0,9.34,4.12,9.34,5.56a2.34,2.34,0,0,1-2.54,2.4c-1.58,0-2.75-.89-3.78-2.75-1.51-2.82-3-3-4.6-3C2255.06,1122.8,2250.87,1126.37,2250.87,1133.44Z"/><path class="cls-1" d="M2279.44,1131.79a17.69,17.69,0,0,0-.21,3.3c0,6.73,4.26,11.81,9.75,11.81a9.3,9.3,0,0,0,8.31-4.67,0.56,0.56,0,0,1,.62-0.34l0.89,0.48c0.21,0.07.34,0.28,0,1-1.24,2.75-4.81,7.48-10.92,7.48-3.91,0-8.24-1.17-10.78-4.87-2.4-3.5-3-6-3-10.85a15.45,15.45,0,0,1,4.33-10.92c3-3,6.39-3.64,9.82-3.64,7.9,0,10.09,7.42,10.09,10.09,0,1-.82,1.1-1.92,1.1h-17Zm10.92-2.06c1.3,0,1.85-.34,1.85-1,0-1.58-.82-6.11-5.29-6.11-3,0-5.9,2-7.21,7.07h10.64Z"/><path class="cls-1" d="M1819,370.87c0-2.33-.41-3.57-3.85-4.12-0.48-.07-0.62-0.21-0.62-0.48v-0.62a0.56,0.56,0,0,1,.48-0.48,56.24,56.24,0,0,0,7.42-3.36,2.84,2.84,0,0,1,1.3-.41c0.34,0,.41.34,0.34,0.82-0.14,1.17-.14,5.49-0.14,11.19v7.48c0,2.68,0,5.15.07,5.91,0.14,1.3.34,1.79,1.1,1.79h3.16c0.55,0,.69.21,0.69,0.62v1.17c0,0.48-.14.69-0.62,0.69s-3.71-.21-6.59-0.21c-4,0-6.66.21-7.42,0.21a0.48,0.48,0,0,1-.55-0.55v-1.37c0-.41.21-0.55,0.69-0.55h3.37c0.75,0,1-.28,1.1-1.37,0.07-2.06.07-4.19,0.07-6.25V370.87Zm-3.23-21.08a4.05,4.05,0,0,1,4.33-3.84,3.62,3.62,0,0,1,3.71,3.64,3.93,3.93,0,0,1-4.12,4.05A4.19,4.19,0,0,1,1815.79,349.79Z"/><path class="cls-1" d="M1872.92,387.83a3.16,3.16,0,0,0,2.4-1c0.27-.34.41-0.48,0.69-0.28l0.69,0.55a0.91,0.91,0,0,1-.07,1.24,5.67,5.67,0,0,1-5.36,3.37c-2.47,0-4.26-1.79-4.87-4.6h-0.14a14.81,14.81,0,0,1-6.8,4.19,12.9,12.9,0,0,1-4.05.41c-1.65,0-4.12-1.37-4.12-5.7,0-3.16,1.44-5.91,6.87-8.31,3.09-1.37,6.66-3,7.76-4v-4.39c-0.14-1.17-.21-3-1-3.85a5.22,5.22,0,0,0-4.12-1.51,7.69,7.69,0,0,0-4.46,1.44c-1,.89-0.34,1.92-0.34,3.16,0,2.4-.82,3.91-3.64,3.91-1.1,0-1.65-.62-1.65-2.2,0-2.2,1.92-4.81,4.74-6.45a15.14,15.14,0,0,1,8.38-2.4c3.23,0,4.53,1,5.49,1.85,1.44,1.44,1.51,3,1.51,4.88v14.56C1870.86,386.6,1871.69,387.83,1872.92,387.83Zm-7.07-12.08c-2.47,1.85-9.2,3.23-9.2,8.93,0,2.54,1.51,3.78,3.57,3.78s5.63-2.4,5.63-4.26v-8.45Z"/><path class="cls-1" d="M1902.79,373.27c0-5.08-1-6.39-2.06-7.42a7.38,7.38,0,0,0-4.39-1.24,8,8,0,0,0-6.59,4,8.16,8.16,0,0,0-1,4.6v13.6c0,1.1.41,1.79,1.37,1.79h2.47c0.62,0,.69.14,0.69,0.62v1.1c0,0.48-.07.75-0.55,0.75s-2.47-.21-6.25-0.21-5.84.21-6.39,0.21-0.55-.14-0.55-0.62V389.2c0-.55.14-0.62,0.82-0.62h2.33c0.62,0,1-.41,1-1.72s0.07-2.4.07-3.57V371.08a3.48,3.48,0,0,0-1.92-3.5l-1.44-.75a0.71,0.71,0,0,1-.48-0.55v-0.55a0.85,0.85,0,0,1,.41-0.55l6-3.09a3.4,3.4,0,0,1,1.3-.41,0.82,0.82,0,0,1,.62,1l0.27,4h0.21a13.35,13.35,0,0,1,10.09-5.22,8.33,8.33,0,0,1,7.76,5.29h0.34c2.06-2.68,6-5.29,10.09-5.29,2.4,0,4.53.41,6.18,2.06s3.3,3.16,3.3,8.45v15.31a1.25,1.25,0,0,0,1.44,1.37h1.85c0.62,0,.76.14,0.76,0.62v1.17c0,0.48-.14.69-0.48,0.69s-2.4-.21-5.7-0.21-5.9.21-6.39,0.21-0.55-.21-0.55-0.69V389.2c0-.48.14-0.62,0.89-0.62h1.72a1.24,1.24,0,0,0,1.37-1.3c0.14-1.58.14-4.05,0.14-5.56V371.56c0-2.27-.41-4.26-2-5.49a8.26,8.26,0,0,0-5.08-1.44,7.74,7.74,0,0,0-6,3.57c-1,2-1,3.84-1,6.93V387a1.33,1.33,0,0,0,1.37,1.58h2.33c0.62,0,.75.14,0.75,0.62v1.1c0,0.55-.14.75-0.48,0.75s-2.27-.21-6.11-0.21-6,.21-6.45.21-0.48-.21-0.48-0.69v-1.1c0-.55.07-0.69,0.69-0.69h2c1.1,0,1.51-.28,1.51-1.17V373.27Z"/><path class="cls-1" d="M1837.15,470.23a3.16,3.16,0,0,0,2.4-1c0.28-.34.41-0.48,0.69-0.27l0.69,0.55a0.91,0.91,0,0,1-.07,1.24,5.67,5.67,0,0,1-5.36,3.37c-2.47,0-4.26-1.79-4.87-4.6h-0.14a14.81,14.81,0,0,1-6.8,4.19,12.9,12.9,0,0,1-4.05.41c-1.65,0-4.12-1.37-4.12-5.7,0-3.16,1.44-5.91,6.87-8.31,3.09-1.37,6.66-3,7.76-4v-4.39c-0.14-1.17-.21-3-1-3.85a5.22,5.22,0,0,0-4.12-1.51,7.69,7.69,0,0,0-4.46,1.44c-1,.89-0.34,1.92-0.34,3.16,0,2.4-.82,3.91-3.64,3.91-1.1,0-1.65-.62-1.65-2.2,0-2.2,1.92-4.81,4.74-6.45a15.14,15.14,0,0,1,8.38-2.4c3.23,0,4.53,1,5.49,1.85,1.44,1.44,1.51,3,1.51,4.88v14.56C1835.09,469,1835.91,470.23,1837.15,470.23Zm-7.07-12.08c-2.47,1.85-9.2,3.23-9.2,8.93,0,2.54,1.51,3.78,3.57,3.78s5.63-2.4,5.63-4.26v-8.45Z"/><path class="cls-1" d="M1872.1,469.55a1.29,1.29,0,0,0,1.51,1.44h2.2c0.62,0,.76.21,0.76,0.62v1.1c0,0.48-.14.76-0.55,0.76s-2.61-.21-6.52-0.21c-3.5,0-5.7.21-6.18,0.21s-0.55-.21-0.55-0.76v-1.1c0-.48.21-0.62,0.89-0.62h2c0.75,0,1.3-.34,1.37-1.58,0.07-1.79.14-4,.14-5.77v-9.06c0-2.75,0-4.74-2-6.18-1.65-1.24-3.3-1.24-5-1.24a8.05,8.05,0,0,0-5.56,2.68,6.73,6.73,0,0,0-1.58,4.67v14.21c0,1.85.21,2.27,1.65,2.27h1.72a0.57,0.57,0,0,1,.69.69v1.17c0,0.41-.14.62-0.48,0.62s-2.33-.21-6-0.21-5.7.21-6.11,0.21-0.48-.21-0.48-0.62v-1.24c0-.41.14-0.62,0.69-0.62h2a1.13,1.13,0,0,0,1.37-1.37V453.55a4.23,4.23,0,0,0-2.82-4.05l-0.55-.28a0.66,0.66,0,0,1-.55-0.62v-0.34a0.79,0.79,0,0,1,.62-0.69l5.91-3.3a3.63,3.63,0,0,1,1.24-.48c0.34,0,.48.27,0.55,0.82l0.48,4.19h0.14c2-2.47,6-5,9.41-5a10.6,10.6,0,0,1,5.84,1.51,10,10,0,0,1,3.78,6.52v17.72Z"/><path class="cls-1" d="M1923.94,459.32c0,3.3,0,6.66.14,8.1,0.21,2.13,1,2.4,1.79,2.4a10.1,10.1,0,0,0,2.27-.21c0.55-.14.75,0,0.82,0.27l0.21,0.89a0.44,0.44,0,0,1-.34.62l-7.21,2.4a4.05,4.05,0,0,1-1.37.28c-0.27,0-.55-0.14-0.62-0.82l-0.55-4h-0.14a12.54,12.54,0,0,1-9.34,4.81,7.18,7.18,0,0,1-6.46-3.16c-2.82-3.64-2.68-5.91-2.68-13.46v-8c-0.07-1.92-1-2.4-2.61-2.61-1.17-.07-1.51-0.14-1.51-0.48V445.1c0-.41.14-0.55,0.76-0.55h6.11a3.55,3.55,0,0,0,1-.14c0.27,0,.55-0.07.75-0.07a0.71,0.71,0,0,1,.76.82c-0.07.62-.27,3.84-0.27,7.9V458c0,2.75-.69,7.14,1.51,10.3,1.72,2.47,3.64,2.61,5.49,2.61s4.6-1.79,5.91-3.43a3.74,3.74,0,0,0,.69-1.85V449.22c-0.14-1.92-1.24-2.27-3-2.4-1.17,0-1.51-.14-1.51-0.48v-1.17c0-.55.14-0.62,0.82-0.62h6.39a5.4,5.4,0,0,0,1.17-.14c0.34,0,.62-0.07.82-0.07a0.59,0.59,0,0,1,.62.69,60.67,60.67,0,0,0-.41,9.13v5.15Z"/><path class="cls-1" d="M1960.82,469.55a1.29,1.29,0,0,0,1.51,1.44h2.2c0.62,0,.76.21,0.76,0.62v1.1c0,0.48-.14.76-0.55,0.76s-2.61-.21-6.52-0.21c-3.5,0-5.7.21-6.18,0.21s-0.55-.21-0.55-0.76v-1.1c0-.48.21-0.62,0.89-0.62h2c0.76,0,1.3-.34,1.37-1.58,0.07-1.79.14-4,.14-5.77v-9.06c0-2.75,0-4.74-2-6.18-1.65-1.24-3.3-1.24-5-1.24a8.05,8.05,0,0,0-5.56,2.68,6.73,6.73,0,0,0-1.58,4.67v14.21c0,1.85.21,2.27,1.65,2.27h1.72a0.57,0.57,0,0,1,.69.69v1.17c0,0.41-.14.62-0.48,0.62s-2.33-.21-6-0.21-5.7.21-6.11,0.21-0.48-.21-0.48-0.62v-1.24c0-.41.14-0.62,0.69-0.62h2a1.13,1.13,0,0,0,1.37-1.37V453.55a4.23,4.23,0,0,0-2.82-4.05l-0.55-.28a0.66,0.66,0,0,1-.55-0.62v-0.34a0.8,0.8,0,0,1,.62-0.69l5.91-3.3a3.62,3.62,0,0,1,1.24-.48c0.34,0,.48.27,0.55,0.82l0.48,4.19h0.14c2-2.47,6-5,9.41-5a10.6,10.6,0,0,1,5.84,1.51,10,10,0,0,1,3.78,6.52v17.72Z"/><path class="cls-1" d="M1973.25,455c0-3.5-.55-4.19-2.47-5.22l-1.3-.69c-0.41-.14-0.55-0.21-0.55-0.48v-0.41a0.69,0.69,0,0,1,.55-0.62l6.8-3.5a2.07,2.07,0,0,1,1-.27c0.41,0,.48.41,0.48,0.82l0.34,4.88h0.27c2.06-3.16,5.29-6,8.24-6,2.33,0,3.5,1.44,3.5,3a3.32,3.32,0,0,1-2.88,3.37,4.51,4.51,0,0,1-2-.55,4.41,4.41,0,0,0-2.27-.55,4.87,4.87,0,0,0-4.05,2.88,7.41,7.41,0,0,0-.69,2.2v14.28c0,2.13.48,2.81,1.92,2.81h3.23c0.41,0,.48.21,0.48,0.62v1.24c0,0.41-.07.62-0.34,0.62s-3.57-.21-7.28-0.21c-4.26,0-7.14.21-7.55,0.21s-0.41-.14-0.41-0.69v-1.17c0-.48.14-0.62,0.76-0.62h2.68c1,0,1.51-.41,1.51-1.3,0.07-2.27.07-4.67,0.07-8.24V455Z"/><path class="cls-1" d="M1997.21,455a17.58,17.58,0,0,0-.21,3.3c0,6.73,4.26,11.81,9.75,11.81a9.3,9.3,0,0,0,8.31-4.67,0.56,0.56,0,0,1,.62-0.34l0.89,0.48c0.21,0.07.34,0.27,0,1-1.24,2.75-4.81,7.49-10.92,7.49-3.91,0-8.24-1.17-10.78-4.88-2.4-3.5-3-6-3-10.85a15.46,15.46,0,0,1,4.33-10.92c3-3,6.39-3.64,9.82-3.64,7.9,0,10.09,7.42,10.09,10.09,0,1-.82,1.1-1.92,1.1h-17Zm10.92-2.06c1.3,0,1.85-.34,1.85-1,0-1.58-.82-6.11-5.29-6.11-3,0-5.91,2-7.21,7.07h10.64Z"/><path class="cls-1" d="M2030.11,452.79c0,3.57,0,13.94.07,16.07,0.07,1.17.34,2.13,1.79,2.13H2035c0.62,0,.76.21,0.76,0.62v1.17c0,0.41-.14.69-0.41,0.69-0.48,0-3.5-.21-7.76-0.21s-7.14.21-7.76,0.21c-0.34,0-.48-0.28-0.48-0.69v-1.17c0-.48.14-0.62,0.89-0.62h3.3a1.54,1.54,0,0,0,1.51-1.72c0.07-2.13.07-13.94,0.07-17.92V447c0-4.87-.07-11.12-0.21-12.91-0.14-2.33-1.24-3.43-3.43-4.12l-1.37-.48c-0.34-.14-0.41-0.21-0.41-0.34v-0.55a0.68,0.68,0,0,1,.62-0.48,62.07,62.07,0,0,0,8-4,2.54,2.54,0,0,1,1.44-.55c0.48,0,.62.34,0.55,1.24-0.07,3.78-.27,18.06-0.27,21.84v6.11Z"/><path class="cls-1" d="M2043.15,453.27c0-2.33-.41-3.57-3.84-4.12-0.48-.07-0.62-0.21-0.62-0.48v-0.62a0.56,0.56,0,0,1,.48-0.48,56.3,56.3,0,0,0,7.42-3.36,2.82,2.82,0,0,1,1.3-.41c0.34,0,.41.34,0.34,0.82-0.14,1.17-.14,5.49-0.14,11.19v7.48c0,2.68,0,5.15.07,5.91,0.14,1.3.34,1.79,1.1,1.79h3.16c0.55,0,.69.21,0.69,0.62v1.17c0,0.48-.14.69-0.62,0.69s-3.71-.21-6.59-0.21c-4,0-6.66.21-7.42,0.21a0.48,0.48,0,0,1-.55-0.55v-1.37c0-.41.21-0.55,0.69-0.55H2042c0.75,0,1-.27,1.1-1.37,0.07-2.06.07-4.19,0.07-6.25V453.27Zm-3.23-21.08a4.05,4.05,0,0,1,4.33-3.85A3.62,3.62,0,0,1,2048,432a3.93,3.93,0,0,1-4.12,4.05A4.18,4.18,0,0,1,2039.92,432.19Z"/><path class="cls-1" d="M2079.61,470.23a3.16,3.16,0,0,0,2.4-1c0.27-.34.41-0.48,0.69-0.27l0.69,0.55a0.91,0.91,0,0,1-.07,1.24,5.67,5.67,0,0,1-5.36,3.37c-2.47,0-4.26-1.79-4.87-4.6H2073a14.81,14.81,0,0,1-6.8,4.19,12.9,12.9,0,0,1-4.05.41c-1.65,0-4.12-1.37-4.12-5.7,0-3.16,1.44-5.91,6.87-8.31,3.09-1.37,6.66-3,7.76-4v-4.39c-0.14-1.17-.21-3-1-3.85a5.22,5.22,0,0,0-4.12-1.51,7.69,7.69,0,0,0-4.46,1.44c-1,.89-0.34,1.92-0.34,3.16,0,2.4-.82,3.91-3.64,3.91-1.1,0-1.65-.62-1.65-2.2,0-2.2,1.92-4.81,4.74-6.45a15.14,15.14,0,0,1,8.38-2.4c3.23,0,4.53,1,5.49,1.85,1.44,1.44,1.51,3,1.51,4.88v14.56C2077.55,469,2078.38,470.23,2079.61,470.23Zm-7.07-12.08c-2.47,1.85-9.2,3.23-9.2,8.93,0,2.54,1.51,3.78,3.57,3.78s5.63-2.4,5.63-4.26v-8.45Z"/><path class="cls-1" d="M2088.75,436.24c0-4.6-.75-5.56-3.23-6.39l-0.69-.21c-0.75-.21-0.89-0.34-0.89-0.55v-0.55a0.7,0.7,0,0,1,.55-0.55,72.51,72.51,0,0,0,7.28-3.78,2.87,2.87,0,0,1,1.44-.62c0.48,0,.62.34,0.55,1.17-0.07.55-.07,8.38-0.07,14.49v8c2.2-2.13,6.11-3.43,9.48-3.43,6,0,12.57,4.88,12.57,14.69,0,8-6.45,15.59-14.28,15.59a15.84,15.84,0,0,1-8.1-1.79l-2.75,1.51a1,1,0,0,1-.89.21l-0.82-.21c-0.27-.07-0.34-0.21-0.27-0.55,0.14-1,.14-6.66.14-11.67V436.24Zm4.94,22.25c0,5.7.21,7.76,1,10,0.69,1.65,3.57,3.43,6.52,3.43,4.12,0,9.2-2.82,9.2-11.81,0-6.66-3.5-13-10.23-13a9.14,9.14,0,0,0-6.52,2.47v8.93Z"/><path class="cls-1" d="M2129.95,452.79c0,3.57,0,13.94.07,16.07,0.07,1.17.34,2.13,1.79,2.13h3.09c0.62,0,.76.21,0.76,0.62v1.17c0,0.41-.14.69-0.41,0.69-0.48,0-3.5-.21-7.76-0.21s-7.14.21-7.76,0.21c-0.34,0-.48-0.28-0.48-0.69v-1.17c0-.48.14-0.62,0.89-0.62h3.3a1.54,1.54,0,0,0,1.51-1.72c0.07-2.13.07-13.94,0.07-17.92V447c0-4.87-.07-11.12-0.21-12.91-0.14-2.33-1.24-3.43-3.43-4.12l-1.37-.48c-0.34-.14-0.41-0.21-0.41-0.34v-0.55a0.68,0.68,0,0,1,.62-0.48,62.14,62.14,0,0,0,8-4,2.54,2.54,0,0,1,1.44-.55c0.48,0,.62.34,0.55,1.24-0.07,3.78-.27,18.06-0.27,21.84v6.11Z"/><path class="cls-1" d="M2143.89,455a17.58,17.58,0,0,0-.21,3.3c0,6.73,4.26,11.81,9.75,11.81a9.3,9.3,0,0,0,8.31-4.67,0.56,0.56,0,0,1,.62-0.34l0.89,0.48c0.21,0.07.34,0.27,0,1-1.24,2.75-4.81,7.49-10.92,7.49-3.91,0-8.24-1.17-10.78-4.88-2.4-3.5-3-6-3-10.85a15.46,15.46,0,0,1,4.33-10.92c3-3,6.39-3.64,9.82-3.64,7.9,0,10.09,7.42,10.09,10.09,0,1-.82,1.1-1.92,1.1h-17Zm10.92-2.06c1.3,0,1.85-.34,1.85-1,0-1.58-.82-6.11-5.29-6.11-3,0-5.91,2-7.21,7.07h10.64Z"/></svg>