<svg id="Layer_1" data-name="Layer 1" xmlns="http://www.w3.org/2000/svg" viewBox="0 0 2560 1600"><defs><style>.cls-1{fill:#231f20;}</style></defs><title>words</title><path class="cls-1" d="M1594.46,508.69c0-2.61-.48-3.43-4.33-4.05-0.41-.07-0.48-0.21-0.48-0.48V503c0-.28.14-0.41,0.55-0.48,2.68-.55,6.25-1.17,7.55-1.44,0.62-.07,1.1-0.21,1.58-0.21s0.41,0.48.34,1.24c-0.21,3.43-.27,13.39-0.27,22.11v15.17c0,2.54.14,5.56,0.69,6.25a5.12,5.12,0,0,0,3,1.17c1,0.07,1.24.14,1.37,0.48l0.14,0.55a0.59,0.59,0,0,1-.48.75l-7.76,2.61a0.67,0.67,0,0,1-.89-0.55l-0.89-3c-2.2,2.2-6.59,3.71-10.09,3.71-2.27,0-4.87.14-8.1-3.16-3.5-3.43-4.33-6.52-4.33-11.12a16.36,16.36,0,0,1,4.81-11.67,13.8,13.8,0,0,1,10.23-4.33,25.6,25.6,0,0,1,7.35,1V508.69Zm0,21.77a6.79,6.79,0,0,0-.62-3.37c-1-1.85-3.16-3.71-7.21-3.71a8.47,8.47,0,0,0-6.25,2.47,13.12,13.12,0,0,0-3.16,9.13c0,7.76,5.36,13.39,9.34,13.39s6.8-2,7.48-3.78a6.45,6.45,0,0,0,.41-2.33V530.46Z"/><path class="cls-1" d="M1630.44,547.49a3.16,3.16,0,0,0,2.4-1c0.27-.34.41-0.48,0.69-0.28l0.69,0.55a0.91,0.91,0,0,1-.07,1.24,5.67,5.67,0,0,1-5.36,3.37c-2.47,0-4.26-1.79-4.87-4.6h-0.14a14.81,14.81,0,0,1-6.8,4.19,12.9,12.9,0,0,1-4.05.41c-1.65,0-4.12-1.37-4.12-5.7,0-3.16,1.44-5.91,6.87-8.31,3.09-1.37,6.66-3,7.76-4v-4.39c-0.14-1.17-.21-3-1-3.85a5.22,5.22,0,0,0-4.12-1.51,7.69,7.69,0,0,0-4.46,1.44c-1,.89-0.34,1.92-0.34,3.16,0,2.4-.82,3.91-3.64,3.91-1.1,0-1.65-.62-1.65-2.2,0-2.2,1.92-4.81,4.74-6.45a15.14,15.14,0,0,1,8.38-2.4c3.23,0,4.53,1,5.49,1.85,1.44,1.44,1.51,3,1.51,4.88v14.56C1628.38,546.25,1629.2,547.49,1630.44,547.49Zm-7.07-12.08c-2.47,1.85-9.2,3.23-9.2,8.93,0,2.54,1.51,3.78,3.57,3.78s5.63-2.4,5.63-4.26V535.4Z"/><path class="cls-1" d="M1665.39,546.8a1.29,1.29,0,0,0,1.51,1.44h2.2c0.62,0,.75.21,0.75,0.62V550c0,0.48-.14.75-0.55,0.75s-2.61-.21-6.52-0.21c-3.5,0-5.7.21-6.18,0.21s-0.55-.21-0.55-0.75v-1.1c0-.48.21-0.62,0.89-0.62h2c0.76,0,1.3-.34,1.37-1.58,0.07-1.79.14-4,.14-5.77v-9.06c0-2.75,0-4.74-2-6.18-1.65-1.24-3.3-1.24-5-1.24a8.05,8.05,0,0,0-5.56,2.68,6.74,6.74,0,0,0-1.58,4.67V546c0,1.85.21,2.27,1.65,2.27h1.72a0.57,0.57,0,0,1,.69.69v1.17c0,0.41-.14.62-0.48,0.62s-2.33-.21-6-0.21-5.7.21-6.11,0.21-0.48-.21-0.48-0.62v-1.24c0-.41.14-0.62,0.69-0.62h2a1.13,1.13,0,0,0,1.37-1.37V530.8a4.23,4.23,0,0,0-2.81-4.05l-0.55-.27a0.66,0.66,0,0,1-.55-0.62v-0.34a0.8,0.8,0,0,1,.62-0.69l5.91-3.3a3.64,3.64,0,0,1,1.24-.48c0.34,0,.48.27,0.55,0.82l0.48,4.19h0.14c2-2.47,6-5,9.41-5a10.6,10.6,0,0,1,5.84,1.51,10,10,0,0,1,3.78,6.52V546.8Z"/><path class="cls-1" d="M1678.71,533.89a19.36,19.36,0,0,0,3.5,10.44,8.84,8.84,0,0,0,7.48,3.5,9.42,9.42,0,0,0,7.55-3,0.36,0.36,0,0,1,.55,0l0.69,0.69a0.54,0.54,0,0,1,0,.89,15.89,15.89,0,0,1-11.05,4.88c-3.64,0-7.48-.82-10.64-4.81a14.22,14.22,0,0,1-3.09-9.34c0-8,5.63-16.14,14.69-16.14,7.14,0,9.34,4.12,9.34,5.56a2.34,2.34,0,0,1-2.54,2.4c-1.58,0-2.75-.89-3.78-2.75-1.51-2.82-3-3-4.6-3C1682.9,523.25,1678.71,526.82,1678.71,533.89Z"/><path class="cls-1" d="M1706.39,530.53c0-2.33-.41-3.57-3.85-4.12-0.48-.07-0.62-0.21-0.62-0.48v-0.62a0.56,0.56,0,0,1,.48-0.48,56.3,56.3,0,0,0,7.42-3.36,2.84,2.84,0,0,1,1.3-.41c0.34,0,.41.34,0.34,0.82-0.14,1.17-.14,5.49-0.14,11.19v7.48c0,2.68,0,5.15.07,5.91,0.14,1.3.34,1.79,1.1,1.79h3.16c0.55,0,.69.21,0.69,0.62V550a0.55,0.55,0,0,1-.62.69c-0.55,0-3.71-.21-6.59-0.21-4,0-6.66.21-7.42,0.21a0.48,0.48,0,0,1-.55-0.55v-1.37c0-.41.21-0.55,0.69-0.55h3.36c0.76,0,1-.28,1.1-1.37,0.07-2.06.07-4.19,0.07-6.25V530.53Zm-3.23-21.08a4.05,4.05,0,0,1,4.33-3.84,3.62,3.62,0,0,1,3.71,3.64,3.93,3.93,0,0,1-4.12,4.05A4.19,4.19,0,0,1,1703.16,509.45Z"/><path class="cls-1" d="M1748.48,546.8a1.29,1.29,0,0,0,1.51,1.44h2.2c0.62,0,.75.21,0.75,0.62V550c0,0.48-.14.75-0.55,0.75s-2.61-.21-6.52-0.21c-3.5,0-5.7.21-6.18,0.21s-0.55-.21-0.55-0.75v-1.1c0-.48.21-0.62,0.89-0.62h2c0.75,0,1.3-.34,1.37-1.58,0.07-1.79.14-4,.14-5.77v-9.06c0-2.75,0-4.74-2-6.18-1.65-1.24-3.3-1.24-5-1.24a8.05,8.05,0,0,0-5.56,2.68,6.74,6.74,0,0,0-1.58,4.67V546c0,1.85.21,2.27,1.65,2.27h1.72a0.57,0.57,0,0,1,.69.69v1.17c0,0.41-.14.62-0.48,0.62s-2.33-.21-6-0.21-5.7.21-6.11,0.21-0.48-.21-0.48-0.62v-1.24c0-.41.14-0.62,0.69-0.62h2a1.13,1.13,0,0,0,1.37-1.37V530.8a4.23,4.23,0,0,0-2.82-4.05l-0.55-.27a0.66,0.66,0,0,1-.55-0.62v-0.34a0.8,0.8,0,0,1,.62-0.69l5.91-3.3a3.63,3.63,0,0,1,1.24-.48c0.34,0,.48.27,0.55,0.82l0.48,4.19h0.14c2-2.47,6-5,9.41-5a10.6,10.6,0,0,1,5.84,1.51,10,10,0,0,1,3.78,6.52V546.8Z"/><path class="cls-1" d="M1758.71,567c-2.47-1.51-3.5-3.3-3.5-5.56,0-3.85,3.91-6.8,7.21-8.24v-0.27c-2.88-.62-4.6-2.75-4.6-4.81,0-3.3,3.78-5.63,6.18-6.52v-0.14a10.92,10.92,0,0,1-6.39-10.44c0-4.46,4-10,11.74-10a11,11,0,0,1,8.65,4c1.85-1.3,4.19-2.68,6.46-2.68s3.36,1.51,3.23,2.88a2.61,2.61,0,0,1-2.68,2.54,3.42,3.42,0,0,1-2.4-1,2.74,2.74,0,0,0-1.44-.62,5,5,0,0,0-2.2.41,13,13,0,0,1,1,5.22,11.32,11.32,0,0,1-2.54,7.42,12.28,12.28,0,0,1-11.47,3.09c-1.37.55-3.64,1.92-3.64,3.85,0,2.82,3.43,2.61,8,2.33,5.63-.28,9.06.34,11.81,2.47a8.07,8.07,0,0,1,3.37,6.59c0,3.23-1.17,5.91-4.6,8.45a20.66,20.66,0,0,1-11.74,3.23C1765.92,569.18,1762,568.84,1758.71,567Zm22.66-7.07c0-4.05-3.09-7.14-10-6.66l-6.59.48c-2.13.55-5.49,2.88-5.49,6.59a6.59,6.59,0,0,0,2.68,4.74c2.27,1.58,4.74,1.92,9.61,1.92C1774.16,567,1781.71,565.2,1781.37,559.92ZM1775,530.66c0-3-.62-4.81-1.85-6.18a5.19,5.19,0,0,0-3.3-1.51,6.3,6.3,0,0,0-4.87,1.92c-2.2,2.33-2.47,5.49-2.47,8.1a8.54,8.54,0,0,0,2.2,6,5.6,5.6,0,0,0,4.12,1.72C1773.47,540.69,1775,535,1775,530.66Z"/><path class="cls-1" d="M1838.71,543H1839l5.56-15.17c0.89-2.4.34-3.78-1-3.78h-1c-0.34,0-.41-0.21-0.41-0.55v-1.44a0.43,0.43,0,0,1,.48-0.48c0.41,0,2.47.21,5.29,0.21s4.19-.21,5-0.21a0.43,0.43,0,0,1,.48.48v1.44a0.46,0.46,0,0,1-.48.55h-1.72a2.93,2.93,0,0,0-2.2,1.17c-0.82,1.3-9.54,23.21-10.44,25.41a1.21,1.21,0,0,1-1.3.89,1.59,1.59,0,0,1-1.24-1.3l-6.73-19.64H1829l-8.45,19.84a1.53,1.53,0,0,1-1.44,1.1c-0.55,0-.89-0.55-1.17-1.37l-9-24.24c-0.48-1.3-1.24-1.85-2.88-1.85h-1.51c-0.41,0-.48-0.21-0.48-0.62v-1.3c0-.34.07-0.55,0.41-0.55,1,0,2.33.21,6.25,0.21,3.09,0,4.74-.21,5.77-0.21a0.46,0.46,0,0,1,.55.55v1.37a0.45,0.45,0,0,1-.55.55h-0.62c-0.75,0-1.24.62-.82,1.85l5.42,18.26h0.28l7-16.82a4.19,4.19,0,0,0-.62-2.2,2,2,0,0,0-1.85-.69h-1a0.41,0.41,0,0,1-.48-0.48v-1.44a0.5,0.5,0,0,1,.62-0.55c0.55,0,2.75.21,6.18,0.21,3.16,0,4.67-.21,5.22-0.21s0.62,0.14.62,0.48v1.44a0.46,0.46,0,0,1-.48.55h-1.44a1.26,1.26,0,0,0-1,1.79Z"/><path class="cls-1" d="M1859.1,530.53c0-2.33-.41-3.57-3.84-4.12-0.48-.07-0.62-0.21-0.62-0.48v-0.62a0.56,0.56,0,0,1,.48-0.48,56.3,56.3,0,0,0,7.42-3.36,2.83,2.83,0,0,1,1.3-.41c0.34,0,.41.34,0.34,0.82-0.14,1.17-.14,5.49-0.14,11.19v7.48c0,2.68,0,5.15.07,5.91,0.14,1.3.34,1.79,1.1,1.79h3.16c0.55,0,.69.21,0.69,0.62V550a0.55,0.55,0,0,1-.62.69c-0.55,0-3.71-.21-6.59-0.21-4,0-6.66.21-7.42,0.21a0.48,0.48,0,0,1-.55-0.55v-1.37c0-.41.21-0.55,0.69-0.55h3.36c0.75,0,1-.28,1.1-1.37,0.07-2.06.07-4.19,0.07-6.25V530.53Zm-3.23-21.08a4,4,0,0,1,4.33-3.84,3.62,3.62,0,0,1,3.71,3.64,3.93,3.93,0,0,1-4.12,4.05A4.18,4.18,0,0,1,1855.88,509.45Z"/><path class="cls-1" d="M1882,541.93c0,5.15,2.33,6,3.57,6a9.87,9.87,0,0,0,4.53-.89,0.56,0.56,0,0,1,.82.14l0.34,0.62a0.55,0.55,0,0,1-.14.75,11.55,11.55,0,0,1-7.62,2.75c-3.36,0-6.66-3.23-6.66-5.84,0-2.82.21-8.86,0.21-9.82v-1.51c0-1.24.07-5.91,0.14-8.79H1873a0.86,0.86,0,0,1-1-.82c0-.55.41-0.76,1.24-1.24,1.65-1,6.93-6.25,7.83-8.58a0.92,0.92,0,0,1,1-.69c0.55,0,.69.48,0.69,1l-0.34,6.73h9.54a0.45,0.45,0,0,1,.48.62l-0.69,2.4a0.56,0.56,0,0,1-.62.55h-8.86c-0.14,3.16-.21,6.52-0.21,9.68v6.87Z"/><path class="cls-1" d="M1899.07,513.09c0-4.19-.82-4.94-3.3-5.77l-1.17-.41c-0.41-.14-0.48-0.21-0.48-0.41v-0.62c0-.27.21-0.34,0.82-0.69l7.14-3.78a3.63,3.63,0,0,1,1.58-.55c0.41,0,.69.55,0.55,1.72s-0.21,15.11-.21,18.54v4.39h0.34a13.1,13.1,0,0,1,9.41-4.46,9,9,0,0,1,6.8,2.75c3.09,2.88,3,6.39,3,10.09v3.91c0,3.85.14,8.1,0.14,9.41,0,0.82,1.1,1,2.54,1h1.17c0.55,0,.75.14,0.75,0.62v1c0,0.55-.14.82-0.55,0.82s-2.68-.21-6.59-0.21c-3.36,0-5.84.21-6.45,0.21s-0.62-.21-0.62-0.75v-1.17c0-.34.07-0.55,0.48-0.55H1916c1.17,0,2.54-.14,2.61-1.3,0.07-1,0-4.6,0-6.8v-5.56c0-3.85-.27-6.59-2.27-8.45a6.3,6.3,0,0,0-4.53-1.92,8.38,8.38,0,0,0-6.39,2.88,6,6,0,0,0-1.37,3.37v15c0,2.2.21,2.82,1.51,2.82h2.06c0.48,0,.75.14,0.75,0.55V550c0,0.48-.14.75-0.55,0.75s-3.36-.21-6.52-0.21c-3.43,0-6,.21-6.66.21-0.27,0-.48-0.21-0.48-0.69v-1.24c0-.48.27-0.55,1-0.55h1.44c1.1,0,2.13-.28,2.27-1.1,0.21-1.3.21-8.86,0.21-13.32V513.09Z"/><path class="cls-1" d="M1572.83,703.48c-2.47-1.51-3.5-3.3-3.5-5.56,0-3.85,3.91-6.8,7.21-8.24v-0.27c-2.88-.62-4.6-2.75-4.6-4.81,0-3.3,3.78-5.63,6.18-6.52v-0.14a10.92,10.92,0,0,1-6.39-10.44c0-4.46,4-10,11.74-10a11,11,0,0,1,8.65,4c1.85-1.3,4.19-2.68,6.45-2.68s3.37,1.51,3.23,2.88a2.61,2.61,0,0,1-2.68,2.54,3.42,3.42,0,0,1-2.4-1,2.74,2.74,0,0,0-1.44-.62,5,5,0,0,0-2.2.41,13,13,0,0,1,1,5.22,11.31,11.31,0,0,1-2.54,7.42,12.28,12.28,0,0,1-11.47,3.09c-1.37.55-3.64,1.92-3.64,3.85,0,2.82,3.43,2.61,8,2.33,5.63-.28,9.06.34,11.81,2.47a8.07,8.07,0,0,1,3.36,6.59c0,3.23-1.17,5.91-4.6,8.45a20.66,20.66,0,0,1-11.74,3.23C1580,705.68,1576.13,705.34,1572.83,703.48Zm22.66-7.07c0-4.05-3.09-7.14-10-6.66l-6.59.48c-2.13.55-5.49,2.88-5.49,6.59a6.59,6.59,0,0,0,2.68,4.74c2.27,1.58,4.74,1.92,9.61,1.92C1588.28,703.48,1595.84,701.7,1595.49,696.41Zm-6.39-29.25c0-3-.62-4.81-1.85-6.18a5.2,5.2,0,0,0-3.3-1.51,6.3,6.3,0,0,0-4.87,1.92c-2.2,2.33-2.47,5.49-2.47,8.1a8.55,8.55,0,0,0,2.2,6,5.61,5.61,0,0,0,4.12,1.72C1587.6,677.18,1589.11,671.48,1589.11,667.16Z"/><path class="cls-1" d="M1613.21,666.54c0,3.57,0,13.94.07,16.07,0.07,1.17.34,2.13,1.79,2.13h3.09c0.62,0,.76.21,0.76,0.62v1.17c0,0.41-.14.69-0.41,0.69-0.48,0-3.5-.21-7.76-0.21s-7.14.21-7.76,0.21c-0.34,0-.48-0.27-0.48-0.69v-1.17c0-.48.14-0.62,0.89-0.62h3.3a1.54,1.54,0,0,0,1.51-1.72c0.07-2.13.07-13.94,0.07-17.92v-4.33c0-4.88-.07-11.12-0.21-12.91-0.14-2.33-1.24-3.43-3.43-4.12l-1.37-.48c-0.34-.14-0.41-0.21-0.41-0.34v-0.55a0.68,0.68,0,0,1,.62-0.48,62.27,62.27,0,0,0,8-4,2.54,2.54,0,0,1,1.44-.55c0.48,0,.62.34,0.55,1.24-0.07,3.78-.27,18.06-0.27,21.83v6.11Z"/><path class="cls-1" d="M1626.26,667c0-2.33-.41-3.57-3.85-4.12-0.48-.07-0.62-0.21-0.62-0.48V661.8a0.56,0.56,0,0,1,.48-0.48,56.3,56.3,0,0,0,7.42-3.36,2.83,2.83,0,0,1,1.3-.41c0.34,0,.41.34,0.34,0.82-0.14,1.17-.14,5.49-0.14,11.19V677c0,2.68,0,5.15.07,5.91,0.14,1.3.34,1.79,1.1,1.79h3.16c0.55,0,.69.21,0.69,0.62v1.17c0,0.48-.14.69-0.62,0.69s-3.71-.21-6.59-0.21c-4,0-6.66.21-7.42,0.21a0.48,0.48,0,0,1-.55-0.55v-1.37c0-.41.21-0.55,0.69-0.55h3.37c0.75,0,1-.28,1.1-1.37,0.07-2.06.07-4.19,0.07-6.25V667ZM1623,645.94a4.05,4.05,0,0,1,4.33-3.84,3.62,3.62,0,0,1,3.71,3.64,3.93,3.93,0,0,1-4.12,4.05A4.19,4.19,0,0,1,1623,645.94Z"/><path class="cls-1" d="M1662.51,645.19c0-2.61-.48-3.43-4.33-4.05-0.41-.07-0.48-0.21-0.48-0.48v-1.17c0-.28.14-0.41,0.55-0.48,2.68-.55,6.25-1.17,7.55-1.44,0.62-.07,1.1-0.21,1.58-0.21s0.41,0.48.34,1.24c-0.21,3.43-.28,13.39-0.28,22.11v15.17c0,2.54.14,5.56,0.69,6.25a5.12,5.12,0,0,0,3,1.17c1,0.07,1.24.14,1.37,0.48l0.14,0.55a0.59,0.59,0,0,1-.48.75l-7.76,2.61a0.67,0.67,0,0,1-.89-0.55l-0.89-3c-2.2,2.2-6.59,3.71-10.09,3.71-2.27,0-4.88.14-8.1-3.16-3.5-3.43-4.33-6.52-4.33-11.12a16.36,16.36,0,0,1,4.81-11.67,13.8,13.8,0,0,1,10.23-4.33,25.61,25.61,0,0,1,7.35,1V645.19Zm0,21.77a6.78,6.78,0,0,0-.62-3.37c-1-1.85-3.16-3.71-7.21-3.71a8.47,8.47,0,0,0-6.25,2.47,13.12,13.12,0,0,0-3.16,9.13c0,7.76,5.36,13.39,9.34,13.39s6.8-2,7.48-3.78a6.43,6.43,0,0,0,.41-2.33V667Z"/><path class="cls-1" d="M1680.37,667c0-2.33-.41-3.57-3.85-4.12-0.48-.07-0.62-0.21-0.62-0.48V661.8a0.56,0.56,0,0,1,.48-0.48,56.24,56.24,0,0,0,7.42-3.36,2.84,2.84,0,0,1,1.3-.41c0.34,0,.41.34,0.34,0.82-0.14,1.17-.14,5.49-0.14,11.19V677c0,2.68,0,5.15.07,5.91,0.14,1.3.34,1.79,1.1,1.79h3.16c0.55,0,.69.21,0.69,0.62v1.17c0,0.48-.14.69-0.62,0.69s-3.71-.21-6.59-0.21c-4,0-6.66.21-7.42,0.21a0.48,0.48,0,0,1-.55-0.55v-1.37c0-.41.21-0.55,0.69-0.55h3.37c0.75,0,1-.28,1.1-1.37,0.07-2.06.07-4.19,0.07-6.25V667Zm-3.23-21.08a4.05,4.05,0,0,1,4.33-3.84,3.62,3.62,0,0,1,3.71,3.64,3.93,3.93,0,0,1-4.12,4.05A4.19,4.19,0,0,1,1677.14,645.94Z"/><path class="cls-1" d="M1722.46,683.29a1.29,1.29,0,0,0,1.51,1.44h2.2c0.62,0,.76.21,0.76,0.62v1.1c0,0.48-.14.75-0.55,0.75s-2.61-.21-6.52-0.21c-3.5,0-5.7.21-6.18,0.21s-0.55-.21-0.55-0.75v-1.1c0-.48.21-0.62,0.89-0.62h2c0.75,0,1.3-.34,1.37-1.58,0.07-1.79.14-4,.14-5.77v-9.06c0-2.75,0-4.74-2-6.18-1.65-1.24-3.3-1.24-5-1.24a8.05,8.05,0,0,0-5.56,2.68,6.73,6.73,0,0,0-1.58,4.67v14.21c0,1.85.21,2.27,1.65,2.27h1.72a0.57,0.57,0,0,1,.69.69v1.17c0,0.41-.14.62-0.48,0.62s-2.33-.21-6-0.21-5.7.21-6.11,0.21-0.48-.21-0.48-0.62v-1.24c0-.41.14-0.62,0.69-0.62h2a1.13,1.13,0,0,0,1.37-1.37V667.3a4.23,4.23,0,0,0-2.82-4.05l-0.55-.27a0.66,0.66,0,0,1-.55-0.62V662a0.8,0.8,0,0,1,.62-0.69L1701,658a3.63,3.63,0,0,1,1.24-.48c0.34,0,.48.27,0.55,0.82l0.48,4.19h0.14c2-2.47,6-5,9.41-5a10.6,10.6,0,0,1,5.84,1.51,10,10,0,0,1,3.78,6.52v17.72Z"/><path class="cls-1" d="M1732.69,703.48c-2.47-1.51-3.5-3.3-3.5-5.56,0-3.85,3.91-6.8,7.21-8.24v-0.27c-2.88-.62-4.6-2.75-4.6-4.81,0-3.3,3.78-5.63,6.18-6.52v-0.14a10.92,10.92,0,0,1-6.39-10.44c0-4.46,4-10,11.74-10a11,11,0,0,1,8.65,4c1.85-1.3,4.19-2.68,6.45-2.68s3.36,1.51,3.23,2.88a2.61,2.61,0,0,1-2.68,2.54,3.42,3.42,0,0,1-2.4-1,2.74,2.74,0,0,0-1.44-.62,5,5,0,0,0-2.2.41,13,13,0,0,1,1,5.22,11.32,11.32,0,0,1-2.54,7.42,12.28,12.28,0,0,1-11.47,3.09c-1.37.55-3.64,1.92-3.64,3.85,0,2.82,3.43,2.61,8,2.33,5.63-.28,9.06.34,11.81,2.47a8.07,8.07,0,0,1,3.36,6.59c0,3.23-1.17,5.91-4.6,8.45a20.66,20.66,0,0,1-11.74,3.23C1739.9,705.68,1736,705.34,1732.69,703.48Zm22.66-7.07c0-4.05-3.09-7.14-10-6.66l-6.59.48c-2.13.55-5.49,2.88-5.49,6.59a6.59,6.59,0,0,0,2.68,4.74c2.27,1.58,4.74,1.92,9.61,1.92C1748.14,703.48,1755.7,701.7,1755.35,696.41ZM1749,667.16c0-3-.62-4.81-1.85-6.18a5.2,5.2,0,0,0-3.3-1.51,6.3,6.3,0,0,0-4.87,1.92c-2.2,2.33-2.47,5.49-2.47,8.1a8.54,8.54,0,0,0,2.2,6,5.6,5.6,0,0,0,4.12,1.72C1747.46,677.18,1749,671.48,1749,667.16Z"/><path class="cls-1" d="M1544.34,829.53h0.27l5.56-15.17c0.89-2.4.34-3.78-1-3.78h-1c-0.34,0-.41-0.21-0.41-0.55v-1.44a0.43,0.43,0,0,1,.48-0.48c0.41,0,2.47.21,5.29,0.21s4.19-.21,5-0.21a0.43,0.43,0,0,1,.48.48V810a0.46,0.46,0,0,1-.48.55h-1.72a2.93,2.93,0,0,0-2.2,1.17c-0.82,1.3-9.54,23.21-10.44,25.41a1.21,1.21,0,0,1-1.3.89,1.59,1.59,0,0,1-1.24-1.3l-6.73-19.64h-0.34l-8.45,19.84a1.53,1.53,0,0,1-1.44,1.1c-0.55,0-.89-0.55-1.17-1.37l-9-24.24c-0.48-1.3-1.24-1.85-2.88-1.85h-1.51c-0.41,0-.48-0.21-0.48-0.62v-1.3c0-.34.07-0.55,0.41-0.55,1,0,2.33.21,6.25,0.21,3.09,0,4.74-.21,5.77-0.21a0.45,0.45,0,0,1,.55.55V810a0.45,0.45,0,0,1-.55.55h-0.62c-0.76,0-1.24.62-.82,1.85l5.42,18.26h0.27l7-16.82a4.19,4.19,0,0,0-.62-2.2,2,2,0,0,0-1.85-.69h-1a0.41,0.41,0,0,1-.48-0.48v-1.44a0.5,0.5,0,0,1,.62-0.55c0.55,0,2.75.21,6.18,0.21,3.16,0,4.67-.21,5.22-0.21s0.62,0.14.62,0.48v1.44a0.46,0.46,0,0,1-.48.55h-1.44a1.26,1.26,0,0,0-1,1.79Z"/><path class="cls-1" d="M1564.46,799.6c0-4.19-.82-4.94-3.3-5.77l-1.17-.41c-0.41-.14-0.48-0.21-0.48-0.41v-0.62c0-.27.21-0.34,0.82-0.69l7.14-3.78a3.63,3.63,0,0,1,1.58-.55c0.41,0,.69.55,0.55,1.72s-0.21,15.11-.21,18.54V812h0.34a13.1,13.1,0,0,1,9.41-4.46,9,9,0,0,1,6.8,2.75c3.09,2.88,3,6.39,3,10.09v3.91c0,3.85.14,8.1,0.14,9.41,0,0.82,1.1,1,2.54,1h1.17c0.55,0,.76.14,0.76,0.62v1c0,0.55-.14.82-0.55,0.82s-2.68-.21-6.59-0.21c-3.36,0-5.84.21-6.45,0.21s-0.62-.21-0.62-0.76V835.3c0-.34.07-0.55,0.48-0.55h1.58c1.17,0,2.54-.14,2.61-1.3,0.07-1,0-4.6,0-6.8v-5.56c0-3.84-.27-6.59-2.27-8.45a6.3,6.3,0,0,0-4.53-1.92,8.38,8.38,0,0,0-6.39,2.88,6,6,0,0,0-1.37,3.37v15c0,2.2.21,2.82,1.51,2.82H1573c0.48,0,.76.14,0.76,0.55v1.17c0,0.48-.14.76-0.55,0.76s-3.36-.21-6.52-0.21c-3.43,0-6,.21-6.66.21-0.27,0-.48-0.21-0.48-0.69V835.3c0-.48.27-0.55,1-0.55H1562c1.1,0,2.13-.28,2.27-1.1,0.21-1.3.21-8.86,0.21-13.32V799.6Z"/><path class="cls-1" d="M1601.74,817c0-2.33-.41-3.57-3.84-4.12-0.48-.07-0.62-0.21-0.62-0.48v-0.62a0.56,0.56,0,0,1,.48-0.48,56.3,56.3,0,0,0,7.42-3.36,2.83,2.83,0,0,1,1.3-.41c0.34,0,.41.34,0.34,0.82-0.14,1.17-.14,5.49-0.14,11.19v7.48c0,2.68,0,5.15.07,5.91,0.14,1.3.34,1.79,1.1,1.79H1611c0.55,0,.69.21,0.69,0.62v1.17a0.55,0.55,0,0,1-.62.69c-0.55,0-3.71-.21-6.59-0.21-4,0-6.66.21-7.42,0.21a0.48,0.48,0,0,1-.55-0.55V835.3c0-.41.21-0.55,0.69-0.55h3.36c0.75,0,1-.28,1.1-1.37,0.07-2.06.07-4.19,0.07-6.25V817ZM1598.52,796a4.05,4.05,0,0,1,4.33-3.84,3.62,3.62,0,0,1,3.71,3.64,3.93,3.93,0,0,1-4.12,4.05A4.18,4.18,0,0,1,1598.52,796Z"/><path class="cls-1" d="M1617.54,835.85a1.25,1.25,0,0,1-.41-1l-1.17-6.52a0.44,0.44,0,0,1,.41-0.55l0.89-.21a0.51,0.51,0,0,1,.62.41l1.72,3.36c1.37,2.54,2.33,4.26,6,4.26,2.4,0,5.42-1.44,5.42-4.67s-1.51-4.88-6.66-6.32c-4.05-1.17-8.1-3.3-8.1-8.72,0-4.74,4.46-8.38,9.61-8.38a12.79,12.79,0,0,1,6.32,1.44c1,0.48,1.17.82,1.24,1.24l1,4.81a0.64,0.64,0,0,1-.48.62l-0.82.27a0.49,0.49,0,0,1-.62-0.34l-2.33-3.16a5.25,5.25,0,0,0-4.81-2.68c-2.61,0-5.29,1.58-5.29,4.53,0,4,3.23,4.74,6.59,5.7,5,1.44,8.17,3.5,8.24,8.79-0.07,5.56-4.6,9.06-10.44,9.06A12.93,12.93,0,0,1,1617.54,835.85Z"/><path class="cls-1" d="M1649.12,828.43c0,5.15,2.33,6,3.57,6a9.87,9.87,0,0,0,4.53-.89,0.56,0.56,0,0,1,.82.14l0.34,0.62a0.55,0.55,0,0,1-.14.75,11.55,11.55,0,0,1-7.62,2.75c-3.36,0-6.66-3.23-6.66-5.84,0-2.82.21-8.86,0.21-9.82v-1.51c0-1.24.07-5.91,0.14-8.79h-4.19a0.86,0.86,0,0,1-1-.82c0-.55.41-0.76,1.24-1.24,1.65-1,6.94-6.25,7.83-8.58a0.92,0.92,0,0,1,1-.69c0.55,0,.69.48,0.69,1l-0.34,6.73H1659a0.45,0.45,0,0,1,.48.62l-0.69,2.4a0.56,0.56,0,0,1-.62.55h-8.86c-0.14,3.16-.21,6.52-0.21,9.68v6.87Z"/><path class="cls-1" d="M1671,816.55c0,3.57,0,13.94.07,16.07,0.07,1.17.34,2.13,1.79,2.13h3.09c0.62,0,.75.21,0.75,0.62v1.17c0,0.41-.14.69-0.41,0.69-0.48,0-3.5-.21-7.76-0.21s-7.14.21-7.76,0.21c-0.34,0-.48-0.27-0.48-0.69v-1.17c0-.48.14-0.62,0.89-0.62h3.3a1.54,1.54,0,0,0,1.51-1.72c0.07-2.13.07-13.94,0.07-17.92v-4.33c0-4.88-.07-11.12-0.21-12.91-0.14-2.33-1.24-3.43-3.43-4.12l-1.37-.48c-0.34-.14-0.41-0.21-0.41-0.34v-0.55a0.68,0.68,0,0,1,.62-0.48,62.2,62.2,0,0,0,8-4,2.54,2.54,0,0,1,1.44-.55c0.48,0,.62.34,0.55,1.24-0.07,3.78-.27,18.06-0.27,21.83v6.11Z"/><path class="cls-1" d="M1684,817c0-2.33-.41-3.57-3.84-4.12-0.48-.07-0.62-0.21-0.62-0.48v-0.62a0.56,0.56,0,0,1,.48-0.48,56.3,56.3,0,0,0,7.42-3.36,2.83,2.83,0,0,1,1.3-.41c0.34,0,.41.34,0.34,0.82-0.14,1.17-.14,5.49-0.14,11.19v7.48c0,2.68,0,5.15.07,5.91,0.14,1.3.34,1.79,1.1,1.79h3.16c0.55,0,.69.21,0.69,0.62v1.17a0.55,0.55,0,0,1-.62.69c-0.55,0-3.71-.21-6.59-0.21-4,0-6.66.21-7.42,0.21a0.48,0.48,0,0,1-.55-0.55V835.3c0-.41.21-0.55,0.69-0.55h3.36c0.75,0,1-.28,1.1-1.37,0.07-2.06.07-4.19,0.07-6.25V817ZM1680.78,796a4,4,0,0,1,4.33-3.84,3.62,3.62,0,0,1,3.71,3.64,3.93,3.93,0,0,1-4.12,4.05A4.18,4.18,0,0,1,1680.78,796Z"/><path class="cls-1" d="M1726.1,833.31a1.29,1.29,0,0,0,1.51,1.44h2.2c0.62,0,.75.21,0.75,0.62v1.1c0,0.48-.14.76-0.55,0.76s-2.61-.21-6.52-0.21c-3.5,0-5.7.21-6.18,0.21s-0.55-.21-0.55-0.76v-1.1c0-.48.21-0.62,0.89-0.62h2c0.76,0,1.3-.34,1.37-1.58,0.07-1.79.14-4,.14-5.77v-9.06c0-2.75,0-4.74-2-6.18-1.65-1.24-3.3-1.24-5-1.24a8.05,8.05,0,0,0-5.56,2.68,6.74,6.74,0,0,0-1.58,4.67v14.21c0,1.85.21,2.27,1.65,2.27h1.72a0.57,0.57,0,0,1,.69.69v1.17c0,0.41-.14.62-0.48,0.62s-2.33-.21-6-0.21-5.7.21-6.11,0.21S1698,837,1698,836.6v-1.24c0-.41.14-0.62,0.69-0.62h2a1.13,1.13,0,0,0,1.37-1.37V817.31a4.23,4.23,0,0,0-2.81-4.05l-0.55-.27a0.66,0.66,0,0,1-.55-0.62V812a0.8,0.8,0,0,1,.62-0.69l5.91-3.3a3.64,3.64,0,0,1,1.24-.48c0.34,0,.48.27,0.55,0.82l0.48,4.19h0.14c2-2.47,6-5,9.41-5a10.6,10.6,0,0,1,5.84,1.51,10,10,0,0,1,3.78,6.52v17.71Z"/><path class="cls-1" d="M1728.3,848.42c0-5.08,8.24-8.45,11.6-9.89-2-1.44-2.61-2.68-2.61-4s1.24-2.47,5.84-5.08a8,8,0,0,1-5.36-7.9c0-5.15,4.53-13.12,12.15-13.12a6.7,6.7,0,0,1,5.84,3.23,9.65,9.65,0,0,1,5.84-2.54,2.73,2.73,0,0,1,2.88,2.68,2.08,2.08,0,0,1-2.2,2.13,2.63,2.63,0,0,1-2.27-1,1.93,1.93,0,0,0-1.3-.48,2.9,2.9,0,0,0-2,1,15.7,15.7,0,0,1,.55,3.84c0,3.3-1.92,11-9.82,12.36a7.84,7.84,0,0,0-2.06.48c-1.3.55-3.57,2.13-3.57,3.3a2.67,2.67,0,0,0,1.17,1.85c1.17,0.82,4.46,2.88,8.93,5.84,4,2.61,5.08,4.88,5.08,7.42,0,1.1-1.17,8.93-14.62,8.93C1735.23,857.41,1728.3,853.36,1728.3,848.42Zm15.45,6.87c4.67,0,8.58-1.65,8.58-5.49,0-3-2.88-4.87-4.6-6l-6-3.91c-5.63,2.27-8.65,4.88-8.65,8.1C1733,852.67,1739.15,855.28,1743.75,855.28Zm9.13-40.51c0-3.16-1.24-4.6-3.09-4.6-4.12,0-7.62,8-7.62,13.18,0,3.09,1.17,4.67,3.23,4.67C1750.41,828,1752.88,819.71,1752.88,814.77Z"/><path class="cls-1" d="M1837.7,598.93c0-5.08-1-6.39-2.06-7.42a7.38,7.38,0,0,0-4.39-1.24,8,8,0,0,0-6.59,4,8.16,8.16,0,0,0-1,4.6v13.6c0,1.1.41,1.79,1.37,1.79h2.47c0.62,0,.69.14,0.69,0.62V616c0,0.48-.07.75-0.55,0.75s-2.47-.21-6.25-0.21-5.84.21-6.39,0.21-0.55-.14-0.55-0.62v-1.24c0-.55.14-0.62,0.82-0.62h2.33c0.62,0,1-.41,1-1.72s0.07-2.4.07-3.57V596.73a3.48,3.48,0,0,0-1.92-3.5l-1.44-.75a0.71,0.71,0,0,1-.48-0.55v-0.55a0.85,0.85,0,0,1,.41-0.55l6-3.09a3.39,3.39,0,0,1,1.3-.41,0.82,0.82,0,0,1,.62,1l0.28,4h0.21a13.35,13.35,0,0,1,10.09-5.22,8.33,8.33,0,0,1,7.76,5.29H1842c2.06-2.68,6-5.29,10.09-5.29,2.4,0,4.53.41,6.18,2.06s3.3,3.16,3.3,8.45v15.31a1.25,1.25,0,0,0,1.44,1.37h1.85c0.62,0,.76.14,0.76,0.62V616c0,0.48-.14.69-0.48,0.69s-2.4-.21-5.7-0.21-5.91.21-6.39,0.21-0.55-.21-0.55-0.69v-1.17c0-.48.14-0.62,0.89-0.62h1.72a1.24,1.24,0,0,0,1.37-1.3c0.14-1.58.14-4.05,0.14-5.56V597.21c0-2.27-.41-4.26-2-5.49a8.26,8.26,0,0,0-5.08-1.44,7.74,7.74,0,0,0-6,3.57c-1,2-1,3.84-1,6.93v11.88a1.33,1.33,0,0,0,1.37,1.58h2.33c0.62,0,.75.14,0.75,0.62V616c0,0.55-.14.75-0.48,0.75s-2.27-.21-6.11-0.21-6,.21-6.45.21-0.48-.21-0.48-0.69v-1.1c0-.55.07-0.69,0.69-0.69h2c1.1,0,1.51-.28,1.51-1.17V598.93Z"/><path class="cls-1" d="M1867.3,631.68a3,3,0,0,1,3.16-2.68,11.8,11.8,0,0,1,3.16.75,1.65,1.65,0,0,0,1.44-.41c1-1.24,4.53-9.06,5.49-11.74-0.34-1.72-7.62-23.21-8.17-24.65-0.82-1.72-1.44-2.88-3.23-2.88h-1.79c-0.48,0-.55-0.21-0.55-0.62v-1.37c0-.28.07-0.48,0.55-0.48s2.27,0.21,6.32.21c3.5,0,5.63-.21,6.39-0.21,0.55,0,.62.21,0.62,0.48v1.44c0,0.34-.07.55-0.41,0.55H1879c-0.76,0-1,.48-0.89,1.51,0.21,1.51,4.88,16.68,5.63,18.2H1884c0.69-1.1,6.66-15.38,7.07-17.1s-0.14-2.61-1.17-2.61h-1.1c-0.41,0-.48-0.21-0.48-0.55v-1.37c0-.34.07-0.55,0.41-0.55,0.89,0,2.33.21,5.63,0.21,1.85,0,3.43-.21,4.19-0.21,0.41,0,.41.28,0.41,0.55v1.3c0,0.41,0,.62-0.34.62h-1.1a3.08,3.08,0,0,0-2.4,1.24c-1.51,1.85-6,12.36-10.78,23.14-3.36,7.62-6,14-7.28,16.27-1,1.79-2.2,4.46-5.84,4.46C1868.6,635.18,1867.3,633.74,1867.3,631.68Z"/><path class="cls-1" d="M1926.35,607.92c0,5.15,2.33,6,3.57,6a9.87,9.87,0,0,0,4.53-.89,0.56,0.56,0,0,1,.82.14l0.34,0.62a0.55,0.55,0,0,1-.14.75,11.55,11.55,0,0,1-7.62,2.75c-3.36,0-6.66-3.23-6.66-5.84,0-2.82.21-8.86,0.21-9.82v-1.51c0-1.24.07-5.91,0.14-8.79h-4.19a0.86,0.86,0,0,1-1-.82c0-.55.41-0.76,1.24-1.24,1.65-1,6.94-6.25,7.83-8.58a0.92,0.92,0,0,1,1-.69c0.55,0,.69.48,0.69,1l-0.34,6.73h9.54a0.45,0.45,0,0,1,.48.62l-0.69,2.4a0.56,0.56,0,0,1-.62.55h-8.86c-0.14,3.16-.21,6.52-0.21,9.68v6.87Z"/><path class="cls-1" d="M1942.83,612.59c-3.16-3.78-3.78-6.32-3.78-11.19a14.6,14.6,0,0,1,5.91-11.05,14.86,14.86,0,0,1,9.2-3.3,14.54,14.54,0,0,1,9.61,4,15.25,15.25,0,0,1,4.67,11.19c0,7.48-6.73,15.11-15.17,15.11A13.84,13.84,0,0,1,1942.83,612.59Zm19.84-11.05c0-7.62-5.56-12.43-9.06-12.43a6.63,6.63,0,0,0-5.29,2.2c-2.68,2.75-3.64,5.56-3.64,10.78,0,3.85.41,6.46,2.61,9.61a7.6,7.6,0,0,0,6.8,3.57C1959.31,615.27,1962.67,608.88,1962.67,601.54Z"/><path class="cls-1" d="M2001.27,612.8a1.29,1.29,0,0,0,1.51,1.44h2.2c0.62,0,.75.21,0.75,0.62V616c0,0.48-.14.75-0.55,0.75s-2.61-.21-6.52-0.21c-3.5,0-5.7.21-6.18,0.21s-0.55-.21-0.55-0.75v-1.1c0-.48.21-0.62,0.89-0.62h2c0.75,0,1.3-.34,1.37-1.58,0.07-1.79.14-4,.14-5.77v-9.06c0-2.75,0-4.74-2-6.18-1.65-1.24-3.3-1.24-5-1.24a8.05,8.05,0,0,0-5.56,2.68,6.74,6.74,0,0,0-1.58,4.67V612c0,1.85.21,2.27,1.65,2.27h1.72a0.57,0.57,0,0,1,.69.69v1.17c0,0.41-.14.62-0.48,0.62s-2.33-.21-6-0.21-5.7.21-6.11,0.21-0.48-.21-0.48-0.62v-1.24c0-.41.14-0.62,0.69-0.62h2a1.13,1.13,0,0,0,1.37-1.37V596.8a4.23,4.23,0,0,0-2.82-4.05l-0.55-.27a0.66,0.66,0,0,1-.55-0.62v-0.34a0.8,0.8,0,0,1,.62-0.69l5.91-3.3a3.63,3.63,0,0,1,1.24-.48c0.34,0,.48.27,0.55,0.82l0.48,4.19h0.14c2-2.47,6-5,9.41-5a10.6,10.6,0,0,1,5.84,1.51,10,10,0,0,1,3.78,6.52V612.8Z"/><path class="cls-1" d="M2011.5,633c-2.47-1.51-3.5-3.3-3.5-5.56,0-3.85,3.91-6.8,7.21-8.24v-0.27c-2.88-.62-4.6-2.75-4.6-4.81,0-3.3,3.78-5.63,6.18-6.52v-0.14A10.92,10.92,0,0,1,2010.4,597c0-4.46,4-10,11.74-10a11,11,0,0,1,8.65,4c1.85-1.3,4.19-2.68,6.46-2.68s3.36,1.51,3.23,2.88a2.61,2.61,0,0,1-2.68,2.54,3.42,3.42,0,0,1-2.4-1,2.74,2.74,0,0,0-1.44-.62,5,5,0,0,0-2.2.41,13,13,0,0,1,1,5.22,11.32,11.32,0,0,1-2.54,7.42,12.28,12.28,0,0,1-11.47,3.09c-1.37.55-3.64,1.92-3.64,3.85,0,2.82,3.43,2.61,8,2.33,5.63-.28,9.06.34,11.81,2.47a8.07,8.07,0,0,1,3.37,6.59c0,3.23-1.17,5.91-4.6,8.45a20.66,20.66,0,0,1-11.74,3.23C2018.71,635.18,2014.79,634.84,2011.5,633Zm22.66-7.07c0-4.05-3.09-7.14-10-6.66l-6.59.48c-2.13.55-5.49,2.88-5.49,6.59a6.59,6.59,0,0,0,2.68,4.74c2.27,1.58,4.74,1.92,9.61,1.92C2026.95,633,2034.5,631.2,2034.16,625.91Zm-6.39-29.25c0-3-.62-4.81-1.85-6.18a5.19,5.19,0,0,0-3.3-1.51,6.3,6.3,0,0,0-4.87,1.92c-2.2,2.33-2.47,5.49-2.47,8.1a8.54,8.54,0,0,0,2.2,6,5.6,5.6,0,0,0,4.12,1.72C2026.26,606.69,2027.77,601,2027.77,596.66Z"/><path class="cls-1" d="M2069,602.57c0,3.3,0,6.66.14,8.1,0.21,2.13,1,2.4,1.79,2.4a10.1,10.1,0,0,0,2.27-.21c0.55-.14.76,0,0.82,0.28l0.21,0.89a0.44,0.44,0,0,1-.34.62l-7.21,2.4a4,4,0,0,1-1.37.28c-0.27,0-.55-0.14-0.62-0.82l-0.55-4H2064a12.54,12.54,0,0,1-9.34,4.81,7.18,7.18,0,0,1-6.46-3.16c-2.81-3.64-2.68-5.91-2.68-13.46v-8c-0.07-1.92-1-2.4-2.61-2.61-1.17-.07-1.51-0.14-1.51-0.48v-1.24c0-.41.14-0.55,0.76-0.55h6.11a3.59,3.59,0,0,0,1-.14c0.27,0,.55-0.07.76-0.07a0.71,0.71,0,0,1,.75.82c-0.07.62-.27,3.85-0.27,7.9v4.94c0,2.75-.69,7.14,1.51,10.3,1.72,2.47,3.64,2.61,5.49,2.61s4.6-1.79,5.9-3.43a3.74,3.74,0,0,0,.69-1.85V592.47c-0.14-1.92-1.24-2.27-3-2.4-1.17,0-1.51-.14-1.51-0.48v-1.17c0-.55.14-0.62,0.82-0.62h6.39a5.46,5.46,0,0,0,1.17-.14c0.34,0,.62-0.07.82-0.07a0.59,0.59,0,0,1,.62.69,60.8,60.8,0,0,0-.41,9.13v5.15Z"/><path class="cls-1" d="M2083,598.24a17.6,17.6,0,0,0-.21,3.3c0,6.73,4.26,11.81,9.75,11.81a9.3,9.3,0,0,0,8.31-4.67,0.56,0.56,0,0,1,.62-0.34l0.89,0.48c0.21,0.07.34,0.27,0,1-1.24,2.75-4.81,7.48-10.92,7.48-3.91,0-8.24-1.17-10.78-4.87-2.4-3.5-3-6-3-10.85a15.46,15.46,0,0,1,4.33-10.92c3-3,6.39-3.64,9.82-3.64,7.9,0,10.09,7.42,10.09,10.09,0,1-.82,1.1-1.92,1.1h-17Zm10.92-2.06c1.3,0,1.85-.34,1.85-1,0-1.58-.82-6.11-5.29-6.11-3,0-5.91,2-7.21,7.07h10.64Z"/><path class="cls-1" d="M2117.66,615.2c0,7.21-6.66,12.08-8,12.91a3.53,3.53,0,0,1-1.37.62q-0.82,0-.82-0.62a1.14,1.14,0,0,1,.62-1c1.65-1.51,4.88-4.87,4.88-8.65a2.42,2.42,0,0,0-1.17-2.06c-0.69-.27-3.91-1.1-3.91-4.53,0-1.72,1.37-3.23,3.85-3.23A6.43,6.43,0,0,1,2117.66,615.2Z"/><path class="cls-1" d="M1837.7,732.93c0-5.08-1-6.39-2.06-7.42a7.38,7.38,0,0,0-4.39-1.24,8,8,0,0,0-6.59,4,8.16,8.16,0,0,0-1,4.6v13.6c0,1.1.41,1.79,1.37,1.79h2.47c0.62,0,.69.14,0.69,0.62V750c0,0.48-.07.75-0.55,0.75s-2.47-.21-6.25-0.21-5.84.21-6.39,0.21-0.55-.14-0.55-0.62v-1.24c0-.55.14-0.62,0.82-0.62h2.33c0.62,0,1-.41,1-1.72s0.07-2.4.07-3.57V730.73a3.48,3.48,0,0,0-1.92-3.5l-1.44-.75a0.71,0.71,0,0,1-.48-0.55v-0.55a0.85,0.85,0,0,1,.41-0.55l6-3.09a3.39,3.39,0,0,1,1.3-.41,0.82,0.82,0,0,1,.62,1l0.28,4h0.21a13.35,13.35,0,0,1,10.09-5.22,8.33,8.33,0,0,1,7.76,5.29H1842c2.06-2.68,6-5.29,10.09-5.29,2.4,0,4.53.41,6.18,2.06s3.3,3.16,3.3,8.45v15.31a1.25,1.25,0,0,0,1.44,1.37h1.85c0.62,0,.76.14,0.76,0.62V750c0,0.48-.14.69-0.48,0.69s-2.4-.21-5.7-0.21-5.91.21-6.39,0.21-0.55-.21-0.55-0.69v-1.17c0-.48.14-0.62,0.89-0.62h1.72a1.24,1.24,0,0,0,1.37-1.3c0.14-1.58.14-4.05,0.14-5.56V731.21c0-2.27-.41-4.26-2-5.49a8.26,8.26,0,0,0-5.08-1.44,7.74,7.74,0,0,0-6,3.57c-1,2-1,3.84-1,6.93v11.88a1.33,1.33,0,0,0,1.37,1.58h2.33c0.62,0,.75.14,0.75,0.62V750c0,0.55-.14.75-0.48,0.75s-2.27-.21-6.11-0.21-6,.21-6.45.21-0.48-.21-0.48-0.69v-1.1c0-.55.07-0.69,0.69-0.69h2c1.1,0,1.51-.28,1.51-1.17V732.93Z"/><path class="cls-1" d="M1867.3,765.68a3,3,0,0,1,3.16-2.68,11.8,11.8,0,0,1,3.16.75,1.65,1.65,0,0,0,1.44-.41c1-1.24,4.53-9.06,5.49-11.74-0.34-1.72-7.62-23.21-8.17-24.65-0.82-1.72-1.44-2.88-3.23-2.88h-1.79c-0.48,0-.55-0.21-0.55-0.62v-1.37c0-.28.07-0.48,0.55-0.48s2.27,0.21,6.32.21c3.5,0,5.63-.21,6.39-0.21,0.55,0,.62.21,0.62,0.48v1.44c0,0.34-.07.55-0.41,0.55H1879c-0.76,0-1,.48-0.89,1.51,0.21,1.51,4.88,16.68,5.63,18.2H1884c0.69-1.1,6.66-15.38,7.07-17.1s-0.14-2.61-1.17-2.61h-1.1c-0.41,0-.48-0.21-0.48-0.55v-1.37c0-.34.07-0.55,0.41-0.55,0.89,0,2.33.21,5.63,0.21,1.85,0,3.43-.21,4.19-0.21,0.41,0,.41.28,0.41,0.55v1.3c0,0.41,0,.62-0.34.62h-1.1a3.08,3.08,0,0,0-2.4,1.24c-1.51,1.85-6,12.36-10.78,23.14-3.36,7.62-6,14-7.28,16.27-1,1.79-2.2,4.46-5.84,4.46C1868.6,769.18,1867.3,767.74,1867.3,765.68Z"/><path class="cls-1" d="M1926.35,741.92c0,5.15,2.33,6,3.57,6a9.87,9.87,0,0,0,4.53-.89,0.56,0.56,0,0,1,.82.14l0.34,0.62a0.55,0.55,0,0,1-.14.75,11.55,11.55,0,0,1-7.62,2.75c-3.36,0-6.66-3.23-6.66-5.84,0-2.82.21-8.86,0.21-9.82v-1.51c0-1.24.07-5.91,0.14-8.79h-4.19a0.86,0.86,0,0,1-1-.82c0-.55.41-0.76,1.24-1.24,1.65-1,6.94-6.25,7.83-8.58a0.92,0.92,0,0,1,1-.69c0.55,0,.69.48,0.69,1l-0.34,6.73h9.54a0.45,0.45,0,0,1,.48.62l-0.69,2.4a0.56,0.56,0,0,1-.62.55h-8.86c-0.14,3.16-.21,6.52-0.21,9.68v6.87Z"/><path class="cls-1" d="M1944.55,732.24a17.69,17.69,0,0,0-.21,3.3c0,6.73,4.26,11.81,9.75,11.81a9.3,9.3,0,0,0,8.31-4.67,0.55,0.55,0,0,1,.62-0.34l0.89,0.48c0.21,0.07.34,0.27,0,1-1.24,2.75-4.81,7.48-10.92,7.48-3.91,0-8.24-1.17-10.78-4.87-2.4-3.5-3-6-3-10.85a15.46,15.46,0,0,1,4.33-10.92c3-3,6.39-3.64,9.82-3.64,7.9,0,10.09,7.42,10.09,10.09,0,1-.82,1.1-1.92,1.1h-17Zm10.92-2.06c1.3,0,1.85-.34,1.85-1,0-1.58-.82-6.11-5.29-6.11-3,0-5.91,2-7.21,7.07h10.64Z"/><path class="cls-1" d="M1973.8,732.24a17.6,17.6,0,0,0-.21,3.3c0,6.73,4.26,11.81,9.75,11.81a9.3,9.3,0,0,0,8.31-4.67,0.56,0.56,0,0,1,.62-0.34l0.89,0.48c0.21,0.07.34,0.27,0,1-1.24,2.75-4.81,7.48-10.92,7.48-3.91,0-8.24-1.17-10.78-4.87-2.4-3.5-3-6-3-10.85a15.46,15.46,0,0,1,4.33-10.92c3-3,6.39-3.64,9.82-3.64,7.9,0,10.09,7.42,10.09,10.09,0,1-.82,1.1-1.92,1.1h-17Zm10.92-2.06c1.3,0,1.85-.34,1.85-1,0-1.58-.82-6.11-5.29-6.11-3,0-5.91,2-7.21,7.07h10.64Z"/><path class="cls-1" d="M2006.76,741.92c0,5.15,2.33,6,3.57,6a9.87,9.87,0,0,0,4.53-.89,0.56,0.56,0,0,1,.82.14l0.34,0.62a0.55,0.55,0,0,1-.14.75,11.55,11.55,0,0,1-7.62,2.75c-3.36,0-6.66-3.23-6.66-5.84,0-2.82.21-8.86,0.21-9.82v-1.51c0-1.24.07-5.91,0.14-8.79h-4.19a0.86,0.86,0,0,1-1-.82c0-.55.41-0.76,1.24-1.24,1.65-1,6.94-6.25,7.83-8.58a0.92,0.92,0,0,1,1-.69c0.55,0,.69.48,0.69,1l-0.34,6.73h9.54a0.45,0.45,0,0,1,.48.62l-0.69,2.4a0.56,0.56,0,0,1-.62.55H2007c-0.14,3.16-.21,6.52-0.21,9.68v6.87Z"/><path class="cls-1" d="M2023.79,713.08c0-4.19-.82-4.94-3.3-5.77l-1.17-.41c-0.41-.14-0.48-0.21-0.48-0.41v-0.62c0-.27.21-0.34,0.82-0.69l7.14-3.78a3.62,3.62,0,0,1,1.58-.55c0.41,0,.69.55,0.55,1.72s-0.21,15.11-.21,18.54v4.39h0.34a13.1,13.1,0,0,1,9.41-4.46,9,9,0,0,1,6.8,2.75c3.09,2.88,3,6.39,3,10.09v3.91c0,3.85.14,8.1,0.14,9.41,0,0.82,1.1,1,2.54,1h1.17c0.55,0,.75.14,0.75,0.62v1c0,0.55-.14.82-0.55,0.82s-2.68-.21-6.59-0.21c-3.36,0-5.84.21-6.45,0.21s-0.62-.21-0.62-0.75v-1.17c0-.34.07-0.55,0.48-0.55h1.58c1.17,0,2.54-.14,2.61-1.3,0.07-1,0-4.6,0-6.8v-5.56c0-3.85-.28-6.59-2.27-8.45a6.3,6.3,0,0,0-4.53-1.92,8.38,8.38,0,0,0-6.39,2.88,6,6,0,0,0-1.37,3.37v15c0,2.2.21,2.82,1.51,2.82h2.06c0.48,0,.75.14,0.75,0.55V750c0,0.48-.14.75-0.55,0.75s-3.36-.21-6.52-0.21c-3.43,0-6,.21-6.66.21-0.27,0-.48-0.21-0.48-0.69v-1.24c0-.48.28-0.55,1-0.55h1.44c1.1,0,2.13-.28,2.27-1.1,0.21-1.3.21-8.86,0.21-13.32V713.08Z"/><path class="cls-1" d="M2067.94,749.2c0,7.21-6.66,12.08-8,12.91a3.54,3.54,0,0,1-1.37.62q-0.82,0-.82-0.62a1.14,1.14,0,0,1,.62-1c1.65-1.51,4.88-4.87,4.88-8.65a2.42,2.42,0,0,0-1.17-2.06c-0.69-.27-3.91-1.1-3.91-4.53,0-1.72,1.37-3.23,3.85-3.23A6.43,6.43,0,0,1,2067.94,749.2Z"/><path class="cls-1" d="M1779,650c0-4.6-.76-5.56-3.23-6.39l-0.69-.21c-0.76-.21-0.89-0.34-0.89-0.55V642.3a0.7,0.7,0,0,1,.55-0.55A72.51,72.51,0,0,0,1782,638a2.87,2.87,0,0,1,1.44-.62c0.48,0,.62.34,0.55,1.17-0.07.55-.07,8.38-0.07,14.49v8c2.2-2.13,6.11-3.43,9.48-3.43,6,0,12.57,4.88,12.57,14.69,0,8-6.45,15.59-14.28,15.59a15.85,15.85,0,0,1-8.1-1.79l-2.75,1.51a1,1,0,0,1-.89.21l-0.82-.21c-0.27-.07-0.34-0.21-0.27-0.55,0.14-1,.14-6.66.14-11.67V650Zm4.94,22.25c0,5.7.21,7.76,1,10,0.69,1.65,3.57,3.43,6.52,3.43,4.12,0,9.2-2.82,9.2-11.81,0-6.66-3.5-13-10.23-13a9.14,9.14,0,0,0-6.52,2.47v8.93Z"/><path class="cls-1" d="M1816.52,668.74a17.69,17.69,0,0,0-.21,3.3c0,6.73,4.26,11.81,9.75,11.81a9.3,9.3,0,0,0,8.31-4.67,0.55,0.55,0,0,1,.62-0.34l0.89,0.48c0.21,0.07.34,0.27,0,1-1.24,2.75-4.81,7.48-10.92,7.48-3.91,0-8.24-1.17-10.78-4.87-2.4-3.5-3-6-3-10.85a15.46,15.46,0,0,1,4.33-10.92c3-3,6.39-3.64,9.82-3.64,7.9,0,10.09,7.42,10.09,10.09,0,1-.82,1.1-1.92,1.1h-17Zm10.92-2.06c1.3,0,1.85-.34,1.85-1,0-1.58-.82-6.11-5.29-6.11-3,0-5.91,2-7.21,7.07h10.64Z"/><path class="cls-1" d="M1849.49,678.42c0,5.15,2.33,6,3.57,6a9.87,9.87,0,0,0,4.53-.89,0.56,0.56,0,0,1,.82.14l0.34,0.62a0.55,0.55,0,0,1-.14.75,11.55,11.55,0,0,1-7.62,2.75c-3.36,0-6.66-3.23-6.66-5.84,0-2.82.21-8.86,0.21-9.82v-1.51c0-1.24.07-5.91,0.14-8.79h-4.19a0.86,0.86,0,0,1-1-.82c0-.55.41-0.76,1.24-1.24,1.65-1,6.93-6.25,7.83-8.58a0.92,0.92,0,0,1,1-.69c0.55,0,.69.48,0.69,1l-0.34,6.73h9.54a0.45,0.45,0,0,1,.48.62l-0.69,2.4a0.56,0.56,0,0,1-.62.55h-8.86c-0.14,3.16-.21,6.52-0.21,9.68v6.87Z"/><path class="cls-1" d="M1893.84,679.52h0.27l5.56-15.17c0.89-2.4.34-3.78-1-3.78h-1c-0.34,0-.41-0.21-0.41-0.55v-1.44a0.43,0.43,0,0,1,.48-0.48c0.41,0,2.47.21,5.29,0.21s4.19-.21,5-0.21a0.43,0.43,0,0,1,.48.48V660a0.46,0.46,0,0,1-.48.55h-1.72a2.93,2.93,0,0,0-2.2,1.17c-0.82,1.3-9.54,23.21-10.44,25.41a1.21,1.21,0,0,1-1.3.89,1.59,1.59,0,0,1-1.24-1.3l-6.73-19.64h-0.34l-8.45,19.84a1.53,1.53,0,0,1-1.44,1.1c-0.55,0-.89-0.55-1.17-1.37l-9-24.24c-0.48-1.3-1.24-1.85-2.88-1.85h-1.51c-0.41,0-.48-0.21-0.48-0.62v-1.3c0-.34.07-0.55,0.41-0.55,1,0,2.33.21,6.25,0.21,3.09,0,4.74-.21,5.77-0.21a0.45,0.45,0,0,1,.55.55V660a0.45,0.45,0,0,1-.55.55H1871c-0.76,0-1.24.62-.82,1.85l5.42,18.26h0.27l7-16.82a4.19,4.19,0,0,0-.62-2.2,2,2,0,0,0-1.85-.69h-1a0.41,0.41,0,0,1-.48-0.48v-1.44a0.5,0.5,0,0,1,.62-0.55c0.55,0,2.75.21,6.18,0.21,3.16,0,4.67-.21,5.22-0.21s0.62,0.14.62,0.48v1.44a0.46,0.46,0,0,1-.48.55h-1.44a1.26,1.26,0,0,0-1,1.79Z"/><path class="cls-1" d="M1914.72,668.74a17.69,17.69,0,0,0-.21,3.3c0,6.73,4.26,11.81,9.75,11.81a9.3,9.3,0,0,0,8.31-4.67,0.56,0.56,0,0,1,.62-0.34l0.89,0.48c0.21,0.07.34,0.27,0,1-1.24,2.75-4.81,7.48-10.92,7.48-3.91,0-8.24-1.17-10.78-4.87-2.4-3.5-3-6-3-10.85a15.46,15.46,0,0,1,4.33-10.92c3-3,6.39-3.64,9.82-3.64,7.9,0,10.09,7.42,10.09,10.09,0,1-.82,1.1-1.92,1.1h-17Zm10.92-2.06c1.3,0,1.85-.34,1.85-1,0-1.58-.82-6.11-5.29-6.11-3,0-5.91,2-7.21,7.07h10.64Z"/><path class="cls-1" d="M1944,668.74a17.6,17.6,0,0,0-.21,3.3c0,6.73,4.26,11.81,9.75,11.81a9.3,9.3,0,0,0,8.31-4.67,0.56,0.56,0,0,1,.62-0.34l0.89,0.48c0.21,0.07.34,0.27,0,1-1.24,2.75-4.81,7.48-10.92,7.48-3.91,0-8.24-1.17-10.78-4.87-2.4-3.5-3-6-3-10.85a15.46,15.46,0,0,1,4.33-10.92c3-3,6.39-3.64,9.82-3.64,7.9,0,10.09,7.42,10.09,10.09,0,1-.82,1.1-1.92,1.1h-17Zm10.92-2.06c1.3,0,1.85-.34,1.85-1,0-1.58-.82-6.11-5.29-6.11-3,0-5.91,2-7.21,7.07h10.64Z"/><path class="cls-1" d="M1996.09,683.29a1.29,1.29,0,0,0,1.51,1.44h2.2c0.62,0,.75.21,0.75,0.62v1.1c0,0.48-.14.75-0.55,0.75s-2.61-.21-6.52-0.21c-3.5,0-5.7.21-6.18,0.21s-0.55-.21-0.55-0.75v-1.1c0-.48.21-0.62,0.89-0.62h2c0.75,0,1.3-.34,1.37-1.58,0.07-1.79.14-4,.14-5.77v-9.06c0-2.75,0-4.74-2-6.18-1.65-1.24-3.3-1.24-5-1.24a8.05,8.05,0,0,0-5.56,2.68,6.74,6.74,0,0,0-1.58,4.67v14.21c0,1.85.21,2.27,1.65,2.27h1.72a0.57,0.57,0,0,1,.69.69v1.17c0,0.41-.14.62-0.48,0.62s-2.33-.21-6-0.21-5.7.21-6.11,0.21-0.48-.21-0.48-0.62v-1.24c0-.41.14-0.62,0.69-0.62h2a1.13,1.13,0,0,0,1.37-1.37V667.3a4.23,4.23,0,0,0-2.82-4.05l-0.55-.27a0.66,0.66,0,0,1-.55-0.62V662a0.8,0.8,0,0,1,.62-0.69l5.91-3.3a3.63,3.63,0,0,1,1.24-.48c0.34,0,.48.27,0.55,0.82l0.48,4.19h0.14c2-2.47,6-5,9.41-5a10.6,10.6,0,0,1,5.84,1.51,10,10,0,0,1,3.78,6.52v17.72Z"/><path class="cls-1" d="M1807.73,829.53H1808l5.56-15.17c0.89-2.4.34-3.78-1-3.78h-1c-0.34,0-.41-0.21-0.41-0.55v-1.44a0.43,0.43,0,0,1,.48-0.48c0.41,0,2.47.21,5.29,0.21s4.19-.21,5-0.21a0.43,0.43,0,0,1,.48.48V810a0.46,0.46,0,0,1-.48.55h-1.72a2.93,2.93,0,0,0-2.2,1.17c-0.82,1.3-9.54,23.21-10.44,25.41a1.21,1.21,0,0,1-1.3.89,1.59,1.59,0,0,1-1.24-1.3l-6.73-19.64H1798l-8.45,19.84a1.53,1.53,0,0,1-1.44,1.1c-0.55,0-.89-0.55-1.17-1.37l-9-24.24c-0.48-1.3-1.24-1.85-2.88-1.85h-1.51c-0.41,0-.48-0.21-0.48-0.62v-1.3c0-.34.07-0.55,0.41-0.55,1,0,2.33.21,6.25,0.21,3.09,0,4.74-.21,5.77-0.21a0.46,0.46,0,0,1,.55.55V810a0.45,0.45,0,0,1-.55.55h-0.62c-0.75,0-1.24.62-.82,1.85l5.42,18.26h0.28l7-16.82a4.18,4.18,0,0,0-.62-2.2,2,2,0,0,0-1.85-.69h-1a0.41,0.41,0,0,1-.48-0.48v-1.44a0.5,0.5,0,0,1,.62-0.55c0.55,0,2.75.21,6.18,0.21,3.16,0,4.67-.21,5.22-0.21s0.62,0.14.62,0.48v1.44a0.46,0.46,0,0,1-.48.55h-1.44a1.26,1.26,0,0,0-1,1.79Z"/><path class="cls-1" d="M1828.13,817c0-2.33-.41-3.57-3.84-4.12-0.48-.07-0.62-0.21-0.62-0.48v-0.62a0.56,0.56,0,0,1,.48-0.48,56.3,56.3,0,0,0,7.42-3.36,2.83,2.83,0,0,1,1.3-.41c0.34,0,.41.34,0.34,0.82-0.14,1.17-.14,5.49-0.14,11.19v7.48c0,2.68,0,5.15.07,5.91,0.14,1.3.34,1.79,1.1,1.79h3.16c0.55,0,.69.21,0.69,0.62v1.17a0.55,0.55,0,0,1-.62.69c-0.55,0-3.71-.21-6.59-0.21-4,0-6.66.21-7.42,0.21a0.48,0.48,0,0,1-.55-0.55V835.3c0-.41.21-0.55,0.69-0.55H1827c0.75,0,1-.28,1.1-1.37,0.07-2.06.07-4.19,0.07-6.25V817ZM1824.9,796a4,4,0,0,1,4.33-3.84,3.62,3.62,0,0,1,3.71,3.64,3.93,3.93,0,0,1-4.12,4.05A4.18,4.18,0,0,1,1824.9,796Z"/><path class="cls-1" d="M1851.06,828.43c0,5.15,2.33,6,3.57,6a9.87,9.87,0,0,0,4.53-.89,0.56,0.56,0,0,1,.82.14l0.34,0.62a0.55,0.55,0,0,1-.14.75,11.55,11.55,0,0,1-7.62,2.75c-3.36,0-6.66-3.23-6.66-5.84,0-2.82.21-8.86,0.21-9.82v-1.51c0-1.24.07-5.91,0.14-8.79h-4.19a0.86,0.86,0,0,1-1-.82c0-.55.41-0.76,1.24-1.24,1.65-1,6.93-6.25,7.83-8.58a0.92,0.92,0,0,1,1-.69c0.55,0,.69.48,0.69,1l-0.34,6.73H1861a0.45,0.45,0,0,1,.48.62l-0.69,2.4a0.56,0.56,0,0,1-.62.55h-8.86c-0.14,3.16-.21,6.52-0.21,9.68v6.87Z"/><path class="cls-1" d="M1868.09,799.6c0-4.19-.82-4.94-3.3-5.77l-1.17-.41c-0.41-.14-0.48-0.21-0.48-0.41v-0.62c0-.27.21-0.34,0.82-0.69l7.14-3.78a3.63,3.63,0,0,1,1.58-.55c0.41,0,.69.55,0.55,1.72s-0.21,15.11-.21,18.54V812h0.34a13.1,13.1,0,0,1,9.41-4.46,9,9,0,0,1,6.8,2.75c3.09,2.88,3,6.39,3,10.09v3.91c0,3.85.14,8.1,0.14,9.41,0,0.82,1.1,1,2.54,1h1.17c0.55,0,.75.14,0.75,0.62v1c0,0.55-.14.82-0.55,0.82s-2.68-.21-6.59-0.21c-3.36,0-5.84.21-6.45,0.21s-0.62-.21-0.62-0.76V835.3c0-.34.07-0.55,0.48-0.55H1885c1.17,0,2.54-.14,2.61-1.3,0.07-1,0-4.6,0-6.8v-5.56c0-3.84-.27-6.59-2.27-8.45a6.3,6.3,0,0,0-4.53-1.92,8.38,8.38,0,0,0-6.39,2.88A6,6,0,0,0,1873,817v15c0,2.2.21,2.82,1.51,2.82h2.06c0.48,0,.75.14,0.75,0.55v1.17c0,0.48-.14.76-0.55,0.76s-3.36-.21-6.52-0.21c-3.43,0-6,.21-6.66.21-0.27,0-.48-0.21-0.48-0.69V835.3c0-.48.27-0.55,1-0.55h1.44c1.1,0,2.13-.28,2.27-1.1,0.21-1.3.21-8.86,0.21-13.32V799.6Z"/><path class="cls-1" d="M1941.5,819.44c0-5.08-1-6.39-2.06-7.42a7.39,7.39,0,0,0-4.39-1.24,8,8,0,0,0-6.59,4,8.16,8.16,0,0,0-1,4.6V833c0,1.1.41,1.79,1.37,1.79h2.47c0.62,0,.69.14,0.69,0.62v1.1c0,0.48-.07.76-0.55,0.76s-2.47-.21-6.25-0.21-5.84.21-6.39,0.21-0.55-.14-0.55-0.62v-1.24c0-.55.14-0.62,0.82-0.62h2.33c0.62,0,1-.41,1-1.72s0.07-2.4.07-3.57V817.24a3.48,3.48,0,0,0-1.92-3.5l-1.44-.75a0.7,0.7,0,0,1-.48-0.55v-0.55a0.85,0.85,0,0,1,.41-0.55l6-3.09a3.4,3.4,0,0,1,1.3-.41,0.82,0.82,0,0,1,.62,1l0.27,4h0.21a13.34,13.34,0,0,1,10.09-5.22,8.33,8.33,0,0,1,7.76,5.29h0.34c2.06-2.68,6-5.29,10.09-5.29,2.4,0,4.53.41,6.18,2.06s3.3,3.16,3.3,8.45v15.31a1.25,1.25,0,0,0,1.44,1.37h1.85c0.62,0,.75.14,0.75,0.62v1.17c0,0.48-.14.69-0.48,0.69s-2.4-.21-5.7-0.21-5.91.21-6.39,0.21-0.55-.21-0.55-0.69v-1.17c0-.48.14-0.62,0.89-0.62h1.72a1.24,1.24,0,0,0,1.37-1.3c0.14-1.58.14-4.05,0.14-5.56V817.72c0-2.27-.41-4.26-2-5.49a8.26,8.26,0,0,0-5.08-1.44,7.74,7.74,0,0,0-6,3.57c-1,2-1,3.84-1,6.93v11.88a1.33,1.33,0,0,0,1.37,1.58h2.33c0.62,0,.76.14,0.76,0.62v1.1c0,0.55-.14.76-0.48,0.76s-2.27-.21-6.11-0.21-6,.21-6.46.21-0.48-.21-0.48-0.69v-1.1c0-.55.07-0.69,0.69-0.69h2c1.1,0,1.51-.28,1.51-1.17V819.44Z"/><path class="cls-1" d="M1971.09,852.19a3,3,0,0,1,3.16-2.68,11.82,11.82,0,0,1,3.16.75,1.65,1.65,0,0,0,1.44-.41c1-1.24,4.53-9.06,5.49-11.74-0.34-1.72-7.62-23.21-8.17-24.65-0.82-1.72-1.44-2.88-3.23-2.88h-1.79c-0.48,0-.55-0.21-0.55-0.62v-1.37c0-.28.07-0.48,0.55-0.48s2.27,0.21,6.32.21c3.5,0,5.63-.21,6.39-0.21,0.55,0,.62.21,0.62,0.48V810c0,0.34-.07.55-0.41,0.55h-1.3c-0.75,0-1,.48-0.89,1.51,0.21,1.51,4.88,16.69,5.63,18.2h0.27c0.69-1.1,6.66-15.38,7.07-17.1s-0.14-2.61-1.17-2.61h-1.1c-0.41,0-.48-0.21-0.48-0.55v-1.37c0-.34.07-0.55,0.41-0.55,0.89,0,2.33.21,5.63,0.21,1.85,0,3.43-.21,4.19-0.21,0.41,0,.41.28,0.41,0.55V810c0,0.41,0,.62-0.34.62h-1.1a3.08,3.08,0,0,0-2.4,1.24c-1.51,1.85-6,12.36-10.78,23.14-3.37,7.62-6,14-7.28,16.27-1,1.79-2.2,4.46-5.84,4.46C1972.4,855.69,1971.09,854.25,1971.09,852.19Z"/></svg>